%TF.GenerationSoftware,KiCad,Pcbnew,8.0.1*%
%TF.CreationDate,2024-05-10T14:52:22-06:00*%
%TF.ProjectId,ISA adapter,49534120-6164-4617-9074-65722e6b6963,rev?*%
%TF.SameCoordinates,Original*%
%TF.FileFunction,Soldermask,Top*%
%TF.FilePolarity,Negative*%
%FSLAX46Y46*%
G04 Gerber Fmt 4.6, Leading zero omitted, Abs format (unit mm)*
G04 Created by KiCad (PCBNEW 8.0.1) date 2024-05-10 14:52:22*
%MOMM*%
%LPD*%
G01*
G04 APERTURE LIST*
G04 Aperture macros list*
%AMRoundRect*
0 Rectangle with rounded corners*
0 $1 Rounding radius*
0 $2 $3 $4 $5 $6 $7 $8 $9 X,Y pos of 4 corners*
0 Add a 4 corners polygon primitive as box body*
4,1,4,$2,$3,$4,$5,$6,$7,$8,$9,$2,$3,0*
0 Add four circle primitives for the rounded corners*
1,1,$1+$1,$2,$3*
1,1,$1+$1,$4,$5*
1,1,$1+$1,$6,$7*
1,1,$1+$1,$8,$9*
0 Add four rect primitives between the rounded corners*
20,1,$1+$1,$2,$3,$4,$5,0*
20,1,$1+$1,$4,$5,$6,$7,0*
20,1,$1+$1,$6,$7,$8,$9,0*
20,1,$1+$1,$8,$9,$2,$3,0*%
G04 Aperture macros list end*
%ADD10C,0.000000*%
%ADD11C,0.100000*%
%ADD12R,1.524000X6.248400*%
%ADD13O,1.800000X2.800000*%
%ADD14C,1.300000*%
%ADD15C,1.600000*%
%ADD16R,1.200000X1.867800*%
%ADD17R,1.200000X1.842400*%
%ADD18R,1.200000X1.893200*%
%ADD19R,1.200000X1.400000*%
%ADD20R,2.200000X1.400000*%
%ADD21O,1.400000X2.200000*%
%ADD22O,3.200000X1.600000*%
%ADD23C,3.200000*%
%ADD24RoundRect,0.425000X-0.425000X0.425000X-0.425000X-0.425000X0.425000X-0.425000X0.425000X0.425000X0*%
%ADD25O,1.700000X1.700000*%
%ADD26RoundRect,0.250000X-0.262500X-0.450000X0.262500X-0.450000X0.262500X0.450000X-0.262500X0.450000X0*%
%ADD27RoundRect,0.150000X-0.150000X0.825000X-0.150000X-0.825000X0.150000X-0.825000X0.150000X0.825000X0*%
%ADD28C,5.500000*%
%ADD29RoundRect,0.250000X0.475000X-0.250000X0.475000X0.250000X-0.475000X0.250000X-0.475000X-0.250000X0*%
%ADD30C,1.200000*%
%ADD31R,1.350000X1.350000*%
%ADD32O,1.350000X1.350000*%
%ADD33R,1.700000X1.700000*%
G04 APERTURE END LIST*
D10*
G36*
X171653397Y-69547866D02*
G01*
X171553625Y-69885858D01*
X170065488Y-69886507D01*
X170036239Y-69886507D01*
X170008290Y-69887482D01*
X169982289Y-69888783D01*
X169957591Y-69890408D01*
X169934192Y-69893008D01*
X169912091Y-69895933D01*
X169891618Y-69899182D01*
X169872442Y-69903082D01*
X169854569Y-69907632D01*
X169837668Y-69912507D01*
X169822070Y-69917707D01*
X169807444Y-69923232D01*
X169793794Y-69929406D01*
X169781445Y-69935581D01*
X169770070Y-69942406D01*
X169759347Y-69949556D01*
X169749597Y-69957031D01*
X169740496Y-69964831D01*
X169732371Y-69972956D01*
X169724896Y-69981080D01*
X169718073Y-69989530D01*
X169711895Y-69998305D01*
X169706372Y-70007404D01*
X169701172Y-70016504D01*
X169696622Y-70025930D01*
X169692399Y-70035354D01*
X169684924Y-70054853D01*
X169678423Y-70074678D01*
X169672898Y-70094827D01*
X169600098Y-70355796D01*
X169594900Y-70376270D01*
X169591000Y-70396095D01*
X169587750Y-70414619D01*
X169585797Y-70432169D01*
X169584500Y-70449069D01*
X169584500Y-70464668D01*
X169585475Y-70479618D01*
X169587102Y-70493917D01*
X169589697Y-70506917D01*
X169593273Y-70519591D01*
X169597825Y-70531292D01*
X169603348Y-70542016D01*
X169609525Y-70552091D01*
X169616673Y-70561841D01*
X169624799Y-70570615D01*
X169633574Y-70578740D01*
X169643324Y-70586215D01*
X169653723Y-70593039D01*
X169665098Y-70599215D01*
X169677446Y-70605064D01*
X169690122Y-70610265D01*
X169703770Y-70615140D01*
X169733346Y-70622939D01*
X169765845Y-70629114D01*
X169801269Y-70633989D01*
X169839620Y-70637238D01*
X169880242Y-70639513D01*
X170016738Y-70637564D01*
X170316706Y-70637889D01*
X170752195Y-70639513D01*
X170786967Y-70638213D01*
X170820768Y-70638539D01*
X170853592Y-70639513D01*
X170885116Y-70642113D01*
X170915990Y-70645689D01*
X170945568Y-70650239D01*
X170974490Y-70656088D01*
X171001791Y-70663238D01*
X171028112Y-70671363D01*
X171053461Y-70680463D01*
X171077187Y-70691187D01*
X171099938Y-70702887D01*
X171121388Y-70715562D01*
X171141210Y-70729536D01*
X171160060Y-70744811D01*
X171177286Y-70761060D01*
X171193207Y-70778610D01*
X171207833Y-70797459D01*
X171220508Y-70817284D01*
X171232206Y-70838409D01*
X171241957Y-70860508D01*
X171250084Y-70883908D01*
X171256909Y-70908607D01*
X171261785Y-70934281D01*
X171265032Y-70961580D01*
X171266657Y-70989530D01*
X171266657Y-71019104D01*
X171264707Y-71049653D01*
X171260807Y-71081502D01*
X171255282Y-71114327D01*
X171247809Y-71148776D01*
X171238381Y-71184200D01*
X171107086Y-71662913D01*
X171097335Y-71693462D01*
X171085964Y-71722386D01*
X171073287Y-71750335D01*
X171059313Y-71776660D01*
X171044038Y-71802009D01*
X171027464Y-71826059D01*
X171009589Y-71848808D01*
X170990743Y-71870257D01*
X170970915Y-71890732D01*
X170950116Y-71910232D01*
X170928343Y-71928432D01*
X170905592Y-71945656D01*
X170857820Y-71976855D01*
X170807768Y-72003829D01*
X170755443Y-72027229D01*
X170701171Y-72046728D01*
X170646248Y-72062978D01*
X170590673Y-72075977D01*
X170534776Y-72085727D01*
X170479526Y-72092877D01*
X170425253Y-72097102D01*
X170372281Y-72099052D01*
X168062238Y-72099052D01*
X168151612Y-71750011D01*
X169706697Y-71751311D01*
X169742446Y-71749686D01*
X169776573Y-71746436D01*
X169808744Y-71741236D01*
X169824343Y-71737986D01*
X169839293Y-71734411D01*
X169853919Y-71730186D01*
X169868219Y-71725636D01*
X169882192Y-71720436D01*
X169895518Y-71714587D01*
X169908843Y-71708412D01*
X169921517Y-71701587D01*
X169933865Y-71694437D01*
X169946215Y-71686637D01*
X169957918Y-71678187D01*
X169969289Y-71669088D01*
X169980664Y-71659337D01*
X169991390Y-71648938D01*
X170002115Y-71638213D01*
X170012190Y-71626514D01*
X170022264Y-71614489D01*
X170032014Y-71601489D01*
X170041762Y-71587840D01*
X170050862Y-71573865D01*
X170068736Y-71543316D01*
X170085961Y-71509842D01*
X170102212Y-71473442D01*
X170166885Y-71244973D01*
X170177283Y-71213449D01*
X170181183Y-71198175D01*
X170184433Y-71183225D01*
X170187036Y-71168600D01*
X170188986Y-71154301D01*
X170189961Y-71140326D01*
X170189961Y-71127001D01*
X170189636Y-71113677D01*
X170188011Y-71101327D01*
X170186061Y-71088978D01*
X170182810Y-71077278D01*
X170178910Y-71065903D01*
X170174360Y-71055178D01*
X170168835Y-71045104D01*
X170162335Y-71035354D01*
X170154859Y-71026254D01*
X170146736Y-71017479D01*
X170137638Y-71009354D01*
X170127561Y-71001880D01*
X170116512Y-70995055D01*
X170104485Y-70988880D01*
X170091812Y-70983355D01*
X170077836Y-70978155D01*
X170063213Y-70973931D01*
X170047289Y-70970355D01*
X170030714Y-70967430D01*
X170012838Y-70965155D01*
X169994315Y-70963531D01*
X169974489Y-70962880D01*
X169953691Y-70962880D01*
X169931915Y-70963856D01*
X169576049Y-70965155D01*
X169331981Y-70964831D01*
X169221809Y-70963531D01*
X168979688Y-70963856D01*
X168909818Y-70960281D01*
X168840267Y-70952156D01*
X168806146Y-70946306D01*
X168772344Y-70938831D01*
X168739848Y-70929406D01*
X168708324Y-70918032D01*
X168678423Y-70904382D01*
X168650149Y-70888782D01*
X168623498Y-70870258D01*
X168599124Y-70849458D01*
X168577026Y-70825409D01*
X168557527Y-70798760D01*
X168540627Y-70768536D01*
X168526978Y-70735061D01*
X168516576Y-70698338D01*
X168509428Y-70657388D01*
X168506178Y-70612864D01*
X168506825Y-70564116D01*
X168511703Y-70511142D01*
X168520801Y-70453618D01*
X168534774Y-70391545D01*
X168553300Y-70324596D01*
X168666725Y-69891382D01*
X168682971Y-69856934D01*
X168700849Y-69825084D01*
X168720022Y-69795185D01*
X168740495Y-69767561D01*
X168762271Y-69742211D01*
X168785345Y-69718812D01*
X168809718Y-69697037D01*
X168835394Y-69677538D01*
X168862693Y-69659663D01*
X168891292Y-69643414D01*
X168952065Y-69615789D01*
X169018690Y-69594015D01*
X169090838Y-69577116D01*
X169168511Y-69564766D01*
X169251708Y-69556316D01*
X169340431Y-69550791D01*
X169435003Y-69547866D01*
X169871144Y-69547541D01*
X171653397Y-69547866D01*
G37*
G36*
X164610825Y-69889433D02*
G01*
X163280309Y-69889433D01*
X163145113Y-69892682D01*
X163026814Y-69901457D01*
X162924118Y-69917382D01*
X162877968Y-69928107D01*
X162835069Y-69941107D01*
X162795421Y-69956381D01*
X162758371Y-69973931D01*
X162723922Y-69994080D01*
X162692073Y-70017155D01*
X162662174Y-70042829D01*
X162634224Y-70071103D01*
X162608226Y-70102952D01*
X162583526Y-70137726D01*
X162538028Y-70217675D01*
X162496427Y-70311922D01*
X162456454Y-70421444D01*
X162416805Y-70547866D01*
X162226360Y-71240424D01*
X162217261Y-71277473D01*
X162210761Y-71312571D01*
X162206861Y-71346371D01*
X162205561Y-71378220D01*
X162206536Y-71408444D01*
X162209786Y-71437368D01*
X162214986Y-71464343D01*
X162222136Y-71490342D01*
X162231236Y-71514392D01*
X162241636Y-71537466D01*
X162253985Y-71558916D01*
X162267309Y-71579065D01*
X162281934Y-71597589D01*
X162297859Y-71615139D01*
X162314759Y-71631389D01*
X162332309Y-71646663D01*
X162350507Y-71660313D01*
X162369357Y-71673313D01*
X162388532Y-71684687D01*
X162408031Y-71695412D01*
X162447679Y-71713286D01*
X162486354Y-71727586D01*
X162523728Y-71738311D01*
X162558502Y-71745786D01*
X162589376Y-71750011D01*
X162615375Y-71751636D01*
X163053139Y-71751960D01*
X163313133Y-70831909D01*
X164365782Y-70831584D01*
X164022266Y-72101976D01*
X163771696Y-72098402D01*
X163222460Y-72097752D01*
X162427855Y-72101652D01*
X162319308Y-72101976D01*
X162205236Y-72100677D01*
X162087264Y-72096452D01*
X161967667Y-72088002D01*
X161848394Y-72074028D01*
X161789572Y-72064602D01*
X161731724Y-72053554D01*
X161675174Y-72040553D01*
X161619925Y-72025604D01*
X161566302Y-72008379D01*
X161514955Y-71988880D01*
X161465555Y-71966781D01*
X161418756Y-71942081D01*
X161374881Y-71914782D01*
X161333932Y-71884232D01*
X161296235Y-71850758D01*
X161262110Y-71814360D01*
X161231885Y-71774385D01*
X161205886Y-71730836D01*
X161184112Y-71683712D01*
X161166887Y-71633013D01*
X161154863Y-71578090D01*
X161147713Y-71519266D01*
X161146087Y-71456218D01*
X161150311Y-71388945D01*
X161160387Y-71317122D01*
X161176636Y-71240424D01*
X161414857Y-70331421D01*
X161441505Y-70240099D01*
X161473679Y-70153976D01*
X161511053Y-70072728D01*
X161553953Y-69996680D01*
X161602701Y-69926157D01*
X161657950Y-69861158D01*
X161688173Y-69830609D01*
X161719699Y-69801685D01*
X161753172Y-69774061D01*
X161788597Y-69748061D01*
X161825644Y-69723687D01*
X161864319Y-69700612D01*
X161904943Y-69679162D01*
X161947517Y-69659339D01*
X161992042Y-69641139D01*
X162038841Y-69624889D01*
X162087264Y-69609939D01*
X162137964Y-69596615D01*
X162245210Y-69575166D01*
X162361558Y-69560866D01*
X162486679Y-69553391D01*
X164707348Y-69553391D01*
X164610825Y-69889433D01*
G37*
G36*
X151111183Y-69549816D02*
G01*
X151214855Y-69554042D01*
X151308127Y-69562166D01*
X151391976Y-69574191D01*
X151465748Y-69590765D01*
X151530097Y-69611890D01*
X151559021Y-69624240D01*
X151585346Y-69637889D01*
X151609395Y-69652514D01*
X151631170Y-69668763D01*
X151650669Y-69685987D01*
X151668219Y-69704837D01*
X151683168Y-69724987D01*
X151696168Y-69746436D01*
X151707218Y-69769510D01*
X151715992Y-69793885D01*
X151722492Y-69819560D01*
X151727042Y-69846859D01*
X151729642Y-69875783D01*
X151729967Y-69906332D01*
X151725092Y-69971656D01*
X151712093Y-70043804D01*
X151551222Y-70631389D01*
X151542122Y-70667463D01*
X151530422Y-70701262D01*
X151516773Y-70732786D01*
X151500848Y-70762686D01*
X151482973Y-70790634D01*
X151463474Y-70816634D01*
X151442024Y-70841009D01*
X151418950Y-70863758D01*
X151394576Y-70884557D01*
X151368576Y-70904057D01*
X151340952Y-70921932D01*
X151312352Y-70938181D01*
X151282778Y-70953131D01*
X151251904Y-70966780D01*
X151220380Y-70979455D01*
X151187881Y-70990504D01*
X151154732Y-71000579D01*
X151120933Y-71009354D01*
X151052034Y-71024304D01*
X150981836Y-71035679D01*
X150911313Y-71044129D01*
X150841115Y-71049653D01*
X150772216Y-71053228D01*
X150641895Y-71056153D01*
X150642869Y-71058428D01*
X149690319Y-71058428D01*
X149607446Y-70830934D01*
X150124833Y-70831909D01*
X150180081Y-70829634D01*
X150207056Y-70828009D01*
X150233705Y-70825084D01*
X150259704Y-70821184D01*
X150285054Y-70815660D01*
X150310078Y-70808184D01*
X150322103Y-70803635D01*
X150334127Y-70798434D01*
X150345827Y-70792585D01*
X150357527Y-70786085D01*
X150369226Y-70778935D01*
X150380276Y-70771135D01*
X150391326Y-70762686D01*
X150402375Y-70752936D01*
X150412776Y-70742536D01*
X150423175Y-70731487D01*
X150433575Y-70719136D01*
X150443324Y-70706137D01*
X150453075Y-70691837D01*
X150462499Y-70676563D01*
X150471924Y-70659988D01*
X150480699Y-70642439D01*
X150489473Y-70623914D01*
X150497923Y-70604089D01*
X150637669Y-70122452D01*
X150648719Y-70089627D01*
X150653269Y-70074353D01*
X150657169Y-70059728D01*
X150660094Y-70045753D01*
X150662044Y-70032429D01*
X150663344Y-70019754D01*
X150663669Y-70008055D01*
X150663019Y-69996355D01*
X150661719Y-69985630D01*
X150659119Y-69975555D01*
X150655869Y-69966131D01*
X150651319Y-69957031D01*
X150645794Y-69948581D01*
X150638970Y-69940781D01*
X150631170Y-69933631D01*
X150622070Y-69926806D01*
X150611995Y-69920631D01*
X150600620Y-69915107D01*
X150587946Y-69909907D01*
X150573646Y-69905357D01*
X150558372Y-69901132D01*
X150541797Y-69897557D01*
X150523597Y-69894307D01*
X150504098Y-69891707D01*
X150482974Y-69889433D01*
X150460549Y-69887808D01*
X150436500Y-69886507D01*
X150383526Y-69885208D01*
X150324053Y-69885532D01*
X149823565Y-69886507D01*
X149225580Y-72097752D01*
X148172282Y-72097752D01*
X148862889Y-69552416D01*
X150872639Y-69552416D01*
X150997111Y-69549491D01*
X151111183Y-69549816D01*
G37*
G36*
X156688902Y-70511792D02*
G01*
X155358385Y-70511792D01*
X155223188Y-70513417D01*
X155106191Y-70517641D01*
X155005119Y-70525117D01*
X154960270Y-70530317D01*
X154918996Y-70536491D01*
X154880972Y-70543966D01*
X154846198Y-70552416D01*
X154814024Y-70562490D01*
X154784775Y-70573865D01*
X154758125Y-70586865D01*
X154733751Y-70601490D01*
X154711327Y-70617739D01*
X154690851Y-70635614D01*
X154672327Y-70655763D01*
X154655103Y-70677538D01*
X154639503Y-70701262D01*
X154624878Y-70727587D01*
X154611229Y-70755536D01*
X154598229Y-70786410D01*
X154573855Y-70854658D01*
X154550131Y-70933306D01*
X154525756Y-71023004D01*
X154467908Y-71238148D01*
X154458807Y-71275198D01*
X154452308Y-71310297D01*
X154448408Y-71344096D01*
X154447107Y-71375945D01*
X154448083Y-71406169D01*
X154451333Y-71435093D01*
X154456533Y-71462393D01*
X154463683Y-71488067D01*
X154472782Y-71512117D01*
X154483182Y-71535191D01*
X154495531Y-71556640D01*
X154508856Y-71576790D01*
X154523481Y-71595640D01*
X154539405Y-71612864D01*
X154556305Y-71629113D01*
X154573855Y-71644388D01*
X154592054Y-71658363D01*
X154610904Y-71671038D01*
X154630078Y-71682737D01*
X154649578Y-71693137D01*
X154689227Y-71711337D01*
X154727901Y-71725311D01*
X154765274Y-71736036D01*
X154800049Y-71743511D01*
X154830923Y-71747736D01*
X154856923Y-71749361D01*
X155294686Y-71749686D01*
X156347660Y-71749361D01*
X156263812Y-72099702D01*
X156013243Y-72096126D01*
X155464332Y-72095802D01*
X154669402Y-72099377D01*
X154560855Y-72100027D01*
X154446783Y-72098402D01*
X154328811Y-72094177D01*
X154209214Y-72085727D01*
X154089942Y-72071753D01*
X154031119Y-72062328D01*
X153973270Y-72051278D01*
X153916721Y-72038278D01*
X153861473Y-72023329D01*
X153807849Y-72006104D01*
X153756500Y-71986604D01*
X153707102Y-71964505D01*
X153660303Y-71939806D01*
X153616429Y-71912507D01*
X153575480Y-71881957D01*
X153537781Y-71848808D01*
X153503657Y-71812084D01*
X153473433Y-71772110D01*
X153447433Y-71728562D01*
X153425659Y-71681438D01*
X153408434Y-71630739D01*
X153396409Y-71575815D01*
X153389259Y-71516992D01*
X153387635Y-71453943D01*
X153391859Y-71386670D01*
X153401934Y-71314847D01*
X153418185Y-71238148D01*
X153492932Y-70953780D01*
X153519581Y-70862783D01*
X153551756Y-70776335D01*
X153588805Y-70695412D01*
X153632028Y-70619364D01*
X153680777Y-70548516D01*
X153736026Y-70483517D01*
X153766250Y-70452968D01*
X153797774Y-70424044D01*
X153831248Y-70396420D01*
X153866673Y-70370420D01*
X153903721Y-70346046D01*
X153942396Y-70322972D01*
X153983020Y-70301847D01*
X154025594Y-70282023D01*
X154070117Y-70263823D01*
X154116917Y-70247248D01*
X154165340Y-70232299D01*
X154216039Y-70218974D01*
X154323286Y-70197525D01*
X154439633Y-70183225D01*
X154564755Y-70176075D01*
X156785424Y-70176075D01*
X156688902Y-70511792D01*
G37*
G36*
X166193536Y-69550466D02*
G01*
X166258859Y-69550466D01*
X165910792Y-70828984D01*
X165911118Y-70828984D01*
X165798670Y-71237499D01*
X165789571Y-71274548D01*
X165783396Y-71309646D01*
X165779495Y-71343121D01*
X165778197Y-71375295D01*
X165779171Y-71405520D01*
X165782420Y-71434444D01*
X165787621Y-71461418D01*
X165794770Y-71487417D01*
X165803869Y-71511467D01*
X165814270Y-71534541D01*
X165826294Y-71555991D01*
X165839945Y-71575815D01*
X165854568Y-71594665D01*
X165870492Y-71612214D01*
X165887068Y-71628464D01*
X165904942Y-71643738D01*
X165923143Y-71657388D01*
X165941992Y-71670063D01*
X165961166Y-71681762D01*
X165980665Y-71692487D01*
X166019990Y-71710362D01*
X166058989Y-71724661D01*
X166096363Y-71735386D01*
X166130812Y-71742861D01*
X166161686Y-71747086D01*
X166187686Y-71748711D01*
X166625774Y-71749036D01*
X166833120Y-71014554D01*
X167231235Y-69553066D01*
X168282908Y-69553066D01*
X167934516Y-70828984D01*
X167938091Y-70828984D01*
X167594576Y-72099052D01*
X167593276Y-72098727D01*
X167588725Y-72098402D01*
X167572150Y-72097752D01*
X167545174Y-72097102D01*
X167509425Y-72096777D01*
X166538351Y-72096777D01*
X166538676Y-72095477D01*
X166157787Y-72096777D01*
X166042088Y-72097752D01*
X166000165Y-72098727D01*
X165891943Y-72099052D01*
X165777871Y-72097752D01*
X165659898Y-72093527D01*
X165539977Y-72084752D01*
X165421030Y-72071102D01*
X165362205Y-72061678D01*
X165304358Y-72050628D01*
X165247810Y-72037628D01*
X165192560Y-72022679D01*
X165138937Y-72005454D01*
X165087588Y-71985955D01*
X165038190Y-71963855D01*
X164991390Y-71939156D01*
X164947516Y-71911532D01*
X164906568Y-71881307D01*
X164868869Y-71847833D01*
X164834745Y-71811434D01*
X164804521Y-71771461D01*
X164778522Y-71727911D01*
X164756746Y-71680787D01*
X164739521Y-71630088D01*
X164727498Y-71575165D01*
X164720349Y-71516341D01*
X164718722Y-71453293D01*
X164722947Y-71386020D01*
X164733022Y-71313872D01*
X164749272Y-71237499D01*
X164987165Y-70328172D01*
X164992040Y-70310622D01*
X164996914Y-70293072D01*
X165002115Y-70275848D01*
X165007315Y-70258623D01*
X165012514Y-70241724D01*
X165018365Y-70225149D01*
X165024214Y-70208575D01*
X165030065Y-70192000D01*
X165203936Y-69553066D01*
X165997890Y-69553066D01*
X166045014Y-69551116D01*
X166093113Y-69549816D01*
X166142837Y-69549816D01*
X166193536Y-69550466D01*
G37*
G36*
X152735453Y-72095477D02*
G01*
X151685730Y-72095477D01*
X152208967Y-70174776D01*
X153260315Y-70174776D01*
X152735453Y-72095477D01*
G37*
G36*
X159752078Y-70171688D02*
G01*
X159870069Y-70176054D01*
X159989727Y-70184626D01*
X160108948Y-70198517D01*
X160167686Y-70207804D01*
X160225550Y-70218876D01*
X160282184Y-70231854D01*
X160337430Y-70246896D01*
X160390928Y-70264120D01*
X160442443Y-70283686D01*
X160491696Y-70305713D01*
X160538486Y-70330398D01*
X160582460Y-70357822D01*
X160623419Y-70388183D01*
X160661042Y-70421600D01*
X160695133Y-70458232D01*
X160725335Y-70498157D01*
X160751449Y-70541615D01*
X160773199Y-70588684D01*
X160790303Y-70639564D01*
X160802488Y-70694333D01*
X160809513Y-70753149D01*
X160811099Y-70816213D01*
X160807012Y-70883602D01*
X160796932Y-70955476D01*
X160780580Y-71031994D01*
X160706126Y-71316513D01*
X160679218Y-71407517D01*
X160647269Y-71493718D01*
X160609964Y-71574919D01*
X160566983Y-71650960D01*
X160518008Y-71721604D01*
X160462803Y-71786731D01*
X160432719Y-71817132D01*
X160401010Y-71846143D01*
X160367552Y-71873647D01*
X160332350Y-71899642D01*
X160295322Y-71924129D01*
X160256506Y-71947069D01*
X160215787Y-71968460D01*
X160173202Y-71988264D01*
X160128673Y-72006481D01*
X160082120Y-72023030D01*
X160033583Y-72037953D01*
X159982980Y-72051209D01*
X159875507Y-72072600D01*
X159759302Y-72087007D01*
X159634167Y-72094309D01*
X159499745Y-72094270D01*
X158757907Y-72094309D01*
X158757907Y-72094349D01*
X158441518Y-72095420D01*
X158228754Y-72097167D01*
X158134099Y-72099429D01*
X158025832Y-72099984D01*
X157911611Y-72098675D01*
X157793699Y-72094309D01*
X157673923Y-72085737D01*
X157554740Y-72071846D01*
X157495963Y-72062559D01*
X157438139Y-72051486D01*
X157381465Y-72038509D01*
X157326260Y-72023467D01*
X157272761Y-72006242D01*
X157221247Y-71986677D01*
X157171954Y-71964650D01*
X157125203Y-71939964D01*
X157081190Y-71912540D01*
X157040272Y-71882179D01*
X157002608Y-71848763D01*
X156968556Y-71812131D01*
X156938355Y-71772205D01*
X156912240Y-71728747D01*
X156890491Y-71681678D01*
X156873386Y-71630799D01*
X156861162Y-71576030D01*
X156854137Y-71517213D01*
X156852550Y-71454150D01*
X156856677Y-71386760D01*
X156858185Y-71376045D01*
X157911968Y-71376045D01*
X157912960Y-71406366D01*
X157916136Y-71435139D01*
X157921374Y-71462365D01*
X157928557Y-71488082D01*
X157937487Y-71512371D01*
X157948083Y-71535231D01*
X157960188Y-71556702D01*
X157973642Y-71576784D01*
X157988367Y-71595596D01*
X158004162Y-71613098D01*
X158020950Y-71629370D01*
X158038531Y-71644411D01*
X158056827Y-71658302D01*
X158075679Y-71671042D01*
X158094967Y-71682670D01*
X158114534Y-71693267D01*
X158153904Y-71711325D01*
X158192837Y-71725533D01*
X158230143Y-71736169D01*
X158264750Y-71743551D01*
X158295627Y-71747917D01*
X158321623Y-71749584D01*
X158727785Y-71758315D01*
X158759216Y-71758315D01*
X158759614Y-71757957D01*
X158813668Y-71758315D01*
X158840457Y-71758315D01*
X158975593Y-71756727D01*
X159092790Y-71752560D01*
X159193675Y-71745139D01*
X159238482Y-71739979D01*
X159279798Y-71733748D01*
X159317818Y-71726327D01*
X159352703Y-71717675D01*
X159384692Y-71707673D01*
X159413982Y-71696283D01*
X159440770Y-71683305D01*
X159465217Y-71668780D01*
X159487523Y-71652548D01*
X159507882Y-71634490D01*
X159526536Y-71614606D01*
X159543641Y-71592739D01*
X159559435Y-71568847D01*
X159574041Y-71542812D01*
X159587693Y-71514554D01*
X159600630Y-71483995D01*
X159624920Y-71415613D01*
X159648573Y-71336913D01*
X159673101Y-71247179D01*
X159731084Y-71031994D01*
X159740213Y-70995045D01*
X159746602Y-70959802D01*
X159750412Y-70926266D01*
X159751721Y-70894318D01*
X159750729Y-70863997D01*
X159747555Y-70835223D01*
X159742315Y-70807997D01*
X159735132Y-70782280D01*
X159726202Y-70757991D01*
X159715606Y-70735131D01*
X159703501Y-70713660D01*
X159690048Y-70693578D01*
X159675324Y-70674767D01*
X159659527Y-70657264D01*
X159642739Y-70640993D01*
X159625118Y-70625951D01*
X159606823Y-70612060D01*
X159587972Y-70599321D01*
X159568723Y-70587692D01*
X159549156Y-70577135D01*
X159509747Y-70559038D01*
X159470853Y-70544830D01*
X159433547Y-70534194D01*
X159398900Y-70526812D01*
X159368062Y-70522446D01*
X159342067Y-70520779D01*
X158904037Y-70520620D01*
X158861451Y-70520898D01*
X158861611Y-70520223D01*
X158821804Y-70520223D01*
X158686707Y-70521732D01*
X158569550Y-70525661D01*
X158468743Y-70532646D01*
X158423976Y-70537567D01*
X158382701Y-70543520D01*
X158344720Y-70550624D01*
X158309875Y-70558958D01*
X158277966Y-70568603D01*
X158248716Y-70579675D01*
X158222006Y-70592256D01*
X158197638Y-70606425D01*
X158175414Y-70622300D01*
X158155094Y-70639961D01*
X158136480Y-70659447D01*
X158119455Y-70680918D01*
X158103739Y-70704453D01*
X158089173Y-70730131D01*
X158075599Y-70758031D01*
X158062741Y-70788273D01*
X158038531Y-70856059D01*
X158014958Y-70934204D01*
X157990510Y-71023501D01*
X157932605Y-71238369D01*
X157923477Y-71275318D01*
X157917088Y-71310560D01*
X157913277Y-71344136D01*
X157911968Y-71376045D01*
X156858185Y-71376045D01*
X156866758Y-71314886D01*
X156883069Y-71238369D01*
X156957563Y-70953849D01*
X156984431Y-70862806D01*
X157016419Y-70776644D01*
X157053726Y-70695444D01*
X157096707Y-70619403D01*
X157145682Y-70548759D01*
X157200887Y-70483632D01*
X157230930Y-70453231D01*
X157262681Y-70424219D01*
X157296137Y-70396716D01*
X157331340Y-70370721D01*
X157368329Y-70346234D01*
X157407143Y-70323294D01*
X157447863Y-70301903D01*
X157490447Y-70282099D01*
X157535016Y-70263882D01*
X157581530Y-70247332D01*
X157630068Y-70232410D01*
X157680669Y-70219154D01*
X157788183Y-70197763D01*
X157904348Y-70183356D01*
X158029523Y-70176093D01*
X158942533Y-70176093D01*
X158942533Y-70175974D01*
X159244158Y-70174585D01*
X159442000Y-70173077D01*
X159506214Y-70172085D01*
X159529551Y-70170934D01*
X159637858Y-70170378D01*
X159752078Y-70171688D01*
G37*
G36*
X153337988Y-69890082D02*
G01*
X152286314Y-69890082D01*
X152378612Y-69552091D01*
X153430286Y-69552091D01*
X153337988Y-69890082D01*
G37*
D11*
%TO.C,J3*%
X197842500Y-136316500D02*
X116562500Y-136316500D01*
X116562500Y-129014000D01*
X197842500Y-129014000D01*
X197842500Y-136316500D01*
G36*
X197842500Y-136316500D02*
G01*
X116562500Y-136316500D01*
X116562500Y-129014000D01*
X197842500Y-129014000D01*
X197842500Y-136316500D01*
G37*
%TD*%
D12*
%TO.C,J3*%
X195262500Y-132092700D03*
X192722500Y-132092700D03*
X190182500Y-132092700D03*
X187642500Y-132092700D03*
X185102500Y-132092700D03*
X182562500Y-132092700D03*
X180022500Y-132092700D03*
X177482500Y-132092700D03*
X174942500Y-132092700D03*
X172402500Y-132092700D03*
X169862500Y-132092700D03*
X167322500Y-132092700D03*
X164782500Y-132092700D03*
X162242500Y-132092700D03*
X159702500Y-132092700D03*
X157162500Y-132092700D03*
X154622500Y-132092700D03*
X152082500Y-132092700D03*
X149542500Y-132092700D03*
X147002500Y-132092700D03*
X144462500Y-132092700D03*
X141922500Y-132092700D03*
X139382500Y-132092700D03*
X136842500Y-132092700D03*
X134302500Y-132092700D03*
X131762500Y-132092700D03*
X129222500Y-132092700D03*
X126682500Y-132092700D03*
X124142500Y-132092700D03*
X121602500Y-132092700D03*
X119062500Y-132092700D03*
%TD*%
D13*
%TO.C,J6*%
X210100000Y-50000000D03*
X211900000Y-48000000D03*
X218000000Y-48000000D03*
X215600000Y-50000000D03*
X206400000Y-48000000D03*
%TD*%
D14*
%TO.C,JLCTOOL2*%
X218300000Y-40400000D03*
%TD*%
D15*
%TO.C,RV1*%
X192900000Y-52494400D03*
D16*
X192900000Y-53766100D03*
D15*
X190900000Y-52494400D03*
D17*
X190900000Y-53778800D03*
D15*
X186900000Y-52494400D03*
D16*
X186900000Y-53766100D03*
D15*
X194900000Y-52494400D03*
D18*
X194900000Y-53753400D03*
D15*
X188900000Y-52494400D03*
D16*
X188900000Y-53766100D03*
D19*
X186900000Y-54000000D03*
D20*
X184800000Y-42500000D03*
D21*
X185900000Y-42494400D03*
D22*
X190900000Y-41021200D03*
X190900000Y-48895200D03*
D21*
X195900000Y-42494400D03*
D20*
X197000000Y-42500000D03*
%TD*%
D23*
%TO.C,J5*%
X178900000Y-44300000D03*
X178900000Y-123040000D03*
D24*
X172550000Y-44300000D03*
D25*
X172550000Y-46840000D03*
X170010000Y-44300000D03*
X170010000Y-46840000D03*
X167470000Y-44300000D03*
X167470000Y-46840000D03*
X164930000Y-44300000D03*
X164930000Y-46840000D03*
X162390000Y-44300000D03*
X162390000Y-46840000D03*
X159850000Y-44300000D03*
X159850000Y-46840000D03*
X157310000Y-44300000D03*
X157310000Y-46840000D03*
X154770000Y-44300000D03*
X154770000Y-46840000D03*
X152230000Y-44300000D03*
X152230000Y-46840000D03*
X149690000Y-44300000D03*
X149690000Y-46840000D03*
X147150000Y-44300000D03*
X147150000Y-46840000D03*
X144610000Y-44300000D03*
X144610000Y-46840000D03*
X142070000Y-44300000D03*
X142070000Y-46840000D03*
%TD*%
D26*
%TO.C,R1*%
X201787500Y-49300000D03*
X203612500Y-49300000D03*
%TD*%
%TO.C,R4*%
X201787500Y-51700000D03*
X203612500Y-51700000D03*
%TD*%
D14*
%TO.C,JLCTOOL1*%
X218200000Y-125900000D03*
%TD*%
D27*
%TO.C,U1*%
X148390000Y-58825000D03*
X147120000Y-58825000D03*
X145850000Y-58825000D03*
X144580000Y-58825000D03*
X143310000Y-58825000D03*
X142040000Y-58825000D03*
X140770000Y-58825000D03*
X140770000Y-63775000D03*
X142040000Y-63775000D03*
X143310000Y-63775000D03*
X144580000Y-63775000D03*
X145850000Y-63775000D03*
X147120000Y-63775000D03*
X148390000Y-63775000D03*
%TD*%
D28*
%TO.C,H1*%
X215658700Y-56000000D03*
%TD*%
D26*
%TO.C,R5*%
X142167500Y-61300000D03*
X143992500Y-61300000D03*
%TD*%
%TO.C,R2*%
X201787500Y-44500000D03*
X203612500Y-44500000D03*
%TD*%
%TO.C,R3*%
X201787500Y-46900000D03*
X203612500Y-46900000D03*
%TD*%
D29*
%TO.C,C1*%
X150480000Y-63750000D03*
X150480000Y-61850000D03*
%TD*%
D14*
%TO.C,JLCTOOL2*%
X118700000Y-115700000D03*
%TD*%
%TO.C,J1*%
X241108250Y-61185000D03*
D30*
X242521000Y-123360000D03*
X242521000Y-128360000D03*
D14*
X248108250Y-61185000D03*
D31*
X210550000Y-64000000D03*
D32*
X212550000Y-64000000D03*
X210550000Y-66000000D03*
X212550000Y-66000000D03*
X210550000Y-68000000D03*
X212550000Y-68000000D03*
X210550000Y-70000000D03*
X212550000Y-70000000D03*
X210550000Y-72000000D03*
X212550000Y-72000000D03*
X210550000Y-74000000D03*
X212550000Y-74000000D03*
X210550000Y-76000000D03*
X212550000Y-76000000D03*
X210550000Y-78000000D03*
X212550000Y-78000000D03*
X210550000Y-80000000D03*
X212550000Y-80000000D03*
X210550000Y-82000000D03*
X212550000Y-82000000D03*
X210550000Y-84000000D03*
X212550000Y-84000000D03*
X210550000Y-86000000D03*
X212550000Y-86000000D03*
X210550000Y-88000000D03*
X212550000Y-88000000D03*
X210550000Y-90000000D03*
X212550000Y-90000000D03*
X210550000Y-92000000D03*
X212550000Y-92000000D03*
X210550000Y-94000000D03*
X212550000Y-94000000D03*
X210550000Y-96000000D03*
X212550000Y-96000000D03*
X210550000Y-98000000D03*
X212550000Y-98000000D03*
X210550000Y-100000000D03*
X212550000Y-100000000D03*
X210550000Y-102000000D03*
X212550000Y-102000000D03*
X210550000Y-104000000D03*
X212550000Y-104000000D03*
X210550000Y-106000000D03*
X212550000Y-106000000D03*
X210550000Y-108000000D03*
X212550000Y-108000000D03*
X210550000Y-110000000D03*
X212550000Y-110000000D03*
X210550000Y-112000000D03*
X212550000Y-112000000D03*
X210550000Y-114000000D03*
X212550000Y-114000000D03*
X210550000Y-116000000D03*
X212550000Y-116000000D03*
X210550000Y-118000000D03*
X212550000Y-118000000D03*
X210550000Y-120000000D03*
X212550000Y-120000000D03*
X210550000Y-122000000D03*
X212550000Y-122000000D03*
%TD*%
D33*
%TO.C,J4*%
X143150000Y-125075000D03*
D25*
X143150000Y-122535000D03*
X145690000Y-125075000D03*
X145690000Y-122535000D03*
X148230000Y-125075000D03*
X148230000Y-122535000D03*
X150770000Y-125075000D03*
X150770000Y-122535000D03*
X153310000Y-125075000D03*
X153310000Y-122535000D03*
X155850000Y-125075000D03*
X155850000Y-122535000D03*
X158390000Y-125075000D03*
X158390000Y-122535000D03*
X160930000Y-125075000D03*
X160930000Y-122535000D03*
X163470000Y-125075000D03*
X163470000Y-122535000D03*
%TD*%
D28*
%TO.C,H2*%
X215658700Y-130000000D03*
%TD*%
M02*
