M48
; DRILL file {KiCad 7.0.5-0} date 2023 July 02, Sunday 00:05:15
; FORMAT={-:-/ absolute / inch / decimal}
; #@! TF.CreationDate,2023-07-02T00:05:15-05:00
; #@! TF.GenerationSoftware,Kicad,Pcbnew,7.0.5-0
; #@! TF.FileFunction,Plated,1,2,PTH
FMAT,2
INCH
; #@! TA.AperFunction,Plated,PTH,ViaDrill
T1C0.0118
; #@! TA.AperFunction,Plated,PTH,ComponentDrill
T2C0.0315
; #@! TA.AperFunction,Plated,PTH,ComponentDrill
T3C0.0394
; #@! TA.AperFunction,Plated,PTH,ComponentDrill
T4C0.1260
%
G90
G05
T1
X4.6457Y-5.0
X4.6457Y-5.0472
X4.689Y-4.7126
X4.7362Y-5.0
X4.7362Y-5.0472
X4.8425Y-4.6063
X4.8898Y-4.5276
X4.9213Y-4.4882
X4.9409Y-4.9764
X4.9409Y-5.0118
X4.9409Y-5.0512
X4.9528Y-4.4882
X4.9843Y-4.4882
X5.0079Y-4.4488
X5.0394Y-4.4094
X5.0394Y-5.0512
X5.0866Y-4.3701
X5.1339Y-4.3307
X5.1339Y-5.0512
X5.189Y-4.2913
X5.2047Y-2.2559
X5.2205Y-2.1969
X5.2874Y-4.2126
X5.3701Y-1.5748
X5.3858Y-4.1339
X5.4055Y-2.1969
X5.4882Y-4.0787
X5.5079Y-2.1969
X5.5827Y-1.9961
X5.5906Y-3.8976
X5.6181Y-4.6378
X5.6181Y-4.6811
X5.7283Y-2.1969
X5.7913Y-2.2598
X5.8346Y-2.1969
X5.9409Y-2.1969
X5.9843Y-2.0945
X6.0551Y-4.6378
X6.0551Y-4.6811
X6.0866Y-4.0157
X6.122Y-4.6378
X6.122Y-4.6811
X6.2008Y-2.1969
X6.3543Y-4.6378
X6.3543Y-4.6811
X6.3858Y-3.622
X6.437Y-3.3071
X6.437Y-5.0512
X6.4882Y-3.5433
X6.5354Y-3.2283
X6.5354Y-5.0512
X6.5669Y-4.6378
X6.5669Y-4.6811
X6.5866Y-4.9173
X6.5866Y-4.9528
X6.5866Y-4.9882
X6.5866Y-5.0236
X6.6063Y-4.6378
X6.6063Y-4.6811
X6.6378Y-2.1969
X6.6378Y-3.1496
X6.6378Y-5.0512
X6.6811Y-2.1654
X6.689Y-3.1102
X6.7402Y-3.0709
X6.7402Y-5.0512
X6.7677Y-3.0315
X6.815Y-4.9213
X6.8386Y-2.1969
X6.8465Y-4.8898
X6.8937Y-2.9488
X6.9016Y-2.2598
X6.9055Y-2.9921
X6.9055Y-4.4882
X6.9055Y-4.8051
X6.9055Y-4.8406
X6.9055Y-4.872
X6.937Y-4.4882
X6.9685Y-4.4882
X7.0Y-2.2598
X7.0276Y-4.7598
X7.0669Y-4.7598
X7.1122Y-4.748
X7.1142Y-5.0059
X7.1299Y-4.7087
X7.1811Y-2.9921
X7.2126Y-1.5748
X7.2205Y-2.9921
X7.2205Y-4.3307
X7.2205Y-4.4094
X7.252Y-2.5591
X7.2559Y-2.9921
X7.3189Y-2.5197
X7.5236Y-2.4803
X7.5787Y-2.4016
X7.6102Y-2.1575
X7.6102Y-2.3622
X7.6339Y-5.0433
X7.6457Y-2.1181
X7.6457Y-2.1969
X7.6535Y-2.3307
X7.6693Y-1.5748
X7.6693Y-4.6457
X7.6732Y-2.9921
X7.689Y-5.0
X7.689Y-5.0433
X7.7323Y-2.1181
X7.7323Y-2.1969
X7.7362Y-5.0
X7.7362Y-5.0433
X7.7677Y-2.1575
X7.7953Y-2.3307
X7.7953Y-4.6457
X7.7992Y-2.9921
X7.8031Y-1.8543
X7.9213Y-2.9921
X7.9213Y-4.6457
X7.9567Y-2.3307
X7.9685Y-4.7992
X7.9685Y-4.8346
X7.9685Y-4.8701
X8.0079Y-1.9331
X8.0157Y-4.6457
X8.0906Y-4.6457
X8.1417Y-1.9331
X8.1535Y-2.2913
X8.2323Y-2.2913
X8.2677Y-1.9331
X8.6142Y-1.5748
X8.6142Y-1.9291
T2
X7.0512Y-2.3622
X7.0512Y-2.4409
X7.0512Y-2.5197
X7.0512Y-2.5984
X7.0512Y-2.6772
X7.0512Y-2.7559
X7.0512Y-2.8346
X7.0512Y-2.9134
X7.0512Y-2.9921
X7.0512Y-3.0709
X7.0512Y-3.1496
X7.0512Y-3.2283
X7.0512Y-3.3071
X7.0512Y-3.3858
X7.0512Y-3.4646
X7.0512Y-3.5433
X7.0512Y-3.622
X7.0512Y-3.7008
X7.0512Y-3.7795
X7.0512Y-3.8583
X7.0512Y-3.937
X7.0512Y-4.0157
X7.0512Y-4.0945
X7.0512Y-4.1732
X7.0512Y-4.252
X7.0512Y-4.3307
X7.0512Y-4.4094
X7.0512Y-4.4882
X7.0512Y-4.5669
X7.0512Y-4.6457
X7.1299Y-2.3622
X7.1299Y-2.4409
X7.1299Y-2.5197
X7.1299Y-2.5984
X7.1299Y-2.6772
X7.1299Y-2.7559
X7.1299Y-2.8346
X7.1299Y-2.9134
X7.1299Y-2.9921
X7.1299Y-3.0709
X7.1299Y-3.1496
X7.1299Y-3.2283
X7.1299Y-3.3071
X7.1299Y-3.3858
X7.1299Y-3.4646
X7.1299Y-3.5433
X7.1299Y-3.622
X7.1299Y-3.7008
X7.1299Y-3.7795
X7.1299Y-3.8583
X7.1299Y-3.937
X7.1299Y-4.0157
X7.1299Y-4.0945
X7.1299Y-4.1732
X7.1299Y-4.252
X7.1299Y-4.3307
X7.1299Y-4.4094
X7.1299Y-4.4882
X7.1299Y-4.5669
X7.1299Y-4.6457
X8.1535Y-2.3622
X8.1535Y-2.4409
X8.1535Y-2.5197
X8.1535Y-2.5984
X8.1535Y-2.6772
X8.1535Y-2.7559
X8.1535Y-2.8346
X8.1535Y-2.9134
X8.1535Y-2.9921
X8.1535Y-3.0709
X8.1535Y-3.1496
X8.1535Y-3.2283
X8.1535Y-3.3071
X8.1535Y-3.3858
X8.1535Y-3.4646
X8.1535Y-3.5433
X8.1535Y-3.622
X8.1535Y-3.7008
X8.1535Y-3.7795
X8.1535Y-3.8583
X8.1535Y-3.937
X8.1535Y-4.0157
X8.1535Y-4.0945
X8.1535Y-4.1732
X8.1535Y-4.252
X8.1535Y-4.3307
X8.1535Y-4.4094
X8.1535Y-4.4882
X8.1535Y-4.5669
X8.1535Y-4.6457
X8.2323Y-2.3622
X8.2323Y-2.4409
X8.2323Y-2.5197
X8.2323Y-2.5984
X8.2323Y-2.6772
X8.2323Y-2.7559
X8.2323Y-2.8346
X8.2323Y-2.9134
X8.2323Y-2.9921
X8.2323Y-3.0709
X8.2323Y-3.1496
X8.2323Y-3.2283
X8.2323Y-3.3071
X8.2323Y-3.3858
X8.2323Y-3.4646
X8.2323Y-3.5433
X8.2323Y-3.622
X8.2323Y-3.7008
X8.2323Y-3.7795
X8.2323Y-3.8583
X8.2323Y-3.937
X8.2323Y-4.0157
X8.2323Y-4.0945
X8.2323Y-4.1732
X8.2323Y-4.252
X8.2323Y-4.3307
X8.2323Y-4.4094
X8.2323Y-4.4882
X8.2323Y-4.5669
X8.2323Y-4.6457
T3
X5.5815Y-1.7465
X5.5815Y-1.8465
X5.6815Y-1.7465
X5.6815Y-1.8465
X5.687Y-4.8055
X5.687Y-4.9055
X5.7815Y-1.7465
X5.7815Y-1.8465
X5.787Y-4.8055
X5.787Y-4.9055
X5.8815Y-1.7465
X5.8815Y-1.8465
X5.887Y-4.8055
X5.887Y-4.9055
X5.9815Y-1.7465
X5.9815Y-1.8465
X5.987Y-4.8055
X5.987Y-4.9055
X6.0815Y-1.7465
X6.0815Y-1.8465
X6.087Y-4.8055
X6.087Y-4.9055
X6.1815Y-1.7465
X6.1815Y-1.8465
X6.187Y-4.8055
X6.187Y-4.9055
X6.2815Y-1.7465
X6.2815Y-1.8465
X6.287Y-4.8055
X6.287Y-4.9055
X6.3815Y-1.7465
X6.3815Y-1.8465
X6.387Y-4.8055
X6.387Y-4.9055
X6.4815Y-1.7465
X6.4815Y-1.8465
X6.487Y-4.8055
X6.487Y-4.9055
X6.5815Y-1.7465
X6.5815Y-1.8465
X6.6815Y-1.7465
X6.6815Y-1.8465
X6.7815Y-1.7465
X6.7815Y-1.8465
X7.3189Y-2.0226
X7.3189Y-2.1211
X7.4173Y-2.0226
X7.4173Y-2.1211
X7.5157Y-2.0226
X7.5157Y-2.1211
T4
X8.4905Y-2.126
X8.4905Y-4.8822
T3
G00X8.2205Y-1.8622
M15
G01X8.2205Y-1.9016
M16
G05
G00X8.437Y-1.8622
M15
G01X8.437Y-1.9016
M16
G05
G00X8.5315Y-1.7835
M15
G01X8.5315Y-1.8228
M16
G05
T0
M30
