M48
; DRILL file {KiCad 7.0.6-0} date 2023 July 28, Friday 22:27:15
; FORMAT={-:-/ absolute / inch / decimal}
; #@! TF.CreationDate,2023-07-28T22:27:15-06:00
; #@! TF.GenerationSoftware,Kicad,Pcbnew,7.0.6-0
; #@! TF.FileFunction,Plated,1,2,PTH
FMAT,2
INCH
; #@! TA.AperFunction,Plated,PTH,ViaDrill
T1C0.0118
; #@! TA.AperFunction,Plated,PTH,ComponentDrill
T2C0.0315
; #@! TA.AperFunction,Plated,PTH,ComponentDrill
T3C0.0394
; #@! TA.AperFunction,Plated,PTH,ComponentDrill
T4C0.1260
%
G90
G05
T1
X4.6457Y-5.0
X4.6457Y-5.0472
X4.7047Y-4.7087
X4.7362Y-5.0
X4.7362Y-5.0472
X4.8425Y-4.6063
X4.8898Y-4.5276
X4.9213Y-4.4882
X4.9409Y-4.9764
X4.9409Y-5.0118
X4.9409Y-5.0512
X4.9528Y-4.4882
X4.9843Y-4.4882
X5.0079Y-4.4488
X5.0394Y-4.4094
X5.0394Y-5.0512
X5.0866Y-4.3701
X5.1339Y-4.3307
X5.1339Y-5.0512
X5.189Y-4.2913
X5.2402Y-2.2008
X5.2874Y-4.2126
X5.3701Y-2.2008
X5.3858Y-4.1339
X5.4488Y-2.2008
X5.4882Y-4.0787
X5.5906Y-3.8976
X5.6181Y-4.6378
X5.6181Y-4.6811
X5.8031Y-2.5039
X5.811Y-2.0197
X5.8307Y-2.2008
X5.8386Y-2.0472
X5.9252Y-2.2008
X5.9882Y-2.2598
X6.0039Y-1.9331
X6.0315Y-1.5827
X6.0551Y-4.6378
X6.0551Y-4.6811
X6.0866Y-4.0157
X6.122Y-4.6378
X6.122Y-4.6811
X6.126Y-2.2008
X6.1575Y-1.6929
X6.1732Y-2.2598
X6.3228Y-2.6732
X6.3543Y-4.6378
X6.3543Y-4.6811
X6.3583Y-2.6417
X6.378Y-2.185
X6.378Y-2.2717
X6.3858Y-3.622
X6.4173Y-2.1496
X6.4173Y-2.3071
X6.437Y-3.3071
X6.437Y-5.0512
X6.4567Y-2.185
X6.4567Y-2.2717
X6.4882Y-3.5433
X6.5354Y-2.5945
X6.5354Y-3.2283
X6.5354Y-5.0512
X6.5669Y-4.6378
X6.5669Y-4.6811
X6.5669Y-4.7598
X6.5669Y-4.7953
X6.5984Y-2.6732
X6.6063Y-4.6378
X6.6063Y-4.6811
X6.6102Y-4.7598
X6.6102Y-4.7953
X6.6457Y-2.185
X6.6457Y-4.6575
X6.6535Y-4.7598
X6.6535Y-4.7953
X6.6815Y-2.0083
X6.685Y-2.2913
X6.689Y-3.1102
X6.7205Y-2.2008
X6.7323Y-3.0315
X6.8071Y-2.2913
X6.8327Y-4.9547
X6.8583Y-4.9803
X6.874Y-2.8976
X6.8937Y-2.9488
X6.9016Y-2.5984
X6.9016Y-2.6732
X6.9055Y-4.4882
X6.937Y-4.4882
X6.9488Y-4.8898
X6.9488Y-4.9291
X6.9685Y-4.4882
X7.0276Y-2.2008
X7.0276Y-4.8346
X7.0276Y-4.8661
X7.0276Y-4.8976
X7.0315Y-1.5827
X7.1142Y-4.8071
X7.1142Y-5.0059
X7.1299Y-2.1181
X7.1299Y-4.7087
X7.1535Y-4.8898
X7.1811Y-2.9921
X7.185Y-2.0315
X7.2126Y-1.5748
X7.2205Y-2.9921
X7.2205Y-4.3307
X7.2205Y-4.4094
X7.252Y-2.5591
X7.252Y-4.8071
X7.2559Y-2.9921
X7.3189Y-2.5197
X7.3858Y-2.1693
X7.4803Y-2.2008
X7.5236Y-2.4803
X7.5787Y-2.4016
X7.6102Y-1.8543
X7.6102Y-2.3622
X7.6339Y-5.0433
X7.6535Y-2.3307
X7.6693Y-1.5748
X7.6693Y-4.6457
X7.6732Y-2.9921
X7.689Y-5.0
X7.689Y-5.0433
X7.7362Y-5.0
X7.7362Y-5.0433
X7.7953Y-2.3307
X7.7953Y-4.6457
X7.7992Y-2.9921
X7.8386Y-1.7126
X7.8386Y-1.8071
X7.9213Y-2.9921
X7.9213Y-4.6457
X7.9567Y-2.3307
X7.9685Y-4.7992
X7.9685Y-4.8346
X7.9685Y-4.8701
X8.0157Y-4.6457
X8.0906Y-4.6457
X8.1063Y-1.9331
X8.1417Y-1.8071
X8.1535Y-2.2913
X8.1654Y-2.2047
X8.2323Y-2.2913
X8.2756Y-2.2047
X8.3031Y-1.9961
X8.315Y-2.1417
X8.6102Y-1.5748
X8.6102Y-1.9488
T2
X7.0512Y-2.3622
X7.0512Y-2.4409
X7.0512Y-2.5197
X7.0512Y-2.5984
X7.0512Y-2.6772
X7.0512Y-2.7559
X7.0512Y-2.8346
X7.0512Y-2.9134
X7.0512Y-2.9921
X7.0512Y-3.0709
X7.0512Y-3.1496
X7.0512Y-3.2283
X7.0512Y-3.3071
X7.0512Y-3.3858
X7.0512Y-3.4646
X7.0512Y-3.5433
X7.0512Y-3.622
X7.0512Y-3.7008
X7.0512Y-3.7795
X7.0512Y-3.8583
X7.0512Y-3.937
X7.0512Y-4.0157
X7.0512Y-4.0945
X7.0512Y-4.1732
X7.0512Y-4.252
X7.0512Y-4.3307
X7.0512Y-4.4094
X7.0512Y-4.4882
X7.0512Y-4.5669
X7.0512Y-4.6457
X7.1299Y-2.3622
X7.1299Y-2.4409
X7.1299Y-2.5197
X7.1299Y-2.5984
X7.1299Y-2.6772
X7.1299Y-2.7559
X7.1299Y-2.8346
X7.1299Y-2.9134
X7.1299Y-2.9921
X7.1299Y-3.0709
X7.1299Y-3.1496
X7.1299Y-3.2283
X7.1299Y-3.3071
X7.1299Y-3.3858
X7.1299Y-3.4646
X7.1299Y-3.5433
X7.1299Y-3.622
X7.1299Y-3.7008
X7.1299Y-3.7795
X7.1299Y-3.8583
X7.1299Y-3.937
X7.1299Y-4.0157
X7.1299Y-4.0945
X7.1299Y-4.1732
X7.1299Y-4.252
X7.1299Y-4.3307
X7.1299Y-4.4094
X7.1299Y-4.4882
X7.1299Y-4.5669
X7.1299Y-4.6457
X8.1535Y-2.3622
X8.1535Y-2.4409
X8.1535Y-2.5197
X8.1535Y-2.5984
X8.1535Y-2.6772
X8.1535Y-2.7559
X8.1535Y-2.8346
X8.1535Y-2.9134
X8.1535Y-2.9921
X8.1535Y-3.0709
X8.1535Y-3.1496
X8.1535Y-3.2283
X8.1535Y-3.3071
X8.1535Y-3.3858
X8.1535Y-3.4646
X8.1535Y-3.5433
X8.1535Y-3.622
X8.1535Y-3.7008
X8.1535Y-3.7795
X8.1535Y-3.8583
X8.1535Y-3.937
X8.1535Y-4.0157
X8.1535Y-4.0945
X8.1535Y-4.1732
X8.1535Y-4.252
X8.1535Y-4.3307
X8.1535Y-4.4094
X8.1535Y-4.4882
X8.1535Y-4.5669
X8.1535Y-4.6457
X8.2323Y-2.3622
X8.2323Y-2.4409
X8.2323Y-2.5197
X8.2323Y-2.5984
X8.2323Y-2.6772
X8.2323Y-2.7559
X8.2323Y-2.8346
X8.2323Y-2.9134
X8.2323Y-2.9921
X8.2323Y-3.0709
X8.2323Y-3.1496
X8.2323Y-3.2283
X8.2323Y-3.3071
X8.2323Y-3.3858
X8.2323Y-3.4646
X8.2323Y-3.5433
X8.2323Y-3.622
X8.2323Y-3.7008
X8.2323Y-3.7795
X8.2323Y-3.8583
X8.2323Y-3.937
X8.2323Y-4.0157
X8.2323Y-4.0945
X8.2323Y-4.1732
X8.2323Y-4.252
X8.2323Y-4.3307
X8.2323Y-4.4094
X8.2323Y-4.4882
X8.2323Y-4.5669
X8.2323Y-4.6457
T3
X5.4102Y-1.7465
X5.4102Y-1.8465
X5.5102Y-1.7465
X5.5102Y-1.8465
X5.6102Y-1.7465
X5.6102Y-1.8465
X5.687Y-4.8055
X5.687Y-4.9055
X5.7102Y-1.7465
X5.7102Y-1.8465
X5.787Y-4.8055
X5.787Y-4.9055
X5.8102Y-1.7465
X5.8102Y-1.8465
X5.887Y-4.8055
X5.887Y-4.9055
X5.9102Y-1.7465
X5.9102Y-1.8465
X5.987Y-4.8055
X5.987Y-4.9055
X6.0102Y-1.7465
X6.0102Y-1.8465
X6.087Y-4.8055
X6.087Y-4.9055
X6.1102Y-1.7465
X6.1102Y-1.8465
X6.187Y-4.8055
X6.187Y-4.9055
X6.2102Y-1.7465
X6.2102Y-1.8465
X6.287Y-4.8055
X6.287Y-4.9055
X6.3102Y-1.7465
X6.3102Y-1.8465
X6.387Y-4.8055
X6.387Y-4.9055
X6.4102Y-1.7465
X6.4102Y-1.8465
X6.487Y-4.8055
X6.487Y-4.9055
X6.5102Y-1.7465
X6.5102Y-1.8465
X6.6102Y-1.7465
X6.6102Y-1.8465
X7.2441Y-1.7472
X7.2441Y-1.8457
X7.3425Y-1.7472
X7.3425Y-1.8457
X7.4409Y-1.7472
X7.4409Y-1.8457
T4
X8.4905Y-2.0669
X8.4905Y-5.0003
T3
G00X7.372Y-1.6167
M15
G01X7.313Y-1.6167
M16
G05
G00X7.372Y-1.9267
M15
G01X7.313Y-1.9267
M16
G05
G00X8.0748Y-1.7835
M15
G01X8.0748Y-1.8228
M16
G05
G00X8.2205Y-1.8622
M15
G01X8.2205Y-1.9016
M16
G05
G00X8.2913Y-1.7835
M15
G01X8.2913Y-1.8228
M16
G05
G00X8.437Y-1.8622
M15
G01X8.437Y-1.9016
M16
G05
G00X8.5315Y-1.7835
M15
G01X8.5315Y-1.8228
M16
G05
T0
M30
