%TF.GenerationSoftware,KiCad,Pcbnew,7.0.6-0*%
%TF.CreationDate,2023-07-30T00:23:16-06:00*%
%TF.ProjectId,ISA adapter,49534120-6164-4617-9074-65722e6b6963,rev?*%
%TF.SameCoordinates,Original*%
%TF.FileFunction,Soldermask,Bot*%
%TF.FilePolarity,Negative*%
%FSLAX46Y46*%
G04 Gerber Fmt 4.6, Leading zero omitted, Abs format (unit mm)*
G04 Created by KiCad (PCBNEW 7.0.6-0) date 2023-07-30 00:23:16*
%MOMM*%
%LPD*%
G01*
G04 APERTURE LIST*
G04 Aperture macros list*
%AMRoundRect*
0 Rectangle with rounded corners*
0 $1 Rounding radius*
0 $2 $3 $4 $5 $6 $7 $8 $9 X,Y pos of 4 corners*
0 Add a 4 corners polygon primitive as box body*
4,1,4,$2,$3,$4,$5,$6,$7,$8,$9,$2,$3,0*
0 Add four circle primitives for the rounded corners*
1,1,$1+$1,$2,$3*
1,1,$1+$1,$4,$5*
1,1,$1+$1,$6,$7*
1,1,$1+$1,$8,$9*
0 Add four rect primitives between the rounded corners*
20,1,$1+$1,$2,$3,$4,$5,0*
20,1,$1+$1,$4,$5,$6,$7,0*
20,1,$1+$1,$6,$7,$8,$9,0*
20,1,$1+$1,$8,$9,$2,$3,0*%
G04 Aperture macros list end*
%ADD10C,0.100000*%
%ADD11R,1.524000X6.248400*%
%ADD12O,1.800000X2.800000*%
%ADD13C,1.300000*%
%ADD14C,1.500000*%
%ADD15R,1.500000X1.500000*%
%ADD16O,3.200000X1.600000*%
%ADD17C,3.200000*%
%ADD18RoundRect,0.425000X-0.425000X0.425000X-0.425000X-0.425000X0.425000X-0.425000X0.425000X0.425000X0*%
%ADD19O,1.700000X1.700000*%
%ADD20C,5.500000*%
%ADD21R,1.350000X1.350000*%
%ADD22O,1.350000X1.350000*%
%ADD23R,1.700000X1.700000*%
G04 APERTURE END LIST*
D10*
X197802500Y-136207500D02*
X116522500Y-136207500D01*
X116522500Y-128905000D01*
X197802500Y-128905000D01*
X197802500Y-136207500D01*
G36*
X197802500Y-136207500D02*
G01*
X116522500Y-136207500D01*
X116522500Y-128905000D01*
X197802500Y-128905000D01*
X197802500Y-136207500D01*
G37*
D11*
%TO.C,J3*%
X195262500Y-132092700D03*
X192722500Y-132092700D03*
X190182500Y-132092700D03*
X187642500Y-132092700D03*
X185102500Y-132092700D03*
X182562500Y-132092700D03*
X180022500Y-132092700D03*
X177482500Y-132092700D03*
X174942500Y-132092700D03*
X172402500Y-132092700D03*
X169862500Y-132092700D03*
X167322500Y-132092700D03*
X164782500Y-132092700D03*
X162242500Y-132092700D03*
X159702500Y-132092700D03*
X157162500Y-132092700D03*
X154622500Y-132092700D03*
X152082500Y-132092700D03*
X149542500Y-132092700D03*
X147002500Y-132092700D03*
X144462500Y-132092700D03*
X141922500Y-132092700D03*
X139382500Y-132092700D03*
X136842500Y-132092700D03*
X134302500Y-132092700D03*
X131762500Y-132092700D03*
X129222500Y-132092700D03*
X126682500Y-132092700D03*
X124142500Y-132092700D03*
X121602500Y-132092700D03*
X119062500Y-132092700D03*
%TD*%
D12*
%TO.C,J6*%
X210100000Y-47800000D03*
X211900000Y-45800000D03*
X218000000Y-45800000D03*
X215600000Y-47800000D03*
X206400000Y-45800000D03*
%TD*%
D13*
%TO.C,JLCTOOL2*%
X218000000Y-42500000D03*
%TD*%
D14*
%TO.C,RV1*%
X184000000Y-44380000D03*
X186500000Y-44380000D03*
D15*
X189000000Y-44380000D03*
D14*
X184000000Y-46880000D03*
X186500000Y-46880000D03*
X189000000Y-46880000D03*
D16*
X186500000Y-41063000D03*
X186500000Y-48937000D03*
%TD*%
D17*
%TO.C,J5*%
X174250000Y-44360000D03*
X174250000Y-123100000D03*
D18*
X167900000Y-44360000D03*
D19*
X167900000Y-46900000D03*
X165360000Y-44360000D03*
X165360000Y-46900000D03*
X162820000Y-44360000D03*
X162820000Y-46900000D03*
X160280000Y-44360000D03*
X160280000Y-46900000D03*
X157740000Y-44360000D03*
X157740000Y-46900000D03*
X155200000Y-44360000D03*
X155200000Y-46900000D03*
X152660000Y-44360000D03*
X152660000Y-46900000D03*
X150120000Y-44360000D03*
X150120000Y-46900000D03*
X147580000Y-44360000D03*
X147580000Y-46900000D03*
X145040000Y-44360000D03*
X145040000Y-46900000D03*
X142500000Y-44360000D03*
X142500000Y-46900000D03*
X139960000Y-44360000D03*
X139960000Y-46900000D03*
X137420000Y-44360000D03*
X137420000Y-46900000D03*
%TD*%
D13*
%TO.C,JLCTOOL1*%
X218000000Y-123300000D03*
%TD*%
D20*
%TO.C,H1*%
X215658700Y-52500000D03*
%TD*%
D21*
%TO.C,J1*%
X179100000Y-60000000D03*
D22*
X181100000Y-60000000D03*
X179100000Y-62000000D03*
X181100000Y-62000000D03*
X179100000Y-64000000D03*
X181100000Y-64000000D03*
X179100000Y-66000000D03*
X181100000Y-66000000D03*
X179100000Y-68000000D03*
X181100000Y-68000000D03*
X179100000Y-70000000D03*
X181100000Y-70000000D03*
X179100000Y-72000000D03*
X181100000Y-72000000D03*
X179100000Y-74000000D03*
X181100000Y-74000000D03*
X179100000Y-76000000D03*
X181100000Y-76000000D03*
X179100000Y-78000000D03*
X181100000Y-78000000D03*
X179100000Y-80000000D03*
X181100000Y-80000000D03*
X179100000Y-82000000D03*
X181100000Y-82000000D03*
X179100000Y-84000000D03*
X181100000Y-84000000D03*
X179100000Y-86000000D03*
X181100000Y-86000000D03*
X179100000Y-88000000D03*
X181100000Y-88000000D03*
X179100000Y-90000000D03*
X181100000Y-90000000D03*
X179100000Y-92000000D03*
X181100000Y-92000000D03*
X179100000Y-94000000D03*
X181100000Y-94000000D03*
X179100000Y-96000000D03*
X181100000Y-96000000D03*
X179100000Y-98000000D03*
X181100000Y-98000000D03*
X179100000Y-100000000D03*
X181100000Y-100000000D03*
X179100000Y-102000000D03*
X181100000Y-102000000D03*
X179100000Y-104000000D03*
X181100000Y-104000000D03*
X179100000Y-106000000D03*
X181100000Y-106000000D03*
X179100000Y-108000000D03*
X181100000Y-108000000D03*
X179100000Y-110000000D03*
X181100000Y-110000000D03*
X179100000Y-112000000D03*
X181100000Y-112000000D03*
X179100000Y-114000000D03*
X181100000Y-114000000D03*
X179100000Y-116000000D03*
X181100000Y-116000000D03*
X179100000Y-118000000D03*
X181100000Y-118000000D03*
%TD*%
D13*
%TO.C,JLCTOOL2*%
X118700000Y-115700000D03*
%TD*%
D21*
%TO.C,J2*%
X210550000Y-60000000D03*
D22*
X212550000Y-60000000D03*
X210550000Y-62000000D03*
X212550000Y-62000000D03*
X210550000Y-64000000D03*
X212550000Y-64000000D03*
X210550000Y-66000000D03*
X212550000Y-66000000D03*
X210550000Y-68000000D03*
X212550000Y-68000000D03*
X210550000Y-70000000D03*
X212550000Y-70000000D03*
X210550000Y-72000000D03*
X212550000Y-72000000D03*
X210550000Y-74000000D03*
X212550000Y-74000000D03*
X210550000Y-76000000D03*
X212550000Y-76000000D03*
X210550000Y-78000000D03*
X212550000Y-78000000D03*
X210550000Y-80000000D03*
X212550000Y-80000000D03*
X210550000Y-82000000D03*
X212550000Y-82000000D03*
X210550000Y-84000000D03*
X212550000Y-84000000D03*
X210550000Y-86000000D03*
X212550000Y-86000000D03*
X210550000Y-88000000D03*
X212550000Y-88000000D03*
X210550000Y-90000000D03*
X212550000Y-90000000D03*
X210550000Y-92000000D03*
X212550000Y-92000000D03*
X210550000Y-94000000D03*
X212550000Y-94000000D03*
X210550000Y-96000000D03*
X212550000Y-96000000D03*
X210550000Y-98000000D03*
X212550000Y-98000000D03*
X210550000Y-100000000D03*
X212550000Y-100000000D03*
X210550000Y-102000000D03*
X212550000Y-102000000D03*
X210550000Y-104000000D03*
X212550000Y-104000000D03*
X210550000Y-106000000D03*
X212550000Y-106000000D03*
X210550000Y-108000000D03*
X212550000Y-108000000D03*
X210550000Y-110000000D03*
X212550000Y-110000000D03*
X210550000Y-112000000D03*
X212550000Y-112000000D03*
X210550000Y-114000000D03*
X212550000Y-114000000D03*
X210550000Y-116000000D03*
X212550000Y-116000000D03*
X210550000Y-118000000D03*
X212550000Y-118000000D03*
%TD*%
D23*
%TO.C,J4*%
X144450000Y-124600000D03*
D19*
X144450000Y-122060000D03*
X146990000Y-124600000D03*
X146990000Y-122060000D03*
X149530000Y-124600000D03*
X149530000Y-122060000D03*
X152070000Y-124600000D03*
X152070000Y-122060000D03*
X154610000Y-124600000D03*
X154610000Y-122060000D03*
X157150000Y-124600000D03*
X157150000Y-122060000D03*
X159690000Y-124600000D03*
X159690000Y-122060000D03*
X162230000Y-124600000D03*
X162230000Y-122060000D03*
X164770000Y-124600000D03*
X164770000Y-122060000D03*
%TD*%
D20*
%TO.C,H2*%
X215658700Y-127008000D03*
%TD*%
M02*
