%TF.GenerationSoftware,KiCad,Pcbnew,8.0.1*%
%TF.CreationDate,2024-05-10T14:52:22-06:00*%
%TF.ProjectId,ISA adapter,49534120-6164-4617-9074-65722e6b6963,rev?*%
%TF.SameCoordinates,Original*%
%TF.FileFunction,Paste,Top*%
%TF.FilePolarity,Positive*%
%FSLAX46Y46*%
G04 Gerber Fmt 4.6, Leading zero omitted, Abs format (unit mm)*
G04 Created by KiCad (PCBNEW 8.0.1) date 2024-05-10 14:52:22*
%MOMM*%
%LPD*%
G01*
G04 APERTURE LIST*
G04 Aperture macros list*
%AMRoundRect*
0 Rectangle with rounded corners*
0 $1 Rounding radius*
0 $2 $3 $4 $5 $6 $7 $8 $9 X,Y pos of 4 corners*
0 Add a 4 corners polygon primitive as box body*
4,1,4,$2,$3,$4,$5,$6,$7,$8,$9,$2,$3,0*
0 Add four circle primitives for the rounded corners*
1,1,$1+$1,$2,$3*
1,1,$1+$1,$4,$5*
1,1,$1+$1,$6,$7*
1,1,$1+$1,$8,$9*
0 Add four rect primitives between the rounded corners*
20,1,$1+$1,$2,$3,$4,$5,0*
20,1,$1+$1,$4,$5,$6,$7,0*
20,1,$1+$1,$6,$7,$8,$9,0*
20,1,$1+$1,$8,$9,$2,$3,0*%
G04 Aperture macros list end*
%ADD10C,0.000000*%
%ADD11R,1.200000X1.867800*%
%ADD12R,1.200000X1.842400*%
%ADD13R,1.200000X1.893200*%
%ADD14R,1.200000X1.400000*%
%ADD15R,2.200000X1.400000*%
%ADD16RoundRect,0.250000X-0.262500X-0.450000X0.262500X-0.450000X0.262500X0.450000X-0.262500X0.450000X0*%
%ADD17RoundRect,0.150000X-0.150000X0.825000X-0.150000X-0.825000X0.150000X-0.825000X0.150000X0.825000X0*%
%ADD18RoundRect,0.250000X0.475000X-0.250000X0.475000X0.250000X-0.475000X0.250000X-0.475000X-0.250000X0*%
G04 APERTURE END LIST*
D10*
%TO.C,RV1*%
G36*
X185900000Y-43200000D02*
G01*
X183700000Y-43200000D01*
X183700000Y-41800000D01*
X185900000Y-41800000D01*
X185900000Y-43200000D01*
G37*
G36*
X187500000Y-54700000D02*
G01*
X186300000Y-54700000D01*
X186300000Y-53300000D01*
X187500000Y-53300000D01*
X187500000Y-54700000D01*
G37*
G36*
X189500000Y-54700000D02*
G01*
X188300000Y-54700000D01*
X188300000Y-53300000D01*
X189500000Y-53300000D01*
X189500000Y-54700000D01*
G37*
G36*
X191500000Y-54700000D02*
G01*
X190300000Y-54700000D01*
X190300000Y-53300000D01*
X191500000Y-53300000D01*
X191500000Y-54700000D01*
G37*
G36*
X193500000Y-54700000D02*
G01*
X192300000Y-54700000D01*
X192300000Y-53300000D01*
X193500000Y-53300000D01*
X193500000Y-54700000D01*
G37*
G36*
X195500000Y-54700000D02*
G01*
X194300000Y-54700000D01*
X194300000Y-53300000D01*
X195500000Y-53300000D01*
X195500000Y-54700000D01*
G37*
G36*
X198100000Y-43200000D02*
G01*
X195900000Y-43200000D01*
X195900000Y-41800000D01*
X198100000Y-41800000D01*
X198100000Y-43200000D01*
G37*
%TD*%
D11*
%TO.C,RV1*%
X192900000Y-53766100D03*
D12*
X190900000Y-53778800D03*
D11*
X186900000Y-53766100D03*
D13*
X194900000Y-53753400D03*
D11*
X188900000Y-53766100D03*
D14*
X186900000Y-54000000D03*
D15*
X184800000Y-42500000D03*
X197000000Y-42500000D03*
%TD*%
D16*
%TO.C,R1*%
X201787500Y-49300000D03*
X203612500Y-49300000D03*
%TD*%
%TO.C,R4*%
X201787500Y-51700000D03*
X203612500Y-51700000D03*
%TD*%
D17*
%TO.C,U1*%
X148390000Y-58825000D03*
X147120000Y-58825000D03*
X145850000Y-58825000D03*
X144580000Y-58825000D03*
X143310000Y-58825000D03*
X142040000Y-58825000D03*
X140770000Y-58825000D03*
X140770000Y-63775000D03*
X142040000Y-63775000D03*
X143310000Y-63775000D03*
X144580000Y-63775000D03*
X145850000Y-63775000D03*
X147120000Y-63775000D03*
X148390000Y-63775000D03*
%TD*%
D16*
%TO.C,R2*%
X201787500Y-44500000D03*
X203612500Y-44500000D03*
%TD*%
%TO.C,R3*%
X201787500Y-46900000D03*
X203612500Y-46900000D03*
%TD*%
D18*
%TO.C,C1*%
X150480000Y-63750000D03*
X150480000Y-61850000D03*
%TD*%
M02*
