M48
; DRILL file {KiCad 8.0.1} date 2024-05-10T14:52:22-0600
; FORMAT={-:-/ absolute / inch / decimal}
; #@! TF.CreationDate,2024-05-10T14:52:22-06:00
; #@! TF.GenerationSoftware,Kicad,Pcbnew,8.0.1
; #@! TF.FileFunction,Plated,1,2,PTH
FMAT,2
INCH
; #@! TA.AperFunction,Plated,PTH,ViaDrill
T1C0.0118
; #@! TA.AperFunction,Plated,PTH,ComponentDrill
T2C0.0315
; #@! TA.AperFunction,Plated,PTH,ComponentDrill
T3C0.0354
; #@! TA.AperFunction,Plated,PTH,ComponentDrill
T4C0.0394
; #@! TA.AperFunction,Plated,PTH,ComponentDrill
T5C0.0433
; #@! TA.AperFunction,Plated,PTH,ComponentDrill
T6C0.1260
%
G90
G05
T1
X4.619Y-2.2638
X4.6457Y-5.0
X4.6457Y-5.0472
X4.67Y-2.202
X4.689Y-4.7638
X4.7362Y-5.0
X4.7362Y-5.0472
X4.7874Y-4.6811
X4.8819Y-4.5472
X4.8858Y-4.6063
X4.8898Y-3.6024
X4.937Y-4.9331
X4.937Y-4.9646
X4.937Y-4.9961
X4.9803Y-3.6024
X4.9882Y-4.4764
X4.9882Y-4.5276
X5.0315Y-5.0276
X5.0354Y-4.5669
X5.0866Y-4.4488
X5.1339Y-4.4882
X5.1339Y-5.0276
X5.189Y-4.3701
X5.2874Y-4.2913
X5.3898Y-4.2126
X5.4882Y-4.1339
X5.5591Y-2.1969
X5.5866Y-4.0551
X5.6299Y-2.1969
X5.8871Y-2.3609
X6.0315Y-2.5472
X6.0354Y-4.1732
X6.0433Y-2.1969
X6.0827Y-2.4134
X6.0827Y-2.5276
X6.1181Y-2.1969
X6.1378Y-3.7795
X6.1535Y-2.4134
X6.1535Y-2.5827
X6.1929Y-2.1969
X6.2037Y-1.9852
X6.2146Y-1.5803
X6.2362Y-3.7008
X6.3406Y-1.6906
X6.3465Y-2.1969
X6.3465Y-2.2559
X6.3465Y-2.4252
X6.3858Y-3.4646
X6.3875Y-5.0236
X6.4409Y-2.1969
X6.4409Y-2.2559
X6.4409Y-2.4252
X6.4875Y-5.0236
X6.4882Y-3.3858
X6.5394Y-4.9567
X6.5394Y-5.0433
X6.6378Y-4.9567
X6.6378Y-5.0433
X6.6457Y-2.4252
X6.6575Y-2.1969
X6.6575Y-2.2559
X6.6575Y-2.6181
X6.685Y-3.2677
X6.6929Y-2.4252
X6.7283Y-2.1969
X6.7283Y-2.2559
X6.7323Y-5.0433
X6.7362Y-4.9606
X6.7402Y-2.4252
X6.7913Y-3.189
X6.7953Y-1.5748
X6.7953Y-2.7953
X6.8346Y-4.9803
X6.8346Y-5.0157
X6.8504Y-2.5276
X6.8819Y-2.7953
X6.8858Y-3.1102
X6.9252Y-4.9764
X6.9409Y-5.0197
X6.9606Y-2.7205
X6.9606Y-2.7953
X6.9646Y-3.0315
X7.0433Y-2.3898
X7.122Y-2.9528
X7.1929Y-2.874
X7.2323Y-2.7953
X7.2874Y-2.7953
X7.2913Y-1.5748
X7.3386Y-2.7205
X7.3898Y-2.7165
X7.4134Y-2.3268
X7.4331Y-2.4331
X7.4921Y-2.6378
X7.5354Y-2.5276
X7.5591Y-2.4331
X7.5866Y-2.5197
X7.5875Y-4.9961
X7.6378Y-2.5591
X7.689Y-5.0433
X7.7244Y-5.0
X7.7402Y-1.5748
X7.7559Y-5.0433
X7.7874Y-5.0
X7.8898Y-1.9843
X7.8937Y-1.7087
X7.8937Y-1.8425
X7.9252Y-4.9409
X7.9488Y-4.9173
X7.9567Y-2.4843
X7.9724Y-4.8937
X7.9803Y-2.1565
X7.9803Y-2.1959
X7.9803Y-2.2746
X7.9803Y-2.314
X7.9961Y-4.8701
X8.0354Y-2.0945
X8.0551Y-1.8937
X8.0748Y-2.0197
X8.1457Y-2.2008
X8.185Y-1.8228
X8.2008Y-2.2598
X8.3071Y-2.2008
X8.3858Y-2.4606
X8.5335Y-1.5748
T2
X8.2894Y-2.5197
X8.2894Y-2.5984
X8.2894Y-2.6772
X8.2894Y-2.7559
X8.2894Y-2.8346
X8.2894Y-2.9134
X8.2894Y-2.9921
X8.2894Y-3.0709
X8.2894Y-3.1496
X8.2894Y-3.2283
X8.2894Y-3.3071
X8.2894Y-3.3858
X8.2894Y-3.4646
X8.2894Y-3.5433
X8.2894Y-3.622
X8.2894Y-3.7008
X8.2894Y-3.7795
X8.2894Y-3.8583
X8.2894Y-3.937
X8.2894Y-4.0157
X8.2894Y-4.0945
X8.2894Y-4.1732
X8.2894Y-4.252
X8.2894Y-4.3307
X8.2894Y-4.4094
X8.2894Y-4.4882
X8.2894Y-4.5669
X8.2894Y-4.6457
X8.2894Y-4.7244
X8.2894Y-4.8031
X8.3681Y-2.5197
X8.3681Y-2.5984
X8.3681Y-2.6772
X8.3681Y-2.7559
X8.3681Y-2.8346
X8.3681Y-2.9134
X8.3681Y-2.9921
X8.3681Y-3.0709
X8.3681Y-3.1496
X8.3681Y-3.2283
X8.3681Y-3.3071
X8.3681Y-3.3858
X8.3681Y-3.4646
X8.3681Y-3.5433
X8.3681Y-3.622
X8.3681Y-3.7008
X8.3681Y-3.7795
X8.3681Y-3.8583
X8.3681Y-3.937
X8.3681Y-4.0157
X8.3681Y-4.0945
X8.3681Y-4.1732
X8.3681Y-4.252
X8.3681Y-4.3307
X8.3681Y-4.4094
X8.3681Y-4.4882
X8.3681Y-4.5669
X8.3681Y-4.6457
X8.3681Y-4.7244
X8.3681Y-4.8031
T4
X5.5933Y-1.7441
X5.5933Y-1.8441
X5.6358Y-4.8242
X5.6358Y-4.9242
X5.6933Y-1.7441
X5.6933Y-1.8441
X5.7358Y-4.8242
X5.7358Y-4.9242
X5.7933Y-1.7441
X5.7933Y-1.8441
X5.8358Y-4.8242
X5.8358Y-4.9242
X5.8933Y-1.7441
X5.8933Y-1.8441
X5.9358Y-4.8242
X5.9358Y-4.9242
X5.9933Y-1.7441
X5.9933Y-1.8441
X6.0358Y-4.8242
X6.0358Y-4.9242
X6.0933Y-1.7441
X6.0933Y-1.8441
X6.1358Y-4.8242
X6.1358Y-4.9242
X6.1933Y-1.7441
X6.1933Y-1.8441
X6.2358Y-4.8242
X6.2358Y-4.9242
X6.2933Y-1.7441
X6.2933Y-1.8441
X6.3358Y-4.8242
X6.3358Y-4.9242
X6.3933Y-1.7441
X6.3933Y-1.8441
X6.4358Y-4.8242
X6.4358Y-4.9242
X6.4933Y-1.7441
X6.4933Y-1.8441
X6.5933Y-1.7441
X6.5933Y-1.8441
X6.6933Y-1.7441
X6.6933Y-1.8441
X6.7933Y-1.7441
X6.7933Y-1.8441
T5
X7.3583Y-2.0667
X7.437Y-2.0667
X7.5157Y-2.0667
X7.5945Y-2.0667
X7.6732Y-2.0667
T6
X8.4905Y-2.2047
X8.4905Y-5.1181
T3
G00X7.3189Y-1.6573
M15
G01X7.3189Y-1.6888
M16
G05
G00X7.7126Y-1.6573
M15
G01X7.7126Y-1.6888
M16
G05
T4
G00X7.5453Y-1.615
M15
G01X7.4862Y-1.615
M16
G05
G00X7.5453Y-1.925
M15
G01X7.4862Y-1.925
M16
G05
G00X8.126Y-1.8701
M15
G01X8.126Y-1.9094
M16
G05
G00X8.2717Y-1.9488
M15
G01X8.2717Y-1.9882
M16
G05
G00X8.3425Y-1.8701
M15
G01X8.3425Y-1.9094
M16
G05
G00X8.4882Y-1.9488
M15
G01X8.4882Y-1.9882
M16
G05
G00X8.5827Y-1.8701
M15
G01X8.5827Y-1.9094
M16
G05
M30
