%TF.GenerationSoftware,KiCad,Pcbnew,8.0.1*%
%TF.CreationDate,2024-05-10T14:52:22-06:00*%
%TF.ProjectId,ISA adapter,49534120-6164-4617-9074-65722e6b6963,rev?*%
%TF.SameCoordinates,Original*%
%TF.FileFunction,Soldermask,Bot*%
%TF.FilePolarity,Negative*%
%FSLAX46Y46*%
G04 Gerber Fmt 4.6, Leading zero omitted, Abs format (unit mm)*
G04 Created by KiCad (PCBNEW 8.0.1) date 2024-05-10 14:52:22*
%MOMM*%
%LPD*%
G01*
G04 APERTURE LIST*
G04 Aperture macros list*
%AMRoundRect*
0 Rectangle with rounded corners*
0 $1 Rounding radius*
0 $2 $3 $4 $5 $6 $7 $8 $9 X,Y pos of 4 corners*
0 Add a 4 corners polygon primitive as box body*
4,1,4,$2,$3,$4,$5,$6,$7,$8,$9,$2,$3,0*
0 Add four circle primitives for the rounded corners*
1,1,$1+$1,$2,$3*
1,1,$1+$1,$4,$5*
1,1,$1+$1,$6,$7*
1,1,$1+$1,$8,$9*
0 Add four rect primitives between the rounded corners*
20,1,$1+$1,$2,$3,$4,$5,0*
20,1,$1+$1,$4,$5,$6,$7,0*
20,1,$1+$1,$6,$7,$8,$9,0*
20,1,$1+$1,$8,$9,$2,$3,0*%
G04 Aperture macros list end*
%ADD10C,0.100000*%
%ADD11R,1.524000X6.248400*%
%ADD12O,1.800000X2.800000*%
%ADD13C,1.300000*%
%ADD14C,1.600000*%
%ADD15O,1.400000X2.200000*%
%ADD16O,3.200000X1.600000*%
%ADD17C,3.200000*%
%ADD18RoundRect,0.425000X-0.425000X0.425000X-0.425000X-0.425000X0.425000X-0.425000X0.425000X0.425000X0*%
%ADD19O,1.700000X1.700000*%
%ADD20C,5.500000*%
%ADD21C,1.200000*%
%ADD22R,1.350000X1.350000*%
%ADD23O,1.350000X1.350000*%
%ADD24R,1.700000X1.700000*%
G04 APERTURE END LIST*
D10*
%TO.C,J3*%
X197842500Y-136316500D02*
X116562500Y-136316500D01*
X116562500Y-129014000D01*
X197842500Y-129014000D01*
X197842500Y-136316500D01*
G36*
X197842500Y-136316500D02*
G01*
X116562500Y-136316500D01*
X116562500Y-129014000D01*
X197842500Y-129014000D01*
X197842500Y-136316500D01*
G37*
%TD*%
D11*
%TO.C,J3*%
X195262500Y-132092700D03*
X192722500Y-132092700D03*
X190182500Y-132092700D03*
X187642500Y-132092700D03*
X185102500Y-132092700D03*
X182562500Y-132092700D03*
X180022500Y-132092700D03*
X177482500Y-132092700D03*
X174942500Y-132092700D03*
X172402500Y-132092700D03*
X169862500Y-132092700D03*
X167322500Y-132092700D03*
X164782500Y-132092700D03*
X162242500Y-132092700D03*
X159702500Y-132092700D03*
X157162500Y-132092700D03*
X154622500Y-132092700D03*
X152082500Y-132092700D03*
X149542500Y-132092700D03*
X147002500Y-132092700D03*
X144462500Y-132092700D03*
X141922500Y-132092700D03*
X139382500Y-132092700D03*
X136842500Y-132092700D03*
X134302500Y-132092700D03*
X131762500Y-132092700D03*
X129222500Y-132092700D03*
X126682500Y-132092700D03*
X124142500Y-132092700D03*
X121602500Y-132092700D03*
X119062500Y-132092700D03*
%TD*%
D12*
%TO.C,J6*%
X210100000Y-50000000D03*
X211900000Y-48000000D03*
X218000000Y-48000000D03*
X215600000Y-50000000D03*
X206400000Y-48000000D03*
%TD*%
D13*
%TO.C,JLCTOOL2*%
X218300000Y-40400000D03*
%TD*%
D14*
%TO.C,RV1*%
X192900000Y-52494400D03*
X190900000Y-52494400D03*
X186900000Y-52494400D03*
X194900000Y-52494400D03*
X188900000Y-52494400D03*
D15*
X185900000Y-42494400D03*
D16*
X190900000Y-41021200D03*
X190900000Y-48895200D03*
D15*
X195900000Y-42494400D03*
%TD*%
D17*
%TO.C,J5*%
X178900000Y-44300000D03*
X178900000Y-123040000D03*
D18*
X172550000Y-44300000D03*
D19*
X172550000Y-46840000D03*
X170010000Y-44300000D03*
X170010000Y-46840000D03*
X167470000Y-44300000D03*
X167470000Y-46840000D03*
X164930000Y-44300000D03*
X164930000Y-46840000D03*
X162390000Y-44300000D03*
X162390000Y-46840000D03*
X159850000Y-44300000D03*
X159850000Y-46840000D03*
X157310000Y-44300000D03*
X157310000Y-46840000D03*
X154770000Y-44300000D03*
X154770000Y-46840000D03*
X152230000Y-44300000D03*
X152230000Y-46840000D03*
X149690000Y-44300000D03*
X149690000Y-46840000D03*
X147150000Y-44300000D03*
X147150000Y-46840000D03*
X144610000Y-44300000D03*
X144610000Y-46840000D03*
X142070000Y-44300000D03*
X142070000Y-46840000D03*
%TD*%
D13*
%TO.C,JLCTOOL1*%
X218200000Y-125900000D03*
%TD*%
D20*
%TO.C,H1*%
X215658700Y-56000000D03*
%TD*%
D13*
%TO.C,JLCTOOL2*%
X118700000Y-115700000D03*
%TD*%
%TO.C,J1*%
X241108250Y-61185000D03*
D21*
X242521000Y-123360000D03*
X242521000Y-128360000D03*
D13*
X248108250Y-61185000D03*
D22*
X210550000Y-64000000D03*
D23*
X212550000Y-64000000D03*
X210550000Y-66000000D03*
X212550000Y-66000000D03*
X210550000Y-68000000D03*
X212550000Y-68000000D03*
X210550000Y-70000000D03*
X212550000Y-70000000D03*
X210550000Y-72000000D03*
X212550000Y-72000000D03*
X210550000Y-74000000D03*
X212550000Y-74000000D03*
X210550000Y-76000000D03*
X212550000Y-76000000D03*
X210550000Y-78000000D03*
X212550000Y-78000000D03*
X210550000Y-80000000D03*
X212550000Y-80000000D03*
X210550000Y-82000000D03*
X212550000Y-82000000D03*
X210550000Y-84000000D03*
X212550000Y-84000000D03*
X210550000Y-86000000D03*
X212550000Y-86000000D03*
X210550000Y-88000000D03*
X212550000Y-88000000D03*
X210550000Y-90000000D03*
X212550000Y-90000000D03*
X210550000Y-92000000D03*
X212550000Y-92000000D03*
X210550000Y-94000000D03*
X212550000Y-94000000D03*
X210550000Y-96000000D03*
X212550000Y-96000000D03*
X210550000Y-98000000D03*
X212550000Y-98000000D03*
X210550000Y-100000000D03*
X212550000Y-100000000D03*
X210550000Y-102000000D03*
X212550000Y-102000000D03*
X210550000Y-104000000D03*
X212550000Y-104000000D03*
X210550000Y-106000000D03*
X212550000Y-106000000D03*
X210550000Y-108000000D03*
X212550000Y-108000000D03*
X210550000Y-110000000D03*
X212550000Y-110000000D03*
X210550000Y-112000000D03*
X212550000Y-112000000D03*
X210550000Y-114000000D03*
X212550000Y-114000000D03*
X210550000Y-116000000D03*
X212550000Y-116000000D03*
X210550000Y-118000000D03*
X212550000Y-118000000D03*
X210550000Y-120000000D03*
X212550000Y-120000000D03*
X210550000Y-122000000D03*
X212550000Y-122000000D03*
%TD*%
D24*
%TO.C,J4*%
X143150000Y-125075000D03*
D19*
X143150000Y-122535000D03*
X145690000Y-125075000D03*
X145690000Y-122535000D03*
X148230000Y-125075000D03*
X148230000Y-122535000D03*
X150770000Y-125075000D03*
X150770000Y-122535000D03*
X153310000Y-125075000D03*
X153310000Y-122535000D03*
X155850000Y-125075000D03*
X155850000Y-122535000D03*
X158390000Y-125075000D03*
X158390000Y-122535000D03*
X160930000Y-125075000D03*
X160930000Y-122535000D03*
X163470000Y-125075000D03*
X163470000Y-122535000D03*
%TD*%
D20*
%TO.C,H2*%
X215658700Y-130000000D03*
%TD*%
M02*
