%TF.GenerationSoftware,KiCad,Pcbnew,7.0.6-0*%
%TF.CreationDate,2023-07-30T00:23:16-06:00*%
%TF.ProjectId,ISA adapter,49534120-6164-4617-9074-65722e6b6963,rev?*%
%TF.SameCoordinates,Original*%
%TF.FileFunction,Paste,Top*%
%TF.FilePolarity,Positive*%
%FSLAX46Y46*%
G04 Gerber Fmt 4.6, Leading zero omitted, Abs format (unit mm)*
G04 Created by KiCad (PCBNEW 7.0.6-0) date 2023-07-30 00:23:16*
%MOMM*%
%LPD*%
G01*
G04 APERTURE LIST*
G04 Aperture macros list*
%AMRoundRect*
0 Rectangle with rounded corners*
0 $1 Rounding radius*
0 $2 $3 $4 $5 $6 $7 $8 $9 X,Y pos of 4 corners*
0 Add a 4 corners polygon primitive as box body*
4,1,4,$2,$3,$4,$5,$6,$7,$8,$9,$2,$3,0*
0 Add four circle primitives for the rounded corners*
1,1,$1+$1,$2,$3*
1,1,$1+$1,$4,$5*
1,1,$1+$1,$6,$7*
1,1,$1+$1,$8,$9*
0 Add four rect primitives between the rounded corners*
20,1,$1+$1,$2,$3,$4,$5,0*
20,1,$1+$1,$4,$5,$6,$7,0*
20,1,$1+$1,$6,$7,$8,$9,0*
20,1,$1+$1,$8,$9,$2,$3,0*%
G04 Aperture macros list end*
%ADD10R,1.200000X1.400000*%
%ADD11R,2.200000X1.400000*%
%ADD12RoundRect,0.250000X-0.262500X-0.450000X0.262500X-0.450000X0.262500X0.450000X-0.262500X0.450000X0*%
%ADD13RoundRect,0.150000X-0.150000X0.825000X-0.150000X-0.825000X0.150000X-0.825000X0.150000X0.825000X0*%
%ADD14RoundRect,0.250000X0.475000X-0.250000X0.475000X0.250000X-0.475000X0.250000X-0.475000X-0.250000X0*%
%ADD15RoundRect,0.218750X0.381250X-0.218750X0.381250X0.218750X-0.381250X0.218750X-0.381250X-0.218750X0*%
G04 APERTURE END LIST*
%TO.C,RV1*%
G36*
X181500000Y-43241800D02*
G01*
X179300000Y-43241800D01*
X179300000Y-41841800D01*
X181500000Y-41841800D01*
X181500000Y-43241800D01*
G37*
G36*
X183100000Y-54741800D02*
G01*
X181900000Y-54741800D01*
X181900000Y-53341800D01*
X183100000Y-53341800D01*
X183100000Y-54741800D01*
G37*
G36*
X185100000Y-54741800D02*
G01*
X183900000Y-54741800D01*
X183900000Y-53341800D01*
X185100000Y-53341800D01*
X185100000Y-54741800D01*
G37*
G36*
X187100000Y-54741800D02*
G01*
X185900000Y-54741800D01*
X185900000Y-53341800D01*
X187100000Y-53341800D01*
X187100000Y-54741800D01*
G37*
G36*
X189100000Y-54741800D02*
G01*
X187900000Y-54741800D01*
X187900000Y-53341800D01*
X189100000Y-53341800D01*
X189100000Y-54741800D01*
G37*
G36*
X191100000Y-54741800D02*
G01*
X189900000Y-54741800D01*
X189900000Y-53341800D01*
X191100000Y-53341800D01*
X191100000Y-54741800D01*
G37*
G36*
X193700000Y-43241800D02*
G01*
X191500000Y-43241800D01*
X191500000Y-41841800D01*
X193700000Y-41841800D01*
X193700000Y-43241800D01*
G37*
%TD*%
D10*
%TO.C,RV1*%
X188500000Y-54041800D03*
X186500000Y-54041800D03*
X182500000Y-54041800D03*
X190500000Y-54041800D03*
X184500000Y-54041800D03*
X182500000Y-54041800D03*
D11*
X180400000Y-42541800D03*
X192600000Y-42541800D03*
%TD*%
D12*
%TO.C,R1*%
X200387500Y-47100000D03*
X202212500Y-47100000D03*
%TD*%
%TO.C,R4*%
X200387500Y-49500000D03*
X202212500Y-49500000D03*
%TD*%
D13*
%TO.C,U1*%
X143710000Y-58825000D03*
X142440000Y-58825000D03*
X141170000Y-58825000D03*
X139900000Y-58825000D03*
X138630000Y-58825000D03*
X137360000Y-58825000D03*
X136090000Y-58825000D03*
X136090000Y-63775000D03*
X137360000Y-63775000D03*
X138630000Y-63775000D03*
X139900000Y-63775000D03*
X141170000Y-63775000D03*
X142440000Y-63775000D03*
X143710000Y-63775000D03*
%TD*%
D12*
%TO.C,R2*%
X200387500Y-42300000D03*
X202212500Y-42300000D03*
%TD*%
%TO.C,R3*%
X200387500Y-44700000D03*
X202212500Y-44700000D03*
%TD*%
D14*
%TO.C,C1*%
X145800000Y-63750000D03*
X145800000Y-61850000D03*
%TD*%
D15*
%TO.C,FB1*%
X163000000Y-57662500D03*
X163000000Y-55537500D03*
%TD*%
M02*
