%TF.GenerationSoftware,KiCad,Pcbnew,7.0.7*%
%TF.CreationDate,2023-10-23T19:43:48-06:00*%
%TF.ProjectId,PicoGUS chipdown with edge rails,5069636f-4755-4532-9063-686970646f77,rev?*%
%TF.SameCoordinates,Original*%
%TF.FileFunction,Copper,L4,Bot*%
%TF.FilePolarity,Positive*%
%FSLAX46Y46*%
G04 Gerber Fmt 4.6, Leading zero omitted, Abs format (unit mm)*
G04 Created by KiCad (PCBNEW 7.0.7) date 2023-10-23 19:43:48*
%MOMM*%
%LPD*%
G01*
G04 APERTURE LIST*
G04 Aperture macros list*
%AMRoundRect*
0 Rectangle with rounded corners*
0 $1 Rounding radius*
0 $2 $3 $4 $5 $6 $7 $8 $9 X,Y pos of 4 corners*
0 Add a 4 corners polygon primitive as box body*
4,1,4,$2,$3,$4,$5,$6,$7,$8,$9,$2,$3,0*
0 Add four circle primitives for the rounded corners*
1,1,$1+$1,$2,$3*
1,1,$1+$1,$4,$5*
1,1,$1+$1,$6,$7*
1,1,$1+$1,$8,$9*
0 Add four rect primitives between the rounded corners*
20,1,$1+$1,$2,$3,$4,$5,0*
20,1,$1+$1,$4,$5,$6,$7,0*
20,1,$1+$1,$6,$7,$8,$9,0*
20,1,$1+$1,$8,$9,$2,$3,0*%
G04 Aperture macros list end*
%TA.AperFunction,ComponentPad*%
%ADD10C,6.400000*%
%TD*%
%TA.AperFunction,ComponentPad*%
%ADD11O,1.800000X2.800000*%
%TD*%
%TA.AperFunction,ComponentPad*%
%ADD12C,0.500000*%
%TD*%
%TA.AperFunction,SMDPad,CuDef*%
%ADD13R,3.200000X3.200000*%
%TD*%
%TA.AperFunction,ComponentPad*%
%ADD14R,1.700000X1.700000*%
%TD*%
%TA.AperFunction,ComponentPad*%
%ADD15O,1.700000X1.700000*%
%TD*%
%TA.AperFunction,ConnectorPad*%
%ADD16R,1.524000X6.478000*%
%TD*%
%TA.AperFunction,ConnectorPad*%
%ADD17R,1.524000X6.458000*%
%TD*%
%TA.AperFunction,ComponentPad*%
%ADD18O,1.500000X2.000000*%
%TD*%
%TA.AperFunction,ComponentPad*%
%ADD19RoundRect,0.425000X-0.425000X0.425000X-0.425000X-0.425000X0.425000X-0.425000X0.425000X0.425000X0*%
%TD*%
%TA.AperFunction,ComponentPad*%
%ADD20C,1.500000*%
%TD*%
%TA.AperFunction,ComponentPad*%
%ADD21C,3.100000*%
%TD*%
%TA.AperFunction,SMDPad,CuDef*%
%ADD22C,1.000000*%
%TD*%
%TA.AperFunction,ViaPad*%
%ADD23C,0.450000*%
%TD*%
%TA.AperFunction,Conductor*%
%ADD24C,0.600000*%
%TD*%
%TA.AperFunction,Conductor*%
%ADD25C,1.200000*%
%TD*%
%TA.AperFunction,Conductor*%
%ADD26C,0.750000*%
%TD*%
%TA.AperFunction,Conductor*%
%ADD27C,0.171000*%
%TD*%
%TA.AperFunction,Conductor*%
%ADD28C,0.267208*%
%TD*%
%TA.AperFunction,Conductor*%
%ADD29C,1.500000*%
%TD*%
%TA.AperFunction,Conductor*%
%ADD30C,0.400000*%
%TD*%
G04 APERTURE END LIST*
D10*
%TO.P,H1,1,1*%
%TO.N,Board_0-GND*%
X196201200Y-48180500D03*
%TD*%
D11*
%TO.P,J7,R*%
%TO.N,Board_0-Net-(FB2-Pad2)*%
X190742500Y-58477500D03*
%TO.P,J7,RN*%
%TO.N,N/C*%
X192542500Y-56477500D03*
%TO.P,J7,S*%
%TO.N,Board_0-GND*%
X198642500Y-56477500D03*
%TO.P,J7,T*%
%TO.N,Board_0-Net-(FB1-Pad2)*%
X196242500Y-58477500D03*
%TO.P,J7,TN*%
%TO.N,N/C*%
X187042500Y-56477500D03*
%TD*%
D12*
%TO.P,U12,57,GND*%
%TO.N,Board_0-GND*%
X173955000Y-87637500D03*
X171255000Y-87637500D03*
X172605000Y-87641300D03*
X173951200Y-88987500D03*
X172605000Y-88987500D03*
D13*
X172605000Y-88987500D03*
D12*
X171258800Y-88987500D03*
X172605000Y-90333700D03*
X173955000Y-90337500D03*
X171255000Y-90337500D03*
%TD*%
D14*
%TO.P,J3,1,Pin_1*%
%TO.N,Board_0-IRQ2*%
X116051500Y-104766500D03*
D15*
%TO.P,J3,2,Pin_2*%
%TO.N,Board_0-IRQ*%
X116051500Y-102226500D03*
%TO.P,J3,3,Pin_3*%
%TO.N,Board_0-IRQ3*%
X118591500Y-104766500D03*
%TO.P,J3,4,Pin_4*%
%TO.N,Board_0-IRQ*%
X118591500Y-102226500D03*
%TO.P,J3,5,Pin_5*%
%TO.N,Board_0-IRQ4*%
X121131500Y-104766500D03*
%TO.P,J3,6,Pin_6*%
%TO.N,Board_0-IRQ*%
X121131500Y-102226500D03*
%TO.P,J3,7,Pin_7*%
%TO.N,Board_0-IRQ5*%
X123671500Y-104766500D03*
%TO.P,J3,8,Pin_8*%
%TO.N,Board_0-IRQ*%
X123671500Y-102226500D03*
%TO.P,J3,9,Pin_9*%
%TO.N,Board_0-IRQ7*%
X126211500Y-104766500D03*
%TO.P,J3,10,Pin_10*%
%TO.N,Board_0-IRQ*%
X126211500Y-102226500D03*
%TO.P,J3,11,Pin_11*%
%TO.N,Board_0-DRQ1*%
X128751500Y-104766500D03*
%TO.P,J3,12,Pin_12*%
%TO.N,Board_0-DRQ*%
X128751500Y-102226500D03*
%TO.P,J3,13,Pin_13*%
%TO.N,Board_0-DACK1*%
X131291500Y-104766500D03*
%TO.P,J3,14,Pin_14*%
%TO.N,Board_0-DACK*%
X131291500Y-102226500D03*
%TO.P,J3,15,Pin_15*%
%TO.N,Board_0-DRQ3*%
X133831500Y-104766500D03*
%TO.P,J3,16,Pin_16*%
%TO.N,Board_0-DRQ*%
X133831500Y-102226500D03*
%TO.P,J3,17,Pin_17*%
%TO.N,Board_0-DACK3*%
X136371500Y-104766500D03*
%TO.P,J3,18,Pin_18*%
%TO.N,Board_0-DACK*%
X136371500Y-102226500D03*
%TD*%
D14*
%TO.P,J4,1,Pin_1*%
%TO.N,Board_0-UART_TX*%
X165442500Y-98312500D03*
D15*
%TO.P,J4,2,Pin_2*%
%TO.N,Board_0-GND*%
X165442500Y-100852500D03*
%TD*%
D11*
%TO.P,J9,R*%
%TO.N,Board_0-Net-(J9-PadR)*%
X190742500Y-41627500D03*
%TO.P,J9,RN*%
%TO.N,Board_0-unconnected-(J9-PadRN)*%
X192542500Y-39627500D03*
%TO.P,J9,S*%
%TO.N,Board_0-AGND*%
X198642500Y-39627500D03*
%TO.P,J9,T*%
%TO.N,Board_0-Net-(J9-PadT)*%
X196242500Y-41627500D03*
%TO.P,J9,TN*%
%TO.N,Board_0-unconnected-(J9-PadTN)*%
X187042500Y-39627500D03*
%TD*%
D16*
%TO.P,J1,1,GND*%
%TO.N,Board_0-GND*%
X175742500Y-112987500D03*
%TO.P,J1,2,RESET*%
%TO.N,Board_0-RESET*%
X173202500Y-112987500D03*
%TO.P,J1,3,VCC*%
%TO.N,Board_0-+5V*%
X170662500Y-112987500D03*
%TO.P,J1,4,IRQ2*%
%TO.N,Board_0-IRQ2*%
X168122500Y-112987500D03*
%TO.P,J1,5,-5V*%
%TO.N,Board_0-unconnected-(J1--5V-Pad5)*%
X165582500Y-112987500D03*
%TO.P,J1,6,DRQ2*%
%TO.N,Board_0-unconnected-(J1-DRQ2-Pad6)*%
X163042500Y-112987500D03*
%TO.P,J1,7,-12V*%
%TO.N,Board_0--12V*%
X160502500Y-112987500D03*
%TO.P,J1,8,UNUSED*%
%TO.N,Board_0-unconnected-(J1-UNUSED-Pad8)*%
X157962500Y-112987500D03*
%TO.P,J1,9,+12V*%
%TO.N,Board_0-+12V*%
X155422500Y-112987500D03*
%TO.P,J1,10,GND*%
%TO.N,Board_0-GND*%
X152882500Y-112987500D03*
%TO.P,J1,11,~{SMEMW}*%
%TO.N,Board_0-unconnected-(J1-~{SMEMW}-Pad11)*%
X150342500Y-112987500D03*
%TO.P,J1,12,~{SMEMR}*%
%TO.N,Board_0-unconnected-(J1-~{SMEMR}-Pad12)*%
X147802500Y-112987500D03*
%TO.P,J1,13,~{IOW}*%
%TO.N,Board_0-~{IOW}*%
X145262500Y-112987500D03*
%TO.P,J1,14,~{IOR}*%
%TO.N,Board_0-~{IOR}*%
X142722500Y-112987500D03*
%TO.P,J1,15,~{DACK3}*%
%TO.N,Board_0-DACK3*%
X140182500Y-112987500D03*
%TO.P,J1,16,DRQ3*%
%TO.N,Board_0-DRQ3*%
X137642500Y-112987500D03*
%TO.P,J1,17,~{DACK1}*%
%TO.N,Board_0-DACK1*%
X135102500Y-112987500D03*
%TO.P,J1,18,DRQ1*%
%TO.N,Board_0-DRQ1*%
X132562500Y-112987500D03*
%TO.P,J1,19,~{DACK0}*%
%TO.N,Board_0-unconnected-(J1-~{DACK0}-Pad19)*%
X130022500Y-112987500D03*
%TO.P,J1,20,CLK*%
%TO.N,Board_0-unconnected-(J1-CLK-Pad20)*%
X127482500Y-112987500D03*
%TO.P,J1,21,IRQ7*%
%TO.N,Board_0-IRQ7*%
X124942500Y-112987500D03*
%TO.P,J1,22,IRQ6*%
%TO.N,Board_0-unconnected-(J1-IRQ6-Pad22)*%
X122402500Y-112987500D03*
%TO.P,J1,23,IRQ5*%
%TO.N,Board_0-IRQ5*%
X119862500Y-112987500D03*
%TO.P,J1,24,IRQ4*%
%TO.N,Board_0-IRQ4*%
X117322500Y-112987500D03*
%TO.P,J1,25,IRQ3*%
%TO.N,Board_0-IRQ3*%
X114782500Y-112987500D03*
%TO.P,J1,26,~{DACK2}*%
%TO.N,Board_0-unconnected-(J1-~{DACK2}-Pad26)*%
X112242500Y-112987500D03*
%TO.P,J1,27,TC*%
%TO.N,Board_0-TC*%
X109702500Y-112987500D03*
%TO.P,J1,28,ALE*%
%TO.N,Board_0-unconnected-(J1-ALE-Pad28)*%
X107162500Y-112987500D03*
%TO.P,J1,29,VCC*%
%TO.N,Board_0-+5V*%
X104622500Y-112987500D03*
D17*
%TO.P,J1,30,OSC*%
%TO.N,Board_0-unconnected-(J1-OSC-Pad30)*%
X102082500Y-112977500D03*
D16*
%TO.P,J1,31,GND*%
%TO.N,Board_0-GND*%
X99542500Y-112987500D03*
%TD*%
D18*
%TO.P,J6,6,Shield*%
%TO.N,Board_0-GND*%
X183197500Y-107006500D03*
X188857500Y-107006500D03*
%TD*%
D19*
%TO.P,J8,1,Pin_1*%
%TO.N,Board_0-GND*%
X136192500Y-24947500D03*
D15*
%TO.P,J8,2,Pin_2*%
%TO.N,Board_0-unconnected-(J8-Pin_2-Pad2)*%
X136192500Y-27487500D03*
%TO.P,J8,3,Pin_3*%
%TO.N,Board_0-GND*%
X133652500Y-24947500D03*
%TO.P,J8,4,Pin_4*%
%TO.N,Board_0-UART_TX*%
X133652500Y-27487500D03*
%TO.P,J8,5,Pin_5*%
%TO.N,Board_0-GND*%
X131112500Y-24947500D03*
%TO.P,J8,6,Pin_6*%
%TO.N,Board_0-+5V*%
X131112500Y-27487500D03*
%TO.P,J8,7,Pin_7*%
%TO.N,Board_0-GND*%
X128572500Y-24947500D03*
%TO.P,J8,8,Pin_8*%
%TO.N,Board_0-unconnected-(J8-Pin_8-Pad8)*%
X128572500Y-27487500D03*
%TO.P,J8,9,Pin_9*%
%TO.N,Board_0-GND*%
X126032500Y-24947500D03*
%TO.P,J8,10,Pin_10*%
%TO.N,Board_0-+5V*%
X126032500Y-27487500D03*
%TO.P,J8,11,Pin_11*%
%TO.N,Board_0-GND*%
X123492500Y-24947500D03*
%TO.P,J8,12,Pin_12*%
%TO.N,Board_0-unconnected-(J8-Pin_12-Pad12)*%
X123492500Y-27487500D03*
%TO.P,J8,13,Pin_13*%
%TO.N,Board_0-unconnected-(J8-Pin_13-Pad13)*%
X120952500Y-24947500D03*
%TO.P,J8,14,Pin_14*%
%TO.N,Board_0-+5V*%
X120952500Y-27487500D03*
%TO.P,J8,15,Pin_15*%
%TO.N,Board_0-AGND*%
X118412500Y-24947500D03*
%TO.P,J8,16,Pin_16*%
%TO.N,Board_0-unconnected-(J8-Pin_16-Pad16)*%
X118412500Y-27487500D03*
%TO.P,J8,17,Pin_17*%
%TO.N,Board_0-AGND*%
X115872500Y-24947500D03*
%TO.P,J8,18,Pin_18*%
%TO.N,Board_0-+12V*%
X115872500Y-27487500D03*
%TO.P,J8,19,Pin_19*%
%TO.N,Board_0-AGND*%
X113332500Y-24947500D03*
%TO.P,J8,20,Pin_20*%
%TO.N,Board_0-WTAUDIO_R*%
X113332500Y-27487500D03*
%TO.P,J8,21,Pin_21*%
%TO.N,Board_0-AGND*%
X110792500Y-24947500D03*
%TO.P,J8,22,Pin_22*%
%TO.N,Board_0--12V*%
X110792500Y-27487500D03*
%TO.P,J8,23,Pin_23*%
%TO.N,Board_0-AGND*%
X108252500Y-24947500D03*
%TO.P,J8,24,Pin_24*%
%TO.N,Board_0-WTAUDIO_L*%
X108252500Y-27487500D03*
%TO.P,J8,25,Pin_25*%
%TO.N,Board_0-AGND*%
X105712500Y-24947500D03*
%TO.P,J8,26,Pin_26*%
%TO.N,Board_0-~{WT_RESET}*%
X105712500Y-27487500D03*
%TD*%
D10*
%TO.P,H2,1,1*%
%TO.N,Board_0-GND*%
X196201200Y-104695500D03*
%TD*%
D14*
%TO.P,J10,1,Pin_1*%
%TO.N,Board_0-RUN*%
X161742500Y-98312500D03*
D15*
%TO.P,J10,2,Pin_2*%
%TO.N,Board_0-GND*%
X161742500Y-100852500D03*
%TD*%
D20*
%TO.P,J5,1,VBUS*%
%TO.N,Board_0-Net-(J5-VBUS)*%
X189154700Y-95472500D03*
%TO.P,J5,2,D-*%
%TO.N,Board_0-/USB_D-*%
X189154700Y-92972500D03*
%TO.P,J5,3,D+*%
%TO.N,Board_0-/USB_D+*%
X189154700Y-90972500D03*
%TO.P,J5,4,GND*%
%TO.N,Board_0-GND*%
X189154700Y-88472500D03*
D21*
%TO.P,J5,5,Shield*%
X191864700Y-98972500D03*
X191864700Y-84972500D03*
%TD*%
D22*
%TO.P,KiKit_FID_B_1,*%
%TO.N,*%
X95915000Y-30000000D03*
%TD*%
%TO.P,KiKit_FID_B_3,*%
%TO.N,*%
X95915000Y-106736250D03*
%TD*%
%TO.P,KiKit_FID_B_2,*%
%TO.N,*%
X201085000Y-30000000D03*
%TD*%
%TO.P,KiKit_FID_B_4,*%
%TO.N,*%
X201085000Y-106736250D03*
%TD*%
D23*
%TO.N,Board_0-+12V*%
X154392500Y-107737500D03*
X154892500Y-108237500D03*
%TO.N,Board_0-+3V3*%
X167242500Y-91787500D03*
X190542500Y-79087500D03*
X150742500Y-41587500D03*
X151442500Y-42487500D03*
X177442500Y-76462500D03*
X196242500Y-80887500D03*
X175442500Y-84787500D03*
X168042500Y-89187500D03*
X170042500Y-88887500D03*
X195642500Y-76287500D03*
X171642500Y-86387500D03*
X157742500Y-72387500D03*
X190542500Y-78087500D03*
X158142500Y-91887500D03*
X176902500Y-92327500D03*
X146942500Y-81887500D03*
X159142500Y-72587500D03*
X151442500Y-40687500D03*
X182942500Y-86187500D03*
X182942500Y-83987500D03*
X173542500Y-99087500D03*
X176242500Y-92487500D03*
X158642500Y-81887500D03*
X176542500Y-82187500D03*
X195042500Y-76287500D03*
X165167500Y-51462500D03*
X159142500Y-82387500D03*
X187242500Y-78087500D03*
X146842500Y-72587500D03*
X196242500Y-76287500D03*
X146842500Y-93487500D03*
X174142500Y-99687500D03*
X165067500Y-50862500D03*
X175042500Y-86387500D03*
X176642500Y-79887500D03*
X171342500Y-91587500D03*
X157642500Y-91287500D03*
X147042500Y-83787500D03*
X176242500Y-93187500D03*
X195642500Y-80887500D03*
X146942500Y-91387500D03*
X171142500Y-84087500D03*
X146892500Y-74537500D03*
X195042500Y-80887500D03*
X187942500Y-78087500D03*
X175360500Y-93209500D03*
X177142500Y-89407500D03*
X178442500Y-89187500D03*
X171792500Y-93437500D03*
X175742500Y-92087500D03*
%TO.N,Board_0-+5V*%
X180142500Y-96487500D03*
X169742500Y-108787500D03*
X189142500Y-102037500D03*
X103732500Y-107941500D03*
X172677500Y-102922500D03*
X169742500Y-107587500D03*
X105510500Y-107306500D03*
X172677500Y-103622500D03*
X103732500Y-107306500D03*
X105510500Y-108570003D03*
X180142500Y-95787500D03*
X187012500Y-61517500D03*
X179542500Y-97187500D03*
X174455500Y-102922500D03*
X179542500Y-96487500D03*
X190942500Y-102037500D03*
X103732500Y-108587500D03*
X171542500Y-108187500D03*
X179542500Y-95787500D03*
X174455500Y-102322500D03*
X105510500Y-107941500D03*
X180142500Y-97187500D03*
X190942500Y-101337500D03*
X169742500Y-108187500D03*
X171542500Y-107587500D03*
X139342500Y-106787500D03*
X174455500Y-103622500D03*
X172677500Y-102322500D03*
X171542500Y-108787500D03*
X189142500Y-101337500D03*
%TO.N,Board_0--12V*%
X160042500Y-107987500D03*
X117742500Y-34487500D03*
X160502500Y-108487500D03*
X117317500Y-34012500D03*
%TO.N,Board_0-/RP2040/GPIO23*%
X172142500Y-91558500D03*
X165327500Y-79747500D03*
%TO.N,Board_0-/RP2040/QSPI_SD1*%
X181642500Y-79387500D03*
X179742500Y-79387500D03*
%TO.N,Board_0-/RP2040/QSPI_SS*%
X176642500Y-85887500D03*
X182942500Y-79987500D03*
%TO.N,Board_0-/RP2040/SWCLK*%
X166542500Y-91387500D03*
X167942500Y-90287500D03*
%TO.N,Board_0-/RP2040/~{USB_BOOT}*%
X180842500Y-99687500D03*
X186409500Y-91431500D03*
%TO.N,Board_0-/USB_D+*%
X179842500Y-89987500D03*
%TO.N,Board_0-/USB_D-*%
X179842500Y-90887500D03*
%TO.N,Board_0-/VSYS*%
X182934500Y-92235000D03*
X182553500Y-92870000D03*
X190573500Y-80387500D03*
X182553500Y-93505000D03*
X190573500Y-81587500D03*
X182934500Y-94140000D03*
X188060500Y-80387500D03*
X183315500Y-92870000D03*
X190573500Y-80987500D03*
X188060500Y-81587500D03*
X188060500Y-80987500D03*
X183315500Y-93505000D03*
%TO.N,Board_0-A0*%
X156942500Y-66487500D03*
X122442500Y-66587500D03*
%TO.N,Board_0-A1*%
X122442500Y-68987500D03*
X154786500Y-68987500D03*
%TO.N,Board_0-A2*%
X156242500Y-72187500D03*
X122442500Y-72187500D03*
%TO.N,Board_0-A3*%
X154243500Y-74886500D03*
X122442500Y-74887500D03*
%TO.N,Board_0-A4*%
X122442500Y-75887500D03*
X156942500Y-75887500D03*
%TO.N,Board_0-A5*%
X122442500Y-78187500D03*
X155042500Y-78287500D03*
%TO.N,Board_0-A6*%
X156342500Y-81587500D03*
X122442500Y-81587500D03*
%TO.N,Board_0-A7*%
X122442500Y-84087500D03*
X154242500Y-84187500D03*
%TO.N,Board_0-A8*%
X154194000Y-85039000D03*
X122442500Y-85287500D03*
%TO.N,Board_0-A9*%
X152942500Y-87787500D03*
X122442500Y-87487500D03*
%TO.N,Board_0-AD0*%
X170342500Y-68987500D03*
X155802500Y-68987500D03*
%TO.N,Board_0-AD1*%
X169842500Y-67887500D03*
X152342500Y-67387500D03*
%TO.N,Board_0-AD2*%
X155167500Y-74887500D03*
X169342500Y-74887500D03*
%TO.N,Board_0-AD3*%
X168742500Y-73887500D03*
X152542500Y-73687500D03*
%TO.N,Board_0-AD4*%
X168242500Y-78287500D03*
X155929500Y-78287500D03*
%TO.N,Board_0-AD5*%
X153742500Y-78587500D03*
X166242500Y-78887500D03*
%TO.N,Board_0-AD6*%
X168042500Y-85887500D03*
X155548500Y-84287500D03*
%TO.N,Board_0-AD7*%
X153042500Y-85187500D03*
X165742500Y-85887500D03*
%TO.N,Board_0-ADS*%
X158042500Y-77087500D03*
X157642500Y-80087500D03*
X160542500Y-76987500D03*
X146242500Y-80587500D03*
X173942500Y-91587500D03*
%TO.N,Board_0-AGND*%
X169742500Y-32287500D03*
X157067500Y-42887500D03*
X158387500Y-43082500D03*
X160832500Y-39553390D03*
X171242500Y-31287500D03*
X158042500Y-40887500D03*
X156067500Y-43687500D03*
X154242500Y-44587500D03*
X158967500Y-43262500D03*
X162867500Y-41962500D03*
X169742500Y-31287500D03*
X163382500Y-43738500D03*
X163137500Y-31541610D03*
X165767500Y-45762500D03*
X163137500Y-33976610D03*
X166267500Y-45242500D03*
X155142500Y-45287500D03*
X161432500Y-40053390D03*
X163292500Y-45762500D03*
X153342500Y-45287500D03*
X171242500Y-32287500D03*
%TO.N,Board_0-AVDD*%
X168342500Y-32287500D03*
X165167500Y-44262500D03*
X159042500Y-45887500D03*
X166842500Y-31287500D03*
X159567500Y-42662500D03*
X168342500Y-31287500D03*
X166842500Y-32287500D03*
X154242500Y-41587500D03*
X165767500Y-43762500D03*
X153542500Y-40687500D03*
X163137500Y-39024110D03*
X157942500Y-45887500D03*
X160042500Y-45594607D03*
X163137500Y-36524110D03*
X153542500Y-42487500D03*
%TO.N,Board_0-BCK*%
X166942500Y-82187500D03*
X170342500Y-91431500D03*
%TO.N,Board_0-DACK*%
X136442500Y-75387500D03*
X144292500Y-75387500D03*
%TO.N,Board_0-DIN*%
X170042500Y-90087500D03*
X167442500Y-81487500D03*
%TO.N,Board_0-DRQ*%
X156342500Y-85587500D03*
X133842500Y-86787500D03*
%TO.N,Board_0-GND*%
X177742500Y-99787500D03*
X180542500Y-87887500D03*
X171407500Y-102922500D03*
X176242500Y-95287500D03*
X171407500Y-103622500D03*
X145842500Y-94487500D03*
X142642500Y-77487500D03*
X151581500Y-108178300D03*
X151581500Y-106978300D03*
X163967500Y-49362500D03*
X157142500Y-94887500D03*
X190642500Y-76887500D03*
X162342500Y-52487500D03*
X169756500Y-102322500D03*
X194029500Y-72958997D03*
X159142500Y-83387500D03*
X161342500Y-89237500D03*
X161967500Y-49362500D03*
X174442500Y-107587500D03*
X151842500Y-68487500D03*
X172342500Y-94887500D03*
X171407500Y-102322500D03*
X171342500Y-94887500D03*
X187942500Y-75658997D03*
X192142500Y-74187500D03*
X175042500Y-106987500D03*
X175042500Y-107587500D03*
X161342500Y-88037500D03*
X98652500Y-107306500D03*
X100430500Y-107306500D03*
X179142500Y-76787500D03*
X165642500Y-90287500D03*
X153342500Y-47487500D03*
X152181500Y-107578300D03*
X152181500Y-108178300D03*
X164542500Y-85737500D03*
X151792500Y-83537500D03*
X161842500Y-51987500D03*
X179042500Y-91987500D03*
X172437500Y-77287500D03*
X167791300Y-94987500D03*
X187017500Y-79412500D03*
X190642500Y-75658997D03*
X173442500Y-97087500D03*
X142642500Y-67387500D03*
X163642500Y-95087500D03*
X170407500Y-82887500D03*
X154242500Y-48187500D03*
X98652500Y-108576500D03*
X152692500Y-76737500D03*
X164467500Y-52862500D03*
X185567500Y-79412500D03*
X175242500Y-95287500D03*
X175442500Y-82487500D03*
X164142500Y-51487500D03*
X180542500Y-88887500D03*
X176642500Y-84487500D03*
X155042500Y-84987500D03*
X174442500Y-106387500D03*
X142642500Y-86087500D03*
X169756500Y-102922500D03*
X164242500Y-84637500D03*
X151581500Y-107578300D03*
X152692500Y-77537500D03*
X166242500Y-89687500D03*
X194029500Y-74187500D03*
X181542500Y-86787500D03*
X145542500Y-84287500D03*
X175042500Y-108187500D03*
X138342500Y-82187500D03*
X187942500Y-76287500D03*
X165467500Y-52862500D03*
X148642500Y-31187500D03*
X175042500Y-106387500D03*
X152181500Y-106978300D03*
X100430500Y-107941500D03*
X151742500Y-91287500D03*
X159067500Y-49362500D03*
X177142500Y-74387500D03*
X164542500Y-86937500D03*
X178642500Y-74387500D03*
X182342500Y-98987500D03*
X142642500Y-68187500D03*
X159042500Y-74387500D03*
X172142500Y-99687500D03*
X173542500Y-95887500D03*
X178542500Y-77887500D03*
X192142500Y-72958997D03*
X194029500Y-73587500D03*
X169756500Y-103622500D03*
X98652500Y-107941500D03*
X155142500Y-47487500D03*
X145242500Y-75387500D03*
X187942500Y-76887500D03*
X142642500Y-86887500D03*
X151742500Y-90487500D03*
X142642500Y-76687500D03*
X174442500Y-108187500D03*
X182042500Y-87287500D03*
X152642500Y-68387500D03*
X172442500Y-74687500D03*
X192142500Y-73587500D03*
X179042500Y-92987500D03*
X158642500Y-83887500D03*
X145342500Y-93987500D03*
X190642500Y-76287500D03*
X161742500Y-90387500D03*
X174442500Y-106987500D03*
X156042500Y-47087500D03*
X100430500Y-108570003D03*
%TO.N,Board_0-IRQ*%
X126142500Y-90087500D03*
X155042500Y-90087500D03*
%TO.N,Board_0-I{slash}OCHRDY*%
X152942500Y-105187500D03*
X172342500Y-98387500D03*
%TO.N,Board_0-LRCK*%
X169442500Y-92187500D03*
X167792500Y-83737500D03*
%TO.N,Board_0-Net-(R2-Pad1)*%
X185442500Y-65087500D03*
X174642500Y-98387500D03*
%TO.N,Board_0-Net-(U13-1ch_OUT)*%
X167542500Y-41187500D03*
X164442500Y-33987500D03*
%TO.N,Board_0-Net-(U3-Pad2)*%
X145342500Y-71287500D03*
X140542500Y-71287500D03*
X140542500Y-80087500D03*
X145842500Y-79887500D03*
%TO.N,Board_0-Net-(U3-Pad4)*%
X146942500Y-71387500D03*
X144342500Y-69587500D03*
%TO.N,Board_0-Net-(U3-Pad8)*%
X142042500Y-90487500D03*
X144442500Y-90487500D03*
%TO.N,Board_0-Net-(U4-Pad11)*%
X159842500Y-73287500D03*
X144942500Y-72587500D03*
%TO.N,Board_0-RA8*%
X153942500Y-87787500D03*
X166042500Y-86687500D03*
%TO.N,Board_0-RA9*%
X165442500Y-87287500D03*
X152442500Y-89487500D03*
%TO.N,Board_0-RDRQ*%
X172642500Y-94087500D03*
X155642500Y-93787500D03*
%TO.N,Board_0-RESET*%
X147342500Y-80687500D03*
X144942500Y-80687500D03*
X147542500Y-95368500D03*
X154742500Y-95587500D03*
X138917500Y-80687500D03*
X173202500Y-105487500D03*
%TO.N,Board_0-RIRQ*%
X154442500Y-94387500D03*
X170542500Y-94487500D03*
%TO.N,Board_0-RTC*%
X156442500Y-93487500D03*
X170642500Y-93487500D03*
%TO.N,Board_0-RUN*%
X142442500Y-92487500D03*
X165942500Y-92487500D03*
%TO.N,Board_0-RV_CLK*%
X161842500Y-36487500D03*
X173042500Y-93287500D03*
%TO.N,Board_0-RV_DATA*%
X173042500Y-91587500D03*
X161792500Y-34037500D03*
%TO.N,Board_0-TC*%
X111142500Y-108887500D03*
X156542500Y-88887500D03*
X111142500Y-88687500D03*
%TO.N,Board_0-UART_TX*%
X145942500Y-72587500D03*
X133242500Y-95487500D03*
X174142500Y-93387500D03*
X133242500Y-72387500D03*
%TO.N,Board_0-WTAUDIO_L*%
X155542500Y-31487500D03*
%TO.N,Board_0-WTAUDIO_R*%
X155537500Y-36587500D03*
%TO.N,Board_0-~{BUSOE}*%
X143642500Y-87987500D03*
X157642500Y-88287500D03*
X146242500Y-87987500D03*
%TO.N,Board_0-~{IOR}*%
X146842500Y-79287500D03*
X139142500Y-79287500D03*
X144042500Y-108287500D03*
%TO.N,Board_0-~{IOW}*%
X139742500Y-78687500D03*
X146642500Y-108287500D03*
X145542500Y-78587500D03*
%TO.N,Board_0-~{RDACK}*%
X169542500Y-93087500D03*
X141542500Y-92987500D03*
%TO.N,Board_0-~{RIOR}*%
X145642500Y-70087500D03*
X170842500Y-70387500D03*
%TO.N,Board_0-~{RIOW}*%
X143642500Y-65987500D03*
X171242500Y-66487500D03*
%TO.N,Board_0-~{SPI_CS}*%
X174242500Y-82887500D03*
X174942500Y-78087500D03*
%TO.N,Board_0-~{WT_RESET}*%
X144942500Y-91287500D03*
%TD*%
D24*
%TO.N,Board_0-+12V*%
X155422500Y-108767500D02*
X154392500Y-107737500D01*
X154892500Y-108237500D02*
X154392500Y-107737500D01*
X155422500Y-112987500D02*
X155422500Y-108767500D01*
D25*
%TO.N,Board_0-+5V*%
X104642500Y-112687500D02*
X104642500Y-109587500D01*
D26*
X105510500Y-108570003D02*
X105510500Y-107941500D01*
D25*
X170642500Y-113447500D02*
X170642500Y-109587500D01*
D26*
X105510500Y-107941500D02*
X105510500Y-107306500D01*
X103732500Y-108587500D02*
X104432500Y-109287500D01*
X171542500Y-108787500D02*
X170940700Y-109389300D01*
X170940700Y-109389300D02*
X170344300Y-109389300D01*
X171542500Y-108787500D02*
X171542500Y-107587500D01*
X103732500Y-108587500D02*
X103732500Y-107941500D01*
X104432500Y-109287500D02*
X104793003Y-109287500D01*
X169742500Y-108787500D02*
X169742500Y-107587500D01*
X104793003Y-109287500D02*
X105510500Y-108570003D01*
X103732500Y-107941500D02*
X103732500Y-107306500D01*
X170344300Y-109389300D02*
X169742500Y-108787500D01*
D24*
%TO.N,Board_0--12V*%
X160502500Y-108447500D02*
X160042500Y-107987500D01*
X160502500Y-112987500D02*
X160502500Y-108447500D01*
D27*
%TO.N,Board_0-/RP2040/GPIO23*%
X171571500Y-90987500D02*
X170852500Y-90987500D01*
X172142500Y-91558500D02*
X171571500Y-90987500D01*
X166394758Y-79747500D02*
X165327500Y-79747500D01*
X170852500Y-90987500D02*
X170542500Y-90677500D01*
X170542500Y-90677500D02*
X170542500Y-83895242D01*
X170542500Y-83895242D02*
X166394758Y-79747500D01*
%TO.N,Board_0-/RP2040/QSPI_SD1*%
X181642500Y-79387500D02*
X179742500Y-79387500D01*
%TO.N,Board_0-/RP2040/QSPI_SS*%
X176642500Y-85887500D02*
X176742500Y-85887500D01*
X182642500Y-79987500D02*
X182942500Y-79987500D01*
X176742500Y-85887500D02*
X182642500Y-79987500D01*
%TO.N,Board_0-/RP2040/SWCLK*%
X167642500Y-90287500D02*
X166542500Y-91387500D01*
X167942500Y-90287500D02*
X167642500Y-90287500D01*
%TO.N,Board_0-/RP2040/~{USB_BOOT}*%
X186409500Y-91431500D02*
X186409500Y-99620500D01*
X186409500Y-99620500D02*
X186342500Y-99687500D01*
X180842500Y-99687500D02*
X186342500Y-99687500D01*
D28*
%TO.N,Board_0-/USB_D+*%
X188384496Y-90202296D02*
X180057296Y-90202296D01*
X189169700Y-90987500D02*
X188384496Y-90202296D01*
X180057296Y-90202296D02*
X179842500Y-89987500D01*
%TO.N,Board_0-/USB_D-*%
X180057296Y-90672704D02*
X179842500Y-90887500D01*
X186854904Y-90672704D02*
X180057296Y-90672704D01*
X189095700Y-92913500D02*
X186854904Y-90672704D01*
D27*
%TO.N,Board_0-A0*%
X156842500Y-66587500D02*
X156942500Y-66487500D01*
X122442500Y-66587500D02*
X156842500Y-66587500D01*
%TO.N,Board_0-A1*%
X122442500Y-68987500D02*
X154786500Y-68987500D01*
%TO.N,Board_0-A2*%
X146739742Y-71877000D02*
X147145258Y-71877000D01*
X147145258Y-71877000D02*
X147234758Y-71787500D01*
X122442500Y-72187500D02*
X122842500Y-71787500D01*
X122842500Y-71787500D02*
X146650242Y-71787500D01*
X155842500Y-71787500D02*
X156242500Y-72187500D01*
X146650242Y-71787500D02*
X146739742Y-71877000D01*
X147234758Y-71787500D02*
X155842500Y-71787500D01*
%TO.N,Board_0-A3*%
X147249129Y-75077000D02*
X146535872Y-75077000D01*
X146535872Y-75077000D02*
X146346372Y-74887500D01*
X154232000Y-74898000D02*
X147428129Y-74898000D01*
X146346372Y-74887500D02*
X122442500Y-74887500D01*
X147428129Y-74898000D02*
X147249129Y-75077000D01*
X154243500Y-74886500D02*
X154232000Y-74898000D01*
%TO.N,Board_0-A4*%
X122442500Y-75887500D02*
X156942500Y-75887500D01*
%TO.N,Board_0-A5*%
X122442500Y-78187500D02*
X122532000Y-78098000D01*
X154953000Y-78098000D02*
X155042500Y-78287500D01*
X155042500Y-78287500D02*
X155042500Y-78187500D01*
X122532000Y-78098000D02*
X154953000Y-78098000D01*
%TO.N,Board_0-A6*%
X146739742Y-81398000D02*
X147145258Y-81398000D01*
X122442500Y-81587500D02*
X146550242Y-81587500D01*
X147334758Y-81587500D02*
X156342500Y-81587500D01*
X147145258Y-81398000D02*
X147334758Y-81587500D01*
X146550242Y-81587500D02*
X146739742Y-81398000D01*
%TO.N,Board_0-A7*%
X146734758Y-84787500D02*
X123142500Y-84787500D01*
X123142500Y-84787500D02*
X122442500Y-84087500D01*
X147334758Y-84187500D02*
X146734758Y-84787500D01*
X154242500Y-84187500D02*
X147334758Y-84187500D01*
%TO.N,Board_0-A8*%
X152839742Y-84698000D02*
X152350242Y-85187500D01*
X122542500Y-85187500D02*
X122442500Y-85287500D01*
X154194000Y-85039000D02*
X153853000Y-84698000D01*
X152350242Y-85187500D02*
X122542500Y-85187500D01*
X153853000Y-84698000D02*
X152839742Y-84698000D01*
%TO.N,Board_0-A9*%
X122442500Y-87487500D02*
X122453000Y-87498000D01*
X152653000Y-87498000D02*
X152942500Y-87787500D01*
X122453000Y-87498000D02*
X152653000Y-87498000D01*
%TO.N,Board_0-AD0*%
X155802500Y-68987500D02*
X170342500Y-68987500D01*
%TO.N,Board_0-AD1*%
X152842500Y-67887500D02*
X169842500Y-67887500D01*
X152342500Y-67387500D02*
X152842500Y-67887500D01*
%TO.N,Board_0-AD2*%
X155167500Y-74887500D02*
X169342500Y-74887500D01*
%TO.N,Board_0-AD3*%
X152542500Y-73687500D02*
X152742500Y-73887500D01*
X152742500Y-73887500D02*
X168742500Y-73887500D01*
%TO.N,Board_0-AD4*%
X155929500Y-78287500D02*
X155993500Y-78223500D01*
X155993500Y-78223500D02*
X168178500Y-78223500D01*
X168178500Y-78223500D02*
X168242500Y-78287500D01*
%TO.N,Board_0-AD5*%
X153942500Y-78787500D02*
X153742500Y-78587500D01*
X166142500Y-78787500D02*
X153942500Y-78787500D01*
X166242500Y-78887500D02*
X166142500Y-78787500D01*
%TO.N,Board_0-AD6*%
X159053000Y-84377000D02*
X159342500Y-84087500D01*
X166242500Y-84087500D02*
X168042500Y-85887500D01*
X155548500Y-84287500D02*
X155638000Y-84377000D01*
X159342500Y-84087500D02*
X166242500Y-84087500D01*
X155638000Y-84377000D02*
X159053000Y-84377000D01*
%TO.N,Board_0-AD7*%
X165742500Y-85887500D02*
X165742500Y-85687500D01*
X165242500Y-85187500D02*
X163342500Y-85187500D01*
X162757984Y-85087500D02*
X162750242Y-85095242D01*
X163242500Y-85087500D02*
X162757984Y-85087500D01*
X165742500Y-85687500D02*
X165242500Y-85187500D01*
X153642500Y-85787500D02*
X153042500Y-85187500D01*
X163342500Y-85187500D02*
X163242500Y-85087500D01*
X155642500Y-85087500D02*
X154942500Y-85787500D01*
X162750242Y-85087500D02*
X155642500Y-85087500D01*
X154942500Y-85787500D02*
X153642500Y-85787500D01*
%TO.N,Board_0-ADS*%
X167750242Y-77087500D02*
X173242500Y-82579758D01*
X146242500Y-80587500D02*
X146632000Y-80198000D01*
X173242500Y-85854000D02*
X174642500Y-87254000D01*
X174642500Y-90887500D02*
X173942500Y-91587500D01*
X174642500Y-87254000D02*
X174642500Y-90887500D01*
X160542500Y-76987500D02*
X160442500Y-77087500D01*
X160642500Y-77087500D02*
X167750242Y-77087500D01*
X160442500Y-77087500D02*
X158042500Y-77087500D01*
X173242500Y-82579758D02*
X173242500Y-85854000D01*
X160542500Y-76987500D02*
X160642500Y-77087500D01*
X157532000Y-80198000D02*
X157642500Y-80087500D01*
X146632000Y-80198000D02*
X157532000Y-80198000D01*
%TO.N,Board_0-BCK*%
X169986500Y-91431500D02*
X169042500Y-90487500D01*
X169042500Y-84287500D02*
X166942500Y-82187500D01*
X170342500Y-91431500D02*
X169986500Y-91431500D01*
X169042500Y-90487500D02*
X169042500Y-84287500D01*
%TO.N,Board_0-DACK*%
X136442500Y-75387500D02*
X144292500Y-75387500D01*
%TO.N,Board_0-DACK1*%
X135102500Y-112987500D02*
X135102500Y-108577500D01*
X135102500Y-108577500D02*
X131291500Y-104766500D01*
%TO.N,Board_0-DACK3*%
X140182500Y-112987500D02*
X140182500Y-108577500D01*
X140182500Y-108577500D02*
X136371500Y-104766500D01*
%TO.N,Board_0-DIN*%
X167442500Y-81487500D02*
X169453000Y-83498000D01*
X169453000Y-89498000D02*
X170042500Y-90087500D01*
X169453000Y-83498000D02*
X169453000Y-89498000D01*
%TO.N,Board_0-DRQ*%
X155542500Y-86387500D02*
X156342500Y-85587500D01*
X153550242Y-86387500D02*
X155542500Y-86387500D01*
X128751500Y-102226500D02*
X129990500Y-100987500D01*
X133842500Y-86787500D02*
X135042500Y-85587500D01*
X129990500Y-100987500D02*
X132592500Y-100987500D01*
X132592500Y-100987500D02*
X133831500Y-102226500D01*
X135042500Y-85587500D02*
X152750242Y-85587500D01*
X152750242Y-85587500D02*
X153550242Y-86387500D01*
%TO.N,Board_0-DRQ1*%
X132562500Y-112987500D02*
X132562500Y-108577500D01*
X132562500Y-108577500D02*
X128751500Y-104766500D01*
%TO.N,Board_0-DRQ3*%
X137642500Y-112987500D02*
X137642500Y-108577500D01*
X137642500Y-108577500D02*
X133831500Y-104766500D01*
D26*
%TO.N,Board_0-GND*%
X100430500Y-108570003D02*
X100430500Y-107941500D01*
D29*
X152742500Y-109339300D02*
X151881500Y-108478300D01*
D26*
X98652500Y-108576500D02*
X98652500Y-107941500D01*
X99363500Y-109287500D02*
X99713003Y-109287500D01*
D29*
X175742500Y-112987500D02*
X175742500Y-109487500D01*
D25*
X99542500Y-112687500D02*
X99542500Y-109587500D01*
D26*
X98652500Y-108576500D02*
X99363500Y-109287500D01*
D29*
X174742500Y-108487500D02*
X174742500Y-106387500D01*
X152881500Y-113778300D02*
X152881500Y-109478300D01*
X151881500Y-108478300D02*
X151881500Y-107087500D01*
D26*
X98652500Y-107941500D02*
X98652500Y-107306500D01*
D25*
X175042500Y-108787500D02*
X174742500Y-108487500D01*
D26*
X100430500Y-107941500D02*
X100430500Y-107306500D01*
X99713003Y-109287500D02*
X100430500Y-108570003D01*
D30*
X152882500Y-109479300D02*
X152742500Y-109339300D01*
X152882500Y-112987500D02*
X152882500Y-109479300D01*
D29*
X175742500Y-109487500D02*
X175042500Y-108787500D01*
X152881500Y-109478300D02*
X152742500Y-109339300D01*
D27*
%TO.N,Board_0-IRQ*%
X155042500Y-90087500D02*
X155042500Y-89987500D01*
X155032000Y-89977000D02*
X155042500Y-90087500D01*
X126142500Y-90087500D02*
X126253000Y-89977000D01*
X116051500Y-102226500D02*
X126211500Y-102226500D01*
X126253000Y-89977000D02*
X155032000Y-89977000D01*
%TO.N,Board_0-IRQ2*%
X164589000Y-106977000D02*
X153532000Y-106977000D01*
X117330500Y-103487500D02*
X116051500Y-104766500D01*
X137642500Y-103487500D02*
X117330500Y-103487500D01*
X140042500Y-105887500D02*
X137642500Y-103487500D01*
X153532000Y-106977000D02*
X152442500Y-105887500D01*
X168122500Y-110510500D02*
X164589000Y-106977000D01*
X152442500Y-105887500D02*
X140042500Y-105887500D01*
%TO.N,Board_0-IRQ3*%
X114782500Y-108575500D02*
X118591500Y-104766500D01*
X114782500Y-112987500D02*
X114782500Y-108575500D01*
%TO.N,Board_0-IRQ4*%
X117322500Y-108575500D02*
X121131500Y-104766500D01*
X117322500Y-112987500D02*
X117322500Y-108575500D01*
%TO.N,Board_0-IRQ5*%
X119862500Y-108575500D02*
X123671500Y-104766500D01*
X119862500Y-112987500D02*
X119862500Y-108575500D01*
%TO.N,Board_0-IRQ7*%
X124942500Y-106035500D02*
X126211500Y-104766500D01*
X124942500Y-112987500D02*
X124942500Y-106035500D01*
%TO.N,Board_0-I{slash}OCHRDY*%
X168901660Y-99487500D02*
X170001660Y-98387500D01*
X152942500Y-105187500D02*
X158642500Y-99487500D01*
X158642500Y-99487500D02*
X168901660Y-99487500D01*
X170001660Y-98387500D02*
X172342500Y-98387500D01*
%TO.N,Board_0-LRCK*%
X168542500Y-91287500D02*
X169442500Y-92187500D01*
X168542500Y-84487500D02*
X168542500Y-91287500D01*
X167792500Y-83737500D02*
X168542500Y-84487500D01*
%TO.N,Board_0-Net-(R2-Pad1)*%
X178342500Y-90287500D02*
X178342500Y-94687500D01*
X185442500Y-65087500D02*
X185442500Y-78487500D01*
X179542500Y-89087500D02*
X178342500Y-90287500D01*
X181942500Y-81987500D02*
X181942500Y-84287500D01*
X179542500Y-86687500D02*
X179542500Y-89087500D01*
X181942500Y-84287500D02*
X179542500Y-86687500D01*
X185442500Y-78487500D02*
X181942500Y-81987500D01*
X178342500Y-94687500D02*
X174642500Y-98387500D01*
%TO.N,Board_0-Net-(U13-1ch_OUT)*%
X167542500Y-41187500D02*
X167342500Y-40987500D01*
X167342500Y-40987500D02*
X167342500Y-37087500D01*
X164442500Y-34187500D02*
X164442500Y-33987500D01*
X167342500Y-37087500D02*
X164442500Y-34187500D01*
%TO.N,Board_0-Net-(U3-Pad2)*%
X145342500Y-71287500D02*
X140542500Y-71287500D01*
X140542500Y-80087500D02*
X145642500Y-80087500D01*
X145642500Y-80087500D02*
X145842500Y-79887500D01*
%TO.N,Board_0-Net-(U3-Pad4)*%
X146250242Y-71387500D02*
X144450242Y-69587500D01*
X144450242Y-69587500D02*
X144342500Y-69587500D01*
X146942500Y-71387500D02*
X146250242Y-71387500D01*
%TO.N,Board_0-Net-(U3-Pad8)*%
X142042500Y-90487500D02*
X144442500Y-90487500D01*
%TO.N,Board_0-Net-(U4-Pad11)*%
X145442500Y-73087500D02*
X144942500Y-72587500D01*
X159842500Y-73287500D02*
X159642500Y-73087500D01*
X159642500Y-73087500D02*
X145442500Y-73087500D01*
%TO.N,Board_0-RA8*%
X160971371Y-87287500D02*
X163042500Y-87287500D01*
X153942500Y-87787500D02*
X160471371Y-87787500D01*
X165803000Y-86448000D02*
X166042500Y-86687500D01*
X163042500Y-87287500D02*
X163882000Y-86448000D01*
X163882000Y-86448000D02*
X165803000Y-86448000D01*
X160471371Y-87787500D02*
X160971371Y-87287500D01*
%TO.N,Board_0-RA9*%
X152442500Y-89487500D02*
X160142500Y-89487500D01*
X161042500Y-88587500D02*
X164142500Y-88587500D01*
X164142500Y-88587500D02*
X165442500Y-87287500D01*
X160142500Y-89487500D02*
X161042500Y-88587500D01*
%TO.N,Board_0-RDRQ*%
X155842500Y-93987500D02*
X155642500Y-93787500D01*
X172542500Y-93987500D02*
X155842500Y-93987500D01*
X172642500Y-94087500D02*
X172542500Y-93987500D01*
%TO.N,Board_0-RESET*%
X146953000Y-81077000D02*
X145332000Y-81077000D01*
X147761500Y-95587500D02*
X147542500Y-95368500D01*
X154742500Y-95587500D02*
X147761500Y-95587500D01*
X145332000Y-81077000D02*
X144942500Y-80687500D01*
X173202500Y-105487500D02*
X173202500Y-112987500D01*
X138917500Y-80687500D02*
X144942500Y-80687500D01*
X147342500Y-80687500D02*
X146953000Y-81077000D01*
%TO.N,Board_0-RIRQ*%
X170542500Y-94487500D02*
X170442500Y-94387500D01*
X170442500Y-94387500D02*
X154442500Y-94387500D01*
%TO.N,Board_0-RTC*%
X170542500Y-93587500D02*
X156542500Y-93587500D01*
X170642500Y-93487500D02*
X170542500Y-93587500D01*
X156542500Y-93587500D02*
X156442500Y-93487500D01*
%TO.N,Board_0-RUN*%
X165942500Y-92487500D02*
X142442500Y-92487500D01*
%TO.N,Board_0-RV_CLK*%
X174953000Y-79777000D02*
X174953000Y-84990258D01*
X175742500Y-85779758D02*
X175742500Y-91087500D01*
X173542500Y-93287500D02*
X173042500Y-93287500D01*
X174953000Y-84990258D02*
X175742500Y-85779758D01*
X175742500Y-91087500D02*
X173542500Y-93287500D01*
X175432000Y-50077000D02*
X175432000Y-79298000D01*
X175432000Y-79298000D02*
X174953000Y-79777000D01*
X161842500Y-36487500D02*
X175432000Y-50077000D01*
%TO.N,Board_0-RV_DATA*%
X161792500Y-34037500D02*
X161353000Y-34477000D01*
X173753000Y-50398000D02*
X173753000Y-85798000D01*
X175142500Y-87187500D02*
X175142500Y-91087500D01*
X161353000Y-37998000D02*
X173753000Y-50398000D01*
X175142500Y-91087500D02*
X174153000Y-92077000D01*
X161353000Y-34477000D02*
X161353000Y-37998000D01*
X173532000Y-92077000D02*
X173042500Y-91587500D01*
X173753000Y-85798000D02*
X175142500Y-87187500D01*
X174153000Y-92077000D02*
X173532000Y-92077000D01*
%TO.N,Board_0-TC*%
X109702500Y-110327500D02*
X111142500Y-108887500D01*
X111342500Y-88887500D02*
X156542500Y-88887500D01*
X111142500Y-88687500D02*
X111342500Y-88887500D01*
%TO.N,Board_0-UART_TX*%
X174142500Y-94333500D02*
X174142500Y-93387500D01*
X171788500Y-96687500D02*
X174142500Y-94333500D01*
X165442500Y-98312500D02*
X165442500Y-96687500D01*
X133242500Y-72387500D02*
X144242500Y-72387500D01*
X145442500Y-72087500D02*
X145942500Y-72587500D01*
X134442500Y-96687500D02*
X165442500Y-96687500D01*
X144542500Y-72087500D02*
X145442500Y-72087500D01*
X133242500Y-95487500D02*
X134442500Y-96687500D01*
X165442500Y-96687500D02*
X171788500Y-96687500D01*
X144242500Y-72387500D02*
X144542500Y-72087500D01*
%TO.N,Board_0-WTAUDIO_L*%
X109552500Y-26187500D02*
X137342500Y-26187500D01*
X152592500Y-28537500D02*
X155542500Y-31487500D01*
X137342500Y-26187500D02*
X139692500Y-28537500D01*
X139692500Y-28537500D02*
X152592500Y-28537500D01*
X108252500Y-27487500D02*
X109552500Y-26187500D01*
%TO.N,Board_0-WTAUDIO_R*%
X155537500Y-32582500D02*
X152342500Y-29387500D01*
X115232500Y-29387500D02*
X113332500Y-27487500D01*
X155537500Y-36587500D02*
X155537500Y-32582500D01*
X152342500Y-29387500D02*
X115232500Y-29387500D01*
%TO.N,Board_0-~{BUSOE}*%
X146532000Y-88277000D02*
X157632000Y-88277000D01*
X146242500Y-87987500D02*
X143642500Y-87987500D01*
X146242500Y-87987500D02*
X146532000Y-88277000D01*
%TO.N,Board_0-~{IOR}*%
X142722500Y-112987500D02*
X142722500Y-109607500D01*
X146842500Y-79287500D02*
X139142500Y-79287500D01*
X142722500Y-109607500D02*
X144042500Y-108287500D01*
%TO.N,Board_0-~{IOW}*%
X145442500Y-78587500D02*
X145542500Y-78587500D01*
X145242500Y-78787500D02*
X145442500Y-78587500D01*
X145262500Y-112987500D02*
X145262500Y-109667500D01*
X139742500Y-78687500D02*
X139842500Y-78787500D01*
X145262500Y-109667500D02*
X146642500Y-108287500D01*
X139842500Y-78787500D02*
X145242500Y-78787500D01*
%TO.N,Board_0-~{RDACK}*%
X156734758Y-93087500D02*
X156634758Y-92987500D01*
X156634758Y-92987500D02*
X141542500Y-92987500D01*
X169542500Y-93087500D02*
X156734758Y-93087500D01*
%TO.N,Board_0-~{RIOR}*%
X170842500Y-70387500D02*
X145942500Y-70387500D01*
X145942500Y-70387500D02*
X145642500Y-70087500D01*
%TO.N,Board_0-~{RIOW}*%
X143653000Y-65998000D02*
X143642500Y-65987500D01*
X170753000Y-65998000D02*
X143653000Y-65998000D01*
X171242500Y-66487500D02*
X170753000Y-65998000D01*
%TO.N,Board_0-~{SPI_CS}*%
X174342500Y-78687500D02*
X174342500Y-82787500D01*
X174342500Y-82787500D02*
X174242500Y-82887500D01*
X174942500Y-78087500D02*
X174342500Y-78687500D01*
%TO.N,Board_0-~{WT_RESET}*%
X144942500Y-91287500D02*
X144742500Y-91087500D01*
X105712500Y-88957500D02*
X105712500Y-27487500D01*
X107842500Y-91087500D02*
X105712500Y-88957500D01*
X144742500Y-91087500D02*
X107842500Y-91087500D01*
%TD*%
M02*
