M48
; DRILL file {KiCad 7.0.7} date 2023 October 23, Monday 19:44:42
; FORMAT={-:-/ absolute / metric / decimal}
; #@! TF.CreationDate,2023-10-23T19:44:42-06:00
; #@! TF.GenerationSoftware,Kicad,Pcbnew,7.0.7
; #@! TF.FileFunction,Plated,1,4,PTH
FMAT,2
METRIC
; #@! TA.AperFunction,Plated,PTH,ViaDrill
T1C0.300
; #@! TA.AperFunction,Plated,PTH,ComponentDrill
T2C0.300
; #@! TA.AperFunction,Plated,PTH,ComponentDrill
T3C0.900
; #@! TA.AperFunction,Plated,PTH,ComponentDrill
T4C1.000
; #@! TA.AperFunction,Plated,PTH,ComponentDrill
T5C2.100
; #@! TA.AperFunction,Plated,PTH,ComponentDrill
T6C3.200
%
G90
G05
T1
X98.652Y-107.306
X98.652Y-107.941
X98.652Y-108.576
X100.43Y-107.306
X100.43Y-107.941
X100.43Y-108.57
X103.733Y-107.306
X103.733Y-107.941
X103.733Y-108.587
X105.51Y-107.306
X105.51Y-107.941
X105.51Y-108.57
X111.142Y-88.688
X111.142Y-108.887
X117.317Y-34.012
X117.742Y-34.487
X122.442Y-66.587
X122.442Y-68.987
X122.442Y-72.188
X122.442Y-74.888
X122.442Y-75.888
X122.442Y-78.188
X122.442Y-81.587
X122.442Y-84.087
X122.442Y-85.287
X122.442Y-87.487
X126.142Y-90.087
X133.243Y-72.388
X133.243Y-95.487
X133.843Y-86.787
X136.442Y-75.388
X138.343Y-82.188
X138.917Y-80.688
X139.142Y-79.287
X139.343Y-106.787
X139.743Y-78.688
X140.542Y-71.287
X140.542Y-80.087
X141.542Y-92.987
X142.042Y-90.487
X142.442Y-92.487
X142.642Y-67.388
X142.642Y-68.188
X142.642Y-76.688
X142.642Y-77.487
X142.642Y-86.087
X142.642Y-86.888
X143.642Y-65.987
X143.642Y-87.987
X144.042Y-108.287
X144.292Y-75.388
X144.343Y-69.587
X144.442Y-90.487
X144.942Y-72.587
X144.942Y-80.688
X144.942Y-91.287
X145.243Y-75.388
X145.343Y-71.287
X145.343Y-93.987
X145.542Y-78.587
X145.542Y-84.287
X145.642Y-70.087
X145.843Y-79.888
X145.843Y-94.487
X145.942Y-72.587
X146.243Y-80.587
X146.243Y-87.987
X146.642Y-108.287
X146.843Y-72.587
X146.843Y-79.287
X146.843Y-93.487
X146.892Y-74.537
X146.942Y-71.388
X146.942Y-81.888
X146.942Y-91.388
X147.042Y-83.787
X147.343Y-80.688
X147.542Y-95.368
X148.642Y-31.188
X150.743Y-41.587
X151.442Y-40.688
X151.442Y-42.487
X151.582Y-106.978
X151.582Y-107.578
X151.582Y-108.178
X151.743Y-90.487
X151.743Y-91.287
X151.792Y-83.537
X151.843Y-68.487
X152.181Y-106.978
X152.181Y-107.578
X152.181Y-108.178
X152.343Y-67.388
X152.442Y-89.487
X152.542Y-73.688
X152.642Y-68.388
X152.692Y-76.737
X152.692Y-77.537
X152.942Y-87.787
X152.942Y-105.188
X153.042Y-85.188
X153.343Y-45.288
X153.343Y-47.487
X153.542Y-40.688
X153.542Y-42.487
X153.743Y-78.587
X153.942Y-87.787
X154.194Y-85.039
X154.243Y-41.587
X154.243Y-44.587
X154.243Y-48.188
X154.243Y-84.188
X154.243Y-74.886
X154.392Y-107.737
X154.442Y-94.387
X154.743Y-95.587
X154.786Y-68.987
X154.892Y-108.237
X155.042Y-78.287
X155.042Y-84.987
X155.042Y-90.087
X155.142Y-45.288
X155.142Y-47.487
X155.167Y-74.888
X155.537Y-36.587
X155.542Y-31.487
X155.548Y-84.287
X155.642Y-93.787
X155.802Y-68.987
X155.929Y-78.287
X156.042Y-47.087
X156.067Y-43.688
X156.243Y-72.188
X156.343Y-81.587
X156.343Y-85.587
X156.442Y-93.487
X156.542Y-88.888
X156.942Y-66.487
X156.942Y-75.888
X157.067Y-42.887
X157.142Y-94.887
X157.642Y-80.087
X157.642Y-88.287
X157.642Y-91.287
X157.743Y-72.388
X157.942Y-45.887
X158.042Y-40.887
X158.042Y-77.087
X158.142Y-91.888
X158.387Y-43.082
X158.642Y-81.888
X158.642Y-83.888
X158.968Y-43.262
X159.042Y-45.887
X159.042Y-74.388
X159.067Y-49.362
X159.142Y-72.587
X159.142Y-82.388
X159.142Y-83.388
X159.567Y-42.663
X159.843Y-73.287
X160.042Y-45.595
X160.042Y-107.987
X160.502Y-108.487
X160.542Y-76.987
X160.832Y-39.553
X161.343Y-88.037
X161.343Y-89.237
X161.433Y-40.053
X161.743Y-90.388
X161.792Y-34.038
X161.843Y-36.487
X161.843Y-51.987
X161.968Y-49.362
X162.343Y-52.487
X162.868Y-41.962
X163.137Y-31.542
X163.137Y-33.977
X163.137Y-36.524
X163.137Y-39.024
X163.292Y-45.762
X163.382Y-43.738
X163.642Y-95.087
X163.968Y-49.362
X164.142Y-51.487
X164.242Y-84.638
X164.442Y-33.987
X164.468Y-52.862
X164.542Y-85.737
X164.542Y-86.938
X165.067Y-50.862
X165.167Y-44.262
X165.167Y-51.462
X165.327Y-79.748
X165.442Y-87.287
X165.468Y-52.862
X165.642Y-90.287
X165.742Y-85.888
X165.767Y-43.762
X165.767Y-45.762
X165.942Y-92.487
X166.042Y-86.688
X166.242Y-78.888
X166.242Y-89.688
X166.267Y-45.242
X166.542Y-91.388
X166.843Y-31.287
X166.843Y-32.288
X166.942Y-82.188
X167.242Y-91.787
X167.442Y-81.487
X167.542Y-41.188
X167.791Y-94.987
X167.792Y-83.737
X167.942Y-90.287
X168.042Y-85.888
X168.042Y-89.188
X168.242Y-78.287
X168.343Y-31.287
X168.343Y-32.288
X168.742Y-73.888
X169.343Y-74.888
X169.442Y-92.188
X169.542Y-93.087
X169.742Y-31.287
X169.742Y-32.288
X169.742Y-107.587
X169.742Y-108.188
X169.742Y-108.787
X169.756Y-102.322
X169.756Y-102.922
X169.756Y-103.623
X169.843Y-67.888
X170.042Y-88.888
X170.042Y-90.087
X170.343Y-68.987
X170.343Y-91.431
X170.407Y-82.888
X170.542Y-94.487
X170.642Y-93.487
X170.843Y-70.388
X171.142Y-84.087
X171.242Y-31.287
X171.242Y-32.288
X171.242Y-66.487
X171.343Y-91.587
X171.343Y-94.887
X171.407Y-102.322
X171.407Y-102.922
X171.407Y-103.623
X171.542Y-107.587
X171.542Y-108.188
X171.542Y-108.787
X171.642Y-86.388
X171.792Y-93.438
X172.142Y-91.558
X172.142Y-99.688
X172.343Y-94.887
X172.343Y-98.387
X172.438Y-77.287
X172.442Y-74.688
X172.642Y-94.087
X172.677Y-102.322
X172.677Y-102.922
X172.677Y-103.623
X173.042Y-91.587
X173.042Y-93.287
X173.202Y-105.487
X173.442Y-97.087
X173.542Y-95.887
X173.542Y-99.087
X173.942Y-91.587
X174.142Y-93.388
X174.142Y-99.688
X174.242Y-82.888
X174.442Y-106.387
X174.442Y-106.987
X174.442Y-107.587
X174.442Y-108.188
X174.456Y-102.322
X174.456Y-102.922
X174.456Y-103.623
X174.642Y-98.387
X174.942Y-78.087
X175.042Y-86.388
X175.042Y-106.387
X175.042Y-106.987
X175.042Y-107.587
X175.042Y-108.188
X175.242Y-95.287
X175.361Y-93.209
X175.442Y-82.487
X175.442Y-84.787
X175.742Y-92.087
X176.242Y-92.487
X176.242Y-93.188
X176.242Y-95.287
X176.542Y-82.188
X176.642Y-79.888
X176.642Y-84.487
X176.642Y-85.888
X176.903Y-92.328
X177.142Y-74.388
X177.142Y-89.407
X177.442Y-76.462
X177.742Y-99.787
X178.442Y-89.188
X178.542Y-77.888
X178.642Y-74.388
X179.042Y-91.987
X179.042Y-92.987
X179.142Y-76.787
X179.542Y-95.787
X179.542Y-96.487
X179.542Y-97.188
X179.742Y-79.388
X179.843Y-89.987
X179.843Y-90.888
X180.142Y-95.787
X180.142Y-96.487
X180.142Y-97.188
X180.542Y-87.888
X180.542Y-88.888
X180.843Y-99.688
X181.542Y-86.787
X181.642Y-79.388
X182.042Y-87.287
X182.343Y-98.987
X182.553Y-92.87
X182.553Y-93.505
X182.934Y-92.235
X182.934Y-94.14
X182.942Y-79.987
X182.942Y-83.987
X182.942Y-86.188
X183.315Y-92.87
X183.315Y-93.505
X185.442Y-65.087
X185.567Y-79.412
X186.409Y-91.431
X187.012Y-61.517
X187.017Y-79.412
X187.242Y-78.087
X187.942Y-75.659
X187.942Y-76.287
X187.942Y-76.888
X187.942Y-78.087
X188.06Y-80.388
X188.06Y-80.987
X188.06Y-81.587
X189.142Y-101.337
X189.142Y-102.037
X190.542Y-78.087
X190.542Y-79.087
X190.573Y-80.388
X190.573Y-80.987
X190.573Y-81.587
X190.642Y-75.659
X190.642Y-76.287
X190.642Y-76.888
X190.942Y-101.337
X190.942Y-102.037
X192.142Y-72.959
X192.142Y-73.587
X192.142Y-74.188
X194.029Y-72.959
X194.029Y-73.587
X194.029Y-74.188
X195.042Y-76.287
X195.042Y-80.888
X195.642Y-76.287
X195.642Y-80.888
X196.242Y-76.287
X196.242Y-80.888
T2
X171.255Y-87.638
X171.255Y-90.337
X171.259Y-88.987
X172.605Y-87.641
X172.605Y-88.987
X172.605Y-90.334
X173.951Y-88.987
X173.955Y-87.638
X173.955Y-90.337
T3
X189.155Y-88.472
X189.155Y-90.972
X189.155Y-92.972
X189.155Y-95.472
T4
X105.712Y-24.947
X105.712Y-27.487
X108.252Y-24.947
X108.252Y-27.487
X110.792Y-24.947
X110.792Y-27.487
X113.332Y-24.947
X113.332Y-27.487
X115.872Y-24.947
X115.872Y-27.487
X116.051Y-102.227
X116.051Y-104.766
X118.412Y-24.947
X118.412Y-27.487
X118.591Y-102.227
X118.591Y-104.766
X120.953Y-24.947
X120.953Y-27.487
X121.131Y-102.227
X121.131Y-104.766
X123.492Y-24.947
X123.492Y-27.487
X123.671Y-102.227
X123.671Y-104.766
X126.032Y-24.947
X126.032Y-27.487
X126.212Y-102.227
X126.212Y-104.766
X128.572Y-24.947
X128.572Y-27.487
X128.751Y-102.227
X128.751Y-104.766
X131.112Y-24.947
X131.112Y-27.487
X131.291Y-102.227
X131.291Y-104.766
X133.653Y-24.947
X133.653Y-27.487
X133.832Y-102.227
X133.832Y-104.766
X136.192Y-24.947
X136.192Y-27.487
X136.371Y-102.227
X136.371Y-104.766
X161.743Y-98.312
X161.743Y-100.852
X165.442Y-98.312
X165.442Y-100.852
T5
X191.865Y-84.972
X191.865Y-98.972
T6
X196.201Y-48.18
X196.201Y-104.695
T3
X183.197Y-106.756G85X183.197Y-107.256
G05
X188.857Y-106.756G85X188.857Y-107.256
G05
T4
X187.042Y-39.127G85X187.042Y-40.127
G05
X187.042Y-55.977G85X187.042Y-56.977
G05
X190.742Y-41.127G85X190.742Y-42.127
G05
X190.742Y-57.977G85X190.742Y-58.977
G05
X192.542Y-39.127G85X192.542Y-40.127
G05
X192.542Y-55.977G85X192.542Y-56.977
G05
X196.242Y-41.127G85X196.242Y-42.127
G05
X196.242Y-57.977G85X196.242Y-58.977
G05
X198.642Y-39.127G85X198.642Y-40.127
G05
X198.642Y-55.977G85X198.642Y-56.977
G05
T0
M30
