%TF.GenerationSoftware,KiCad,Pcbnew,7.0.7*%
%TF.CreationDate,2023-10-23T19:43:48-06:00*%
%TF.ProjectId,PicoGUS chipdown with edge rails,5069636f-4755-4532-9063-686970646f77,rev?*%
%TF.SameCoordinates,Original*%
%TF.FileFunction,Paste,Top*%
%TF.FilePolarity,Positive*%
%FSLAX46Y46*%
G04 Gerber Fmt 4.6, Leading zero omitted, Abs format (unit mm)*
G04 Created by KiCad (PCBNEW 7.0.7) date 2023-10-23 19:43:48*
%MOMM*%
%LPD*%
G01*
G04 APERTURE LIST*
G04 Aperture macros list*
%AMRoundRect*
0 Rectangle with rounded corners*
0 $1 Rounding radius*
0 $2 $3 $4 $5 $6 $7 $8 $9 X,Y pos of 4 corners*
0 Add a 4 corners polygon primitive as box body*
4,1,4,$2,$3,$4,$5,$6,$7,$8,$9,$2,$3,0*
0 Add four circle primitives for the rounded corners*
1,1,$1+$1,$2,$3*
1,1,$1+$1,$4,$5*
1,1,$1+$1,$6,$7*
1,1,$1+$1,$8,$9*
0 Add four rect primitives between the rounded corners*
20,1,$1+$1,$2,$3,$4,$5,0*
20,1,$1+$1,$4,$5,$6,$7,0*
20,1,$1+$1,$6,$7,$8,$9,0*
20,1,$1+$1,$8,$9,$2,$3,0*%
%AMFreePoly0*
4,1,57,0.419797,0.616198,0.423647,0.616403,0.425426,0.615388,0.429904,0.614745,0.456147,0.597879,0.483254,0.582430,0.585569,0.476315,0.596845,0.460665,0.600348,0.457630,0.601252,0.454547,0.605829,0.448197,0.611489,0.419685,0.619677,0.391800,0.619677,-0.395600,0.616582,-0.417120,0.616895,-0.421482,0.615620,-0.423816,0.614745,-0.429904,0.598456,-0.455248,0.584014,-0.481699,
0.481699,-0.584014,0.464292,-0.597044,0.461430,-0.600348,0.458878,-0.601097,0.453955,-0.604783,0.424511,-0.611187,0.395600,-0.619677,-0.391800,-0.619677,-0.410892,-0.616932,-0.415509,-0.617347,-0.418356,-0.615858,-0.426104,-0.614745,-0.450553,-0.599032,-0.476315,-0.585569,-0.582430,-0.483254,-0.597432,-0.463956,-0.600348,-0.461430,-0.600925,-0.459463,-0.603701,-0.455893,-0.610885,-0.425540,
-0.619677,-0.395600,-0.619677,0.397045,-0.616582,0.418565,-0.616895,0.422927,-0.615620,0.425261,-0.614745,0.431349,-0.598456,0.456693,-0.584014,0.483144,-0.483144,0.584014,-0.465738,0.597042,-0.462875,0.600348,-0.460322,0.601097,-0.455399,0.604783,-0.425958,0.611187,-0.397045,0.619677,0.395600,0.619677,0.419797,0.616198,0.419797,0.616198,$1*%
G04 Aperture macros list end*
%ADD10C,0.243524*%
%ADD11RoundRect,0.225000X-0.225000X-0.250000X0.225000X-0.250000X0.225000X0.250000X-0.225000X0.250000X0*%
%ADD12RoundRect,0.140000X0.140000X0.170000X-0.140000X0.170000X-0.140000X-0.170000X0.140000X-0.170000X0*%
%ADD13RoundRect,0.140000X-0.140000X-0.170000X0.140000X-0.170000X0.140000X0.170000X-0.140000X0.170000X0*%
%ADD14RoundRect,0.140000X0.170000X-0.140000X0.170000X0.140000X-0.170000X0.140000X-0.170000X-0.140000X0*%
%ADD15RoundRect,0.150000X0.150000X0.625000X-0.150000X0.625000X-0.150000X-0.625000X0.150000X-0.625000X0*%
%ADD16RoundRect,0.250000X0.350000X0.650000X-0.350000X0.650000X-0.350000X-0.650000X0.350000X-0.650000X0*%
%ADD17R,1.400000X1.600000*%
%ADD18RoundRect,0.135000X-0.185000X0.135000X-0.185000X-0.135000X0.185000X-0.135000X0.185000X0.135000X0*%
%ADD19RoundRect,0.140000X-0.170000X0.140000X-0.170000X-0.140000X0.170000X-0.140000X0.170000X0.140000X0*%
%ADD20RoundRect,0.135000X0.135000X0.185000X-0.135000X0.185000X-0.135000X-0.185000X0.135000X-0.185000X0*%
%ADD21RoundRect,0.225000X0.250000X-0.225000X0.250000X0.225000X-0.250000X0.225000X-0.250000X-0.225000X0*%
%ADD22RoundRect,0.250000X0.475000X-0.250000X0.475000X0.250000X-0.475000X0.250000X-0.475000X-0.250000X0*%
%ADD23RoundRect,0.150000X0.587500X0.150000X-0.587500X0.150000X-0.587500X-0.150000X0.587500X-0.150000X0*%
%ADD24FreePoly0,270.000000*%
%ADD25RoundRect,0.050000X-0.050000X0.387500X-0.050000X-0.387500X0.050000X-0.387500X0.050000X0.387500X0*%
%ADD26RoundRect,0.050000X-0.387500X0.050000X-0.387500X-0.050000X0.387500X-0.050000X0.387500X0.050000X0*%
%ADD27RoundRect,0.100000X-0.100000X0.637500X-0.100000X-0.637500X0.100000X-0.637500X0.100000X0.637500X0*%
%ADD28RoundRect,0.250000X0.325000X0.650000X-0.325000X0.650000X-0.325000X-0.650000X0.325000X-0.650000X0*%
%ADD29RoundRect,0.135000X-0.135000X-0.185000X0.135000X-0.185000X0.135000X0.185000X-0.135000X0.185000X0*%
%ADD30RoundRect,0.218750X-0.218750X-0.381250X0.218750X-0.381250X0.218750X0.381250X-0.218750X0.381250X0*%
%ADD31RoundRect,0.135000X0.185000X-0.135000X0.185000X0.135000X-0.185000X0.135000X-0.185000X-0.135000X0*%
%ADD32RoundRect,0.250000X-0.250000X0.250000X-0.250000X-0.250000X0.250000X-0.250000X0.250000X0.250000X0*%
%ADD33RoundRect,0.250000X-1.050000X-0.550000X1.050000X-0.550000X1.050000X0.550000X-1.050000X0.550000X0*%
%ADD34R,2.000000X1.500000*%
%ADD35R,2.000000X3.800000*%
%ADD36RoundRect,0.250000X-0.375000X-0.625000X0.375000X-0.625000X0.375000X0.625000X-0.375000X0.625000X0*%
%ADD37RoundRect,0.218750X0.381250X-0.218750X0.381250X0.218750X-0.381250X0.218750X-0.381250X-0.218750X0*%
%ADD38RoundRect,0.225000X0.225000X0.250000X-0.225000X0.250000X-0.225000X-0.250000X0.225000X-0.250000X0*%
%ADD39RoundRect,0.150000X-0.150000X0.650000X-0.150000X-0.650000X0.150000X-0.650000X0.150000X0.650000X0*%
%ADD40RoundRect,0.150000X-0.150000X0.825000X-0.150000X-0.825000X0.150000X-0.825000X0.150000X0.825000X0*%
%ADD41R,0.400000X0.650000*%
%ADD42R,0.400000X2.000000*%
%ADD43R,1.660800X1.600000*%
%ADD44O,1.500000X2.000000*%
%ADD45R,1.660800X1.593200*%
%ADD46RoundRect,0.218750X-0.218750X-0.256250X0.218750X-0.256250X0.218750X0.256250X-0.218750X0.256250X0*%
%ADD47RoundRect,0.250000X-0.262500X-0.450000X0.262500X-0.450000X0.262500X0.450000X-0.262500X0.450000X0*%
%ADD48R,1.200000X1.400000*%
%ADD49RoundRect,0.250000X0.262500X0.450000X-0.262500X0.450000X-0.262500X-0.450000X0.262500X-0.450000X0*%
%ADD50RoundRect,0.250000X-0.325000X-0.650000X0.325000X-0.650000X0.325000X0.650000X-0.325000X0.650000X0*%
G04 APERTURE END LIST*
%TO.C,U12*%
D10*
X172431715Y-87914740D02*
X172431715Y-88707385D01*
X172325600Y-88809700D01*
X171538200Y-88809700D01*
X171435885Y-88707385D01*
X171435885Y-87919985D01*
X171538200Y-87813870D01*
X172330845Y-87813870D01*
X172431715Y-87914740D01*
G36*
X172431715Y-87914740D02*
G01*
X172431715Y-88707385D01*
X172325600Y-88809700D01*
X171538200Y-88809700D01*
X171435885Y-88707385D01*
X171435885Y-87919985D01*
X171538200Y-87813870D01*
X172330845Y-87813870D01*
X172431715Y-87914740D01*
G37*
X173777915Y-89260940D02*
X173777915Y-90053585D01*
X173671800Y-90155900D01*
X172884400Y-90155900D01*
X172782085Y-90053585D01*
X172782085Y-89266185D01*
X172884400Y-89160070D01*
X173677045Y-89160070D01*
X173777915Y-89260940D01*
G36*
X173777915Y-89260940D02*
G01*
X173777915Y-90053585D01*
X173671800Y-90155900D01*
X172884400Y-90155900D01*
X172782085Y-90053585D01*
X172782085Y-89266185D01*
X172884400Y-89160070D01*
X173677045Y-89160070D01*
X173777915Y-89260940D01*
G37*
X172431715Y-89260940D02*
X172431715Y-90053585D01*
X172325600Y-90155900D01*
X171538200Y-90155900D01*
X171435885Y-90053585D01*
X171435885Y-89266185D01*
X171538200Y-89160070D01*
X172330845Y-89160070D01*
X172431715Y-89260940D01*
G36*
X172431715Y-89260940D02*
G01*
X172431715Y-90053585D01*
X172325600Y-90155900D01*
X171538200Y-90155900D01*
X171435885Y-90053585D01*
X171435885Y-89266185D01*
X171538200Y-89160070D01*
X172330845Y-89160070D01*
X172431715Y-89260940D01*
G37*
%TO.C,J6*%
G36*
X183545700Y-105256500D02*
G01*
X181877500Y-105256500D01*
X181877500Y-103656500D01*
X183545700Y-103656500D01*
X183545700Y-105256500D01*
G37*
G36*
X184927500Y-105356500D02*
G01*
X184527500Y-105356500D01*
X184527500Y-103356500D01*
X184927500Y-103356500D01*
X184927500Y-105356500D01*
G37*
G36*
X185577500Y-105356500D02*
G01*
X185177500Y-105356500D01*
X185177500Y-103356500D01*
X185577500Y-103356500D01*
X185577500Y-105356500D01*
G37*
G36*
X186227500Y-105356500D02*
G01*
X185827500Y-105356500D01*
X185827500Y-103356500D01*
X186227500Y-103356500D01*
X186227500Y-105356500D01*
G37*
G36*
X186877500Y-105356500D02*
G01*
X186477500Y-105356500D01*
X186477500Y-103356500D01*
X186877500Y-103356500D01*
X186877500Y-105356500D01*
G37*
G36*
X187527500Y-105356500D02*
G01*
X187127500Y-105356500D01*
X187127500Y-103356500D01*
X187527500Y-103356500D01*
X187527500Y-105356500D01*
G37*
G36*
X190177500Y-105256500D02*
G01*
X188509300Y-105256500D01*
X188509300Y-103656500D01*
X190177500Y-103656500D01*
X190177500Y-105256500D01*
G37*
%TD*%
D11*
%TO.C,C21*%
X163667500Y-41587500D03*
X165217500Y-41587500D03*
%TD*%
D12*
%TO.C,R15*%
X178822500Y-89987500D03*
X177862500Y-89987500D03*
%TD*%
D13*
%TO.C,C31*%
X177562500Y-92987500D03*
X178522500Y-92987500D03*
%TD*%
D12*
%TO.C,C20*%
X163322500Y-51962500D03*
X162362500Y-51962500D03*
%TD*%
D14*
%TO.C,C14*%
X164967500Y-52842500D03*
X164967500Y-51882500D03*
%TD*%
D15*
%TO.C,J2*%
X164642500Y-92462500D03*
X163642500Y-92462500D03*
X162642500Y-92462500D03*
D16*
X165942500Y-94987500D03*
X161342500Y-94987500D03*
%TD*%
D17*
%TO.C,SW1*%
X179742500Y-99687500D03*
X179742500Y-106887500D03*
X176742500Y-99687500D03*
X176742500Y-106887500D03*
%TD*%
D13*
%TO.C,C29*%
X179062500Y-87887500D03*
X180022500Y-87887500D03*
%TD*%
D11*
%TO.C,C24*%
X161967500Y-84637500D03*
X163517500Y-84637500D03*
%TD*%
D12*
%TO.C,C8*%
X146822500Y-93987500D03*
X145862500Y-93987500D03*
%TD*%
D13*
%TO.C,C16*%
X158387500Y-42162500D03*
X159347500Y-42162500D03*
%TD*%
D18*
%TO.C,R1*%
X138342500Y-80677500D03*
X138342500Y-81697500D03*
%TD*%
D19*
%TO.C,C5*%
X176542500Y-82707500D03*
X176542500Y-83667500D03*
%TD*%
D20*
%TO.C,R8*%
X182652500Y-37587500D03*
X181632500Y-37587500D03*
%TD*%
D21*
%TO.C,C10*%
X177942500Y-75962500D03*
X177942500Y-74412500D03*
%TD*%
D22*
%TO.C,C12*%
X186242500Y-81137500D03*
X186242500Y-79237500D03*
%TD*%
D23*
%TO.C,Q1*%
X181780000Y-96137500D03*
X181780000Y-94237500D03*
X179905000Y-95187500D03*
%TD*%
D14*
%TO.C,C32*%
X175542500Y-84167500D03*
X175542500Y-83207500D03*
%TD*%
D19*
%TO.C,C9*%
X158642500Y-82407500D03*
X158642500Y-83367500D03*
%TD*%
D24*
%TO.C,U12*%
X173280000Y-88312500D03*
D25*
X175205000Y-85550000D03*
X174805000Y-85550000D03*
X174405000Y-85550000D03*
X174005000Y-85550000D03*
X173605000Y-85550000D03*
X173205000Y-85550000D03*
X172805000Y-85550000D03*
X172405000Y-85550000D03*
X172005000Y-85550000D03*
X171605000Y-85550000D03*
X171205000Y-85550000D03*
X170805000Y-85550000D03*
X170405000Y-85550000D03*
X170005000Y-85550000D03*
D26*
X169167500Y-86387500D03*
X169167500Y-86787500D03*
X169167500Y-87187500D03*
X169167500Y-87587500D03*
X169167500Y-87987500D03*
X169167500Y-88387500D03*
X169167500Y-88787500D03*
X169167500Y-89187500D03*
X169167500Y-89587500D03*
X169167500Y-89987500D03*
X169167500Y-90387500D03*
X169167500Y-90787500D03*
X169167500Y-91187500D03*
X169167500Y-91587500D03*
D25*
X170005000Y-92425000D03*
X170405000Y-92425000D03*
X170805000Y-92425000D03*
X171205000Y-92425000D03*
X171605000Y-92425000D03*
X172005000Y-92425000D03*
X172405000Y-92425000D03*
X172805000Y-92425000D03*
X173205000Y-92425000D03*
X173605000Y-92425000D03*
X174005000Y-92425000D03*
X174405000Y-92425000D03*
X174805000Y-92425000D03*
X175205000Y-92425000D03*
D26*
X176042500Y-91587500D03*
X176042500Y-91187500D03*
X176042500Y-90787500D03*
X176042500Y-90387500D03*
X176042500Y-89987500D03*
X176042500Y-89587500D03*
X176042500Y-89187500D03*
X176042500Y-88787500D03*
X176042500Y-88387500D03*
X176042500Y-87987500D03*
X176042500Y-87587500D03*
X176042500Y-87187500D03*
X176042500Y-86787500D03*
X176042500Y-86387500D03*
%TD*%
D27*
%TO.C,U1*%
X157617500Y-67825000D03*
X156967500Y-67825000D03*
X156317500Y-67825000D03*
X155667500Y-67825000D03*
X155017500Y-67825000D03*
X154367500Y-67825000D03*
X153717500Y-67825000D03*
X153067500Y-67825000D03*
X153067500Y-73550000D03*
X153717500Y-73550000D03*
X154367500Y-73550000D03*
X155017500Y-73550000D03*
X155667500Y-73550000D03*
X156317500Y-73550000D03*
X156967500Y-73550000D03*
X157617500Y-73550000D03*
%TD*%
%TO.C,U7*%
X157642500Y-86562500D03*
X156992500Y-86562500D03*
X156342500Y-86562500D03*
X155692500Y-86562500D03*
X155042500Y-86562500D03*
X154392500Y-86562500D03*
X153742500Y-86562500D03*
X153092500Y-86562500D03*
X152442500Y-86562500D03*
X151792500Y-86562500D03*
X151792500Y-92287500D03*
X152442500Y-92287500D03*
X153092500Y-92287500D03*
X153742500Y-92287500D03*
X154392500Y-92287500D03*
X155042500Y-92287500D03*
X155692500Y-92287500D03*
X156342500Y-92287500D03*
X156992500Y-92287500D03*
X157642500Y-92287500D03*
%TD*%
D28*
%TO.C,C11*%
X196017500Y-73587500D03*
X193067500Y-73587500D03*
%TD*%
D12*
%TO.C,C4*%
X158122500Y-93787500D03*
X157162500Y-93787500D03*
%TD*%
D29*
%TO.C,R6*%
X181632500Y-36387500D03*
X182652500Y-36387500D03*
%TD*%
D30*
%TO.C,FB4*%
X151417500Y-41587500D03*
X153542500Y-41587500D03*
%TD*%
%TO.C,FB2*%
X190055000Y-62377500D03*
X192180000Y-62377500D03*
%TD*%
D29*
%TO.C,R7*%
X181632500Y-42687500D03*
X182652500Y-42687500D03*
%TD*%
D30*
%TO.C,FB1*%
X190055000Y-64277500D03*
X192180000Y-64277500D03*
%TD*%
D14*
%TO.C,C15*%
X165767500Y-45242500D03*
X165767500Y-44282500D03*
%TD*%
D19*
%TO.C,C36*%
X171842500Y-93907500D03*
X171842500Y-94867500D03*
%TD*%
D31*
%TO.C,R10*%
X161367500Y-43172500D03*
X161367500Y-42152500D03*
%TD*%
D32*
%TO.C,D2*%
X183942500Y-94537500D03*
X183942500Y-97037500D03*
%TD*%
D19*
%TO.C,C34*%
X176242500Y-93807500D03*
X176242500Y-94767500D03*
%TD*%
D33*
%TO.C,C41*%
X168942500Y-42087500D03*
X172542500Y-42087500D03*
%TD*%
%TO.C,C43*%
X175842500Y-42087500D03*
X179442500Y-42087500D03*
%TD*%
D34*
%TO.C,U9*%
X189292500Y-76287500D03*
X189292500Y-78587500D03*
D35*
X195592500Y-78587500D03*
D34*
X189292500Y-80887500D03*
%TD*%
D14*
%TO.C,C19*%
X162367500Y-43142500D03*
X162367500Y-42182500D03*
%TD*%
D20*
%TO.C,R9*%
X182652500Y-41587500D03*
X181632500Y-41587500D03*
%TD*%
D12*
%TO.C,C6*%
X146922500Y-84387500D03*
X145962500Y-84387500D03*
%TD*%
D19*
%TO.C,R14*%
X165242500Y-88407500D03*
X165242500Y-89367500D03*
%TD*%
D36*
%TO.C,F1*%
X187242500Y-101887500D03*
X190042500Y-101887500D03*
%TD*%
D12*
%TO.C,C18*%
X164347500Y-42862500D03*
X163387500Y-42862500D03*
%TD*%
D22*
%TO.C,C13*%
X186242500Y-77537500D03*
X186242500Y-75637500D03*
%TD*%
D29*
%TO.C,R13*%
X155059500Y-26584500D03*
X156079500Y-26584500D03*
%TD*%
D37*
%TO.C,FB3*%
X154242500Y-47450000D03*
X154242500Y-45325000D03*
%TD*%
D38*
%TO.C,C25*%
X164017500Y-90387500D03*
X162467500Y-90387500D03*
%TD*%
D39*
%TO.C,U11*%
X182947500Y-77887500D03*
X181677500Y-77887500D03*
X180407500Y-77887500D03*
X179137500Y-77887500D03*
X179137500Y-85087500D03*
X180407500Y-85087500D03*
X181677500Y-85087500D03*
X182947500Y-85087500D03*
%TD*%
D22*
%TO.C,C17*%
X157067500Y-45537500D03*
X157067500Y-43637500D03*
%TD*%
D12*
%TO.C,C7*%
X146822500Y-75087500D03*
X145862500Y-75087500D03*
%TD*%
D40*
%TO.C,U13*%
X165642500Y-32766610D03*
X164372500Y-32766610D03*
X163102500Y-32766610D03*
X161832500Y-32766610D03*
X161832500Y-37716610D03*
X163102500Y-37716610D03*
X164372500Y-37716610D03*
X165642500Y-37716610D03*
%TD*%
D27*
%TO.C,U3*%
X146892500Y-77125000D03*
X146242500Y-77125000D03*
X145592500Y-77125000D03*
X144942500Y-77125000D03*
X144292500Y-77125000D03*
X143642500Y-77125000D03*
X142992500Y-77125000D03*
X142992500Y-82850000D03*
X143642500Y-82850000D03*
X144292500Y-82850000D03*
X144942500Y-82850000D03*
X145592500Y-82850000D03*
X146242500Y-82850000D03*
X146892500Y-82850000D03*
%TD*%
%TO.C,U10*%
X164592500Y-44700000D03*
X163942500Y-44700000D03*
X163292500Y-44700000D03*
X162642500Y-44700000D03*
X161992500Y-44700000D03*
X161342500Y-44700000D03*
X160692500Y-44700000D03*
X160042500Y-44700000D03*
X159392500Y-44700000D03*
X158742500Y-44700000D03*
X158742500Y-50425000D03*
X159392500Y-50425000D03*
X160042500Y-50425000D03*
X160692500Y-50425000D03*
X161342500Y-50425000D03*
X161992500Y-50425000D03*
X162642500Y-50425000D03*
X163292500Y-50425000D03*
X163942500Y-50425000D03*
X164592500Y-50425000D03*
%TD*%
%TO.C,U4*%
X146892500Y-67825000D03*
X146242500Y-67825000D03*
X145592500Y-67825000D03*
X144942500Y-67825000D03*
X144292500Y-67825000D03*
X143642500Y-67825000D03*
X142992500Y-67825000D03*
X142992500Y-73550000D03*
X143642500Y-73550000D03*
X144292500Y-73550000D03*
X144942500Y-73550000D03*
X145592500Y-73550000D03*
X146242500Y-73550000D03*
X146892500Y-73550000D03*
%TD*%
D28*
%TO.C,C1*%
X173517500Y-102987500D03*
X170567500Y-102987500D03*
%TD*%
D12*
%TO.C,C2*%
X173622500Y-99687500D03*
X172662500Y-99687500D03*
%TD*%
D41*
%TO.C,U6*%
X174192500Y-96537500D03*
X173542500Y-96537500D03*
X172892500Y-96537500D03*
X172892500Y-98437500D03*
X173542500Y-98437500D03*
X174192500Y-98437500D03*
%TD*%
D27*
%TO.C,U5*%
X146892500Y-86587500D03*
X146242500Y-86587500D03*
X145592500Y-86587500D03*
X144942500Y-86587500D03*
X144292500Y-86587500D03*
X143642500Y-86587500D03*
X142992500Y-86587500D03*
X142992500Y-92312500D03*
X143642500Y-92312500D03*
X144292500Y-92312500D03*
X144942500Y-92312500D03*
X145592500Y-92312500D03*
X146242500Y-92312500D03*
X146892500Y-92312500D03*
%TD*%
D19*
%TO.C,C33*%
X175242500Y-93807500D03*
X175242500Y-94767500D03*
%TD*%
D13*
%TO.C,C28*%
X177562500Y-91987500D03*
X178522500Y-91987500D03*
%TD*%
D42*
%TO.C,J6*%
X184727500Y-104356500D03*
X185377500Y-104356500D03*
X186027500Y-104356500D03*
X186677500Y-104356500D03*
X187327500Y-104356500D03*
D43*
X182707900Y-104456500D03*
D44*
X183197500Y-107006500D03*
X188857500Y-107006500D03*
D45*
X189347100Y-104453100D03*
%TD*%
D46*
%TO.C,D1*%
X154655000Y-25187500D03*
X156230000Y-25187500D03*
%TD*%
D18*
%TO.C,R4*%
X167791300Y-91531100D03*
X167791300Y-92551100D03*
%TD*%
D47*
%TO.C,R2*%
X186205000Y-64277500D03*
X188030000Y-64277500D03*
%TD*%
D12*
%TO.C,R16*%
X178822500Y-90987500D03*
X177862500Y-90987500D03*
%TD*%
D40*
%TO.C,U8*%
X176247500Y-76012500D03*
X174977500Y-76012500D03*
X173707500Y-76012500D03*
X172437500Y-76012500D03*
X172437500Y-80962500D03*
X173707500Y-80962500D03*
X174977500Y-80962500D03*
X176247500Y-80962500D03*
%TD*%
D48*
%TO.C,Y1*%
X162092500Y-86437500D03*
X162092500Y-88637500D03*
X163792500Y-88637500D03*
X163792500Y-86437500D03*
%TD*%
D12*
%TO.C,C27*%
X167222500Y-90187500D03*
X166262500Y-90187500D03*
%TD*%
D33*
%TO.C,C42*%
X168942500Y-36987500D03*
X172542500Y-36987500D03*
%TD*%
%TO.C,C39*%
X155637500Y-32587500D03*
X159237500Y-32587500D03*
%TD*%
D12*
%TO.C,C26*%
X183022500Y-86787500D03*
X182062500Y-86787500D03*
%TD*%
D11*
%TO.C,C22*%
X158767500Y-40887500D03*
X160317500Y-40887500D03*
%TD*%
D18*
%TO.C,R17*%
X182342500Y-97477500D03*
X182342500Y-98497500D03*
%TD*%
D49*
%TO.C,R3*%
X188030000Y-62377500D03*
X186205000Y-62377500D03*
%TD*%
D18*
%TO.C,R18*%
X138742500Y-105377500D03*
X138742500Y-106397500D03*
%TD*%
D13*
%TO.C,C37*%
X179062500Y-88887500D03*
X180022500Y-88887500D03*
%TD*%
D27*
%TO.C,U2*%
X157617500Y-77125000D03*
X156967500Y-77125000D03*
X156317500Y-77125000D03*
X155667500Y-77125000D03*
X155017500Y-77125000D03*
X154367500Y-77125000D03*
X153717500Y-77125000D03*
X153067500Y-77125000D03*
X153067500Y-82850000D03*
X153717500Y-82850000D03*
X154367500Y-82850000D03*
X155017500Y-82850000D03*
X155667500Y-82850000D03*
X156317500Y-82850000D03*
X156967500Y-82850000D03*
X157617500Y-82850000D03*
%TD*%
D19*
%TO.C,R12*%
X184542500Y-82607500D03*
X184542500Y-83567500D03*
%TD*%
D50*
%TO.C,C38*%
X167567500Y-31787500D03*
X170517500Y-31787500D03*
%TD*%
D19*
%TO.C,C3*%
X158642500Y-73107500D03*
X158642500Y-74067500D03*
%TD*%
D31*
%TO.C,R11*%
X160367500Y-43172500D03*
X160367500Y-42152500D03*
%TD*%
%TO.C,R5*%
X158642500Y-72097500D03*
X158642500Y-71077500D03*
%TD*%
D12*
%TO.C,C35*%
X170922500Y-83487500D03*
X169962500Y-83487500D03*
%TD*%
%TO.C,C30*%
X167322500Y-89087500D03*
X166362500Y-89087500D03*
%TD*%
D19*
%TO.C,C45*%
X167791300Y-93507500D03*
X167791300Y-94467500D03*
%TD*%
D12*
%TO.C,C23*%
X162422500Y-39487500D03*
X161462500Y-39487500D03*
%TD*%
D33*
%TO.C,C40*%
X155637500Y-37687500D03*
X159237500Y-37687500D03*
%TD*%
%TO.C,C44*%
X175842500Y-36987500D03*
X179442500Y-36987500D03*
%TD*%
M02*
