%TF.GenerationSoftware,KiCad,Pcbnew,7.0.7*%
%TF.CreationDate,2023-10-23T19:43:48-06:00*%
%TF.ProjectId,PicoGUS chipdown with edge rails,5069636f-4755-4532-9063-686970646f77,rev?*%
%TF.SameCoordinates,Original*%
%TF.FileFunction,Profile,NP*%
%FSLAX46Y46*%
G04 Gerber Fmt 4.6, Leading zero omitted, Abs format (unit mm)*
G04 Created by KiCad (PCBNEW 7.0.7) date 2023-10-23 19:43:48*
%MOMM*%
%LPD*%
G01*
G04 APERTURE LIST*
%TA.AperFunction,Profile*%
%ADD10C,0.400000*%
%TD*%
%TA.AperFunction,Profile*%
%ADD11C,0.100000*%
%TD*%
%ADD12C,0.400000*%
G04 APERTURE END LIST*
D10*
X199940000Y-17000000D02*
X199940000Y-119736250D01*
X97060000Y-17000000D02*
X97060000Y-119736250D01*
D11*
X204935000Y-116736250D02*
X204935000Y-20000000D01*
X97065000Y-20000000D02*
X92065000Y-20000000D01*
X176916250Y-116715000D02*
X178345000Y-115307500D01*
X178345000Y-108957500D02*
X199935000Y-108957500D01*
X92065000Y-20000000D02*
X92065000Y-116736250D01*
X199935000Y-20000000D02*
X97065000Y-20000000D01*
X92065000Y-116736250D02*
X92065000Y-116736250D01*
X97065000Y-116736250D02*
X97065000Y-115307500D01*
X92065000Y-116736250D02*
X97065000Y-116736250D01*
X199935000Y-108957500D02*
X199935000Y-116736250D01*
X178345000Y-115307500D02*
X178345000Y-108957500D01*
X204935000Y-20000000D02*
X199935000Y-20000000D01*
X98493750Y-116736250D02*
X176916250Y-116715000D01*
X97065000Y-115307500D02*
X98493750Y-116736250D01*
X199935000Y-116736250D02*
X204935000Y-116736250D01*
D12*
X198844438Y-13546366D02*
X200844438Y-12879700D01*
X200844438Y-12879700D02*
X198844438Y-12213033D01*
X200082533Y-11546366D02*
X200082533Y-10022557D01*
X200653961Y-7927319D02*
X200749200Y-8022557D01*
X200749200Y-8022557D02*
X200844438Y-8308271D01*
X200844438Y-8308271D02*
X200844438Y-8498747D01*
X200844438Y-8498747D02*
X200749200Y-8784462D01*
X200749200Y-8784462D02*
X200558723Y-8974938D01*
X200558723Y-8974938D02*
X200368247Y-9070176D01*
X200368247Y-9070176D02*
X199987295Y-9165414D01*
X199987295Y-9165414D02*
X199701580Y-9165414D01*
X199701580Y-9165414D02*
X199320628Y-9070176D01*
X199320628Y-9070176D02*
X199130152Y-8974938D01*
X199130152Y-8974938D02*
X198939676Y-8784462D01*
X198939676Y-8784462D02*
X198844438Y-8498747D01*
X198844438Y-8498747D02*
X198844438Y-8308271D01*
X198844438Y-8308271D02*
X198939676Y-8022557D01*
X198939676Y-8022557D02*
X199034914Y-7927319D01*
X198844438Y-7070176D02*
X200463485Y-7070176D01*
X200463485Y-7070176D02*
X200653961Y-6974938D01*
X200653961Y-6974938D02*
X200749200Y-6879700D01*
X200749200Y-6879700D02*
X200844438Y-6689224D01*
X200844438Y-6689224D02*
X200844438Y-6308271D01*
X200844438Y-6308271D02*
X200749200Y-6117795D01*
X200749200Y-6117795D02*
X200653961Y-6022557D01*
X200653961Y-6022557D02*
X200463485Y-5927319D01*
X200463485Y-5927319D02*
X198844438Y-5927319D01*
X198844438Y-5260652D02*
X198844438Y-4117795D01*
X200844438Y-4689224D02*
X198844438Y-4689224D01*
X95964438Y-13546366D02*
X97964438Y-12879700D01*
X97964438Y-12879700D02*
X95964438Y-12213033D01*
X97202533Y-11546366D02*
X97202533Y-10022557D01*
X97773961Y-7927319D02*
X97869200Y-8022557D01*
X97869200Y-8022557D02*
X97964438Y-8308271D01*
X97964438Y-8308271D02*
X97964438Y-8498747D01*
X97964438Y-8498747D02*
X97869200Y-8784462D01*
X97869200Y-8784462D02*
X97678723Y-8974938D01*
X97678723Y-8974938D02*
X97488247Y-9070176D01*
X97488247Y-9070176D02*
X97107295Y-9165414D01*
X97107295Y-9165414D02*
X96821580Y-9165414D01*
X96821580Y-9165414D02*
X96440628Y-9070176D01*
X96440628Y-9070176D02*
X96250152Y-8974938D01*
X96250152Y-8974938D02*
X96059676Y-8784462D01*
X96059676Y-8784462D02*
X95964438Y-8498747D01*
X95964438Y-8498747D02*
X95964438Y-8308271D01*
X95964438Y-8308271D02*
X96059676Y-8022557D01*
X96059676Y-8022557D02*
X96154914Y-7927319D01*
X95964438Y-7070176D02*
X97583485Y-7070176D01*
X97583485Y-7070176D02*
X97773961Y-6974938D01*
X97773961Y-6974938D02*
X97869200Y-6879700D01*
X97869200Y-6879700D02*
X97964438Y-6689224D01*
X97964438Y-6689224D02*
X97964438Y-6308271D01*
X97964438Y-6308271D02*
X97869200Y-6117795D01*
X97869200Y-6117795D02*
X97773961Y-6022557D01*
X97773961Y-6022557D02*
X97583485Y-5927319D01*
X97583485Y-5927319D02*
X95964438Y-5927319D01*
X95964438Y-5260652D02*
X95964438Y-4117795D01*
X97964438Y-4689224D02*
X95964438Y-4689224D01*
M02*
