%TF.GenerationSoftware,KiCad,Pcbnew,7.0.7*%
%TF.CreationDate,2023-10-23T19:44:44-06:00*%
%TF.ProjectId,PicoGUS chipdown with edge rails,5069636f-4755-4532-9063-686970646f77,rev?*%
%TF.SameCoordinates,Original*%
%TF.FileFunction,Drillmap*%
%TF.FilePolarity,Positive*%
%FSLAX45Y45*%
G04 Gerber Fmt 4.5, Leading zero omitted, Abs format (unit mm)*
G04 Created by KiCad (PCBNEW 7.0.7) date 2023-10-23 19:44:44*
%MOMM*%
%LPD*%
G01*
G04 APERTURE LIST*
%ADD10C,0.400000*%
%ADD11C,0.100000*%
%ADD12C,0.200000*%
%ADD13C,0.030000*%
%ADD14C,0.090000*%
%ADD15C,0.210000*%
%ADD16C,0.320000*%
G04 APERTURE END LIST*
D10*
X19994000Y-1700000D02*
X19994000Y-11973625D01*
X9706000Y-1700000D02*
X9706000Y-11973625D01*
D11*
X20493500Y-11673625D02*
X20493500Y-2000000D01*
X9706500Y-2000000D02*
X9206500Y-2000000D01*
X17691625Y-11671500D02*
X17834500Y-11530750D01*
X17834500Y-10895750D02*
X19993500Y-10895750D01*
X9206500Y-2000000D02*
X9206500Y-11673625D01*
X19993500Y-2000000D02*
X9706500Y-2000000D01*
X9206500Y-11673625D02*
X9206500Y-11673625D01*
X9706500Y-11673625D02*
X9706500Y-11530750D01*
X9206500Y-11673625D02*
X9706500Y-11673625D01*
X19993500Y-10895750D02*
X19993500Y-11673625D01*
X17834500Y-11530750D02*
X17834500Y-10895750D01*
X20493500Y-2000000D02*
X19993500Y-2000000D01*
X9849375Y-11673625D02*
X17691625Y-11671500D01*
X9706500Y-11530750D02*
X9849375Y-11673625D01*
X19993500Y-11673625D02*
X20493500Y-11673625D01*
D12*
D13*
X9850250Y-10715650D02*
X9880250Y-10745650D01*
X9880250Y-10715650D02*
X9850250Y-10745650D01*
X9850250Y-10779150D02*
X9880250Y-10809150D01*
X9880250Y-10779150D02*
X9850250Y-10809150D01*
X9850250Y-10842650D02*
X9880250Y-10872650D01*
X9880250Y-10842650D02*
X9850250Y-10872650D01*
X10028050Y-10715650D02*
X10058050Y-10745650D01*
X10058050Y-10715650D02*
X10028050Y-10745650D01*
X10028050Y-10779150D02*
X10058050Y-10809150D01*
X10058050Y-10779150D02*
X10028050Y-10809150D01*
X10028050Y-10842000D02*
X10058050Y-10872000D01*
X10058050Y-10842000D02*
X10028050Y-10872000D01*
X10358250Y-10715650D02*
X10388250Y-10745650D01*
X10388250Y-10715650D02*
X10358250Y-10745650D01*
X10358250Y-10779150D02*
X10388250Y-10809150D01*
X10388250Y-10779150D02*
X10358250Y-10809150D01*
X10358250Y-10843750D02*
X10388250Y-10873750D01*
X10388250Y-10843750D02*
X10358250Y-10873750D01*
X10536050Y-10715650D02*
X10566050Y-10745650D01*
X10566050Y-10715650D02*
X10536050Y-10745650D01*
X10536050Y-10779150D02*
X10566050Y-10809150D01*
X10566050Y-10779150D02*
X10536050Y-10809150D01*
X10536050Y-10842000D02*
X10566050Y-10872000D01*
X10566050Y-10842000D02*
X10536050Y-10872000D01*
X11099250Y-8853750D02*
X11129250Y-8883750D01*
X11129250Y-8853750D02*
X11099250Y-8883750D01*
X11099250Y-10873750D02*
X11129250Y-10903750D01*
X11129250Y-10873750D02*
X11099250Y-10903750D01*
X11716750Y-3386250D02*
X11746750Y-3416250D01*
X11746750Y-3386250D02*
X11716750Y-3416250D01*
X11759250Y-3433750D02*
X11789250Y-3463750D01*
X11789250Y-3433750D02*
X11759250Y-3463750D01*
X12229250Y-6643750D02*
X12259250Y-6673750D01*
X12259250Y-6643750D02*
X12229250Y-6673750D01*
X12229250Y-6883750D02*
X12259250Y-6913750D01*
X12259250Y-6883750D02*
X12229250Y-6913750D01*
X12229250Y-7203750D02*
X12259250Y-7233750D01*
X12259250Y-7203750D02*
X12229250Y-7233750D01*
X12229250Y-7473750D02*
X12259250Y-7503750D01*
X12259250Y-7473750D02*
X12229250Y-7503750D01*
X12229250Y-7573750D02*
X12259250Y-7603750D01*
X12259250Y-7573750D02*
X12229250Y-7603750D01*
X12229250Y-7803750D02*
X12259250Y-7833750D01*
X12259250Y-7803750D02*
X12229250Y-7833750D01*
X12229250Y-8143750D02*
X12259250Y-8173750D01*
X12259250Y-8143750D02*
X12229250Y-8173750D01*
X12229250Y-8393750D02*
X12259250Y-8423750D01*
X12259250Y-8393750D02*
X12229250Y-8423750D01*
X12229250Y-8513750D02*
X12259250Y-8543750D01*
X12259250Y-8513750D02*
X12229250Y-8543750D01*
X12229250Y-8733750D02*
X12259250Y-8763750D01*
X12259250Y-8733750D02*
X12229250Y-8763750D01*
X12599250Y-8993750D02*
X12629250Y-9023750D01*
X12629250Y-8993750D02*
X12599250Y-9023750D01*
X13309250Y-7223750D02*
X13339250Y-7253750D01*
X13339250Y-7223750D02*
X13309250Y-7253750D01*
X13309250Y-9533750D02*
X13339250Y-9563750D01*
X13339250Y-9533750D02*
X13309250Y-9563750D01*
X13369250Y-8663750D02*
X13399250Y-8693750D01*
X13399250Y-8663750D02*
X13369250Y-8693750D01*
X13629250Y-7523750D02*
X13659250Y-7553750D01*
X13659250Y-7523750D02*
X13629250Y-7553750D01*
X13819250Y-8203750D02*
X13849250Y-8233750D01*
X13849250Y-8203750D02*
X13819250Y-8233750D01*
X13876750Y-8053750D02*
X13906750Y-8083750D01*
X13906750Y-8053750D02*
X13876750Y-8083750D01*
X13899250Y-7913750D02*
X13929250Y-7943750D01*
X13929250Y-7913750D02*
X13899250Y-7943750D01*
X13919250Y-10663750D02*
X13949250Y-10693750D01*
X13949250Y-10663750D02*
X13919250Y-10693750D01*
X13959250Y-7853750D02*
X13989250Y-7883750D01*
X13989250Y-7853750D02*
X13959250Y-7883750D01*
X14039250Y-7113750D02*
X14069250Y-7143750D01*
X14069250Y-7113750D02*
X14039250Y-7143750D01*
X14039250Y-7993750D02*
X14069250Y-8023750D01*
X14069250Y-7993750D02*
X14039250Y-8023750D01*
X14139250Y-9283750D02*
X14169250Y-9313750D01*
X14169250Y-9283750D02*
X14139250Y-9313750D01*
X14189250Y-9033750D02*
X14219250Y-9063750D01*
X14219250Y-9033750D02*
X14189250Y-9063750D01*
X14229250Y-9233750D02*
X14259250Y-9263750D01*
X14259250Y-9233750D02*
X14229250Y-9263750D01*
X14249250Y-6723750D02*
X14279250Y-6753750D01*
X14279250Y-6723750D02*
X14249250Y-6753750D01*
X14249250Y-6803750D02*
X14279250Y-6833750D01*
X14279250Y-6803750D02*
X14249250Y-6833750D01*
X14249250Y-7653750D02*
X14279250Y-7683750D01*
X14279250Y-7653750D02*
X14249250Y-7683750D01*
X14249250Y-7733750D02*
X14279250Y-7763750D01*
X14279250Y-7733750D02*
X14249250Y-7763750D01*
X14249250Y-8593750D02*
X14279250Y-8623750D01*
X14279250Y-8593750D02*
X14249250Y-8623750D01*
X14249250Y-8673750D02*
X14279250Y-8703750D01*
X14279250Y-8673750D02*
X14249250Y-8703750D01*
X14349250Y-6583750D02*
X14379250Y-6613750D01*
X14379250Y-6583750D02*
X14349250Y-6613750D01*
X14349250Y-8783750D02*
X14379250Y-8813750D01*
X14379250Y-8783750D02*
X14349250Y-8813750D01*
X14389250Y-10813750D02*
X14419250Y-10843750D01*
X14419250Y-10813750D02*
X14389250Y-10843750D01*
X14414250Y-7523750D02*
X14444250Y-7553750D01*
X14444250Y-7523750D02*
X14414250Y-7553750D01*
X14419250Y-6943750D02*
X14449250Y-6973750D01*
X14449250Y-6943750D02*
X14419250Y-6973750D01*
X14429250Y-9033750D02*
X14459250Y-9063750D01*
X14459250Y-9033750D02*
X14429250Y-9063750D01*
X14479250Y-7243750D02*
X14509250Y-7273750D01*
X14509250Y-7243750D02*
X14479250Y-7273750D01*
X14479250Y-8053750D02*
X14509250Y-8083750D01*
X14509250Y-8053750D02*
X14479250Y-8083750D01*
X14479250Y-9113750D02*
X14509250Y-9143750D01*
X14509250Y-9113750D02*
X14479250Y-9143750D01*
X14509250Y-7523750D02*
X14539250Y-7553750D01*
X14539250Y-7523750D02*
X14509250Y-7553750D01*
X14519250Y-7113750D02*
X14549250Y-7143750D01*
X14549250Y-7113750D02*
X14519250Y-7143750D01*
X14519250Y-9383750D02*
X14549250Y-9413750D01*
X14549250Y-9383750D02*
X14519250Y-9413750D01*
X14539250Y-7843750D02*
X14569250Y-7873750D01*
X14569250Y-7843750D02*
X14539250Y-7873750D01*
X14539250Y-8413750D02*
X14569250Y-8443750D01*
X14569250Y-8413750D02*
X14539250Y-8443750D01*
X14549250Y-6993750D02*
X14579250Y-7023750D01*
X14579250Y-6993750D02*
X14549250Y-7023750D01*
X14569250Y-7973750D02*
X14599250Y-8003750D01*
X14599250Y-7973750D02*
X14569250Y-8003750D01*
X14569250Y-9433750D02*
X14599250Y-9463750D01*
X14599250Y-9433750D02*
X14569250Y-9463750D01*
X14579250Y-7243750D02*
X14609250Y-7273750D01*
X14609250Y-7243750D02*
X14579250Y-7273750D01*
X14609250Y-8043750D02*
X14639250Y-8073750D01*
X14639250Y-8043750D02*
X14609250Y-8073750D01*
X14609250Y-8783750D02*
X14639250Y-8813750D01*
X14639250Y-8783750D02*
X14609250Y-8813750D01*
X14649250Y-10813750D02*
X14679250Y-10843750D01*
X14679250Y-10813750D02*
X14649250Y-10843750D01*
X14669250Y-7243750D02*
X14699250Y-7273750D01*
X14699250Y-7243750D02*
X14669250Y-7273750D01*
X14669250Y-7913750D02*
X14699250Y-7943750D01*
X14699250Y-7913750D02*
X14669250Y-7943750D01*
X14669250Y-9333750D02*
X14699250Y-9363750D01*
X14699250Y-9333750D02*
X14669250Y-9363750D01*
X14674250Y-7438750D02*
X14704250Y-7468750D01*
X14704250Y-7438750D02*
X14674250Y-7468750D01*
X14679250Y-7123750D02*
X14709250Y-7153750D01*
X14709250Y-7123750D02*
X14679250Y-7153750D01*
X14679250Y-8173750D02*
X14709250Y-8203750D01*
X14709250Y-8173750D02*
X14679250Y-8203750D01*
X14679250Y-9123750D02*
X14709250Y-9153750D01*
X14709250Y-9123750D02*
X14679250Y-9153750D01*
X14689250Y-8363750D02*
X14719250Y-8393750D01*
X14719250Y-8363750D02*
X14689250Y-8393750D01*
X14719250Y-8053750D02*
X14749250Y-8083750D01*
X14749250Y-8053750D02*
X14719250Y-8083750D01*
X14739250Y-9521850D02*
X14769250Y-9551850D01*
X14769250Y-9521850D02*
X14739250Y-9551850D01*
X14849250Y-3103750D02*
X14879250Y-3133750D01*
X14879250Y-3103750D02*
X14849250Y-3133750D01*
X15059250Y-4143750D02*
X15089250Y-4173750D01*
X15089250Y-4143750D02*
X15059250Y-4173750D01*
X15129250Y-4053750D02*
X15159250Y-4083750D01*
X15159250Y-4053750D02*
X15129250Y-4083750D01*
X15129250Y-4233750D02*
X15159250Y-4263750D01*
X15159250Y-4233750D02*
X15129250Y-4263750D01*
X15143150Y-10682830D02*
X15173150Y-10712830D01*
X15173150Y-10682830D02*
X15143150Y-10712830D01*
X15143150Y-10742830D02*
X15173150Y-10772830D01*
X15173150Y-10742830D02*
X15143150Y-10772830D01*
X15143150Y-10802830D02*
X15173150Y-10832830D01*
X15173150Y-10802830D02*
X15143150Y-10832830D01*
X15159250Y-9033750D02*
X15189250Y-9063750D01*
X15189250Y-9033750D02*
X15159250Y-9063750D01*
X15159250Y-9113750D02*
X15189250Y-9143750D01*
X15189250Y-9113750D02*
X15159250Y-9143750D01*
X15164250Y-8338750D02*
X15194250Y-8368750D01*
X15194250Y-8338750D02*
X15164250Y-8368750D01*
X15169250Y-6833750D02*
X15199250Y-6863750D01*
X15199250Y-6833750D02*
X15169250Y-6863750D01*
X15203150Y-10682830D02*
X15233150Y-10712830D01*
X15233150Y-10682830D02*
X15203150Y-10712830D01*
X15203150Y-10742830D02*
X15233150Y-10772830D01*
X15233150Y-10742830D02*
X15203150Y-10772830D01*
X15203150Y-10802830D02*
X15233150Y-10832830D01*
X15233150Y-10802830D02*
X15203150Y-10832830D01*
X15219250Y-6723750D02*
X15249250Y-6753750D01*
X15249250Y-6723750D02*
X15219250Y-6753750D01*
X15229250Y-8933750D02*
X15259250Y-8963750D01*
X15259250Y-8933750D02*
X15229250Y-8963750D01*
X15239250Y-7353750D02*
X15269250Y-7383750D01*
X15269250Y-7353750D02*
X15239250Y-7383750D01*
X15249250Y-6823750D02*
X15279250Y-6853750D01*
X15279250Y-6823750D02*
X15249250Y-6853750D01*
X15254250Y-7658750D02*
X15284250Y-7688750D01*
X15284250Y-7658750D02*
X15254250Y-7688750D01*
X15254250Y-7738750D02*
X15284250Y-7768750D01*
X15284250Y-7738750D02*
X15254250Y-7768750D01*
X15279250Y-8763750D02*
X15309250Y-8793750D01*
X15309250Y-8763750D02*
X15279250Y-8793750D01*
X15279250Y-10503750D02*
X15309250Y-10533750D01*
X15309250Y-10503750D02*
X15279250Y-10533750D01*
X15289250Y-8503750D02*
X15319250Y-8533750D01*
X15319250Y-8503750D02*
X15289250Y-8533750D01*
X15319250Y-4513750D02*
X15349250Y-4543750D01*
X15349250Y-4513750D02*
X15319250Y-4543750D01*
X15319250Y-4733750D02*
X15349250Y-4763750D01*
X15349250Y-4733750D02*
X15319250Y-4763750D01*
X15339250Y-4053750D02*
X15369250Y-4083750D01*
X15369250Y-4053750D02*
X15339250Y-4083750D01*
X15339250Y-4233750D02*
X15369250Y-4263750D01*
X15369250Y-4233750D02*
X15339250Y-4263750D01*
X15359250Y-7843750D02*
X15389250Y-7873750D01*
X15389250Y-7843750D02*
X15359250Y-7873750D01*
X15379250Y-8763750D02*
X15409250Y-8793750D01*
X15409250Y-8763750D02*
X15379250Y-8793750D01*
X15404400Y-8488900D02*
X15434400Y-8518900D01*
X15434400Y-8488900D02*
X15404400Y-8518900D01*
X15409250Y-4143750D02*
X15439250Y-4173750D01*
X15439250Y-4143750D02*
X15409250Y-4173750D01*
X15409250Y-4443750D02*
X15439250Y-4473750D01*
X15439250Y-4443750D02*
X15409250Y-4473750D01*
X15409250Y-4803750D02*
X15439250Y-4833750D01*
X15439250Y-4803750D02*
X15409250Y-4833750D01*
X15409250Y-8403750D02*
X15439250Y-8433750D01*
X15439250Y-8403750D02*
X15409250Y-8433750D01*
X15409350Y-7473650D02*
X15439350Y-7503650D01*
X15439350Y-7473650D02*
X15409350Y-7503650D01*
X15424250Y-10758750D02*
X15454250Y-10788750D01*
X15454250Y-10758750D02*
X15424250Y-10788750D01*
X15429250Y-9423750D02*
X15459250Y-9453750D01*
X15459250Y-9423750D02*
X15429250Y-9453750D01*
X15459250Y-9543750D02*
X15489250Y-9573750D01*
X15489250Y-9543750D02*
X15459250Y-9573750D01*
X15463650Y-6883750D02*
X15493650Y-6913750D01*
X15493650Y-6883750D02*
X15463650Y-6913750D01*
X15474250Y-10808750D02*
X15504250Y-10838750D01*
X15504250Y-10808750D02*
X15474250Y-10838750D01*
X15489250Y-7813750D02*
X15519250Y-7843750D01*
X15519250Y-7813750D02*
X15489250Y-7843750D01*
X15489250Y-8483750D02*
X15519250Y-8513750D01*
X15519250Y-8483750D02*
X15489250Y-8513750D01*
X15489250Y-8993750D02*
X15519250Y-9023750D01*
X15519250Y-8993750D02*
X15489250Y-9023750D01*
X15499250Y-4513750D02*
X15529250Y-4543750D01*
X15529250Y-4513750D02*
X15499250Y-4543750D01*
X15499250Y-4733750D02*
X15529250Y-4763750D01*
X15529250Y-4733750D02*
X15499250Y-4763750D01*
X15501750Y-7473750D02*
X15531750Y-7503750D01*
X15531750Y-7473750D02*
X15501750Y-7503750D01*
X15538750Y-3643750D02*
X15568750Y-3673750D01*
X15568750Y-3643750D02*
X15538750Y-3673750D01*
X15539250Y-3133750D02*
X15569250Y-3163750D01*
X15569250Y-3133750D02*
X15539250Y-3163750D01*
X15539850Y-8413750D02*
X15569850Y-8443750D01*
X15569850Y-8413750D02*
X15539850Y-8443750D01*
X15549250Y-9363750D02*
X15579250Y-9393750D01*
X15579250Y-9363750D02*
X15549250Y-9393750D01*
X15565250Y-6883750D02*
X15595250Y-6913750D01*
X15595250Y-6883750D02*
X15565250Y-6913750D01*
X15577950Y-7813750D02*
X15607950Y-7843750D01*
X15607950Y-7813750D02*
X15577950Y-7843750D01*
X15589250Y-4693750D02*
X15619250Y-4723750D01*
X15619250Y-4693750D02*
X15589250Y-4723750D01*
X15591750Y-4353750D02*
X15621750Y-4383750D01*
X15621750Y-4353750D02*
X15591750Y-4383750D01*
X15609250Y-7203750D02*
X15639250Y-7233750D01*
X15639250Y-7203750D02*
X15609250Y-7233750D01*
X15619250Y-8143750D02*
X15649250Y-8173750D01*
X15649250Y-8143750D02*
X15619250Y-8173750D01*
X15619250Y-8543750D02*
X15649250Y-8573750D01*
X15649250Y-8543750D02*
X15619250Y-8573750D01*
X15629250Y-9333750D02*
X15659250Y-9363750D01*
X15659250Y-9333750D02*
X15629250Y-9363750D01*
X15639250Y-8873750D02*
X15669250Y-8903750D01*
X15669250Y-8873750D02*
X15639250Y-8903750D01*
X15679250Y-6633750D02*
X15709250Y-6663750D01*
X15709250Y-6633750D02*
X15679250Y-6663750D01*
X15679250Y-7573750D02*
X15709250Y-7603750D01*
X15709250Y-7573750D02*
X15679250Y-7603750D01*
X15691750Y-4273750D02*
X15721750Y-4303750D01*
X15721750Y-4273750D02*
X15691750Y-4303750D01*
X15699250Y-9473750D02*
X15729250Y-9503750D01*
X15729250Y-9473750D02*
X15699250Y-9503750D01*
X15749250Y-7993750D02*
X15779250Y-8023750D01*
X15779250Y-7993750D02*
X15749250Y-8023750D01*
X15749250Y-8813750D02*
X15779250Y-8843750D01*
X15779250Y-8813750D02*
X15749250Y-8843750D01*
X15749250Y-9113750D02*
X15779250Y-9143750D01*
X15779250Y-9113750D02*
X15749250Y-9143750D01*
X15759250Y-7223750D02*
X15789250Y-7253750D01*
X15789250Y-7223750D02*
X15759250Y-7253750D01*
X15779250Y-4573750D02*
X15809250Y-4603750D01*
X15809250Y-4573750D02*
X15779250Y-4603750D01*
X15789250Y-4073750D02*
X15819250Y-4103750D01*
X15819250Y-4073750D02*
X15789250Y-4103750D01*
X15789250Y-7693750D02*
X15819250Y-7723750D01*
X15819250Y-7693750D02*
X15789250Y-7723750D01*
X15799250Y-9173750D02*
X15829250Y-9203750D01*
X15829250Y-9173750D02*
X15799250Y-9203750D01*
X15823750Y-4293250D02*
X15853750Y-4323250D01*
X15853750Y-4293250D02*
X15823750Y-4323250D01*
X15849250Y-8173750D02*
X15879250Y-8203750D01*
X15879250Y-8173750D02*
X15849250Y-8203750D01*
X15849250Y-8373750D02*
X15879250Y-8403750D01*
X15879250Y-8373750D02*
X15849250Y-8403750D01*
X15881750Y-4311250D02*
X15911750Y-4341250D01*
X15911750Y-4311250D02*
X15881750Y-4341250D01*
X15889250Y-4573750D02*
X15919250Y-4603750D01*
X15919250Y-4573750D02*
X15889250Y-4603750D01*
X15889250Y-7423750D02*
X15919250Y-7453750D01*
X15919250Y-7423750D02*
X15889250Y-7453750D01*
X15891750Y-4921250D02*
X15921750Y-4951250D01*
X15921750Y-4921250D02*
X15891750Y-4951250D01*
X15899250Y-7243750D02*
X15929250Y-7273750D01*
X15929250Y-7243750D02*
X15899250Y-7273750D01*
X15899250Y-8223750D02*
X15929250Y-8253750D01*
X15929250Y-8223750D02*
X15899250Y-8253750D01*
X15899250Y-8323750D02*
X15929250Y-8353750D01*
X15929250Y-8323750D02*
X15899250Y-8353750D01*
X15941750Y-4251250D02*
X15971750Y-4281250D01*
X15971750Y-4251250D02*
X15941750Y-4281250D01*
X15969250Y-7313750D02*
X15999250Y-7343750D01*
X15999250Y-7313750D02*
X15969250Y-7343750D01*
X15989250Y-4544461D02*
X16019250Y-4574461D01*
X16019250Y-4544461D02*
X15989250Y-4574461D01*
X15989250Y-10783750D02*
X16019250Y-10813750D01*
X16019250Y-10783750D02*
X15989250Y-10813750D01*
X16035250Y-10833750D02*
X16065250Y-10863750D01*
X16065250Y-10833750D02*
X16035250Y-10863750D01*
X16039250Y-7683750D02*
X16069250Y-7713750D01*
X16069250Y-7683750D02*
X16039250Y-7713750D01*
X16068250Y-3940339D02*
X16098250Y-3970339D01*
X16098250Y-3940339D02*
X16068250Y-3970339D01*
X16119250Y-8788750D02*
X16149250Y-8818750D01*
X16149250Y-8788750D02*
X16119250Y-8818750D01*
X16119250Y-8908750D02*
X16149250Y-8938750D01*
X16149250Y-8908750D02*
X16119250Y-8938750D01*
X16128250Y-3990339D02*
X16158250Y-4020339D01*
X16158250Y-3990339D02*
X16128250Y-4020339D01*
X16159250Y-9023750D02*
X16189250Y-9053750D01*
X16189250Y-9023750D02*
X16159250Y-9053750D01*
X16164250Y-3388750D02*
X16194250Y-3418750D01*
X16194250Y-3388750D02*
X16164250Y-3418750D01*
X16169250Y-3633750D02*
X16199250Y-3663750D01*
X16199250Y-3633750D02*
X16169250Y-3663750D01*
X16169250Y-5183750D02*
X16199250Y-5213750D01*
X16199250Y-5183750D02*
X16169250Y-5213750D01*
X16181750Y-4921250D02*
X16211750Y-4951250D01*
X16211750Y-4921250D02*
X16181750Y-4951250D01*
X16219250Y-5233750D02*
X16249250Y-5263750D01*
X16249250Y-5233750D02*
X16219250Y-5263750D01*
X16271750Y-4181250D02*
X16301750Y-4211250D01*
X16301750Y-4181250D02*
X16271750Y-4211250D01*
X16298750Y-3139161D02*
X16328750Y-3169161D01*
X16328750Y-3139161D02*
X16298750Y-3169161D01*
X16298750Y-3382661D02*
X16328750Y-3412661D01*
X16328750Y-3382661D02*
X16298750Y-3412661D01*
X16298750Y-3637411D02*
X16328750Y-3667411D01*
X16328750Y-3637411D02*
X16298750Y-3667411D01*
X16298750Y-3887411D02*
X16328750Y-3917411D01*
X16328750Y-3887411D02*
X16298750Y-3917411D01*
X16314250Y-4561250D02*
X16344250Y-4591250D01*
X16344250Y-4561250D02*
X16314250Y-4591250D01*
X16323250Y-4358850D02*
X16353250Y-4388850D01*
X16353250Y-4358850D02*
X16323250Y-4388850D01*
X16349250Y-9493750D02*
X16379250Y-9523750D01*
X16379250Y-9493750D02*
X16349250Y-9523750D01*
X16381750Y-4921250D02*
X16411750Y-4951250D01*
X16411750Y-4921250D02*
X16381750Y-4951250D01*
X16399250Y-5133750D02*
X16429250Y-5163750D01*
X16429250Y-5133750D02*
X16399250Y-5163750D01*
X16409250Y-8448750D02*
X16439250Y-8478750D01*
X16439250Y-8448750D02*
X16409250Y-8478750D01*
X16429250Y-3383750D02*
X16459250Y-3413750D01*
X16459250Y-3383750D02*
X16429250Y-3413750D01*
X16431750Y-5271250D02*
X16461750Y-5301250D01*
X16461750Y-5271250D02*
X16431750Y-5301250D01*
X16439250Y-8558750D02*
X16469250Y-8588750D01*
X16469250Y-8558750D02*
X16439250Y-8588750D01*
X16439250Y-8678750D02*
X16469250Y-8708750D01*
X16469250Y-8678750D02*
X16439250Y-8708750D01*
X16491750Y-5071250D02*
X16521750Y-5101250D01*
X16521750Y-5071250D02*
X16491750Y-5101250D01*
X16501750Y-4411250D02*
X16531750Y-4441250D01*
X16531750Y-4411250D02*
X16501750Y-4441250D01*
X16501750Y-5131250D02*
X16531750Y-5161250D01*
X16531750Y-5131250D02*
X16501750Y-5161250D01*
X16517750Y-7959750D02*
X16547750Y-7989750D01*
X16547750Y-7959750D02*
X16517750Y-7989750D01*
X16529250Y-8713750D02*
X16559250Y-8743750D01*
X16559250Y-8713750D02*
X16529250Y-8743750D01*
X16531750Y-5271250D02*
X16561750Y-5301250D01*
X16561750Y-5271250D02*
X16531750Y-5301250D01*
X16549250Y-9013750D02*
X16579250Y-9043750D01*
X16579250Y-9013750D02*
X16549250Y-9043750D01*
X16559250Y-8573750D02*
X16589250Y-8603750D01*
X16589250Y-8573750D02*
X16559250Y-8603750D01*
X16561750Y-4361250D02*
X16591750Y-4391250D01*
X16591750Y-4361250D02*
X16561750Y-4391250D01*
X16561750Y-4561250D02*
X16591750Y-4591250D01*
X16591750Y-4561250D02*
X16561750Y-4591250D01*
X16579250Y-9233750D02*
X16609250Y-9263750D01*
X16609250Y-9233750D02*
X16579250Y-9263750D01*
X16589250Y-8653750D02*
X16619250Y-8683750D01*
X16619250Y-8653750D02*
X16589250Y-8683750D01*
X16609250Y-7873750D02*
X16639250Y-7903750D01*
X16639250Y-7873750D02*
X16609250Y-7903750D01*
X16609250Y-8953750D02*
X16639250Y-8983750D01*
X16639250Y-8953750D02*
X16609250Y-8983750D01*
X16611750Y-4509250D02*
X16641750Y-4539250D01*
X16641750Y-4509250D02*
X16611750Y-4539250D01*
X16639250Y-9123750D02*
X16669250Y-9153750D01*
X16669250Y-9123750D02*
X16639250Y-9153750D01*
X16669250Y-3113750D02*
X16699250Y-3143750D01*
X16699250Y-3113750D02*
X16669250Y-3143750D01*
X16669250Y-3213750D02*
X16699250Y-3243750D01*
X16699250Y-3213750D02*
X16669250Y-3243750D01*
X16679250Y-8203750D02*
X16709250Y-8233750D01*
X16709250Y-8203750D02*
X16679250Y-8233750D01*
X16709250Y-9163750D02*
X16739250Y-9193750D01*
X16739250Y-9163750D02*
X16709250Y-9193750D01*
X16729250Y-8133750D02*
X16759250Y-8163750D01*
X16759250Y-8133750D02*
X16729250Y-8163750D01*
X16739250Y-4103750D02*
X16769250Y-4133750D01*
X16769250Y-4103750D02*
X16739250Y-4133750D01*
X16764130Y-9483750D02*
X16794130Y-9513750D01*
X16794130Y-9483750D02*
X16764130Y-9513750D01*
X16764250Y-8358750D02*
X16794250Y-8388750D01*
X16794250Y-8358750D02*
X16764250Y-8388750D01*
X16779250Y-9013750D02*
X16809250Y-9043750D01*
X16809250Y-9013750D02*
X16779250Y-9043750D01*
X16789250Y-8573750D02*
X16819250Y-8603750D01*
X16819250Y-8573750D02*
X16789250Y-8603750D01*
X16789250Y-8903750D02*
X16819250Y-8933750D01*
X16819250Y-8903750D02*
X16789250Y-8933750D01*
X16809250Y-7813750D02*
X16839250Y-7843750D01*
X16839250Y-7813750D02*
X16809250Y-7843750D01*
X16819250Y-3113750D02*
X16849250Y-3143750D01*
X16849250Y-3113750D02*
X16819250Y-3143750D01*
X16819250Y-3213750D02*
X16849250Y-3243750D01*
X16849250Y-3213750D02*
X16819250Y-3243750D01*
X16859250Y-7373750D02*
X16889250Y-7403750D01*
X16889250Y-7373750D02*
X16859250Y-7403750D01*
X16919250Y-7473750D02*
X16949250Y-7503750D01*
X16949250Y-7473750D02*
X16919250Y-7503750D01*
X16929250Y-9203750D02*
X16959250Y-9233750D01*
X16959250Y-9203750D02*
X16929250Y-9233750D01*
X16939250Y-9293750D02*
X16969250Y-9323750D01*
X16969250Y-9293750D02*
X16939250Y-9323750D01*
X16959250Y-3113750D02*
X16989250Y-3143750D01*
X16989250Y-3113750D02*
X16959250Y-3143750D01*
X16959250Y-3213750D02*
X16989250Y-3243750D01*
X16989250Y-3213750D02*
X16959250Y-3243750D01*
X16959250Y-10743750D02*
X16989250Y-10773750D01*
X16989250Y-10743750D02*
X16959250Y-10773750D01*
X16959250Y-10803750D02*
X16989250Y-10833750D01*
X16989250Y-10803750D02*
X16959250Y-10833750D01*
X16959250Y-10863750D02*
X16989250Y-10893750D01*
X16989250Y-10863750D02*
X16959250Y-10893750D01*
X16960650Y-10217250D02*
X16990650Y-10247250D01*
X16990650Y-10217250D02*
X16960650Y-10247250D01*
X16960650Y-10277250D02*
X16990650Y-10307250D01*
X16990650Y-10277250D02*
X16960650Y-10307250D01*
X16960650Y-10347250D02*
X16990650Y-10377250D01*
X16990650Y-10347250D02*
X16960650Y-10377250D01*
X16969250Y-6773750D02*
X16999250Y-6803750D01*
X16999250Y-6773750D02*
X16969250Y-6803750D01*
X16989250Y-8873750D02*
X17019250Y-8903750D01*
X17019250Y-8873750D02*
X16989250Y-8903750D01*
X16989250Y-8993750D02*
X17019250Y-9023750D01*
X17019250Y-8993750D02*
X16989250Y-9023750D01*
X17019250Y-6883750D02*
X17049250Y-6913750D01*
X17049250Y-6883750D02*
X17019250Y-6913750D01*
X17019250Y-9128150D02*
X17049250Y-9158150D01*
X17049250Y-9128150D02*
X17019250Y-9158150D01*
X17025750Y-8273750D02*
X17055750Y-8303750D01*
X17055750Y-8273750D02*
X17025750Y-8303750D01*
X17039250Y-9433750D02*
X17069250Y-9463750D01*
X17069250Y-9433750D02*
X17039250Y-9463750D01*
X17049250Y-9333750D02*
X17079250Y-9363750D01*
X17079250Y-9333750D02*
X17049250Y-9363750D01*
X17069250Y-7023750D02*
X17099250Y-7053750D01*
X17099250Y-7023750D02*
X17069250Y-7053750D01*
X17099250Y-8393750D02*
X17129250Y-8423750D01*
X17129250Y-8393750D02*
X17099250Y-8423750D01*
X17109250Y-3113750D02*
X17139250Y-3143750D01*
X17139250Y-3113750D02*
X17109250Y-3143750D01*
X17109250Y-3213750D02*
X17139250Y-3243750D01*
X17139250Y-3213750D02*
X17109250Y-3243750D01*
X17109250Y-6633750D02*
X17139250Y-6663750D01*
X17139250Y-6633750D02*
X17109250Y-6663750D01*
X17119250Y-9143750D02*
X17149250Y-9173750D01*
X17149250Y-9143750D02*
X17119250Y-9173750D01*
X17119250Y-9473750D02*
X17149250Y-9503750D01*
X17149250Y-9473750D02*
X17119250Y-9503750D01*
X17125750Y-10217250D02*
X17155750Y-10247250D01*
X17155750Y-10217250D02*
X17125750Y-10247250D01*
X17125750Y-10277250D02*
X17155750Y-10307250D01*
X17155750Y-10277250D02*
X17125750Y-10307250D01*
X17125750Y-10347250D02*
X17155750Y-10377250D01*
X17155750Y-10347250D02*
X17125750Y-10377250D01*
X17139250Y-10743750D02*
X17169250Y-10773750D01*
X17169250Y-10743750D02*
X17139250Y-10773750D01*
X17139250Y-10803750D02*
X17169250Y-10833750D01*
X17169250Y-10803750D02*
X17139250Y-10833750D01*
X17139250Y-10863750D02*
X17169250Y-10893750D01*
X17169250Y-10863750D02*
X17139250Y-10893750D01*
X17149250Y-8623750D02*
X17179250Y-8653750D01*
X17179250Y-8623750D02*
X17149250Y-8653750D01*
X17164250Y-9328750D02*
X17194250Y-9358750D01*
X17194250Y-9328750D02*
X17164250Y-9358750D01*
X17199250Y-9140850D02*
X17229250Y-9170850D01*
X17229250Y-9140850D02*
X17199250Y-9170850D01*
X17199250Y-9953750D02*
X17229250Y-9983750D01*
X17229250Y-9953750D02*
X17199250Y-9983750D01*
X17219250Y-9473750D02*
X17249250Y-9503750D01*
X17249250Y-9473750D02*
X17219250Y-9503750D01*
X17219250Y-9823750D02*
X17249250Y-9853750D01*
X17249250Y-9823750D02*
X17219250Y-9853750D01*
X17228750Y-7713750D02*
X17258750Y-7743750D01*
X17258750Y-7713750D02*
X17228750Y-7743750D01*
X17229250Y-7453750D02*
X17259250Y-7483750D01*
X17259250Y-7453750D02*
X17229250Y-7483750D01*
X17249250Y-9393750D02*
X17279250Y-9423750D01*
X17279250Y-9393750D02*
X17249250Y-9423750D01*
X17252750Y-10217250D02*
X17282750Y-10247250D01*
X17282750Y-10217250D02*
X17252750Y-10247250D01*
X17252750Y-10277250D02*
X17282750Y-10307250D01*
X17282750Y-10277250D02*
X17252750Y-10307250D01*
X17252750Y-10347250D02*
X17282750Y-10377250D01*
X17282750Y-10347250D02*
X17252750Y-10377250D01*
X17289250Y-9143750D02*
X17319250Y-9173750D01*
X17319250Y-9143750D02*
X17289250Y-9173750D01*
X17289250Y-9313750D02*
X17319250Y-9343750D01*
X17319250Y-9313750D02*
X17289250Y-9343750D01*
X17305250Y-10533750D02*
X17335250Y-10563750D01*
X17335250Y-10533750D02*
X17305250Y-10563750D01*
X17329250Y-9693750D02*
X17359250Y-9723750D01*
X17359250Y-9693750D02*
X17329250Y-9723750D01*
X17339250Y-9573750D02*
X17369250Y-9603750D01*
X17369250Y-9573750D02*
X17339250Y-9603750D01*
X17339250Y-9893750D02*
X17369250Y-9923750D01*
X17369250Y-9893750D02*
X17339250Y-9923750D01*
X17379250Y-9143750D02*
X17409250Y-9173750D01*
X17409250Y-9143750D02*
X17379250Y-9173750D01*
X17399250Y-9323750D02*
X17429250Y-9353750D01*
X17429250Y-9323750D02*
X17399250Y-9353750D01*
X17399250Y-9953750D02*
X17429250Y-9983750D01*
X17429250Y-9953750D02*
X17399250Y-9983750D01*
X17409250Y-8273750D02*
X17439250Y-8303750D01*
X17439250Y-8273750D02*
X17409250Y-8303750D01*
X17429250Y-10623750D02*
X17459250Y-10653750D01*
X17459250Y-10623750D02*
X17429250Y-10653750D01*
X17429250Y-10683750D02*
X17459250Y-10713750D01*
X17459250Y-10683750D02*
X17429250Y-10713750D01*
X17429250Y-10743750D02*
X17459250Y-10773750D01*
X17459250Y-10743750D02*
X17429250Y-10773750D01*
X17429250Y-10803750D02*
X17459250Y-10833750D01*
X17459250Y-10803750D02*
X17429250Y-10833750D01*
X17430550Y-10217250D02*
X17460550Y-10247250D01*
X17460550Y-10217250D02*
X17430550Y-10247250D01*
X17430550Y-10277250D02*
X17460550Y-10307250D01*
X17460550Y-10277250D02*
X17430550Y-10307250D01*
X17430550Y-10347250D02*
X17460550Y-10377250D01*
X17460550Y-10347250D02*
X17430550Y-10377250D01*
X17449250Y-9823750D02*
X17479250Y-9853750D01*
X17479250Y-9823750D02*
X17449250Y-9853750D01*
X17479250Y-7793750D02*
X17509250Y-7823750D01*
X17509250Y-7793750D02*
X17479250Y-7823750D01*
X17489250Y-8623750D02*
X17519250Y-8653750D01*
X17519250Y-8623750D02*
X17489250Y-8653750D01*
X17489250Y-10623750D02*
X17519250Y-10653750D01*
X17519250Y-10623750D02*
X17489250Y-10653750D01*
X17489250Y-10683750D02*
X17519250Y-10713750D01*
X17519250Y-10683750D02*
X17489250Y-10713750D01*
X17489250Y-10743750D02*
X17519250Y-10773750D01*
X17519250Y-10743750D02*
X17489250Y-10773750D01*
X17489250Y-10803750D02*
X17519250Y-10833750D01*
X17519250Y-10803750D02*
X17489250Y-10833750D01*
X17509250Y-9513750D02*
X17539250Y-9543750D01*
X17539250Y-9513750D02*
X17509250Y-9543750D01*
X17521050Y-9305950D02*
X17551050Y-9335950D01*
X17551050Y-9305950D02*
X17521050Y-9335950D01*
X17529250Y-8233750D02*
X17559250Y-8263750D01*
X17559250Y-8233750D02*
X17529250Y-8263750D01*
X17529250Y-8463750D02*
X17559250Y-8493750D01*
X17559250Y-8463750D02*
X17529250Y-8493750D01*
X17559250Y-9193750D02*
X17589250Y-9223750D01*
X17589250Y-9193750D02*
X17559250Y-9223750D01*
X17609250Y-9233750D02*
X17639250Y-9263750D01*
X17639250Y-9233750D02*
X17609250Y-9263750D01*
X17609250Y-9303750D02*
X17639250Y-9333750D01*
X17639250Y-9303750D02*
X17609250Y-9333750D01*
X17609250Y-9513750D02*
X17639250Y-9543750D01*
X17639250Y-9513750D02*
X17609250Y-9543750D01*
X17639250Y-8203750D02*
X17669250Y-8233750D01*
X17669250Y-8203750D02*
X17639250Y-8233750D01*
X17649250Y-7973750D02*
X17679250Y-8003750D01*
X17679250Y-7973750D02*
X17649250Y-8003750D01*
X17649250Y-8433750D02*
X17679250Y-8463750D01*
X17679250Y-8433750D02*
X17649250Y-8463750D01*
X17649250Y-8573750D02*
X17679250Y-8603750D01*
X17679250Y-8573750D02*
X17649250Y-8603750D01*
X17675250Y-9217750D02*
X17705250Y-9247750D01*
X17705250Y-9217750D02*
X17675250Y-9247750D01*
X17699250Y-7423750D02*
X17729250Y-7453750D01*
X17729250Y-7423750D02*
X17699250Y-7453750D01*
X17699250Y-8925750D02*
X17729250Y-8955750D01*
X17729250Y-8925750D02*
X17699250Y-8955750D01*
X17729250Y-7631250D02*
X17759250Y-7661250D01*
X17759250Y-7631250D02*
X17729250Y-7661250D01*
X17759250Y-9963750D02*
X17789250Y-9993750D01*
X17789250Y-9963750D02*
X17759250Y-9993750D01*
X17829250Y-8903750D02*
X17859250Y-8933750D01*
X17859250Y-8903750D02*
X17829250Y-8933750D01*
X17839250Y-7773750D02*
X17869250Y-7803750D01*
X17869250Y-7773750D02*
X17839250Y-7803750D01*
X17849250Y-7423750D02*
X17879250Y-7453750D01*
X17879250Y-7423750D02*
X17849250Y-7453750D01*
X17889250Y-9183750D02*
X17919250Y-9213750D01*
X17919250Y-9183750D02*
X17889250Y-9213750D01*
X17889250Y-9283750D02*
X17919250Y-9313750D01*
X17919250Y-9283750D02*
X17889250Y-9313750D01*
X17899250Y-7663750D02*
X17929250Y-7693750D01*
X17929250Y-7663750D02*
X17899250Y-7693750D01*
X17939250Y-9563750D02*
X17969250Y-9593750D01*
X17969250Y-9563750D02*
X17939250Y-9593750D01*
X17939250Y-9633750D02*
X17969250Y-9663750D01*
X17969250Y-9633750D02*
X17939250Y-9663750D01*
X17939250Y-9703750D02*
X17969250Y-9733750D01*
X17969250Y-9703750D02*
X17939250Y-9733750D01*
X17959250Y-7923750D02*
X17989250Y-7953750D01*
X17989250Y-7923750D02*
X17959250Y-7953750D01*
X17969250Y-8983750D02*
X17999250Y-9013750D01*
X17999250Y-8983750D02*
X17969250Y-9013750D01*
X17969250Y-9073750D02*
X17999250Y-9103750D01*
X17999250Y-9073750D02*
X17969250Y-9103750D01*
X17999250Y-9563750D02*
X18029250Y-9593750D01*
X18029250Y-9563750D02*
X17999250Y-9593750D01*
X17999250Y-9633750D02*
X18029250Y-9663750D01*
X18029250Y-9633750D02*
X17999250Y-9663750D01*
X17999250Y-9703750D02*
X18029250Y-9733750D01*
X18029250Y-9703750D02*
X17999250Y-9733750D01*
X18039250Y-8773750D02*
X18069250Y-8803750D01*
X18069250Y-8773750D02*
X18039250Y-8803750D01*
X18039250Y-8873750D02*
X18069250Y-8903750D01*
X18069250Y-8873750D02*
X18039250Y-8903750D01*
X18069250Y-9953750D02*
X18099250Y-9983750D01*
X18099250Y-9953750D02*
X18069250Y-9983750D01*
X18139250Y-8663750D02*
X18169250Y-8693750D01*
X18169250Y-8663750D02*
X18139250Y-8693750D01*
X18149250Y-7923750D02*
X18179250Y-7953750D01*
X18179250Y-7923750D02*
X18149250Y-7953750D01*
X18189250Y-8713750D02*
X18219250Y-8743750D01*
X18219250Y-8713750D02*
X18189250Y-8743750D01*
X18219250Y-9883750D02*
X18249250Y-9913750D01*
X18249250Y-9883750D02*
X18219250Y-9913750D01*
X18240350Y-9272000D02*
X18270350Y-9302000D01*
X18270350Y-9272000D02*
X18240350Y-9302000D01*
X18240350Y-9335500D02*
X18270350Y-9365500D01*
X18270350Y-9335500D02*
X18240350Y-9365500D01*
X18278450Y-9208500D02*
X18308450Y-9238500D01*
X18308450Y-9208500D02*
X18278450Y-9238500D01*
X18278450Y-9399000D02*
X18308450Y-9429000D01*
X18308450Y-9399000D02*
X18278450Y-9429000D01*
X18279250Y-7983750D02*
X18309250Y-8013750D01*
X18309250Y-7983750D02*
X18279250Y-8013750D01*
X18279250Y-8383750D02*
X18309250Y-8413750D01*
X18309250Y-8383750D02*
X18279250Y-8413750D01*
X18279250Y-8603750D02*
X18309250Y-8633750D01*
X18309250Y-8603750D02*
X18279250Y-8633750D01*
X18316550Y-9272000D02*
X18346550Y-9302000D01*
X18346550Y-9272000D02*
X18316550Y-9302000D01*
X18316550Y-9335500D02*
X18346550Y-9365500D01*
X18346550Y-9335500D02*
X18316550Y-9365500D01*
X18529250Y-6493750D02*
X18559250Y-6523750D01*
X18559250Y-6493750D02*
X18529250Y-6523750D01*
X18541750Y-7926250D02*
X18571750Y-7956250D01*
X18571750Y-7926250D02*
X18541750Y-7956250D01*
X18625950Y-9128150D02*
X18655950Y-9158150D01*
X18655950Y-9128150D02*
X18625950Y-9158150D01*
X18686250Y-6136750D02*
X18716250Y-6166750D01*
X18716250Y-6136750D02*
X18686250Y-6166750D01*
X18686750Y-7926250D02*
X18716750Y-7956250D01*
X18716750Y-7926250D02*
X18686750Y-7956250D01*
X18709250Y-7793750D02*
X18739250Y-7823750D01*
X18739250Y-7793750D02*
X18709250Y-7823750D01*
X18779250Y-7550900D02*
X18809250Y-7580900D01*
X18809250Y-7550900D02*
X18779250Y-7580900D01*
X18779250Y-7613750D02*
X18809250Y-7643750D01*
X18809250Y-7613750D02*
X18779250Y-7643750D01*
X18779250Y-7673750D02*
X18809250Y-7703750D01*
X18809250Y-7673750D02*
X18779250Y-7703750D01*
X18779250Y-7793750D02*
X18809250Y-7823750D01*
X18809250Y-7793750D02*
X18779250Y-7823750D01*
X18791050Y-8023750D02*
X18821050Y-8053750D01*
X18821050Y-8023750D02*
X18791050Y-8053750D01*
X18791050Y-8083750D02*
X18821050Y-8113750D01*
X18821050Y-8083750D02*
X18791050Y-8113750D01*
X18791050Y-8143750D02*
X18821050Y-8173750D01*
X18821050Y-8143750D02*
X18791050Y-8173750D01*
X18899250Y-10118750D02*
X18929250Y-10148750D01*
X18929250Y-10118750D02*
X18899250Y-10148750D01*
X18899250Y-10188750D02*
X18929250Y-10218750D01*
X18929250Y-10188750D02*
X18899250Y-10218750D01*
X19039250Y-7793750D02*
X19069250Y-7823750D01*
X19069250Y-7793750D02*
X19039250Y-7823750D01*
X19039250Y-7893750D02*
X19069250Y-7923750D01*
X19069250Y-7893750D02*
X19039250Y-7923750D01*
X19042350Y-8023750D02*
X19072350Y-8053750D01*
X19072350Y-8023750D02*
X19042350Y-8053750D01*
X19042350Y-8083750D02*
X19072350Y-8113750D01*
X19072350Y-8083750D02*
X19042350Y-8113750D01*
X19042350Y-8143750D02*
X19072350Y-8173750D01*
X19072350Y-8143750D02*
X19042350Y-8173750D01*
X19049250Y-7550900D02*
X19079250Y-7580900D01*
X19079250Y-7550900D02*
X19049250Y-7580900D01*
X19049250Y-7613750D02*
X19079250Y-7643750D01*
X19079250Y-7613750D02*
X19049250Y-7643750D01*
X19049250Y-7673750D02*
X19079250Y-7703750D01*
X19079250Y-7673750D02*
X19049250Y-7703750D01*
X19079250Y-10118750D02*
X19109250Y-10148750D01*
X19109250Y-10118750D02*
X19079250Y-10148750D01*
X19079250Y-10188750D02*
X19109250Y-10218750D01*
X19109250Y-10188750D02*
X19079250Y-10218750D01*
X19199250Y-7280900D02*
X19229250Y-7310900D01*
X19229250Y-7280900D02*
X19199250Y-7310900D01*
X19199250Y-7343750D02*
X19229250Y-7373750D01*
X19229250Y-7343750D02*
X19199250Y-7373750D01*
X19199250Y-7403750D02*
X19229250Y-7433750D01*
X19229250Y-7403750D02*
X19199250Y-7433750D01*
X19387950Y-7280900D02*
X19417950Y-7310900D01*
X19417950Y-7280900D02*
X19387950Y-7310900D01*
X19387950Y-7343750D02*
X19417950Y-7373750D01*
X19417950Y-7343750D02*
X19387950Y-7373750D01*
X19387950Y-7403750D02*
X19417950Y-7433750D01*
X19417950Y-7403750D02*
X19387950Y-7433750D01*
X19489250Y-7613750D02*
X19519250Y-7643750D01*
X19519250Y-7613750D02*
X19489250Y-7643750D01*
X19489250Y-8073750D02*
X19519250Y-8103750D01*
X19519250Y-8073750D02*
X19489250Y-8103750D01*
X19549250Y-7613750D02*
X19579250Y-7643750D01*
X19579250Y-7613750D02*
X19549250Y-7643750D01*
X19549250Y-8073750D02*
X19579250Y-8103750D01*
X19579250Y-8073750D02*
X19549250Y-8103750D01*
X19609250Y-7613750D02*
X19639250Y-7643750D01*
X19639250Y-7613750D02*
X19609250Y-7643750D01*
X19609250Y-8073750D02*
X19639250Y-8103750D01*
X19639250Y-8073750D02*
X19609250Y-8103750D01*
X17140500Y-8763750D02*
G75*
G03*
X17140500Y-8763750I-15000J0D01*
G01*
X17140500Y-9033750D02*
G75*
G03*
X17140500Y-9033750I-15000J0D01*
G01*
X17140880Y-8898750D02*
G75*
G03*
X17140880Y-8898750I-15000J0D01*
G01*
X17275500Y-8764130D02*
G75*
G03*
X17275500Y-8764130I-15000J0D01*
G01*
X17275500Y-8898750D02*
G75*
G03*
X17275500Y-8898750I-15000J0D01*
G01*
X17275500Y-9033370D02*
G75*
G03*
X17275500Y-9033370I-15000J0D01*
G01*
X17410120Y-8898750D02*
G75*
G03*
X17410120Y-8898750I-15000J0D01*
G01*
X17410500Y-8763750D02*
G75*
G03*
X17410500Y-8763750I-15000J0D01*
G01*
X17410500Y-9033750D02*
G75*
G03*
X17410500Y-9033750I-15000J0D01*
G01*
D14*
X18319750Y-10655650D02*
X18319750Y-10745650D01*
X18274750Y-10700650D02*
X18364750Y-10700650D01*
D12*
X18274750Y-10675650D02*
X18274750Y-10725650D01*
X18274750Y-10725650D02*
G75*
G03*
X18364750Y-10725650I45000J0D01*
G01*
X18364750Y-10725650D02*
X18364750Y-10675650D01*
X18364750Y-10675650D02*
G75*
G03*
X18274750Y-10675650I-45000J0D01*
G01*
D14*
X18885750Y-10655650D02*
X18885750Y-10745650D01*
X18840750Y-10700650D02*
X18930750Y-10700650D01*
D12*
X18840750Y-10675650D02*
X18840750Y-10725650D01*
X18840750Y-10725650D02*
G75*
G03*
X18930750Y-10725650I45000J0D01*
G01*
X18930750Y-10725650D02*
X18930750Y-10675650D01*
X18930750Y-10675650D02*
G75*
G03*
X18840750Y-10675650I-45000J0D01*
G01*
D14*
X18915470Y-8802250D02*
X18915470Y-8892250D01*
X18870470Y-8847250D02*
X18960470Y-8847250D01*
X18915470Y-9052250D02*
X18915470Y-9142250D01*
X18870470Y-9097250D02*
X18960470Y-9097250D01*
X18915470Y-9252250D02*
X18915470Y-9342250D01*
X18870470Y-9297250D02*
X18960470Y-9297250D01*
X18915470Y-9502250D02*
X18915470Y-9592250D01*
X18870470Y-9547250D02*
X18960470Y-9547250D01*
D11*
X10606606Y-2530106D02*
X10606606Y-2459394D01*
X10535894Y-2459394D01*
X10535894Y-2530106D01*
X10606606Y-2530106D01*
X10606606Y-2784106D02*
X10606606Y-2713394D01*
X10535894Y-2713394D01*
X10535894Y-2784106D01*
X10606606Y-2784106D01*
X10860606Y-2530106D02*
X10860606Y-2459394D01*
X10789894Y-2459394D01*
X10789894Y-2530106D01*
X10860606Y-2530106D01*
X10860606Y-2784106D02*
X10860606Y-2713394D01*
X10789894Y-2713394D01*
X10789894Y-2784106D01*
X10860606Y-2784106D01*
X11114606Y-2530106D02*
X11114606Y-2459394D01*
X11043894Y-2459394D01*
X11043894Y-2530106D01*
X11114606Y-2530106D01*
X11114606Y-2784106D02*
X11114606Y-2713394D01*
X11043894Y-2713394D01*
X11043894Y-2784106D01*
X11114606Y-2784106D01*
X11368606Y-2530106D02*
X11368606Y-2459394D01*
X11297894Y-2459394D01*
X11297894Y-2530106D01*
X11368606Y-2530106D01*
X11368606Y-2784106D02*
X11368606Y-2713394D01*
X11297894Y-2713394D01*
X11297894Y-2784106D01*
X11368606Y-2784106D01*
X11622606Y-2530106D02*
X11622606Y-2459394D01*
X11551894Y-2459394D01*
X11551894Y-2530106D01*
X11622606Y-2530106D01*
X11622606Y-2784106D02*
X11622606Y-2713394D01*
X11551894Y-2713394D01*
X11551894Y-2784106D01*
X11622606Y-2784106D01*
X11640506Y-10258006D02*
X11640506Y-10187294D01*
X11569794Y-10187294D01*
X11569794Y-10258006D01*
X11640506Y-10258006D01*
X11640506Y-10512006D02*
X11640506Y-10441294D01*
X11569794Y-10441294D01*
X11569794Y-10512006D01*
X11640506Y-10512006D01*
X11876606Y-2530106D02*
X11876606Y-2459394D01*
X11805894Y-2459394D01*
X11805894Y-2530106D01*
X11876606Y-2530106D01*
X11876606Y-2784106D02*
X11876606Y-2713394D01*
X11805894Y-2713394D01*
X11805894Y-2784106D01*
X11876606Y-2784106D01*
X11894506Y-10258006D02*
X11894506Y-10187294D01*
X11823794Y-10187294D01*
X11823794Y-10258006D01*
X11894506Y-10258006D01*
X11894506Y-10512006D02*
X11894506Y-10441294D01*
X11823794Y-10441294D01*
X11823794Y-10512006D01*
X11894506Y-10512006D01*
X12130606Y-2530106D02*
X12130606Y-2459394D01*
X12059894Y-2459394D01*
X12059894Y-2530106D01*
X12130606Y-2530106D01*
X12130606Y-2784106D02*
X12130606Y-2713394D01*
X12059894Y-2713394D01*
X12059894Y-2784106D01*
X12130606Y-2784106D01*
X12148506Y-10258006D02*
X12148506Y-10187294D01*
X12077794Y-10187294D01*
X12077794Y-10258006D01*
X12148506Y-10258006D01*
X12148506Y-10512006D02*
X12148506Y-10441294D01*
X12077794Y-10441294D01*
X12077794Y-10512006D01*
X12148506Y-10512006D01*
X12384606Y-2530106D02*
X12384606Y-2459394D01*
X12313894Y-2459394D01*
X12313894Y-2530106D01*
X12384606Y-2530106D01*
X12384606Y-2784106D02*
X12384606Y-2713394D01*
X12313894Y-2713394D01*
X12313894Y-2784106D01*
X12384606Y-2784106D01*
X12402506Y-10258006D02*
X12402506Y-10187294D01*
X12331794Y-10187294D01*
X12331794Y-10258006D01*
X12402506Y-10258006D01*
X12402506Y-10512006D02*
X12402506Y-10441294D01*
X12331794Y-10441294D01*
X12331794Y-10512006D01*
X12402506Y-10512006D01*
X12638606Y-2530106D02*
X12638606Y-2459394D01*
X12567894Y-2459394D01*
X12567894Y-2530106D01*
X12638606Y-2530106D01*
X12638606Y-2784106D02*
X12638606Y-2713394D01*
X12567894Y-2713394D01*
X12567894Y-2784106D01*
X12638606Y-2784106D01*
X12656506Y-10258006D02*
X12656506Y-10187294D01*
X12585794Y-10187294D01*
X12585794Y-10258006D01*
X12656506Y-10258006D01*
X12656506Y-10512006D02*
X12656506Y-10441294D01*
X12585794Y-10441294D01*
X12585794Y-10512006D01*
X12656506Y-10512006D01*
X12892606Y-2530106D02*
X12892606Y-2459394D01*
X12821894Y-2459394D01*
X12821894Y-2530106D01*
X12892606Y-2530106D01*
X12892606Y-2784106D02*
X12892606Y-2713394D01*
X12821894Y-2713394D01*
X12821894Y-2784106D01*
X12892606Y-2784106D01*
X12910506Y-10258006D02*
X12910506Y-10187294D01*
X12839794Y-10187294D01*
X12839794Y-10258006D01*
X12910506Y-10258006D01*
X12910506Y-10512006D02*
X12910506Y-10441294D01*
X12839794Y-10441294D01*
X12839794Y-10512006D01*
X12910506Y-10512006D01*
X13146606Y-2530106D02*
X13146606Y-2459394D01*
X13075894Y-2459394D01*
X13075894Y-2530106D01*
X13146606Y-2530106D01*
X13146606Y-2784106D02*
X13146606Y-2713394D01*
X13075894Y-2713394D01*
X13075894Y-2784106D01*
X13146606Y-2784106D01*
X13164506Y-10258006D02*
X13164506Y-10187294D01*
X13093794Y-10187294D01*
X13093794Y-10258006D01*
X13164506Y-10258006D01*
X13164506Y-10512006D02*
X13164506Y-10441294D01*
X13093794Y-10441294D01*
X13093794Y-10512006D01*
X13164506Y-10512006D01*
X13400606Y-2530106D02*
X13400606Y-2459394D01*
X13329894Y-2459394D01*
X13329894Y-2530106D01*
X13400606Y-2530106D01*
X13400606Y-2784106D02*
X13400606Y-2713394D01*
X13329894Y-2713394D01*
X13329894Y-2784106D01*
X13400606Y-2784106D01*
X13418506Y-10258006D02*
X13418506Y-10187294D01*
X13347794Y-10187294D01*
X13347794Y-10258006D01*
X13418506Y-10258006D01*
X13418506Y-10512006D02*
X13418506Y-10441294D01*
X13347794Y-10441294D01*
X13347794Y-10512006D01*
X13418506Y-10512006D01*
X13654606Y-2530106D02*
X13654606Y-2459394D01*
X13583894Y-2459394D01*
X13583894Y-2530106D01*
X13654606Y-2530106D01*
X13654606Y-2784106D02*
X13654606Y-2713394D01*
X13583894Y-2713394D01*
X13583894Y-2784106D01*
X13654606Y-2784106D01*
X13672506Y-10258006D02*
X13672506Y-10187294D01*
X13601794Y-10187294D01*
X13601794Y-10258006D01*
X13672506Y-10258006D01*
X13672506Y-10512006D02*
X13672506Y-10441294D01*
X13601794Y-10441294D01*
X13601794Y-10512006D01*
X13672506Y-10512006D01*
X16209606Y-9866606D02*
X16209606Y-9795894D01*
X16138894Y-9795894D01*
X16138894Y-9866606D01*
X16209606Y-9866606D01*
X16209606Y-10120606D02*
X16209606Y-10049894D01*
X16138894Y-10049894D01*
X16138894Y-10120606D01*
X16209606Y-10120606D01*
X16579606Y-9866606D02*
X16579606Y-9795894D01*
X16508894Y-9795894D01*
X16508894Y-9866606D01*
X16579606Y-9866606D01*
X16579606Y-10120606D02*
X16579606Y-10049894D01*
X16508894Y-10049894D01*
X16508894Y-10120606D01*
X16579606Y-10120606D01*
X18739606Y-3998106D02*
X18739606Y-3927394D01*
X18668894Y-3927394D01*
X18668894Y-3998106D01*
X18739606Y-3998106D01*
D12*
X18654250Y-3912750D02*
X18654250Y-4012750D01*
X18654250Y-4012750D02*
G75*
G03*
X18754250Y-4012750I50000J0D01*
G01*
X18754250Y-4012750D02*
X18754250Y-3912750D01*
X18754250Y-3912750D02*
G75*
G03*
X18654250Y-3912750I-50000J0D01*
G01*
D11*
X18739606Y-5683106D02*
X18739606Y-5612394D01*
X18668894Y-5612394D01*
X18668894Y-5683106D01*
X18739606Y-5683106D01*
D12*
X18654250Y-5597750D02*
X18654250Y-5697750D01*
X18654250Y-5697750D02*
G75*
G03*
X18754250Y-5697750I50000J0D01*
G01*
X18754250Y-5697750D02*
X18754250Y-5597750D01*
X18754250Y-5597750D02*
G75*
G03*
X18654250Y-5597750I-50000J0D01*
G01*
D11*
X19109606Y-4198106D02*
X19109606Y-4127394D01*
X19038894Y-4127394D01*
X19038894Y-4198106D01*
X19109606Y-4198106D01*
D12*
X19024250Y-4112750D02*
X19024250Y-4212750D01*
X19024250Y-4212750D02*
G75*
G03*
X19124250Y-4212750I50000J0D01*
G01*
X19124250Y-4212750D02*
X19124250Y-4112750D01*
X19124250Y-4112750D02*
G75*
G03*
X19024250Y-4112750I-50000J0D01*
G01*
D11*
X19109606Y-5883106D02*
X19109606Y-5812394D01*
X19038894Y-5812394D01*
X19038894Y-5883106D01*
X19109606Y-5883106D01*
D12*
X19024250Y-5797750D02*
X19024250Y-5897750D01*
X19024250Y-5897750D02*
G75*
G03*
X19124250Y-5897750I50000J0D01*
G01*
X19124250Y-5897750D02*
X19124250Y-5797750D01*
X19124250Y-5797750D02*
G75*
G03*
X19024250Y-5797750I-50000J0D01*
G01*
D11*
X19289606Y-3998106D02*
X19289606Y-3927394D01*
X19218894Y-3927394D01*
X19218894Y-3998106D01*
X19289606Y-3998106D01*
D12*
X19204250Y-3912750D02*
X19204250Y-4012750D01*
X19204250Y-4012750D02*
G75*
G03*
X19304250Y-4012750I50000J0D01*
G01*
X19304250Y-4012750D02*
X19304250Y-3912750D01*
X19304250Y-3912750D02*
G75*
G03*
X19204250Y-3912750I-50000J0D01*
G01*
D11*
X19289606Y-5683106D02*
X19289606Y-5612394D01*
X19218894Y-5612394D01*
X19218894Y-5683106D01*
X19289606Y-5683106D01*
D12*
X19204250Y-5597750D02*
X19204250Y-5697750D01*
X19204250Y-5697750D02*
G75*
G03*
X19304250Y-5697750I50000J0D01*
G01*
X19304250Y-5697750D02*
X19304250Y-5597750D01*
X19304250Y-5597750D02*
G75*
G03*
X19204250Y-5597750I-50000J0D01*
G01*
D11*
X19659606Y-4198106D02*
X19659606Y-4127394D01*
X19588894Y-4127394D01*
X19588894Y-4198106D01*
X19659606Y-4198106D01*
D12*
X19574250Y-4112750D02*
X19574250Y-4212750D01*
X19574250Y-4212750D02*
G75*
G03*
X19674250Y-4212750I50000J0D01*
G01*
X19674250Y-4212750D02*
X19674250Y-4112750D01*
X19674250Y-4112750D02*
G75*
G03*
X19574250Y-4112750I-50000J0D01*
G01*
D11*
X19659606Y-5883106D02*
X19659606Y-5812394D01*
X19588894Y-5812394D01*
X19588894Y-5883106D01*
X19659606Y-5883106D01*
D12*
X19574250Y-5797750D02*
X19574250Y-5897750D01*
X19574250Y-5897750D02*
G75*
G03*
X19674250Y-5897750I50000J0D01*
G01*
X19674250Y-5897750D02*
X19674250Y-5797750D01*
X19674250Y-5797750D02*
G75*
G03*
X19574250Y-5797750I-50000J0D01*
G01*
D11*
X19899606Y-3998106D02*
X19899606Y-3927394D01*
X19828894Y-3927394D01*
X19828894Y-3998106D01*
X19899606Y-3998106D01*
D12*
X19814250Y-3912750D02*
X19814250Y-4012750D01*
X19814250Y-4012750D02*
G75*
G03*
X19914250Y-4012750I50000J0D01*
G01*
X19914250Y-4012750D02*
X19914250Y-3912750D01*
X19914250Y-3912750D02*
G75*
G03*
X19814250Y-3912750I-50000J0D01*
G01*
D11*
X19899606Y-5683106D02*
X19899606Y-5612394D01*
X19828894Y-5612394D01*
X19828894Y-5683106D01*
X19899606Y-5683106D01*
D12*
X19814250Y-5597750D02*
X19814250Y-5697750D01*
X19814250Y-5697750D02*
G75*
G03*
X19914250Y-5697750I50000J0D01*
G01*
X19914250Y-5697750D02*
X19914250Y-5597750D01*
X19914250Y-5597750D02*
G75*
G03*
X19814250Y-5597750I-50000J0D01*
G01*
D15*
X19186470Y-8602250D02*
X19291470Y-8497250D01*
X19186470Y-8392250D01*
X19081470Y-8497250D01*
X19186470Y-8602250D01*
X19186470Y-10002250D02*
X19291470Y-9897250D01*
X19186470Y-9792250D01*
X19081470Y-9897250D01*
X19186470Y-10002250D01*
D16*
X19460120Y-4658050D02*
X19780120Y-4978050D01*
X19780120Y-4658050D02*
X19460120Y-4978050D01*
X19780120Y-4818050D02*
G75*
G03*
X19780120Y-4818050I-160000J0D01*
G01*
X19460120Y-10309550D02*
X19780120Y-10629550D01*
X19780120Y-10309550D02*
X19460120Y-10629550D01*
X19780120Y-10469550D02*
G75*
G03*
X19780120Y-10469550I-160000J0D01*
G01*
D12*
X9462277Y-12305109D02*
X9462277Y-12105109D01*
X9462277Y-12105109D02*
X9509896Y-12105109D01*
X9509896Y-12105109D02*
X9538467Y-12114633D01*
X9538467Y-12114633D02*
X9557515Y-12133680D01*
X9557515Y-12133680D02*
X9567039Y-12152728D01*
X9567039Y-12152728D02*
X9576563Y-12190823D01*
X9576563Y-12190823D02*
X9576563Y-12219394D01*
X9576563Y-12219394D02*
X9567039Y-12257490D01*
X9567039Y-12257490D02*
X9557515Y-12276537D01*
X9557515Y-12276537D02*
X9538467Y-12295585D01*
X9538467Y-12295585D02*
X9509896Y-12305109D01*
X9509896Y-12305109D02*
X9462277Y-12305109D01*
X9662277Y-12305109D02*
X9662277Y-12171775D01*
X9662277Y-12209871D02*
X9671801Y-12190823D01*
X9671801Y-12190823D02*
X9681324Y-12181299D01*
X9681324Y-12181299D02*
X9700372Y-12171775D01*
X9700372Y-12171775D02*
X9719420Y-12171775D01*
X9786086Y-12305109D02*
X9786086Y-12171775D01*
X9786086Y-12105109D02*
X9776563Y-12114633D01*
X9776563Y-12114633D02*
X9786086Y-12124156D01*
X9786086Y-12124156D02*
X9795610Y-12114633D01*
X9795610Y-12114633D02*
X9786086Y-12105109D01*
X9786086Y-12105109D02*
X9786086Y-12124156D01*
X9909896Y-12305109D02*
X9890848Y-12295585D01*
X9890848Y-12295585D02*
X9881324Y-12276537D01*
X9881324Y-12276537D02*
X9881324Y-12105109D01*
X10014658Y-12305109D02*
X9995610Y-12295585D01*
X9995610Y-12295585D02*
X9986086Y-12276537D01*
X9986086Y-12276537D02*
X9986086Y-12105109D01*
X10243229Y-12305109D02*
X10243229Y-12105109D01*
X10243229Y-12105109D02*
X10309896Y-12247966D01*
X10309896Y-12247966D02*
X10376563Y-12105109D01*
X10376563Y-12105109D02*
X10376563Y-12305109D01*
X10557515Y-12305109D02*
X10557515Y-12200347D01*
X10557515Y-12200347D02*
X10547991Y-12181299D01*
X10547991Y-12181299D02*
X10528944Y-12171775D01*
X10528944Y-12171775D02*
X10490848Y-12171775D01*
X10490848Y-12171775D02*
X10471801Y-12181299D01*
X10557515Y-12295585D02*
X10538467Y-12305109D01*
X10538467Y-12305109D02*
X10490848Y-12305109D01*
X10490848Y-12305109D02*
X10471801Y-12295585D01*
X10471801Y-12295585D02*
X10462277Y-12276537D01*
X10462277Y-12276537D02*
X10462277Y-12257490D01*
X10462277Y-12257490D02*
X10471801Y-12238442D01*
X10471801Y-12238442D02*
X10490848Y-12228918D01*
X10490848Y-12228918D02*
X10538467Y-12228918D01*
X10538467Y-12228918D02*
X10557515Y-12219394D01*
X10652753Y-12171775D02*
X10652753Y-12371775D01*
X10652753Y-12181299D02*
X10671801Y-12171775D01*
X10671801Y-12171775D02*
X10709896Y-12171775D01*
X10709896Y-12171775D02*
X10728944Y-12181299D01*
X10728944Y-12181299D02*
X10738467Y-12190823D01*
X10738467Y-12190823D02*
X10747991Y-12209871D01*
X10747991Y-12209871D02*
X10747991Y-12267013D01*
X10747991Y-12267013D02*
X10738467Y-12286061D01*
X10738467Y-12286061D02*
X10728944Y-12295585D01*
X10728944Y-12295585D02*
X10709896Y-12305109D01*
X10709896Y-12305109D02*
X10671801Y-12305109D01*
X10671801Y-12305109D02*
X10652753Y-12295585D01*
X10833705Y-12286061D02*
X10843229Y-12295585D01*
X10843229Y-12295585D02*
X10833705Y-12305109D01*
X10833705Y-12305109D02*
X10824182Y-12295585D01*
X10824182Y-12295585D02*
X10833705Y-12286061D01*
X10833705Y-12286061D02*
X10833705Y-12305109D01*
X10833705Y-12181299D02*
X10843229Y-12190823D01*
X10843229Y-12190823D02*
X10833705Y-12200347D01*
X10833705Y-12200347D02*
X10824182Y-12190823D01*
X10824182Y-12190823D02*
X10833705Y-12181299D01*
X10833705Y-12181299D02*
X10833705Y-12200347D01*
D13*
X9171500Y-12618625D02*
X9201500Y-12648625D01*
X9201500Y-12618625D02*
X9171500Y-12648625D01*
D12*
X9500372Y-12525109D02*
X9519420Y-12525109D01*
X9519420Y-12525109D02*
X9538467Y-12534633D01*
X9538467Y-12534633D02*
X9547991Y-12544156D01*
X9547991Y-12544156D02*
X9557515Y-12563204D01*
X9557515Y-12563204D02*
X9567039Y-12601299D01*
X9567039Y-12601299D02*
X9567039Y-12648918D01*
X9567039Y-12648918D02*
X9557515Y-12687013D01*
X9557515Y-12687013D02*
X9547991Y-12706061D01*
X9547991Y-12706061D02*
X9538467Y-12715585D01*
X9538467Y-12715585D02*
X9519420Y-12725109D01*
X9519420Y-12725109D02*
X9500372Y-12725109D01*
X9500372Y-12725109D02*
X9481324Y-12715585D01*
X9481324Y-12715585D02*
X9471801Y-12706061D01*
X9471801Y-12706061D02*
X9462277Y-12687013D01*
X9462277Y-12687013D02*
X9452753Y-12648918D01*
X9452753Y-12648918D02*
X9452753Y-12601299D01*
X9452753Y-12601299D02*
X9462277Y-12563204D01*
X9462277Y-12563204D02*
X9471801Y-12544156D01*
X9471801Y-12544156D02*
X9481324Y-12534633D01*
X9481324Y-12534633D02*
X9500372Y-12525109D01*
X9652753Y-12706061D02*
X9662277Y-12715585D01*
X9662277Y-12715585D02*
X9652753Y-12725109D01*
X9652753Y-12725109D02*
X9643229Y-12715585D01*
X9643229Y-12715585D02*
X9652753Y-12706061D01*
X9652753Y-12706061D02*
X9652753Y-12725109D01*
X9728944Y-12525109D02*
X9852753Y-12525109D01*
X9852753Y-12525109D02*
X9786086Y-12601299D01*
X9786086Y-12601299D02*
X9814658Y-12601299D01*
X9814658Y-12601299D02*
X9833705Y-12610823D01*
X9833705Y-12610823D02*
X9843229Y-12620347D01*
X9843229Y-12620347D02*
X9852753Y-12639394D01*
X9852753Y-12639394D02*
X9852753Y-12687013D01*
X9852753Y-12687013D02*
X9843229Y-12706061D01*
X9843229Y-12706061D02*
X9833705Y-12715585D01*
X9833705Y-12715585D02*
X9814658Y-12725109D01*
X9814658Y-12725109D02*
X9757515Y-12725109D01*
X9757515Y-12725109D02*
X9738467Y-12715585D01*
X9738467Y-12715585D02*
X9728944Y-12706061D01*
X9976563Y-12525109D02*
X9995610Y-12525109D01*
X9995610Y-12525109D02*
X10014658Y-12534633D01*
X10014658Y-12534633D02*
X10024182Y-12544156D01*
X10024182Y-12544156D02*
X10033705Y-12563204D01*
X10033705Y-12563204D02*
X10043229Y-12601299D01*
X10043229Y-12601299D02*
X10043229Y-12648918D01*
X10043229Y-12648918D02*
X10033705Y-12687013D01*
X10033705Y-12687013D02*
X10024182Y-12706061D01*
X10024182Y-12706061D02*
X10014658Y-12715585D01*
X10014658Y-12715585D02*
X9995610Y-12725109D01*
X9995610Y-12725109D02*
X9976563Y-12725109D01*
X9976563Y-12725109D02*
X9957515Y-12715585D01*
X9957515Y-12715585D02*
X9947991Y-12706061D01*
X9947991Y-12706061D02*
X9938467Y-12687013D01*
X9938467Y-12687013D02*
X9928944Y-12648918D01*
X9928944Y-12648918D02*
X9928944Y-12601299D01*
X9928944Y-12601299D02*
X9938467Y-12563204D01*
X9938467Y-12563204D02*
X9947991Y-12544156D01*
X9947991Y-12544156D02*
X9957515Y-12534633D01*
X9957515Y-12534633D02*
X9976563Y-12525109D01*
X10167039Y-12525109D02*
X10186086Y-12525109D01*
X10186086Y-12525109D02*
X10205134Y-12534633D01*
X10205134Y-12534633D02*
X10214658Y-12544156D01*
X10214658Y-12544156D02*
X10224182Y-12563204D01*
X10224182Y-12563204D02*
X10233705Y-12601299D01*
X10233705Y-12601299D02*
X10233705Y-12648918D01*
X10233705Y-12648918D02*
X10224182Y-12687013D01*
X10224182Y-12687013D02*
X10214658Y-12706061D01*
X10214658Y-12706061D02*
X10205134Y-12715585D01*
X10205134Y-12715585D02*
X10186086Y-12725109D01*
X10186086Y-12725109D02*
X10167039Y-12725109D01*
X10167039Y-12725109D02*
X10147991Y-12715585D01*
X10147991Y-12715585D02*
X10138467Y-12706061D01*
X10138467Y-12706061D02*
X10128944Y-12687013D01*
X10128944Y-12687013D02*
X10119420Y-12648918D01*
X10119420Y-12648918D02*
X10119420Y-12601299D01*
X10119420Y-12601299D02*
X10128944Y-12563204D01*
X10128944Y-12563204D02*
X10138467Y-12544156D01*
X10138467Y-12544156D02*
X10147991Y-12534633D01*
X10147991Y-12534633D02*
X10167039Y-12525109D01*
X10319420Y-12725109D02*
X10319420Y-12591775D01*
X10319420Y-12610823D02*
X10328944Y-12601299D01*
X10328944Y-12601299D02*
X10347991Y-12591775D01*
X10347991Y-12591775D02*
X10376563Y-12591775D01*
X10376563Y-12591775D02*
X10395610Y-12601299D01*
X10395610Y-12601299D02*
X10405134Y-12620347D01*
X10405134Y-12620347D02*
X10405134Y-12725109D01*
X10405134Y-12620347D02*
X10414658Y-12601299D01*
X10414658Y-12601299D02*
X10433705Y-12591775D01*
X10433705Y-12591775D02*
X10462277Y-12591775D01*
X10462277Y-12591775D02*
X10481325Y-12601299D01*
X10481325Y-12601299D02*
X10490848Y-12620347D01*
X10490848Y-12620347D02*
X10490848Y-12725109D01*
X10586086Y-12725109D02*
X10586086Y-12591775D01*
X10586086Y-12610823D02*
X10595610Y-12601299D01*
X10595610Y-12601299D02*
X10614658Y-12591775D01*
X10614658Y-12591775D02*
X10643229Y-12591775D01*
X10643229Y-12591775D02*
X10662277Y-12601299D01*
X10662277Y-12601299D02*
X10671801Y-12620347D01*
X10671801Y-12620347D02*
X10671801Y-12725109D01*
X10671801Y-12620347D02*
X10681325Y-12601299D01*
X10681325Y-12601299D02*
X10700372Y-12591775D01*
X10700372Y-12591775D02*
X10728944Y-12591775D01*
X10728944Y-12591775D02*
X10747991Y-12601299D01*
X10747991Y-12601299D02*
X10757515Y-12620347D01*
X10757515Y-12620347D02*
X10757515Y-12725109D01*
X11147991Y-12515585D02*
X10976563Y-12772728D01*
X11405134Y-12525109D02*
X11424182Y-12525109D01*
X11424182Y-12525109D02*
X11443229Y-12534633D01*
X11443229Y-12534633D02*
X11452753Y-12544156D01*
X11452753Y-12544156D02*
X11462277Y-12563204D01*
X11462277Y-12563204D02*
X11471801Y-12601299D01*
X11471801Y-12601299D02*
X11471801Y-12648918D01*
X11471801Y-12648918D02*
X11462277Y-12687013D01*
X11462277Y-12687013D02*
X11452753Y-12706061D01*
X11452753Y-12706061D02*
X11443229Y-12715585D01*
X11443229Y-12715585D02*
X11424182Y-12725109D01*
X11424182Y-12725109D02*
X11405134Y-12725109D01*
X11405134Y-12725109D02*
X11386086Y-12715585D01*
X11386086Y-12715585D02*
X11376563Y-12706061D01*
X11376563Y-12706061D02*
X11367039Y-12687013D01*
X11367039Y-12687013D02*
X11357515Y-12648918D01*
X11357515Y-12648918D02*
X11357515Y-12601299D01*
X11357515Y-12601299D02*
X11367039Y-12563204D01*
X11367039Y-12563204D02*
X11376563Y-12544156D01*
X11376563Y-12544156D02*
X11386086Y-12534633D01*
X11386086Y-12534633D02*
X11405134Y-12525109D01*
X11557515Y-12706061D02*
X11567039Y-12715585D01*
X11567039Y-12715585D02*
X11557515Y-12725109D01*
X11557515Y-12725109D02*
X11547991Y-12715585D01*
X11547991Y-12715585D02*
X11557515Y-12706061D01*
X11557515Y-12706061D02*
X11557515Y-12725109D01*
X11690848Y-12525109D02*
X11709896Y-12525109D01*
X11709896Y-12525109D02*
X11728944Y-12534633D01*
X11728944Y-12534633D02*
X11738467Y-12544156D01*
X11738467Y-12544156D02*
X11747991Y-12563204D01*
X11747991Y-12563204D02*
X11757515Y-12601299D01*
X11757515Y-12601299D02*
X11757515Y-12648918D01*
X11757515Y-12648918D02*
X11747991Y-12687013D01*
X11747991Y-12687013D02*
X11738467Y-12706061D01*
X11738467Y-12706061D02*
X11728944Y-12715585D01*
X11728944Y-12715585D02*
X11709896Y-12725109D01*
X11709896Y-12725109D02*
X11690848Y-12725109D01*
X11690848Y-12725109D02*
X11671801Y-12715585D01*
X11671801Y-12715585D02*
X11662277Y-12706061D01*
X11662277Y-12706061D02*
X11652753Y-12687013D01*
X11652753Y-12687013D02*
X11643229Y-12648918D01*
X11643229Y-12648918D02*
X11643229Y-12601299D01*
X11643229Y-12601299D02*
X11652753Y-12563204D01*
X11652753Y-12563204D02*
X11662277Y-12544156D01*
X11662277Y-12544156D02*
X11671801Y-12534633D01*
X11671801Y-12534633D02*
X11690848Y-12525109D01*
X11947991Y-12725109D02*
X11833706Y-12725109D01*
X11890848Y-12725109D02*
X11890848Y-12525109D01*
X11890848Y-12525109D02*
X11871801Y-12553680D01*
X11871801Y-12553680D02*
X11852753Y-12572728D01*
X11852753Y-12572728D02*
X11833706Y-12582252D01*
X12138467Y-12725109D02*
X12024182Y-12725109D01*
X12081325Y-12725109D02*
X12081325Y-12525109D01*
X12081325Y-12525109D02*
X12062277Y-12553680D01*
X12062277Y-12553680D02*
X12043229Y-12572728D01*
X12043229Y-12572728D02*
X12024182Y-12582252D01*
X12252753Y-12610823D02*
X12233706Y-12601299D01*
X12233706Y-12601299D02*
X12224182Y-12591775D01*
X12224182Y-12591775D02*
X12214658Y-12572728D01*
X12214658Y-12572728D02*
X12214658Y-12563204D01*
X12214658Y-12563204D02*
X12224182Y-12544156D01*
X12224182Y-12544156D02*
X12233706Y-12534633D01*
X12233706Y-12534633D02*
X12252753Y-12525109D01*
X12252753Y-12525109D02*
X12290848Y-12525109D01*
X12290848Y-12525109D02*
X12309896Y-12534633D01*
X12309896Y-12534633D02*
X12319420Y-12544156D01*
X12319420Y-12544156D02*
X12328944Y-12563204D01*
X12328944Y-12563204D02*
X12328944Y-12572728D01*
X12328944Y-12572728D02*
X12319420Y-12591775D01*
X12319420Y-12591775D02*
X12309896Y-12601299D01*
X12309896Y-12601299D02*
X12290848Y-12610823D01*
X12290848Y-12610823D02*
X12252753Y-12610823D01*
X12252753Y-12610823D02*
X12233706Y-12620347D01*
X12233706Y-12620347D02*
X12224182Y-12629871D01*
X12224182Y-12629871D02*
X12214658Y-12648918D01*
X12214658Y-12648918D02*
X12214658Y-12687013D01*
X12214658Y-12687013D02*
X12224182Y-12706061D01*
X12224182Y-12706061D02*
X12233706Y-12715585D01*
X12233706Y-12715585D02*
X12252753Y-12725109D01*
X12252753Y-12725109D02*
X12290848Y-12725109D01*
X12290848Y-12725109D02*
X12309896Y-12715585D01*
X12309896Y-12715585D02*
X12319420Y-12706061D01*
X12319420Y-12706061D02*
X12328944Y-12687013D01*
X12328944Y-12687013D02*
X12328944Y-12648918D01*
X12328944Y-12648918D02*
X12319420Y-12629871D01*
X12319420Y-12629871D02*
X12309896Y-12620347D01*
X12309896Y-12620347D02*
X12290848Y-12610823D01*
X12405134Y-12525109D02*
X12405134Y-12563204D01*
X12481325Y-12525109D02*
X12481325Y-12563204D01*
X12776563Y-12801299D02*
X12767039Y-12791775D01*
X12767039Y-12791775D02*
X12747991Y-12763204D01*
X12747991Y-12763204D02*
X12738468Y-12744156D01*
X12738468Y-12744156D02*
X12728944Y-12715585D01*
X12728944Y-12715585D02*
X12719420Y-12667966D01*
X12719420Y-12667966D02*
X12719420Y-12629871D01*
X12719420Y-12629871D02*
X12728944Y-12582252D01*
X12728944Y-12582252D02*
X12738468Y-12553680D01*
X12738468Y-12553680D02*
X12747991Y-12534633D01*
X12747991Y-12534633D02*
X12767039Y-12506061D01*
X12767039Y-12506061D02*
X12776563Y-12496537D01*
X12833706Y-12525109D02*
X12957515Y-12525109D01*
X12957515Y-12525109D02*
X12890848Y-12601299D01*
X12890848Y-12601299D02*
X12919420Y-12601299D01*
X12919420Y-12601299D02*
X12938468Y-12610823D01*
X12938468Y-12610823D02*
X12947991Y-12620347D01*
X12947991Y-12620347D02*
X12957515Y-12639394D01*
X12957515Y-12639394D02*
X12957515Y-12687013D01*
X12957515Y-12687013D02*
X12947991Y-12706061D01*
X12947991Y-12706061D02*
X12938468Y-12715585D01*
X12938468Y-12715585D02*
X12919420Y-12725109D01*
X12919420Y-12725109D02*
X12862277Y-12725109D01*
X12862277Y-12725109D02*
X12843229Y-12715585D01*
X12843229Y-12715585D02*
X12833706Y-12706061D01*
X13024182Y-12525109D02*
X13157515Y-12525109D01*
X13157515Y-12525109D02*
X13071801Y-12725109D01*
X13319420Y-12591775D02*
X13319420Y-12725109D01*
X13271801Y-12515585D02*
X13224182Y-12658442D01*
X13224182Y-12658442D02*
X13347991Y-12658442D01*
X13576563Y-12725109D02*
X13576563Y-12525109D01*
X13662277Y-12725109D02*
X13662277Y-12620347D01*
X13662277Y-12620347D02*
X13652753Y-12601299D01*
X13652753Y-12601299D02*
X13633706Y-12591775D01*
X13633706Y-12591775D02*
X13605134Y-12591775D01*
X13605134Y-12591775D02*
X13586087Y-12601299D01*
X13586087Y-12601299D02*
X13576563Y-12610823D01*
X13786087Y-12725109D02*
X13767039Y-12715585D01*
X13767039Y-12715585D02*
X13757515Y-12706061D01*
X13757515Y-12706061D02*
X13747991Y-12687013D01*
X13747991Y-12687013D02*
X13747991Y-12629871D01*
X13747991Y-12629871D02*
X13757515Y-12610823D01*
X13757515Y-12610823D02*
X13767039Y-12601299D01*
X13767039Y-12601299D02*
X13786087Y-12591775D01*
X13786087Y-12591775D02*
X13814658Y-12591775D01*
X13814658Y-12591775D02*
X13833706Y-12601299D01*
X13833706Y-12601299D02*
X13843230Y-12610823D01*
X13843230Y-12610823D02*
X13852753Y-12629871D01*
X13852753Y-12629871D02*
X13852753Y-12687013D01*
X13852753Y-12687013D02*
X13843230Y-12706061D01*
X13843230Y-12706061D02*
X13833706Y-12715585D01*
X13833706Y-12715585D02*
X13814658Y-12725109D01*
X13814658Y-12725109D02*
X13786087Y-12725109D01*
X13967039Y-12725109D02*
X13947991Y-12715585D01*
X13947991Y-12715585D02*
X13938468Y-12696537D01*
X13938468Y-12696537D02*
X13938468Y-12525109D01*
X14119420Y-12715585D02*
X14100372Y-12725109D01*
X14100372Y-12725109D02*
X14062277Y-12725109D01*
X14062277Y-12725109D02*
X14043230Y-12715585D01*
X14043230Y-12715585D02*
X14033706Y-12696537D01*
X14033706Y-12696537D02*
X14033706Y-12620347D01*
X14033706Y-12620347D02*
X14043230Y-12601299D01*
X14043230Y-12601299D02*
X14062277Y-12591775D01*
X14062277Y-12591775D02*
X14100372Y-12591775D01*
X14100372Y-12591775D02*
X14119420Y-12601299D01*
X14119420Y-12601299D02*
X14128944Y-12620347D01*
X14128944Y-12620347D02*
X14128944Y-12639394D01*
X14128944Y-12639394D02*
X14033706Y-12658442D01*
X14205134Y-12715585D02*
X14224182Y-12725109D01*
X14224182Y-12725109D02*
X14262277Y-12725109D01*
X14262277Y-12725109D02*
X14281325Y-12715585D01*
X14281325Y-12715585D02*
X14290849Y-12696537D01*
X14290849Y-12696537D02*
X14290849Y-12687013D01*
X14290849Y-12687013D02*
X14281325Y-12667966D01*
X14281325Y-12667966D02*
X14262277Y-12658442D01*
X14262277Y-12658442D02*
X14233706Y-12658442D01*
X14233706Y-12658442D02*
X14214658Y-12648918D01*
X14214658Y-12648918D02*
X14205134Y-12629871D01*
X14205134Y-12629871D02*
X14205134Y-12620347D01*
X14205134Y-12620347D02*
X14214658Y-12601299D01*
X14214658Y-12601299D02*
X14233706Y-12591775D01*
X14233706Y-12591775D02*
X14262277Y-12591775D01*
X14262277Y-12591775D02*
X14281325Y-12601299D01*
X14357515Y-12801299D02*
X14367039Y-12791775D01*
X14367039Y-12791775D02*
X14386087Y-12763204D01*
X14386087Y-12763204D02*
X14395611Y-12744156D01*
X14395611Y-12744156D02*
X14405134Y-12715585D01*
X14405134Y-12715585D02*
X14414658Y-12667966D01*
X14414658Y-12667966D02*
X14414658Y-12629871D01*
X14414658Y-12629871D02*
X14405134Y-12582252D01*
X14405134Y-12582252D02*
X14395611Y-12553680D01*
X14395611Y-12553680D02*
X14386087Y-12534633D01*
X14386087Y-12534633D02*
X14367039Y-12506061D01*
X14367039Y-12506061D02*
X14357515Y-12496537D01*
D13*
X9201500Y-12897625D02*
G75*
G03*
X9201500Y-12897625I-15000J0D01*
G01*
D12*
X9500372Y-12789109D02*
X9519420Y-12789109D01*
X9519420Y-12789109D02*
X9538467Y-12798633D01*
X9538467Y-12798633D02*
X9547991Y-12808156D01*
X9547991Y-12808156D02*
X9557515Y-12827204D01*
X9557515Y-12827204D02*
X9567039Y-12865299D01*
X9567039Y-12865299D02*
X9567039Y-12912918D01*
X9567039Y-12912918D02*
X9557515Y-12951013D01*
X9557515Y-12951013D02*
X9547991Y-12970061D01*
X9547991Y-12970061D02*
X9538467Y-12979585D01*
X9538467Y-12979585D02*
X9519420Y-12989109D01*
X9519420Y-12989109D02*
X9500372Y-12989109D01*
X9500372Y-12989109D02*
X9481324Y-12979585D01*
X9481324Y-12979585D02*
X9471801Y-12970061D01*
X9471801Y-12970061D02*
X9462277Y-12951013D01*
X9462277Y-12951013D02*
X9452753Y-12912918D01*
X9452753Y-12912918D02*
X9452753Y-12865299D01*
X9452753Y-12865299D02*
X9462277Y-12827204D01*
X9462277Y-12827204D02*
X9471801Y-12808156D01*
X9471801Y-12808156D02*
X9481324Y-12798633D01*
X9481324Y-12798633D02*
X9500372Y-12789109D01*
X9652753Y-12970061D02*
X9662277Y-12979585D01*
X9662277Y-12979585D02*
X9652753Y-12989109D01*
X9652753Y-12989109D02*
X9643229Y-12979585D01*
X9643229Y-12979585D02*
X9652753Y-12970061D01*
X9652753Y-12970061D02*
X9652753Y-12989109D01*
X9728944Y-12789109D02*
X9852753Y-12789109D01*
X9852753Y-12789109D02*
X9786086Y-12865299D01*
X9786086Y-12865299D02*
X9814658Y-12865299D01*
X9814658Y-12865299D02*
X9833705Y-12874823D01*
X9833705Y-12874823D02*
X9843229Y-12884347D01*
X9843229Y-12884347D02*
X9852753Y-12903394D01*
X9852753Y-12903394D02*
X9852753Y-12951013D01*
X9852753Y-12951013D02*
X9843229Y-12970061D01*
X9843229Y-12970061D02*
X9833705Y-12979585D01*
X9833705Y-12979585D02*
X9814658Y-12989109D01*
X9814658Y-12989109D02*
X9757515Y-12989109D01*
X9757515Y-12989109D02*
X9738467Y-12979585D01*
X9738467Y-12979585D02*
X9728944Y-12970061D01*
X9976563Y-12789109D02*
X9995610Y-12789109D01*
X9995610Y-12789109D02*
X10014658Y-12798633D01*
X10014658Y-12798633D02*
X10024182Y-12808156D01*
X10024182Y-12808156D02*
X10033705Y-12827204D01*
X10033705Y-12827204D02*
X10043229Y-12865299D01*
X10043229Y-12865299D02*
X10043229Y-12912918D01*
X10043229Y-12912918D02*
X10033705Y-12951013D01*
X10033705Y-12951013D02*
X10024182Y-12970061D01*
X10024182Y-12970061D02*
X10014658Y-12979585D01*
X10014658Y-12979585D02*
X9995610Y-12989109D01*
X9995610Y-12989109D02*
X9976563Y-12989109D01*
X9976563Y-12989109D02*
X9957515Y-12979585D01*
X9957515Y-12979585D02*
X9947991Y-12970061D01*
X9947991Y-12970061D02*
X9938467Y-12951013D01*
X9938467Y-12951013D02*
X9928944Y-12912918D01*
X9928944Y-12912918D02*
X9928944Y-12865299D01*
X9928944Y-12865299D02*
X9938467Y-12827204D01*
X9938467Y-12827204D02*
X9947991Y-12808156D01*
X9947991Y-12808156D02*
X9957515Y-12798633D01*
X9957515Y-12798633D02*
X9976563Y-12789109D01*
X10167039Y-12789109D02*
X10186086Y-12789109D01*
X10186086Y-12789109D02*
X10205134Y-12798633D01*
X10205134Y-12798633D02*
X10214658Y-12808156D01*
X10214658Y-12808156D02*
X10224182Y-12827204D01*
X10224182Y-12827204D02*
X10233705Y-12865299D01*
X10233705Y-12865299D02*
X10233705Y-12912918D01*
X10233705Y-12912918D02*
X10224182Y-12951013D01*
X10224182Y-12951013D02*
X10214658Y-12970061D01*
X10214658Y-12970061D02*
X10205134Y-12979585D01*
X10205134Y-12979585D02*
X10186086Y-12989109D01*
X10186086Y-12989109D02*
X10167039Y-12989109D01*
X10167039Y-12989109D02*
X10147991Y-12979585D01*
X10147991Y-12979585D02*
X10138467Y-12970061D01*
X10138467Y-12970061D02*
X10128944Y-12951013D01*
X10128944Y-12951013D02*
X10119420Y-12912918D01*
X10119420Y-12912918D02*
X10119420Y-12865299D01*
X10119420Y-12865299D02*
X10128944Y-12827204D01*
X10128944Y-12827204D02*
X10138467Y-12808156D01*
X10138467Y-12808156D02*
X10147991Y-12798633D01*
X10147991Y-12798633D02*
X10167039Y-12789109D01*
X10319420Y-12989109D02*
X10319420Y-12855775D01*
X10319420Y-12874823D02*
X10328944Y-12865299D01*
X10328944Y-12865299D02*
X10347991Y-12855775D01*
X10347991Y-12855775D02*
X10376563Y-12855775D01*
X10376563Y-12855775D02*
X10395610Y-12865299D01*
X10395610Y-12865299D02*
X10405134Y-12884347D01*
X10405134Y-12884347D02*
X10405134Y-12989109D01*
X10405134Y-12884347D02*
X10414658Y-12865299D01*
X10414658Y-12865299D02*
X10433705Y-12855775D01*
X10433705Y-12855775D02*
X10462277Y-12855775D01*
X10462277Y-12855775D02*
X10481325Y-12865299D01*
X10481325Y-12865299D02*
X10490848Y-12884347D01*
X10490848Y-12884347D02*
X10490848Y-12989109D01*
X10586086Y-12989109D02*
X10586086Y-12855775D01*
X10586086Y-12874823D02*
X10595610Y-12865299D01*
X10595610Y-12865299D02*
X10614658Y-12855775D01*
X10614658Y-12855775D02*
X10643229Y-12855775D01*
X10643229Y-12855775D02*
X10662277Y-12865299D01*
X10662277Y-12865299D02*
X10671801Y-12884347D01*
X10671801Y-12884347D02*
X10671801Y-12989109D01*
X10671801Y-12884347D02*
X10681325Y-12865299D01*
X10681325Y-12865299D02*
X10700372Y-12855775D01*
X10700372Y-12855775D02*
X10728944Y-12855775D01*
X10728944Y-12855775D02*
X10747991Y-12865299D01*
X10747991Y-12865299D02*
X10757515Y-12884347D01*
X10757515Y-12884347D02*
X10757515Y-12989109D01*
X11147991Y-12779585D02*
X10976563Y-13036728D01*
X11405134Y-12789109D02*
X11424182Y-12789109D01*
X11424182Y-12789109D02*
X11443229Y-12798633D01*
X11443229Y-12798633D02*
X11452753Y-12808156D01*
X11452753Y-12808156D02*
X11462277Y-12827204D01*
X11462277Y-12827204D02*
X11471801Y-12865299D01*
X11471801Y-12865299D02*
X11471801Y-12912918D01*
X11471801Y-12912918D02*
X11462277Y-12951013D01*
X11462277Y-12951013D02*
X11452753Y-12970061D01*
X11452753Y-12970061D02*
X11443229Y-12979585D01*
X11443229Y-12979585D02*
X11424182Y-12989109D01*
X11424182Y-12989109D02*
X11405134Y-12989109D01*
X11405134Y-12989109D02*
X11386086Y-12979585D01*
X11386086Y-12979585D02*
X11376563Y-12970061D01*
X11376563Y-12970061D02*
X11367039Y-12951013D01*
X11367039Y-12951013D02*
X11357515Y-12912918D01*
X11357515Y-12912918D02*
X11357515Y-12865299D01*
X11357515Y-12865299D02*
X11367039Y-12827204D01*
X11367039Y-12827204D02*
X11376563Y-12808156D01*
X11376563Y-12808156D02*
X11386086Y-12798633D01*
X11386086Y-12798633D02*
X11405134Y-12789109D01*
X11557515Y-12970061D02*
X11567039Y-12979585D01*
X11567039Y-12979585D02*
X11557515Y-12989109D01*
X11557515Y-12989109D02*
X11547991Y-12979585D01*
X11547991Y-12979585D02*
X11557515Y-12970061D01*
X11557515Y-12970061D02*
X11557515Y-12989109D01*
X11690848Y-12789109D02*
X11709896Y-12789109D01*
X11709896Y-12789109D02*
X11728944Y-12798633D01*
X11728944Y-12798633D02*
X11738467Y-12808156D01*
X11738467Y-12808156D02*
X11747991Y-12827204D01*
X11747991Y-12827204D02*
X11757515Y-12865299D01*
X11757515Y-12865299D02*
X11757515Y-12912918D01*
X11757515Y-12912918D02*
X11747991Y-12951013D01*
X11747991Y-12951013D02*
X11738467Y-12970061D01*
X11738467Y-12970061D02*
X11728944Y-12979585D01*
X11728944Y-12979585D02*
X11709896Y-12989109D01*
X11709896Y-12989109D02*
X11690848Y-12989109D01*
X11690848Y-12989109D02*
X11671801Y-12979585D01*
X11671801Y-12979585D02*
X11662277Y-12970061D01*
X11662277Y-12970061D02*
X11652753Y-12951013D01*
X11652753Y-12951013D02*
X11643229Y-12912918D01*
X11643229Y-12912918D02*
X11643229Y-12865299D01*
X11643229Y-12865299D02*
X11652753Y-12827204D01*
X11652753Y-12827204D02*
X11662277Y-12808156D01*
X11662277Y-12808156D02*
X11671801Y-12798633D01*
X11671801Y-12798633D02*
X11690848Y-12789109D01*
X11947991Y-12989109D02*
X11833706Y-12989109D01*
X11890848Y-12989109D02*
X11890848Y-12789109D01*
X11890848Y-12789109D02*
X11871801Y-12817680D01*
X11871801Y-12817680D02*
X11852753Y-12836728D01*
X11852753Y-12836728D02*
X11833706Y-12846252D01*
X12138467Y-12989109D02*
X12024182Y-12989109D01*
X12081325Y-12989109D02*
X12081325Y-12789109D01*
X12081325Y-12789109D02*
X12062277Y-12817680D01*
X12062277Y-12817680D02*
X12043229Y-12836728D01*
X12043229Y-12836728D02*
X12024182Y-12846252D01*
X12252753Y-12874823D02*
X12233706Y-12865299D01*
X12233706Y-12865299D02*
X12224182Y-12855775D01*
X12224182Y-12855775D02*
X12214658Y-12836728D01*
X12214658Y-12836728D02*
X12214658Y-12827204D01*
X12214658Y-12827204D02*
X12224182Y-12808156D01*
X12224182Y-12808156D02*
X12233706Y-12798633D01*
X12233706Y-12798633D02*
X12252753Y-12789109D01*
X12252753Y-12789109D02*
X12290848Y-12789109D01*
X12290848Y-12789109D02*
X12309896Y-12798633D01*
X12309896Y-12798633D02*
X12319420Y-12808156D01*
X12319420Y-12808156D02*
X12328944Y-12827204D01*
X12328944Y-12827204D02*
X12328944Y-12836728D01*
X12328944Y-12836728D02*
X12319420Y-12855775D01*
X12319420Y-12855775D02*
X12309896Y-12865299D01*
X12309896Y-12865299D02*
X12290848Y-12874823D01*
X12290848Y-12874823D02*
X12252753Y-12874823D01*
X12252753Y-12874823D02*
X12233706Y-12884347D01*
X12233706Y-12884347D02*
X12224182Y-12893871D01*
X12224182Y-12893871D02*
X12214658Y-12912918D01*
X12214658Y-12912918D02*
X12214658Y-12951013D01*
X12214658Y-12951013D02*
X12224182Y-12970061D01*
X12224182Y-12970061D02*
X12233706Y-12979585D01*
X12233706Y-12979585D02*
X12252753Y-12989109D01*
X12252753Y-12989109D02*
X12290848Y-12989109D01*
X12290848Y-12989109D02*
X12309896Y-12979585D01*
X12309896Y-12979585D02*
X12319420Y-12970061D01*
X12319420Y-12970061D02*
X12328944Y-12951013D01*
X12328944Y-12951013D02*
X12328944Y-12912918D01*
X12328944Y-12912918D02*
X12319420Y-12893871D01*
X12319420Y-12893871D02*
X12309896Y-12884347D01*
X12309896Y-12884347D02*
X12290848Y-12874823D01*
X12405134Y-12789109D02*
X12405134Y-12827204D01*
X12481325Y-12789109D02*
X12481325Y-12827204D01*
X12776563Y-13065299D02*
X12767039Y-13055775D01*
X12767039Y-13055775D02*
X12747991Y-13027204D01*
X12747991Y-13027204D02*
X12738468Y-13008156D01*
X12738468Y-13008156D02*
X12728944Y-12979585D01*
X12728944Y-12979585D02*
X12719420Y-12931966D01*
X12719420Y-12931966D02*
X12719420Y-12893871D01*
X12719420Y-12893871D02*
X12728944Y-12846252D01*
X12728944Y-12846252D02*
X12738468Y-12817680D01*
X12738468Y-12817680D02*
X12747991Y-12798633D01*
X12747991Y-12798633D02*
X12767039Y-12770061D01*
X12767039Y-12770061D02*
X12776563Y-12760537D01*
X12862277Y-12989109D02*
X12900372Y-12989109D01*
X12900372Y-12989109D02*
X12919420Y-12979585D01*
X12919420Y-12979585D02*
X12928944Y-12970061D01*
X12928944Y-12970061D02*
X12947991Y-12941490D01*
X12947991Y-12941490D02*
X12957515Y-12903394D01*
X12957515Y-12903394D02*
X12957515Y-12827204D01*
X12957515Y-12827204D02*
X12947991Y-12808156D01*
X12947991Y-12808156D02*
X12938468Y-12798633D01*
X12938468Y-12798633D02*
X12919420Y-12789109D01*
X12919420Y-12789109D02*
X12881325Y-12789109D01*
X12881325Y-12789109D02*
X12862277Y-12798633D01*
X12862277Y-12798633D02*
X12852753Y-12808156D01*
X12852753Y-12808156D02*
X12843229Y-12827204D01*
X12843229Y-12827204D02*
X12843229Y-12874823D01*
X12843229Y-12874823D02*
X12852753Y-12893871D01*
X12852753Y-12893871D02*
X12862277Y-12903394D01*
X12862277Y-12903394D02*
X12881325Y-12912918D01*
X12881325Y-12912918D02*
X12919420Y-12912918D01*
X12919420Y-12912918D02*
X12938468Y-12903394D01*
X12938468Y-12903394D02*
X12947991Y-12893871D01*
X12947991Y-12893871D02*
X12957515Y-12874823D01*
X13195610Y-12989109D02*
X13195610Y-12789109D01*
X13281325Y-12989109D02*
X13281325Y-12884347D01*
X13281325Y-12884347D02*
X13271801Y-12865299D01*
X13271801Y-12865299D02*
X13252753Y-12855775D01*
X13252753Y-12855775D02*
X13224182Y-12855775D01*
X13224182Y-12855775D02*
X13205134Y-12865299D01*
X13205134Y-12865299D02*
X13195610Y-12874823D01*
X13405134Y-12989109D02*
X13386087Y-12979585D01*
X13386087Y-12979585D02*
X13376563Y-12970061D01*
X13376563Y-12970061D02*
X13367039Y-12951013D01*
X13367039Y-12951013D02*
X13367039Y-12893871D01*
X13367039Y-12893871D02*
X13376563Y-12874823D01*
X13376563Y-12874823D02*
X13386087Y-12865299D01*
X13386087Y-12865299D02*
X13405134Y-12855775D01*
X13405134Y-12855775D02*
X13433706Y-12855775D01*
X13433706Y-12855775D02*
X13452753Y-12865299D01*
X13452753Y-12865299D02*
X13462277Y-12874823D01*
X13462277Y-12874823D02*
X13471801Y-12893871D01*
X13471801Y-12893871D02*
X13471801Y-12951013D01*
X13471801Y-12951013D02*
X13462277Y-12970061D01*
X13462277Y-12970061D02*
X13452753Y-12979585D01*
X13452753Y-12979585D02*
X13433706Y-12989109D01*
X13433706Y-12989109D02*
X13405134Y-12989109D01*
X13586087Y-12989109D02*
X13567039Y-12979585D01*
X13567039Y-12979585D02*
X13557515Y-12960537D01*
X13557515Y-12960537D02*
X13557515Y-12789109D01*
X13738468Y-12979585D02*
X13719420Y-12989109D01*
X13719420Y-12989109D02*
X13681325Y-12989109D01*
X13681325Y-12989109D02*
X13662277Y-12979585D01*
X13662277Y-12979585D02*
X13652753Y-12960537D01*
X13652753Y-12960537D02*
X13652753Y-12884347D01*
X13652753Y-12884347D02*
X13662277Y-12865299D01*
X13662277Y-12865299D02*
X13681325Y-12855775D01*
X13681325Y-12855775D02*
X13719420Y-12855775D01*
X13719420Y-12855775D02*
X13738468Y-12865299D01*
X13738468Y-12865299D02*
X13747991Y-12884347D01*
X13747991Y-12884347D02*
X13747991Y-12903394D01*
X13747991Y-12903394D02*
X13652753Y-12922442D01*
X13824182Y-12979585D02*
X13843230Y-12989109D01*
X13843230Y-12989109D02*
X13881325Y-12989109D01*
X13881325Y-12989109D02*
X13900372Y-12979585D01*
X13900372Y-12979585D02*
X13909896Y-12960537D01*
X13909896Y-12960537D02*
X13909896Y-12951013D01*
X13909896Y-12951013D02*
X13900372Y-12931966D01*
X13900372Y-12931966D02*
X13881325Y-12922442D01*
X13881325Y-12922442D02*
X13852753Y-12922442D01*
X13852753Y-12922442D02*
X13833706Y-12912918D01*
X13833706Y-12912918D02*
X13824182Y-12893871D01*
X13824182Y-12893871D02*
X13824182Y-12884347D01*
X13824182Y-12884347D02*
X13833706Y-12865299D01*
X13833706Y-12865299D02*
X13852753Y-12855775D01*
X13852753Y-12855775D02*
X13881325Y-12855775D01*
X13881325Y-12855775D02*
X13900372Y-12865299D01*
X13976563Y-13065299D02*
X13986087Y-13055775D01*
X13986087Y-13055775D02*
X14005134Y-13027204D01*
X14005134Y-13027204D02*
X14014658Y-13008156D01*
X14014658Y-13008156D02*
X14024182Y-12979585D01*
X14024182Y-12979585D02*
X14033706Y-12931966D01*
X14033706Y-12931966D02*
X14033706Y-12893871D01*
X14033706Y-12893871D02*
X14024182Y-12846252D01*
X14024182Y-12846252D02*
X14014658Y-12817680D01*
X14014658Y-12817680D02*
X14005134Y-12798633D01*
X14005134Y-12798633D02*
X13986087Y-12770061D01*
X13986087Y-12770061D02*
X13976563Y-12760537D01*
D14*
X9156500Y-13116625D02*
X9156500Y-13206625D01*
X9111500Y-13161625D02*
X9201500Y-13161625D01*
D12*
X9500372Y-13053109D02*
X9519420Y-13053109D01*
X9519420Y-13053109D02*
X9538467Y-13062633D01*
X9538467Y-13062633D02*
X9547991Y-13072156D01*
X9547991Y-13072156D02*
X9557515Y-13091204D01*
X9557515Y-13091204D02*
X9567039Y-13129299D01*
X9567039Y-13129299D02*
X9567039Y-13176918D01*
X9567039Y-13176918D02*
X9557515Y-13215013D01*
X9557515Y-13215013D02*
X9547991Y-13234061D01*
X9547991Y-13234061D02*
X9538467Y-13243585D01*
X9538467Y-13243585D02*
X9519420Y-13253109D01*
X9519420Y-13253109D02*
X9500372Y-13253109D01*
X9500372Y-13253109D02*
X9481324Y-13243585D01*
X9481324Y-13243585D02*
X9471801Y-13234061D01*
X9471801Y-13234061D02*
X9462277Y-13215013D01*
X9462277Y-13215013D02*
X9452753Y-13176918D01*
X9452753Y-13176918D02*
X9452753Y-13129299D01*
X9452753Y-13129299D02*
X9462277Y-13091204D01*
X9462277Y-13091204D02*
X9471801Y-13072156D01*
X9471801Y-13072156D02*
X9481324Y-13062633D01*
X9481324Y-13062633D02*
X9500372Y-13053109D01*
X9652753Y-13234061D02*
X9662277Y-13243585D01*
X9662277Y-13243585D02*
X9652753Y-13253109D01*
X9652753Y-13253109D02*
X9643229Y-13243585D01*
X9643229Y-13243585D02*
X9652753Y-13234061D01*
X9652753Y-13234061D02*
X9652753Y-13253109D01*
X9757515Y-13253109D02*
X9795610Y-13253109D01*
X9795610Y-13253109D02*
X9814658Y-13243585D01*
X9814658Y-13243585D02*
X9824182Y-13234061D01*
X9824182Y-13234061D02*
X9843229Y-13205490D01*
X9843229Y-13205490D02*
X9852753Y-13167394D01*
X9852753Y-13167394D02*
X9852753Y-13091204D01*
X9852753Y-13091204D02*
X9843229Y-13072156D01*
X9843229Y-13072156D02*
X9833705Y-13062633D01*
X9833705Y-13062633D02*
X9814658Y-13053109D01*
X9814658Y-13053109D02*
X9776563Y-13053109D01*
X9776563Y-13053109D02*
X9757515Y-13062633D01*
X9757515Y-13062633D02*
X9747991Y-13072156D01*
X9747991Y-13072156D02*
X9738467Y-13091204D01*
X9738467Y-13091204D02*
X9738467Y-13138823D01*
X9738467Y-13138823D02*
X9747991Y-13157871D01*
X9747991Y-13157871D02*
X9757515Y-13167394D01*
X9757515Y-13167394D02*
X9776563Y-13176918D01*
X9776563Y-13176918D02*
X9814658Y-13176918D01*
X9814658Y-13176918D02*
X9833705Y-13167394D01*
X9833705Y-13167394D02*
X9843229Y-13157871D01*
X9843229Y-13157871D02*
X9852753Y-13138823D01*
X9976563Y-13053109D02*
X9995610Y-13053109D01*
X9995610Y-13053109D02*
X10014658Y-13062633D01*
X10014658Y-13062633D02*
X10024182Y-13072156D01*
X10024182Y-13072156D02*
X10033705Y-13091204D01*
X10033705Y-13091204D02*
X10043229Y-13129299D01*
X10043229Y-13129299D02*
X10043229Y-13176918D01*
X10043229Y-13176918D02*
X10033705Y-13215013D01*
X10033705Y-13215013D02*
X10024182Y-13234061D01*
X10024182Y-13234061D02*
X10014658Y-13243585D01*
X10014658Y-13243585D02*
X9995610Y-13253109D01*
X9995610Y-13253109D02*
X9976563Y-13253109D01*
X9976563Y-13253109D02*
X9957515Y-13243585D01*
X9957515Y-13243585D02*
X9947991Y-13234061D01*
X9947991Y-13234061D02*
X9938467Y-13215013D01*
X9938467Y-13215013D02*
X9928944Y-13176918D01*
X9928944Y-13176918D02*
X9928944Y-13129299D01*
X9928944Y-13129299D02*
X9938467Y-13091204D01*
X9938467Y-13091204D02*
X9947991Y-13072156D01*
X9947991Y-13072156D02*
X9957515Y-13062633D01*
X9957515Y-13062633D02*
X9976563Y-13053109D01*
X10167039Y-13053109D02*
X10186086Y-13053109D01*
X10186086Y-13053109D02*
X10205134Y-13062633D01*
X10205134Y-13062633D02*
X10214658Y-13072156D01*
X10214658Y-13072156D02*
X10224182Y-13091204D01*
X10224182Y-13091204D02*
X10233705Y-13129299D01*
X10233705Y-13129299D02*
X10233705Y-13176918D01*
X10233705Y-13176918D02*
X10224182Y-13215013D01*
X10224182Y-13215013D02*
X10214658Y-13234061D01*
X10214658Y-13234061D02*
X10205134Y-13243585D01*
X10205134Y-13243585D02*
X10186086Y-13253109D01*
X10186086Y-13253109D02*
X10167039Y-13253109D01*
X10167039Y-13253109D02*
X10147991Y-13243585D01*
X10147991Y-13243585D02*
X10138467Y-13234061D01*
X10138467Y-13234061D02*
X10128944Y-13215013D01*
X10128944Y-13215013D02*
X10119420Y-13176918D01*
X10119420Y-13176918D02*
X10119420Y-13129299D01*
X10119420Y-13129299D02*
X10128944Y-13091204D01*
X10128944Y-13091204D02*
X10138467Y-13072156D01*
X10138467Y-13072156D02*
X10147991Y-13062633D01*
X10147991Y-13062633D02*
X10167039Y-13053109D01*
X10319420Y-13253109D02*
X10319420Y-13119775D01*
X10319420Y-13138823D02*
X10328944Y-13129299D01*
X10328944Y-13129299D02*
X10347991Y-13119775D01*
X10347991Y-13119775D02*
X10376563Y-13119775D01*
X10376563Y-13119775D02*
X10395610Y-13129299D01*
X10395610Y-13129299D02*
X10405134Y-13148347D01*
X10405134Y-13148347D02*
X10405134Y-13253109D01*
X10405134Y-13148347D02*
X10414658Y-13129299D01*
X10414658Y-13129299D02*
X10433705Y-13119775D01*
X10433705Y-13119775D02*
X10462277Y-13119775D01*
X10462277Y-13119775D02*
X10481325Y-13129299D01*
X10481325Y-13129299D02*
X10490848Y-13148347D01*
X10490848Y-13148347D02*
X10490848Y-13253109D01*
X10586086Y-13253109D02*
X10586086Y-13119775D01*
X10586086Y-13138823D02*
X10595610Y-13129299D01*
X10595610Y-13129299D02*
X10614658Y-13119775D01*
X10614658Y-13119775D02*
X10643229Y-13119775D01*
X10643229Y-13119775D02*
X10662277Y-13129299D01*
X10662277Y-13129299D02*
X10671801Y-13148347D01*
X10671801Y-13148347D02*
X10671801Y-13253109D01*
X10671801Y-13148347D02*
X10681325Y-13129299D01*
X10681325Y-13129299D02*
X10700372Y-13119775D01*
X10700372Y-13119775D02*
X10728944Y-13119775D01*
X10728944Y-13119775D02*
X10747991Y-13129299D01*
X10747991Y-13129299D02*
X10757515Y-13148347D01*
X10757515Y-13148347D02*
X10757515Y-13253109D01*
X11147991Y-13043585D02*
X10976563Y-13300728D01*
X11405134Y-13053109D02*
X11424182Y-13053109D01*
X11424182Y-13053109D02*
X11443229Y-13062633D01*
X11443229Y-13062633D02*
X11452753Y-13072156D01*
X11452753Y-13072156D02*
X11462277Y-13091204D01*
X11462277Y-13091204D02*
X11471801Y-13129299D01*
X11471801Y-13129299D02*
X11471801Y-13176918D01*
X11471801Y-13176918D02*
X11462277Y-13215013D01*
X11462277Y-13215013D02*
X11452753Y-13234061D01*
X11452753Y-13234061D02*
X11443229Y-13243585D01*
X11443229Y-13243585D02*
X11424182Y-13253109D01*
X11424182Y-13253109D02*
X11405134Y-13253109D01*
X11405134Y-13253109D02*
X11386086Y-13243585D01*
X11386086Y-13243585D02*
X11376563Y-13234061D01*
X11376563Y-13234061D02*
X11367039Y-13215013D01*
X11367039Y-13215013D02*
X11357515Y-13176918D01*
X11357515Y-13176918D02*
X11357515Y-13129299D01*
X11357515Y-13129299D02*
X11367039Y-13091204D01*
X11367039Y-13091204D02*
X11376563Y-13072156D01*
X11376563Y-13072156D02*
X11386086Y-13062633D01*
X11386086Y-13062633D02*
X11405134Y-13053109D01*
X11557515Y-13234061D02*
X11567039Y-13243585D01*
X11567039Y-13243585D02*
X11557515Y-13253109D01*
X11557515Y-13253109D02*
X11547991Y-13243585D01*
X11547991Y-13243585D02*
X11557515Y-13234061D01*
X11557515Y-13234061D02*
X11557515Y-13253109D01*
X11690848Y-13053109D02*
X11709896Y-13053109D01*
X11709896Y-13053109D02*
X11728944Y-13062633D01*
X11728944Y-13062633D02*
X11738467Y-13072156D01*
X11738467Y-13072156D02*
X11747991Y-13091204D01*
X11747991Y-13091204D02*
X11757515Y-13129299D01*
X11757515Y-13129299D02*
X11757515Y-13176918D01*
X11757515Y-13176918D02*
X11747991Y-13215013D01*
X11747991Y-13215013D02*
X11738467Y-13234061D01*
X11738467Y-13234061D02*
X11728944Y-13243585D01*
X11728944Y-13243585D02*
X11709896Y-13253109D01*
X11709896Y-13253109D02*
X11690848Y-13253109D01*
X11690848Y-13253109D02*
X11671801Y-13243585D01*
X11671801Y-13243585D02*
X11662277Y-13234061D01*
X11662277Y-13234061D02*
X11652753Y-13215013D01*
X11652753Y-13215013D02*
X11643229Y-13176918D01*
X11643229Y-13176918D02*
X11643229Y-13129299D01*
X11643229Y-13129299D02*
X11652753Y-13091204D01*
X11652753Y-13091204D02*
X11662277Y-13072156D01*
X11662277Y-13072156D02*
X11671801Y-13062633D01*
X11671801Y-13062633D02*
X11690848Y-13053109D01*
X11824182Y-13053109D02*
X11947991Y-13053109D01*
X11947991Y-13053109D02*
X11881325Y-13129299D01*
X11881325Y-13129299D02*
X11909896Y-13129299D01*
X11909896Y-13129299D02*
X11928944Y-13138823D01*
X11928944Y-13138823D02*
X11938467Y-13148347D01*
X11938467Y-13148347D02*
X11947991Y-13167394D01*
X11947991Y-13167394D02*
X11947991Y-13215013D01*
X11947991Y-13215013D02*
X11938467Y-13234061D01*
X11938467Y-13234061D02*
X11928944Y-13243585D01*
X11928944Y-13243585D02*
X11909896Y-13253109D01*
X11909896Y-13253109D02*
X11852753Y-13253109D01*
X11852753Y-13253109D02*
X11833706Y-13243585D01*
X11833706Y-13243585D02*
X11824182Y-13234061D01*
X12128944Y-13053109D02*
X12033706Y-13053109D01*
X12033706Y-13053109D02*
X12024182Y-13148347D01*
X12024182Y-13148347D02*
X12033706Y-13138823D01*
X12033706Y-13138823D02*
X12052753Y-13129299D01*
X12052753Y-13129299D02*
X12100372Y-13129299D01*
X12100372Y-13129299D02*
X12119420Y-13138823D01*
X12119420Y-13138823D02*
X12128944Y-13148347D01*
X12128944Y-13148347D02*
X12138467Y-13167394D01*
X12138467Y-13167394D02*
X12138467Y-13215013D01*
X12138467Y-13215013D02*
X12128944Y-13234061D01*
X12128944Y-13234061D02*
X12119420Y-13243585D01*
X12119420Y-13243585D02*
X12100372Y-13253109D01*
X12100372Y-13253109D02*
X12052753Y-13253109D01*
X12052753Y-13253109D02*
X12033706Y-13243585D01*
X12033706Y-13243585D02*
X12024182Y-13234061D01*
X12309896Y-13119775D02*
X12309896Y-13253109D01*
X12262277Y-13043585D02*
X12214658Y-13186442D01*
X12214658Y-13186442D02*
X12338467Y-13186442D01*
X12405134Y-13053109D02*
X12405134Y-13091204D01*
X12481325Y-13053109D02*
X12481325Y-13091204D01*
X12776563Y-13329299D02*
X12767039Y-13319775D01*
X12767039Y-13319775D02*
X12747991Y-13291204D01*
X12747991Y-13291204D02*
X12738468Y-13272156D01*
X12738468Y-13272156D02*
X12728944Y-13243585D01*
X12728944Y-13243585D02*
X12719420Y-13195966D01*
X12719420Y-13195966D02*
X12719420Y-13157871D01*
X12719420Y-13157871D02*
X12728944Y-13110252D01*
X12728944Y-13110252D02*
X12738468Y-13081680D01*
X12738468Y-13081680D02*
X12747991Y-13062633D01*
X12747991Y-13062633D02*
X12767039Y-13034061D01*
X12767039Y-13034061D02*
X12776563Y-13024537D01*
X12938468Y-13119775D02*
X12938468Y-13253109D01*
X12890848Y-13043585D02*
X12843229Y-13186442D01*
X12843229Y-13186442D02*
X12967039Y-13186442D01*
X13195610Y-13253109D02*
X13195610Y-13053109D01*
X13281325Y-13253109D02*
X13281325Y-13148347D01*
X13281325Y-13148347D02*
X13271801Y-13129299D01*
X13271801Y-13129299D02*
X13252753Y-13119775D01*
X13252753Y-13119775D02*
X13224182Y-13119775D01*
X13224182Y-13119775D02*
X13205134Y-13129299D01*
X13205134Y-13129299D02*
X13195610Y-13138823D01*
X13405134Y-13253109D02*
X13386087Y-13243585D01*
X13386087Y-13243585D02*
X13376563Y-13234061D01*
X13376563Y-13234061D02*
X13367039Y-13215013D01*
X13367039Y-13215013D02*
X13367039Y-13157871D01*
X13367039Y-13157871D02*
X13376563Y-13138823D01*
X13376563Y-13138823D02*
X13386087Y-13129299D01*
X13386087Y-13129299D02*
X13405134Y-13119775D01*
X13405134Y-13119775D02*
X13433706Y-13119775D01*
X13433706Y-13119775D02*
X13452753Y-13129299D01*
X13452753Y-13129299D02*
X13462277Y-13138823D01*
X13462277Y-13138823D02*
X13471801Y-13157871D01*
X13471801Y-13157871D02*
X13471801Y-13215013D01*
X13471801Y-13215013D02*
X13462277Y-13234061D01*
X13462277Y-13234061D02*
X13452753Y-13243585D01*
X13452753Y-13243585D02*
X13433706Y-13253109D01*
X13433706Y-13253109D02*
X13405134Y-13253109D01*
X13586087Y-13253109D02*
X13567039Y-13243585D01*
X13567039Y-13243585D02*
X13557515Y-13224537D01*
X13557515Y-13224537D02*
X13557515Y-13053109D01*
X13738468Y-13243585D02*
X13719420Y-13253109D01*
X13719420Y-13253109D02*
X13681325Y-13253109D01*
X13681325Y-13253109D02*
X13662277Y-13243585D01*
X13662277Y-13243585D02*
X13652753Y-13224537D01*
X13652753Y-13224537D02*
X13652753Y-13148347D01*
X13652753Y-13148347D02*
X13662277Y-13129299D01*
X13662277Y-13129299D02*
X13681325Y-13119775D01*
X13681325Y-13119775D02*
X13719420Y-13119775D01*
X13719420Y-13119775D02*
X13738468Y-13129299D01*
X13738468Y-13129299D02*
X13747991Y-13148347D01*
X13747991Y-13148347D02*
X13747991Y-13167394D01*
X13747991Y-13167394D02*
X13652753Y-13186442D01*
X13824182Y-13243585D02*
X13843230Y-13253109D01*
X13843230Y-13253109D02*
X13881325Y-13253109D01*
X13881325Y-13253109D02*
X13900372Y-13243585D01*
X13900372Y-13243585D02*
X13909896Y-13224537D01*
X13909896Y-13224537D02*
X13909896Y-13215013D01*
X13909896Y-13215013D02*
X13900372Y-13195966D01*
X13900372Y-13195966D02*
X13881325Y-13186442D01*
X13881325Y-13186442D02*
X13852753Y-13186442D01*
X13852753Y-13186442D02*
X13833706Y-13176918D01*
X13833706Y-13176918D02*
X13824182Y-13157871D01*
X13824182Y-13157871D02*
X13824182Y-13148347D01*
X13824182Y-13148347D02*
X13833706Y-13129299D01*
X13833706Y-13129299D02*
X13852753Y-13119775D01*
X13852753Y-13119775D02*
X13881325Y-13119775D01*
X13881325Y-13119775D02*
X13900372Y-13129299D01*
X14147992Y-13176918D02*
X14300373Y-13176918D01*
X14224182Y-13253109D02*
X14224182Y-13100728D01*
X14538468Y-13072156D02*
X14547992Y-13062633D01*
X14547992Y-13062633D02*
X14567039Y-13053109D01*
X14567039Y-13053109D02*
X14614658Y-13053109D01*
X14614658Y-13053109D02*
X14633706Y-13062633D01*
X14633706Y-13062633D02*
X14643230Y-13072156D01*
X14643230Y-13072156D02*
X14652753Y-13091204D01*
X14652753Y-13091204D02*
X14652753Y-13110252D01*
X14652753Y-13110252D02*
X14643230Y-13138823D01*
X14643230Y-13138823D02*
X14528944Y-13253109D01*
X14528944Y-13253109D02*
X14652753Y-13253109D01*
X14881325Y-13243585D02*
X14900373Y-13253109D01*
X14900373Y-13253109D02*
X14938468Y-13253109D01*
X14938468Y-13253109D02*
X14957515Y-13243585D01*
X14957515Y-13243585D02*
X14967039Y-13224537D01*
X14967039Y-13224537D02*
X14967039Y-13215013D01*
X14967039Y-13215013D02*
X14957515Y-13195966D01*
X14957515Y-13195966D02*
X14938468Y-13186442D01*
X14938468Y-13186442D02*
X14909896Y-13186442D01*
X14909896Y-13186442D02*
X14890849Y-13176918D01*
X14890849Y-13176918D02*
X14881325Y-13157871D01*
X14881325Y-13157871D02*
X14881325Y-13148347D01*
X14881325Y-13148347D02*
X14890849Y-13129299D01*
X14890849Y-13129299D02*
X14909896Y-13119775D01*
X14909896Y-13119775D02*
X14938468Y-13119775D01*
X14938468Y-13119775D02*
X14957515Y-13129299D01*
X15081325Y-13253109D02*
X15062277Y-13243585D01*
X15062277Y-13243585D02*
X15052754Y-13224537D01*
X15052754Y-13224537D02*
X15052754Y-13053109D01*
X15186087Y-13253109D02*
X15167039Y-13243585D01*
X15167039Y-13243585D02*
X15157515Y-13234061D01*
X15157515Y-13234061D02*
X15147992Y-13215013D01*
X15147992Y-13215013D02*
X15147992Y-13157871D01*
X15147992Y-13157871D02*
X15157515Y-13138823D01*
X15157515Y-13138823D02*
X15167039Y-13129299D01*
X15167039Y-13129299D02*
X15186087Y-13119775D01*
X15186087Y-13119775D02*
X15214658Y-13119775D01*
X15214658Y-13119775D02*
X15233706Y-13129299D01*
X15233706Y-13129299D02*
X15243230Y-13138823D01*
X15243230Y-13138823D02*
X15252754Y-13157871D01*
X15252754Y-13157871D02*
X15252754Y-13215013D01*
X15252754Y-13215013D02*
X15243230Y-13234061D01*
X15243230Y-13234061D02*
X15233706Y-13243585D01*
X15233706Y-13243585D02*
X15214658Y-13253109D01*
X15214658Y-13253109D02*
X15186087Y-13253109D01*
X15309896Y-13119775D02*
X15386087Y-13119775D01*
X15338468Y-13053109D02*
X15338468Y-13224537D01*
X15338468Y-13224537D02*
X15347992Y-13243585D01*
X15347992Y-13243585D02*
X15367039Y-13253109D01*
X15367039Y-13253109D02*
X15386087Y-13253109D01*
X15443230Y-13243585D02*
X15462277Y-13253109D01*
X15462277Y-13253109D02*
X15500373Y-13253109D01*
X15500373Y-13253109D02*
X15519420Y-13243585D01*
X15519420Y-13243585D02*
X15528944Y-13224537D01*
X15528944Y-13224537D02*
X15528944Y-13215013D01*
X15528944Y-13215013D02*
X15519420Y-13195966D01*
X15519420Y-13195966D02*
X15500373Y-13186442D01*
X15500373Y-13186442D02*
X15471801Y-13186442D01*
X15471801Y-13186442D02*
X15452754Y-13176918D01*
X15452754Y-13176918D02*
X15443230Y-13157871D01*
X15443230Y-13157871D02*
X15443230Y-13148347D01*
X15443230Y-13148347D02*
X15452754Y-13129299D01*
X15452754Y-13129299D02*
X15471801Y-13119775D01*
X15471801Y-13119775D02*
X15500373Y-13119775D01*
X15500373Y-13119775D02*
X15519420Y-13129299D01*
X15595611Y-13329299D02*
X15605135Y-13319775D01*
X15605135Y-13319775D02*
X15624182Y-13291204D01*
X15624182Y-13291204D02*
X15633706Y-13272156D01*
X15633706Y-13272156D02*
X15643230Y-13243585D01*
X15643230Y-13243585D02*
X15652754Y-13195966D01*
X15652754Y-13195966D02*
X15652754Y-13157871D01*
X15652754Y-13157871D02*
X15643230Y-13110252D01*
X15643230Y-13110252D02*
X15633706Y-13081680D01*
X15633706Y-13081680D02*
X15624182Y-13062633D01*
X15624182Y-13062633D02*
X15605135Y-13034061D01*
X15605135Y-13034061D02*
X15595611Y-13024537D01*
D11*
X9186856Y-13460981D02*
X9186856Y-13390269D01*
X9116144Y-13390269D01*
X9116144Y-13460981D01*
X9186856Y-13460981D01*
D12*
X9567039Y-13517109D02*
X9452753Y-13517109D01*
X9509896Y-13517109D02*
X9509896Y-13317109D01*
X9509896Y-13317109D02*
X9490848Y-13345680D01*
X9490848Y-13345680D02*
X9471801Y-13364728D01*
X9471801Y-13364728D02*
X9452753Y-13374252D01*
X9652753Y-13498061D02*
X9662277Y-13507585D01*
X9662277Y-13507585D02*
X9652753Y-13517109D01*
X9652753Y-13517109D02*
X9643229Y-13507585D01*
X9643229Y-13507585D02*
X9652753Y-13498061D01*
X9652753Y-13498061D02*
X9652753Y-13517109D01*
X9786086Y-13317109D02*
X9805134Y-13317109D01*
X9805134Y-13317109D02*
X9824182Y-13326633D01*
X9824182Y-13326633D02*
X9833705Y-13336156D01*
X9833705Y-13336156D02*
X9843229Y-13355204D01*
X9843229Y-13355204D02*
X9852753Y-13393299D01*
X9852753Y-13393299D02*
X9852753Y-13440918D01*
X9852753Y-13440918D02*
X9843229Y-13479013D01*
X9843229Y-13479013D02*
X9833705Y-13498061D01*
X9833705Y-13498061D02*
X9824182Y-13507585D01*
X9824182Y-13507585D02*
X9805134Y-13517109D01*
X9805134Y-13517109D02*
X9786086Y-13517109D01*
X9786086Y-13517109D02*
X9767039Y-13507585D01*
X9767039Y-13507585D02*
X9757515Y-13498061D01*
X9757515Y-13498061D02*
X9747991Y-13479013D01*
X9747991Y-13479013D02*
X9738467Y-13440918D01*
X9738467Y-13440918D02*
X9738467Y-13393299D01*
X9738467Y-13393299D02*
X9747991Y-13355204D01*
X9747991Y-13355204D02*
X9757515Y-13336156D01*
X9757515Y-13336156D02*
X9767039Y-13326633D01*
X9767039Y-13326633D02*
X9786086Y-13317109D01*
X9976563Y-13317109D02*
X9995610Y-13317109D01*
X9995610Y-13317109D02*
X10014658Y-13326633D01*
X10014658Y-13326633D02*
X10024182Y-13336156D01*
X10024182Y-13336156D02*
X10033705Y-13355204D01*
X10033705Y-13355204D02*
X10043229Y-13393299D01*
X10043229Y-13393299D02*
X10043229Y-13440918D01*
X10043229Y-13440918D02*
X10033705Y-13479013D01*
X10033705Y-13479013D02*
X10024182Y-13498061D01*
X10024182Y-13498061D02*
X10014658Y-13507585D01*
X10014658Y-13507585D02*
X9995610Y-13517109D01*
X9995610Y-13517109D02*
X9976563Y-13517109D01*
X9976563Y-13517109D02*
X9957515Y-13507585D01*
X9957515Y-13507585D02*
X9947991Y-13498061D01*
X9947991Y-13498061D02*
X9938467Y-13479013D01*
X9938467Y-13479013D02*
X9928944Y-13440918D01*
X9928944Y-13440918D02*
X9928944Y-13393299D01*
X9928944Y-13393299D02*
X9938467Y-13355204D01*
X9938467Y-13355204D02*
X9947991Y-13336156D01*
X9947991Y-13336156D02*
X9957515Y-13326633D01*
X9957515Y-13326633D02*
X9976563Y-13317109D01*
X10167039Y-13317109D02*
X10186086Y-13317109D01*
X10186086Y-13317109D02*
X10205134Y-13326633D01*
X10205134Y-13326633D02*
X10214658Y-13336156D01*
X10214658Y-13336156D02*
X10224182Y-13355204D01*
X10224182Y-13355204D02*
X10233705Y-13393299D01*
X10233705Y-13393299D02*
X10233705Y-13440918D01*
X10233705Y-13440918D02*
X10224182Y-13479013D01*
X10224182Y-13479013D02*
X10214658Y-13498061D01*
X10214658Y-13498061D02*
X10205134Y-13507585D01*
X10205134Y-13507585D02*
X10186086Y-13517109D01*
X10186086Y-13517109D02*
X10167039Y-13517109D01*
X10167039Y-13517109D02*
X10147991Y-13507585D01*
X10147991Y-13507585D02*
X10138467Y-13498061D01*
X10138467Y-13498061D02*
X10128944Y-13479013D01*
X10128944Y-13479013D02*
X10119420Y-13440918D01*
X10119420Y-13440918D02*
X10119420Y-13393299D01*
X10119420Y-13393299D02*
X10128944Y-13355204D01*
X10128944Y-13355204D02*
X10138467Y-13336156D01*
X10138467Y-13336156D02*
X10147991Y-13326633D01*
X10147991Y-13326633D02*
X10167039Y-13317109D01*
X10319420Y-13517109D02*
X10319420Y-13383775D01*
X10319420Y-13402823D02*
X10328944Y-13393299D01*
X10328944Y-13393299D02*
X10347991Y-13383775D01*
X10347991Y-13383775D02*
X10376563Y-13383775D01*
X10376563Y-13383775D02*
X10395610Y-13393299D01*
X10395610Y-13393299D02*
X10405134Y-13412347D01*
X10405134Y-13412347D02*
X10405134Y-13517109D01*
X10405134Y-13412347D02*
X10414658Y-13393299D01*
X10414658Y-13393299D02*
X10433705Y-13383775D01*
X10433705Y-13383775D02*
X10462277Y-13383775D01*
X10462277Y-13383775D02*
X10481325Y-13393299D01*
X10481325Y-13393299D02*
X10490848Y-13412347D01*
X10490848Y-13412347D02*
X10490848Y-13517109D01*
X10586086Y-13517109D02*
X10586086Y-13383775D01*
X10586086Y-13402823D02*
X10595610Y-13393299D01*
X10595610Y-13393299D02*
X10614658Y-13383775D01*
X10614658Y-13383775D02*
X10643229Y-13383775D01*
X10643229Y-13383775D02*
X10662277Y-13393299D01*
X10662277Y-13393299D02*
X10671801Y-13412347D01*
X10671801Y-13412347D02*
X10671801Y-13517109D01*
X10671801Y-13412347D02*
X10681325Y-13393299D01*
X10681325Y-13393299D02*
X10700372Y-13383775D01*
X10700372Y-13383775D02*
X10728944Y-13383775D01*
X10728944Y-13383775D02*
X10747991Y-13393299D01*
X10747991Y-13393299D02*
X10757515Y-13412347D01*
X10757515Y-13412347D02*
X10757515Y-13517109D01*
X11147991Y-13307585D02*
X10976563Y-13564728D01*
X11405134Y-13317109D02*
X11424182Y-13317109D01*
X11424182Y-13317109D02*
X11443229Y-13326633D01*
X11443229Y-13326633D02*
X11452753Y-13336156D01*
X11452753Y-13336156D02*
X11462277Y-13355204D01*
X11462277Y-13355204D02*
X11471801Y-13393299D01*
X11471801Y-13393299D02*
X11471801Y-13440918D01*
X11471801Y-13440918D02*
X11462277Y-13479013D01*
X11462277Y-13479013D02*
X11452753Y-13498061D01*
X11452753Y-13498061D02*
X11443229Y-13507585D01*
X11443229Y-13507585D02*
X11424182Y-13517109D01*
X11424182Y-13517109D02*
X11405134Y-13517109D01*
X11405134Y-13517109D02*
X11386086Y-13507585D01*
X11386086Y-13507585D02*
X11376563Y-13498061D01*
X11376563Y-13498061D02*
X11367039Y-13479013D01*
X11367039Y-13479013D02*
X11357515Y-13440918D01*
X11357515Y-13440918D02*
X11357515Y-13393299D01*
X11357515Y-13393299D02*
X11367039Y-13355204D01*
X11367039Y-13355204D02*
X11376563Y-13336156D01*
X11376563Y-13336156D02*
X11386086Y-13326633D01*
X11386086Y-13326633D02*
X11405134Y-13317109D01*
X11557515Y-13498061D02*
X11567039Y-13507585D01*
X11567039Y-13507585D02*
X11557515Y-13517109D01*
X11557515Y-13517109D02*
X11547991Y-13507585D01*
X11547991Y-13507585D02*
X11557515Y-13498061D01*
X11557515Y-13498061D02*
X11557515Y-13517109D01*
X11690848Y-13317109D02*
X11709896Y-13317109D01*
X11709896Y-13317109D02*
X11728944Y-13326633D01*
X11728944Y-13326633D02*
X11738467Y-13336156D01*
X11738467Y-13336156D02*
X11747991Y-13355204D01*
X11747991Y-13355204D02*
X11757515Y-13393299D01*
X11757515Y-13393299D02*
X11757515Y-13440918D01*
X11757515Y-13440918D02*
X11747991Y-13479013D01*
X11747991Y-13479013D02*
X11738467Y-13498061D01*
X11738467Y-13498061D02*
X11728944Y-13507585D01*
X11728944Y-13507585D02*
X11709896Y-13517109D01*
X11709896Y-13517109D02*
X11690848Y-13517109D01*
X11690848Y-13517109D02*
X11671801Y-13507585D01*
X11671801Y-13507585D02*
X11662277Y-13498061D01*
X11662277Y-13498061D02*
X11652753Y-13479013D01*
X11652753Y-13479013D02*
X11643229Y-13440918D01*
X11643229Y-13440918D02*
X11643229Y-13393299D01*
X11643229Y-13393299D02*
X11652753Y-13355204D01*
X11652753Y-13355204D02*
X11662277Y-13336156D01*
X11662277Y-13336156D02*
X11671801Y-13326633D01*
X11671801Y-13326633D02*
X11690848Y-13317109D01*
X11824182Y-13317109D02*
X11947991Y-13317109D01*
X11947991Y-13317109D02*
X11881325Y-13393299D01*
X11881325Y-13393299D02*
X11909896Y-13393299D01*
X11909896Y-13393299D02*
X11928944Y-13402823D01*
X11928944Y-13402823D02*
X11938467Y-13412347D01*
X11938467Y-13412347D02*
X11947991Y-13431394D01*
X11947991Y-13431394D02*
X11947991Y-13479013D01*
X11947991Y-13479013D02*
X11938467Y-13498061D01*
X11938467Y-13498061D02*
X11928944Y-13507585D01*
X11928944Y-13507585D02*
X11909896Y-13517109D01*
X11909896Y-13517109D02*
X11852753Y-13517109D01*
X11852753Y-13517109D02*
X11833706Y-13507585D01*
X11833706Y-13507585D02*
X11824182Y-13498061D01*
X12043229Y-13517109D02*
X12081325Y-13517109D01*
X12081325Y-13517109D02*
X12100372Y-13507585D01*
X12100372Y-13507585D02*
X12109896Y-13498061D01*
X12109896Y-13498061D02*
X12128944Y-13469490D01*
X12128944Y-13469490D02*
X12138467Y-13431394D01*
X12138467Y-13431394D02*
X12138467Y-13355204D01*
X12138467Y-13355204D02*
X12128944Y-13336156D01*
X12128944Y-13336156D02*
X12119420Y-13326633D01*
X12119420Y-13326633D02*
X12100372Y-13317109D01*
X12100372Y-13317109D02*
X12062277Y-13317109D01*
X12062277Y-13317109D02*
X12043229Y-13326633D01*
X12043229Y-13326633D02*
X12033706Y-13336156D01*
X12033706Y-13336156D02*
X12024182Y-13355204D01*
X12024182Y-13355204D02*
X12024182Y-13402823D01*
X12024182Y-13402823D02*
X12033706Y-13421871D01*
X12033706Y-13421871D02*
X12043229Y-13431394D01*
X12043229Y-13431394D02*
X12062277Y-13440918D01*
X12062277Y-13440918D02*
X12100372Y-13440918D01*
X12100372Y-13440918D02*
X12119420Y-13431394D01*
X12119420Y-13431394D02*
X12128944Y-13421871D01*
X12128944Y-13421871D02*
X12138467Y-13402823D01*
X12309896Y-13383775D02*
X12309896Y-13517109D01*
X12262277Y-13307585D02*
X12214658Y-13450442D01*
X12214658Y-13450442D02*
X12338467Y-13450442D01*
X12405134Y-13317109D02*
X12405134Y-13355204D01*
X12481325Y-13317109D02*
X12481325Y-13355204D01*
X12776563Y-13593299D02*
X12767039Y-13583775D01*
X12767039Y-13583775D02*
X12747991Y-13555204D01*
X12747991Y-13555204D02*
X12738468Y-13536156D01*
X12738468Y-13536156D02*
X12728944Y-13507585D01*
X12728944Y-13507585D02*
X12719420Y-13459966D01*
X12719420Y-13459966D02*
X12719420Y-13421871D01*
X12719420Y-13421871D02*
X12728944Y-13374252D01*
X12728944Y-13374252D02*
X12738468Y-13345680D01*
X12738468Y-13345680D02*
X12747991Y-13326633D01*
X12747991Y-13326633D02*
X12767039Y-13298061D01*
X12767039Y-13298061D02*
X12776563Y-13288537D01*
X12938468Y-13383775D02*
X12938468Y-13517109D01*
X12890848Y-13307585D02*
X12843229Y-13450442D01*
X12843229Y-13450442D02*
X12967039Y-13450442D01*
X13071801Y-13402823D02*
X13052753Y-13393299D01*
X13052753Y-13393299D02*
X13043229Y-13383775D01*
X13043229Y-13383775D02*
X13033706Y-13364728D01*
X13033706Y-13364728D02*
X13033706Y-13355204D01*
X13033706Y-13355204D02*
X13043229Y-13336156D01*
X13043229Y-13336156D02*
X13052753Y-13326633D01*
X13052753Y-13326633D02*
X13071801Y-13317109D01*
X13071801Y-13317109D02*
X13109896Y-13317109D01*
X13109896Y-13317109D02*
X13128944Y-13326633D01*
X13128944Y-13326633D02*
X13138468Y-13336156D01*
X13138468Y-13336156D02*
X13147991Y-13355204D01*
X13147991Y-13355204D02*
X13147991Y-13364728D01*
X13147991Y-13364728D02*
X13138468Y-13383775D01*
X13138468Y-13383775D02*
X13128944Y-13393299D01*
X13128944Y-13393299D02*
X13109896Y-13402823D01*
X13109896Y-13402823D02*
X13071801Y-13402823D01*
X13071801Y-13402823D02*
X13052753Y-13412347D01*
X13052753Y-13412347D02*
X13043229Y-13421871D01*
X13043229Y-13421871D02*
X13033706Y-13440918D01*
X13033706Y-13440918D02*
X13033706Y-13479013D01*
X13033706Y-13479013D02*
X13043229Y-13498061D01*
X13043229Y-13498061D02*
X13052753Y-13507585D01*
X13052753Y-13507585D02*
X13071801Y-13517109D01*
X13071801Y-13517109D02*
X13109896Y-13517109D01*
X13109896Y-13517109D02*
X13128944Y-13507585D01*
X13128944Y-13507585D02*
X13138468Y-13498061D01*
X13138468Y-13498061D02*
X13147991Y-13479013D01*
X13147991Y-13479013D02*
X13147991Y-13440918D01*
X13147991Y-13440918D02*
X13138468Y-13421871D01*
X13138468Y-13421871D02*
X13128944Y-13412347D01*
X13128944Y-13412347D02*
X13109896Y-13402823D01*
X13386087Y-13517109D02*
X13386087Y-13317109D01*
X13471801Y-13517109D02*
X13471801Y-13412347D01*
X13471801Y-13412347D02*
X13462277Y-13393299D01*
X13462277Y-13393299D02*
X13443230Y-13383775D01*
X13443230Y-13383775D02*
X13414658Y-13383775D01*
X13414658Y-13383775D02*
X13395610Y-13393299D01*
X13395610Y-13393299D02*
X13386087Y-13402823D01*
X13595610Y-13517109D02*
X13576563Y-13507585D01*
X13576563Y-13507585D02*
X13567039Y-13498061D01*
X13567039Y-13498061D02*
X13557515Y-13479013D01*
X13557515Y-13479013D02*
X13557515Y-13421871D01*
X13557515Y-13421871D02*
X13567039Y-13402823D01*
X13567039Y-13402823D02*
X13576563Y-13393299D01*
X13576563Y-13393299D02*
X13595610Y-13383775D01*
X13595610Y-13383775D02*
X13624182Y-13383775D01*
X13624182Y-13383775D02*
X13643230Y-13393299D01*
X13643230Y-13393299D02*
X13652753Y-13402823D01*
X13652753Y-13402823D02*
X13662277Y-13421871D01*
X13662277Y-13421871D02*
X13662277Y-13479013D01*
X13662277Y-13479013D02*
X13652753Y-13498061D01*
X13652753Y-13498061D02*
X13643230Y-13507585D01*
X13643230Y-13507585D02*
X13624182Y-13517109D01*
X13624182Y-13517109D02*
X13595610Y-13517109D01*
X13776563Y-13517109D02*
X13757515Y-13507585D01*
X13757515Y-13507585D02*
X13747991Y-13488537D01*
X13747991Y-13488537D02*
X13747991Y-13317109D01*
X13928944Y-13507585D02*
X13909896Y-13517109D01*
X13909896Y-13517109D02*
X13871801Y-13517109D01*
X13871801Y-13517109D02*
X13852753Y-13507585D01*
X13852753Y-13507585D02*
X13843230Y-13488537D01*
X13843230Y-13488537D02*
X13843230Y-13412347D01*
X13843230Y-13412347D02*
X13852753Y-13393299D01*
X13852753Y-13393299D02*
X13871801Y-13383775D01*
X13871801Y-13383775D02*
X13909896Y-13383775D01*
X13909896Y-13383775D02*
X13928944Y-13393299D01*
X13928944Y-13393299D02*
X13938468Y-13412347D01*
X13938468Y-13412347D02*
X13938468Y-13431394D01*
X13938468Y-13431394D02*
X13843230Y-13450442D01*
X14014658Y-13507585D02*
X14033706Y-13517109D01*
X14033706Y-13517109D02*
X14071801Y-13517109D01*
X14071801Y-13517109D02*
X14090849Y-13507585D01*
X14090849Y-13507585D02*
X14100372Y-13488537D01*
X14100372Y-13488537D02*
X14100372Y-13479013D01*
X14100372Y-13479013D02*
X14090849Y-13459966D01*
X14090849Y-13459966D02*
X14071801Y-13450442D01*
X14071801Y-13450442D02*
X14043230Y-13450442D01*
X14043230Y-13450442D02*
X14024182Y-13440918D01*
X14024182Y-13440918D02*
X14014658Y-13421871D01*
X14014658Y-13421871D02*
X14014658Y-13412347D01*
X14014658Y-13412347D02*
X14024182Y-13393299D01*
X14024182Y-13393299D02*
X14043230Y-13383775D01*
X14043230Y-13383775D02*
X14071801Y-13383775D01*
X14071801Y-13383775D02*
X14090849Y-13393299D01*
X14338468Y-13440918D02*
X14490849Y-13440918D01*
X14414658Y-13517109D02*
X14414658Y-13364728D01*
X14843230Y-13517109D02*
X14728944Y-13517109D01*
X14786087Y-13517109D02*
X14786087Y-13317109D01*
X14786087Y-13317109D02*
X14767039Y-13345680D01*
X14767039Y-13345680D02*
X14747992Y-13364728D01*
X14747992Y-13364728D02*
X14728944Y-13374252D01*
X14967039Y-13317109D02*
X14986087Y-13317109D01*
X14986087Y-13317109D02*
X15005134Y-13326633D01*
X15005134Y-13326633D02*
X15014658Y-13336156D01*
X15014658Y-13336156D02*
X15024182Y-13355204D01*
X15024182Y-13355204D02*
X15033706Y-13393299D01*
X15033706Y-13393299D02*
X15033706Y-13440918D01*
X15033706Y-13440918D02*
X15024182Y-13479013D01*
X15024182Y-13479013D02*
X15014658Y-13498061D01*
X15014658Y-13498061D02*
X15005134Y-13507585D01*
X15005134Y-13507585D02*
X14986087Y-13517109D01*
X14986087Y-13517109D02*
X14967039Y-13517109D01*
X14967039Y-13517109D02*
X14947992Y-13507585D01*
X14947992Y-13507585D02*
X14938468Y-13498061D01*
X14938468Y-13498061D02*
X14928944Y-13479013D01*
X14928944Y-13479013D02*
X14919420Y-13440918D01*
X14919420Y-13440918D02*
X14919420Y-13393299D01*
X14919420Y-13393299D02*
X14928944Y-13355204D01*
X14928944Y-13355204D02*
X14938468Y-13336156D01*
X14938468Y-13336156D02*
X14947992Y-13326633D01*
X14947992Y-13326633D02*
X14967039Y-13317109D01*
X15262277Y-13507585D02*
X15281325Y-13517109D01*
X15281325Y-13517109D02*
X15319420Y-13517109D01*
X15319420Y-13517109D02*
X15338468Y-13507585D01*
X15338468Y-13507585D02*
X15347992Y-13488537D01*
X15347992Y-13488537D02*
X15347992Y-13479013D01*
X15347992Y-13479013D02*
X15338468Y-13459966D01*
X15338468Y-13459966D02*
X15319420Y-13450442D01*
X15319420Y-13450442D02*
X15290849Y-13450442D01*
X15290849Y-13450442D02*
X15271801Y-13440918D01*
X15271801Y-13440918D02*
X15262277Y-13421871D01*
X15262277Y-13421871D02*
X15262277Y-13412347D01*
X15262277Y-13412347D02*
X15271801Y-13393299D01*
X15271801Y-13393299D02*
X15290849Y-13383775D01*
X15290849Y-13383775D02*
X15319420Y-13383775D01*
X15319420Y-13383775D02*
X15338468Y-13393299D01*
X15462277Y-13517109D02*
X15443230Y-13507585D01*
X15443230Y-13507585D02*
X15433706Y-13488537D01*
X15433706Y-13488537D02*
X15433706Y-13317109D01*
X15567039Y-13517109D02*
X15547992Y-13507585D01*
X15547992Y-13507585D02*
X15538468Y-13498061D01*
X15538468Y-13498061D02*
X15528944Y-13479013D01*
X15528944Y-13479013D02*
X15528944Y-13421871D01*
X15528944Y-13421871D02*
X15538468Y-13402823D01*
X15538468Y-13402823D02*
X15547992Y-13393299D01*
X15547992Y-13393299D02*
X15567039Y-13383775D01*
X15567039Y-13383775D02*
X15595611Y-13383775D01*
X15595611Y-13383775D02*
X15614658Y-13393299D01*
X15614658Y-13393299D02*
X15624182Y-13402823D01*
X15624182Y-13402823D02*
X15633706Y-13421871D01*
X15633706Y-13421871D02*
X15633706Y-13479013D01*
X15633706Y-13479013D02*
X15624182Y-13498061D01*
X15624182Y-13498061D02*
X15614658Y-13507585D01*
X15614658Y-13507585D02*
X15595611Y-13517109D01*
X15595611Y-13517109D02*
X15567039Y-13517109D01*
X15690849Y-13383775D02*
X15767039Y-13383775D01*
X15719420Y-13317109D02*
X15719420Y-13488537D01*
X15719420Y-13488537D02*
X15728944Y-13507585D01*
X15728944Y-13507585D02*
X15747992Y-13517109D01*
X15747992Y-13517109D02*
X15767039Y-13517109D01*
X15824182Y-13507585D02*
X15843230Y-13517109D01*
X15843230Y-13517109D02*
X15881325Y-13517109D01*
X15881325Y-13517109D02*
X15900373Y-13507585D01*
X15900373Y-13507585D02*
X15909896Y-13488537D01*
X15909896Y-13488537D02*
X15909896Y-13479013D01*
X15909896Y-13479013D02*
X15900373Y-13459966D01*
X15900373Y-13459966D02*
X15881325Y-13450442D01*
X15881325Y-13450442D02*
X15852754Y-13450442D01*
X15852754Y-13450442D02*
X15833706Y-13440918D01*
X15833706Y-13440918D02*
X15824182Y-13421871D01*
X15824182Y-13421871D02*
X15824182Y-13412347D01*
X15824182Y-13412347D02*
X15833706Y-13393299D01*
X15833706Y-13393299D02*
X15852754Y-13383775D01*
X15852754Y-13383775D02*
X15881325Y-13383775D01*
X15881325Y-13383775D02*
X15900373Y-13393299D01*
X15976563Y-13593299D02*
X15986087Y-13583775D01*
X15986087Y-13583775D02*
X16005135Y-13555204D01*
X16005135Y-13555204D02*
X16014658Y-13536156D01*
X16014658Y-13536156D02*
X16024182Y-13507585D01*
X16024182Y-13507585D02*
X16033706Y-13459966D01*
X16033706Y-13459966D02*
X16033706Y-13421871D01*
X16033706Y-13421871D02*
X16024182Y-13374252D01*
X16024182Y-13374252D02*
X16014658Y-13345680D01*
X16014658Y-13345680D02*
X16005135Y-13326633D01*
X16005135Y-13326633D02*
X15986087Y-13298061D01*
X15986087Y-13298061D02*
X15976563Y-13288537D01*
X9101500Y-13789625D02*
X9201500Y-13689625D01*
X9101500Y-13589625D01*
X9001500Y-13689625D01*
X9101500Y-13789625D01*
X9452753Y-13600156D02*
X9462277Y-13590633D01*
X9462277Y-13590633D02*
X9481324Y-13581109D01*
X9481324Y-13581109D02*
X9528944Y-13581109D01*
X9528944Y-13581109D02*
X9547991Y-13590633D01*
X9547991Y-13590633D02*
X9557515Y-13600156D01*
X9557515Y-13600156D02*
X9567039Y-13619204D01*
X9567039Y-13619204D02*
X9567039Y-13638252D01*
X9567039Y-13638252D02*
X9557515Y-13666823D01*
X9557515Y-13666823D02*
X9443229Y-13781109D01*
X9443229Y-13781109D02*
X9567039Y-13781109D01*
X9652753Y-13762061D02*
X9662277Y-13771585D01*
X9662277Y-13771585D02*
X9652753Y-13781109D01*
X9652753Y-13781109D02*
X9643229Y-13771585D01*
X9643229Y-13771585D02*
X9652753Y-13762061D01*
X9652753Y-13762061D02*
X9652753Y-13781109D01*
X9852753Y-13781109D02*
X9738467Y-13781109D01*
X9795610Y-13781109D02*
X9795610Y-13581109D01*
X9795610Y-13581109D02*
X9776563Y-13609680D01*
X9776563Y-13609680D02*
X9757515Y-13628728D01*
X9757515Y-13628728D02*
X9738467Y-13638252D01*
X9976563Y-13581109D02*
X9995610Y-13581109D01*
X9995610Y-13581109D02*
X10014658Y-13590633D01*
X10014658Y-13590633D02*
X10024182Y-13600156D01*
X10024182Y-13600156D02*
X10033705Y-13619204D01*
X10033705Y-13619204D02*
X10043229Y-13657299D01*
X10043229Y-13657299D02*
X10043229Y-13704918D01*
X10043229Y-13704918D02*
X10033705Y-13743013D01*
X10033705Y-13743013D02*
X10024182Y-13762061D01*
X10024182Y-13762061D02*
X10014658Y-13771585D01*
X10014658Y-13771585D02*
X9995610Y-13781109D01*
X9995610Y-13781109D02*
X9976563Y-13781109D01*
X9976563Y-13781109D02*
X9957515Y-13771585D01*
X9957515Y-13771585D02*
X9947991Y-13762061D01*
X9947991Y-13762061D02*
X9938467Y-13743013D01*
X9938467Y-13743013D02*
X9928944Y-13704918D01*
X9928944Y-13704918D02*
X9928944Y-13657299D01*
X9928944Y-13657299D02*
X9938467Y-13619204D01*
X9938467Y-13619204D02*
X9947991Y-13600156D01*
X9947991Y-13600156D02*
X9957515Y-13590633D01*
X9957515Y-13590633D02*
X9976563Y-13581109D01*
X10167039Y-13581109D02*
X10186086Y-13581109D01*
X10186086Y-13581109D02*
X10205134Y-13590633D01*
X10205134Y-13590633D02*
X10214658Y-13600156D01*
X10214658Y-13600156D02*
X10224182Y-13619204D01*
X10224182Y-13619204D02*
X10233705Y-13657299D01*
X10233705Y-13657299D02*
X10233705Y-13704918D01*
X10233705Y-13704918D02*
X10224182Y-13743013D01*
X10224182Y-13743013D02*
X10214658Y-13762061D01*
X10214658Y-13762061D02*
X10205134Y-13771585D01*
X10205134Y-13771585D02*
X10186086Y-13781109D01*
X10186086Y-13781109D02*
X10167039Y-13781109D01*
X10167039Y-13781109D02*
X10147991Y-13771585D01*
X10147991Y-13771585D02*
X10138467Y-13762061D01*
X10138467Y-13762061D02*
X10128944Y-13743013D01*
X10128944Y-13743013D02*
X10119420Y-13704918D01*
X10119420Y-13704918D02*
X10119420Y-13657299D01*
X10119420Y-13657299D02*
X10128944Y-13619204D01*
X10128944Y-13619204D02*
X10138467Y-13600156D01*
X10138467Y-13600156D02*
X10147991Y-13590633D01*
X10147991Y-13590633D02*
X10167039Y-13581109D01*
X10319420Y-13781109D02*
X10319420Y-13647775D01*
X10319420Y-13666823D02*
X10328944Y-13657299D01*
X10328944Y-13657299D02*
X10347991Y-13647775D01*
X10347991Y-13647775D02*
X10376563Y-13647775D01*
X10376563Y-13647775D02*
X10395610Y-13657299D01*
X10395610Y-13657299D02*
X10405134Y-13676347D01*
X10405134Y-13676347D02*
X10405134Y-13781109D01*
X10405134Y-13676347D02*
X10414658Y-13657299D01*
X10414658Y-13657299D02*
X10433705Y-13647775D01*
X10433705Y-13647775D02*
X10462277Y-13647775D01*
X10462277Y-13647775D02*
X10481325Y-13657299D01*
X10481325Y-13657299D02*
X10490848Y-13676347D01*
X10490848Y-13676347D02*
X10490848Y-13781109D01*
X10586086Y-13781109D02*
X10586086Y-13647775D01*
X10586086Y-13666823D02*
X10595610Y-13657299D01*
X10595610Y-13657299D02*
X10614658Y-13647775D01*
X10614658Y-13647775D02*
X10643229Y-13647775D01*
X10643229Y-13647775D02*
X10662277Y-13657299D01*
X10662277Y-13657299D02*
X10671801Y-13676347D01*
X10671801Y-13676347D02*
X10671801Y-13781109D01*
X10671801Y-13676347D02*
X10681325Y-13657299D01*
X10681325Y-13657299D02*
X10700372Y-13647775D01*
X10700372Y-13647775D02*
X10728944Y-13647775D01*
X10728944Y-13647775D02*
X10747991Y-13657299D01*
X10747991Y-13657299D02*
X10757515Y-13676347D01*
X10757515Y-13676347D02*
X10757515Y-13781109D01*
X11147991Y-13571585D02*
X10976563Y-13828728D01*
X11405134Y-13581109D02*
X11424182Y-13581109D01*
X11424182Y-13581109D02*
X11443229Y-13590633D01*
X11443229Y-13590633D02*
X11452753Y-13600156D01*
X11452753Y-13600156D02*
X11462277Y-13619204D01*
X11462277Y-13619204D02*
X11471801Y-13657299D01*
X11471801Y-13657299D02*
X11471801Y-13704918D01*
X11471801Y-13704918D02*
X11462277Y-13743013D01*
X11462277Y-13743013D02*
X11452753Y-13762061D01*
X11452753Y-13762061D02*
X11443229Y-13771585D01*
X11443229Y-13771585D02*
X11424182Y-13781109D01*
X11424182Y-13781109D02*
X11405134Y-13781109D01*
X11405134Y-13781109D02*
X11386086Y-13771585D01*
X11386086Y-13771585D02*
X11376563Y-13762061D01*
X11376563Y-13762061D02*
X11367039Y-13743013D01*
X11367039Y-13743013D02*
X11357515Y-13704918D01*
X11357515Y-13704918D02*
X11357515Y-13657299D01*
X11357515Y-13657299D02*
X11367039Y-13619204D01*
X11367039Y-13619204D02*
X11376563Y-13600156D01*
X11376563Y-13600156D02*
X11386086Y-13590633D01*
X11386086Y-13590633D02*
X11405134Y-13581109D01*
X11557515Y-13762061D02*
X11567039Y-13771585D01*
X11567039Y-13771585D02*
X11557515Y-13781109D01*
X11557515Y-13781109D02*
X11547991Y-13771585D01*
X11547991Y-13771585D02*
X11557515Y-13762061D01*
X11557515Y-13762061D02*
X11557515Y-13781109D01*
X11690848Y-13581109D02*
X11709896Y-13581109D01*
X11709896Y-13581109D02*
X11728944Y-13590633D01*
X11728944Y-13590633D02*
X11738467Y-13600156D01*
X11738467Y-13600156D02*
X11747991Y-13619204D01*
X11747991Y-13619204D02*
X11757515Y-13657299D01*
X11757515Y-13657299D02*
X11757515Y-13704918D01*
X11757515Y-13704918D02*
X11747991Y-13743013D01*
X11747991Y-13743013D02*
X11738467Y-13762061D01*
X11738467Y-13762061D02*
X11728944Y-13771585D01*
X11728944Y-13771585D02*
X11709896Y-13781109D01*
X11709896Y-13781109D02*
X11690848Y-13781109D01*
X11690848Y-13781109D02*
X11671801Y-13771585D01*
X11671801Y-13771585D02*
X11662277Y-13762061D01*
X11662277Y-13762061D02*
X11652753Y-13743013D01*
X11652753Y-13743013D02*
X11643229Y-13704918D01*
X11643229Y-13704918D02*
X11643229Y-13657299D01*
X11643229Y-13657299D02*
X11652753Y-13619204D01*
X11652753Y-13619204D02*
X11662277Y-13600156D01*
X11662277Y-13600156D02*
X11671801Y-13590633D01*
X11671801Y-13590633D02*
X11690848Y-13581109D01*
X11871801Y-13666823D02*
X11852753Y-13657299D01*
X11852753Y-13657299D02*
X11843229Y-13647775D01*
X11843229Y-13647775D02*
X11833706Y-13628728D01*
X11833706Y-13628728D02*
X11833706Y-13619204D01*
X11833706Y-13619204D02*
X11843229Y-13600156D01*
X11843229Y-13600156D02*
X11852753Y-13590633D01*
X11852753Y-13590633D02*
X11871801Y-13581109D01*
X11871801Y-13581109D02*
X11909896Y-13581109D01*
X11909896Y-13581109D02*
X11928944Y-13590633D01*
X11928944Y-13590633D02*
X11938467Y-13600156D01*
X11938467Y-13600156D02*
X11947991Y-13619204D01*
X11947991Y-13619204D02*
X11947991Y-13628728D01*
X11947991Y-13628728D02*
X11938467Y-13647775D01*
X11938467Y-13647775D02*
X11928944Y-13657299D01*
X11928944Y-13657299D02*
X11909896Y-13666823D01*
X11909896Y-13666823D02*
X11871801Y-13666823D01*
X11871801Y-13666823D02*
X11852753Y-13676347D01*
X11852753Y-13676347D02*
X11843229Y-13685871D01*
X11843229Y-13685871D02*
X11833706Y-13704918D01*
X11833706Y-13704918D02*
X11833706Y-13743013D01*
X11833706Y-13743013D02*
X11843229Y-13762061D01*
X11843229Y-13762061D02*
X11852753Y-13771585D01*
X11852753Y-13771585D02*
X11871801Y-13781109D01*
X11871801Y-13781109D02*
X11909896Y-13781109D01*
X11909896Y-13781109D02*
X11928944Y-13771585D01*
X11928944Y-13771585D02*
X11938467Y-13762061D01*
X11938467Y-13762061D02*
X11947991Y-13743013D01*
X11947991Y-13743013D02*
X11947991Y-13704918D01*
X11947991Y-13704918D02*
X11938467Y-13685871D01*
X11938467Y-13685871D02*
X11928944Y-13676347D01*
X11928944Y-13676347D02*
X11909896Y-13666823D01*
X12024182Y-13600156D02*
X12033706Y-13590633D01*
X12033706Y-13590633D02*
X12052753Y-13581109D01*
X12052753Y-13581109D02*
X12100372Y-13581109D01*
X12100372Y-13581109D02*
X12119420Y-13590633D01*
X12119420Y-13590633D02*
X12128944Y-13600156D01*
X12128944Y-13600156D02*
X12138467Y-13619204D01*
X12138467Y-13619204D02*
X12138467Y-13638252D01*
X12138467Y-13638252D02*
X12128944Y-13666823D01*
X12128944Y-13666823D02*
X12014658Y-13781109D01*
X12014658Y-13781109D02*
X12138467Y-13781109D01*
X12205134Y-13581109D02*
X12338467Y-13581109D01*
X12338467Y-13581109D02*
X12252753Y-13781109D01*
X12405134Y-13581109D02*
X12405134Y-13619204D01*
X12481325Y-13581109D02*
X12481325Y-13619204D01*
X12776563Y-13857299D02*
X12767039Y-13847775D01*
X12767039Y-13847775D02*
X12747991Y-13819204D01*
X12747991Y-13819204D02*
X12738468Y-13800156D01*
X12738468Y-13800156D02*
X12728944Y-13771585D01*
X12728944Y-13771585D02*
X12719420Y-13723966D01*
X12719420Y-13723966D02*
X12719420Y-13685871D01*
X12719420Y-13685871D02*
X12728944Y-13638252D01*
X12728944Y-13638252D02*
X12738468Y-13609680D01*
X12738468Y-13609680D02*
X12747991Y-13590633D01*
X12747991Y-13590633D02*
X12767039Y-13562061D01*
X12767039Y-13562061D02*
X12776563Y-13552537D01*
X12843229Y-13600156D02*
X12852753Y-13590633D01*
X12852753Y-13590633D02*
X12871801Y-13581109D01*
X12871801Y-13581109D02*
X12919420Y-13581109D01*
X12919420Y-13581109D02*
X12938468Y-13590633D01*
X12938468Y-13590633D02*
X12947991Y-13600156D01*
X12947991Y-13600156D02*
X12957515Y-13619204D01*
X12957515Y-13619204D02*
X12957515Y-13638252D01*
X12957515Y-13638252D02*
X12947991Y-13666823D01*
X12947991Y-13666823D02*
X12833706Y-13781109D01*
X12833706Y-13781109D02*
X12957515Y-13781109D01*
X13195610Y-13781109D02*
X13195610Y-13581109D01*
X13281325Y-13781109D02*
X13281325Y-13676347D01*
X13281325Y-13676347D02*
X13271801Y-13657299D01*
X13271801Y-13657299D02*
X13252753Y-13647775D01*
X13252753Y-13647775D02*
X13224182Y-13647775D01*
X13224182Y-13647775D02*
X13205134Y-13657299D01*
X13205134Y-13657299D02*
X13195610Y-13666823D01*
X13405134Y-13781109D02*
X13386087Y-13771585D01*
X13386087Y-13771585D02*
X13376563Y-13762061D01*
X13376563Y-13762061D02*
X13367039Y-13743013D01*
X13367039Y-13743013D02*
X13367039Y-13685871D01*
X13367039Y-13685871D02*
X13376563Y-13666823D01*
X13376563Y-13666823D02*
X13386087Y-13657299D01*
X13386087Y-13657299D02*
X13405134Y-13647775D01*
X13405134Y-13647775D02*
X13433706Y-13647775D01*
X13433706Y-13647775D02*
X13452753Y-13657299D01*
X13452753Y-13657299D02*
X13462277Y-13666823D01*
X13462277Y-13666823D02*
X13471801Y-13685871D01*
X13471801Y-13685871D02*
X13471801Y-13743013D01*
X13471801Y-13743013D02*
X13462277Y-13762061D01*
X13462277Y-13762061D02*
X13452753Y-13771585D01*
X13452753Y-13771585D02*
X13433706Y-13781109D01*
X13433706Y-13781109D02*
X13405134Y-13781109D01*
X13586087Y-13781109D02*
X13567039Y-13771585D01*
X13567039Y-13771585D02*
X13557515Y-13752537D01*
X13557515Y-13752537D02*
X13557515Y-13581109D01*
X13738468Y-13771585D02*
X13719420Y-13781109D01*
X13719420Y-13781109D02*
X13681325Y-13781109D01*
X13681325Y-13781109D02*
X13662277Y-13771585D01*
X13662277Y-13771585D02*
X13652753Y-13752537D01*
X13652753Y-13752537D02*
X13652753Y-13676347D01*
X13652753Y-13676347D02*
X13662277Y-13657299D01*
X13662277Y-13657299D02*
X13681325Y-13647775D01*
X13681325Y-13647775D02*
X13719420Y-13647775D01*
X13719420Y-13647775D02*
X13738468Y-13657299D01*
X13738468Y-13657299D02*
X13747991Y-13676347D01*
X13747991Y-13676347D02*
X13747991Y-13695394D01*
X13747991Y-13695394D02*
X13652753Y-13714442D01*
X13824182Y-13771585D02*
X13843230Y-13781109D01*
X13843230Y-13781109D02*
X13881325Y-13781109D01*
X13881325Y-13781109D02*
X13900372Y-13771585D01*
X13900372Y-13771585D02*
X13909896Y-13752537D01*
X13909896Y-13752537D02*
X13909896Y-13743013D01*
X13909896Y-13743013D02*
X13900372Y-13723966D01*
X13900372Y-13723966D02*
X13881325Y-13714442D01*
X13881325Y-13714442D02*
X13852753Y-13714442D01*
X13852753Y-13714442D02*
X13833706Y-13704918D01*
X13833706Y-13704918D02*
X13824182Y-13685871D01*
X13824182Y-13685871D02*
X13824182Y-13676347D01*
X13824182Y-13676347D02*
X13833706Y-13657299D01*
X13833706Y-13657299D02*
X13852753Y-13647775D01*
X13852753Y-13647775D02*
X13881325Y-13647775D01*
X13881325Y-13647775D02*
X13900372Y-13657299D01*
X13976563Y-13857299D02*
X13986087Y-13847775D01*
X13986087Y-13847775D02*
X14005134Y-13819204D01*
X14005134Y-13819204D02*
X14014658Y-13800156D01*
X14014658Y-13800156D02*
X14024182Y-13771585D01*
X14024182Y-13771585D02*
X14033706Y-13723966D01*
X14033706Y-13723966D02*
X14033706Y-13685871D01*
X14033706Y-13685871D02*
X14024182Y-13638252D01*
X14024182Y-13638252D02*
X14014658Y-13609680D01*
X14014658Y-13609680D02*
X14005134Y-13590633D01*
X14005134Y-13590633D02*
X13986087Y-13562061D01*
X13986087Y-13562061D02*
X13976563Y-13552537D01*
X9001500Y-13909625D02*
X9201500Y-14109625D01*
X9201500Y-13909625D02*
X9001500Y-14109625D01*
X9201500Y-14009625D02*
G75*
G03*
X9201500Y-14009625I-100000J0D01*
G01*
X9443229Y-13901109D02*
X9567039Y-13901109D01*
X9567039Y-13901109D02*
X9500372Y-13977299D01*
X9500372Y-13977299D02*
X9528944Y-13977299D01*
X9528944Y-13977299D02*
X9547991Y-13986823D01*
X9547991Y-13986823D02*
X9557515Y-13996347D01*
X9557515Y-13996347D02*
X9567039Y-14015394D01*
X9567039Y-14015394D02*
X9567039Y-14063013D01*
X9567039Y-14063013D02*
X9557515Y-14082061D01*
X9557515Y-14082061D02*
X9547991Y-14091585D01*
X9547991Y-14091585D02*
X9528944Y-14101109D01*
X9528944Y-14101109D02*
X9471801Y-14101109D01*
X9471801Y-14101109D02*
X9452753Y-14091585D01*
X9452753Y-14091585D02*
X9443229Y-14082061D01*
X9652753Y-14082061D02*
X9662277Y-14091585D01*
X9662277Y-14091585D02*
X9652753Y-14101109D01*
X9652753Y-14101109D02*
X9643229Y-14091585D01*
X9643229Y-14091585D02*
X9652753Y-14082061D01*
X9652753Y-14082061D02*
X9652753Y-14101109D01*
X9738467Y-13920156D02*
X9747991Y-13910633D01*
X9747991Y-13910633D02*
X9767039Y-13901109D01*
X9767039Y-13901109D02*
X9814658Y-13901109D01*
X9814658Y-13901109D02*
X9833705Y-13910633D01*
X9833705Y-13910633D02*
X9843229Y-13920156D01*
X9843229Y-13920156D02*
X9852753Y-13939204D01*
X9852753Y-13939204D02*
X9852753Y-13958252D01*
X9852753Y-13958252D02*
X9843229Y-13986823D01*
X9843229Y-13986823D02*
X9728944Y-14101109D01*
X9728944Y-14101109D02*
X9852753Y-14101109D01*
X9976563Y-13901109D02*
X9995610Y-13901109D01*
X9995610Y-13901109D02*
X10014658Y-13910633D01*
X10014658Y-13910633D02*
X10024182Y-13920156D01*
X10024182Y-13920156D02*
X10033705Y-13939204D01*
X10033705Y-13939204D02*
X10043229Y-13977299D01*
X10043229Y-13977299D02*
X10043229Y-14024918D01*
X10043229Y-14024918D02*
X10033705Y-14063013D01*
X10033705Y-14063013D02*
X10024182Y-14082061D01*
X10024182Y-14082061D02*
X10014658Y-14091585D01*
X10014658Y-14091585D02*
X9995610Y-14101109D01*
X9995610Y-14101109D02*
X9976563Y-14101109D01*
X9976563Y-14101109D02*
X9957515Y-14091585D01*
X9957515Y-14091585D02*
X9947991Y-14082061D01*
X9947991Y-14082061D02*
X9938467Y-14063013D01*
X9938467Y-14063013D02*
X9928944Y-14024918D01*
X9928944Y-14024918D02*
X9928944Y-13977299D01*
X9928944Y-13977299D02*
X9938467Y-13939204D01*
X9938467Y-13939204D02*
X9947991Y-13920156D01*
X9947991Y-13920156D02*
X9957515Y-13910633D01*
X9957515Y-13910633D02*
X9976563Y-13901109D01*
X10167039Y-13901109D02*
X10186086Y-13901109D01*
X10186086Y-13901109D02*
X10205134Y-13910633D01*
X10205134Y-13910633D02*
X10214658Y-13920156D01*
X10214658Y-13920156D02*
X10224182Y-13939204D01*
X10224182Y-13939204D02*
X10233705Y-13977299D01*
X10233705Y-13977299D02*
X10233705Y-14024918D01*
X10233705Y-14024918D02*
X10224182Y-14063013D01*
X10224182Y-14063013D02*
X10214658Y-14082061D01*
X10214658Y-14082061D02*
X10205134Y-14091585D01*
X10205134Y-14091585D02*
X10186086Y-14101109D01*
X10186086Y-14101109D02*
X10167039Y-14101109D01*
X10167039Y-14101109D02*
X10147991Y-14091585D01*
X10147991Y-14091585D02*
X10138467Y-14082061D01*
X10138467Y-14082061D02*
X10128944Y-14063013D01*
X10128944Y-14063013D02*
X10119420Y-14024918D01*
X10119420Y-14024918D02*
X10119420Y-13977299D01*
X10119420Y-13977299D02*
X10128944Y-13939204D01*
X10128944Y-13939204D02*
X10138467Y-13920156D01*
X10138467Y-13920156D02*
X10147991Y-13910633D01*
X10147991Y-13910633D02*
X10167039Y-13901109D01*
X10319420Y-14101109D02*
X10319420Y-13967775D01*
X10319420Y-13986823D02*
X10328944Y-13977299D01*
X10328944Y-13977299D02*
X10347991Y-13967775D01*
X10347991Y-13967775D02*
X10376563Y-13967775D01*
X10376563Y-13967775D02*
X10395610Y-13977299D01*
X10395610Y-13977299D02*
X10405134Y-13996347D01*
X10405134Y-13996347D02*
X10405134Y-14101109D01*
X10405134Y-13996347D02*
X10414658Y-13977299D01*
X10414658Y-13977299D02*
X10433705Y-13967775D01*
X10433705Y-13967775D02*
X10462277Y-13967775D01*
X10462277Y-13967775D02*
X10481325Y-13977299D01*
X10481325Y-13977299D02*
X10490848Y-13996347D01*
X10490848Y-13996347D02*
X10490848Y-14101109D01*
X10586086Y-14101109D02*
X10586086Y-13967775D01*
X10586086Y-13986823D02*
X10595610Y-13977299D01*
X10595610Y-13977299D02*
X10614658Y-13967775D01*
X10614658Y-13967775D02*
X10643229Y-13967775D01*
X10643229Y-13967775D02*
X10662277Y-13977299D01*
X10662277Y-13977299D02*
X10671801Y-13996347D01*
X10671801Y-13996347D02*
X10671801Y-14101109D01*
X10671801Y-13996347D02*
X10681325Y-13977299D01*
X10681325Y-13977299D02*
X10700372Y-13967775D01*
X10700372Y-13967775D02*
X10728944Y-13967775D01*
X10728944Y-13967775D02*
X10747991Y-13977299D01*
X10747991Y-13977299D02*
X10757515Y-13996347D01*
X10757515Y-13996347D02*
X10757515Y-14101109D01*
X11147991Y-13891585D02*
X10976563Y-14148728D01*
X11405134Y-13901109D02*
X11424182Y-13901109D01*
X11424182Y-13901109D02*
X11443229Y-13910633D01*
X11443229Y-13910633D02*
X11452753Y-13920156D01*
X11452753Y-13920156D02*
X11462277Y-13939204D01*
X11462277Y-13939204D02*
X11471801Y-13977299D01*
X11471801Y-13977299D02*
X11471801Y-14024918D01*
X11471801Y-14024918D02*
X11462277Y-14063013D01*
X11462277Y-14063013D02*
X11452753Y-14082061D01*
X11452753Y-14082061D02*
X11443229Y-14091585D01*
X11443229Y-14091585D02*
X11424182Y-14101109D01*
X11424182Y-14101109D02*
X11405134Y-14101109D01*
X11405134Y-14101109D02*
X11386086Y-14091585D01*
X11386086Y-14091585D02*
X11376563Y-14082061D01*
X11376563Y-14082061D02*
X11367039Y-14063013D01*
X11367039Y-14063013D02*
X11357515Y-14024918D01*
X11357515Y-14024918D02*
X11357515Y-13977299D01*
X11357515Y-13977299D02*
X11367039Y-13939204D01*
X11367039Y-13939204D02*
X11376563Y-13920156D01*
X11376563Y-13920156D02*
X11386086Y-13910633D01*
X11386086Y-13910633D02*
X11405134Y-13901109D01*
X11557515Y-14082061D02*
X11567039Y-14091585D01*
X11567039Y-14091585D02*
X11557515Y-14101109D01*
X11557515Y-14101109D02*
X11547991Y-14091585D01*
X11547991Y-14091585D02*
X11557515Y-14082061D01*
X11557515Y-14082061D02*
X11557515Y-14101109D01*
X11757515Y-14101109D02*
X11643229Y-14101109D01*
X11700372Y-14101109D02*
X11700372Y-13901109D01*
X11700372Y-13901109D02*
X11681325Y-13929680D01*
X11681325Y-13929680D02*
X11662277Y-13948728D01*
X11662277Y-13948728D02*
X11643229Y-13958252D01*
X11833706Y-13920156D02*
X11843229Y-13910633D01*
X11843229Y-13910633D02*
X11862277Y-13901109D01*
X11862277Y-13901109D02*
X11909896Y-13901109D01*
X11909896Y-13901109D02*
X11928944Y-13910633D01*
X11928944Y-13910633D02*
X11938467Y-13920156D01*
X11938467Y-13920156D02*
X11947991Y-13939204D01*
X11947991Y-13939204D02*
X11947991Y-13958252D01*
X11947991Y-13958252D02*
X11938467Y-13986823D01*
X11938467Y-13986823D02*
X11824182Y-14101109D01*
X11824182Y-14101109D02*
X11947991Y-14101109D01*
X12119420Y-13901109D02*
X12081325Y-13901109D01*
X12081325Y-13901109D02*
X12062277Y-13910633D01*
X12062277Y-13910633D02*
X12052753Y-13920156D01*
X12052753Y-13920156D02*
X12033706Y-13948728D01*
X12033706Y-13948728D02*
X12024182Y-13986823D01*
X12024182Y-13986823D02*
X12024182Y-14063013D01*
X12024182Y-14063013D02*
X12033706Y-14082061D01*
X12033706Y-14082061D02*
X12043229Y-14091585D01*
X12043229Y-14091585D02*
X12062277Y-14101109D01*
X12062277Y-14101109D02*
X12100372Y-14101109D01*
X12100372Y-14101109D02*
X12119420Y-14091585D01*
X12119420Y-14091585D02*
X12128944Y-14082061D01*
X12128944Y-14082061D02*
X12138467Y-14063013D01*
X12138467Y-14063013D02*
X12138467Y-14015394D01*
X12138467Y-14015394D02*
X12128944Y-13996347D01*
X12128944Y-13996347D02*
X12119420Y-13986823D01*
X12119420Y-13986823D02*
X12100372Y-13977299D01*
X12100372Y-13977299D02*
X12062277Y-13977299D01*
X12062277Y-13977299D02*
X12043229Y-13986823D01*
X12043229Y-13986823D02*
X12033706Y-13996347D01*
X12033706Y-13996347D02*
X12024182Y-14015394D01*
X12262277Y-13901109D02*
X12281325Y-13901109D01*
X12281325Y-13901109D02*
X12300372Y-13910633D01*
X12300372Y-13910633D02*
X12309896Y-13920156D01*
X12309896Y-13920156D02*
X12319420Y-13939204D01*
X12319420Y-13939204D02*
X12328944Y-13977299D01*
X12328944Y-13977299D02*
X12328944Y-14024918D01*
X12328944Y-14024918D02*
X12319420Y-14063013D01*
X12319420Y-14063013D02*
X12309896Y-14082061D01*
X12309896Y-14082061D02*
X12300372Y-14091585D01*
X12300372Y-14091585D02*
X12281325Y-14101109D01*
X12281325Y-14101109D02*
X12262277Y-14101109D01*
X12262277Y-14101109D02*
X12243229Y-14091585D01*
X12243229Y-14091585D02*
X12233706Y-14082061D01*
X12233706Y-14082061D02*
X12224182Y-14063013D01*
X12224182Y-14063013D02*
X12214658Y-14024918D01*
X12214658Y-14024918D02*
X12214658Y-13977299D01*
X12214658Y-13977299D02*
X12224182Y-13939204D01*
X12224182Y-13939204D02*
X12233706Y-13920156D01*
X12233706Y-13920156D02*
X12243229Y-13910633D01*
X12243229Y-13910633D02*
X12262277Y-13901109D01*
X12405134Y-13901109D02*
X12405134Y-13939204D01*
X12481325Y-13901109D02*
X12481325Y-13939204D01*
X12776563Y-14177299D02*
X12767039Y-14167775D01*
X12767039Y-14167775D02*
X12747991Y-14139204D01*
X12747991Y-14139204D02*
X12738468Y-14120156D01*
X12738468Y-14120156D02*
X12728944Y-14091585D01*
X12728944Y-14091585D02*
X12719420Y-14043966D01*
X12719420Y-14043966D02*
X12719420Y-14005871D01*
X12719420Y-14005871D02*
X12728944Y-13958252D01*
X12728944Y-13958252D02*
X12738468Y-13929680D01*
X12738468Y-13929680D02*
X12747991Y-13910633D01*
X12747991Y-13910633D02*
X12767039Y-13882061D01*
X12767039Y-13882061D02*
X12776563Y-13872537D01*
X12843229Y-13920156D02*
X12852753Y-13910633D01*
X12852753Y-13910633D02*
X12871801Y-13901109D01*
X12871801Y-13901109D02*
X12919420Y-13901109D01*
X12919420Y-13901109D02*
X12938468Y-13910633D01*
X12938468Y-13910633D02*
X12947991Y-13920156D01*
X12947991Y-13920156D02*
X12957515Y-13939204D01*
X12957515Y-13939204D02*
X12957515Y-13958252D01*
X12957515Y-13958252D02*
X12947991Y-13986823D01*
X12947991Y-13986823D02*
X12833706Y-14101109D01*
X12833706Y-14101109D02*
X12957515Y-14101109D01*
X13195610Y-14101109D02*
X13195610Y-13901109D01*
X13281325Y-14101109D02*
X13281325Y-13996347D01*
X13281325Y-13996347D02*
X13271801Y-13977299D01*
X13271801Y-13977299D02*
X13252753Y-13967775D01*
X13252753Y-13967775D02*
X13224182Y-13967775D01*
X13224182Y-13967775D02*
X13205134Y-13977299D01*
X13205134Y-13977299D02*
X13195610Y-13986823D01*
X13405134Y-14101109D02*
X13386087Y-14091585D01*
X13386087Y-14091585D02*
X13376563Y-14082061D01*
X13376563Y-14082061D02*
X13367039Y-14063013D01*
X13367039Y-14063013D02*
X13367039Y-14005871D01*
X13367039Y-14005871D02*
X13376563Y-13986823D01*
X13376563Y-13986823D02*
X13386087Y-13977299D01*
X13386087Y-13977299D02*
X13405134Y-13967775D01*
X13405134Y-13967775D02*
X13433706Y-13967775D01*
X13433706Y-13967775D02*
X13452753Y-13977299D01*
X13452753Y-13977299D02*
X13462277Y-13986823D01*
X13462277Y-13986823D02*
X13471801Y-14005871D01*
X13471801Y-14005871D02*
X13471801Y-14063013D01*
X13471801Y-14063013D02*
X13462277Y-14082061D01*
X13462277Y-14082061D02*
X13452753Y-14091585D01*
X13452753Y-14091585D02*
X13433706Y-14101109D01*
X13433706Y-14101109D02*
X13405134Y-14101109D01*
X13586087Y-14101109D02*
X13567039Y-14091585D01*
X13567039Y-14091585D02*
X13557515Y-14072537D01*
X13557515Y-14072537D02*
X13557515Y-13901109D01*
X13738468Y-14091585D02*
X13719420Y-14101109D01*
X13719420Y-14101109D02*
X13681325Y-14101109D01*
X13681325Y-14101109D02*
X13662277Y-14091585D01*
X13662277Y-14091585D02*
X13652753Y-14072537D01*
X13652753Y-14072537D02*
X13652753Y-13996347D01*
X13652753Y-13996347D02*
X13662277Y-13977299D01*
X13662277Y-13977299D02*
X13681325Y-13967775D01*
X13681325Y-13967775D02*
X13719420Y-13967775D01*
X13719420Y-13967775D02*
X13738468Y-13977299D01*
X13738468Y-13977299D02*
X13747991Y-13996347D01*
X13747991Y-13996347D02*
X13747991Y-14015394D01*
X13747991Y-14015394D02*
X13652753Y-14034442D01*
X13824182Y-14091585D02*
X13843230Y-14101109D01*
X13843230Y-14101109D02*
X13881325Y-14101109D01*
X13881325Y-14101109D02*
X13900372Y-14091585D01*
X13900372Y-14091585D02*
X13909896Y-14072537D01*
X13909896Y-14072537D02*
X13909896Y-14063013D01*
X13909896Y-14063013D02*
X13900372Y-14043966D01*
X13900372Y-14043966D02*
X13881325Y-14034442D01*
X13881325Y-14034442D02*
X13852753Y-14034442D01*
X13852753Y-14034442D02*
X13833706Y-14024918D01*
X13833706Y-14024918D02*
X13824182Y-14005871D01*
X13824182Y-14005871D02*
X13824182Y-13996347D01*
X13824182Y-13996347D02*
X13833706Y-13977299D01*
X13833706Y-13977299D02*
X13852753Y-13967775D01*
X13852753Y-13967775D02*
X13881325Y-13967775D01*
X13881325Y-13967775D02*
X13900372Y-13977299D01*
X13976563Y-14177299D02*
X13986087Y-14167775D01*
X13986087Y-14167775D02*
X14005134Y-14139204D01*
X14005134Y-14139204D02*
X14014658Y-14120156D01*
X14014658Y-14120156D02*
X14024182Y-14091585D01*
X14024182Y-14091585D02*
X14033706Y-14043966D01*
X14033706Y-14043966D02*
X14033706Y-14005871D01*
X14033706Y-14005871D02*
X14024182Y-13958252D01*
X14024182Y-13958252D02*
X14014658Y-13929680D01*
X14014658Y-13929680D02*
X14005134Y-13910633D01*
X14005134Y-13910633D02*
X13986087Y-13882061D01*
X13986087Y-13882061D02*
X13976563Y-13872537D01*
M02*
