%TF.GenerationSoftware,KiCad,Pcbnew,7.0.7*%
%TF.CreationDate,2023-10-23T19:43:48-06:00*%
%TF.ProjectId,PicoGUS chipdown with edge rails,5069636f-4755-4532-9063-686970646f77,rev?*%
%TF.SameCoordinates,Original*%
%TF.FileFunction,Soldermask,Top*%
%TF.FilePolarity,Negative*%
%FSLAX46Y46*%
G04 Gerber Fmt 4.6, Leading zero omitted, Abs format (unit mm)*
G04 Created by KiCad (PCBNEW 7.0.7) date 2023-10-23 19:43:48*
%MOMM*%
%LPD*%
G01*
G04 APERTURE LIST*
G04 Aperture macros list*
%AMRoundRect*
0 Rectangle with rounded corners*
0 $1 Rounding radius*
0 $2 $3 $4 $5 $6 $7 $8 $9 X,Y pos of 4 corners*
0 Add a 4 corners polygon primitive as box body*
4,1,4,$2,$3,$4,$5,$6,$7,$8,$9,$2,$3,0*
0 Add four circle primitives for the rounded corners*
1,1,$1+$1,$2,$3*
1,1,$1+$1,$4,$5*
1,1,$1+$1,$6,$7*
1,1,$1+$1,$8,$9*
0 Add four rect primitives between the rounded corners*
20,1,$1+$1,$2,$3,$4,$5,0*
20,1,$1+$1,$4,$5,$6,$7,0*
20,1,$1+$1,$6,$7,$8,$9,0*
20,1,$1+$1,$8,$9,$2,$3,0*%
G04 Aperture macros list end*
%ADD10C,0.000000*%
%ADD11C,0.100000*%
%ADD12C,6.400000*%
%ADD13RoundRect,0.225000X-0.225000X-0.250000X0.225000X-0.250000X0.225000X0.250000X-0.225000X0.250000X0*%
%ADD14RoundRect,0.140000X0.140000X0.170000X-0.140000X0.170000X-0.140000X-0.170000X0.140000X-0.170000X0*%
%ADD15RoundRect,0.140000X-0.140000X-0.170000X0.140000X-0.170000X0.140000X0.170000X-0.140000X0.170000X0*%
%ADD16RoundRect,0.140000X0.170000X-0.140000X0.170000X0.140000X-0.170000X0.140000X-0.170000X-0.140000X0*%
%ADD17RoundRect,0.150000X0.150000X0.625000X-0.150000X0.625000X-0.150000X-0.625000X0.150000X-0.625000X0*%
%ADD18RoundRect,0.250000X0.350000X0.650000X-0.350000X0.650000X-0.350000X-0.650000X0.350000X-0.650000X0*%
%ADD19R,1.400000X1.600000*%
%ADD20C,1.152000*%
%ADD21RoundRect,0.135000X-0.185000X0.135000X-0.185000X-0.135000X0.185000X-0.135000X0.185000X0.135000X0*%
%ADD22RoundRect,0.140000X-0.170000X0.140000X-0.170000X-0.140000X0.170000X-0.140000X0.170000X0.140000X0*%
%ADD23RoundRect,0.135000X0.135000X0.185000X-0.135000X0.185000X-0.135000X-0.185000X0.135000X-0.185000X0*%
%ADD24RoundRect,0.225000X0.250000X-0.225000X0.250000X0.225000X-0.250000X0.225000X-0.250000X-0.225000X0*%
%ADD25RoundRect,0.250000X0.475000X-0.250000X0.475000X0.250000X-0.475000X0.250000X-0.475000X-0.250000X0*%
%ADD26RoundRect,0.150000X0.587500X0.150000X-0.587500X0.150000X-0.587500X-0.150000X0.587500X-0.150000X0*%
%ADD27C,2.000000*%
%ADD28O,1.800000X2.800000*%
%ADD29RoundRect,0.050000X-0.050000X0.387500X-0.050000X-0.387500X0.050000X-0.387500X0.050000X0.387500X0*%
%ADD30RoundRect,0.050000X-0.387500X0.050000X-0.387500X-0.050000X0.387500X-0.050000X0.387500X0.050000X0*%
%ADD31R,3.200000X3.200000*%
%ADD32RoundRect,0.100000X-0.100000X0.637500X-0.100000X-0.637500X0.100000X-0.637500X0.100000X0.637500X0*%
%ADD33RoundRect,0.250000X0.325000X0.650000X-0.325000X0.650000X-0.325000X-0.650000X0.325000X-0.650000X0*%
%ADD34RoundRect,0.135000X-0.135000X-0.185000X0.135000X-0.185000X0.135000X0.185000X-0.135000X0.185000X0*%
%ADD35RoundRect,0.218750X-0.218750X-0.381250X0.218750X-0.381250X0.218750X0.381250X-0.218750X0.381250X0*%
%ADD36RoundRect,0.135000X0.185000X-0.135000X0.185000X0.135000X-0.185000X0.135000X-0.185000X-0.135000X0*%
%ADD37RoundRect,0.250000X-0.250000X0.250000X-0.250000X-0.250000X0.250000X-0.250000X0.250000X0.250000X0*%
%ADD38RoundRect,0.250000X-1.050000X-0.550000X1.050000X-0.550000X1.050000X0.550000X-1.050000X0.550000X0*%
%ADD39R,1.700000X1.700000*%
%ADD40O,1.700000X1.700000*%
%ADD41R,2.000000X1.500000*%
%ADD42R,2.000000X3.800000*%
%ADD43RoundRect,0.250000X-0.375000X-0.625000X0.375000X-0.625000X0.375000X0.625000X-0.375000X0.625000X0*%
%ADD44RoundRect,0.218750X0.381250X-0.218750X0.381250X0.218750X-0.381250X0.218750X-0.381250X-0.218750X0*%
%ADD45RoundRect,0.225000X0.225000X0.250000X-0.225000X0.250000X-0.225000X-0.250000X0.225000X-0.250000X0*%
%ADD46RoundRect,0.150000X-0.150000X0.650000X-0.150000X-0.650000X0.150000X-0.650000X0.150000X0.650000X0*%
%ADD47RoundRect,0.150000X-0.150000X0.825000X-0.150000X-0.825000X0.150000X-0.825000X0.150000X0.825000X0*%
%ADD48R,0.400000X0.650000*%
%ADD49R,1.524000X6.478000*%
%ADD50C,0.500000*%
%ADD51R,0.400000X2.000000*%
%ADD52R,1.660800X1.600000*%
%ADD53O,1.500000X2.000000*%
%ADD54R,1.660800X1.593200*%
%ADD55RoundRect,0.218750X-0.218750X-0.256250X0.218750X-0.256250X0.218750X0.256250X-0.218750X0.256250X0*%
%ADD56RoundRect,0.250000X-0.262500X-0.450000X0.262500X-0.450000X0.262500X0.450000X-0.262500X0.450000X0*%
%ADD57R,1.200000X1.400000*%
%ADD58C,3.200000*%
%ADD59RoundRect,0.425000X-0.425000X0.425000X-0.425000X-0.425000X0.425000X-0.425000X0.425000X0.425000X0*%
%ADD60RoundRect,0.250000X0.262500X0.450000X-0.262500X0.450000X-0.262500X-0.450000X0.262500X-0.450000X0*%
%ADD61C,1.500000*%
%ADD62C,3.100000*%
%ADD63RoundRect,0.250000X-0.325000X-0.650000X0.325000X-0.650000X0.325000X0.650000X-0.325000X0.650000X0*%
G04 APERTURE END LIST*
D10*
G36*
X197162020Y-22062463D02*
G01*
X197015688Y-22558185D01*
X194833087Y-22559137D01*
X194790189Y-22559137D01*
X194749198Y-22560567D01*
X194711063Y-22562474D01*
X194674838Y-22564858D01*
X194640520Y-22568671D01*
X194608106Y-22572961D01*
X194578078Y-22577727D01*
X194549954Y-22583447D01*
X194523739Y-22590120D01*
X194498952Y-22597270D01*
X194476074Y-22604897D01*
X194454623Y-22613000D01*
X194434603Y-22622056D01*
X194416492Y-22631112D01*
X194399808Y-22641122D01*
X194384081Y-22651608D01*
X194369780Y-22662572D01*
X194356433Y-22674012D01*
X194344516Y-22685928D01*
X194333552Y-22697844D01*
X194323545Y-22710237D01*
X194314485Y-22723107D01*
X194306384Y-22736452D01*
X194298758Y-22749799D01*
X194292084Y-22763623D01*
X194285890Y-22777445D01*
X194274927Y-22806045D01*
X194265393Y-22835120D01*
X194257289Y-22864673D01*
X194150515Y-23247426D01*
X194142892Y-23277456D01*
X194137172Y-23306532D01*
X194132405Y-23333702D01*
X194129541Y-23359441D01*
X194127638Y-23384227D01*
X194127638Y-23407107D01*
X194129068Y-23429033D01*
X194131455Y-23450005D01*
X194135261Y-23469071D01*
X194140505Y-23487660D01*
X194147182Y-23504821D01*
X194155282Y-23520550D01*
X194164343Y-23535327D01*
X194174826Y-23549626D01*
X194186743Y-23562495D01*
X194199614Y-23574412D01*
X194213914Y-23585375D01*
X194229165Y-23595384D01*
X194245849Y-23604441D01*
X194263960Y-23613021D01*
X194282550Y-23620648D01*
X194302568Y-23627798D01*
X194345946Y-23639238D01*
X194393611Y-23648294D01*
X194445566Y-23655444D01*
X194501815Y-23660210D01*
X194561394Y-23663546D01*
X194761588Y-23660687D01*
X195201541Y-23661163D01*
X195840258Y-23663546D01*
X195891257Y-23661639D01*
X195940832Y-23662116D01*
X195988974Y-23663546D01*
X196035209Y-23667359D01*
X196080490Y-23672603D01*
X196123872Y-23679276D01*
X196166290Y-23687855D01*
X196206332Y-23698342D01*
X196244936Y-23710259D01*
X196282114Y-23723605D01*
X196316912Y-23739335D01*
X196350280Y-23756494D01*
X196381742Y-23775083D01*
X196410813Y-23795579D01*
X196438460Y-23817983D01*
X196463725Y-23841815D01*
X196487075Y-23867554D01*
X196508526Y-23895200D01*
X196527117Y-23924277D01*
X196544274Y-23955260D01*
X196558575Y-23987671D01*
X196570495Y-24021991D01*
X196580506Y-24058217D01*
X196587656Y-24095872D01*
X196592419Y-24135911D01*
X196594803Y-24176903D01*
X196594803Y-24220279D01*
X196591943Y-24265085D01*
X196586222Y-24311796D01*
X196578119Y-24359939D01*
X196567158Y-24410464D01*
X196553331Y-24462420D01*
X196360764Y-25164532D01*
X196346464Y-25209337D01*
X196329786Y-25251759D01*
X196311192Y-25292752D01*
X196290698Y-25331360D01*
X196268294Y-25368540D01*
X196243986Y-25403813D01*
X196217769Y-25437178D01*
X196190128Y-25468637D01*
X196161047Y-25498667D01*
X196130542Y-25527266D01*
X196098608Y-25553959D01*
X196065240Y-25579222D01*
X195995174Y-25624980D01*
X195921764Y-25664542D01*
X195845022Y-25698862D01*
X195765422Y-25727461D01*
X195684869Y-25751294D01*
X195603359Y-25770359D01*
X195521376Y-25784660D01*
X195440343Y-25795146D01*
X195360744Y-25801343D01*
X195283051Y-25804203D01*
X191894988Y-25804203D01*
X192026070Y-25292276D01*
X194306861Y-25294183D01*
X194359293Y-25291799D01*
X194409345Y-25287032D01*
X194456530Y-25279406D01*
X194479408Y-25274639D01*
X194501335Y-25269396D01*
X194522786Y-25263199D01*
X194543760Y-25256526D01*
X194564254Y-25248899D01*
X194583798Y-25240320D01*
X194603342Y-25231264D01*
X194621930Y-25221254D01*
X194640040Y-25210767D01*
X194658154Y-25199328D01*
X194675318Y-25186935D01*
X194691995Y-25173589D01*
X194708679Y-25159288D01*
X194724410Y-25144036D01*
X194740141Y-25128305D01*
X194754918Y-25111146D01*
X194769692Y-25093510D01*
X194783992Y-25074444D01*
X194798289Y-25054425D01*
X194811637Y-25033928D01*
X194837851Y-24989123D01*
X194863115Y-24940028D01*
X194886949Y-24886642D01*
X194981803Y-24551554D01*
X194997053Y-24505318D01*
X195002774Y-24482916D01*
X195007540Y-24460990D01*
X195011357Y-24439540D01*
X195014217Y-24418568D01*
X195015647Y-24398071D01*
X195015647Y-24378528D01*
X195015171Y-24358986D01*
X195012787Y-24340873D01*
X195009927Y-24322760D01*
X195005160Y-24305600D01*
X194999440Y-24288917D01*
X194992767Y-24273188D01*
X194984663Y-24258412D01*
X194975129Y-24244112D01*
X194964166Y-24230765D01*
X194952252Y-24217895D01*
X194938908Y-24205979D01*
X194924127Y-24195016D01*
X194907923Y-24185007D01*
X194890283Y-24175950D01*
X194871695Y-24167847D01*
X194851198Y-24160221D01*
X194829751Y-24154025D01*
X194806396Y-24148781D01*
X194782085Y-24144491D01*
X194755868Y-24141154D01*
X194728700Y-24138772D01*
X194699622Y-24137818D01*
X194669118Y-24137818D01*
X194637180Y-24139248D01*
X194115244Y-24141154D01*
X193757277Y-24140678D01*
X193595691Y-24138772D01*
X193240582Y-24139248D01*
X193138104Y-24134005D01*
X193036097Y-24122089D01*
X192986052Y-24113508D01*
X192936477Y-24102545D01*
X192888815Y-24088722D01*
X192842580Y-24072040D01*
X192798725Y-24052020D01*
X192757257Y-24029140D01*
X192718169Y-24001971D01*
X192682421Y-23971465D01*
X192650010Y-23936193D01*
X192621412Y-23897107D01*
X192596624Y-23852779D01*
X192576607Y-23803683D01*
X192561350Y-23749822D01*
X192550866Y-23689762D01*
X192546099Y-23624461D01*
X192547049Y-23552963D01*
X192554203Y-23475268D01*
X192567547Y-23390900D01*
X192588041Y-23299859D01*
X192615212Y-23201668D01*
X192781568Y-22566287D01*
X192805395Y-22515762D01*
X192831616Y-22469050D01*
X192859737Y-22425197D01*
X192889765Y-22384682D01*
X192921703Y-22347502D01*
X192955544Y-22313184D01*
X192991292Y-22281248D01*
X193028950Y-22252649D01*
X193068989Y-22226432D01*
X193110933Y-22202600D01*
X193200067Y-22162084D01*
X193297784Y-22130148D01*
X193403601Y-22105362D01*
X193517522Y-22087250D01*
X193639543Y-22074857D01*
X193769671Y-22066754D01*
X193908376Y-22062463D01*
X194548050Y-22061987D01*
X197162020Y-22062463D01*
G37*
G36*
X169415703Y-25798960D02*
G01*
X167876109Y-25798960D01*
X168643523Y-22981931D01*
X170185501Y-22981931D01*
X169415703Y-25798960D01*
G37*
G36*
X179706753Y-22977402D02*
G01*
X179879806Y-22983805D01*
X180055305Y-22996378D01*
X180230163Y-23016751D01*
X180316312Y-23030372D01*
X180401178Y-23046612D01*
X180484242Y-23065646D01*
X180565269Y-23087707D01*
X180643734Y-23112969D01*
X180719288Y-23141666D01*
X180791526Y-23173972D01*
X180860152Y-23210177D01*
X180924647Y-23250399D01*
X180984719Y-23294928D01*
X181039900Y-23343940D01*
X181089900Y-23397666D01*
X181134197Y-23456224D01*
X181172498Y-23519962D01*
X181204397Y-23588997D01*
X181229483Y-23663620D01*
X181247354Y-23743948D01*
X181257658Y-23830212D01*
X181259984Y-23922705D01*
X181253989Y-24021543D01*
X181239205Y-24126958D01*
X181215223Y-24239184D01*
X181106024Y-24656479D01*
X181066558Y-24789951D01*
X181019700Y-24916380D01*
X180964985Y-25035474D01*
X180901947Y-25147001D01*
X180830117Y-25250612D01*
X180749150Y-25346132D01*
X180705026Y-25390719D01*
X180658519Y-25433270D01*
X180609448Y-25473608D01*
X180557818Y-25511735D01*
X180503511Y-25547649D01*
X180446581Y-25581294D01*
X180386859Y-25612668D01*
X180324402Y-25641714D01*
X180259093Y-25668431D01*
X180190814Y-25692704D01*
X180119627Y-25714591D01*
X180045409Y-25734032D01*
X179887782Y-25765406D01*
X179717347Y-25786536D01*
X179533817Y-25797246D01*
X179336664Y-25797188D01*
X178248635Y-25797246D01*
X178248635Y-25797305D01*
X177784598Y-25798876D01*
X177472544Y-25801437D01*
X177333716Y-25804755D01*
X177174925Y-25805570D01*
X177007401Y-25803649D01*
X176834463Y-25797246D01*
X176658792Y-25784673D01*
X176483991Y-25764301D01*
X176397785Y-25750679D01*
X176312975Y-25734439D01*
X176229854Y-25715406D01*
X176148886Y-25693344D01*
X176070422Y-25668082D01*
X175994867Y-25639385D01*
X175922572Y-25607080D01*
X175854003Y-25570874D01*
X175789450Y-25530652D01*
X175729437Y-25486123D01*
X175674197Y-25437112D01*
X175624254Y-25383385D01*
X175579959Y-25324828D01*
X175541657Y-25261089D01*
X175509759Y-25192054D01*
X175484671Y-25117431D01*
X175466743Y-25037104D01*
X175456440Y-24950839D01*
X175454112Y-24858346D01*
X175460165Y-24759508D01*
X175462377Y-24743792D01*
X177007924Y-24743792D01*
X177009380Y-24788263D01*
X177014037Y-24830464D01*
X177021720Y-24870395D01*
X177032255Y-24908114D01*
X177045353Y-24943738D01*
X177060893Y-24977266D01*
X177078648Y-25008756D01*
X177098380Y-25038210D01*
X177119977Y-25065801D01*
X177143143Y-25091470D01*
X177167765Y-25115336D01*
X177193551Y-25137397D01*
X177220385Y-25157770D01*
X177248034Y-25176455D01*
X177276323Y-25193510D01*
X177305021Y-25209051D01*
X177362764Y-25235536D01*
X177419865Y-25256374D01*
X177474582Y-25271974D01*
X177525339Y-25282801D01*
X177570625Y-25289204D01*
X177608752Y-25291649D01*
X178204456Y-25304455D01*
X178250555Y-25304455D01*
X178251140Y-25303931D01*
X178330419Y-25304455D01*
X178369708Y-25304455D01*
X178567908Y-25302126D01*
X178739797Y-25296014D01*
X178887762Y-25285130D01*
X178953479Y-25277562D01*
X179014075Y-25268424D01*
X179069839Y-25257539D01*
X179121003Y-25244849D01*
X179167920Y-25230181D01*
X179210879Y-25213475D01*
X179250168Y-25194441D01*
X179286023Y-25173137D01*
X179318738Y-25149329D01*
X179348598Y-25122845D01*
X179375957Y-25093682D01*
X179401045Y-25061610D01*
X179424210Y-25026568D01*
X179445632Y-24988383D01*
X179465655Y-24946939D01*
X179484630Y-24902119D01*
X179520255Y-24801826D01*
X179554946Y-24686398D01*
X179590920Y-24554790D01*
X179675962Y-24239184D01*
X179689351Y-24184992D01*
X179698722Y-24133303D01*
X179704309Y-24084117D01*
X179706229Y-24037259D01*
X179704774Y-23992788D01*
X179700120Y-23950587D01*
X179692434Y-23910656D01*
X179681898Y-23872937D01*
X179668801Y-23837314D01*
X179653260Y-23803786D01*
X179635507Y-23772295D01*
X179615775Y-23742841D01*
X179594180Y-23715251D01*
X179571012Y-23689581D01*
X179546389Y-23665716D01*
X179520546Y-23643655D01*
X179493712Y-23623282D01*
X179466064Y-23604597D01*
X179437832Y-23587542D01*
X179409134Y-23572058D01*
X179351334Y-23545515D01*
X179294290Y-23524677D01*
X179239574Y-23509077D01*
X179188758Y-23498250D01*
X179143530Y-23491847D01*
X179105404Y-23489402D01*
X178462959Y-23489170D01*
X178400500Y-23489577D01*
X178400735Y-23488587D01*
X178342351Y-23488587D01*
X178144210Y-23490799D01*
X177972378Y-23496562D01*
X177824529Y-23506807D01*
X177758870Y-23514025D01*
X177698333Y-23522756D01*
X177642628Y-23533175D01*
X177591522Y-23545399D01*
X177544722Y-23559543D01*
X177501822Y-23575784D01*
X177462648Y-23594236D01*
X177426908Y-23615016D01*
X177394313Y-23638299D01*
X177364510Y-23664202D01*
X177337209Y-23692782D01*
X177312239Y-23724273D01*
X177289188Y-23758791D01*
X177267825Y-23796451D01*
X177247917Y-23837372D01*
X177229059Y-23881727D01*
X177193551Y-23981147D01*
X177158976Y-24095759D01*
X177123119Y-24226727D01*
X177038192Y-24541867D01*
X177024805Y-24596059D01*
X177015434Y-24647748D01*
X177009845Y-24696992D01*
X177007924Y-24743792D01*
X175462377Y-24743792D01*
X175474950Y-24654093D01*
X175498874Y-24541867D01*
X175608131Y-24124572D01*
X175647538Y-23991042D01*
X175694454Y-23864672D01*
X175749170Y-23745577D01*
X175812209Y-23634050D01*
X175884039Y-23530439D01*
X175965006Y-23434920D01*
X176009070Y-23390332D01*
X176055637Y-23347782D01*
X176104706Y-23307443D01*
X176156337Y-23269317D01*
X176210587Y-23233402D01*
X176267515Y-23199758D01*
X176327237Y-23168384D01*
X176389695Y-23139338D01*
X176455063Y-23112620D01*
X176523282Y-23088347D01*
X176594471Y-23066461D01*
X176668686Y-23047019D01*
X176826373Y-23015645D01*
X176996749Y-22994515D01*
X177180338Y-22983863D01*
X178519421Y-22983863D01*
X178519421Y-22983688D01*
X178961804Y-22981651D01*
X179251972Y-22979439D01*
X179346153Y-22977984D01*
X179380380Y-22976296D01*
X179539230Y-22975481D01*
X179706753Y-22977402D01*
G37*
G36*
X189154225Y-22066276D02*
G01*
X189250032Y-22066276D01*
X188739533Y-23941436D01*
X188740011Y-23941436D01*
X188575088Y-24540591D01*
X188561743Y-24594930D01*
X188552686Y-24646408D01*
X188546964Y-24695503D01*
X188545061Y-24742692D01*
X188546489Y-24787022D01*
X188551254Y-24829444D01*
X188558883Y-24869006D01*
X188569368Y-24907138D01*
X188582714Y-24942411D01*
X188597968Y-24976254D01*
X188615603Y-25007713D01*
X188635624Y-25036788D01*
X188657071Y-25064435D01*
X188680427Y-25090174D01*
X188704738Y-25114007D01*
X188730954Y-25136409D01*
X188757649Y-25156428D01*
X188785293Y-25175019D01*
X188813416Y-25192178D01*
X188842013Y-25207908D01*
X188899690Y-25234123D01*
X188956889Y-25255096D01*
X189011705Y-25270826D01*
X189062230Y-25281789D01*
X189107512Y-25287986D01*
X189145645Y-25290369D01*
X189788173Y-25290846D01*
X190092281Y-24213606D01*
X190676183Y-22070090D01*
X192218637Y-22070090D01*
X191707661Y-23941436D01*
X191712905Y-23941436D01*
X191209083Y-25804203D01*
X191207176Y-25803726D01*
X191200503Y-25803249D01*
X191176192Y-25802296D01*
X191136627Y-25801343D01*
X191084195Y-25800866D01*
X189659954Y-25800866D01*
X189660430Y-25798960D01*
X189101793Y-25800866D01*
X188932102Y-25802296D01*
X188870614Y-25803726D01*
X188711888Y-25804203D01*
X188544582Y-25802296D01*
X188371556Y-25796099D01*
X188195671Y-25783229D01*
X188021216Y-25763210D01*
X187934940Y-25749387D01*
X187850096Y-25733181D01*
X187767160Y-25714115D01*
X187686127Y-25692189D01*
X187607479Y-25666926D01*
X187532168Y-25638327D01*
X187459717Y-25605914D01*
X187391078Y-25569688D01*
X187326729Y-25529173D01*
X187266672Y-25484844D01*
X187211379Y-25435748D01*
X187161331Y-25382363D01*
X187117003Y-25323735D01*
X187078871Y-25259863D01*
X187046933Y-25190748D01*
X187021669Y-25116390D01*
X187004035Y-25035835D01*
X186993550Y-24949560D01*
X186991165Y-24857090D01*
X186997362Y-24758422D01*
X187012137Y-24652605D01*
X187035971Y-24540591D01*
X187384881Y-23206912D01*
X187392031Y-23181172D01*
X187399180Y-23155432D01*
X187406807Y-23130170D01*
X187414434Y-23104907D01*
X187422059Y-23080121D01*
X187430641Y-23055811D01*
X187439220Y-23031503D01*
X187447800Y-23007193D01*
X187702811Y-22070090D01*
X188867278Y-22070090D01*
X188936392Y-22067230D01*
X189006938Y-22065324D01*
X189079865Y-22065324D01*
X189154225Y-22066276D01*
G37*
G36*
X186832915Y-22563428D02*
G01*
X184881491Y-22563428D01*
X184683204Y-22568194D01*
X184509699Y-22581063D01*
X184359079Y-22604421D01*
X184291391Y-22620150D01*
X184228474Y-22639216D01*
X184170323Y-22661618D01*
X184115983Y-22687358D01*
X184065458Y-22716910D01*
X184018746Y-22750753D01*
X183974894Y-22788409D01*
X183933901Y-22829878D01*
X183895770Y-22876590D01*
X183859543Y-22927592D01*
X183792813Y-23044849D01*
X183731799Y-23183078D01*
X183673171Y-23343711D01*
X183615019Y-23529130D01*
X183335701Y-24544881D01*
X183322355Y-24599219D01*
X183312821Y-24650698D01*
X183307101Y-24700270D01*
X183305194Y-24746982D01*
X183306625Y-24791312D01*
X183311391Y-24833733D01*
X183319018Y-24873296D01*
X183329505Y-24911428D01*
X183342851Y-24946701D01*
X183358105Y-24980543D01*
X183376217Y-25012003D01*
X183395758Y-25041555D01*
X183417209Y-25068724D01*
X183440564Y-25094464D01*
X183465352Y-25118296D01*
X183491091Y-25140699D01*
X183517782Y-25160719D01*
X183545428Y-25179785D01*
X183573553Y-25196468D01*
X183602150Y-25212197D01*
X183660301Y-25238413D01*
X183717025Y-25259386D01*
X183771840Y-25275116D01*
X183822842Y-25286079D01*
X183868124Y-25292276D01*
X183906255Y-25294659D01*
X184548309Y-25295135D01*
X184929633Y-23945726D01*
X186473519Y-23945250D01*
X185969695Y-25808492D01*
X185602193Y-25803249D01*
X184796646Y-25802296D01*
X183631227Y-25808016D01*
X183472024Y-25808492D01*
X183304718Y-25806586D01*
X183131693Y-25800390D01*
X182956283Y-25787996D01*
X182781350Y-25767500D01*
X182695077Y-25753676D01*
X182610234Y-25737472D01*
X182527294Y-25718405D01*
X182446263Y-25696479D01*
X182367615Y-25671216D01*
X182292305Y-25642616D01*
X182219853Y-25610205D01*
X182151213Y-25573978D01*
X182086864Y-25533939D01*
X182026805Y-25489133D01*
X181971517Y-25440038D01*
X181921466Y-25386654D01*
X181877136Y-25328024D01*
X181839005Y-25264153D01*
X181807069Y-25195038D01*
X181781806Y-25120679D01*
X181764171Y-25040125D01*
X181753684Y-24953850D01*
X181751300Y-24861379D01*
X181757495Y-24762713D01*
X181772273Y-24657372D01*
X181796105Y-24544881D01*
X182145495Y-23211678D01*
X182184580Y-23077738D01*
X182231768Y-22951424D01*
X182286583Y-22832261D01*
X182349502Y-22720724D01*
X182421000Y-22617290D01*
X182502031Y-22521958D01*
X182546360Y-22477153D01*
X182592596Y-22434730D01*
X182641691Y-22394216D01*
X182693647Y-22356082D01*
X182747984Y-22320333D01*
X182804706Y-22286491D01*
X182864288Y-22255031D01*
X182926730Y-22225956D01*
X182992033Y-22199264D01*
X183060672Y-22175430D01*
X183131693Y-22153504D01*
X183206052Y-22133961D01*
X183363347Y-22102503D01*
X183533990Y-22081530D01*
X183717501Y-22070567D01*
X186974482Y-22070567D01*
X186832915Y-22563428D01*
G37*
G36*
X175214094Y-23476221D02*
G01*
X173262670Y-23476221D01*
X173064381Y-23478604D01*
X172892785Y-23484800D01*
X172744546Y-23495764D01*
X172678767Y-23503391D01*
X172618233Y-23512447D01*
X172562465Y-23523410D01*
X172511462Y-23535803D01*
X172464274Y-23550579D01*
X172421375Y-23567261D01*
X172382288Y-23586328D01*
X172346539Y-23607778D01*
X172313651Y-23631611D01*
X172283620Y-23657827D01*
X172256452Y-23687379D01*
X172231190Y-23719315D01*
X172208310Y-23754111D01*
X172186860Y-23792720D01*
X172166841Y-23833712D01*
X172147774Y-23878994D01*
X172112026Y-23979091D01*
X172077230Y-24094442D01*
X172041480Y-24225999D01*
X171956636Y-24541544D01*
X171943289Y-24595883D01*
X171933756Y-24647362D01*
X171928037Y-24696934D01*
X171926130Y-24743646D01*
X171927560Y-24787975D01*
X171932326Y-24830396D01*
X171939953Y-24870436D01*
X171950440Y-24908091D01*
X171963786Y-24943364D01*
X171979038Y-24977207D01*
X171997151Y-25008666D01*
X172016694Y-25038218D01*
X172038144Y-25065865D01*
X172061500Y-25091127D01*
X172086286Y-25114959D01*
X172112026Y-25137362D01*
X172138718Y-25157858D01*
X172166364Y-25176449D01*
X172194487Y-25193608D01*
X172223086Y-25208860D01*
X172281238Y-25235553D01*
X172337960Y-25256050D01*
X172392774Y-25271779D01*
X172443777Y-25282743D01*
X172489060Y-25288939D01*
X172527192Y-25291322D01*
X173169245Y-25291799D01*
X174713607Y-25291322D01*
X174590629Y-25805156D01*
X174223129Y-25799912D01*
X173418059Y-25799436D01*
X172252162Y-25804679D01*
X172092959Y-25805633D01*
X171925654Y-25803249D01*
X171752628Y-25797053D01*
X171577219Y-25784660D01*
X171402287Y-25764164D01*
X171316013Y-25750340D01*
X171231168Y-25734134D01*
X171148230Y-25715068D01*
X171067198Y-25693142D01*
X170988551Y-25667879D01*
X170913239Y-25639280D01*
X170840788Y-25606868D01*
X170772149Y-25570642D01*
X170707801Y-25530603D01*
X170647742Y-25485797D01*
X170592451Y-25437178D01*
X170542401Y-25383317D01*
X170498073Y-25324687D01*
X170459941Y-25260817D01*
X170428005Y-25191702D01*
X170402741Y-25117343D01*
X170385106Y-25036788D01*
X170374619Y-24950514D01*
X170372237Y-24858043D01*
X170378432Y-24759376D01*
X170393208Y-24654035D01*
X170417043Y-24541544D01*
X170526673Y-24124471D01*
X170565757Y-23991008D01*
X170612947Y-23864218D01*
X170667285Y-23745531D01*
X170730680Y-23633994D01*
X170802178Y-23530084D01*
X170883210Y-23434752D01*
X170927538Y-23389946D01*
X170973774Y-23347524D01*
X171022869Y-23307009D01*
X171074825Y-23268876D01*
X171129163Y-23233127D01*
X171185885Y-23199285D01*
X171245468Y-23168302D01*
X171307909Y-23139226D01*
X171373211Y-23112534D01*
X171441850Y-23088224D01*
X171512871Y-23066298D01*
X171587229Y-23046755D01*
X171744524Y-23015297D01*
X171915167Y-22994323D01*
X172098679Y-22983837D01*
X175355661Y-22983837D01*
X175214094Y-23476221D01*
G37*
G36*
X170299421Y-22564380D02*
G01*
X168756966Y-22564380D01*
X168892336Y-22068660D01*
X170434791Y-22068660D01*
X170299421Y-22564380D01*
G37*
G36*
X167033440Y-22065324D02*
G01*
X167185492Y-22071521D01*
X167322292Y-22083437D01*
X167445270Y-22101073D01*
X167553470Y-22125381D01*
X167647848Y-22156365D01*
X167690269Y-22174478D01*
X167728879Y-22194497D01*
X167764151Y-22215946D01*
X167796087Y-22239779D01*
X167824686Y-22265041D01*
X167850426Y-22292688D01*
X167872352Y-22322240D01*
X167891418Y-22353699D01*
X167907624Y-22387542D01*
X167920494Y-22423290D01*
X167930026Y-22460947D01*
X167936700Y-22500986D01*
X167940514Y-22543408D01*
X167940990Y-22588214D01*
X167933840Y-22684022D01*
X167914774Y-22789839D01*
X167678831Y-23651630D01*
X167665484Y-23704538D01*
X167648324Y-23754111D01*
X167628305Y-23800346D01*
X167604949Y-23844199D01*
X167578733Y-23885190D01*
X167550134Y-23923323D01*
X167518674Y-23959073D01*
X167484831Y-23992438D01*
X167449083Y-24022944D01*
X167410950Y-24051544D01*
X167370435Y-24077760D01*
X167328489Y-24101592D01*
X167285113Y-24123518D01*
X167239832Y-24143537D01*
X167193596Y-24162128D01*
X167145931Y-24178333D01*
X167097312Y-24193109D01*
X167047740Y-24205979D01*
X166946689Y-24227905D01*
X166843732Y-24244589D01*
X166740297Y-24256982D01*
X166637340Y-24265085D01*
X166536289Y-24270328D01*
X166345151Y-24274618D01*
X166346580Y-24277954D01*
X164949506Y-24277954D01*
X164827959Y-23944296D01*
X165586793Y-23945726D01*
X165667824Y-23942390D01*
X165707387Y-23940006D01*
X165746472Y-23935716D01*
X165784605Y-23929996D01*
X165821784Y-23921894D01*
X165858486Y-23910930D01*
X165876123Y-23904257D01*
X165893758Y-23896630D01*
X165910918Y-23888050D01*
X165928078Y-23878517D01*
X165945237Y-23868032D01*
X165961443Y-23856592D01*
X165977650Y-23844199D01*
X165993856Y-23829899D01*
X166009109Y-23814646D01*
X166024362Y-23798440D01*
X166039615Y-23780326D01*
X166053914Y-23761260D01*
X166068215Y-23740288D01*
X166082037Y-23717885D01*
X166095860Y-23693576D01*
X166108730Y-23667836D01*
X166121599Y-23640668D01*
X166133992Y-23611591D01*
X166338954Y-22905189D01*
X166355160Y-22857046D01*
X166361833Y-22834644D01*
X166367553Y-22813195D01*
X166371843Y-22792698D01*
X166374703Y-22773155D01*
X166376610Y-22754566D01*
X166377086Y-22737406D01*
X166376133Y-22720248D01*
X166374226Y-22704518D01*
X166370413Y-22689741D01*
X166365646Y-22675918D01*
X166358973Y-22662572D01*
X166350870Y-22650178D01*
X166340860Y-22638738D01*
X166329421Y-22628252D01*
X166316075Y-22618243D01*
X166301299Y-22609186D01*
X166284615Y-22601084D01*
X166266026Y-22593457D01*
X166245053Y-22586784D01*
X166222651Y-22580587D01*
X166198341Y-22575344D01*
X166171648Y-22570577D01*
X166143049Y-22566764D01*
X166112067Y-22563428D01*
X166079177Y-22561044D01*
X166043905Y-22559137D01*
X165966210Y-22557231D01*
X165878982Y-22557707D01*
X165144934Y-22559137D01*
X164267889Y-25802296D01*
X162723052Y-25802296D01*
X163735943Y-22069137D01*
X166683575Y-22069137D01*
X166866135Y-22064847D01*
X167033440Y-22065324D01*
G37*
%TO.C,J1*%
D11*
X178282500Y-117101800D02*
X97002500Y-117101800D01*
X97002500Y-109799300D01*
X178282500Y-109799300D01*
X178282500Y-117101800D01*
G36*
X178282500Y-117101800D02*
G01*
X97002500Y-117101800D01*
X97002500Y-109799300D01*
X178282500Y-109799300D01*
X178282500Y-117101800D01*
G37*
%TD*%
D12*
%TO.C,H1*%
X196201200Y-48180500D03*
%TD*%
D13*
%TO.C,C21*%
X163667500Y-41587500D03*
X165217500Y-41587500D03*
%TD*%
D14*
%TO.C,R15*%
X178822500Y-89987500D03*
X177862500Y-89987500D03*
%TD*%
D15*
%TO.C,C31*%
X177562500Y-92987500D03*
X178522500Y-92987500D03*
%TD*%
D14*
%TO.C,C20*%
X163322500Y-51962500D03*
X162362500Y-51962500D03*
%TD*%
D16*
%TO.C,C14*%
X164967500Y-52842500D03*
X164967500Y-51882500D03*
%TD*%
D17*
%TO.C,J2*%
X164642500Y-92462500D03*
X163642500Y-92462500D03*
X162642500Y-92462500D03*
D18*
X165942500Y-94987500D03*
X161342500Y-94987500D03*
%TD*%
D19*
%TO.C,SW1*%
X179742500Y-99687500D03*
X179742500Y-106887500D03*
X176742500Y-99687500D03*
X176742500Y-106887500D03*
%TD*%
D20*
%TO.C,KiKit_TO_4*%
X203935000Y-115736250D03*
%TD*%
D15*
%TO.C,C29*%
X179062500Y-87887500D03*
X180022500Y-87887500D03*
%TD*%
D13*
%TO.C,C24*%
X161967500Y-84637500D03*
X163517500Y-84637500D03*
%TD*%
D20*
%TO.C,KiKit_TO_1*%
X93065000Y-21000000D03*
%TD*%
D14*
%TO.C,C8*%
X146822500Y-93987500D03*
X145862500Y-93987500D03*
%TD*%
D15*
%TO.C,C16*%
X158387500Y-42162500D03*
X159347500Y-42162500D03*
%TD*%
D21*
%TO.C,R1*%
X138342500Y-80677500D03*
X138342500Y-81697500D03*
%TD*%
D22*
%TO.C,C5*%
X176542500Y-82707500D03*
X176542500Y-83667500D03*
%TD*%
D23*
%TO.C,R8*%
X182652500Y-37587500D03*
X181632500Y-37587500D03*
%TD*%
D24*
%TO.C,C10*%
X177942500Y-75962500D03*
X177942500Y-74412500D03*
%TD*%
D25*
%TO.C,C12*%
X186242500Y-81137500D03*
X186242500Y-79237500D03*
%TD*%
D26*
%TO.C,Q1*%
X181780000Y-96137500D03*
X181780000Y-94237500D03*
X179905000Y-95187500D03*
%TD*%
D16*
%TO.C,C32*%
X175542500Y-84167500D03*
X175542500Y-83207500D03*
%TD*%
D27*
%TO.C,KiKit_FID_T_2*%
X201085000Y-30000000D03*
%TD*%
D28*
%TO.C,J7*%
X190742500Y-58477500D03*
X192542500Y-56477500D03*
X198642500Y-56477500D03*
X196242500Y-58477500D03*
X187042500Y-56477500D03*
%TD*%
D22*
%TO.C,C9*%
X158642500Y-82407500D03*
X158642500Y-83367500D03*
%TD*%
D29*
%TO.C,U12*%
X175205000Y-85550000D03*
X174805000Y-85550000D03*
X174405000Y-85550000D03*
X174005000Y-85550000D03*
X173605000Y-85550000D03*
X173205000Y-85550000D03*
X172805000Y-85550000D03*
X172405000Y-85550000D03*
X172005000Y-85550000D03*
X171605000Y-85550000D03*
X171205000Y-85550000D03*
X170805000Y-85550000D03*
X170405000Y-85550000D03*
X170005000Y-85550000D03*
D30*
X169167500Y-86387500D03*
X169167500Y-86787500D03*
X169167500Y-87187500D03*
X169167500Y-87587500D03*
X169167500Y-87987500D03*
X169167500Y-88387500D03*
X169167500Y-88787500D03*
X169167500Y-89187500D03*
X169167500Y-89587500D03*
X169167500Y-89987500D03*
X169167500Y-90387500D03*
X169167500Y-90787500D03*
X169167500Y-91187500D03*
X169167500Y-91587500D03*
D29*
X170005000Y-92425000D03*
X170405000Y-92425000D03*
X170805000Y-92425000D03*
X171205000Y-92425000D03*
X171605000Y-92425000D03*
X172005000Y-92425000D03*
X172405000Y-92425000D03*
X172805000Y-92425000D03*
X173205000Y-92425000D03*
X173605000Y-92425000D03*
X174005000Y-92425000D03*
X174405000Y-92425000D03*
X174805000Y-92425000D03*
X175205000Y-92425000D03*
D30*
X176042500Y-91587500D03*
X176042500Y-91187500D03*
X176042500Y-90787500D03*
X176042500Y-90387500D03*
X176042500Y-89987500D03*
X176042500Y-89587500D03*
X176042500Y-89187500D03*
X176042500Y-88787500D03*
X176042500Y-88387500D03*
X176042500Y-87987500D03*
X176042500Y-87587500D03*
X176042500Y-87187500D03*
X176042500Y-86787500D03*
X176042500Y-86387500D03*
D31*
X172605000Y-88987500D03*
%TD*%
D32*
%TO.C,U1*%
X157617500Y-67825000D03*
X156967500Y-67825000D03*
X156317500Y-67825000D03*
X155667500Y-67825000D03*
X155017500Y-67825000D03*
X154367500Y-67825000D03*
X153717500Y-67825000D03*
X153067500Y-67825000D03*
X153067500Y-73550000D03*
X153717500Y-73550000D03*
X154367500Y-73550000D03*
X155017500Y-73550000D03*
X155667500Y-73550000D03*
X156317500Y-73550000D03*
X156967500Y-73550000D03*
X157617500Y-73550000D03*
%TD*%
%TO.C,U7*%
X157642500Y-86562500D03*
X156992500Y-86562500D03*
X156342500Y-86562500D03*
X155692500Y-86562500D03*
X155042500Y-86562500D03*
X154392500Y-86562500D03*
X153742500Y-86562500D03*
X153092500Y-86562500D03*
X152442500Y-86562500D03*
X151792500Y-86562500D03*
X151792500Y-92287500D03*
X152442500Y-92287500D03*
X153092500Y-92287500D03*
X153742500Y-92287500D03*
X154392500Y-92287500D03*
X155042500Y-92287500D03*
X155692500Y-92287500D03*
X156342500Y-92287500D03*
X156992500Y-92287500D03*
X157642500Y-92287500D03*
%TD*%
D33*
%TO.C,C11*%
X196017500Y-73587500D03*
X193067500Y-73587500D03*
%TD*%
D14*
%TO.C,C4*%
X158122500Y-93787500D03*
X157162500Y-93787500D03*
%TD*%
D34*
%TO.C,R6*%
X181632500Y-36387500D03*
X182652500Y-36387500D03*
%TD*%
D27*
%TO.C,KiKit_FID_T_4*%
X201085000Y-106736250D03*
%TD*%
D35*
%TO.C,FB4*%
X151417500Y-41587500D03*
X153542500Y-41587500D03*
%TD*%
%TO.C,FB2*%
X190055000Y-62377500D03*
X192180000Y-62377500D03*
%TD*%
D34*
%TO.C,R7*%
X181632500Y-42687500D03*
X182652500Y-42687500D03*
%TD*%
D35*
%TO.C,FB1*%
X190055000Y-64277500D03*
X192180000Y-64277500D03*
%TD*%
D20*
%TO.C,KiKit_TO_2*%
X203935000Y-21000000D03*
%TD*%
D16*
%TO.C,C15*%
X165767500Y-45242500D03*
X165767500Y-44282500D03*
%TD*%
D22*
%TO.C,C36*%
X171842500Y-93907500D03*
X171842500Y-94867500D03*
%TD*%
D36*
%TO.C,R10*%
X161367500Y-43172500D03*
X161367500Y-42152500D03*
%TD*%
D37*
%TO.C,D2*%
X183942500Y-94537500D03*
X183942500Y-97037500D03*
%TD*%
D22*
%TO.C,C34*%
X176242500Y-93807500D03*
X176242500Y-94767500D03*
%TD*%
D38*
%TO.C,C41*%
X168942500Y-42087500D03*
X172542500Y-42087500D03*
%TD*%
%TO.C,C43*%
X175842500Y-42087500D03*
X179442500Y-42087500D03*
%TD*%
D39*
%TO.C,J3*%
X116051500Y-104766500D03*
D40*
X116051500Y-102226500D03*
X118591500Y-104766500D03*
X118591500Y-102226500D03*
X121131500Y-104766500D03*
X121131500Y-102226500D03*
X123671500Y-104766500D03*
X123671500Y-102226500D03*
X126211500Y-104766500D03*
X126211500Y-102226500D03*
X128751500Y-104766500D03*
X128751500Y-102226500D03*
X131291500Y-104766500D03*
X131291500Y-102226500D03*
X133831500Y-104766500D03*
X133831500Y-102226500D03*
X136371500Y-104766500D03*
X136371500Y-102226500D03*
%TD*%
D41*
%TO.C,U9*%
X189292500Y-76287500D03*
X189292500Y-78587500D03*
D42*
X195592500Y-78587500D03*
D41*
X189292500Y-80887500D03*
%TD*%
D16*
%TO.C,C19*%
X162367500Y-43142500D03*
X162367500Y-42182500D03*
%TD*%
D20*
%TO.C,KiKit_TO_3*%
X93065000Y-115736250D03*
%TD*%
D23*
%TO.C,R9*%
X182652500Y-41587500D03*
X181632500Y-41587500D03*
%TD*%
D14*
%TO.C,C6*%
X146922500Y-84387500D03*
X145962500Y-84387500D03*
%TD*%
D22*
%TO.C,R14*%
X165242500Y-88407500D03*
X165242500Y-89367500D03*
%TD*%
D43*
%TO.C,F1*%
X187242500Y-101887500D03*
X190042500Y-101887500D03*
%TD*%
D39*
%TO.C,J4*%
X165442500Y-98312500D03*
D40*
X165442500Y-100852500D03*
%TD*%
D27*
%TO.C,KiKit_FID_T_1*%
X95915000Y-30000000D03*
%TD*%
D14*
%TO.C,C18*%
X164347500Y-42862500D03*
X163387500Y-42862500D03*
%TD*%
D25*
%TO.C,C13*%
X186242500Y-77537500D03*
X186242500Y-75637500D03*
%TD*%
D34*
%TO.C,R13*%
X155059500Y-26584500D03*
X156079500Y-26584500D03*
%TD*%
D44*
%TO.C,FB3*%
X154242500Y-47450000D03*
X154242500Y-45325000D03*
%TD*%
D45*
%TO.C,C25*%
X164017500Y-90387500D03*
X162467500Y-90387500D03*
%TD*%
D46*
%TO.C,U11*%
X182947500Y-77887500D03*
X181677500Y-77887500D03*
X180407500Y-77887500D03*
X179137500Y-77887500D03*
X179137500Y-85087500D03*
X180407500Y-85087500D03*
X181677500Y-85087500D03*
X182947500Y-85087500D03*
%TD*%
D27*
%TO.C,KiKit_FID_T_3*%
X95915000Y-106736250D03*
%TD*%
D25*
%TO.C,C17*%
X157067500Y-45537500D03*
X157067500Y-43637500D03*
%TD*%
D14*
%TO.C,C7*%
X146822500Y-75087500D03*
X145862500Y-75087500D03*
%TD*%
D47*
%TO.C,U13*%
X165642500Y-32766610D03*
X164372500Y-32766610D03*
X163102500Y-32766610D03*
X161832500Y-32766610D03*
X161832500Y-37716610D03*
X163102500Y-37716610D03*
X164372500Y-37716610D03*
X165642500Y-37716610D03*
%TD*%
D32*
%TO.C,U3*%
X146892500Y-77125000D03*
X146242500Y-77125000D03*
X145592500Y-77125000D03*
X144942500Y-77125000D03*
X144292500Y-77125000D03*
X143642500Y-77125000D03*
X142992500Y-77125000D03*
X142992500Y-82850000D03*
X143642500Y-82850000D03*
X144292500Y-82850000D03*
X144942500Y-82850000D03*
X145592500Y-82850000D03*
X146242500Y-82850000D03*
X146892500Y-82850000D03*
%TD*%
%TO.C,U10*%
X164592500Y-44700000D03*
X163942500Y-44700000D03*
X163292500Y-44700000D03*
X162642500Y-44700000D03*
X161992500Y-44700000D03*
X161342500Y-44700000D03*
X160692500Y-44700000D03*
X160042500Y-44700000D03*
X159392500Y-44700000D03*
X158742500Y-44700000D03*
X158742500Y-50425000D03*
X159392500Y-50425000D03*
X160042500Y-50425000D03*
X160692500Y-50425000D03*
X161342500Y-50425000D03*
X161992500Y-50425000D03*
X162642500Y-50425000D03*
X163292500Y-50425000D03*
X163942500Y-50425000D03*
X164592500Y-50425000D03*
%TD*%
%TO.C,U4*%
X146892500Y-67825000D03*
X146242500Y-67825000D03*
X145592500Y-67825000D03*
X144942500Y-67825000D03*
X144292500Y-67825000D03*
X143642500Y-67825000D03*
X142992500Y-67825000D03*
X142992500Y-73550000D03*
X143642500Y-73550000D03*
X144292500Y-73550000D03*
X144942500Y-73550000D03*
X145592500Y-73550000D03*
X146242500Y-73550000D03*
X146892500Y-73550000D03*
%TD*%
D33*
%TO.C,C1*%
X173517500Y-102987500D03*
X170567500Y-102987500D03*
%TD*%
D14*
%TO.C,C2*%
X173622500Y-99687500D03*
X172662500Y-99687500D03*
%TD*%
D48*
%TO.C,U6*%
X174192500Y-96537500D03*
X173542500Y-96537500D03*
X172892500Y-96537500D03*
X172892500Y-98437500D03*
X173542500Y-98437500D03*
X174192500Y-98437500D03*
%TD*%
D32*
%TO.C,U5*%
X146892500Y-86587500D03*
X146242500Y-86587500D03*
X145592500Y-86587500D03*
X144942500Y-86587500D03*
X144292500Y-86587500D03*
X143642500Y-86587500D03*
X142992500Y-86587500D03*
X142992500Y-92312500D03*
X143642500Y-92312500D03*
X144292500Y-92312500D03*
X144942500Y-92312500D03*
X145592500Y-92312500D03*
X146242500Y-92312500D03*
X146892500Y-92312500D03*
%TD*%
D28*
%TO.C,J9*%
X190742500Y-41627500D03*
X192542500Y-39627500D03*
X198642500Y-39627500D03*
X196242500Y-41627500D03*
X187042500Y-39627500D03*
%TD*%
D49*
%TO.C,J1*%
X175742500Y-112987500D03*
X173202500Y-112987500D03*
X170662500Y-112987500D03*
X168122500Y-112987500D03*
X165582500Y-112987500D03*
X163042500Y-112987500D03*
X160502500Y-112987500D03*
X157962500Y-112987500D03*
X155422500Y-112987500D03*
X152882500Y-112987500D03*
X150342500Y-112987500D03*
X147802500Y-112987500D03*
X145262500Y-112987500D03*
X142722500Y-112987500D03*
X140182500Y-112987500D03*
X137642500Y-112987500D03*
X135102500Y-112987500D03*
X132562500Y-112987500D03*
X130022500Y-112987500D03*
X127482500Y-112987500D03*
X124942500Y-112987500D03*
X122402500Y-112987500D03*
X119862500Y-112987500D03*
X117322500Y-112987500D03*
X114782500Y-112987500D03*
X112242500Y-112987500D03*
X109702500Y-112987500D03*
X107162500Y-112987500D03*
X104622500Y-112987500D03*
X102082500Y-112987500D03*
X99542500Y-112987500D03*
%TD*%
D22*
%TO.C,C33*%
X175242500Y-93807500D03*
X175242500Y-94767500D03*
%TD*%
D15*
%TO.C,C28*%
X177562500Y-91987500D03*
X178522500Y-91987500D03*
%TD*%
D50*
%TO.C,J6*%
X184027500Y-104656500D03*
X188027500Y-104656500D03*
D51*
X184727500Y-104356500D03*
X185377500Y-104356500D03*
X186027500Y-104356500D03*
X186677500Y-104356500D03*
X187327500Y-104356500D03*
D52*
X182707900Y-104456500D03*
D53*
X183197500Y-107006500D03*
X188857500Y-107006500D03*
D54*
X189347100Y-104453100D03*
%TD*%
D55*
%TO.C,D1*%
X154655000Y-25187500D03*
X156230000Y-25187500D03*
%TD*%
D21*
%TO.C,R4*%
X167791300Y-91531100D03*
X167791300Y-92551100D03*
%TD*%
D56*
%TO.C,R2*%
X186205000Y-64277500D03*
X188030000Y-64277500D03*
%TD*%
D14*
%TO.C,R16*%
X178822500Y-90987500D03*
X177862500Y-90987500D03*
%TD*%
D47*
%TO.C,U8*%
X176247500Y-76012500D03*
X174977500Y-76012500D03*
X173707500Y-76012500D03*
X172437500Y-76012500D03*
X172437500Y-80962500D03*
X173707500Y-80962500D03*
X174977500Y-80962500D03*
X176247500Y-80962500D03*
%TD*%
D57*
%TO.C,Y1*%
X162092500Y-86437500D03*
X162092500Y-88637500D03*
X163792500Y-88637500D03*
X163792500Y-86437500D03*
%TD*%
D14*
%TO.C,C27*%
X167222500Y-90187500D03*
X166262500Y-90187500D03*
%TD*%
D38*
%TO.C,C42*%
X168942500Y-36987500D03*
X172542500Y-36987500D03*
%TD*%
D58*
%TO.C,J8*%
X142542500Y-24947500D03*
X142542500Y-103687500D03*
D59*
X136192500Y-24947500D03*
D40*
X136192500Y-27487500D03*
X133652500Y-24947500D03*
X133652500Y-27487500D03*
X131112500Y-24947500D03*
X131112500Y-27487500D03*
X128572500Y-24947500D03*
X128572500Y-27487500D03*
X126032500Y-24947500D03*
X126032500Y-27487500D03*
X123492500Y-24947500D03*
X123492500Y-27487500D03*
X120952500Y-24947500D03*
X120952500Y-27487500D03*
X118412500Y-24947500D03*
X118412500Y-27487500D03*
X115872500Y-24947500D03*
X115872500Y-27487500D03*
X113332500Y-24947500D03*
X113332500Y-27487500D03*
X110792500Y-24947500D03*
X110792500Y-27487500D03*
X108252500Y-24947500D03*
X108252500Y-27487500D03*
X105712500Y-24947500D03*
X105712500Y-27487500D03*
%TD*%
D12*
%TO.C,H2*%
X196201200Y-104695500D03*
%TD*%
D38*
%TO.C,C39*%
X155637500Y-32587500D03*
X159237500Y-32587500D03*
%TD*%
D14*
%TO.C,C26*%
X183022500Y-86787500D03*
X182062500Y-86787500D03*
%TD*%
D13*
%TO.C,C22*%
X158767500Y-40887500D03*
X160317500Y-40887500D03*
%TD*%
D39*
%TO.C,J10*%
X161742500Y-98312500D03*
D40*
X161742500Y-100852500D03*
%TD*%
D21*
%TO.C,R17*%
X182342500Y-97477500D03*
X182342500Y-98497500D03*
%TD*%
D60*
%TO.C,R3*%
X188030000Y-62377500D03*
X186205000Y-62377500D03*
%TD*%
D61*
%TO.C,J5*%
X189154700Y-95472500D03*
X189154700Y-92972500D03*
X189154700Y-90972500D03*
X189154700Y-88472500D03*
D62*
X191864700Y-98972500D03*
X191864700Y-84972500D03*
%TD*%
D21*
%TO.C,R18*%
X138742500Y-105377500D03*
X138742500Y-106397500D03*
%TD*%
D15*
%TO.C,C37*%
X179062500Y-88887500D03*
X180022500Y-88887500D03*
%TD*%
D32*
%TO.C,U2*%
X157617500Y-77125000D03*
X156967500Y-77125000D03*
X156317500Y-77125000D03*
X155667500Y-77125000D03*
X155017500Y-77125000D03*
X154367500Y-77125000D03*
X153717500Y-77125000D03*
X153067500Y-77125000D03*
X153067500Y-82850000D03*
X153717500Y-82850000D03*
X154367500Y-82850000D03*
X155017500Y-82850000D03*
X155667500Y-82850000D03*
X156317500Y-82850000D03*
X156967500Y-82850000D03*
X157617500Y-82850000D03*
%TD*%
D22*
%TO.C,R12*%
X184542500Y-82607500D03*
X184542500Y-83567500D03*
%TD*%
D63*
%TO.C,C38*%
X167567500Y-31787500D03*
X170517500Y-31787500D03*
%TD*%
D22*
%TO.C,C3*%
X158642500Y-73107500D03*
X158642500Y-74067500D03*
%TD*%
D36*
%TO.C,R11*%
X160367500Y-43172500D03*
X160367500Y-42152500D03*
%TD*%
%TO.C,R5*%
X158642500Y-72097500D03*
X158642500Y-71077500D03*
%TD*%
D14*
%TO.C,C35*%
X170922500Y-83487500D03*
X169962500Y-83487500D03*
%TD*%
%TO.C,C30*%
X167322500Y-89087500D03*
X166362500Y-89087500D03*
%TD*%
D22*
%TO.C,C45*%
X167791300Y-93507500D03*
X167791300Y-94467500D03*
%TD*%
D14*
%TO.C,C23*%
X162422500Y-39487500D03*
X161462500Y-39487500D03*
%TD*%
D38*
%TO.C,C40*%
X155637500Y-37687500D03*
X159237500Y-37687500D03*
%TD*%
%TO.C,C44*%
X175842500Y-36987500D03*
X179442500Y-36987500D03*
%TD*%
M02*
