%TF.GenerationSoftware,KiCad,Pcbnew,7.0.5-0*%
%TF.CreationDate,2023-06-15T10:43:23-05:00*%
%TF.ProjectId,PicoGUS,5069636f-4755-4532-9e6b-696361645f70,rev?*%
%TF.SameCoordinates,Original*%
%TF.FileFunction,Copper,L3,Inr*%
%TF.FilePolarity,Positive*%
%FSLAX46Y46*%
G04 Gerber Fmt 4.6, Leading zero omitted, Abs format (unit mm)*
G04 Created by KiCad (PCBNEW 7.0.5-0) date 2023-06-15 10:43:23*
%MOMM*%
%LPD*%
G01*
G04 APERTURE LIST*
%TA.AperFunction,ComponentPad*%
%ADD10R,1.700000X1.700000*%
%TD*%
%TA.AperFunction,ComponentPad*%
%ADD11O,1.700000X1.700000*%
%TD*%
%TA.AperFunction,ComponentPad*%
%ADD12R,1.350000X1.350000*%
%TD*%
%TA.AperFunction,ComponentPad*%
%ADD13O,1.350000X1.350000*%
%TD*%
%TA.AperFunction,ViaPad*%
%ADD14C,0.350000*%
%TD*%
%TA.AperFunction,Conductor*%
%ADD15C,0.400000*%
%TD*%
%TA.AperFunction,Conductor*%
%ADD16C,1.200000*%
%TD*%
G04 APERTURE END LIST*
D10*
%TO.N,UART_TX*%
%TO.C,J6*%
X125354000Y-66040000D03*
D11*
%TO.N,GND*%
X122814000Y-66040000D03*
%TD*%
D12*
%TO.N,RESET*%
%TO.C,J3*%
X119348000Y-66040000D03*
D13*
%TO.N,D7*%
X117348000Y-66040000D03*
%TO.N,+5V*%
X119348000Y-68040000D03*
%TO.N,D6*%
X117348000Y-68040000D03*
%TO.N,IRQ2*%
X119348000Y-70040000D03*
%TO.N,D5*%
X117348000Y-70040000D03*
%TO.N,unconnected-(J3--5V-Pad7)*%
X119348000Y-72040000D03*
%TO.N,D4*%
X117348000Y-72040000D03*
%TO.N,unconnected-(J3-DRQ2-Pad9)*%
X119348000Y-74040000D03*
%TO.N,D3*%
X117348000Y-74040000D03*
%TO.N,unconnected-(J3--12V-Pad11)*%
X119348000Y-76040000D03*
%TO.N,D2*%
X117348000Y-76040000D03*
%TO.N,unconnected-(J3-UNUSED-Pad13)*%
X119348000Y-78040000D03*
%TO.N,D1*%
X117348000Y-78040000D03*
%TO.N,unconnected-(J3-+12V-Pad15)*%
X119348000Y-80040000D03*
%TO.N,D0*%
X117348000Y-80040000D03*
%TO.N,GND*%
X119348000Y-82040000D03*
%TO.N,I{slash}OCHRDY*%
X117348000Y-82040000D03*
%TO.N,unconnected-(J3-~{SMEMW}-Pad19)*%
X119348000Y-84040000D03*
%TO.N,AEN*%
X117348000Y-84040000D03*
%TO.N,unconnected-(J3-~{SMEMR}-Pad21)*%
X119348000Y-86040000D03*
%TO.N,unconnected-(J3-BA19-Pad22)*%
X117348000Y-86040000D03*
%TO.N,~{IOW}*%
X119348000Y-88040000D03*
%TO.N,unconnected-(J3-BA18-Pad24)*%
X117348000Y-88040000D03*
%TO.N,~{IOR}*%
X119348000Y-90040000D03*
%TO.N,unconnected-(J3-BA17-Pad26)*%
X117348000Y-90040000D03*
%TO.N,DACK3*%
X119348000Y-92040000D03*
%TO.N,unconnected-(J3-BA16-Pad28)*%
X117348000Y-92040000D03*
%TO.N,DRQ3*%
X119348000Y-94040000D03*
%TO.N,unconnected-(J3-BA15-Pad30)*%
X117348000Y-94040000D03*
%TO.N,DACK*%
X119348000Y-96040000D03*
%TO.N,unconnected-(J3-BA14-Pad32)*%
X117348000Y-96040000D03*
%TO.N,DRQ*%
X119348000Y-98040000D03*
%TO.N,unconnected-(J3-BA13-Pad34)*%
X117348000Y-98040000D03*
%TO.N,unconnected-(J3-~{DACK0}-Pad35)*%
X119348000Y-100040000D03*
%TO.N,unconnected-(J3-BA12-Pad36)*%
X117348000Y-100040000D03*
%TO.N,unconnected-(J3-CLK-Pad37)*%
X119348000Y-102040000D03*
%TO.N,unconnected-(J3-BA11-Pad38)*%
X117348000Y-102040000D03*
%TO.N,IRQ7*%
X119348000Y-104040000D03*
%TO.N,unconnected-(J3-BA10-Pad40)*%
X117348000Y-104040000D03*
%TO.N,unconnected-(J3-IRQ6-Pad41)*%
X119348000Y-106040000D03*
%TO.N,A9*%
X117348000Y-106040000D03*
%TO.N,IRQ*%
X119348000Y-108040000D03*
%TO.N,A8*%
X117348000Y-108040000D03*
%TO.N,IRQ4*%
X119348000Y-110040000D03*
%TO.N,A7*%
X117348000Y-110040000D03*
%TO.N,IRQ3*%
X119348000Y-112040000D03*
%TO.N,A6*%
X117348000Y-112040000D03*
%TO.N,unconnected-(J3-~{DACK2}-Pad49)*%
X119348000Y-114040000D03*
%TO.N,A5*%
X117348000Y-114040000D03*
%TO.N,TC*%
X119348000Y-116040000D03*
%TO.N,A4*%
X117348000Y-116040000D03*
%TO.N,unconnected-(J3-ALE-Pad53)*%
X119348000Y-118040000D03*
%TO.N,A3*%
X117348000Y-118040000D03*
%TO.N,+5V*%
X119348000Y-120040000D03*
%TO.N,A2*%
X117348000Y-120040000D03*
%TO.N,unconnected-(J3-OSC-Pad57)*%
X119348000Y-122040000D03*
%TO.N,A1*%
X117348000Y-122040000D03*
%TO.N,GND*%
X119348000Y-124040000D03*
%TO.N,A0*%
X117348000Y-124040000D03*
%TD*%
D11*
%TO.N,SPI_RX*%
%TO.C,U1*%
X125290500Y-70358000D03*
%TO.N,~{SPI_CS}*%
X125290500Y-72898000D03*
D10*
%TO.N,GND*%
X125290500Y-75438000D03*
D11*
%TO.N,SPI_SCK*%
X125290500Y-77978000D03*
%TO.N,SPI_TX*%
X125290500Y-80518000D03*
%TO.N,~{RIOW}*%
X125290500Y-83058000D03*
%TO.N,~{RIOR}*%
X125290500Y-85598000D03*
D10*
%TO.N,GND*%
X125290500Y-88138000D03*
D11*
%TO.N,AD0*%
X125290500Y-90678000D03*
%TO.N,AD1*%
X125290500Y-93218000D03*
%TO.N,AD2*%
X125290500Y-95758000D03*
%TO.N,AD3*%
X125290500Y-98298000D03*
D10*
%TO.N,GND*%
X125290500Y-100838000D03*
D11*
%TO.N,AD4*%
X125290500Y-103378000D03*
%TO.N,AD5*%
X125290500Y-105918000D03*
%TO.N,AD6*%
X125290500Y-108458000D03*
%TO.N,AD7*%
X125290500Y-110998000D03*
D10*
%TO.N,GND*%
X125290500Y-113538000D03*
D11*
%TO.N,RA8*%
X125290500Y-116078000D03*
%TO.N,RA9*%
X125290500Y-118618000D03*
%TO.N,DIN*%
X143070500Y-118618000D03*
%TO.N,BCK*%
X143070500Y-116078000D03*
D10*
%TO.N,GND*%
X143070500Y-113538000D03*
D11*
%TO.N,LRCK*%
X143070500Y-110998000D03*
%TO.N,~{RDACK}*%
X143070500Y-108458000D03*
%TO.N,RTC*%
X143070500Y-105918000D03*
%TO.N,RIRQ*%
X143070500Y-103378000D03*
D10*
%TO.N,GND*%
X143070500Y-100838000D03*
D11*
%TO.N,RDRQ*%
X143070500Y-98298000D03*
%TO.N,RUN*%
X143070500Y-95758000D03*
%TO.N,~{RI{slash}OCHRDY}*%
X143070500Y-93218000D03*
%TO.N,ADS*%
X143070500Y-90678000D03*
D10*
%TO.N,GND*%
X143070500Y-88138000D03*
D11*
%TO.N,UART_TX*%
X143070500Y-85598000D03*
%TO.N,unconnected-(U1-ADC_VREF-Pad35)*%
X143070500Y-83058000D03*
%TO.N,+3V3*%
X143070500Y-80518000D03*
%TO.N,unconnected-(U1-3V3_EN-Pad37)*%
X143070500Y-77978000D03*
D10*
%TO.N,GND*%
X143070500Y-75438000D03*
D11*
%TO.N,/VSYS*%
X143070500Y-72898000D03*
%TO.N,unconnected-(U1-VBUS-Pad40)*%
X143070500Y-70358000D03*
%TD*%
D14*
%TO.N,A0*%
X130048000Y-105283000D03*
%TO.N,A1*%
X129286000Y-107188000D03*
%TO.N,A2*%
X134620000Y-111252000D03*
X134620000Y-106299000D03*
X126492000Y-111506000D03*
%TO.N,A3*%
X135255000Y-109220000D03*
X124206000Y-111887000D03*
X135074000Y-112068000D03*
%TO.N,A4*%
X128143000Y-96393000D03*
X122301000Y-114935000D03*
%TO.N,A5*%
X128270000Y-112649000D03*
X128143000Y-98679000D03*
%TO.N,A6*%
X134493000Y-97409000D03*
X134239000Y-103759000D03*
X122301000Y-110998000D03*
X122882000Y-104140000D03*
%TO.N,A7*%
X132969000Y-99441000D03*
X132969000Y-110109000D03*
%TO.N,A8*%
X122174000Y-107442000D03*
X126873000Y-109474000D03*
X122174000Y-108966000D03*
X127000000Y-116078000D03*
%TO.N,A9*%
X120396000Y-116586000D03*
X127127000Y-118745000D03*
X127381000Y-117400000D03*
X120269000Y-105029000D03*
%TO.N,D0*%
X122174000Y-80942000D03*
X122428000Y-104775000D03*
%TO.N,D1*%
X122428000Y-106553000D03*
X122174000Y-78994000D03*
%TO.N,D2*%
X122936000Y-102743000D03*
X138049000Y-106426000D03*
X138430000Y-103505000D03*
X123063000Y-76962000D03*
%TO.N,D3*%
X135890000Y-108204000D03*
X135636000Y-102997000D03*
X122301000Y-75057000D03*
X122428000Y-100838000D03*
%TO.N,D4*%
X124206000Y-96647000D03*
X124206000Y-73914000D03*
%TO.N,D5*%
X123698000Y-97282000D03*
X122174000Y-71120000D03*
%TO.N,D6*%
X133858000Y-97790000D03*
X120396000Y-93091000D03*
X133350000Y-94361000D03*
%TO.N,D7*%
X136017000Y-99949000D03*
X136017000Y-93853000D03*
X120650000Y-91059000D03*
%TO.N,GND*%
X127635000Y-66040000D03*
X140081000Y-96139000D03*
X129409000Y-130048000D03*
X135255000Y-123825000D03*
X121920000Y-129159000D03*
X129286000Y-83820000D03*
X136906000Y-80518000D03*
X137795000Y-74549000D03*
X130806000Y-123571000D03*
X144653000Y-60960000D03*
X140589000Y-76581000D03*
X133096000Y-76962000D03*
X136017000Y-111760000D03*
X130175000Y-69723000D03*
X123059000Y-121285000D03*
X136906000Y-85979000D03*
X131318000Y-101219000D03*
X124333000Y-129159000D03*
X140225500Y-88011000D03*
X134620000Y-71882000D03*
X142621000Y-60960000D03*
X133223000Y-124841000D03*
X123694000Y-125476000D03*
X142621000Y-59563000D03*
X132842000Y-86614000D03*
X139700000Y-84963000D03*
X138049000Y-118745000D03*
X136906000Y-84963000D03*
X139700000Y-85471000D03*
X132334000Y-114808000D03*
X131836000Y-74549000D03*
X132334000Y-118745000D03*
X139700000Y-85979000D03*
X135255000Y-124841000D03*
X136906000Y-85471000D03*
X138049000Y-117475000D03*
X128520000Y-129159000D03*
X144653000Y-59563000D03*
X140716000Y-74676000D03*
X135255000Y-78613000D03*
X139446000Y-103886000D03*
X133223000Y-123825000D03*
X125853000Y-125476000D03*
X127508000Y-131826000D03*
X129540000Y-66040000D03*
X128647000Y-125476000D03*
X132334000Y-109093000D03*
X127381000Y-70612000D03*
X140208000Y-91059000D03*
X132207000Y-91948000D03*
%TO.N,~{IOW}*%
X128524000Y-87249000D03*
X128524000Y-90551000D03*
%TO.N,+3V3*%
X133858000Y-79248000D03*
X122555000Y-130429000D03*
X139700000Y-81915000D03*
X137922000Y-112268000D03*
X128524000Y-69977000D03*
X132076000Y-131064000D03*
X136906000Y-82931000D03*
X136906000Y-82423000D03*
X128397000Y-131826000D03*
X138176000Y-96139000D03*
X131568000Y-131064000D03*
X123059000Y-125476000D03*
X140208000Y-92202000D03*
X130048000Y-60960000D03*
X125009000Y-125476000D03*
X138811000Y-99314000D03*
X127885000Y-131318000D03*
X140053000Y-78077000D03*
X134620000Y-69850000D03*
X138049000Y-104422000D03*
X140208000Y-72644000D03*
X130048000Y-60452000D03*
X138086000Y-88048000D03*
X139700000Y-82423000D03*
X139700000Y-82931000D03*
X136906000Y-81915000D03*
%TO.N,I{slash}OCHRDY*%
X138049000Y-80391000D03*
X137668000Y-84074000D03*
%TO.N,+5V*%
X136652000Y-68580000D03*
X131953000Y-68072000D03*
X136144000Y-68580000D03*
X131445000Y-68072000D03*
X135636000Y-68580000D03*
%TO.N,~{RIOR}*%
X133096000Y-83820000D03*
X133223000Y-85471000D03*
%TO.N,RESET*%
X134620000Y-91186000D03*
X133731000Y-69215000D03*
%TO.N,TC*%
X128333500Y-114744500D03*
X128397000Y-113538000D03*
%TO.N,BUSOE*%
X130810000Y-81280000D03*
X130429000Y-86614000D03*
X132969000Y-81220000D03*
%TO.N,RIRQ*%
X141097000Y-105537000D03*
X140970000Y-115189000D03*
%TO.N,~{RDACK}*%
X141478000Y-90297000D03*
%TO.N,RDRQ*%
X140589000Y-100711000D03*
X140335000Y-114046000D03*
%TO.N,RTC*%
X139954000Y-112903000D03*
X139954000Y-106299000D03*
%TO.N,IRQ*%
X127515000Y-115450000D03*
X127381000Y-107569000D03*
%TO.N,DACK*%
X133350000Y-90043000D03*
X132588000Y-94869000D03*
X138049000Y-73660000D03*
X138303000Y-89789000D03*
%TO.N,DRQ*%
X122301000Y-113792000D03*
%TO.N,AEN*%
X135890000Y-85979000D03*
X135890000Y-72771000D03*
%TO.N,ADS*%
X140081000Y-94361000D03*
X140208000Y-92964000D03*
X132334000Y-104521000D03*
X132334000Y-96139000D03*
%TO.N,~{BUSOE}*%
X134112000Y-105156000D03*
X139827000Y-97788000D03*
X135763000Y-88773000D03*
X135890000Y-93091000D03*
X134048500Y-112839500D03*
X139192000Y-93472000D03*
X139954000Y-105283000D03*
%TO.N,RUN*%
X135382000Y-91948000D03*
X135255000Y-80645000D03*
%TO.N,AD7*%
X137160000Y-101092000D03*
X137033000Y-110617000D03*
%TO.N,AD6*%
X133477000Y-109474000D03*
X133477000Y-98806000D03*
%TO.N,AD5*%
X128270000Y-100203000D03*
X128270000Y-106299000D03*
%TO.N,AD4*%
X127635000Y-98171000D03*
%TO.N,AD3*%
X135128000Y-102362000D03*
X136017000Y-109093000D03*
%TO.N,AD2*%
X130048000Y-101473000D03*
X136017000Y-107061000D03*
X135890000Y-101854000D03*
X130048000Y-95885000D03*
%TO.N,AD1*%
X128778000Y-108331000D03*
%TO.N,AD0*%
X129413000Y-106426000D03*
%TO.N,UART_TX*%
X129540000Y-64262000D03*
%TO.N,Net-(U5-Pad4)*%
X132334000Y-89916000D03*
X132334000Y-83185000D03*
%TO.N,Net-(U5-Pad6)*%
X129921000Y-91313000D03*
X129794000Y-82550000D03*
%TO.N,Net-(U6-Pad10)*%
X136271000Y-75438000D03*
X136271000Y-81407000D03*
%TO.N,Net-(U5-Pad12)*%
X132715000Y-80010000D03*
X133985000Y-89408000D03*
%TO.N,~{RI{slash}OCHRDY}*%
X144145000Y-79248000D03*
%TD*%
D15*
%TO.N,GND*%
X121410000Y-82040000D02*
X121412000Y-82042000D01*
D16*
X119348000Y-124040000D02*
X121070000Y-124040000D01*
X119348000Y-82040000D02*
X121158000Y-82040000D01*
D15*
X121070000Y-124040000D02*
X121158000Y-123952000D01*
%TD*%
%TA.AperFunction,Conductor*%
%TO.N,GND*%
G36*
X144930539Y-58740185D02*
G01*
X144976294Y-58792989D01*
X144987500Y-58844500D01*
X144987500Y-133179500D01*
X144967815Y-133246539D01*
X144915011Y-133292294D01*
X144863500Y-133303500D01*
X121328500Y-133303500D01*
X121261461Y-133283815D01*
X121215706Y-133231011D01*
X121204500Y-133179500D01*
X121204500Y-131318002D01*
X127526081Y-131318002D01*
X127543646Y-131428909D01*
X127594626Y-131528965D01*
X127674034Y-131608373D01*
X127774090Y-131659353D01*
X127846277Y-131670785D01*
X127885000Y-131676919D01*
X127897668Y-131674912D01*
X127966959Y-131683865D01*
X128020412Y-131728859D01*
X128041054Y-131795610D01*
X128039541Y-131816780D01*
X128038081Y-131825999D01*
X128038081Y-131826002D01*
X128055646Y-131936909D01*
X128106626Y-132036965D01*
X128186034Y-132116373D01*
X128286090Y-132167353D01*
X128396998Y-132184919D01*
X128397000Y-132184919D01*
X128397002Y-132184919D01*
X128507909Y-132167353D01*
X128507910Y-132167352D01*
X128507912Y-132167352D01*
X128607967Y-132116372D01*
X128687372Y-132036967D01*
X128738352Y-131936912D01*
X128738352Y-131936910D01*
X128738353Y-131936909D01*
X128755919Y-131826002D01*
X128755919Y-131825997D01*
X128738353Y-131715090D01*
X128687373Y-131615034D01*
X128607965Y-131535626D01*
X128507909Y-131484646D01*
X128397002Y-131467081D01*
X128397001Y-131467081D01*
X128397000Y-131467081D01*
X128384328Y-131469088D01*
X128315034Y-131460132D01*
X128261583Y-131415134D01*
X128240945Y-131348382D01*
X128242458Y-131327222D01*
X128243919Y-131318000D01*
X128237103Y-131274965D01*
X128226353Y-131207090D01*
X128175373Y-131107034D01*
X128132341Y-131064002D01*
X131209081Y-131064002D01*
X131226646Y-131174909D01*
X131277626Y-131274965D01*
X131357034Y-131354373D01*
X131457090Y-131405353D01*
X131567998Y-131422919D01*
X131568000Y-131422919D01*
X131568002Y-131422919D01*
X131678907Y-131405353D01*
X131678907Y-131405352D01*
X131678912Y-131405352D01*
X131765709Y-131361126D01*
X131834373Y-131348232D01*
X131878293Y-131361128D01*
X131965090Y-131405353D01*
X132075998Y-131422919D01*
X132076000Y-131422919D01*
X132076002Y-131422919D01*
X132186909Y-131405353D01*
X132186910Y-131405352D01*
X132186912Y-131405352D01*
X132286967Y-131354372D01*
X132366372Y-131274967D01*
X132417352Y-131174912D01*
X132417352Y-131174910D01*
X132417353Y-131174909D01*
X132434919Y-131064002D01*
X132434919Y-131063997D01*
X132417353Y-130953090D01*
X132366373Y-130853034D01*
X132286965Y-130773626D01*
X132186909Y-130722646D01*
X132076002Y-130705081D01*
X132075998Y-130705081D01*
X131965091Y-130722646D01*
X131878293Y-130766871D01*
X131809623Y-130779766D01*
X131765707Y-130766871D01*
X131678908Y-130722646D01*
X131568002Y-130705081D01*
X131567998Y-130705081D01*
X131457090Y-130722646D01*
X131357034Y-130773626D01*
X131277626Y-130853034D01*
X131226646Y-130953090D01*
X131209081Y-131063997D01*
X131209081Y-131064002D01*
X128132341Y-131064002D01*
X128095965Y-131027626D01*
X127995909Y-130976646D01*
X127885002Y-130959081D01*
X127884998Y-130959081D01*
X127774090Y-130976646D01*
X127674034Y-131027626D01*
X127594626Y-131107034D01*
X127543646Y-131207090D01*
X127526081Y-131317997D01*
X127526081Y-131318002D01*
X121204500Y-131318002D01*
X121204500Y-130429002D01*
X122196081Y-130429002D01*
X122213646Y-130539909D01*
X122264626Y-130639965D01*
X122344034Y-130719373D01*
X122444090Y-130770353D01*
X122554998Y-130787919D01*
X122555000Y-130787919D01*
X122555002Y-130787919D01*
X122665909Y-130770353D01*
X122665910Y-130770352D01*
X122665912Y-130770352D01*
X122765967Y-130719372D01*
X122845372Y-130639967D01*
X122896352Y-130539912D01*
X122896352Y-130539910D01*
X122896353Y-130539909D01*
X122913919Y-130429002D01*
X122913919Y-130428997D01*
X122900214Y-130342467D01*
X137386722Y-130342467D01*
X137396784Y-130528057D01*
X137396784Y-130528062D01*
X137446505Y-130707143D01*
X137446509Y-130707151D01*
X137533569Y-130871363D01*
X137653894Y-131013020D01*
X137653895Y-131013021D01*
X137801861Y-131125502D01*
X137801862Y-131125502D01*
X137801863Y-131125503D01*
X137970543Y-131203543D01*
X137970551Y-131203546D01*
X138025620Y-131215667D01*
X138152067Y-131243500D01*
X138152070Y-131243500D01*
X138291327Y-131243500D01*
X138291332Y-131243500D01*
X138429775Y-131228443D01*
X138605911Y-131169096D01*
X138765171Y-131073273D01*
X138900108Y-130945454D01*
X139004413Y-130791615D01*
X139033197Y-130719373D01*
X139073208Y-130618955D01*
X139073209Y-130618951D01*
X139103278Y-130435535D01*
X139093216Y-130249942D01*
X139067980Y-130159049D01*
X139043494Y-130070856D01*
X139043490Y-130070848D01*
X138956430Y-129906636D01*
X138836105Y-129764979D01*
X138836105Y-129764978D01*
X138688139Y-129652498D01*
X138688137Y-129652497D01*
X138688136Y-129652496D01*
X138519456Y-129574456D01*
X138519448Y-129574453D01*
X138337933Y-129534500D01*
X138198668Y-129534500D01*
X138198666Y-129534500D01*
X138060226Y-129549556D01*
X138060223Y-129549557D01*
X137884083Y-129608906D01*
X137724827Y-129704728D01*
X137724826Y-129704729D01*
X137589890Y-129832546D01*
X137485585Y-129986387D01*
X137485584Y-129986389D01*
X137416791Y-130159044D01*
X137407121Y-130218033D01*
X137390719Y-130318088D01*
X137386722Y-130342467D01*
X122900214Y-130342467D01*
X122896353Y-130318090D01*
X122845373Y-130218034D01*
X122765965Y-130138626D01*
X122665909Y-130087646D01*
X122555002Y-130070081D01*
X122554998Y-130070081D01*
X122444090Y-130087646D01*
X122344034Y-130138626D01*
X122264626Y-130218034D01*
X122213646Y-130318090D01*
X122196081Y-130428997D01*
X122196081Y-130429002D01*
X121204500Y-130429002D01*
X121204500Y-129534500D01*
X121204500Y-125535208D01*
X121207561Y-125513269D01*
X121208401Y-125504207D01*
X121205788Y-125476002D01*
X122700081Y-125476002D01*
X122717646Y-125586909D01*
X122768626Y-125686965D01*
X122848034Y-125766373D01*
X122948090Y-125817353D01*
X123058998Y-125834919D01*
X123059000Y-125834919D01*
X123059002Y-125834919D01*
X123169909Y-125817353D01*
X123169910Y-125817352D01*
X123169912Y-125817352D01*
X123269967Y-125766372D01*
X123349372Y-125686967D01*
X123400352Y-125586912D01*
X123400352Y-125586910D01*
X123400353Y-125586909D01*
X123417919Y-125476002D01*
X124650081Y-125476002D01*
X124667646Y-125586909D01*
X124718626Y-125686965D01*
X124798034Y-125766373D01*
X124898090Y-125817353D01*
X125008998Y-125834919D01*
X125009000Y-125834919D01*
X125009002Y-125834919D01*
X125119909Y-125817353D01*
X125119910Y-125817352D01*
X125119912Y-125817352D01*
X125219967Y-125766372D01*
X125299372Y-125686967D01*
X125350352Y-125586912D01*
X125350352Y-125586910D01*
X125350353Y-125586909D01*
X125367919Y-125476002D01*
X125367919Y-125475997D01*
X125350353Y-125365090D01*
X125338826Y-125342467D01*
X137386722Y-125342467D01*
X137391768Y-125435532D01*
X137393961Y-125475997D01*
X137396784Y-125528057D01*
X137396784Y-125528062D01*
X137446505Y-125707143D01*
X137446509Y-125707151D01*
X137533569Y-125871363D01*
X137596502Y-125945453D01*
X137653895Y-126013021D01*
X137801861Y-126125502D01*
X137801862Y-126125502D01*
X137801863Y-126125503D01*
X137970543Y-126203543D01*
X137970551Y-126203546D01*
X138025620Y-126215667D01*
X138152067Y-126243500D01*
X138152070Y-126243500D01*
X138291327Y-126243500D01*
X138291332Y-126243500D01*
X138429775Y-126228443D01*
X138605911Y-126169096D01*
X138765171Y-126073273D01*
X138900108Y-125945454D01*
X139004413Y-125791615D01*
X139048107Y-125681952D01*
X139073208Y-125618955D01*
X139078461Y-125586912D01*
X139103278Y-125435535D01*
X139093216Y-125249942D01*
X139093215Y-125249937D01*
X139043494Y-125070856D01*
X139043490Y-125070848D01*
X138956430Y-124906636D01*
X138836105Y-124764979D01*
X138836105Y-124764978D01*
X138688139Y-124652498D01*
X138688137Y-124652497D01*
X138688136Y-124652496D01*
X138519456Y-124574456D01*
X138519448Y-124574453D01*
X138337933Y-124534500D01*
X138198668Y-124534500D01*
X138198666Y-124534500D01*
X138060226Y-124549556D01*
X138060223Y-124549557D01*
X137884083Y-124608906D01*
X137724827Y-124704728D01*
X137724826Y-124704729D01*
X137589890Y-124832546D01*
X137485585Y-124986387D01*
X137485584Y-124986389D01*
X137416791Y-125159044D01*
X137402771Y-125244569D01*
X137388429Y-125332056D01*
X137386722Y-125342467D01*
X125338826Y-125342467D01*
X125299373Y-125265034D01*
X125219965Y-125185626D01*
X125119909Y-125134646D01*
X125009002Y-125117081D01*
X125008998Y-125117081D01*
X124898090Y-125134646D01*
X124798034Y-125185626D01*
X124718626Y-125265034D01*
X124667646Y-125365090D01*
X124650081Y-125475997D01*
X124650081Y-125476002D01*
X123417919Y-125476002D01*
X123417919Y-125475997D01*
X123400353Y-125365090D01*
X123349373Y-125265034D01*
X123269965Y-125185626D01*
X123169909Y-125134646D01*
X123059002Y-125117081D01*
X123058998Y-125117081D01*
X122948090Y-125134646D01*
X122848034Y-125185626D01*
X122768626Y-125265034D01*
X122717646Y-125365090D01*
X122700081Y-125475997D01*
X122700081Y-125476002D01*
X121205788Y-125476002D01*
X121204765Y-125464964D01*
X121204500Y-125459241D01*
X121204500Y-125448156D01*
X121202463Y-125437262D01*
X121201671Y-125431585D01*
X121198035Y-125392339D01*
X121195548Y-125383599D01*
X121192350Y-125374059D01*
X121189061Y-125365570D01*
X121189061Y-125365567D01*
X121189059Y-125365564D01*
X121189058Y-125365561D01*
X121168312Y-125332056D01*
X121165530Y-125327064D01*
X121147958Y-125291772D01*
X121147956Y-125291770D01*
X121147955Y-125291768D01*
X121142475Y-125284511D01*
X121136061Y-125276786D01*
X121129916Y-125270045D01*
X121098463Y-125246294D01*
X121094054Y-125242632D01*
X121064933Y-125216084D01*
X121064931Y-125216083D01*
X121064929Y-125216081D01*
X121057232Y-125211315D01*
X121048390Y-125206390D01*
X121040265Y-125202344D01*
X121002366Y-125191561D01*
X120996937Y-125189741D01*
X120983213Y-125184425D01*
X120927809Y-125141856D01*
X120904215Y-125076090D01*
X120904000Y-125068796D01*
X120904000Y-118617999D01*
X124308270Y-118617999D01*
X124327143Y-118809626D01*
X124383038Y-118993884D01*
X124473802Y-119163692D01*
X124473806Y-119163699D01*
X124595958Y-119312541D01*
X124744800Y-119434693D01*
X124744807Y-119434697D01*
X124914615Y-119525461D01*
X124914617Y-119525462D01*
X125098876Y-119581357D01*
X125290500Y-119600230D01*
X125482124Y-119581357D01*
X125666383Y-119525462D01*
X125836198Y-119434694D01*
X125985041Y-119312541D01*
X126107194Y-119163698D01*
X126197962Y-118993883D01*
X126253857Y-118809624D01*
X126260222Y-118745002D01*
X126768081Y-118745002D01*
X126785646Y-118855909D01*
X126836626Y-118955965D01*
X126916034Y-119035373D01*
X127016090Y-119086353D01*
X127126998Y-119103919D01*
X127127000Y-119103919D01*
X127127002Y-119103919D01*
X127237909Y-119086353D01*
X127237910Y-119086352D01*
X127237912Y-119086352D01*
X127337967Y-119035372D01*
X127417372Y-118955967D01*
X127468352Y-118855912D01*
X127468352Y-118855910D01*
X127468353Y-118855909D01*
X127485919Y-118745002D01*
X127485919Y-118744997D01*
X127468353Y-118634090D01*
X127460155Y-118618000D01*
X142088270Y-118618000D01*
X142107143Y-118809626D01*
X142163038Y-118993884D01*
X142253802Y-119163692D01*
X142253806Y-119163699D01*
X142375958Y-119312541D01*
X142524800Y-119434693D01*
X142524807Y-119434697D01*
X142694615Y-119525461D01*
X142694617Y-119525462D01*
X142878876Y-119581357D01*
X143070500Y-119600230D01*
X143262124Y-119581357D01*
X143446383Y-119525462D01*
X143616198Y-119434694D01*
X143765041Y-119312541D01*
X143887194Y-119163698D01*
X143977962Y-118993883D01*
X144033857Y-118809624D01*
X144052730Y-118618000D01*
X144033857Y-118426376D01*
X143977962Y-118242117D01*
X143887194Y-118072302D01*
X143887193Y-118072300D01*
X143765041Y-117923458D01*
X143616199Y-117801306D01*
X143616192Y-117801302D01*
X143446384Y-117710538D01*
X143262126Y-117654643D01*
X143070500Y-117635770D01*
X142878873Y-117654643D01*
X142694615Y-117710538D01*
X142524807Y-117801302D01*
X142524800Y-117801306D01*
X142375958Y-117923458D01*
X142253806Y-118072300D01*
X142253802Y-118072307D01*
X142163038Y-118242115D01*
X142107143Y-118426373D01*
X142088270Y-118618000D01*
X127460155Y-118618000D01*
X127417373Y-118534034D01*
X127337965Y-118454626D01*
X127237909Y-118403646D01*
X127127002Y-118386081D01*
X127126998Y-118386081D01*
X127016090Y-118403646D01*
X126916034Y-118454626D01*
X126836626Y-118534034D01*
X126785646Y-118634090D01*
X126768081Y-118744997D01*
X126768081Y-118745002D01*
X126260222Y-118745002D01*
X126272730Y-118618000D01*
X126253857Y-118426376D01*
X126197962Y-118242117D01*
X126107194Y-118072302D01*
X126107193Y-118072300D01*
X125985041Y-117923458D01*
X125836199Y-117801306D01*
X125836192Y-117801302D01*
X125666384Y-117710538D01*
X125482126Y-117654643D01*
X125290500Y-117635770D01*
X125098873Y-117654643D01*
X124914615Y-117710538D01*
X124744807Y-117801302D01*
X124744800Y-117801306D01*
X124595958Y-117923458D01*
X124473806Y-118072300D01*
X124473802Y-118072307D01*
X124383038Y-118242115D01*
X124327143Y-118426373D01*
X124308270Y-118617999D01*
X120904000Y-118617999D01*
X120904000Y-117400002D01*
X127022081Y-117400002D01*
X127039646Y-117510909D01*
X127090626Y-117610965D01*
X127170034Y-117690373D01*
X127270090Y-117741353D01*
X127380998Y-117758919D01*
X127381000Y-117758919D01*
X127381002Y-117758919D01*
X127491909Y-117741353D01*
X127491910Y-117741352D01*
X127491912Y-117741352D01*
X127591967Y-117690372D01*
X127671372Y-117610967D01*
X127722352Y-117510912D01*
X127722352Y-117510910D01*
X127722353Y-117510909D01*
X127739919Y-117400002D01*
X127739919Y-117399997D01*
X127722353Y-117289090D01*
X127671373Y-117189034D01*
X127591965Y-117109626D01*
X127491909Y-117058646D01*
X127381002Y-117041081D01*
X127380998Y-117041081D01*
X127270090Y-117058646D01*
X127170034Y-117109626D01*
X127090626Y-117189034D01*
X127039646Y-117289090D01*
X127022081Y-117399997D01*
X127022081Y-117400002D01*
X120904000Y-117400002D01*
X120904000Y-114935002D01*
X121942081Y-114935002D01*
X121959646Y-115045909D01*
X122010626Y-115145965D01*
X122090034Y-115225373D01*
X122190090Y-115276353D01*
X122300998Y-115293919D01*
X122301000Y-115293919D01*
X122301002Y-115293919D01*
X122411909Y-115276353D01*
X122411910Y-115276352D01*
X122411912Y-115276352D01*
X122511967Y-115225372D01*
X122591372Y-115145967D01*
X122642352Y-115045912D01*
X122642352Y-115045910D01*
X122642353Y-115045909D01*
X122659919Y-114935002D01*
X122659919Y-114934997D01*
X122642353Y-114824090D01*
X122591373Y-114724034D01*
X122511965Y-114644626D01*
X122411909Y-114593646D01*
X122301002Y-114576081D01*
X122300998Y-114576081D01*
X122190090Y-114593646D01*
X122090034Y-114644626D01*
X122010626Y-114724034D01*
X121959646Y-114824090D01*
X121942081Y-114934997D01*
X121942081Y-114935002D01*
X120904000Y-114935002D01*
X120904000Y-113792002D01*
X121942081Y-113792002D01*
X121959646Y-113902909D01*
X122010626Y-114002965D01*
X122090034Y-114082373D01*
X122190090Y-114133353D01*
X122300998Y-114150919D01*
X122301000Y-114150919D01*
X122301002Y-114150919D01*
X122411909Y-114133353D01*
X122411910Y-114133352D01*
X122411912Y-114133352D01*
X122511967Y-114082372D01*
X122591372Y-114002967D01*
X122642352Y-113902912D01*
X122642352Y-113902910D01*
X122642353Y-113902909D01*
X122659919Y-113792002D01*
X122659919Y-113791997D01*
X122642353Y-113681090D01*
X122591373Y-113581034D01*
X122511965Y-113501626D01*
X122411909Y-113450646D01*
X122301002Y-113433081D01*
X122300998Y-113433081D01*
X122190090Y-113450646D01*
X122090034Y-113501626D01*
X122010626Y-113581034D01*
X121959646Y-113681090D01*
X121942081Y-113791997D01*
X121942081Y-113792002D01*
X120904000Y-113792002D01*
X120904000Y-111887002D01*
X123847081Y-111887002D01*
X123864646Y-111997909D01*
X123915626Y-112097965D01*
X123995034Y-112177373D01*
X124010834Y-112185423D01*
X124061631Y-112233396D01*
X124078428Y-112301216D01*
X124055893Y-112367352D01*
X124053809Y-112370220D01*
X123997147Y-112445910D01*
X123997145Y-112445913D01*
X123946903Y-112580620D01*
X123946901Y-112580627D01*
X123940500Y-112640155D01*
X123940500Y-113288000D01*
X124844928Y-113288000D01*
X124821818Y-113323960D01*
X124780500Y-113464673D01*
X124780500Y-113611327D01*
X124821818Y-113752040D01*
X124844928Y-113788000D01*
X123940500Y-113788000D01*
X123940500Y-114435844D01*
X123946901Y-114495372D01*
X123946903Y-114495379D01*
X123997145Y-114630086D01*
X123997149Y-114630093D01*
X124083309Y-114745187D01*
X124083312Y-114745190D01*
X124198406Y-114831350D01*
X124198413Y-114831354D01*
X124333120Y-114881596D01*
X124333127Y-114881598D01*
X124392655Y-114887999D01*
X124392672Y-114888000D01*
X125010078Y-114888000D01*
X125077117Y-114907685D01*
X125122872Y-114960489D01*
X125132816Y-115029647D01*
X125103791Y-115093203D01*
X125046074Y-115130660D01*
X124914615Y-115170538D01*
X124744807Y-115261302D01*
X124744800Y-115261306D01*
X124595958Y-115383458D01*
X124473806Y-115532300D01*
X124473802Y-115532307D01*
X124383038Y-115702115D01*
X124327143Y-115886373D01*
X124308270Y-116077999D01*
X124327143Y-116269626D01*
X124383038Y-116453884D01*
X124473802Y-116623692D01*
X124473806Y-116623699D01*
X124595958Y-116772541D01*
X124744800Y-116894693D01*
X124744807Y-116894697D01*
X124838766Y-116944919D01*
X124914617Y-116985462D01*
X125098876Y-117041357D01*
X125290500Y-117060230D01*
X125482124Y-117041357D01*
X125666383Y-116985462D01*
X125836198Y-116894694D01*
X125985041Y-116772541D01*
X126107194Y-116623698D01*
X126197962Y-116453883D01*
X126253857Y-116269624D01*
X126272730Y-116078002D01*
X126641081Y-116078002D01*
X126658646Y-116188909D01*
X126709626Y-116288965D01*
X126789034Y-116368373D01*
X126889090Y-116419353D01*
X126999998Y-116436919D01*
X127000000Y-116436919D01*
X127000002Y-116436919D01*
X127110909Y-116419353D01*
X127110910Y-116419352D01*
X127110912Y-116419352D01*
X127210967Y-116368372D01*
X127290372Y-116288967D01*
X127341352Y-116188912D01*
X127341352Y-116188910D01*
X127341353Y-116188909D01*
X127358919Y-116078002D01*
X127358919Y-116077997D01*
X127341353Y-115967096D01*
X127341352Y-115967088D01*
X127341347Y-115967079D01*
X127340282Y-115963798D01*
X127340160Y-115959561D01*
X127339826Y-115957449D01*
X127340098Y-115957405D01*
X127338281Y-115893957D01*
X127374357Y-115834121D01*
X127437055Y-115803288D01*
X127477608Y-115802997D01*
X127514998Y-115808919D01*
X127515000Y-115808919D01*
X127515002Y-115808919D01*
X127625909Y-115791353D01*
X127625910Y-115791352D01*
X127625912Y-115791352D01*
X127725967Y-115740372D01*
X127805372Y-115660967D01*
X127856352Y-115560912D01*
X127856352Y-115560910D01*
X127856353Y-115560909D01*
X127873919Y-115450002D01*
X127873919Y-115449997D01*
X127856353Y-115339090D01*
X127805373Y-115239034D01*
X127755341Y-115189002D01*
X140611081Y-115189002D01*
X140628646Y-115299909D01*
X140679626Y-115399965D01*
X140759034Y-115479373D01*
X140859090Y-115530353D01*
X140969998Y-115547919D01*
X140970000Y-115547919D01*
X140970002Y-115547919D01*
X141080909Y-115530353D01*
X141080910Y-115530352D01*
X141080912Y-115530352D01*
X141180967Y-115479372D01*
X141260372Y-115399967D01*
X141311352Y-115299912D01*
X141311352Y-115299910D01*
X141311353Y-115299909D01*
X141328919Y-115189002D01*
X141328919Y-115188997D01*
X141311353Y-115078090D01*
X141260373Y-114978034D01*
X141180965Y-114898626D01*
X141080909Y-114847646D01*
X140970002Y-114830081D01*
X140969998Y-114830081D01*
X140859090Y-114847646D01*
X140759034Y-114898626D01*
X140679626Y-114978034D01*
X140628646Y-115078090D01*
X140611081Y-115188997D01*
X140611081Y-115189002D01*
X127755341Y-115189002D01*
X127725965Y-115159626D01*
X127625909Y-115108646D01*
X127515002Y-115091081D01*
X127514998Y-115091081D01*
X127404090Y-115108646D01*
X127304034Y-115159626D01*
X127224626Y-115239034D01*
X127173646Y-115339090D01*
X127156081Y-115449997D01*
X127156081Y-115450002D01*
X127173646Y-115560906D01*
X127174719Y-115564207D01*
X127174840Y-115568442D01*
X127175174Y-115570551D01*
X127174901Y-115570594D01*
X127176716Y-115634048D01*
X127140638Y-115693882D01*
X127077938Y-115724712D01*
X127037393Y-115725003D01*
X127008258Y-115720389D01*
X127000000Y-115719081D01*
X126999999Y-115719081D01*
X126999998Y-115719081D01*
X126889090Y-115736646D01*
X126789034Y-115787626D01*
X126709626Y-115867034D01*
X126658646Y-115967090D01*
X126641081Y-116077997D01*
X126641081Y-116078002D01*
X126272730Y-116078002D01*
X126272730Y-116078000D01*
X126253857Y-115886376D01*
X126197962Y-115702117D01*
X126175966Y-115660965D01*
X126107197Y-115532307D01*
X126107193Y-115532300D01*
X125985041Y-115383458D01*
X125836199Y-115261306D01*
X125836192Y-115261302D01*
X125666384Y-115170538D01*
X125534926Y-115130660D01*
X125476488Y-115092363D01*
X125448031Y-115028550D01*
X125458592Y-114959483D01*
X125504817Y-114907090D01*
X125570922Y-114888000D01*
X126188328Y-114888000D01*
X126188344Y-114887999D01*
X126247872Y-114881598D01*
X126247879Y-114881596D01*
X126382586Y-114831354D01*
X126382593Y-114831350D01*
X126497687Y-114745190D01*
X126497690Y-114745187D01*
X126498203Y-114744502D01*
X127974581Y-114744502D01*
X127992146Y-114855409D01*
X128043126Y-114955465D01*
X128122534Y-115034873D01*
X128222590Y-115085853D01*
X128333498Y-115103419D01*
X128333500Y-115103419D01*
X128333502Y-115103419D01*
X128444409Y-115085853D01*
X128444410Y-115085852D01*
X128444412Y-115085852D01*
X128544467Y-115034872D01*
X128623872Y-114955467D01*
X128674852Y-114855412D01*
X128674852Y-114855410D01*
X128674853Y-114855409D01*
X128692419Y-114744502D01*
X128692419Y-114744497D01*
X128674853Y-114633590D01*
X128623873Y-114533534D01*
X128544465Y-114454126D01*
X128508584Y-114435844D01*
X141720500Y-114435844D01*
X141726901Y-114495372D01*
X141726903Y-114495379D01*
X141777145Y-114630086D01*
X141777149Y-114630093D01*
X141863309Y-114745187D01*
X141863312Y-114745190D01*
X141978406Y-114831350D01*
X141978413Y-114831354D01*
X142113120Y-114881596D01*
X142113127Y-114881598D01*
X142172655Y-114887999D01*
X142172672Y-114888000D01*
X142790078Y-114888000D01*
X142857117Y-114907685D01*
X142902872Y-114960489D01*
X142912816Y-115029647D01*
X142883791Y-115093203D01*
X142826074Y-115130660D01*
X142694615Y-115170538D01*
X142524807Y-115261302D01*
X142524800Y-115261306D01*
X142375958Y-115383458D01*
X142253806Y-115532300D01*
X142253802Y-115532307D01*
X142163038Y-115702115D01*
X142107143Y-115886373D01*
X142088270Y-116077999D01*
X142107143Y-116269626D01*
X142163038Y-116453884D01*
X142253802Y-116623692D01*
X142253806Y-116623699D01*
X142375958Y-116772541D01*
X142524800Y-116894693D01*
X142524807Y-116894697D01*
X142618766Y-116944919D01*
X142694617Y-116985462D01*
X142878876Y-117041357D01*
X143070500Y-117060230D01*
X143262124Y-117041357D01*
X143446383Y-116985462D01*
X143616198Y-116894694D01*
X143765041Y-116772541D01*
X143887194Y-116623698D01*
X143977962Y-116453883D01*
X144033857Y-116269624D01*
X144052730Y-116078000D01*
X144033857Y-115886376D01*
X143977962Y-115702117D01*
X143955966Y-115660965D01*
X143887197Y-115532307D01*
X143887193Y-115532300D01*
X143765041Y-115383458D01*
X143616199Y-115261306D01*
X143616192Y-115261302D01*
X143446384Y-115170538D01*
X143314926Y-115130660D01*
X143256488Y-115092363D01*
X143228031Y-115028550D01*
X143238592Y-114959483D01*
X143284817Y-114907090D01*
X143350922Y-114888000D01*
X143968328Y-114888000D01*
X143968344Y-114887999D01*
X144027872Y-114881598D01*
X144027879Y-114881596D01*
X144162586Y-114831354D01*
X144162593Y-114831350D01*
X144277687Y-114745190D01*
X144277690Y-114745187D01*
X144363850Y-114630093D01*
X144363854Y-114630086D01*
X144414096Y-114495379D01*
X144414098Y-114495372D01*
X144420499Y-114435844D01*
X144420500Y-114435827D01*
X144420500Y-113788000D01*
X143516072Y-113788000D01*
X143539182Y-113752040D01*
X143580500Y-113611327D01*
X143580500Y-113464673D01*
X143539182Y-113323960D01*
X143516072Y-113288000D01*
X144420500Y-113288000D01*
X144420500Y-112640172D01*
X144420499Y-112640155D01*
X144414098Y-112580627D01*
X144414096Y-112580620D01*
X144363854Y-112445913D01*
X144363850Y-112445906D01*
X144277690Y-112330812D01*
X144277687Y-112330809D01*
X144162593Y-112244649D01*
X144162586Y-112244645D01*
X144027879Y-112194403D01*
X144027872Y-112194401D01*
X143968344Y-112188000D01*
X143350922Y-112188000D01*
X143283883Y-112168315D01*
X143238128Y-112115511D01*
X143228184Y-112046353D01*
X143257209Y-111982797D01*
X143314926Y-111945340D01*
X143376543Y-111926648D01*
X143446383Y-111905462D01*
X143616198Y-111814694D01*
X143765041Y-111692541D01*
X143887194Y-111543698D01*
X143977962Y-111373883D01*
X144033857Y-111189624D01*
X144052730Y-110998000D01*
X144033857Y-110806376D01*
X143977962Y-110622117D01*
X143975225Y-110616997D01*
X143887197Y-110452307D01*
X143887193Y-110452300D01*
X143765041Y-110303458D01*
X143616199Y-110181306D01*
X143616192Y-110181302D01*
X143446384Y-110090538D01*
X143262126Y-110034643D01*
X143070500Y-110015770D01*
X142878873Y-110034643D01*
X142694615Y-110090538D01*
X142524807Y-110181302D01*
X142524800Y-110181306D01*
X142375958Y-110303458D01*
X142253806Y-110452300D01*
X142253802Y-110452307D01*
X142163038Y-110622115D01*
X142107143Y-110806373D01*
X142088270Y-110998000D01*
X142107143Y-111189626D01*
X142163038Y-111373884D01*
X142253802Y-111543692D01*
X142253806Y-111543699D01*
X142375958Y-111692541D01*
X142524800Y-111814693D01*
X142524807Y-111814697D01*
X142604018Y-111857036D01*
X142694617Y-111905462D01*
X142752755Y-111923098D01*
X142826074Y-111945340D01*
X142884512Y-111983637D01*
X142912969Y-112047450D01*
X142902408Y-112116517D01*
X142856183Y-112168910D01*
X142790078Y-112188000D01*
X142172655Y-112188000D01*
X142113127Y-112194401D01*
X142113120Y-112194403D01*
X141978413Y-112244645D01*
X141978406Y-112244649D01*
X141863312Y-112330809D01*
X141863309Y-112330812D01*
X141777149Y-112445906D01*
X141777145Y-112445913D01*
X141726903Y-112580620D01*
X141726901Y-112580627D01*
X141720500Y-112640155D01*
X141720500Y-113288000D01*
X142624928Y-113288000D01*
X142601818Y-113323960D01*
X142560500Y-113464673D01*
X142560500Y-113611327D01*
X142601818Y-113752040D01*
X142624928Y-113788000D01*
X141720500Y-113788000D01*
X141720500Y-114435844D01*
X128508584Y-114435844D01*
X128444409Y-114403146D01*
X128333502Y-114385581D01*
X128333498Y-114385581D01*
X128222590Y-114403146D01*
X128122534Y-114454126D01*
X128043126Y-114533534D01*
X127992146Y-114633590D01*
X127974581Y-114744497D01*
X127974581Y-114744502D01*
X126498203Y-114744502D01*
X126583850Y-114630093D01*
X126583854Y-114630086D01*
X126634096Y-114495379D01*
X126634098Y-114495372D01*
X126640499Y-114435844D01*
X126640500Y-114435827D01*
X126640500Y-114046002D01*
X139976081Y-114046002D01*
X139993646Y-114156909D01*
X140044626Y-114256965D01*
X140124034Y-114336373D01*
X140224090Y-114387353D01*
X140334998Y-114404919D01*
X140335000Y-114404919D01*
X140335002Y-114404919D01*
X140445909Y-114387353D01*
X140445910Y-114387352D01*
X140445912Y-114387352D01*
X140545967Y-114336372D01*
X140625372Y-114256967D01*
X140676352Y-114156912D01*
X140676352Y-114156910D01*
X140676353Y-114156909D01*
X140693919Y-114046002D01*
X140693919Y-114045997D01*
X140676353Y-113935090D01*
X140625373Y-113835034D01*
X140545965Y-113755626D01*
X140445909Y-113704646D01*
X140335002Y-113687081D01*
X140334998Y-113687081D01*
X140224090Y-113704646D01*
X140124034Y-113755626D01*
X140044626Y-113835034D01*
X139993646Y-113935090D01*
X139976081Y-114045997D01*
X139976081Y-114046002D01*
X126640500Y-114046002D01*
X126640500Y-113788000D01*
X125736072Y-113788000D01*
X125759182Y-113752040D01*
X125800500Y-113611327D01*
X125800500Y-113464673D01*
X125759182Y-113323960D01*
X125736072Y-113288000D01*
X126640500Y-113288000D01*
X126640500Y-112649002D01*
X127911081Y-112649002D01*
X127928646Y-112759909D01*
X127979626Y-112859965D01*
X128059034Y-112939373D01*
X128080700Y-112950412D01*
X128159088Y-112990352D01*
X128187904Y-112994916D01*
X128251037Y-113024844D01*
X128287969Y-113084155D01*
X128286973Y-113154017D01*
X128248364Y-113212251D01*
X128224802Y-113227873D01*
X128186034Y-113247626D01*
X128106626Y-113327034D01*
X128055646Y-113427090D01*
X128038081Y-113537997D01*
X128038081Y-113538002D01*
X128055646Y-113648909D01*
X128106626Y-113748965D01*
X128186034Y-113828373D01*
X128286090Y-113879353D01*
X128396998Y-113896919D01*
X128397000Y-113896919D01*
X128397002Y-113896919D01*
X128507909Y-113879353D01*
X128507910Y-113879352D01*
X128507912Y-113879352D01*
X128607967Y-113828372D01*
X128687372Y-113748967D01*
X128738352Y-113648912D01*
X128738352Y-113648910D01*
X128738353Y-113648909D01*
X128755919Y-113538002D01*
X128755919Y-113537997D01*
X128738353Y-113427090D01*
X128687373Y-113327034D01*
X128607965Y-113247626D01*
X128507908Y-113196646D01*
X128507909Y-113196646D01*
X128479095Y-113192083D01*
X128415960Y-113162154D01*
X128379029Y-113102842D01*
X128380027Y-113032979D01*
X128418637Y-112974747D01*
X128442196Y-112959126D01*
X128480967Y-112939372D01*
X128560372Y-112859967D01*
X128570799Y-112839502D01*
X133689581Y-112839502D01*
X133707146Y-112950409D01*
X133758126Y-113050465D01*
X133837534Y-113129873D01*
X133937590Y-113180853D01*
X134048498Y-113198419D01*
X134048500Y-113198419D01*
X134048502Y-113198419D01*
X134159409Y-113180853D01*
X134159410Y-113180852D01*
X134159412Y-113180852D01*
X134259467Y-113129872D01*
X134338872Y-113050467D01*
X134389852Y-112950412D01*
X134389852Y-112950410D01*
X134389853Y-112950409D01*
X134397362Y-112903002D01*
X139595081Y-112903002D01*
X139612646Y-113013909D01*
X139663626Y-113113965D01*
X139743034Y-113193373D01*
X139843090Y-113244353D01*
X139953998Y-113261919D01*
X139954000Y-113261919D01*
X139954002Y-113261919D01*
X140064909Y-113244353D01*
X140064910Y-113244352D01*
X140064912Y-113244352D01*
X140164967Y-113193372D01*
X140244372Y-113113967D01*
X140295352Y-113013912D01*
X140295352Y-113013910D01*
X140295353Y-113013909D01*
X140312919Y-112903002D01*
X140312919Y-112902997D01*
X140295353Y-112792090D01*
X140244373Y-112692034D01*
X140164965Y-112612626D01*
X140064909Y-112561646D01*
X139954002Y-112544081D01*
X139953998Y-112544081D01*
X139843090Y-112561646D01*
X139743034Y-112612626D01*
X139663626Y-112692034D01*
X139612646Y-112792090D01*
X139595081Y-112902997D01*
X139595081Y-112903002D01*
X134397362Y-112903002D01*
X134407419Y-112839502D01*
X134407419Y-112839497D01*
X134389853Y-112728590D01*
X134338873Y-112628534D01*
X134259465Y-112549126D01*
X134159409Y-112498146D01*
X134048502Y-112480581D01*
X134048498Y-112480581D01*
X133937590Y-112498146D01*
X133837534Y-112549126D01*
X133758126Y-112628534D01*
X133707146Y-112728590D01*
X133689581Y-112839497D01*
X133689581Y-112839502D01*
X128570799Y-112839502D01*
X128611352Y-112759912D01*
X128611352Y-112759910D01*
X128611353Y-112759909D01*
X128628919Y-112649002D01*
X128628919Y-112648997D01*
X128611353Y-112538090D01*
X128560373Y-112438034D01*
X128480965Y-112358626D01*
X128380909Y-112307646D01*
X128270002Y-112290081D01*
X128269998Y-112290081D01*
X128159090Y-112307646D01*
X128059034Y-112358626D01*
X127979626Y-112438034D01*
X127928646Y-112538090D01*
X127911081Y-112648997D01*
X127911081Y-112649002D01*
X126640500Y-112649002D01*
X126640500Y-112640172D01*
X126640499Y-112640155D01*
X126634098Y-112580627D01*
X126634096Y-112580620D01*
X126583854Y-112445913D01*
X126583850Y-112445906D01*
X126497690Y-112330812D01*
X126497687Y-112330809D01*
X126382593Y-112244649D01*
X126382586Y-112244645D01*
X126247879Y-112194403D01*
X126247872Y-112194401D01*
X126188344Y-112188000D01*
X125570922Y-112188000D01*
X125503883Y-112168315D01*
X125458128Y-112115511D01*
X125451297Y-112068002D01*
X134715081Y-112068002D01*
X134732646Y-112178909D01*
X134783626Y-112278965D01*
X134863034Y-112358373D01*
X134963090Y-112409353D01*
X135073998Y-112426919D01*
X135074000Y-112426919D01*
X135074002Y-112426919D01*
X135184909Y-112409353D01*
X135184910Y-112409352D01*
X135184912Y-112409352D01*
X135284967Y-112358372D01*
X135364372Y-112278967D01*
X135369959Y-112268002D01*
X137563081Y-112268002D01*
X137580646Y-112378909D01*
X137631626Y-112478965D01*
X137711034Y-112558373D01*
X137811090Y-112609353D01*
X137921998Y-112626919D01*
X137922000Y-112626919D01*
X137922002Y-112626919D01*
X138032909Y-112609353D01*
X138032910Y-112609352D01*
X138032912Y-112609352D01*
X138132967Y-112558372D01*
X138212372Y-112478967D01*
X138263352Y-112378912D01*
X138263352Y-112378910D01*
X138263353Y-112378909D01*
X138280919Y-112268002D01*
X138280919Y-112267997D01*
X138263353Y-112157090D01*
X138212373Y-112057034D01*
X138132965Y-111977626D01*
X138032909Y-111926646D01*
X137922002Y-111909081D01*
X137921998Y-111909081D01*
X137811090Y-111926646D01*
X137711034Y-111977626D01*
X137631626Y-112057034D01*
X137580646Y-112157090D01*
X137563081Y-112267997D01*
X137563081Y-112268002D01*
X135369959Y-112268002D01*
X135415352Y-112178912D01*
X135415352Y-112178910D01*
X135415353Y-112178909D01*
X135432919Y-112068002D01*
X135432919Y-112067997D01*
X135415353Y-111957090D01*
X135364373Y-111857034D01*
X135284965Y-111777626D01*
X135184909Y-111726646D01*
X135074002Y-111709081D01*
X135074000Y-111709081D01*
X135041605Y-111714212D01*
X134964081Y-111726490D01*
X134894788Y-111717534D01*
X134867129Y-111694250D01*
X134873302Y-111714212D01*
X134854577Y-111781526D01*
X134836997Y-111803664D01*
X134783625Y-111857036D01*
X134732646Y-111957090D01*
X134715081Y-112067997D01*
X134715081Y-112068002D01*
X125451297Y-112068002D01*
X125448184Y-112046353D01*
X125477209Y-111982797D01*
X125534926Y-111945340D01*
X125596543Y-111926648D01*
X125666383Y-111905462D01*
X125836198Y-111814694D01*
X125955279Y-111716966D01*
X125985040Y-111692542D01*
X125990717Y-111685625D01*
X126048462Y-111646290D01*
X126118307Y-111644419D01*
X126178076Y-111680606D01*
X126197057Y-111707996D01*
X126201627Y-111716966D01*
X126281034Y-111796373D01*
X126381090Y-111847353D01*
X126491998Y-111864919D01*
X126492000Y-111864919D01*
X126492002Y-111864919D01*
X126602909Y-111847353D01*
X126602910Y-111847352D01*
X126602912Y-111847352D01*
X126702967Y-111796372D01*
X126782372Y-111716967D01*
X126833352Y-111616912D01*
X126833352Y-111616910D01*
X126833353Y-111616909D01*
X126850919Y-111506002D01*
X126850919Y-111505997D01*
X126833353Y-111395090D01*
X126782373Y-111295034D01*
X126739341Y-111252002D01*
X134261081Y-111252002D01*
X134278646Y-111362909D01*
X134329626Y-111462965D01*
X134409034Y-111542373D01*
X134509090Y-111593353D01*
X134619998Y-111610919D01*
X134620000Y-111610919D01*
X134620002Y-111610919D01*
X134729917Y-111593510D01*
X134799210Y-111602464D01*
X134826869Y-111625748D01*
X134820697Y-111605786D01*
X134839422Y-111538472D01*
X134856995Y-111516343D01*
X134910372Y-111462967D01*
X134961352Y-111362912D01*
X134961352Y-111362910D01*
X134961353Y-111362909D01*
X134978919Y-111252002D01*
X134978919Y-111251997D01*
X134961353Y-111141090D01*
X134910373Y-111041034D01*
X134830965Y-110961626D01*
X134730909Y-110910646D01*
X134620002Y-110893081D01*
X134619998Y-110893081D01*
X134509090Y-110910646D01*
X134409034Y-110961626D01*
X134329626Y-111041034D01*
X134278646Y-111141090D01*
X134261081Y-111251997D01*
X134261081Y-111252002D01*
X126739341Y-111252002D01*
X126702965Y-111215626D01*
X126602909Y-111164646D01*
X126492002Y-111147081D01*
X126491998Y-111147081D01*
X126412873Y-111159613D01*
X126343579Y-111150658D01*
X126290127Y-111105662D01*
X126269488Y-111038910D01*
X126270072Y-111024986D01*
X126272730Y-110998000D01*
X126253857Y-110806376D01*
X126197962Y-110622117D01*
X126195228Y-110617002D01*
X136674081Y-110617002D01*
X136691646Y-110727909D01*
X136742626Y-110827965D01*
X136822034Y-110907373D01*
X136922090Y-110958353D01*
X137032998Y-110975919D01*
X137033000Y-110975919D01*
X137033002Y-110975919D01*
X137143909Y-110958353D01*
X137143910Y-110958352D01*
X137143912Y-110958352D01*
X137243967Y-110907372D01*
X137323372Y-110827967D01*
X137374352Y-110727912D01*
X137374352Y-110727910D01*
X137374353Y-110727909D01*
X137391919Y-110617002D01*
X137391919Y-110616997D01*
X137374353Y-110506090D01*
X137323373Y-110406034D01*
X137243965Y-110326626D01*
X137143909Y-110275646D01*
X137033002Y-110258081D01*
X137032998Y-110258081D01*
X136922090Y-110275646D01*
X136822034Y-110326626D01*
X136742626Y-110406034D01*
X136691646Y-110506090D01*
X136674081Y-110616997D01*
X136674081Y-110617002D01*
X126195228Y-110617002D01*
X126195225Y-110616997D01*
X126107197Y-110452307D01*
X126107193Y-110452300D01*
X125985041Y-110303458D01*
X125836199Y-110181306D01*
X125836192Y-110181302D01*
X125700928Y-110109002D01*
X132610081Y-110109002D01*
X132627646Y-110219909D01*
X132678626Y-110319965D01*
X132758034Y-110399373D01*
X132858090Y-110450353D01*
X132968998Y-110467919D01*
X132969000Y-110467919D01*
X132969002Y-110467919D01*
X133079909Y-110450353D01*
X133079910Y-110450352D01*
X133079912Y-110450352D01*
X133179967Y-110399372D01*
X133259372Y-110319967D01*
X133310352Y-110219912D01*
X133310352Y-110219910D01*
X133310353Y-110219909D01*
X133327919Y-110109002D01*
X133327919Y-110108997D01*
X133310352Y-109998089D01*
X133307338Y-109988812D01*
X133311087Y-109987593D01*
X133301776Y-109937767D01*
X133328110Y-109873050D01*
X133385252Y-109832844D01*
X133444543Y-109827778D01*
X133477000Y-109832919D01*
X133477000Y-109832918D01*
X133477001Y-109832919D01*
X133477002Y-109832919D01*
X133587909Y-109815353D01*
X133587910Y-109815352D01*
X133587912Y-109815352D01*
X133687967Y-109764372D01*
X133767372Y-109684967D01*
X133818352Y-109584912D01*
X133818352Y-109584910D01*
X133818353Y-109584909D01*
X133835919Y-109474002D01*
X133835919Y-109473997D01*
X133818353Y-109363090D01*
X133767373Y-109263034D01*
X133724341Y-109220002D01*
X134896081Y-109220002D01*
X134913646Y-109330909D01*
X134964626Y-109430965D01*
X135044034Y-109510373D01*
X135144090Y-109561353D01*
X135254998Y-109578919D01*
X135255000Y-109578919D01*
X135255002Y-109578919D01*
X135365909Y-109561353D01*
X135365910Y-109561352D01*
X135365912Y-109561352D01*
X135465967Y-109510372D01*
X135545372Y-109430967D01*
X135571937Y-109378828D01*
X135619909Y-109328033D01*
X135687730Y-109311237D01*
X135753866Y-109333773D01*
X135770103Y-109347442D01*
X135806034Y-109383373D01*
X135906090Y-109434353D01*
X136016998Y-109451919D01*
X136017000Y-109451919D01*
X136017002Y-109451919D01*
X136127909Y-109434353D01*
X136127910Y-109434352D01*
X136127912Y-109434352D01*
X136227967Y-109383372D01*
X136307372Y-109303967D01*
X136358352Y-109203912D01*
X136358352Y-109203910D01*
X136358353Y-109203909D01*
X136375919Y-109093002D01*
X136375919Y-109092997D01*
X136358353Y-108982090D01*
X136307373Y-108882034D01*
X136227965Y-108802626D01*
X136127908Y-108751646D01*
X136127909Y-108751646D01*
X136099095Y-108747083D01*
X136035960Y-108717154D01*
X135999029Y-108657842D01*
X136000027Y-108587979D01*
X136038637Y-108529747D01*
X136062196Y-108514126D01*
X136100967Y-108494372D01*
X136137340Y-108457999D01*
X142088270Y-108457999D01*
X142107143Y-108649626D01*
X142163038Y-108833884D01*
X142253802Y-109003692D01*
X142253806Y-109003699D01*
X142375958Y-109152541D01*
X142524800Y-109274693D01*
X142524807Y-109274697D01*
X142690179Y-109363090D01*
X142694617Y-109365462D01*
X142878876Y-109421357D01*
X143070500Y-109440230D01*
X143262124Y-109421357D01*
X143446383Y-109365462D01*
X143616198Y-109274694D01*
X143765041Y-109152541D01*
X143887194Y-109003698D01*
X143977962Y-108833883D01*
X144033857Y-108649624D01*
X144052730Y-108458000D01*
X144033857Y-108266376D01*
X143977962Y-108082117D01*
X143930346Y-107993033D01*
X143887197Y-107912307D01*
X143887193Y-107912300D01*
X143765041Y-107763458D01*
X143616199Y-107641306D01*
X143616192Y-107641302D01*
X143446384Y-107550538D01*
X143262126Y-107494643D01*
X143070500Y-107475770D01*
X142878873Y-107494643D01*
X142694615Y-107550538D01*
X142524807Y-107641302D01*
X142524800Y-107641306D01*
X142375958Y-107763458D01*
X142253806Y-107912300D01*
X142253802Y-107912307D01*
X142163038Y-108082115D01*
X142107143Y-108266373D01*
X142088270Y-108457999D01*
X136137340Y-108457999D01*
X136180372Y-108414967D01*
X136231352Y-108314912D01*
X136231352Y-108314910D01*
X136231353Y-108314909D01*
X136248919Y-108204002D01*
X136248919Y-108203997D01*
X136231353Y-108093090D01*
X136180373Y-107993034D01*
X136100965Y-107913626D01*
X136000909Y-107862646D01*
X135890002Y-107845081D01*
X135889998Y-107845081D01*
X135779090Y-107862646D01*
X135679034Y-107913626D01*
X135599626Y-107993034D01*
X135548646Y-108093090D01*
X135531081Y-108203997D01*
X135531081Y-108204002D01*
X135548646Y-108314909D01*
X135599626Y-108414965D01*
X135679034Y-108494373D01*
X135711959Y-108511148D01*
X135779088Y-108545352D01*
X135807904Y-108549916D01*
X135871037Y-108579844D01*
X135907969Y-108639155D01*
X135906973Y-108709017D01*
X135868364Y-108767251D01*
X135844802Y-108782873D01*
X135806034Y-108802626D01*
X135726627Y-108882033D01*
X135700062Y-108934171D01*
X135652087Y-108984967D01*
X135584266Y-109001762D01*
X135518131Y-108979225D01*
X135501896Y-108965557D01*
X135465965Y-108929626D01*
X135365909Y-108878646D01*
X135255002Y-108861081D01*
X135254998Y-108861081D01*
X135144090Y-108878646D01*
X135044034Y-108929626D01*
X134964626Y-109009034D01*
X134913646Y-109109090D01*
X134896081Y-109219997D01*
X134896081Y-109220002D01*
X133724341Y-109220002D01*
X133687965Y-109183626D01*
X133587909Y-109132646D01*
X133477002Y-109115081D01*
X133476998Y-109115081D01*
X133366090Y-109132646D01*
X133266034Y-109183626D01*
X133186626Y-109263034D01*
X133135646Y-109363090D01*
X133118081Y-109473997D01*
X133118081Y-109474002D01*
X133135647Y-109584910D01*
X133138662Y-109594188D01*
X133134936Y-109595398D01*
X133144202Y-109645436D01*
X133117761Y-109710109D01*
X133060553Y-109750221D01*
X133001455Y-109755221D01*
X132969002Y-109750081D01*
X132968998Y-109750081D01*
X132858090Y-109767646D01*
X132758034Y-109818626D01*
X132678626Y-109898034D01*
X132627646Y-109998090D01*
X132610081Y-110108997D01*
X132610081Y-110109002D01*
X125700928Y-110109002D01*
X125666384Y-110090538D01*
X125482126Y-110034643D01*
X125290500Y-110015770D01*
X125098873Y-110034643D01*
X124914615Y-110090538D01*
X124744807Y-110181302D01*
X124744800Y-110181306D01*
X124595958Y-110303458D01*
X124473806Y-110452300D01*
X124473802Y-110452307D01*
X124383038Y-110622115D01*
X124327143Y-110806373D01*
X124308270Y-110997999D01*
X124327142Y-111189622D01*
X124383644Y-111375882D01*
X124384267Y-111445749D01*
X124347019Y-111504861D01*
X124283725Y-111534452D01*
X124245586Y-111534350D01*
X124206003Y-111528081D01*
X124205998Y-111528081D01*
X124095090Y-111545646D01*
X123995034Y-111596626D01*
X123915626Y-111676034D01*
X123864646Y-111776090D01*
X123847081Y-111886997D01*
X123847081Y-111887002D01*
X120904000Y-111887002D01*
X120904000Y-110998002D01*
X121942081Y-110998002D01*
X121959646Y-111108909D01*
X122010626Y-111208965D01*
X122090034Y-111288373D01*
X122190090Y-111339353D01*
X122300998Y-111356919D01*
X122301000Y-111356919D01*
X122301002Y-111356919D01*
X122411909Y-111339353D01*
X122411910Y-111339352D01*
X122411912Y-111339352D01*
X122511967Y-111288372D01*
X122591372Y-111208967D01*
X122642352Y-111108912D01*
X122642352Y-111108910D01*
X122642353Y-111108909D01*
X122659919Y-110998002D01*
X122659919Y-110997997D01*
X122642353Y-110887090D01*
X122591373Y-110787034D01*
X122511965Y-110707626D01*
X122411909Y-110656646D01*
X122301002Y-110639081D01*
X122300998Y-110639081D01*
X122190090Y-110656646D01*
X122090034Y-110707626D01*
X122010626Y-110787034D01*
X121959646Y-110887090D01*
X121942081Y-110997997D01*
X121942081Y-110998002D01*
X120904000Y-110998002D01*
X120904000Y-109474002D01*
X126514081Y-109474002D01*
X126531646Y-109584909D01*
X126582626Y-109684965D01*
X126662034Y-109764373D01*
X126762090Y-109815353D01*
X126872998Y-109832919D01*
X126873000Y-109832919D01*
X126873002Y-109832919D01*
X126983909Y-109815353D01*
X126983910Y-109815352D01*
X126983912Y-109815352D01*
X127083967Y-109764372D01*
X127163372Y-109684967D01*
X127214352Y-109584912D01*
X127214352Y-109584910D01*
X127214353Y-109584909D01*
X127231919Y-109474002D01*
X127231919Y-109473997D01*
X127214353Y-109363090D01*
X127163373Y-109263034D01*
X127083965Y-109183626D01*
X126983909Y-109132646D01*
X126873002Y-109115081D01*
X126872998Y-109115081D01*
X126762090Y-109132646D01*
X126662034Y-109183626D01*
X126582626Y-109263034D01*
X126531646Y-109363090D01*
X126514081Y-109473997D01*
X126514081Y-109474002D01*
X120904000Y-109474002D01*
X120904000Y-108966002D01*
X121815081Y-108966002D01*
X121832646Y-109076909D01*
X121883626Y-109176965D01*
X121963034Y-109256373D01*
X122063090Y-109307353D01*
X122173998Y-109324919D01*
X122174000Y-109324919D01*
X122174002Y-109324919D01*
X122284909Y-109307353D01*
X122284910Y-109307352D01*
X122284912Y-109307352D01*
X122384967Y-109256372D01*
X122464372Y-109176967D01*
X122515352Y-109076912D01*
X122515352Y-109076910D01*
X122515353Y-109076909D01*
X122532919Y-108966002D01*
X122532919Y-108965997D01*
X122515353Y-108855090D01*
X122464373Y-108755034D01*
X122384965Y-108675626D01*
X122284909Y-108624646D01*
X122174002Y-108607081D01*
X122173998Y-108607081D01*
X122063090Y-108624646D01*
X121963034Y-108675626D01*
X121883626Y-108755034D01*
X121832646Y-108855090D01*
X121815081Y-108965997D01*
X121815081Y-108966002D01*
X120904000Y-108966002D01*
X120904000Y-108458000D01*
X124308270Y-108458000D01*
X124327143Y-108649626D01*
X124383038Y-108833884D01*
X124473802Y-109003692D01*
X124473806Y-109003699D01*
X124595958Y-109152541D01*
X124744800Y-109274693D01*
X124744807Y-109274697D01*
X124910179Y-109363090D01*
X124914617Y-109365462D01*
X125098876Y-109421357D01*
X125290500Y-109440230D01*
X125482124Y-109421357D01*
X125666383Y-109365462D01*
X125836198Y-109274694D01*
X125985041Y-109152541D01*
X126107194Y-109003698D01*
X126197962Y-108833883D01*
X126253857Y-108649624D01*
X126272730Y-108458000D01*
X126260222Y-108331002D01*
X128419081Y-108331002D01*
X128436646Y-108441909D01*
X128487626Y-108541965D01*
X128567034Y-108621373D01*
X128667090Y-108672353D01*
X128777998Y-108689919D01*
X128778000Y-108689919D01*
X128778002Y-108689919D01*
X128888909Y-108672353D01*
X128888910Y-108672352D01*
X128888912Y-108672352D01*
X128988967Y-108621372D01*
X129068372Y-108541967D01*
X129119352Y-108441912D01*
X129119352Y-108441910D01*
X129119353Y-108441909D01*
X129136919Y-108331002D01*
X129136919Y-108330997D01*
X129119353Y-108220090D01*
X129068373Y-108120034D01*
X128988965Y-108040626D01*
X128888909Y-107989646D01*
X128778002Y-107972081D01*
X128777998Y-107972081D01*
X128667090Y-107989646D01*
X128567034Y-108040626D01*
X128487626Y-108120034D01*
X128436646Y-108220090D01*
X128419081Y-108330997D01*
X128419081Y-108331002D01*
X126260222Y-108331002D01*
X126253857Y-108266376D01*
X126197962Y-108082117D01*
X126150346Y-107993033D01*
X126107197Y-107912307D01*
X126107193Y-107912300D01*
X125985041Y-107763458D01*
X125836199Y-107641306D01*
X125836192Y-107641302D01*
X125700928Y-107569002D01*
X127022081Y-107569002D01*
X127039646Y-107679909D01*
X127090626Y-107779965D01*
X127170034Y-107859373D01*
X127270090Y-107910353D01*
X127380998Y-107927919D01*
X127381000Y-107927919D01*
X127381002Y-107927919D01*
X127491909Y-107910353D01*
X127491910Y-107910352D01*
X127491912Y-107910352D01*
X127591967Y-107859372D01*
X127671372Y-107779967D01*
X127722352Y-107679912D01*
X127722352Y-107679910D01*
X127722353Y-107679909D01*
X127739919Y-107569002D01*
X127739919Y-107568997D01*
X127722353Y-107458090D01*
X127671373Y-107358034D01*
X127591965Y-107278626D01*
X127491909Y-107227646D01*
X127381002Y-107210081D01*
X127380998Y-107210081D01*
X127270090Y-107227646D01*
X127170034Y-107278626D01*
X127090626Y-107358034D01*
X127039646Y-107458090D01*
X127022081Y-107568997D01*
X127022081Y-107569002D01*
X125700928Y-107569002D01*
X125666384Y-107550538D01*
X125482126Y-107494643D01*
X125290500Y-107475770D01*
X125098873Y-107494643D01*
X124914615Y-107550538D01*
X124744807Y-107641302D01*
X124744800Y-107641306D01*
X124595958Y-107763458D01*
X124473806Y-107912300D01*
X124473802Y-107912307D01*
X124383038Y-108082115D01*
X124327143Y-108266373D01*
X124308270Y-108458000D01*
X120904000Y-108458000D01*
X120904000Y-107442002D01*
X121815081Y-107442002D01*
X121832646Y-107552909D01*
X121883626Y-107652965D01*
X121963034Y-107732373D01*
X122063090Y-107783353D01*
X122173998Y-107800919D01*
X122174000Y-107800919D01*
X122174002Y-107800919D01*
X122284909Y-107783353D01*
X122284910Y-107783352D01*
X122284912Y-107783352D01*
X122384967Y-107732372D01*
X122464372Y-107652967D01*
X122515352Y-107552912D01*
X122515352Y-107552910D01*
X122515353Y-107552909D01*
X122532919Y-107442002D01*
X122532919Y-107441997D01*
X122515353Y-107331090D01*
X122464373Y-107231034D01*
X122421341Y-107188002D01*
X128927081Y-107188002D01*
X128944646Y-107298909D01*
X128995626Y-107398965D01*
X129075034Y-107478373D01*
X129175090Y-107529353D01*
X129285998Y-107546919D01*
X129286000Y-107546919D01*
X129286002Y-107546919D01*
X129396909Y-107529353D01*
X129396910Y-107529352D01*
X129396912Y-107529352D01*
X129496967Y-107478372D01*
X129576372Y-107398967D01*
X129627352Y-107298912D01*
X129627352Y-107298910D01*
X129627353Y-107298909D01*
X129644919Y-107188002D01*
X129644919Y-107187997D01*
X129627353Y-107077090D01*
X129619156Y-107061002D01*
X135658081Y-107061002D01*
X135675646Y-107171909D01*
X135726626Y-107271965D01*
X135806034Y-107351373D01*
X135906090Y-107402353D01*
X136016998Y-107419919D01*
X136017000Y-107419919D01*
X136017002Y-107419919D01*
X136127909Y-107402353D01*
X136127910Y-107402352D01*
X136127912Y-107402352D01*
X136227967Y-107351372D01*
X136307372Y-107271967D01*
X136358352Y-107171912D01*
X136358352Y-107171910D01*
X136358353Y-107171909D01*
X136375919Y-107061002D01*
X136375919Y-107060997D01*
X136358353Y-106950090D01*
X136307373Y-106850034D01*
X136227965Y-106770626D01*
X136127909Y-106719646D01*
X136017002Y-106702081D01*
X136016998Y-106702081D01*
X135906090Y-106719646D01*
X135806034Y-106770626D01*
X135726626Y-106850034D01*
X135675646Y-106950090D01*
X135658081Y-107060997D01*
X135658081Y-107061002D01*
X129619156Y-107061002D01*
X129576373Y-106977034D01*
X129540442Y-106941103D01*
X129506957Y-106879780D01*
X129511941Y-106810088D01*
X129553813Y-106754155D01*
X129571822Y-106742940D01*
X129623967Y-106716372D01*
X129703372Y-106636967D01*
X129754352Y-106536912D01*
X129754352Y-106536910D01*
X129754353Y-106536909D01*
X129771919Y-106426002D01*
X129771919Y-106425997D01*
X129754353Y-106315090D01*
X129746156Y-106299002D01*
X134261081Y-106299002D01*
X134278646Y-106409909D01*
X134329626Y-106509965D01*
X134409034Y-106589373D01*
X134509090Y-106640353D01*
X134619998Y-106657919D01*
X134620000Y-106657919D01*
X134620002Y-106657919D01*
X134730909Y-106640353D01*
X134730910Y-106640352D01*
X134730912Y-106640352D01*
X134830967Y-106589372D01*
X134910372Y-106509967D01*
X134953154Y-106426002D01*
X137690081Y-106426002D01*
X137707646Y-106536909D01*
X137758626Y-106636965D01*
X137838034Y-106716373D01*
X137938090Y-106767353D01*
X138048998Y-106784919D01*
X138049000Y-106784919D01*
X138049002Y-106784919D01*
X138159909Y-106767353D01*
X138159910Y-106767352D01*
X138159912Y-106767352D01*
X138259967Y-106716372D01*
X138339372Y-106636967D01*
X138390352Y-106536912D01*
X138390352Y-106536910D01*
X138390353Y-106536909D01*
X138407919Y-106426002D01*
X138407919Y-106425997D01*
X138390353Y-106315090D01*
X138382156Y-106299002D01*
X139595081Y-106299002D01*
X139612646Y-106409909D01*
X139663626Y-106509965D01*
X139743034Y-106589373D01*
X139843090Y-106640353D01*
X139953998Y-106657919D01*
X139954000Y-106657919D01*
X139954002Y-106657919D01*
X140064909Y-106640353D01*
X140064910Y-106640352D01*
X140064912Y-106640352D01*
X140164967Y-106589372D01*
X140244372Y-106509967D01*
X140295352Y-106409912D01*
X140295352Y-106409910D01*
X140295353Y-106409909D01*
X140312919Y-106299002D01*
X140312919Y-106298997D01*
X140295353Y-106188090D01*
X140244373Y-106088034D01*
X140164965Y-106008626D01*
X140064909Y-105957646D01*
X139954002Y-105940081D01*
X139953998Y-105940081D01*
X139843090Y-105957646D01*
X139743034Y-106008626D01*
X139663626Y-106088034D01*
X139612646Y-106188090D01*
X139595081Y-106298997D01*
X139595081Y-106299002D01*
X138382156Y-106299002D01*
X138339373Y-106215034D01*
X138259965Y-106135626D01*
X138159909Y-106084646D01*
X138049002Y-106067081D01*
X138048998Y-106067081D01*
X137938090Y-106084646D01*
X137838034Y-106135626D01*
X137758626Y-106215034D01*
X137707646Y-106315090D01*
X137690081Y-106425997D01*
X137690081Y-106426002D01*
X134953154Y-106426002D01*
X134961352Y-106409912D01*
X134961352Y-106409910D01*
X134961353Y-106409909D01*
X134978919Y-106299002D01*
X134978919Y-106298997D01*
X134961353Y-106188090D01*
X134910373Y-106088034D01*
X134830965Y-106008626D01*
X134730909Y-105957646D01*
X134620002Y-105940081D01*
X134619998Y-105940081D01*
X134509090Y-105957646D01*
X134409034Y-106008626D01*
X134329626Y-106088034D01*
X134278646Y-106188090D01*
X134261081Y-106298997D01*
X134261081Y-106299002D01*
X129746156Y-106299002D01*
X129703373Y-106215034D01*
X129623965Y-106135626D01*
X129523909Y-106084646D01*
X129413002Y-106067081D01*
X129412998Y-106067081D01*
X129302090Y-106084646D01*
X129202034Y-106135626D01*
X129122626Y-106215034D01*
X129071646Y-106315090D01*
X129054081Y-106425997D01*
X129054081Y-106426002D01*
X129071646Y-106536909D01*
X129122626Y-106636965D01*
X129158557Y-106672896D01*
X129192042Y-106734219D01*
X129187058Y-106803911D01*
X129145186Y-106859844D01*
X129127171Y-106871062D01*
X129075033Y-106897627D01*
X128995626Y-106977034D01*
X128944646Y-107077090D01*
X128927081Y-107187997D01*
X128927081Y-107188002D01*
X122421341Y-107188002D01*
X122384966Y-107151627D01*
X122374716Y-107146405D01*
X122323919Y-107098432D01*
X122307123Y-107030611D01*
X122329659Y-106964476D01*
X122384373Y-106921023D01*
X122418505Y-106914359D01*
X122418361Y-106913446D01*
X122538909Y-106894353D01*
X122538910Y-106894352D01*
X122538912Y-106894352D01*
X122638967Y-106843372D01*
X122718372Y-106763967D01*
X122769352Y-106663912D01*
X122769352Y-106663910D01*
X122769353Y-106663909D01*
X122786919Y-106553002D01*
X122786919Y-106552997D01*
X122769353Y-106442090D01*
X122718373Y-106342034D01*
X122638965Y-106262626D01*
X122538909Y-106211646D01*
X122428002Y-106194081D01*
X122427998Y-106194081D01*
X122317090Y-106211646D01*
X122217034Y-106262626D01*
X122137626Y-106342034D01*
X122086646Y-106442090D01*
X122069081Y-106552997D01*
X122069081Y-106553002D01*
X122086646Y-106663909D01*
X122137626Y-106763965D01*
X122217033Y-106843372D01*
X122227284Y-106848595D01*
X122278081Y-106896568D01*
X122294877Y-106964389D01*
X122272341Y-107030524D01*
X122217627Y-107073977D01*
X122183494Y-107080640D01*
X122183639Y-107081554D01*
X122063090Y-107100646D01*
X121963034Y-107151626D01*
X121883626Y-107231034D01*
X121832646Y-107331090D01*
X121815081Y-107441997D01*
X121815081Y-107442002D01*
X120904000Y-107442002D01*
X120904000Y-105917999D01*
X124308270Y-105917999D01*
X124327143Y-106109626D01*
X124383038Y-106293884D01*
X124473802Y-106463692D01*
X124473806Y-106463699D01*
X124595958Y-106612541D01*
X124744800Y-106734693D01*
X124744807Y-106734697D01*
X124838766Y-106784919D01*
X124914617Y-106825462D01*
X125098876Y-106881357D01*
X125290500Y-106900230D01*
X125482124Y-106881357D01*
X125666383Y-106825462D01*
X125836198Y-106734694D01*
X125985041Y-106612541D01*
X126107194Y-106463698D01*
X126195226Y-106299002D01*
X127911081Y-106299002D01*
X127928646Y-106409909D01*
X127979626Y-106509965D01*
X128059034Y-106589373D01*
X128159090Y-106640353D01*
X128269998Y-106657919D01*
X128270000Y-106657919D01*
X128270002Y-106657919D01*
X128380909Y-106640353D01*
X128380910Y-106640352D01*
X128380912Y-106640352D01*
X128480967Y-106589372D01*
X128560372Y-106509967D01*
X128611352Y-106409912D01*
X128611352Y-106409910D01*
X128611353Y-106409909D01*
X128628919Y-106299002D01*
X128628919Y-106298997D01*
X128611353Y-106188090D01*
X128560373Y-106088034D01*
X128480965Y-106008626D01*
X128380909Y-105957646D01*
X128270002Y-105940081D01*
X128269998Y-105940081D01*
X128159090Y-105957646D01*
X128059034Y-106008626D01*
X127979626Y-106088034D01*
X127928646Y-106188090D01*
X127911081Y-106298997D01*
X127911081Y-106299002D01*
X126195226Y-106299002D01*
X126197962Y-106293883D01*
X126253857Y-106109624D01*
X126272730Y-105918000D01*
X126272730Y-105917999D01*
X142088270Y-105917999D01*
X142107143Y-106109626D01*
X142163038Y-106293884D01*
X142253802Y-106463692D01*
X142253806Y-106463699D01*
X142375958Y-106612541D01*
X142524800Y-106734693D01*
X142524807Y-106734697D01*
X142618766Y-106784919D01*
X142694617Y-106825462D01*
X142878876Y-106881357D01*
X143070500Y-106900230D01*
X143262124Y-106881357D01*
X143446383Y-106825462D01*
X143616198Y-106734694D01*
X143765041Y-106612541D01*
X143887194Y-106463698D01*
X143977962Y-106293883D01*
X144033857Y-106109624D01*
X144052730Y-105918000D01*
X144033857Y-105726376D01*
X143977962Y-105542117D01*
X143926785Y-105446372D01*
X143887197Y-105372307D01*
X143887193Y-105372300D01*
X143765041Y-105223458D01*
X143616199Y-105101306D01*
X143616192Y-105101302D01*
X143446384Y-105010538D01*
X143262126Y-104954643D01*
X143070500Y-104935770D01*
X142878873Y-104954643D01*
X142694615Y-105010538D01*
X142524807Y-105101302D01*
X142524800Y-105101306D01*
X142375958Y-105223458D01*
X142253806Y-105372300D01*
X142253802Y-105372307D01*
X142163038Y-105542115D01*
X142107143Y-105726373D01*
X142088270Y-105917999D01*
X126272730Y-105917999D01*
X126253857Y-105726376D01*
X126197962Y-105542117D01*
X126146785Y-105446372D01*
X126107197Y-105372307D01*
X126107193Y-105372300D01*
X126033908Y-105283002D01*
X129689081Y-105283002D01*
X129706646Y-105393909D01*
X129757626Y-105493965D01*
X129837034Y-105573373D01*
X129937090Y-105624353D01*
X130047998Y-105641919D01*
X130048000Y-105641919D01*
X130048002Y-105641919D01*
X130158909Y-105624353D01*
X130158910Y-105624352D01*
X130158912Y-105624352D01*
X130258967Y-105573372D01*
X130338372Y-105493967D01*
X130389352Y-105393912D01*
X130389352Y-105393910D01*
X130389353Y-105393909D01*
X130406919Y-105283002D01*
X130406919Y-105282997D01*
X130389353Y-105172090D01*
X130381156Y-105156002D01*
X133753081Y-105156002D01*
X133770646Y-105266909D01*
X133821626Y-105366965D01*
X133901034Y-105446373D01*
X134001090Y-105497353D01*
X134111998Y-105514919D01*
X134112000Y-105514919D01*
X134112002Y-105514919D01*
X134222909Y-105497353D01*
X134222910Y-105497352D01*
X134222912Y-105497352D01*
X134322967Y-105446372D01*
X134402372Y-105366967D01*
X134445154Y-105283002D01*
X139595081Y-105283002D01*
X139612646Y-105393909D01*
X139663626Y-105493965D01*
X139743034Y-105573373D01*
X139843090Y-105624353D01*
X139953998Y-105641919D01*
X139954000Y-105641919D01*
X139954002Y-105641919D01*
X140064909Y-105624353D01*
X140064910Y-105624352D01*
X140064912Y-105624352D01*
X140164967Y-105573372D01*
X140201337Y-105537002D01*
X140738081Y-105537002D01*
X140755646Y-105647909D01*
X140806626Y-105747965D01*
X140886034Y-105827373D01*
X140986090Y-105878353D01*
X141096998Y-105895919D01*
X141097000Y-105895919D01*
X141097002Y-105895919D01*
X141207909Y-105878353D01*
X141207910Y-105878352D01*
X141207912Y-105878352D01*
X141307967Y-105827372D01*
X141387372Y-105747967D01*
X141438352Y-105647912D01*
X141438352Y-105647910D01*
X141438353Y-105647909D01*
X141455919Y-105537002D01*
X141455919Y-105536997D01*
X141438353Y-105426090D01*
X141387373Y-105326034D01*
X141307965Y-105246626D01*
X141207909Y-105195646D01*
X141097002Y-105178081D01*
X141096998Y-105178081D01*
X140986090Y-105195646D01*
X140886034Y-105246626D01*
X140806626Y-105326034D01*
X140755646Y-105426090D01*
X140738081Y-105536997D01*
X140738081Y-105537002D01*
X140201337Y-105537002D01*
X140244372Y-105493967D01*
X140295352Y-105393912D01*
X140295352Y-105393910D01*
X140295353Y-105393909D01*
X140312919Y-105283002D01*
X140312919Y-105282997D01*
X140295353Y-105172090D01*
X140244373Y-105072034D01*
X140164965Y-104992626D01*
X140064909Y-104941646D01*
X139954002Y-104924081D01*
X139953998Y-104924081D01*
X139843090Y-104941646D01*
X139743034Y-104992626D01*
X139663626Y-105072034D01*
X139612646Y-105172090D01*
X139595081Y-105282997D01*
X139595081Y-105283002D01*
X134445154Y-105283002D01*
X134453352Y-105266912D01*
X134453352Y-105266910D01*
X134453353Y-105266909D01*
X134470919Y-105156002D01*
X134470919Y-105155997D01*
X134453353Y-105045090D01*
X134402373Y-104945034D01*
X134322965Y-104865626D01*
X134222909Y-104814646D01*
X134112002Y-104797081D01*
X134111998Y-104797081D01*
X134001090Y-104814646D01*
X133901034Y-104865626D01*
X133821626Y-104945034D01*
X133770646Y-105045090D01*
X133753081Y-105155997D01*
X133753081Y-105156002D01*
X130381156Y-105156002D01*
X130338373Y-105072034D01*
X130258965Y-104992626D01*
X130158909Y-104941646D01*
X130048002Y-104924081D01*
X130047998Y-104924081D01*
X129937090Y-104941646D01*
X129837034Y-104992626D01*
X129757626Y-105072034D01*
X129706646Y-105172090D01*
X129689081Y-105282997D01*
X129689081Y-105283002D01*
X126033908Y-105283002D01*
X125985041Y-105223458D01*
X125836199Y-105101306D01*
X125836192Y-105101302D01*
X125666384Y-105010538D01*
X125482126Y-104954643D01*
X125290500Y-104935770D01*
X125098873Y-104954643D01*
X124914615Y-105010538D01*
X124744807Y-105101302D01*
X124744800Y-105101306D01*
X124595958Y-105223458D01*
X124473806Y-105372300D01*
X124473802Y-105372307D01*
X124383038Y-105542115D01*
X124327143Y-105726373D01*
X124308270Y-105917999D01*
X120904000Y-105917999D01*
X120904000Y-104775002D01*
X122069081Y-104775002D01*
X122086646Y-104885909D01*
X122137626Y-104985965D01*
X122217034Y-105065373D01*
X122317090Y-105116353D01*
X122427998Y-105133919D01*
X122428000Y-105133919D01*
X122428002Y-105133919D01*
X122538909Y-105116353D01*
X122538910Y-105116352D01*
X122538912Y-105116352D01*
X122638967Y-105065372D01*
X122718372Y-104985967D01*
X122769352Y-104885912D01*
X122769352Y-104885910D01*
X122769353Y-104885909D01*
X122786919Y-104775002D01*
X122786919Y-104774997D01*
X122769353Y-104664091D01*
X122768426Y-104661238D01*
X122768321Y-104657576D01*
X122767826Y-104654449D01*
X122768230Y-104654384D01*
X122766431Y-104591397D01*
X122802511Y-104531564D01*
X122823992Y-104521002D01*
X131975081Y-104521002D01*
X131992646Y-104631909D01*
X132043626Y-104731965D01*
X132123034Y-104811373D01*
X132223090Y-104862353D01*
X132333998Y-104879919D01*
X132334000Y-104879919D01*
X132334002Y-104879919D01*
X132444909Y-104862353D01*
X132444910Y-104862352D01*
X132444912Y-104862352D01*
X132544967Y-104811372D01*
X132624372Y-104731967D01*
X132675352Y-104631912D01*
X132675352Y-104631910D01*
X132675353Y-104631909D01*
X132692919Y-104521002D01*
X132692919Y-104520997D01*
X132677240Y-104422002D01*
X137690081Y-104422002D01*
X137707646Y-104532909D01*
X137758626Y-104632965D01*
X137838034Y-104712373D01*
X137938090Y-104763353D01*
X138048998Y-104780919D01*
X138049000Y-104780919D01*
X138049002Y-104780919D01*
X138159909Y-104763353D01*
X138159910Y-104763352D01*
X138159912Y-104763352D01*
X138259967Y-104712372D01*
X138339372Y-104632967D01*
X138390352Y-104532912D01*
X138390352Y-104532910D01*
X138390353Y-104532909D01*
X138407919Y-104422002D01*
X138407919Y-104421997D01*
X138390353Y-104311090D01*
X138339373Y-104211034D01*
X138259965Y-104131626D01*
X138159909Y-104080646D01*
X138049002Y-104063081D01*
X138048998Y-104063081D01*
X137938090Y-104080646D01*
X137838034Y-104131626D01*
X137758626Y-104211034D01*
X137707646Y-104311090D01*
X137690081Y-104421997D01*
X137690081Y-104422002D01*
X132677240Y-104422002D01*
X132675353Y-104410090D01*
X132624373Y-104310034D01*
X132544965Y-104230626D01*
X132444909Y-104179646D01*
X132334002Y-104162081D01*
X132333998Y-104162081D01*
X132223090Y-104179646D01*
X132123034Y-104230626D01*
X132043626Y-104310034D01*
X131992646Y-104410090D01*
X131975081Y-104520997D01*
X131975081Y-104521002D01*
X122823992Y-104521002D01*
X122865212Y-104500735D01*
X122876843Y-104499736D01*
X122992909Y-104481353D01*
X122992910Y-104481352D01*
X122992912Y-104481352D01*
X123092967Y-104430372D01*
X123172372Y-104350967D01*
X123223352Y-104250912D01*
X123223352Y-104250910D01*
X123223353Y-104250909D01*
X123240919Y-104140002D01*
X123240919Y-104139997D01*
X123223353Y-104029090D01*
X123172373Y-103929034D01*
X123092965Y-103849626D01*
X122992909Y-103798646D01*
X122882002Y-103781081D01*
X122881998Y-103781081D01*
X122771090Y-103798646D01*
X122671034Y-103849626D01*
X122591626Y-103929034D01*
X122540646Y-104029090D01*
X122523081Y-104139997D01*
X122523081Y-104140002D01*
X122540646Y-104250908D01*
X122541574Y-104253762D01*
X122541678Y-104257423D01*
X122542174Y-104260551D01*
X122541769Y-104260615D01*
X122543569Y-104323603D01*
X122507489Y-104383436D01*
X122444788Y-104414265D01*
X122433156Y-104415263D01*
X122317090Y-104433646D01*
X122217034Y-104484626D01*
X122137626Y-104564034D01*
X122086646Y-104664090D01*
X122069081Y-104774997D01*
X122069081Y-104775002D01*
X120904000Y-104775002D01*
X120904000Y-102743002D01*
X122577081Y-102743002D01*
X122594646Y-102853909D01*
X122645626Y-102953965D01*
X122725034Y-103033373D01*
X122825090Y-103084353D01*
X122935998Y-103101919D01*
X122936000Y-103101919D01*
X122936002Y-103101919D01*
X123046909Y-103084353D01*
X123046910Y-103084352D01*
X123046912Y-103084352D01*
X123146967Y-103033372D01*
X123226372Y-102953967D01*
X123277352Y-102853912D01*
X123277352Y-102853910D01*
X123277353Y-102853909D01*
X123294919Y-102743002D01*
X123294919Y-102742997D01*
X123277353Y-102632090D01*
X123226373Y-102532034D01*
X123146965Y-102452626D01*
X123046909Y-102401646D01*
X122936002Y-102384081D01*
X122935998Y-102384081D01*
X122825090Y-102401646D01*
X122725034Y-102452626D01*
X122645626Y-102532034D01*
X122594646Y-102632090D01*
X122577081Y-102742997D01*
X122577081Y-102743002D01*
X120904000Y-102743002D01*
X120904000Y-101735844D01*
X123940500Y-101735844D01*
X123946901Y-101795372D01*
X123946903Y-101795379D01*
X123997145Y-101930086D01*
X123997149Y-101930093D01*
X124083309Y-102045187D01*
X124083312Y-102045190D01*
X124198406Y-102131350D01*
X124198413Y-102131354D01*
X124333120Y-102181596D01*
X124333127Y-102181598D01*
X124392655Y-102187999D01*
X124392672Y-102188000D01*
X125010078Y-102188000D01*
X125077117Y-102207685D01*
X125122872Y-102260489D01*
X125132816Y-102329647D01*
X125103791Y-102393203D01*
X125046074Y-102430660D01*
X124914615Y-102470538D01*
X124744807Y-102561302D01*
X124744800Y-102561306D01*
X124595958Y-102683458D01*
X124473806Y-102832300D01*
X124473802Y-102832307D01*
X124383038Y-103002115D01*
X124327143Y-103186373D01*
X124308270Y-103378000D01*
X124327143Y-103569626D01*
X124383038Y-103753884D01*
X124473802Y-103923692D01*
X124473806Y-103923699D01*
X124595958Y-104072541D01*
X124744800Y-104194693D01*
X124744807Y-104194697D01*
X124914615Y-104285461D01*
X124914617Y-104285462D01*
X125098876Y-104341357D01*
X125290500Y-104360230D01*
X125482124Y-104341357D01*
X125666383Y-104285462D01*
X125836198Y-104194694D01*
X125985041Y-104072541D01*
X126107194Y-103923698D01*
X126195226Y-103759002D01*
X133880081Y-103759002D01*
X133897646Y-103869909D01*
X133948626Y-103969965D01*
X134028034Y-104049373D01*
X134128090Y-104100353D01*
X134238998Y-104117919D01*
X134239000Y-104117919D01*
X134239002Y-104117919D01*
X134349909Y-104100353D01*
X134349910Y-104100352D01*
X134349912Y-104100352D01*
X134449967Y-104049372D01*
X134529372Y-103969967D01*
X134580352Y-103869912D01*
X134580352Y-103869910D01*
X134580353Y-103869909D01*
X134597919Y-103759002D01*
X134597919Y-103758997D01*
X134580353Y-103648090D01*
X134529373Y-103548034D01*
X134486341Y-103505002D01*
X138071081Y-103505002D01*
X138088646Y-103615909D01*
X138139626Y-103715965D01*
X138219034Y-103795373D01*
X138319090Y-103846353D01*
X138429998Y-103863919D01*
X138430000Y-103863919D01*
X138430002Y-103863919D01*
X138540909Y-103846353D01*
X138540910Y-103846352D01*
X138540912Y-103846352D01*
X138640967Y-103795372D01*
X138720372Y-103715967D01*
X138771352Y-103615912D01*
X138771352Y-103615910D01*
X138771353Y-103615909D01*
X138788919Y-103505002D01*
X138788919Y-103504997D01*
X138771353Y-103394090D01*
X138720373Y-103294034D01*
X138640965Y-103214626D01*
X138540909Y-103163646D01*
X138430002Y-103146081D01*
X138429998Y-103146081D01*
X138319090Y-103163646D01*
X138219034Y-103214626D01*
X138139626Y-103294034D01*
X138088646Y-103394090D01*
X138071081Y-103504997D01*
X138071081Y-103505002D01*
X134486341Y-103505002D01*
X134449965Y-103468626D01*
X134349909Y-103417646D01*
X134239002Y-103400081D01*
X134238998Y-103400081D01*
X134128090Y-103417646D01*
X134028034Y-103468626D01*
X133948626Y-103548034D01*
X133897646Y-103648090D01*
X133880081Y-103758997D01*
X133880081Y-103759002D01*
X126195226Y-103759002D01*
X126197962Y-103753883D01*
X126253857Y-103569624D01*
X126272730Y-103378000D01*
X126253857Y-103186376D01*
X126197962Y-103002117D01*
X126172224Y-102953965D01*
X126107197Y-102832307D01*
X126107193Y-102832300D01*
X125985041Y-102683458D01*
X125836199Y-102561306D01*
X125836192Y-102561302D01*
X125666384Y-102470538D01*
X125534926Y-102430660D01*
X125476488Y-102392363D01*
X125462949Y-102362002D01*
X134769081Y-102362002D01*
X134786646Y-102472909D01*
X134837626Y-102572965D01*
X134917034Y-102652373D01*
X135017090Y-102703353D01*
X135079813Y-102713286D01*
X135128000Y-102720919D01*
X135160455Y-102715778D01*
X135229746Y-102724731D01*
X135283199Y-102769726D01*
X135303840Y-102836478D01*
X135294767Y-102875871D01*
X135297662Y-102876812D01*
X135294647Y-102886089D01*
X135277081Y-102996997D01*
X135277081Y-102997002D01*
X135294646Y-103107909D01*
X135345626Y-103207965D01*
X135425034Y-103287373D01*
X135525090Y-103338353D01*
X135635998Y-103355919D01*
X135636000Y-103355919D01*
X135636002Y-103355919D01*
X135746909Y-103338353D01*
X135746910Y-103338352D01*
X135746912Y-103338352D01*
X135846967Y-103287372D01*
X135926372Y-103207967D01*
X135977352Y-103107912D01*
X135977352Y-103107910D01*
X135977353Y-103107909D01*
X135994919Y-102997002D01*
X135994919Y-102996997D01*
X135977353Y-102886090D01*
X135926373Y-102786034D01*
X135846965Y-102706626D01*
X135746909Y-102655646D01*
X135636002Y-102638081D01*
X135635997Y-102638081D01*
X135603543Y-102643221D01*
X135534250Y-102634266D01*
X135480798Y-102589270D01*
X135460159Y-102522518D01*
X135469328Y-102483159D01*
X135466338Y-102482188D01*
X135469350Y-102472915D01*
X135469352Y-102472912D01*
X135486919Y-102362000D01*
X135481621Y-102328550D01*
X135469510Y-102252082D01*
X135478465Y-102182788D01*
X135523461Y-102129337D01*
X135590212Y-102108697D01*
X135657526Y-102127422D01*
X135677119Y-102142981D01*
X135679033Y-102144372D01*
X135754429Y-102182788D01*
X135779090Y-102195353D01*
X135889998Y-102212919D01*
X135890000Y-102212919D01*
X135890002Y-102212919D01*
X136000909Y-102195353D01*
X136000910Y-102195352D01*
X136000912Y-102195352D01*
X136100967Y-102144372D01*
X136180372Y-102064967D01*
X136231352Y-101964912D01*
X136231352Y-101964910D01*
X136231353Y-101964909D01*
X136248919Y-101854002D01*
X136248919Y-101853997D01*
X136231353Y-101743090D01*
X136227661Y-101735844D01*
X141720500Y-101735844D01*
X141726901Y-101795372D01*
X141726903Y-101795379D01*
X141777145Y-101930086D01*
X141777149Y-101930093D01*
X141863309Y-102045187D01*
X141863312Y-102045190D01*
X141978406Y-102131350D01*
X141978413Y-102131354D01*
X142113120Y-102181596D01*
X142113127Y-102181598D01*
X142172655Y-102187999D01*
X142172672Y-102188000D01*
X142790078Y-102188000D01*
X142857117Y-102207685D01*
X142902872Y-102260489D01*
X142912816Y-102329647D01*
X142883791Y-102393203D01*
X142826074Y-102430660D01*
X142694615Y-102470538D01*
X142524807Y-102561302D01*
X142524800Y-102561306D01*
X142375958Y-102683458D01*
X142253806Y-102832300D01*
X142253802Y-102832307D01*
X142163038Y-103002115D01*
X142107143Y-103186373D01*
X142088270Y-103378000D01*
X142107143Y-103569626D01*
X142163038Y-103753884D01*
X142253802Y-103923692D01*
X142253806Y-103923699D01*
X142375958Y-104072541D01*
X142524800Y-104194693D01*
X142524807Y-104194697D01*
X142694615Y-104285461D01*
X142694617Y-104285462D01*
X142878876Y-104341357D01*
X143070500Y-104360230D01*
X143262124Y-104341357D01*
X143446383Y-104285462D01*
X143616198Y-104194694D01*
X143765041Y-104072541D01*
X143887194Y-103923698D01*
X143977962Y-103753883D01*
X144033857Y-103569624D01*
X144052730Y-103378000D01*
X144033857Y-103186376D01*
X143977962Y-103002117D01*
X143952224Y-102953965D01*
X143887197Y-102832307D01*
X143887193Y-102832300D01*
X143765041Y-102683458D01*
X143616199Y-102561306D01*
X143616192Y-102561302D01*
X143446384Y-102470538D01*
X143314926Y-102430660D01*
X143256488Y-102392363D01*
X143228031Y-102328550D01*
X143238592Y-102259483D01*
X143284817Y-102207090D01*
X143350922Y-102188000D01*
X143968328Y-102188000D01*
X143968344Y-102187999D01*
X144027872Y-102181598D01*
X144027879Y-102181596D01*
X144162586Y-102131354D01*
X144162593Y-102131350D01*
X144277687Y-102045190D01*
X144277690Y-102045187D01*
X144363850Y-101930093D01*
X144363854Y-101930086D01*
X144414096Y-101795379D01*
X144414098Y-101795372D01*
X144420499Y-101735844D01*
X144420500Y-101735827D01*
X144420500Y-101088000D01*
X143516072Y-101088000D01*
X143539182Y-101052040D01*
X143580500Y-100911327D01*
X143580500Y-100764673D01*
X143539182Y-100623960D01*
X143516072Y-100588000D01*
X144420500Y-100588000D01*
X144420500Y-99940172D01*
X144420499Y-99940155D01*
X144414098Y-99880627D01*
X144414096Y-99880620D01*
X144363854Y-99745913D01*
X144363850Y-99745906D01*
X144277690Y-99630812D01*
X144277687Y-99630809D01*
X144162593Y-99544649D01*
X144162586Y-99544645D01*
X144027879Y-99494403D01*
X144027872Y-99494401D01*
X143968344Y-99488000D01*
X143350922Y-99488000D01*
X143283883Y-99468315D01*
X143238128Y-99415511D01*
X143228184Y-99346353D01*
X143257209Y-99282797D01*
X143314926Y-99245340D01*
X143369594Y-99228755D01*
X143446383Y-99205462D01*
X143616198Y-99114694D01*
X143765041Y-98992541D01*
X143887194Y-98843698D01*
X143977962Y-98673883D01*
X144033857Y-98489624D01*
X144052730Y-98298000D01*
X144033857Y-98106376D01*
X143977962Y-97922117D01*
X143955785Y-97880626D01*
X143887197Y-97752307D01*
X143887193Y-97752300D01*
X143765041Y-97603458D01*
X143616199Y-97481306D01*
X143616192Y-97481302D01*
X143446384Y-97390538D01*
X143262126Y-97334643D01*
X143070500Y-97315770D01*
X142878873Y-97334643D01*
X142694615Y-97390538D01*
X142524807Y-97481302D01*
X142524800Y-97481306D01*
X142375958Y-97603458D01*
X142253806Y-97752300D01*
X142253802Y-97752307D01*
X142163038Y-97922115D01*
X142107143Y-98106373D01*
X142088270Y-98298000D01*
X142107143Y-98489626D01*
X142163038Y-98673884D01*
X142253802Y-98843692D01*
X142253806Y-98843699D01*
X142375958Y-98992541D01*
X142524800Y-99114693D01*
X142524807Y-99114697D01*
X142690179Y-99203090D01*
X142694617Y-99205462D01*
X142752755Y-99223098D01*
X142826074Y-99245340D01*
X142884512Y-99283637D01*
X142912969Y-99347450D01*
X142902408Y-99416517D01*
X142856183Y-99468910D01*
X142790078Y-99488000D01*
X142172655Y-99488000D01*
X142113127Y-99494401D01*
X142113120Y-99494403D01*
X141978413Y-99544645D01*
X141978406Y-99544649D01*
X141863312Y-99630809D01*
X141863309Y-99630812D01*
X141777149Y-99745906D01*
X141777145Y-99745913D01*
X141726903Y-99880620D01*
X141726901Y-99880627D01*
X141720500Y-99940155D01*
X141720500Y-100588000D01*
X142624928Y-100588000D01*
X142601818Y-100623960D01*
X142560500Y-100764673D01*
X142560500Y-100911327D01*
X142601818Y-101052040D01*
X142624928Y-101088000D01*
X141720500Y-101088000D01*
X141720500Y-101735844D01*
X136227661Y-101735844D01*
X136180373Y-101643034D01*
X136100965Y-101563626D01*
X136000909Y-101512646D01*
X135890002Y-101495081D01*
X135889998Y-101495081D01*
X135779090Y-101512646D01*
X135679034Y-101563626D01*
X135599626Y-101643034D01*
X135548646Y-101743090D01*
X135531081Y-101853997D01*
X135531081Y-101854003D01*
X135548489Y-101963918D01*
X135539534Y-102033211D01*
X135494538Y-102086663D01*
X135427786Y-102107302D01*
X135360472Y-102088577D01*
X135340882Y-102073019D01*
X135338966Y-102071627D01*
X135238909Y-102020646D01*
X135128002Y-102003081D01*
X135127998Y-102003081D01*
X135017090Y-102020646D01*
X134917034Y-102071626D01*
X134837626Y-102151034D01*
X134786646Y-102251090D01*
X134769081Y-102361997D01*
X134769081Y-102362002D01*
X125462949Y-102362002D01*
X125448031Y-102328550D01*
X125458592Y-102259483D01*
X125504817Y-102207090D01*
X125570922Y-102188000D01*
X126188328Y-102188000D01*
X126188344Y-102187999D01*
X126247872Y-102181598D01*
X126247879Y-102181596D01*
X126382586Y-102131354D01*
X126382593Y-102131350D01*
X126497687Y-102045190D01*
X126497690Y-102045187D01*
X126583850Y-101930093D01*
X126583854Y-101930086D01*
X126634096Y-101795379D01*
X126634098Y-101795372D01*
X126640499Y-101735844D01*
X126640500Y-101735827D01*
X126640500Y-101473002D01*
X129689081Y-101473002D01*
X129706646Y-101583909D01*
X129757626Y-101683965D01*
X129837034Y-101763373D01*
X129937090Y-101814353D01*
X130047998Y-101831919D01*
X130048000Y-101831919D01*
X130048002Y-101831919D01*
X130158909Y-101814353D01*
X130158910Y-101814352D01*
X130158912Y-101814352D01*
X130258967Y-101763372D01*
X130338372Y-101683967D01*
X130389352Y-101583912D01*
X130389352Y-101583910D01*
X130389353Y-101583909D01*
X130406919Y-101473002D01*
X130406919Y-101472997D01*
X130389353Y-101362090D01*
X130338373Y-101262034D01*
X130258965Y-101182626D01*
X130158909Y-101131646D01*
X130048002Y-101114081D01*
X130047998Y-101114081D01*
X129937090Y-101131646D01*
X129837034Y-101182626D01*
X129757626Y-101262034D01*
X129706646Y-101362090D01*
X129689081Y-101472997D01*
X129689081Y-101473002D01*
X126640500Y-101473002D01*
X126640500Y-101092002D01*
X136801081Y-101092002D01*
X136818646Y-101202909D01*
X136869626Y-101302965D01*
X136949034Y-101382373D01*
X137049090Y-101433353D01*
X137159998Y-101450919D01*
X137160000Y-101450919D01*
X137160002Y-101450919D01*
X137270909Y-101433353D01*
X137270910Y-101433352D01*
X137270912Y-101433352D01*
X137370967Y-101382372D01*
X137450372Y-101302967D01*
X137501352Y-101202912D01*
X137501352Y-101202910D01*
X137501353Y-101202909D01*
X137518919Y-101092002D01*
X137518919Y-101091997D01*
X137501353Y-100981090D01*
X137450373Y-100881034D01*
X137370965Y-100801626D01*
X137270909Y-100750646D01*
X137160002Y-100733081D01*
X137159998Y-100733081D01*
X137049090Y-100750646D01*
X136949034Y-100801626D01*
X136869626Y-100881034D01*
X136818646Y-100981090D01*
X136801081Y-101091997D01*
X136801081Y-101092002D01*
X126640500Y-101092002D01*
X126640500Y-101088000D01*
X125736072Y-101088000D01*
X125759182Y-101052040D01*
X125800500Y-100911327D01*
X125800500Y-100764673D01*
X125784740Y-100711002D01*
X140230081Y-100711002D01*
X140247646Y-100821909D01*
X140298626Y-100921965D01*
X140378034Y-101001373D01*
X140478090Y-101052353D01*
X140588998Y-101069919D01*
X140589000Y-101069919D01*
X140589002Y-101069919D01*
X140699909Y-101052353D01*
X140699910Y-101052352D01*
X140699912Y-101052352D01*
X140799967Y-101001372D01*
X140879372Y-100921967D01*
X140930352Y-100821912D01*
X140930352Y-100821910D01*
X140930353Y-100821909D01*
X140947919Y-100711002D01*
X140947919Y-100710997D01*
X140930353Y-100600090D01*
X140879373Y-100500034D01*
X140799965Y-100420626D01*
X140699909Y-100369646D01*
X140589002Y-100352081D01*
X140588998Y-100352081D01*
X140478090Y-100369646D01*
X140378034Y-100420626D01*
X140298626Y-100500034D01*
X140247646Y-100600090D01*
X140230081Y-100710997D01*
X140230081Y-100711002D01*
X125784740Y-100711002D01*
X125759182Y-100623960D01*
X125736072Y-100588000D01*
X126640500Y-100588000D01*
X126640500Y-100203002D01*
X127911081Y-100203002D01*
X127928646Y-100313909D01*
X127979626Y-100413965D01*
X128059034Y-100493373D01*
X128159090Y-100544353D01*
X128269998Y-100561919D01*
X128270000Y-100561919D01*
X128270002Y-100561919D01*
X128380909Y-100544353D01*
X128380910Y-100544352D01*
X128380912Y-100544352D01*
X128480967Y-100493372D01*
X128560372Y-100413967D01*
X128611352Y-100313912D01*
X128611352Y-100313910D01*
X128611353Y-100313909D01*
X128628919Y-100203002D01*
X128628919Y-100202997D01*
X128611353Y-100092090D01*
X128560373Y-99992034D01*
X128517341Y-99949002D01*
X135658081Y-99949002D01*
X135675646Y-100059909D01*
X135726626Y-100159965D01*
X135806034Y-100239373D01*
X135906090Y-100290353D01*
X136016998Y-100307919D01*
X136017000Y-100307919D01*
X136017002Y-100307919D01*
X136127909Y-100290353D01*
X136127910Y-100290352D01*
X136127912Y-100290352D01*
X136227967Y-100239372D01*
X136307372Y-100159967D01*
X136358352Y-100059912D01*
X136358352Y-100059910D01*
X136358353Y-100059909D01*
X136375919Y-99949002D01*
X136375919Y-99948997D01*
X136358353Y-99838090D01*
X136307373Y-99738034D01*
X136227965Y-99658626D01*
X136127909Y-99607646D01*
X136017002Y-99590081D01*
X136016998Y-99590081D01*
X135906090Y-99607646D01*
X135806034Y-99658626D01*
X135726626Y-99738034D01*
X135675646Y-99838090D01*
X135658081Y-99948997D01*
X135658081Y-99949002D01*
X128517341Y-99949002D01*
X128480965Y-99912626D01*
X128380909Y-99861646D01*
X128270002Y-99844081D01*
X128269998Y-99844081D01*
X128159090Y-99861646D01*
X128059034Y-99912626D01*
X127979626Y-99992034D01*
X127928646Y-100092090D01*
X127911081Y-100202997D01*
X127911081Y-100203002D01*
X126640500Y-100203002D01*
X126640500Y-99940172D01*
X126640499Y-99940155D01*
X126634098Y-99880627D01*
X126634096Y-99880620D01*
X126583854Y-99745913D01*
X126583850Y-99745906D01*
X126497690Y-99630812D01*
X126497687Y-99630809D01*
X126382593Y-99544649D01*
X126382586Y-99544645D01*
X126247879Y-99494403D01*
X126247872Y-99494401D01*
X126188344Y-99488000D01*
X125570922Y-99488000D01*
X125503883Y-99468315D01*
X125480216Y-99441002D01*
X132610081Y-99441002D01*
X132627646Y-99551909D01*
X132678626Y-99651965D01*
X132758034Y-99731373D01*
X132858090Y-99782353D01*
X132968998Y-99799919D01*
X132969000Y-99799919D01*
X132969002Y-99799919D01*
X133079909Y-99782353D01*
X133079910Y-99782352D01*
X133079912Y-99782352D01*
X133179967Y-99731372D01*
X133259372Y-99651967D01*
X133310352Y-99551912D01*
X133310352Y-99551910D01*
X133310353Y-99551909D01*
X133327919Y-99441002D01*
X133327919Y-99440997D01*
X133310352Y-99330089D01*
X133307338Y-99320812D01*
X133311087Y-99319593D01*
X133310042Y-99314002D01*
X138452081Y-99314002D01*
X138469646Y-99424909D01*
X138520626Y-99524965D01*
X138600034Y-99604373D01*
X138700090Y-99655353D01*
X138810998Y-99672919D01*
X138811000Y-99672919D01*
X138811002Y-99672919D01*
X138921909Y-99655353D01*
X138921910Y-99655352D01*
X138921912Y-99655352D01*
X139021967Y-99604372D01*
X139101372Y-99524967D01*
X139152352Y-99424912D01*
X139152352Y-99424910D01*
X139152353Y-99424909D01*
X139169919Y-99314002D01*
X139169919Y-99313997D01*
X139152353Y-99203090D01*
X139101373Y-99103034D01*
X139021965Y-99023626D01*
X138921909Y-98972646D01*
X138811002Y-98955081D01*
X138810998Y-98955081D01*
X138700090Y-98972646D01*
X138600034Y-99023626D01*
X138520626Y-99103034D01*
X138469646Y-99203090D01*
X138452081Y-99313997D01*
X138452081Y-99314002D01*
X133310042Y-99314002D01*
X133301776Y-99269767D01*
X133328110Y-99205050D01*
X133385252Y-99164844D01*
X133444543Y-99159778D01*
X133477000Y-99164919D01*
X133477000Y-99164918D01*
X133477001Y-99164919D01*
X133477002Y-99164919D01*
X133587909Y-99147353D01*
X133587910Y-99147352D01*
X133587912Y-99147352D01*
X133687967Y-99096372D01*
X133767372Y-99016967D01*
X133818352Y-98916912D01*
X133818352Y-98916910D01*
X133818353Y-98916909D01*
X133835919Y-98806002D01*
X133835919Y-98805997D01*
X133818353Y-98695090D01*
X133767373Y-98595034D01*
X133687965Y-98515626D01*
X133587909Y-98464646D01*
X133477002Y-98447081D01*
X133476998Y-98447081D01*
X133366090Y-98464646D01*
X133266034Y-98515626D01*
X133186626Y-98595034D01*
X133135646Y-98695090D01*
X133118081Y-98805997D01*
X133118081Y-98806002D01*
X133135647Y-98916910D01*
X133138662Y-98926188D01*
X133134936Y-98927398D01*
X133144202Y-98977436D01*
X133117761Y-99042109D01*
X133060553Y-99082221D01*
X133001455Y-99087221D01*
X132969002Y-99082081D01*
X132968998Y-99082081D01*
X132858090Y-99099646D01*
X132758034Y-99150626D01*
X132678626Y-99230034D01*
X132627646Y-99330090D01*
X132610081Y-99440997D01*
X132610081Y-99441002D01*
X125480216Y-99441002D01*
X125458128Y-99415511D01*
X125448184Y-99346353D01*
X125477209Y-99282797D01*
X125534926Y-99245340D01*
X125589594Y-99228755D01*
X125666383Y-99205462D01*
X125836198Y-99114694D01*
X125985041Y-98992541D01*
X126107194Y-98843698D01*
X126197962Y-98673883D01*
X126253857Y-98489624D01*
X126272730Y-98298000D01*
X126260222Y-98171002D01*
X127276081Y-98171002D01*
X127293646Y-98281909D01*
X127344626Y-98381965D01*
X127424034Y-98461373D01*
X127524090Y-98512353D01*
X127596277Y-98523785D01*
X127635000Y-98529919D01*
X127643565Y-98528562D01*
X127712856Y-98537515D01*
X127766309Y-98582509D01*
X127786951Y-98649260D01*
X127785438Y-98670429D01*
X127784081Y-98678998D01*
X127784081Y-98679002D01*
X127801646Y-98789909D01*
X127852626Y-98889965D01*
X127932034Y-98969373D01*
X128032090Y-99020353D01*
X128142998Y-99037919D01*
X128143000Y-99037919D01*
X128143002Y-99037919D01*
X128253909Y-99020353D01*
X128253910Y-99020352D01*
X128253912Y-99020352D01*
X128353967Y-98969372D01*
X128433372Y-98889967D01*
X128484352Y-98789912D01*
X128484352Y-98789910D01*
X128484353Y-98789909D01*
X128501919Y-98679002D01*
X128501919Y-98678997D01*
X128484353Y-98568090D01*
X128433373Y-98468034D01*
X128353965Y-98388626D01*
X128253909Y-98337646D01*
X128143002Y-98320081D01*
X128142998Y-98320081D01*
X128134429Y-98321438D01*
X128065136Y-98312481D01*
X128011685Y-98267483D01*
X127991048Y-98200731D01*
X127992561Y-98179572D01*
X127993919Y-98171000D01*
X127987323Y-98129352D01*
X127976353Y-98060090D01*
X127925373Y-97960034D01*
X127845965Y-97880626D01*
X127745909Y-97829646D01*
X127635002Y-97812081D01*
X127634998Y-97812081D01*
X127524090Y-97829646D01*
X127424034Y-97880626D01*
X127344626Y-97960034D01*
X127293646Y-98060090D01*
X127276081Y-98170997D01*
X127276081Y-98171002D01*
X126260222Y-98171002D01*
X126253857Y-98106376D01*
X126197962Y-97922117D01*
X126175785Y-97880626D01*
X126127345Y-97790002D01*
X133499081Y-97790002D01*
X133516646Y-97900909D01*
X133567626Y-98000965D01*
X133647034Y-98080373D01*
X133747090Y-98131353D01*
X133857998Y-98148919D01*
X133858000Y-98148919D01*
X133858002Y-98148919D01*
X133968909Y-98131353D01*
X133968910Y-98131352D01*
X133968912Y-98131352D01*
X134068967Y-98080372D01*
X134148372Y-98000967D01*
X134199352Y-97900912D01*
X134199352Y-97900910D01*
X134199353Y-97900909D01*
X134208365Y-97844009D01*
X134234915Y-97788002D01*
X139468081Y-97788002D01*
X139485646Y-97898909D01*
X139536626Y-97998965D01*
X139616034Y-98078373D01*
X139716090Y-98129353D01*
X139826998Y-98146919D01*
X139827000Y-98146919D01*
X139827002Y-98146919D01*
X139937909Y-98129353D01*
X139937910Y-98129352D01*
X139937912Y-98129352D01*
X140037967Y-98078372D01*
X140117372Y-97998967D01*
X140168352Y-97898912D01*
X140168352Y-97898910D01*
X140168353Y-97898909D01*
X140185919Y-97788002D01*
X140185919Y-97787997D01*
X140168353Y-97677090D01*
X140117373Y-97577034D01*
X140037965Y-97497626D01*
X139937909Y-97446646D01*
X139827002Y-97429081D01*
X139826998Y-97429081D01*
X139716090Y-97446646D01*
X139616034Y-97497626D01*
X139536626Y-97577034D01*
X139485646Y-97677090D01*
X139468081Y-97787997D01*
X139468081Y-97788002D01*
X134234915Y-97788002D01*
X134238294Y-97780874D01*
X134297605Y-97743942D01*
X134367468Y-97744940D01*
X134375634Y-97748255D01*
X134382086Y-97750351D01*
X134382088Y-97750352D01*
X134419058Y-97756207D01*
X134492998Y-97767919D01*
X134493000Y-97767919D01*
X134493002Y-97767919D01*
X134603909Y-97750353D01*
X134603910Y-97750352D01*
X134603912Y-97750352D01*
X134703967Y-97699372D01*
X134783372Y-97619967D01*
X134834352Y-97519912D01*
X134834352Y-97519910D01*
X134834353Y-97519909D01*
X134851919Y-97409002D01*
X134851919Y-97408997D01*
X134834353Y-97298090D01*
X134783373Y-97198034D01*
X134703965Y-97118626D01*
X134603909Y-97067646D01*
X134493002Y-97050081D01*
X134492998Y-97050081D01*
X134382090Y-97067646D01*
X134282034Y-97118626D01*
X134202626Y-97198034D01*
X134151647Y-97298090D01*
X134142634Y-97354992D01*
X134112704Y-97418127D01*
X134053392Y-97455057D01*
X133983529Y-97454059D01*
X133975361Y-97450743D01*
X133968910Y-97448647D01*
X133858002Y-97431081D01*
X133857998Y-97431081D01*
X133747090Y-97448646D01*
X133647034Y-97499626D01*
X133567626Y-97579034D01*
X133516646Y-97679090D01*
X133499081Y-97789997D01*
X133499081Y-97790002D01*
X126127345Y-97790002D01*
X126107197Y-97752307D01*
X126107193Y-97752300D01*
X125985041Y-97603458D01*
X125836199Y-97481306D01*
X125836192Y-97481302D01*
X125666384Y-97390538D01*
X125482126Y-97334643D01*
X125290500Y-97315770D01*
X125098873Y-97334643D01*
X124914615Y-97390538D01*
X124744807Y-97481302D01*
X124744800Y-97481306D01*
X124595958Y-97603458D01*
X124473806Y-97752300D01*
X124473802Y-97752307D01*
X124383038Y-97922115D01*
X124327143Y-98106373D01*
X124308270Y-98297999D01*
X124327143Y-98489626D01*
X124383038Y-98673884D01*
X124473802Y-98843692D01*
X124473806Y-98843699D01*
X124595958Y-98992541D01*
X124744800Y-99114693D01*
X124744807Y-99114697D01*
X124910179Y-99203090D01*
X124914617Y-99205462D01*
X124972755Y-99223098D01*
X125046074Y-99245340D01*
X125104512Y-99283637D01*
X125132969Y-99347450D01*
X125122408Y-99416517D01*
X125076183Y-99468910D01*
X125010078Y-99488000D01*
X124392655Y-99488000D01*
X124333127Y-99494401D01*
X124333120Y-99494403D01*
X124198413Y-99544645D01*
X124198406Y-99544649D01*
X124083312Y-99630809D01*
X124083309Y-99630812D01*
X123997149Y-99745906D01*
X123997145Y-99745913D01*
X123946903Y-99880620D01*
X123946901Y-99880627D01*
X123940500Y-99940155D01*
X123940500Y-100588000D01*
X124844928Y-100588000D01*
X124821818Y-100623960D01*
X124780500Y-100764673D01*
X124780500Y-100911327D01*
X124821818Y-101052040D01*
X124844928Y-101088000D01*
X123940500Y-101088000D01*
X123940500Y-101735844D01*
X120904000Y-101735844D01*
X120904000Y-100838002D01*
X122069081Y-100838002D01*
X122086646Y-100948909D01*
X122137626Y-101048965D01*
X122217034Y-101128373D01*
X122317090Y-101179353D01*
X122427998Y-101196919D01*
X122428000Y-101196919D01*
X122428002Y-101196919D01*
X122538909Y-101179353D01*
X122538910Y-101179352D01*
X122538912Y-101179352D01*
X122638967Y-101128372D01*
X122718372Y-101048967D01*
X122769352Y-100948912D01*
X122769352Y-100948910D01*
X122769353Y-100948909D01*
X122786919Y-100838002D01*
X122786919Y-100837997D01*
X122769353Y-100727090D01*
X122718373Y-100627034D01*
X122638965Y-100547626D01*
X122538909Y-100496646D01*
X122428002Y-100479081D01*
X122427998Y-100479081D01*
X122317090Y-100496646D01*
X122217034Y-100547626D01*
X122137626Y-100627034D01*
X122086646Y-100727090D01*
X122069081Y-100837997D01*
X122069081Y-100838002D01*
X120904000Y-100838002D01*
X120904000Y-97282002D01*
X123339081Y-97282002D01*
X123356646Y-97392909D01*
X123407626Y-97492965D01*
X123487034Y-97572373D01*
X123587090Y-97623353D01*
X123697998Y-97640919D01*
X123698000Y-97640919D01*
X123698002Y-97640919D01*
X123808909Y-97623353D01*
X123808910Y-97623352D01*
X123808912Y-97623352D01*
X123908967Y-97572372D01*
X123988372Y-97492967D01*
X124039352Y-97392912D01*
X124039352Y-97392910D01*
X124039353Y-97392909D01*
X124056919Y-97282002D01*
X124056919Y-97281997D01*
X124039352Y-97171089D01*
X124036338Y-97161812D01*
X124040087Y-97160593D01*
X124030776Y-97110767D01*
X124057110Y-97046050D01*
X124114252Y-97005844D01*
X124173543Y-97000778D01*
X124206000Y-97005919D01*
X124206000Y-97005918D01*
X124206001Y-97005919D01*
X124206002Y-97005919D01*
X124316909Y-96988353D01*
X124316910Y-96988352D01*
X124316912Y-96988352D01*
X124416967Y-96937372D01*
X124496372Y-96857967D01*
X124547352Y-96757912D01*
X124562260Y-96663787D01*
X124592187Y-96600657D01*
X124651499Y-96563725D01*
X124721361Y-96564723D01*
X124743185Y-96573831D01*
X124914615Y-96665461D01*
X124914617Y-96665462D01*
X125098876Y-96721357D01*
X125290500Y-96740230D01*
X125482124Y-96721357D01*
X125666383Y-96665462D01*
X125836198Y-96574694D01*
X125985041Y-96452541D01*
X126033904Y-96393002D01*
X127784081Y-96393002D01*
X127801646Y-96503909D01*
X127852626Y-96603965D01*
X127932034Y-96683373D01*
X128032090Y-96734353D01*
X128142998Y-96751919D01*
X128143000Y-96751919D01*
X128143002Y-96751919D01*
X128253909Y-96734353D01*
X128253910Y-96734352D01*
X128253912Y-96734352D01*
X128353967Y-96683372D01*
X128433372Y-96603967D01*
X128484352Y-96503912D01*
X128484352Y-96503910D01*
X128484353Y-96503909D01*
X128501919Y-96393002D01*
X128501919Y-96392997D01*
X128484353Y-96282090D01*
X128433373Y-96182034D01*
X128353965Y-96102626D01*
X128253909Y-96051646D01*
X128143002Y-96034081D01*
X128142998Y-96034081D01*
X128032090Y-96051646D01*
X127932034Y-96102626D01*
X127852626Y-96182034D01*
X127801646Y-96282090D01*
X127784081Y-96392997D01*
X127784081Y-96393002D01*
X126033904Y-96393002D01*
X126107194Y-96303698D01*
X126197962Y-96133883D01*
X126253857Y-95949624D01*
X126260222Y-95885002D01*
X129689081Y-95885002D01*
X129706646Y-95995909D01*
X129757626Y-96095965D01*
X129837034Y-96175373D01*
X129937090Y-96226353D01*
X130047998Y-96243919D01*
X130048000Y-96243919D01*
X130048002Y-96243919D01*
X130158909Y-96226353D01*
X130158910Y-96226352D01*
X130158912Y-96226352D01*
X130258967Y-96175372D01*
X130295337Y-96139002D01*
X131975081Y-96139002D01*
X131992646Y-96249909D01*
X132043626Y-96349965D01*
X132123034Y-96429373D01*
X132223090Y-96480353D01*
X132333998Y-96497919D01*
X132334000Y-96497919D01*
X132334002Y-96497919D01*
X132444909Y-96480353D01*
X132444910Y-96480352D01*
X132444912Y-96480352D01*
X132544967Y-96429372D01*
X132624372Y-96349967D01*
X132675352Y-96249912D01*
X132675352Y-96249910D01*
X132675353Y-96249909D01*
X132692919Y-96139002D01*
X137817081Y-96139002D01*
X137834646Y-96249909D01*
X137885626Y-96349965D01*
X137965034Y-96429373D01*
X138065090Y-96480353D01*
X138175998Y-96497919D01*
X138176000Y-96497919D01*
X138176002Y-96497919D01*
X138286909Y-96480353D01*
X138286910Y-96480352D01*
X138286912Y-96480352D01*
X138386967Y-96429372D01*
X138466372Y-96349967D01*
X138517352Y-96249912D01*
X138517352Y-96249910D01*
X138517353Y-96249909D01*
X138534919Y-96139002D01*
X138534919Y-96138997D01*
X138517353Y-96028090D01*
X138466373Y-95928034D01*
X138386965Y-95848626D01*
X138286909Y-95797646D01*
X138176002Y-95780081D01*
X138175998Y-95780081D01*
X138065090Y-95797646D01*
X137965034Y-95848626D01*
X137885626Y-95928034D01*
X137834646Y-96028090D01*
X137817081Y-96138997D01*
X137817081Y-96139002D01*
X132692919Y-96139002D01*
X132692919Y-96138997D01*
X132675353Y-96028090D01*
X132624373Y-95928034D01*
X132544965Y-95848626D01*
X132444909Y-95797646D01*
X132334002Y-95780081D01*
X132333998Y-95780081D01*
X132223090Y-95797646D01*
X132123034Y-95848626D01*
X132043626Y-95928034D01*
X131992646Y-96028090D01*
X131975081Y-96138997D01*
X131975081Y-96139002D01*
X130295337Y-96139002D01*
X130338372Y-96095967D01*
X130389352Y-95995912D01*
X130389352Y-95995910D01*
X130389353Y-95995909D01*
X130406919Y-95885002D01*
X130406919Y-95884997D01*
X130389353Y-95774090D01*
X130381154Y-95757999D01*
X142088270Y-95757999D01*
X142107143Y-95949626D01*
X142163038Y-96133884D01*
X142253802Y-96303692D01*
X142253806Y-96303699D01*
X142375958Y-96452541D01*
X142524800Y-96574693D01*
X142524807Y-96574697D01*
X142660071Y-96646997D01*
X142694617Y-96665462D01*
X142878876Y-96721357D01*
X143070500Y-96740230D01*
X143262124Y-96721357D01*
X143446383Y-96665462D01*
X143616198Y-96574694D01*
X143765041Y-96452541D01*
X143887194Y-96303698D01*
X143977962Y-96133883D01*
X144033857Y-95949624D01*
X144052730Y-95758000D01*
X144033857Y-95566376D01*
X143977962Y-95382117D01*
X143977961Y-95382115D01*
X143887197Y-95212307D01*
X143887193Y-95212300D01*
X143765041Y-95063458D01*
X143616199Y-94941306D01*
X143616192Y-94941302D01*
X143446384Y-94850538D01*
X143262126Y-94794643D01*
X143070500Y-94775770D01*
X142878873Y-94794643D01*
X142694615Y-94850538D01*
X142524807Y-94941302D01*
X142524800Y-94941306D01*
X142375958Y-95063458D01*
X142253806Y-95212300D01*
X142253802Y-95212307D01*
X142163038Y-95382115D01*
X142107143Y-95566373D01*
X142088270Y-95757999D01*
X130381154Y-95757999D01*
X130338373Y-95674034D01*
X130258965Y-95594626D01*
X130158909Y-95543646D01*
X130048002Y-95526081D01*
X130047998Y-95526081D01*
X129937090Y-95543646D01*
X129837034Y-95594626D01*
X129757626Y-95674034D01*
X129706646Y-95774090D01*
X129689081Y-95884997D01*
X129689081Y-95885002D01*
X126260222Y-95885002D01*
X126272730Y-95758000D01*
X126253857Y-95566376D01*
X126197962Y-95382117D01*
X126197961Y-95382115D01*
X126107197Y-95212307D01*
X126107193Y-95212300D01*
X125985041Y-95063458D01*
X125836199Y-94941306D01*
X125836192Y-94941302D01*
X125700928Y-94869002D01*
X132229081Y-94869002D01*
X132246646Y-94979909D01*
X132297626Y-95079965D01*
X132377034Y-95159373D01*
X132477090Y-95210353D01*
X132587998Y-95227919D01*
X132588000Y-95227919D01*
X132588002Y-95227919D01*
X132698909Y-95210353D01*
X132698910Y-95210352D01*
X132698912Y-95210352D01*
X132798967Y-95159372D01*
X132878372Y-95079967D01*
X132929352Y-94979912D01*
X132929352Y-94979910D01*
X132929353Y-94979909D01*
X132946919Y-94869002D01*
X132946919Y-94868997D01*
X132929510Y-94759082D01*
X132938465Y-94689788D01*
X132983461Y-94636337D01*
X133050212Y-94615697D01*
X133117526Y-94634422D01*
X133137119Y-94649981D01*
X133139033Y-94651372D01*
X133214429Y-94689788D01*
X133239090Y-94702353D01*
X133349998Y-94719919D01*
X133350000Y-94719919D01*
X133350002Y-94719919D01*
X133460909Y-94702353D01*
X133460910Y-94702352D01*
X133460912Y-94702352D01*
X133560967Y-94651372D01*
X133640372Y-94571967D01*
X133691352Y-94471912D01*
X133691352Y-94471910D01*
X133691353Y-94471909D01*
X133708919Y-94361002D01*
X139722081Y-94361002D01*
X139739646Y-94471909D01*
X139790626Y-94571965D01*
X139870034Y-94651373D01*
X139970090Y-94702353D01*
X140080998Y-94719919D01*
X140081000Y-94719919D01*
X140081002Y-94719919D01*
X140191909Y-94702353D01*
X140191910Y-94702352D01*
X140191912Y-94702352D01*
X140291967Y-94651372D01*
X140371372Y-94571967D01*
X140422352Y-94471912D01*
X140422352Y-94471910D01*
X140422353Y-94471909D01*
X140439919Y-94361002D01*
X140439919Y-94360997D01*
X140422353Y-94250090D01*
X140371373Y-94150034D01*
X140291965Y-94070626D01*
X140191909Y-94019646D01*
X140081002Y-94002081D01*
X140080998Y-94002081D01*
X139970090Y-94019646D01*
X139870034Y-94070626D01*
X139790626Y-94150034D01*
X139739646Y-94250090D01*
X139722081Y-94360997D01*
X139722081Y-94361002D01*
X133708919Y-94361002D01*
X133708919Y-94360997D01*
X133691353Y-94250090D01*
X133640373Y-94150034D01*
X133560965Y-94070626D01*
X133460909Y-94019646D01*
X133350002Y-94002081D01*
X133349998Y-94002081D01*
X133239090Y-94019646D01*
X133139034Y-94070626D01*
X133059626Y-94150034D01*
X133008646Y-94250090D01*
X132991081Y-94360997D01*
X132991081Y-94361003D01*
X133008489Y-94470918D01*
X132999534Y-94540211D01*
X132954538Y-94593663D01*
X132887786Y-94614302D01*
X132820472Y-94595577D01*
X132800882Y-94580019D01*
X132798966Y-94578627D01*
X132698909Y-94527646D01*
X132588002Y-94510081D01*
X132587998Y-94510081D01*
X132477090Y-94527646D01*
X132377034Y-94578626D01*
X132297626Y-94658034D01*
X132246646Y-94758090D01*
X132229081Y-94868997D01*
X132229081Y-94869002D01*
X125700928Y-94869002D01*
X125666384Y-94850538D01*
X125482126Y-94794643D01*
X125290500Y-94775770D01*
X125098873Y-94794643D01*
X124914615Y-94850538D01*
X124744807Y-94941302D01*
X124744800Y-94941306D01*
X124595958Y-95063458D01*
X124473806Y-95212300D01*
X124473802Y-95212307D01*
X124383038Y-95382115D01*
X124327143Y-95566373D01*
X124308270Y-95757999D01*
X124327142Y-95949622D01*
X124383644Y-96135882D01*
X124384267Y-96205749D01*
X124347019Y-96264861D01*
X124283725Y-96294452D01*
X124245586Y-96294350D01*
X124206003Y-96288081D01*
X124205998Y-96288081D01*
X124095090Y-96305646D01*
X123995034Y-96356626D01*
X123915626Y-96436034D01*
X123864646Y-96536090D01*
X123847081Y-96646997D01*
X123847081Y-96647002D01*
X123864647Y-96757910D01*
X123867662Y-96767188D01*
X123863936Y-96768398D01*
X123873202Y-96818436D01*
X123846761Y-96883109D01*
X123789553Y-96923221D01*
X123730455Y-96928221D01*
X123698002Y-96923081D01*
X123697998Y-96923081D01*
X123587090Y-96940646D01*
X123487034Y-96991626D01*
X123407626Y-97071034D01*
X123356646Y-97171090D01*
X123339081Y-97281997D01*
X123339081Y-97282002D01*
X120904000Y-97282002D01*
X120904000Y-93218000D01*
X124308270Y-93218000D01*
X124327143Y-93409626D01*
X124383038Y-93593884D01*
X124473802Y-93763692D01*
X124473806Y-93763699D01*
X124595958Y-93912541D01*
X124744800Y-94034693D01*
X124744807Y-94034697D01*
X124914615Y-94125461D01*
X124914617Y-94125462D01*
X125098876Y-94181357D01*
X125290500Y-94200230D01*
X125482124Y-94181357D01*
X125666383Y-94125462D01*
X125836198Y-94034694D01*
X125985041Y-93912541D01*
X126107194Y-93763698D01*
X126197962Y-93593883D01*
X126253857Y-93409624D01*
X126272730Y-93218000D01*
X126260222Y-93091002D01*
X135531081Y-93091002D01*
X135548646Y-93201909D01*
X135599626Y-93301965D01*
X135599628Y-93301967D01*
X135679033Y-93381372D01*
X135731169Y-93407936D01*
X135781966Y-93455910D01*
X135798762Y-93523731D01*
X135776226Y-93589866D01*
X135762558Y-93606102D01*
X135726626Y-93642034D01*
X135675646Y-93742090D01*
X135658081Y-93852997D01*
X135658081Y-93853002D01*
X135675646Y-93963909D01*
X135726626Y-94063965D01*
X135806034Y-94143373D01*
X135906090Y-94194353D01*
X136016998Y-94211919D01*
X136017000Y-94211919D01*
X136017002Y-94211919D01*
X136127909Y-94194353D01*
X136127910Y-94194352D01*
X136127912Y-94194352D01*
X136227967Y-94143372D01*
X136307372Y-94063967D01*
X136358352Y-93963912D01*
X136358352Y-93963910D01*
X136358353Y-93963909D01*
X136375919Y-93853002D01*
X136375919Y-93852997D01*
X136358353Y-93742090D01*
X136307373Y-93642034D01*
X136227965Y-93562626D01*
X136175829Y-93536062D01*
X136125033Y-93488088D01*
X136121049Y-93472002D01*
X138833081Y-93472002D01*
X138850646Y-93582909D01*
X138901626Y-93682965D01*
X138981034Y-93762373D01*
X139081090Y-93813353D01*
X139191998Y-93830919D01*
X139192000Y-93830919D01*
X139192002Y-93830919D01*
X139302909Y-93813353D01*
X139302910Y-93813352D01*
X139302912Y-93813352D01*
X139402967Y-93762372D01*
X139482372Y-93682967D01*
X139533352Y-93582912D01*
X139533352Y-93582910D01*
X139533353Y-93582909D01*
X139550919Y-93472002D01*
X139550919Y-93471997D01*
X139533353Y-93361090D01*
X139482373Y-93261034D01*
X139402965Y-93181626D01*
X139302909Y-93130646D01*
X139192002Y-93113081D01*
X139191998Y-93113081D01*
X139081090Y-93130646D01*
X138981034Y-93181626D01*
X138901626Y-93261034D01*
X138850646Y-93361090D01*
X138833081Y-93471997D01*
X138833081Y-93472002D01*
X136121049Y-93472002D01*
X136108237Y-93420267D01*
X136130774Y-93354132D01*
X136144437Y-93337901D01*
X136180372Y-93301967D01*
X136231352Y-93201912D01*
X136231352Y-93201910D01*
X136231353Y-93201909D01*
X136248919Y-93091002D01*
X136248919Y-93090997D01*
X136231353Y-92980090D01*
X136223156Y-92964002D01*
X139849081Y-92964002D01*
X139866646Y-93074909D01*
X139917626Y-93174965D01*
X139997034Y-93254373D01*
X140097090Y-93305353D01*
X140207998Y-93322919D01*
X140208000Y-93322919D01*
X140208002Y-93322919D01*
X140318909Y-93305353D01*
X140318910Y-93305352D01*
X140318912Y-93305352D01*
X140418967Y-93254372D01*
X140455339Y-93218000D01*
X142088270Y-93218000D01*
X142107143Y-93409626D01*
X142163038Y-93593884D01*
X142253802Y-93763692D01*
X142253806Y-93763699D01*
X142375958Y-93912541D01*
X142524800Y-94034693D01*
X142524807Y-94034697D01*
X142694615Y-94125461D01*
X142694617Y-94125462D01*
X142878876Y-94181357D01*
X143070500Y-94200230D01*
X143262124Y-94181357D01*
X143446383Y-94125462D01*
X143616198Y-94034694D01*
X143765041Y-93912541D01*
X143887194Y-93763698D01*
X143977962Y-93593883D01*
X144033857Y-93409624D01*
X144052730Y-93218000D01*
X144033857Y-93026376D01*
X143977962Y-92842117D01*
X143930346Y-92753033D01*
X143887197Y-92672307D01*
X143887193Y-92672300D01*
X143765041Y-92523458D01*
X143616199Y-92401306D01*
X143616192Y-92401302D01*
X143446384Y-92310538D01*
X143262126Y-92254643D01*
X143070500Y-92235770D01*
X142878873Y-92254643D01*
X142694615Y-92310538D01*
X142524807Y-92401302D01*
X142524800Y-92401306D01*
X142375958Y-92523458D01*
X142253806Y-92672300D01*
X142253802Y-92672307D01*
X142163038Y-92842115D01*
X142107143Y-93026373D01*
X142088270Y-93218000D01*
X140455339Y-93218000D01*
X140498372Y-93174967D01*
X140549352Y-93074912D01*
X140549352Y-93074910D01*
X140549353Y-93074909D01*
X140566919Y-92964002D01*
X140566919Y-92963997D01*
X140549353Y-92853090D01*
X140498373Y-92753034D01*
X140416020Y-92670681D01*
X140382535Y-92609358D01*
X140387519Y-92539666D01*
X140416020Y-92495319D01*
X140418967Y-92492372D01*
X140498372Y-92412967D01*
X140549352Y-92312912D01*
X140549352Y-92312910D01*
X140549353Y-92312909D01*
X140566919Y-92202002D01*
X140566919Y-92201997D01*
X140549353Y-92091090D01*
X140498373Y-91991034D01*
X140418965Y-91911626D01*
X140318909Y-91860646D01*
X140208002Y-91843081D01*
X140207998Y-91843081D01*
X140097090Y-91860646D01*
X139997034Y-91911626D01*
X139917626Y-91991034D01*
X139866646Y-92091090D01*
X139849081Y-92201997D01*
X139849081Y-92202002D01*
X139866646Y-92312909D01*
X139917626Y-92412965D01*
X139999980Y-92495319D01*
X140033465Y-92556642D01*
X140028481Y-92626334D01*
X139999980Y-92670681D01*
X139917626Y-92753034D01*
X139866646Y-92853090D01*
X139849081Y-92963997D01*
X139849081Y-92964002D01*
X136223156Y-92964002D01*
X136180373Y-92880034D01*
X136100965Y-92800626D01*
X136000909Y-92749646D01*
X135890002Y-92732081D01*
X135889998Y-92732081D01*
X135779090Y-92749646D01*
X135679034Y-92800626D01*
X135599626Y-92880034D01*
X135548646Y-92980090D01*
X135531081Y-93090997D01*
X135531081Y-93091002D01*
X126260222Y-93091002D01*
X126253857Y-93026376D01*
X126197962Y-92842117D01*
X126150346Y-92753033D01*
X126107197Y-92672307D01*
X126107193Y-92672300D01*
X125985041Y-92523458D01*
X125836199Y-92401306D01*
X125836192Y-92401302D01*
X125666384Y-92310538D01*
X125482126Y-92254643D01*
X125290500Y-92235770D01*
X125098873Y-92254643D01*
X124914615Y-92310538D01*
X124744807Y-92401302D01*
X124744800Y-92401306D01*
X124595958Y-92523458D01*
X124473806Y-92672300D01*
X124473802Y-92672307D01*
X124383038Y-92842115D01*
X124327143Y-93026373D01*
X124308270Y-93218000D01*
X120904000Y-93218000D01*
X120904000Y-91948002D01*
X135023081Y-91948002D01*
X135040646Y-92058909D01*
X135091626Y-92158965D01*
X135171034Y-92238373D01*
X135271090Y-92289353D01*
X135381998Y-92306919D01*
X135382000Y-92306919D01*
X135382002Y-92306919D01*
X135492909Y-92289353D01*
X135492910Y-92289352D01*
X135492912Y-92289352D01*
X135592967Y-92238372D01*
X135672372Y-92158967D01*
X135723352Y-92058912D01*
X135723352Y-92058910D01*
X135723353Y-92058909D01*
X135740919Y-91948002D01*
X135740919Y-91947997D01*
X135723353Y-91837090D01*
X135672373Y-91737034D01*
X135592965Y-91657626D01*
X135492909Y-91606646D01*
X135382002Y-91589081D01*
X135381998Y-91589081D01*
X135271090Y-91606646D01*
X135171034Y-91657626D01*
X135091626Y-91737034D01*
X135040646Y-91837090D01*
X135023081Y-91947997D01*
X135023081Y-91948002D01*
X120904000Y-91948002D01*
X120904000Y-91357700D01*
X120923685Y-91290661D01*
X120940316Y-91270022D01*
X120940372Y-91269967D01*
X120991352Y-91169912D01*
X120991352Y-91169910D01*
X120991353Y-91169909D01*
X121008919Y-91059002D01*
X121008919Y-91058997D01*
X120991353Y-90948090D01*
X120940373Y-90848034D01*
X120940319Y-90847980D01*
X120940273Y-90847896D01*
X120934639Y-90840142D01*
X120935641Y-90839413D01*
X120906834Y-90786657D01*
X120904000Y-90760299D01*
X120904000Y-89035844D01*
X123940500Y-89035844D01*
X123946901Y-89095372D01*
X123946903Y-89095379D01*
X123997145Y-89230086D01*
X123997149Y-89230093D01*
X124083309Y-89345187D01*
X124083312Y-89345190D01*
X124198406Y-89431350D01*
X124198413Y-89431354D01*
X124333120Y-89481596D01*
X124333127Y-89481598D01*
X124392655Y-89487999D01*
X124392672Y-89488000D01*
X125010078Y-89488000D01*
X125077117Y-89507685D01*
X125122872Y-89560489D01*
X125132816Y-89629647D01*
X125103791Y-89693203D01*
X125046074Y-89730660D01*
X124914615Y-89770538D01*
X124744807Y-89861302D01*
X124744800Y-89861306D01*
X124595958Y-89983458D01*
X124473806Y-90132300D01*
X124473802Y-90132307D01*
X124383038Y-90302115D01*
X124327143Y-90486373D01*
X124308270Y-90677999D01*
X124327143Y-90869626D01*
X124383038Y-91053884D01*
X124473802Y-91223692D01*
X124473806Y-91223699D01*
X124595958Y-91372541D01*
X124744800Y-91494693D01*
X124744807Y-91494697D01*
X124838766Y-91544919D01*
X124914617Y-91585462D01*
X125098876Y-91641357D01*
X125290500Y-91660230D01*
X125482124Y-91641357D01*
X125666383Y-91585462D01*
X125836198Y-91494694D01*
X125985041Y-91372541D01*
X126033904Y-91313002D01*
X129562081Y-91313002D01*
X129579646Y-91423909D01*
X129630626Y-91523965D01*
X129710034Y-91603373D01*
X129810090Y-91654353D01*
X129920998Y-91671919D01*
X129921000Y-91671919D01*
X129921002Y-91671919D01*
X130031909Y-91654353D01*
X130031910Y-91654352D01*
X130031912Y-91654352D01*
X130131967Y-91603372D01*
X130211372Y-91523967D01*
X130262352Y-91423912D01*
X130262352Y-91423910D01*
X130262353Y-91423909D01*
X130279919Y-91313002D01*
X130279919Y-91312997D01*
X130262353Y-91202090D01*
X130254156Y-91186002D01*
X134261081Y-91186002D01*
X134278646Y-91296909D01*
X134329626Y-91396965D01*
X134409034Y-91476373D01*
X134509090Y-91527353D01*
X134619998Y-91544919D01*
X134620000Y-91544919D01*
X134620002Y-91544919D01*
X134730909Y-91527353D01*
X134730910Y-91527352D01*
X134730912Y-91527352D01*
X134830967Y-91476372D01*
X134910372Y-91396967D01*
X134961352Y-91296912D01*
X134961352Y-91296910D01*
X134961353Y-91296909D01*
X134978919Y-91186002D01*
X134978919Y-91185997D01*
X134961353Y-91075090D01*
X134910373Y-90975034D01*
X134830965Y-90895626D01*
X134730909Y-90844646D01*
X134620002Y-90827081D01*
X134619998Y-90827081D01*
X134509090Y-90844646D01*
X134409034Y-90895626D01*
X134329626Y-90975034D01*
X134278646Y-91075090D01*
X134261081Y-91185997D01*
X134261081Y-91186002D01*
X130254156Y-91186002D01*
X130211373Y-91102034D01*
X130131965Y-91022626D01*
X130031909Y-90971646D01*
X129921002Y-90954081D01*
X129920998Y-90954081D01*
X129810090Y-90971646D01*
X129710034Y-91022626D01*
X129630626Y-91102034D01*
X129579646Y-91202090D01*
X129562081Y-91312997D01*
X129562081Y-91313002D01*
X126033904Y-91313002D01*
X126107194Y-91223698D01*
X126197962Y-91053883D01*
X126253857Y-90869624D01*
X126272730Y-90678000D01*
X126260222Y-90551002D01*
X128165081Y-90551002D01*
X128182646Y-90661909D01*
X128233626Y-90761965D01*
X128313034Y-90841373D01*
X128413090Y-90892353D01*
X128523998Y-90909919D01*
X128524000Y-90909919D01*
X128524002Y-90909919D01*
X128634909Y-90892353D01*
X128634910Y-90892352D01*
X128634912Y-90892352D01*
X128734967Y-90841372D01*
X128814372Y-90761967D01*
X128865352Y-90661912D01*
X128865352Y-90661910D01*
X128865353Y-90661909D01*
X128882919Y-90551002D01*
X128882919Y-90550997D01*
X128865353Y-90440090D01*
X128814373Y-90340034D01*
X128734965Y-90260626D01*
X128634909Y-90209646D01*
X128524002Y-90192081D01*
X128523998Y-90192081D01*
X128413090Y-90209646D01*
X128313034Y-90260626D01*
X128233626Y-90340034D01*
X128182646Y-90440090D01*
X128165081Y-90550997D01*
X128165081Y-90551002D01*
X126260222Y-90551002D01*
X126253857Y-90486376D01*
X126197962Y-90302117D01*
X126172224Y-90253965D01*
X126107197Y-90132307D01*
X126107193Y-90132300D01*
X125985041Y-89983458D01*
X125902846Y-89916002D01*
X131975081Y-89916002D01*
X131992646Y-90026909D01*
X132043626Y-90126965D01*
X132123034Y-90206373D01*
X132223090Y-90257353D01*
X132333998Y-90274919D01*
X132334000Y-90274919D01*
X132334002Y-90274919D01*
X132444909Y-90257353D01*
X132444910Y-90257352D01*
X132444912Y-90257352D01*
X132544967Y-90206372D01*
X132624372Y-90126967D01*
X132667154Y-90043002D01*
X132991081Y-90043002D01*
X133008646Y-90153909D01*
X133059626Y-90253965D01*
X133139034Y-90333373D01*
X133239090Y-90384353D01*
X133349998Y-90401919D01*
X133350000Y-90401919D01*
X133350002Y-90401919D01*
X133460909Y-90384353D01*
X133460910Y-90384352D01*
X133460912Y-90384352D01*
X133560967Y-90333372D01*
X133597337Y-90297002D01*
X141119081Y-90297002D01*
X141136646Y-90407909D01*
X141187626Y-90507965D01*
X141267034Y-90587373D01*
X141367090Y-90638353D01*
X141477998Y-90655919D01*
X141478000Y-90655919D01*
X141478002Y-90655919D01*
X141588909Y-90638353D01*
X141588910Y-90638352D01*
X141588912Y-90638352D01*
X141688967Y-90587372D01*
X141768372Y-90507967D01*
X141819352Y-90407912D01*
X141819352Y-90407910D01*
X141819353Y-90407909D01*
X141836919Y-90297002D01*
X141836919Y-90296997D01*
X141819353Y-90186090D01*
X141768373Y-90086034D01*
X141688965Y-90006626D01*
X141588909Y-89955646D01*
X141478002Y-89938081D01*
X141477998Y-89938081D01*
X141367090Y-89955646D01*
X141267034Y-90006626D01*
X141187626Y-90086034D01*
X141136646Y-90186090D01*
X141119081Y-90296997D01*
X141119081Y-90297002D01*
X133597337Y-90297002D01*
X133640372Y-90253967D01*
X133691352Y-90153912D01*
X133691352Y-90153910D01*
X133691353Y-90153909D01*
X133708919Y-90043002D01*
X133708919Y-90042997D01*
X133691353Y-89932090D01*
X133683153Y-89915997D01*
X133674774Y-89899553D01*
X133661879Y-89830885D01*
X133678879Y-89789002D01*
X137944081Y-89789002D01*
X137961646Y-89899909D01*
X138012626Y-89999965D01*
X138092034Y-90079373D01*
X138192090Y-90130353D01*
X138302998Y-90147919D01*
X138303000Y-90147919D01*
X138303002Y-90147919D01*
X138413909Y-90130353D01*
X138413910Y-90130352D01*
X138413912Y-90130352D01*
X138513967Y-90079372D01*
X138593372Y-89999967D01*
X138644352Y-89899912D01*
X138644352Y-89899910D01*
X138644353Y-89899909D01*
X138661919Y-89789002D01*
X138661919Y-89788997D01*
X138644353Y-89678090D01*
X138593373Y-89578034D01*
X138513965Y-89498626D01*
X138413909Y-89447646D01*
X138303002Y-89430081D01*
X138302998Y-89430081D01*
X138192090Y-89447646D01*
X138092034Y-89498626D01*
X138012626Y-89578034D01*
X137961646Y-89678090D01*
X137944081Y-89788997D01*
X137944081Y-89789002D01*
X133678879Y-89789002D01*
X133688156Y-89766145D01*
X133745262Y-89725888D01*
X133815068Y-89722896D01*
X133841551Y-89732774D01*
X133874088Y-89749352D01*
X133874090Y-89749353D01*
X133984998Y-89766919D01*
X133985000Y-89766919D01*
X133985002Y-89766919D01*
X134095909Y-89749353D01*
X134095910Y-89749352D01*
X134095912Y-89749352D01*
X134195967Y-89698372D01*
X134275372Y-89618967D01*
X134326352Y-89518912D01*
X134326352Y-89518910D01*
X134326353Y-89518909D01*
X134343919Y-89408002D01*
X134343919Y-89407997D01*
X134326353Y-89297090D01*
X134275373Y-89197034D01*
X134195965Y-89117626D01*
X134095909Y-89066646D01*
X133985002Y-89049081D01*
X133984998Y-89049081D01*
X133874090Y-89066646D01*
X133774034Y-89117626D01*
X133694626Y-89197034D01*
X133643646Y-89297090D01*
X133626081Y-89407997D01*
X133626081Y-89408002D01*
X133643646Y-89518908D01*
X133660225Y-89551446D01*
X133673120Y-89620115D01*
X133646843Y-89684855D01*
X133589736Y-89725111D01*
X133519930Y-89728103D01*
X133493448Y-89718225D01*
X133460912Y-89701648D01*
X133460911Y-89701647D01*
X133460908Y-89701646D01*
X133350002Y-89684081D01*
X133349998Y-89684081D01*
X133239090Y-89701646D01*
X133139034Y-89752626D01*
X133059626Y-89832034D01*
X133008646Y-89932090D01*
X132991081Y-90042997D01*
X132991081Y-90043002D01*
X132667154Y-90043002D01*
X132675352Y-90026912D01*
X132675352Y-90026910D01*
X132675353Y-90026909D01*
X132692919Y-89916002D01*
X132692919Y-89915997D01*
X132675353Y-89805090D01*
X132624373Y-89705034D01*
X132544965Y-89625626D01*
X132444909Y-89574646D01*
X132334002Y-89557081D01*
X132333998Y-89557081D01*
X132223090Y-89574646D01*
X132123034Y-89625626D01*
X132043626Y-89705034D01*
X131992646Y-89805090D01*
X131975081Y-89915997D01*
X131975081Y-89916002D01*
X125902846Y-89916002D01*
X125836199Y-89861306D01*
X125836192Y-89861302D01*
X125666384Y-89770538D01*
X125534926Y-89730660D01*
X125476488Y-89692363D01*
X125448031Y-89628550D01*
X125458592Y-89559483D01*
X125504817Y-89507090D01*
X125570922Y-89488000D01*
X126188328Y-89488000D01*
X126188344Y-89487999D01*
X126247872Y-89481598D01*
X126247879Y-89481596D01*
X126382586Y-89431354D01*
X126382593Y-89431350D01*
X126497687Y-89345190D01*
X126497690Y-89345187D01*
X126583850Y-89230093D01*
X126583854Y-89230086D01*
X126634096Y-89095379D01*
X126634098Y-89095372D01*
X126640499Y-89035844D01*
X126640500Y-89035827D01*
X126640500Y-88773002D01*
X135404081Y-88773002D01*
X135421646Y-88883909D01*
X135472626Y-88983965D01*
X135552034Y-89063373D01*
X135652090Y-89114353D01*
X135762998Y-89131919D01*
X135763000Y-89131919D01*
X135763002Y-89131919D01*
X135873909Y-89114353D01*
X135873910Y-89114352D01*
X135873912Y-89114352D01*
X135973967Y-89063372D01*
X136001495Y-89035844D01*
X141720500Y-89035844D01*
X141726901Y-89095372D01*
X141726903Y-89095379D01*
X141777145Y-89230086D01*
X141777149Y-89230093D01*
X141863309Y-89345187D01*
X141863312Y-89345190D01*
X141978406Y-89431350D01*
X141978413Y-89431354D01*
X142113120Y-89481596D01*
X142113127Y-89481598D01*
X142172655Y-89487999D01*
X142172672Y-89488000D01*
X142790078Y-89488000D01*
X142857117Y-89507685D01*
X142902872Y-89560489D01*
X142912816Y-89629647D01*
X142883791Y-89693203D01*
X142826074Y-89730660D01*
X142694615Y-89770538D01*
X142524807Y-89861302D01*
X142524800Y-89861306D01*
X142375958Y-89983458D01*
X142253806Y-90132300D01*
X142253802Y-90132307D01*
X142163038Y-90302115D01*
X142107143Y-90486373D01*
X142088270Y-90678000D01*
X142107143Y-90869626D01*
X142163038Y-91053884D01*
X142253802Y-91223692D01*
X142253806Y-91223699D01*
X142375958Y-91372541D01*
X142524800Y-91494693D01*
X142524807Y-91494697D01*
X142618766Y-91544919D01*
X142694617Y-91585462D01*
X142878876Y-91641357D01*
X143070500Y-91660230D01*
X143262124Y-91641357D01*
X143446383Y-91585462D01*
X143616198Y-91494694D01*
X143765041Y-91372541D01*
X143887194Y-91223698D01*
X143977962Y-91053883D01*
X144033857Y-90869624D01*
X144052730Y-90678000D01*
X144033857Y-90486376D01*
X143977962Y-90302117D01*
X143952224Y-90253965D01*
X143887197Y-90132307D01*
X143887193Y-90132300D01*
X143765041Y-89983458D01*
X143616199Y-89861306D01*
X143616192Y-89861302D01*
X143446384Y-89770538D01*
X143314926Y-89730660D01*
X143256488Y-89692363D01*
X143228031Y-89628550D01*
X143238592Y-89559483D01*
X143284817Y-89507090D01*
X143350922Y-89488000D01*
X143968328Y-89488000D01*
X143968344Y-89487999D01*
X144027872Y-89481598D01*
X144027879Y-89481596D01*
X144162586Y-89431354D01*
X144162593Y-89431350D01*
X144277687Y-89345190D01*
X144277690Y-89345187D01*
X144363850Y-89230093D01*
X144363854Y-89230086D01*
X144414096Y-89095379D01*
X144414098Y-89095372D01*
X144420499Y-89035844D01*
X144420500Y-89035827D01*
X144420500Y-88388000D01*
X143516072Y-88388000D01*
X143539182Y-88352040D01*
X143580500Y-88211327D01*
X143580500Y-88064673D01*
X143539182Y-87923960D01*
X143516072Y-87888000D01*
X144420500Y-87888000D01*
X144420500Y-87240172D01*
X144420499Y-87240155D01*
X144414098Y-87180627D01*
X144414096Y-87180620D01*
X144363854Y-87045913D01*
X144363850Y-87045906D01*
X144277690Y-86930812D01*
X144277687Y-86930809D01*
X144162593Y-86844649D01*
X144162586Y-86844645D01*
X144027879Y-86794403D01*
X144027872Y-86794401D01*
X143968344Y-86788000D01*
X143350922Y-86788000D01*
X143283883Y-86768315D01*
X143238128Y-86715511D01*
X143228184Y-86646353D01*
X143257209Y-86582797D01*
X143314926Y-86545340D01*
X143369594Y-86528755D01*
X143446383Y-86505462D01*
X143616198Y-86414694D01*
X143765041Y-86292541D01*
X143887194Y-86143698D01*
X143977962Y-85973883D01*
X144033857Y-85789624D01*
X144052730Y-85598000D01*
X144033857Y-85406376D01*
X143977962Y-85222117D01*
X143955785Y-85180626D01*
X143887197Y-85052307D01*
X143887193Y-85052300D01*
X143765041Y-84903458D01*
X143616199Y-84781306D01*
X143616192Y-84781302D01*
X143446384Y-84690538D01*
X143262126Y-84634643D01*
X143070500Y-84615770D01*
X142878873Y-84634643D01*
X142694615Y-84690538D01*
X142524807Y-84781302D01*
X142524800Y-84781306D01*
X142375958Y-84903458D01*
X142253806Y-85052300D01*
X142253802Y-85052307D01*
X142163038Y-85222115D01*
X142107143Y-85406373D01*
X142088270Y-85597999D01*
X142107143Y-85789626D01*
X142163038Y-85973884D01*
X142253802Y-86143692D01*
X142253806Y-86143699D01*
X142375958Y-86292541D01*
X142524800Y-86414693D01*
X142524807Y-86414697D01*
X142690179Y-86503090D01*
X142694617Y-86505462D01*
X142752755Y-86523098D01*
X142826074Y-86545340D01*
X142884512Y-86583637D01*
X142912969Y-86647450D01*
X142902408Y-86716517D01*
X142856183Y-86768910D01*
X142790078Y-86788000D01*
X142172655Y-86788000D01*
X142113127Y-86794401D01*
X142113120Y-86794403D01*
X141978413Y-86844645D01*
X141978406Y-86844649D01*
X141863312Y-86930809D01*
X141863309Y-86930812D01*
X141777149Y-87045906D01*
X141777145Y-87045913D01*
X141726903Y-87180620D01*
X141726901Y-87180627D01*
X141720500Y-87240155D01*
X141720500Y-87888000D01*
X142624928Y-87888000D01*
X142601818Y-87923960D01*
X142560500Y-88064673D01*
X142560500Y-88211327D01*
X142601818Y-88352040D01*
X142624928Y-88388000D01*
X141720500Y-88388000D01*
X141720500Y-89035844D01*
X136001495Y-89035844D01*
X136053372Y-88983967D01*
X136104352Y-88883912D01*
X136104352Y-88883910D01*
X136104353Y-88883909D01*
X136121919Y-88773002D01*
X136121919Y-88772997D01*
X136104353Y-88662090D01*
X136053373Y-88562034D01*
X135973965Y-88482626D01*
X135873909Y-88431646D01*
X135763002Y-88414081D01*
X135762998Y-88414081D01*
X135652090Y-88431646D01*
X135552034Y-88482626D01*
X135472626Y-88562034D01*
X135421646Y-88662090D01*
X135404081Y-88772997D01*
X135404081Y-88773002D01*
X126640500Y-88773002D01*
X126640500Y-88388000D01*
X125736072Y-88388000D01*
X125759182Y-88352040D01*
X125800500Y-88211327D01*
X125800500Y-88064673D01*
X125795605Y-88048002D01*
X137727081Y-88048002D01*
X137744646Y-88158909D01*
X137795626Y-88258965D01*
X137875034Y-88338373D01*
X137975090Y-88389353D01*
X138085998Y-88406919D01*
X138086000Y-88406919D01*
X138086002Y-88406919D01*
X138196909Y-88389353D01*
X138196910Y-88389352D01*
X138196912Y-88389352D01*
X138296967Y-88338372D01*
X138376372Y-88258967D01*
X138427352Y-88158912D01*
X138427352Y-88158910D01*
X138427353Y-88158909D01*
X138444919Y-88048002D01*
X138444919Y-88047997D01*
X138427353Y-87937090D01*
X138376373Y-87837034D01*
X138296965Y-87757626D01*
X138196909Y-87706646D01*
X138086002Y-87689081D01*
X138085998Y-87689081D01*
X137975090Y-87706646D01*
X137875034Y-87757626D01*
X137795626Y-87837034D01*
X137744646Y-87937090D01*
X137727081Y-88047997D01*
X137727081Y-88048002D01*
X125795605Y-88048002D01*
X125759182Y-87923960D01*
X125736072Y-87888000D01*
X126640500Y-87888000D01*
X126640500Y-87249002D01*
X128165081Y-87249002D01*
X128182646Y-87359909D01*
X128233626Y-87459965D01*
X128313034Y-87539373D01*
X128413090Y-87590353D01*
X128523998Y-87607919D01*
X128524000Y-87607919D01*
X128524002Y-87607919D01*
X128634909Y-87590353D01*
X128634910Y-87590352D01*
X128634912Y-87590352D01*
X128734967Y-87539372D01*
X128814372Y-87459967D01*
X128865352Y-87359912D01*
X128865352Y-87359910D01*
X128865353Y-87359909D01*
X128882919Y-87249002D01*
X128882919Y-87248997D01*
X128865353Y-87138090D01*
X128814373Y-87038034D01*
X128734965Y-86958626D01*
X128634909Y-86907646D01*
X128524002Y-86890081D01*
X128523998Y-86890081D01*
X128413090Y-86907646D01*
X128313034Y-86958626D01*
X128233626Y-87038034D01*
X128182646Y-87138090D01*
X128165081Y-87248997D01*
X128165081Y-87249002D01*
X126640500Y-87249002D01*
X126640500Y-87240172D01*
X126640499Y-87240155D01*
X126634098Y-87180627D01*
X126634096Y-87180620D01*
X126583854Y-87045913D01*
X126583850Y-87045906D01*
X126497690Y-86930812D01*
X126497687Y-86930809D01*
X126382593Y-86844649D01*
X126382586Y-86844645D01*
X126247879Y-86794403D01*
X126247872Y-86794401D01*
X126188344Y-86788000D01*
X125570922Y-86788000D01*
X125503883Y-86768315D01*
X125458128Y-86715511D01*
X125448184Y-86646353D01*
X125462958Y-86614002D01*
X130070081Y-86614002D01*
X130087646Y-86724909D01*
X130138626Y-86824965D01*
X130218034Y-86904373D01*
X130318090Y-86955353D01*
X130428998Y-86972919D01*
X130429000Y-86972919D01*
X130429002Y-86972919D01*
X130539909Y-86955353D01*
X130539910Y-86955352D01*
X130539912Y-86955352D01*
X130639967Y-86904372D01*
X130719372Y-86824967D01*
X130770352Y-86724912D01*
X130770352Y-86724910D01*
X130770353Y-86724909D01*
X130787919Y-86614002D01*
X130787919Y-86613997D01*
X130770353Y-86503090D01*
X130719373Y-86403034D01*
X130639965Y-86323626D01*
X130539909Y-86272646D01*
X130429002Y-86255081D01*
X130428998Y-86255081D01*
X130318090Y-86272646D01*
X130218034Y-86323626D01*
X130138626Y-86403034D01*
X130087646Y-86503090D01*
X130070081Y-86613997D01*
X130070081Y-86614002D01*
X125462958Y-86614002D01*
X125477209Y-86582797D01*
X125534926Y-86545340D01*
X125589594Y-86528755D01*
X125666383Y-86505462D01*
X125836198Y-86414694D01*
X125985041Y-86292541D01*
X126107194Y-86143698D01*
X126195226Y-85979002D01*
X135531081Y-85979002D01*
X135548646Y-86089909D01*
X135599626Y-86189965D01*
X135679034Y-86269373D01*
X135779090Y-86320353D01*
X135889998Y-86337919D01*
X135890000Y-86337919D01*
X135890002Y-86337919D01*
X136000909Y-86320353D01*
X136000910Y-86320352D01*
X136000912Y-86320352D01*
X136100967Y-86269372D01*
X136180372Y-86189967D01*
X136231352Y-86089912D01*
X136231352Y-86089910D01*
X136231353Y-86089909D01*
X136248919Y-85979002D01*
X136248919Y-85978997D01*
X136231353Y-85868090D01*
X136180373Y-85768034D01*
X136100965Y-85688626D01*
X136000909Y-85637646D01*
X135890002Y-85620081D01*
X135889998Y-85620081D01*
X135779090Y-85637646D01*
X135679034Y-85688626D01*
X135599626Y-85768034D01*
X135548646Y-85868090D01*
X135531081Y-85978997D01*
X135531081Y-85979002D01*
X126195226Y-85979002D01*
X126197962Y-85973883D01*
X126253857Y-85789624D01*
X126272730Y-85598000D01*
X126260222Y-85471002D01*
X132864081Y-85471002D01*
X132881646Y-85581909D01*
X132932626Y-85681965D01*
X133012034Y-85761373D01*
X133112090Y-85812353D01*
X133222998Y-85829919D01*
X133223000Y-85829919D01*
X133223002Y-85829919D01*
X133333909Y-85812353D01*
X133333910Y-85812352D01*
X133333912Y-85812352D01*
X133433967Y-85761372D01*
X133513372Y-85681967D01*
X133564352Y-85581912D01*
X133564352Y-85581910D01*
X133564353Y-85581909D01*
X133581919Y-85471002D01*
X133581919Y-85470997D01*
X133564353Y-85360090D01*
X133513373Y-85260034D01*
X133433965Y-85180626D01*
X133333909Y-85129646D01*
X133223002Y-85112081D01*
X133222998Y-85112081D01*
X133112090Y-85129646D01*
X133012034Y-85180626D01*
X132932626Y-85260034D01*
X132881646Y-85360090D01*
X132864081Y-85470997D01*
X132864081Y-85471002D01*
X126260222Y-85471002D01*
X126253857Y-85406376D01*
X126197962Y-85222117D01*
X126175785Y-85180626D01*
X126107197Y-85052307D01*
X126107193Y-85052300D01*
X125985041Y-84903458D01*
X125836199Y-84781306D01*
X125836192Y-84781302D01*
X125666384Y-84690538D01*
X125482126Y-84634643D01*
X125290500Y-84615770D01*
X125098873Y-84634643D01*
X124914615Y-84690538D01*
X124744807Y-84781302D01*
X124744800Y-84781306D01*
X124595958Y-84903458D01*
X124473806Y-85052300D01*
X124473802Y-85052307D01*
X124383038Y-85222115D01*
X124327143Y-85406373D01*
X124308270Y-85597999D01*
X124327143Y-85789626D01*
X124383038Y-85973884D01*
X124473802Y-86143692D01*
X124473806Y-86143699D01*
X124595958Y-86292541D01*
X124744800Y-86414693D01*
X124744807Y-86414697D01*
X124910179Y-86503090D01*
X124914617Y-86505462D01*
X124972755Y-86523098D01*
X125046074Y-86545340D01*
X125104512Y-86583637D01*
X125132969Y-86647450D01*
X125122408Y-86716517D01*
X125076183Y-86768910D01*
X125010078Y-86788000D01*
X124392655Y-86788000D01*
X124333127Y-86794401D01*
X124333120Y-86794403D01*
X124198413Y-86844645D01*
X124198406Y-86844649D01*
X124083312Y-86930809D01*
X124083309Y-86930812D01*
X123997149Y-87045906D01*
X123997145Y-87045913D01*
X123946903Y-87180620D01*
X123946901Y-87180627D01*
X123940500Y-87240155D01*
X123940500Y-87888000D01*
X124844928Y-87888000D01*
X124821818Y-87923960D01*
X124780500Y-88064673D01*
X124780500Y-88211327D01*
X124821818Y-88352040D01*
X124844928Y-88388000D01*
X123940500Y-88388000D01*
X123940500Y-89035844D01*
X120904000Y-89035844D01*
X120904000Y-83058000D01*
X124308270Y-83058000D01*
X124327143Y-83249626D01*
X124383038Y-83433884D01*
X124473802Y-83603692D01*
X124473806Y-83603699D01*
X124595958Y-83752541D01*
X124744800Y-83874693D01*
X124744807Y-83874697D01*
X124910179Y-83963090D01*
X124914617Y-83965462D01*
X125098876Y-84021357D01*
X125290500Y-84040230D01*
X125482124Y-84021357D01*
X125666383Y-83965462D01*
X125836198Y-83874694D01*
X125902840Y-83820002D01*
X132737081Y-83820002D01*
X132754646Y-83930909D01*
X132805626Y-84030965D01*
X132885034Y-84110373D01*
X132985090Y-84161353D01*
X133095998Y-84178919D01*
X133096000Y-84178919D01*
X133096002Y-84178919D01*
X133206909Y-84161353D01*
X133206910Y-84161352D01*
X133206912Y-84161352D01*
X133306967Y-84110372D01*
X133343337Y-84074002D01*
X137309081Y-84074002D01*
X137326646Y-84184909D01*
X137377626Y-84284965D01*
X137457034Y-84364373D01*
X137557090Y-84415353D01*
X137667998Y-84432919D01*
X137668000Y-84432919D01*
X137668002Y-84432919D01*
X137778909Y-84415353D01*
X137778910Y-84415352D01*
X137778912Y-84415352D01*
X137878967Y-84364372D01*
X137958372Y-84284967D01*
X138009352Y-84184912D01*
X138009352Y-84184910D01*
X138009353Y-84184909D01*
X138026919Y-84074002D01*
X138026919Y-84073997D01*
X138009353Y-83963090D01*
X137958373Y-83863034D01*
X137878965Y-83783626D01*
X137778909Y-83732646D01*
X137668002Y-83715081D01*
X137667998Y-83715081D01*
X137557090Y-83732646D01*
X137457034Y-83783626D01*
X137377626Y-83863034D01*
X137326646Y-83963090D01*
X137309081Y-84073997D01*
X137309081Y-84074002D01*
X133343337Y-84074002D01*
X133386372Y-84030967D01*
X133437352Y-83930912D01*
X133437352Y-83930910D01*
X133437353Y-83930909D01*
X133454919Y-83820002D01*
X133454919Y-83819997D01*
X133437353Y-83709090D01*
X133386373Y-83609034D01*
X133306965Y-83529626D01*
X133206909Y-83478646D01*
X133096002Y-83461081D01*
X133095998Y-83461081D01*
X132985090Y-83478646D01*
X132885034Y-83529626D01*
X132805626Y-83609034D01*
X132754646Y-83709090D01*
X132737081Y-83819997D01*
X132737081Y-83820002D01*
X125902840Y-83820002D01*
X125985041Y-83752541D01*
X126107194Y-83603698D01*
X126197962Y-83433883D01*
X126253857Y-83249624D01*
X126260222Y-83185002D01*
X131975081Y-83185002D01*
X131992646Y-83295909D01*
X132043626Y-83395965D01*
X132123034Y-83475373D01*
X132223090Y-83526353D01*
X132333998Y-83543919D01*
X132334000Y-83543919D01*
X132334002Y-83543919D01*
X132444909Y-83526353D01*
X132444910Y-83526352D01*
X132444912Y-83526352D01*
X132544967Y-83475372D01*
X132624372Y-83395967D01*
X132675352Y-83295912D01*
X132675352Y-83295910D01*
X132675353Y-83295909D01*
X132692919Y-83185002D01*
X132692919Y-83184997D01*
X132675353Y-83074090D01*
X132624373Y-82974034D01*
X132544965Y-82894626D01*
X132444909Y-82843646D01*
X132334002Y-82826081D01*
X132333998Y-82826081D01*
X132223090Y-82843646D01*
X132123034Y-82894626D01*
X132043626Y-82974034D01*
X131992646Y-83074090D01*
X131975081Y-83184997D01*
X131975081Y-83185002D01*
X126260222Y-83185002D01*
X126272730Y-83058000D01*
X126253857Y-82866376D01*
X126197962Y-82682117D01*
X126127345Y-82550002D01*
X129435081Y-82550002D01*
X129452646Y-82660909D01*
X129503626Y-82760965D01*
X129583034Y-82840373D01*
X129683090Y-82891353D01*
X129793998Y-82908919D01*
X129794000Y-82908919D01*
X129794002Y-82908919D01*
X129904909Y-82891353D01*
X129904910Y-82891352D01*
X129904912Y-82891352D01*
X130004967Y-82840372D01*
X130084372Y-82760967D01*
X130135352Y-82660912D01*
X130135352Y-82660910D01*
X130135353Y-82660909D01*
X130152919Y-82550002D01*
X130152919Y-82549997D01*
X130135353Y-82439090D01*
X130084373Y-82339034D01*
X130004965Y-82259626D01*
X129904909Y-82208646D01*
X129794002Y-82191081D01*
X129793998Y-82191081D01*
X129683090Y-82208646D01*
X129583034Y-82259626D01*
X129503626Y-82339034D01*
X129452646Y-82439090D01*
X129435081Y-82549997D01*
X129435081Y-82550002D01*
X126127345Y-82550002D01*
X126127344Y-82550000D01*
X126107197Y-82512307D01*
X126107193Y-82512300D01*
X125985041Y-82363458D01*
X125836199Y-82241306D01*
X125836192Y-82241302D01*
X125666384Y-82150538D01*
X125482126Y-82094643D01*
X125290500Y-82075770D01*
X125098873Y-82094643D01*
X124914615Y-82150538D01*
X124744807Y-82241302D01*
X124744800Y-82241306D01*
X124595958Y-82363458D01*
X124473806Y-82512300D01*
X124473802Y-82512307D01*
X124383038Y-82682115D01*
X124327143Y-82866373D01*
X124308270Y-83058000D01*
X120904000Y-83058000D01*
X120904000Y-80942002D01*
X121815081Y-80942002D01*
X121832646Y-81052909D01*
X121883626Y-81152965D01*
X121963034Y-81232373D01*
X122063090Y-81283353D01*
X122173998Y-81300919D01*
X122174000Y-81300919D01*
X122174002Y-81300919D01*
X122284909Y-81283353D01*
X122284910Y-81283352D01*
X122284912Y-81283352D01*
X122384967Y-81232372D01*
X122464372Y-81152967D01*
X122515352Y-81052912D01*
X122515352Y-81052910D01*
X122515353Y-81052909D01*
X122532919Y-80942002D01*
X122532919Y-80941997D01*
X122515353Y-80831090D01*
X122464373Y-80731034D01*
X122384965Y-80651626D01*
X122284909Y-80600646D01*
X122174002Y-80583081D01*
X122173998Y-80583081D01*
X122063090Y-80600646D01*
X121963034Y-80651626D01*
X121883626Y-80731034D01*
X121832646Y-80831090D01*
X121815081Y-80941997D01*
X121815081Y-80942002D01*
X120904000Y-80942002D01*
X120904000Y-80518000D01*
X124308270Y-80518000D01*
X124327143Y-80709626D01*
X124383038Y-80893884D01*
X124473802Y-81063692D01*
X124473806Y-81063699D01*
X124595958Y-81212541D01*
X124744800Y-81334693D01*
X124744807Y-81334697D01*
X124849973Y-81390909D01*
X124914617Y-81425462D01*
X125098876Y-81481357D01*
X125290500Y-81500230D01*
X125482124Y-81481357D01*
X125666383Y-81425462D01*
X125836198Y-81334694D01*
X125902840Y-81280002D01*
X130451081Y-81280002D01*
X130468646Y-81390909D01*
X130519626Y-81490965D01*
X130599034Y-81570373D01*
X130699090Y-81621353D01*
X130809998Y-81638919D01*
X130810000Y-81638919D01*
X130810002Y-81638919D01*
X130920909Y-81621353D01*
X130920910Y-81621352D01*
X130920912Y-81621352D01*
X131020967Y-81570372D01*
X131100372Y-81490967D01*
X131151352Y-81390912D01*
X131151352Y-81390910D01*
X131151353Y-81390909D01*
X131168919Y-81280002D01*
X131168919Y-81279997D01*
X131159417Y-81220002D01*
X132610081Y-81220002D01*
X132627646Y-81330909D01*
X132678626Y-81430965D01*
X132758034Y-81510373D01*
X132858090Y-81561353D01*
X132968998Y-81578919D01*
X132969000Y-81578919D01*
X132969002Y-81578919D01*
X133079909Y-81561353D01*
X133079910Y-81561352D01*
X133079912Y-81561352D01*
X133179967Y-81510372D01*
X133259372Y-81430967D01*
X133271583Y-81407002D01*
X135912081Y-81407002D01*
X135929646Y-81517909D01*
X135980626Y-81617965D01*
X136060034Y-81697373D01*
X136160090Y-81748353D01*
X136270998Y-81765919D01*
X136271000Y-81765919D01*
X136271002Y-81765919D01*
X136326455Y-81757135D01*
X136381912Y-81748352D01*
X136381915Y-81748350D01*
X136391188Y-81745338D01*
X136392414Y-81749113D01*
X136442022Y-81739755D01*
X136506784Y-81765979D01*
X136547087Y-81823053D01*
X136552221Y-81882543D01*
X136547081Y-81914996D01*
X136547081Y-81915002D01*
X136564646Y-82025909D01*
X136608871Y-82112706D01*
X136621767Y-82181375D01*
X136608871Y-82225294D01*
X136564646Y-82312090D01*
X136547081Y-82422997D01*
X136547081Y-82423002D01*
X136564646Y-82533908D01*
X136608871Y-82620707D01*
X136621766Y-82689377D01*
X136608871Y-82733293D01*
X136564646Y-82820091D01*
X136547081Y-82930997D01*
X136547081Y-82931002D01*
X136564646Y-83041909D01*
X136615626Y-83141965D01*
X136695034Y-83221373D01*
X136795090Y-83272353D01*
X136905998Y-83289919D01*
X136906000Y-83289919D01*
X136906002Y-83289919D01*
X137016909Y-83272353D01*
X137016910Y-83272352D01*
X137016912Y-83272352D01*
X137116967Y-83221372D01*
X137196372Y-83141967D01*
X137247352Y-83041912D01*
X137247352Y-83041910D01*
X137247353Y-83041909D01*
X137264919Y-82931002D01*
X139341081Y-82931002D01*
X139358646Y-83041909D01*
X139409626Y-83141965D01*
X139489034Y-83221373D01*
X139589090Y-83272353D01*
X139699998Y-83289919D01*
X139700000Y-83289919D01*
X139700002Y-83289919D01*
X139810909Y-83272353D01*
X139810910Y-83272352D01*
X139810912Y-83272352D01*
X139910967Y-83221372D01*
X139990372Y-83141967D01*
X140033155Y-83058000D01*
X142088270Y-83058000D01*
X142107143Y-83249626D01*
X142163038Y-83433884D01*
X142253802Y-83603692D01*
X142253806Y-83603699D01*
X142375958Y-83752541D01*
X142524800Y-83874693D01*
X142524807Y-83874697D01*
X142690179Y-83963090D01*
X142694617Y-83965462D01*
X142878876Y-84021357D01*
X143070500Y-84040230D01*
X143262124Y-84021357D01*
X143446383Y-83965462D01*
X143616198Y-83874694D01*
X143765041Y-83752541D01*
X143887194Y-83603698D01*
X143977962Y-83433883D01*
X144033857Y-83249624D01*
X144052730Y-83058000D01*
X144033857Y-82866376D01*
X143977962Y-82682117D01*
X143907344Y-82550000D01*
X143887197Y-82512307D01*
X143887193Y-82512300D01*
X143765041Y-82363458D01*
X143616199Y-82241306D01*
X143616192Y-82241302D01*
X143446384Y-82150538D01*
X143262126Y-82094643D01*
X143070500Y-82075770D01*
X142878873Y-82094643D01*
X142694615Y-82150538D01*
X142524807Y-82241302D01*
X142524800Y-82241306D01*
X142375958Y-82363458D01*
X142253806Y-82512300D01*
X142253802Y-82512307D01*
X142163038Y-82682115D01*
X142107143Y-82866373D01*
X142088270Y-83058000D01*
X140033155Y-83058000D01*
X140041352Y-83041912D01*
X140041352Y-83041910D01*
X140041353Y-83041909D01*
X140058919Y-82931002D01*
X140058919Y-82930997D01*
X140041353Y-82820090D01*
X139997129Y-82733294D01*
X139984233Y-82664625D01*
X139997129Y-82620706D01*
X140011650Y-82592205D01*
X140041352Y-82533912D01*
X140041352Y-82533910D01*
X140041353Y-82533909D01*
X140058919Y-82423002D01*
X140058919Y-82422997D01*
X140041353Y-82312090D01*
X139997129Y-82225294D01*
X139984233Y-82156625D01*
X139997129Y-82112706D01*
X140015948Y-82075770D01*
X140041352Y-82025912D01*
X140041352Y-82025910D01*
X140041353Y-82025909D01*
X140058919Y-81915002D01*
X140058919Y-81914997D01*
X140041353Y-81804090D01*
X139990373Y-81704034D01*
X139910965Y-81624626D01*
X139810909Y-81573646D01*
X139700002Y-81556081D01*
X139699998Y-81556081D01*
X139589090Y-81573646D01*
X139489034Y-81624626D01*
X139409626Y-81704034D01*
X139358646Y-81804090D01*
X139341081Y-81914997D01*
X139341081Y-81915002D01*
X139358646Y-82025908D01*
X139402871Y-82112707D01*
X139415766Y-82181377D01*
X139402871Y-82225293D01*
X139358646Y-82312091D01*
X139341081Y-82422997D01*
X139341081Y-82423002D01*
X139358646Y-82533909D01*
X139402871Y-82620705D01*
X139415767Y-82689374D01*
X139402872Y-82733292D01*
X139358646Y-82820091D01*
X139341081Y-82930997D01*
X139341081Y-82931002D01*
X137264919Y-82931002D01*
X137264919Y-82930997D01*
X137247353Y-82820090D01*
X137203129Y-82733294D01*
X137190233Y-82664625D01*
X137203129Y-82620706D01*
X137217650Y-82592205D01*
X137247352Y-82533912D01*
X137247352Y-82533910D01*
X137247353Y-82533909D01*
X137264919Y-82423002D01*
X137264919Y-82422997D01*
X137247353Y-82312090D01*
X137203129Y-82225294D01*
X137190233Y-82156625D01*
X137203129Y-82112706D01*
X137221948Y-82075770D01*
X137247352Y-82025912D01*
X137247352Y-82025910D01*
X137247353Y-82025909D01*
X137264919Y-81915002D01*
X137264919Y-81914997D01*
X137247353Y-81804090D01*
X137196373Y-81704034D01*
X137116965Y-81624626D01*
X137016909Y-81573646D01*
X136906002Y-81556081D01*
X136905998Y-81556081D01*
X136795089Y-81573647D01*
X136785812Y-81576662D01*
X136784609Y-81572962D01*
X136734354Y-81582180D01*
X136669726Y-81555630D01*
X136629711Y-81498354D01*
X136624778Y-81439456D01*
X136629919Y-81407000D01*
X136627371Y-81390912D01*
X136612353Y-81296090D01*
X136561373Y-81196034D01*
X136481965Y-81116626D01*
X136381909Y-81065646D01*
X136271002Y-81048081D01*
X136270998Y-81048081D01*
X136160090Y-81065646D01*
X136060034Y-81116626D01*
X135980626Y-81196034D01*
X135929646Y-81296090D01*
X135912081Y-81406997D01*
X135912081Y-81407002D01*
X133271583Y-81407002D01*
X133310352Y-81330912D01*
X133310352Y-81330910D01*
X133310353Y-81330909D01*
X133327919Y-81220002D01*
X133327919Y-81219997D01*
X133310353Y-81109090D01*
X133259373Y-81009034D01*
X133179965Y-80929626D01*
X133079909Y-80878646D01*
X132969002Y-80861081D01*
X132968998Y-80861081D01*
X132858090Y-80878646D01*
X132758034Y-80929626D01*
X132678626Y-81009034D01*
X132627646Y-81109090D01*
X132610081Y-81219997D01*
X132610081Y-81220002D01*
X131159417Y-81220002D01*
X131151353Y-81169090D01*
X131100373Y-81069034D01*
X131020965Y-80989626D01*
X130920909Y-80938646D01*
X130810002Y-80921081D01*
X130809998Y-80921081D01*
X130699090Y-80938646D01*
X130599034Y-80989626D01*
X130519626Y-81069034D01*
X130468646Y-81169090D01*
X130451081Y-81279997D01*
X130451081Y-81280002D01*
X125902840Y-81280002D01*
X125985041Y-81212541D01*
X126107194Y-81063698D01*
X126197962Y-80893883D01*
X126253857Y-80709624D01*
X126260222Y-80645002D01*
X134896081Y-80645002D01*
X134913646Y-80755909D01*
X134964626Y-80855965D01*
X135044034Y-80935373D01*
X135144090Y-80986353D01*
X135254998Y-81003919D01*
X135255000Y-81003919D01*
X135255002Y-81003919D01*
X135365909Y-80986353D01*
X135365910Y-80986352D01*
X135365912Y-80986352D01*
X135465967Y-80935372D01*
X135545372Y-80855967D01*
X135596352Y-80755912D01*
X135596352Y-80755910D01*
X135596353Y-80755909D01*
X135613919Y-80645002D01*
X135613919Y-80644997D01*
X135596353Y-80534090D01*
X135545373Y-80434034D01*
X135502341Y-80391002D01*
X137690081Y-80391002D01*
X137707646Y-80501909D01*
X137758626Y-80601965D01*
X137838034Y-80681373D01*
X137938090Y-80732353D01*
X138048998Y-80749919D01*
X138049000Y-80749919D01*
X138049002Y-80749919D01*
X138159909Y-80732353D01*
X138159910Y-80732352D01*
X138159912Y-80732352D01*
X138259967Y-80681372D01*
X138339372Y-80601967D01*
X138382155Y-80517999D01*
X142088270Y-80517999D01*
X142107143Y-80709626D01*
X142163038Y-80893884D01*
X142253802Y-81063692D01*
X142253806Y-81063699D01*
X142375958Y-81212541D01*
X142524800Y-81334693D01*
X142524807Y-81334697D01*
X142629973Y-81390909D01*
X142694617Y-81425462D01*
X142878876Y-81481357D01*
X143070500Y-81500230D01*
X143262124Y-81481357D01*
X143446383Y-81425462D01*
X143616198Y-81334694D01*
X143765041Y-81212541D01*
X143887194Y-81063698D01*
X143977962Y-80893883D01*
X144033857Y-80709624D01*
X144052730Y-80518000D01*
X144033857Y-80326376D01*
X143977962Y-80142117D01*
X143955785Y-80100626D01*
X143887197Y-79972307D01*
X143887193Y-79972300D01*
X143765041Y-79823458D01*
X143616199Y-79701306D01*
X143616192Y-79701302D01*
X143446384Y-79610538D01*
X143262126Y-79554643D01*
X143070500Y-79535770D01*
X142878873Y-79554643D01*
X142694615Y-79610538D01*
X142524807Y-79701302D01*
X142524800Y-79701306D01*
X142375958Y-79823458D01*
X142253806Y-79972300D01*
X142253802Y-79972307D01*
X142163038Y-80142115D01*
X142107143Y-80326373D01*
X142088270Y-80517999D01*
X138382155Y-80517999D01*
X138390352Y-80501912D01*
X138390352Y-80501910D01*
X138390353Y-80501909D01*
X138407919Y-80391002D01*
X138407919Y-80390997D01*
X138390353Y-80280090D01*
X138339373Y-80180034D01*
X138259965Y-80100626D01*
X138159909Y-80049646D01*
X138049002Y-80032081D01*
X138048998Y-80032081D01*
X137938090Y-80049646D01*
X137838034Y-80100626D01*
X137758626Y-80180034D01*
X137707646Y-80280090D01*
X137690081Y-80390997D01*
X137690081Y-80391002D01*
X135502341Y-80391002D01*
X135465965Y-80354626D01*
X135365909Y-80303646D01*
X135255002Y-80286081D01*
X135254998Y-80286081D01*
X135144090Y-80303646D01*
X135044034Y-80354626D01*
X134964626Y-80434034D01*
X134913646Y-80534090D01*
X134896081Y-80644997D01*
X134896081Y-80645002D01*
X126260222Y-80645002D01*
X126272730Y-80518000D01*
X126253857Y-80326376D01*
X126197962Y-80142117D01*
X126175785Y-80100626D01*
X126127345Y-80010002D01*
X132356081Y-80010002D01*
X132373646Y-80120909D01*
X132424626Y-80220965D01*
X132504034Y-80300373D01*
X132604090Y-80351353D01*
X132714998Y-80368919D01*
X132715000Y-80368919D01*
X132715002Y-80368919D01*
X132825909Y-80351353D01*
X132825910Y-80351352D01*
X132825912Y-80351352D01*
X132925967Y-80300372D01*
X133005372Y-80220967D01*
X133056352Y-80120912D01*
X133056352Y-80120910D01*
X133056353Y-80120909D01*
X133073919Y-80010002D01*
X133073919Y-80009997D01*
X133056353Y-79899090D01*
X133005373Y-79799034D01*
X132925965Y-79719626D01*
X132825909Y-79668646D01*
X132715002Y-79651081D01*
X132714998Y-79651081D01*
X132604090Y-79668646D01*
X132504034Y-79719626D01*
X132424626Y-79799034D01*
X132373646Y-79899090D01*
X132356081Y-80009997D01*
X132356081Y-80010002D01*
X126127345Y-80010002D01*
X126107197Y-79972307D01*
X126107193Y-79972300D01*
X125985041Y-79823458D01*
X125836199Y-79701306D01*
X125836192Y-79701302D01*
X125666384Y-79610538D01*
X125482126Y-79554643D01*
X125290500Y-79535770D01*
X125098873Y-79554643D01*
X124914615Y-79610538D01*
X124744807Y-79701302D01*
X124744800Y-79701306D01*
X124595958Y-79823458D01*
X124473806Y-79972300D01*
X124473802Y-79972307D01*
X124383038Y-80142115D01*
X124327143Y-80326373D01*
X124308270Y-80518000D01*
X120904000Y-80518000D01*
X120904000Y-78994002D01*
X121815081Y-78994002D01*
X121832646Y-79104909D01*
X121883626Y-79204965D01*
X121963034Y-79284373D01*
X122063090Y-79335353D01*
X122173998Y-79352919D01*
X122174000Y-79352919D01*
X122174002Y-79352919D01*
X122284909Y-79335353D01*
X122284910Y-79335352D01*
X122284912Y-79335352D01*
X122384967Y-79284372D01*
X122421337Y-79248002D01*
X133499081Y-79248002D01*
X133516646Y-79358909D01*
X133567626Y-79458965D01*
X133647034Y-79538373D01*
X133747090Y-79589353D01*
X133857998Y-79606919D01*
X133858000Y-79606919D01*
X133858002Y-79606919D01*
X133968909Y-79589353D01*
X133968910Y-79589352D01*
X133968912Y-79589352D01*
X134068967Y-79538372D01*
X134148372Y-79458967D01*
X134199352Y-79358912D01*
X134199352Y-79358910D01*
X134199353Y-79358909D01*
X134216919Y-79248002D01*
X143786081Y-79248002D01*
X143803646Y-79358909D01*
X143854626Y-79458965D01*
X143934034Y-79538373D01*
X144034090Y-79589353D01*
X144144998Y-79606919D01*
X144145000Y-79606919D01*
X144145002Y-79606919D01*
X144255909Y-79589353D01*
X144255910Y-79589352D01*
X144255912Y-79589352D01*
X144355967Y-79538372D01*
X144435372Y-79458967D01*
X144486352Y-79358912D01*
X144486352Y-79358910D01*
X144486353Y-79358909D01*
X144503919Y-79248002D01*
X144503919Y-79247997D01*
X144486353Y-79137090D01*
X144435373Y-79037034D01*
X144355965Y-78957626D01*
X144255909Y-78906646D01*
X144145002Y-78889081D01*
X144144998Y-78889081D01*
X144034090Y-78906646D01*
X143934034Y-78957626D01*
X143854626Y-79037034D01*
X143803646Y-79137090D01*
X143786081Y-79247997D01*
X143786081Y-79248002D01*
X134216919Y-79248002D01*
X134216919Y-79247997D01*
X134199353Y-79137090D01*
X134148373Y-79037034D01*
X134068965Y-78957626D01*
X133968909Y-78906646D01*
X133858002Y-78889081D01*
X133857998Y-78889081D01*
X133747090Y-78906646D01*
X133647034Y-78957626D01*
X133567626Y-79037034D01*
X133516646Y-79137090D01*
X133499081Y-79247997D01*
X133499081Y-79248002D01*
X122421337Y-79248002D01*
X122464372Y-79204967D01*
X122515352Y-79104912D01*
X122515352Y-79104910D01*
X122515353Y-79104909D01*
X122532919Y-78994002D01*
X122532919Y-78993997D01*
X122515353Y-78883090D01*
X122464373Y-78783034D01*
X122384965Y-78703626D01*
X122284909Y-78652646D01*
X122174002Y-78635081D01*
X122173998Y-78635081D01*
X122063090Y-78652646D01*
X121963034Y-78703626D01*
X121883626Y-78783034D01*
X121832646Y-78883090D01*
X121815081Y-78993997D01*
X121815081Y-78994002D01*
X120904000Y-78994002D01*
X120904000Y-76962002D01*
X122704081Y-76962002D01*
X122721646Y-77072909D01*
X122772626Y-77172965D01*
X122852034Y-77252373D01*
X122952090Y-77303353D01*
X123062998Y-77320919D01*
X123063000Y-77320919D01*
X123063002Y-77320919D01*
X123173909Y-77303353D01*
X123173910Y-77303352D01*
X123173912Y-77303352D01*
X123273967Y-77252372D01*
X123353372Y-77172967D01*
X123404352Y-77072912D01*
X123404352Y-77072910D01*
X123404353Y-77072909D01*
X123421919Y-76962002D01*
X123421919Y-76961997D01*
X123404353Y-76851090D01*
X123353373Y-76751034D01*
X123273965Y-76671626D01*
X123173909Y-76620646D01*
X123063002Y-76603081D01*
X123062998Y-76603081D01*
X122952090Y-76620646D01*
X122852034Y-76671626D01*
X122772626Y-76751034D01*
X122721646Y-76851090D01*
X122704081Y-76961997D01*
X122704081Y-76962002D01*
X120904000Y-76962002D01*
X120904000Y-75057002D01*
X121942081Y-75057002D01*
X121959646Y-75167909D01*
X122010626Y-75267965D01*
X122090034Y-75347373D01*
X122190090Y-75398353D01*
X122300998Y-75415919D01*
X122301000Y-75415919D01*
X122301002Y-75415919D01*
X122411909Y-75398353D01*
X122411910Y-75398352D01*
X122411912Y-75398352D01*
X122511967Y-75347372D01*
X122591372Y-75267967D01*
X122642352Y-75167912D01*
X122642352Y-75167910D01*
X122642353Y-75167909D01*
X122659919Y-75057002D01*
X122659919Y-75056997D01*
X122642353Y-74946090D01*
X122591373Y-74846034D01*
X122511965Y-74766626D01*
X122411909Y-74715646D01*
X122301002Y-74698081D01*
X122300998Y-74698081D01*
X122190090Y-74715646D01*
X122090034Y-74766626D01*
X122010626Y-74846034D01*
X121959646Y-74946090D01*
X121942081Y-75056997D01*
X121942081Y-75057002D01*
X120904000Y-75057002D01*
X120904000Y-73914002D01*
X123847081Y-73914002D01*
X123864646Y-74024909D01*
X123915625Y-74124963D01*
X123915626Y-74124964D01*
X123915628Y-74124967D01*
X123980859Y-74190198D01*
X123980860Y-74190199D01*
X124014344Y-74251523D01*
X124009359Y-74321214D01*
X124000421Y-74337595D01*
X124001397Y-74338128D01*
X123997145Y-74345913D01*
X123946903Y-74480620D01*
X123946901Y-74480627D01*
X123940500Y-74540155D01*
X123940500Y-75188000D01*
X124844928Y-75188000D01*
X124821818Y-75223960D01*
X124780500Y-75364673D01*
X124780500Y-75511327D01*
X124821818Y-75652040D01*
X124844928Y-75688000D01*
X123940500Y-75688000D01*
X123940500Y-76335844D01*
X123946901Y-76395372D01*
X123946903Y-76395379D01*
X123997145Y-76530086D01*
X123997149Y-76530093D01*
X124083309Y-76645187D01*
X124083312Y-76645190D01*
X124198406Y-76731350D01*
X124198413Y-76731354D01*
X124333120Y-76781596D01*
X124333127Y-76781598D01*
X124392655Y-76787999D01*
X124392672Y-76788000D01*
X125010078Y-76788000D01*
X125077117Y-76807685D01*
X125122872Y-76860489D01*
X125132816Y-76929647D01*
X125103791Y-76993203D01*
X125046074Y-77030660D01*
X124914615Y-77070538D01*
X124744807Y-77161302D01*
X124744800Y-77161306D01*
X124595958Y-77283458D01*
X124473806Y-77432300D01*
X124473802Y-77432307D01*
X124383038Y-77602115D01*
X124327143Y-77786373D01*
X124308270Y-77977999D01*
X124327143Y-78169626D01*
X124383038Y-78353884D01*
X124473802Y-78523692D01*
X124473806Y-78523699D01*
X124595958Y-78672541D01*
X124744800Y-78794693D01*
X124744807Y-78794697D01*
X124910179Y-78883090D01*
X124914617Y-78885462D01*
X125098876Y-78941357D01*
X125290500Y-78960230D01*
X125482124Y-78941357D01*
X125666383Y-78885462D01*
X125836198Y-78794694D01*
X125985041Y-78672541D01*
X126107194Y-78523698D01*
X126197962Y-78353883D01*
X126253857Y-78169624D01*
X126262979Y-78077002D01*
X139694081Y-78077002D01*
X139711646Y-78187909D01*
X139762626Y-78287965D01*
X139842034Y-78367373D01*
X139942090Y-78418353D01*
X140052998Y-78435919D01*
X140053000Y-78435919D01*
X140053002Y-78435919D01*
X140163909Y-78418353D01*
X140163910Y-78418352D01*
X140163912Y-78418352D01*
X140263967Y-78367372D01*
X140343372Y-78287967D01*
X140394352Y-78187912D01*
X140394352Y-78187910D01*
X140394353Y-78187909D01*
X140411919Y-78077002D01*
X140411919Y-78076997D01*
X140394353Y-77966090D01*
X140343373Y-77866034D01*
X140263965Y-77786626D01*
X140163909Y-77735646D01*
X140053002Y-77718081D01*
X140052998Y-77718081D01*
X139942090Y-77735646D01*
X139842034Y-77786626D01*
X139762626Y-77866034D01*
X139711646Y-77966090D01*
X139694081Y-78076997D01*
X139694081Y-78077002D01*
X126262979Y-78077002D01*
X126272730Y-77978000D01*
X126253857Y-77786376D01*
X126197962Y-77602117D01*
X126107194Y-77432302D01*
X126107193Y-77432300D01*
X125985041Y-77283458D01*
X125836199Y-77161306D01*
X125836192Y-77161302D01*
X125666384Y-77070538D01*
X125534926Y-77030660D01*
X125476488Y-76992363D01*
X125448031Y-76928550D01*
X125458592Y-76859483D01*
X125504817Y-76807090D01*
X125570922Y-76788000D01*
X126188328Y-76788000D01*
X126188344Y-76787999D01*
X126247872Y-76781598D01*
X126247879Y-76781596D01*
X126382586Y-76731354D01*
X126382593Y-76731350D01*
X126497687Y-76645190D01*
X126497690Y-76645187D01*
X126583850Y-76530093D01*
X126583854Y-76530086D01*
X126634096Y-76395379D01*
X126634098Y-76395372D01*
X126640499Y-76335844D01*
X141720500Y-76335844D01*
X141726901Y-76395372D01*
X141726903Y-76395379D01*
X141777145Y-76530086D01*
X141777149Y-76530093D01*
X141863309Y-76645187D01*
X141863312Y-76645190D01*
X141978406Y-76731350D01*
X141978413Y-76731354D01*
X142113120Y-76781596D01*
X142113127Y-76781598D01*
X142172655Y-76787999D01*
X142172672Y-76788000D01*
X142790078Y-76788000D01*
X142857117Y-76807685D01*
X142902872Y-76860489D01*
X142912816Y-76929647D01*
X142883791Y-76993203D01*
X142826074Y-77030660D01*
X142694615Y-77070538D01*
X142524807Y-77161302D01*
X142524800Y-77161306D01*
X142375958Y-77283458D01*
X142253806Y-77432300D01*
X142253802Y-77432307D01*
X142163038Y-77602115D01*
X142107143Y-77786373D01*
X142088270Y-77978000D01*
X142107143Y-78169626D01*
X142163038Y-78353884D01*
X142253802Y-78523692D01*
X142253806Y-78523699D01*
X142375958Y-78672541D01*
X142524800Y-78794693D01*
X142524807Y-78794697D01*
X142690179Y-78883090D01*
X142694617Y-78885462D01*
X142878876Y-78941357D01*
X143070500Y-78960230D01*
X143262124Y-78941357D01*
X143446383Y-78885462D01*
X143616198Y-78794694D01*
X143765041Y-78672541D01*
X143887194Y-78523698D01*
X143977962Y-78353883D01*
X144033857Y-78169624D01*
X144052730Y-77978000D01*
X144033857Y-77786376D01*
X143977962Y-77602117D01*
X143887194Y-77432302D01*
X143887193Y-77432300D01*
X143765041Y-77283458D01*
X143616199Y-77161306D01*
X143616192Y-77161302D01*
X143446384Y-77070538D01*
X143314926Y-77030660D01*
X143256488Y-76992363D01*
X143228031Y-76928550D01*
X143238592Y-76859483D01*
X143284817Y-76807090D01*
X143350922Y-76788000D01*
X143968328Y-76788000D01*
X143968344Y-76787999D01*
X144027872Y-76781598D01*
X144027879Y-76781596D01*
X144162586Y-76731354D01*
X144162593Y-76731350D01*
X144277687Y-76645190D01*
X144277690Y-76645187D01*
X144363850Y-76530093D01*
X144363854Y-76530086D01*
X144414096Y-76395379D01*
X144414098Y-76395372D01*
X144420499Y-76335844D01*
X144420500Y-76335827D01*
X144420500Y-75688000D01*
X143516072Y-75688000D01*
X143539182Y-75652040D01*
X143580500Y-75511327D01*
X143580500Y-75364673D01*
X143539182Y-75223960D01*
X143516072Y-75188000D01*
X144420500Y-75188000D01*
X144420500Y-74540172D01*
X144420499Y-74540155D01*
X144414098Y-74480627D01*
X144414096Y-74480620D01*
X144363854Y-74345913D01*
X144363850Y-74345906D01*
X144277690Y-74230812D01*
X144277687Y-74230809D01*
X144162593Y-74144649D01*
X144162586Y-74144645D01*
X144027879Y-74094403D01*
X144027872Y-74094401D01*
X143968344Y-74088000D01*
X143350922Y-74088000D01*
X143283883Y-74068315D01*
X143238128Y-74015511D01*
X143228184Y-73946353D01*
X143257209Y-73882797D01*
X143314926Y-73845340D01*
X143369594Y-73828755D01*
X143446383Y-73805462D01*
X143616198Y-73714694D01*
X143765041Y-73592541D01*
X143887194Y-73443698D01*
X143977962Y-73273883D01*
X144033857Y-73089624D01*
X144052730Y-72898000D01*
X144033857Y-72706376D01*
X143977962Y-72522117D01*
X143930346Y-72433033D01*
X143887197Y-72352307D01*
X143887193Y-72352300D01*
X143765041Y-72203458D01*
X143616199Y-72081306D01*
X143616192Y-72081302D01*
X143446384Y-71990538D01*
X143262126Y-71934643D01*
X143070500Y-71915770D01*
X142878873Y-71934643D01*
X142694615Y-71990538D01*
X142524807Y-72081302D01*
X142524800Y-72081306D01*
X142375958Y-72203458D01*
X142253806Y-72352300D01*
X142253802Y-72352307D01*
X142163038Y-72522115D01*
X142107143Y-72706373D01*
X142088270Y-72898000D01*
X142107143Y-73089626D01*
X142163038Y-73273884D01*
X142253802Y-73443692D01*
X142253806Y-73443699D01*
X142375958Y-73592541D01*
X142524800Y-73714693D01*
X142524807Y-73714697D01*
X142690179Y-73803090D01*
X142694617Y-73805462D01*
X142752755Y-73823098D01*
X142826074Y-73845340D01*
X142884512Y-73883637D01*
X142912969Y-73947450D01*
X142902408Y-74016517D01*
X142856183Y-74068910D01*
X142790078Y-74088000D01*
X142172655Y-74088000D01*
X142113127Y-74094401D01*
X142113120Y-74094403D01*
X141978413Y-74144645D01*
X141978406Y-74144649D01*
X141863312Y-74230809D01*
X141863309Y-74230812D01*
X141777149Y-74345906D01*
X141777145Y-74345913D01*
X141726903Y-74480620D01*
X141726901Y-74480627D01*
X141720500Y-74540155D01*
X141720500Y-75188000D01*
X142624928Y-75188000D01*
X142601818Y-75223960D01*
X142560500Y-75364673D01*
X142560500Y-75511327D01*
X142601818Y-75652040D01*
X142624928Y-75688000D01*
X141720500Y-75688000D01*
X141720500Y-76335844D01*
X126640499Y-76335844D01*
X126640500Y-76335827D01*
X126640500Y-75688000D01*
X125736072Y-75688000D01*
X125759182Y-75652040D01*
X125800500Y-75511327D01*
X125800500Y-75438002D01*
X135912081Y-75438002D01*
X135929646Y-75548909D01*
X135980626Y-75648965D01*
X136060034Y-75728373D01*
X136160090Y-75779353D01*
X136270998Y-75796919D01*
X136271000Y-75796919D01*
X136271002Y-75796919D01*
X136381909Y-75779353D01*
X136381910Y-75779352D01*
X136381912Y-75779352D01*
X136481967Y-75728372D01*
X136561372Y-75648967D01*
X136612352Y-75548912D01*
X136612352Y-75548910D01*
X136612353Y-75548909D01*
X136629919Y-75438002D01*
X136629919Y-75437997D01*
X136612353Y-75327090D01*
X136561373Y-75227034D01*
X136481965Y-75147626D01*
X136381909Y-75096646D01*
X136271002Y-75079081D01*
X136270998Y-75079081D01*
X136160090Y-75096646D01*
X136060034Y-75147626D01*
X135980626Y-75227034D01*
X135929646Y-75327090D01*
X135912081Y-75437997D01*
X135912081Y-75438002D01*
X125800500Y-75438002D01*
X125800500Y-75364673D01*
X125759182Y-75223960D01*
X125736072Y-75188000D01*
X126640500Y-75188000D01*
X126640500Y-74540172D01*
X126640499Y-74540155D01*
X126634098Y-74480627D01*
X126634096Y-74480620D01*
X126583854Y-74345913D01*
X126583850Y-74345906D01*
X126497690Y-74230812D01*
X126497687Y-74230809D01*
X126382593Y-74144649D01*
X126382586Y-74144645D01*
X126247879Y-74094403D01*
X126247872Y-74094401D01*
X126188344Y-74088000D01*
X125570922Y-74088000D01*
X125503883Y-74068315D01*
X125458128Y-74015511D01*
X125448184Y-73946353D01*
X125477209Y-73882797D01*
X125534926Y-73845340D01*
X125589594Y-73828755D01*
X125666383Y-73805462D01*
X125836198Y-73714694D01*
X125902840Y-73660002D01*
X137690081Y-73660002D01*
X137707646Y-73770909D01*
X137758626Y-73870965D01*
X137838034Y-73950373D01*
X137938090Y-74001353D01*
X138048998Y-74018919D01*
X138049000Y-74018919D01*
X138049002Y-74018919D01*
X138159909Y-74001353D01*
X138159910Y-74001352D01*
X138159912Y-74001352D01*
X138259967Y-73950372D01*
X138339372Y-73870967D01*
X138390352Y-73770912D01*
X138390352Y-73770910D01*
X138390353Y-73770909D01*
X138407919Y-73660002D01*
X138407919Y-73659997D01*
X138390353Y-73549090D01*
X138339373Y-73449034D01*
X138259965Y-73369626D01*
X138159909Y-73318646D01*
X138049002Y-73301081D01*
X138048998Y-73301081D01*
X137938090Y-73318646D01*
X137838034Y-73369626D01*
X137758626Y-73449034D01*
X137707646Y-73549090D01*
X137690081Y-73659997D01*
X137690081Y-73660002D01*
X125902840Y-73660002D01*
X125985041Y-73592541D01*
X126107194Y-73443698D01*
X126197962Y-73273883D01*
X126253857Y-73089624D01*
X126272730Y-72898000D01*
X126260222Y-72771002D01*
X135531081Y-72771002D01*
X135548646Y-72881909D01*
X135599626Y-72981965D01*
X135679034Y-73061373D01*
X135779090Y-73112353D01*
X135889998Y-73129919D01*
X135890000Y-73129919D01*
X135890002Y-73129919D01*
X136000909Y-73112353D01*
X136000910Y-73112352D01*
X136000912Y-73112352D01*
X136100967Y-73061372D01*
X136180372Y-72981967D01*
X136231352Y-72881912D01*
X136231352Y-72881910D01*
X136231353Y-72881909D01*
X136248919Y-72771002D01*
X136248919Y-72770997D01*
X136231353Y-72660090D01*
X136223156Y-72644002D01*
X139849081Y-72644002D01*
X139866646Y-72754909D01*
X139917626Y-72854965D01*
X139997034Y-72934373D01*
X140097090Y-72985353D01*
X140207998Y-73002919D01*
X140208000Y-73002919D01*
X140208002Y-73002919D01*
X140318909Y-72985353D01*
X140318910Y-72985352D01*
X140318912Y-72985352D01*
X140418967Y-72934372D01*
X140498372Y-72854967D01*
X140549352Y-72754912D01*
X140549352Y-72754910D01*
X140549353Y-72754909D01*
X140566919Y-72644002D01*
X140566919Y-72643997D01*
X140549353Y-72533090D01*
X140498373Y-72433034D01*
X140418965Y-72353626D01*
X140318909Y-72302646D01*
X140208002Y-72285081D01*
X140207998Y-72285081D01*
X140097090Y-72302646D01*
X139997034Y-72353626D01*
X139917626Y-72433034D01*
X139866646Y-72533090D01*
X139849081Y-72643997D01*
X139849081Y-72644002D01*
X136223156Y-72644002D01*
X136180373Y-72560034D01*
X136100965Y-72480626D01*
X136000909Y-72429646D01*
X135890002Y-72412081D01*
X135889998Y-72412081D01*
X135779090Y-72429646D01*
X135679034Y-72480626D01*
X135599626Y-72560034D01*
X135548646Y-72660090D01*
X135531081Y-72770997D01*
X135531081Y-72771002D01*
X126260222Y-72771002D01*
X126253857Y-72706376D01*
X126197962Y-72522117D01*
X126150346Y-72433033D01*
X126107197Y-72352307D01*
X126107193Y-72352300D01*
X125985041Y-72203458D01*
X125836199Y-72081306D01*
X125836192Y-72081302D01*
X125666384Y-71990538D01*
X125482126Y-71934643D01*
X125290500Y-71915770D01*
X125098873Y-71934643D01*
X124914615Y-71990538D01*
X124744807Y-72081302D01*
X124744800Y-72081306D01*
X124595958Y-72203458D01*
X124473806Y-72352300D01*
X124473802Y-72352307D01*
X124383038Y-72522115D01*
X124327143Y-72706373D01*
X124308270Y-72898000D01*
X124327143Y-73089626D01*
X124383036Y-73273880D01*
X124446056Y-73391782D01*
X124460297Y-73460185D01*
X124435297Y-73525429D01*
X124378991Y-73566799D01*
X124317300Y-73572708D01*
X124206003Y-73555081D01*
X124205998Y-73555081D01*
X124095090Y-73572646D01*
X123995034Y-73623626D01*
X123915626Y-73703034D01*
X123864646Y-73803090D01*
X123847081Y-73913997D01*
X123847081Y-73914002D01*
X120904000Y-73914002D01*
X120904000Y-71120002D01*
X121815081Y-71120002D01*
X121832646Y-71230909D01*
X121883626Y-71330965D01*
X121963034Y-71410373D01*
X122063090Y-71461353D01*
X122173998Y-71478919D01*
X122174000Y-71478919D01*
X122174002Y-71478919D01*
X122284909Y-71461353D01*
X122284910Y-71461352D01*
X122284912Y-71461352D01*
X122384967Y-71410372D01*
X122464372Y-71330967D01*
X122515352Y-71230912D01*
X122515352Y-71230910D01*
X122515353Y-71230909D01*
X122532919Y-71120002D01*
X122532919Y-71119997D01*
X122515353Y-71009090D01*
X122464373Y-70909034D01*
X122384965Y-70829626D01*
X122284909Y-70778646D01*
X122174002Y-70761081D01*
X122173998Y-70761081D01*
X122063090Y-70778646D01*
X121963034Y-70829626D01*
X121883626Y-70909034D01*
X121832646Y-71009090D01*
X121815081Y-71119997D01*
X121815081Y-71120002D01*
X120904000Y-71120002D01*
X120904000Y-70357999D01*
X124308270Y-70357999D01*
X124327143Y-70549626D01*
X124383038Y-70733884D01*
X124473802Y-70903692D01*
X124473806Y-70903699D01*
X124595958Y-71052541D01*
X124744800Y-71174693D01*
X124744807Y-71174697D01*
X124849973Y-71230909D01*
X124914617Y-71265462D01*
X125098876Y-71321357D01*
X125290500Y-71340230D01*
X125482124Y-71321357D01*
X125666383Y-71265462D01*
X125836198Y-71174694D01*
X125985041Y-71052541D01*
X126107194Y-70903698D01*
X126197962Y-70733883D01*
X126253857Y-70549624D01*
X126272730Y-70358000D01*
X142088270Y-70358000D01*
X142107143Y-70549626D01*
X142163038Y-70733884D01*
X142253802Y-70903692D01*
X142253806Y-70903699D01*
X142375958Y-71052541D01*
X142524800Y-71174693D01*
X142524807Y-71174697D01*
X142629973Y-71230909D01*
X142694617Y-71265462D01*
X142878876Y-71321357D01*
X143070500Y-71340230D01*
X143262124Y-71321357D01*
X143446383Y-71265462D01*
X143616198Y-71174694D01*
X143765041Y-71052541D01*
X143887194Y-70903698D01*
X143977962Y-70733883D01*
X144033857Y-70549624D01*
X144052730Y-70358000D01*
X144033857Y-70166376D01*
X143977962Y-69982117D01*
X143966626Y-69960909D01*
X143887197Y-69812307D01*
X143887193Y-69812300D01*
X143765041Y-69663458D01*
X143616199Y-69541306D01*
X143616192Y-69541302D01*
X143446384Y-69450538D01*
X143262126Y-69394643D01*
X143070500Y-69375770D01*
X142878873Y-69394643D01*
X142694615Y-69450538D01*
X142524807Y-69541302D01*
X142524800Y-69541306D01*
X142375958Y-69663458D01*
X142253806Y-69812300D01*
X142253802Y-69812307D01*
X142163038Y-69982115D01*
X142107143Y-70166373D01*
X142088270Y-70358000D01*
X126272730Y-70358000D01*
X126253857Y-70166376D01*
X126197962Y-69982117D01*
X126195228Y-69977002D01*
X128165081Y-69977002D01*
X128182646Y-70087909D01*
X128233626Y-70187965D01*
X128313034Y-70267373D01*
X128413090Y-70318353D01*
X128523998Y-70335919D01*
X128524000Y-70335919D01*
X128524002Y-70335919D01*
X128634909Y-70318353D01*
X128634910Y-70318352D01*
X128634912Y-70318352D01*
X128734967Y-70267372D01*
X128814372Y-70187967D01*
X128865352Y-70087912D01*
X128865352Y-70087910D01*
X128865353Y-70087909D01*
X128882919Y-69977002D01*
X128882919Y-69976997D01*
X128865353Y-69866090D01*
X128857156Y-69850002D01*
X134261081Y-69850002D01*
X134278646Y-69960909D01*
X134329626Y-70060965D01*
X134409034Y-70140373D01*
X134509090Y-70191353D01*
X134619998Y-70208919D01*
X134620000Y-70208919D01*
X134620002Y-70208919D01*
X134730909Y-70191353D01*
X134730910Y-70191352D01*
X134730912Y-70191352D01*
X134830967Y-70140372D01*
X134910372Y-70060967D01*
X134961352Y-69960912D01*
X134961352Y-69960910D01*
X134961353Y-69960909D01*
X134978919Y-69850002D01*
X134978919Y-69849997D01*
X134961353Y-69739090D01*
X134910373Y-69639034D01*
X134830965Y-69559626D01*
X134730909Y-69508646D01*
X134620002Y-69491081D01*
X134619998Y-69491081D01*
X134509090Y-69508646D01*
X134409034Y-69559626D01*
X134329626Y-69639034D01*
X134278646Y-69739090D01*
X134261081Y-69849997D01*
X134261081Y-69850002D01*
X128857156Y-69850002D01*
X128814373Y-69766034D01*
X128734965Y-69686626D01*
X128634909Y-69635646D01*
X128524002Y-69618081D01*
X128523998Y-69618081D01*
X128413090Y-69635646D01*
X128313034Y-69686626D01*
X128233626Y-69766034D01*
X128182646Y-69866090D01*
X128165081Y-69976997D01*
X128165081Y-69977002D01*
X126195228Y-69977002D01*
X126186626Y-69960909D01*
X126107197Y-69812307D01*
X126107193Y-69812300D01*
X125985041Y-69663458D01*
X125836199Y-69541306D01*
X125836192Y-69541302D01*
X125666384Y-69450538D01*
X125482126Y-69394643D01*
X125290500Y-69375770D01*
X125098873Y-69394643D01*
X124914615Y-69450538D01*
X124744807Y-69541302D01*
X124744800Y-69541306D01*
X124595958Y-69663458D01*
X124473806Y-69812300D01*
X124473802Y-69812307D01*
X124383038Y-69982115D01*
X124327143Y-70166373D01*
X124308270Y-70357999D01*
X120904000Y-70357999D01*
X120904000Y-69215002D01*
X133372081Y-69215002D01*
X133389646Y-69325909D01*
X133440626Y-69425965D01*
X133520034Y-69505373D01*
X133620090Y-69556353D01*
X133730998Y-69573919D01*
X133731000Y-69573919D01*
X133731002Y-69573919D01*
X133841909Y-69556353D01*
X133841910Y-69556352D01*
X133841912Y-69556352D01*
X133941967Y-69505372D01*
X134021372Y-69425967D01*
X134072352Y-69325912D01*
X134072352Y-69325910D01*
X134072353Y-69325909D01*
X134089919Y-69215002D01*
X134089919Y-69214997D01*
X134072353Y-69104090D01*
X134021373Y-69004034D01*
X133941965Y-68924626D01*
X133841909Y-68873646D01*
X133731002Y-68856081D01*
X133730998Y-68856081D01*
X133620090Y-68873646D01*
X133520034Y-68924626D01*
X133440626Y-69004034D01*
X133389646Y-69104090D01*
X133372081Y-69214997D01*
X133372081Y-69215002D01*
X120904000Y-69215002D01*
X120904000Y-68580002D01*
X135277081Y-68580002D01*
X135294646Y-68690909D01*
X135345626Y-68790965D01*
X135425034Y-68870373D01*
X135525090Y-68921353D01*
X135635998Y-68938919D01*
X135636000Y-68938919D01*
X135636002Y-68938919D01*
X135746909Y-68921353D01*
X135746910Y-68921352D01*
X135746912Y-68921352D01*
X135805205Y-68891650D01*
X135833706Y-68877129D01*
X135902375Y-68864233D01*
X135946294Y-68877129D01*
X136033090Y-68921353D01*
X136143998Y-68938919D01*
X136144000Y-68938919D01*
X136144002Y-68938919D01*
X136254909Y-68921353D01*
X136254910Y-68921352D01*
X136254912Y-68921352D01*
X136313205Y-68891650D01*
X136341706Y-68877129D01*
X136410375Y-68864233D01*
X136454294Y-68877129D01*
X136541090Y-68921353D01*
X136651998Y-68938919D01*
X136652000Y-68938919D01*
X136652002Y-68938919D01*
X136762909Y-68921353D01*
X136762910Y-68921352D01*
X136762912Y-68921352D01*
X136862967Y-68870372D01*
X136942372Y-68790967D01*
X136993352Y-68690912D01*
X136993352Y-68690910D01*
X136993353Y-68690909D01*
X137010919Y-68580002D01*
X137010919Y-68579997D01*
X136993353Y-68469090D01*
X136942373Y-68369034D01*
X136862965Y-68289626D01*
X136762909Y-68238646D01*
X136652002Y-68221081D01*
X136651998Y-68221081D01*
X136541091Y-68238646D01*
X136454293Y-68282871D01*
X136385623Y-68295766D01*
X136341707Y-68282871D01*
X136254908Y-68238646D01*
X136144002Y-68221081D01*
X136143998Y-68221081D01*
X136033091Y-68238646D01*
X135946293Y-68282871D01*
X135877623Y-68295766D01*
X135833707Y-68282871D01*
X135746908Y-68238646D01*
X135636002Y-68221081D01*
X135635998Y-68221081D01*
X135525090Y-68238646D01*
X135425034Y-68289626D01*
X135345626Y-68369034D01*
X135294646Y-68469090D01*
X135277081Y-68579997D01*
X135277081Y-68580002D01*
X120904000Y-68580002D01*
X120904000Y-68072002D01*
X131086081Y-68072002D01*
X131103646Y-68182909D01*
X131154626Y-68282965D01*
X131234034Y-68362373D01*
X131334090Y-68413353D01*
X131444998Y-68430919D01*
X131445000Y-68430919D01*
X131445002Y-68430919D01*
X131555909Y-68413353D01*
X131555910Y-68413352D01*
X131555912Y-68413352D01*
X131614205Y-68383650D01*
X131642706Y-68369129D01*
X131711375Y-68356233D01*
X131755294Y-68369129D01*
X131842090Y-68413353D01*
X131952998Y-68430919D01*
X131953000Y-68430919D01*
X131953002Y-68430919D01*
X132063909Y-68413353D01*
X132063910Y-68413352D01*
X132063912Y-68413352D01*
X132163967Y-68362372D01*
X132243372Y-68282967D01*
X132294352Y-68182912D01*
X132294352Y-68182910D01*
X132294353Y-68182909D01*
X132311919Y-68072002D01*
X132311919Y-68071997D01*
X132294353Y-67961090D01*
X132243373Y-67861034D01*
X132163965Y-67781626D01*
X132063909Y-67730646D01*
X131953002Y-67713081D01*
X131952998Y-67713081D01*
X131842091Y-67730646D01*
X131755293Y-67774871D01*
X131686623Y-67787766D01*
X131642707Y-67774871D01*
X131555908Y-67730646D01*
X131445002Y-67713081D01*
X131444998Y-67713081D01*
X131334090Y-67730646D01*
X131234034Y-67781626D01*
X131154626Y-67861034D01*
X131103646Y-67961090D01*
X131086081Y-68071997D01*
X131086081Y-68072002D01*
X120904000Y-68072002D01*
X120904000Y-66290000D01*
X121483364Y-66290000D01*
X121540567Y-66503486D01*
X121540570Y-66503492D01*
X121640399Y-66717578D01*
X121775894Y-66911082D01*
X121942917Y-67078105D01*
X122136421Y-67213600D01*
X122350507Y-67313429D01*
X122350516Y-67313433D01*
X122563998Y-67370635D01*
X122563999Y-67370634D01*
X122563999Y-66475501D01*
X122671685Y-66524680D01*
X122778237Y-66540000D01*
X122849763Y-66540000D01*
X122956315Y-66524680D01*
X123064000Y-66475501D01*
X123064000Y-67370633D01*
X123277483Y-67313433D01*
X123277492Y-67313429D01*
X123491578Y-67213600D01*
X123685082Y-67078105D01*
X123852105Y-66911082D01*
X123987600Y-66717578D01*
X124087429Y-66503492D01*
X124087433Y-66503483D01*
X124132725Y-66334451D01*
X124169090Y-66274790D01*
X124231937Y-66244261D01*
X124301312Y-66252556D01*
X124355190Y-66297041D01*
X124376465Y-66363593D01*
X124376500Y-66366544D01*
X124376500Y-66902558D01*
X124383898Y-66939749D01*
X124412077Y-66981922D01*
X124454250Y-67010101D01*
X124454252Y-67010102D01*
X124482205Y-67015662D01*
X124491441Y-67017500D01*
X124491442Y-67017500D01*
X126216559Y-67017500D01*
X126223957Y-67016028D01*
X126253748Y-67010102D01*
X126295922Y-66981922D01*
X126324102Y-66939748D01*
X126331500Y-66902558D01*
X126331500Y-65177442D01*
X126324102Y-65140252D01*
X126324101Y-65140250D01*
X126295922Y-65098077D01*
X126253749Y-65069898D01*
X126216559Y-65062500D01*
X126216558Y-65062500D01*
X124491442Y-65062500D01*
X124491441Y-65062500D01*
X124454250Y-65069898D01*
X124412077Y-65098077D01*
X124383898Y-65140250D01*
X124376500Y-65177441D01*
X124376500Y-65713455D01*
X124356815Y-65780494D01*
X124304011Y-65826249D01*
X124234853Y-65836193D01*
X124171297Y-65807168D01*
X124133523Y-65748390D01*
X124132725Y-65745548D01*
X124087433Y-65576516D01*
X124087429Y-65576507D01*
X123987600Y-65362422D01*
X123987599Y-65362420D01*
X123852113Y-65168926D01*
X123852108Y-65168920D01*
X123685082Y-65001894D01*
X123491578Y-64866399D01*
X123277492Y-64766570D01*
X123277486Y-64766567D01*
X123064000Y-64709364D01*
X123064000Y-65604498D01*
X122956315Y-65555320D01*
X122849763Y-65540000D01*
X122778237Y-65540000D01*
X122671685Y-65555320D01*
X122563999Y-65604498D01*
X122563999Y-64709364D01*
X122563998Y-64709364D01*
X122350505Y-64766570D01*
X122136422Y-64866399D01*
X122136420Y-64866400D01*
X121942926Y-65001886D01*
X121942920Y-65001891D01*
X121775891Y-65168920D01*
X121775886Y-65168926D01*
X121640400Y-65362420D01*
X121640399Y-65362422D01*
X121540570Y-65576507D01*
X121540567Y-65576513D01*
X121483364Y-65789999D01*
X121483364Y-65790000D01*
X122380314Y-65790000D01*
X122354507Y-65830156D01*
X122314000Y-65968111D01*
X122314000Y-66111889D01*
X122354507Y-66249844D01*
X122380314Y-66290000D01*
X121483364Y-66290000D01*
X120904000Y-66290000D01*
X120904000Y-64927478D01*
X120923685Y-64860439D01*
X120976489Y-64814684D01*
X120983529Y-64812091D01*
X120984938Y-64811390D01*
X120990462Y-64809538D01*
X120994070Y-64808210D01*
X120996424Y-64807540D01*
X121005940Y-64804350D01*
X121014431Y-64801061D01*
X121014433Y-64801061D01*
X121047965Y-64780297D01*
X121052919Y-64777538D01*
X121088228Y-64759958D01*
X121088228Y-64759957D01*
X121095523Y-64754448D01*
X121103197Y-64748076D01*
X121109949Y-64741921D01*
X121109949Y-64741920D01*
X121109952Y-64741919D01*
X121133715Y-64710449D01*
X121137341Y-64706082D01*
X121163916Y-64676933D01*
X121163918Y-64676927D01*
X121168721Y-64669170D01*
X121173579Y-64660448D01*
X121177650Y-64652271D01*
X121177656Y-64652264D01*
X121188445Y-64614338D01*
X121190251Y-64608951D01*
X121204500Y-64572173D01*
X121204500Y-64572170D01*
X121204501Y-64572168D01*
X121206172Y-64563229D01*
X121207561Y-64553276D01*
X121208401Y-64544207D01*
X121204765Y-64504964D01*
X121204500Y-64499241D01*
X121204500Y-64262002D01*
X129181081Y-64262002D01*
X129198646Y-64372909D01*
X129249626Y-64472965D01*
X129329034Y-64552373D01*
X129429090Y-64603353D01*
X129539998Y-64620919D01*
X129540000Y-64620919D01*
X129540002Y-64620919D01*
X129650909Y-64603353D01*
X129650910Y-64603352D01*
X129650912Y-64603352D01*
X129750967Y-64552372D01*
X129830372Y-64472967D01*
X129881352Y-64372912D01*
X129881352Y-64372910D01*
X129881353Y-64372909D01*
X129898919Y-64262002D01*
X129898919Y-64261997D01*
X129881353Y-64151090D01*
X129830373Y-64051034D01*
X129750965Y-63971626D01*
X129650909Y-63920646D01*
X129540002Y-63903081D01*
X129539998Y-63903081D01*
X129429090Y-63920646D01*
X129329034Y-63971626D01*
X129249626Y-64051034D01*
X129198646Y-64151090D01*
X129181081Y-64261997D01*
X129181081Y-64262002D01*
X121204500Y-64262002D01*
X121204500Y-63309067D01*
X135927750Y-63309067D01*
X135967281Y-63495045D01*
X136044615Y-63668741D01*
X136156373Y-63822562D01*
X136297670Y-63949786D01*
X136462330Y-64044853D01*
X136643158Y-64103608D01*
X136784849Y-64118500D01*
X136784854Y-64118500D01*
X136879646Y-64118500D01*
X136879651Y-64118500D01*
X137021342Y-64103608D01*
X137202170Y-64044853D01*
X137366830Y-63949786D01*
X137508127Y-63822562D01*
X137619885Y-63668741D01*
X137697219Y-63495045D01*
X137736750Y-63309067D01*
X142927750Y-63309067D01*
X142967281Y-63495045D01*
X143044615Y-63668741D01*
X143156373Y-63822562D01*
X143297670Y-63949786D01*
X143462330Y-64044853D01*
X143643158Y-64103608D01*
X143784849Y-64118500D01*
X143784854Y-64118500D01*
X143879646Y-64118500D01*
X143879651Y-64118500D01*
X144021342Y-64103608D01*
X144202170Y-64044853D01*
X144366830Y-63949786D01*
X144508127Y-63822562D01*
X144619885Y-63668741D01*
X144697219Y-63495045D01*
X144736750Y-63309067D01*
X144736750Y-63118933D01*
X144697219Y-62932955D01*
X144619885Y-62759259D01*
X144508127Y-62605438D01*
X144366830Y-62478214D01*
X144202170Y-62383147D01*
X144202163Y-62383144D01*
X144021345Y-62324393D01*
X144021342Y-62324392D01*
X143879651Y-62309500D01*
X143784849Y-62309500D01*
X143643158Y-62324392D01*
X143643155Y-62324392D01*
X143643154Y-62324393D01*
X143462336Y-62383144D01*
X143462329Y-62383147D01*
X143297671Y-62478213D01*
X143156374Y-62605436D01*
X143044616Y-62759257D01*
X142967280Y-62932957D01*
X142927750Y-63118933D01*
X142927750Y-63309067D01*
X137736750Y-63309067D01*
X137736750Y-63118933D01*
X137697219Y-62932955D01*
X137619885Y-62759259D01*
X137508127Y-62605438D01*
X137366830Y-62478214D01*
X137202170Y-62383147D01*
X137202163Y-62383144D01*
X137021345Y-62324393D01*
X137021342Y-62324392D01*
X136879651Y-62309500D01*
X136784849Y-62309500D01*
X136643158Y-62324392D01*
X136643155Y-62324392D01*
X136643154Y-62324393D01*
X136462336Y-62383144D01*
X136462329Y-62383147D01*
X136297671Y-62478213D01*
X136156374Y-62605436D01*
X136044616Y-62759257D01*
X135967280Y-62932957D01*
X135927750Y-63118933D01*
X135927750Y-63309067D01*
X121204500Y-63309067D01*
X121204500Y-60960002D01*
X129689081Y-60960002D01*
X129706646Y-61070909D01*
X129757626Y-61170965D01*
X129837034Y-61250373D01*
X129937090Y-61301353D01*
X130047998Y-61318919D01*
X130048000Y-61318919D01*
X130048002Y-61318919D01*
X130158909Y-61301353D01*
X130158910Y-61301352D01*
X130158912Y-61301352D01*
X130258967Y-61250372D01*
X130338372Y-61170967D01*
X130389352Y-61070912D01*
X130389352Y-61070910D01*
X130389353Y-61070909D01*
X130406919Y-60960002D01*
X130406919Y-60959997D01*
X130389353Y-60849090D01*
X130345128Y-60762293D01*
X130332232Y-60693624D01*
X130345125Y-60649712D01*
X130389352Y-60562912D01*
X130406919Y-60452000D01*
X130406919Y-60451997D01*
X130389353Y-60341090D01*
X130338373Y-60241034D01*
X130258965Y-60161626D01*
X130158909Y-60110646D01*
X130048002Y-60093081D01*
X130047998Y-60093081D01*
X129937090Y-60110646D01*
X129837034Y-60161626D01*
X129757626Y-60241034D01*
X129706646Y-60341090D01*
X129689081Y-60451997D01*
X129689081Y-60452002D01*
X129706646Y-60562908D01*
X129750871Y-60649707D01*
X129763766Y-60718377D01*
X129750871Y-60762293D01*
X129706646Y-60849091D01*
X129689081Y-60959997D01*
X129689081Y-60960002D01*
X121204500Y-60960002D01*
X121204500Y-58844500D01*
X121224185Y-58777461D01*
X121276989Y-58731706D01*
X121328500Y-58720500D01*
X144863500Y-58720500D01*
X144930539Y-58740185D01*
G37*
%TD.AperFunction*%
%TD*%
M02*
