%TF.GenerationSoftware,KiCad,Pcbnew,8.0.1*%
%TF.CreationDate,2024-05-10T13:07:50-06:00*%
%TF.ProjectId,PicoGUS Hand386,5069636f-4755-4532-9048-616e64333836,rev?*%
%TF.SameCoordinates,Original*%
%TF.FileFunction,Other,Comment*%
%FSLAX46Y46*%
G04 Gerber Fmt 4.6, Leading zero omitted, Abs format (unit mm)*
G04 Created by KiCad (PCBNEW 8.0.1) date 2024-05-10 13:07:50*
%MOMM*%
%LPD*%
G01*
G04 APERTURE LIST*
%ADD10C,0.150000*%
%ADD11C,0.400000*%
%ADD12C,0.000000*%
G04 APERTURE END LIST*
D10*
X139663152Y-65795238D02*
X140472676Y-65795238D01*
X140472676Y-65795238D02*
X140567914Y-65842857D01*
X140567914Y-65842857D02*
X140615533Y-65890476D01*
X140615533Y-65890476D02*
X140663152Y-65985714D01*
X140663152Y-65985714D02*
X140663152Y-66128571D01*
X140663152Y-66128571D02*
X140615533Y-66223809D01*
X140282200Y-65795238D02*
X140329819Y-65890476D01*
X140329819Y-65890476D02*
X140329819Y-66080952D01*
X140329819Y-66080952D02*
X140282200Y-66176190D01*
X140282200Y-66176190D02*
X140234580Y-66223809D01*
X140234580Y-66223809D02*
X140139342Y-66271428D01*
X140139342Y-66271428D02*
X139853628Y-66271428D01*
X139853628Y-66271428D02*
X139758390Y-66223809D01*
X139758390Y-66223809D02*
X139710771Y-66176190D01*
X139710771Y-66176190D02*
X139663152Y-66080952D01*
X139663152Y-66080952D02*
X139663152Y-65890476D01*
X139663152Y-65890476D02*
X139710771Y-65795238D01*
X139663152Y-64890476D02*
X140472676Y-64890476D01*
X140472676Y-64890476D02*
X140567914Y-64938095D01*
X140567914Y-64938095D02*
X140615533Y-64985714D01*
X140615533Y-64985714D02*
X140663152Y-65080952D01*
X140663152Y-65080952D02*
X140663152Y-65223809D01*
X140663152Y-65223809D02*
X140615533Y-65319047D01*
X140282200Y-64890476D02*
X140329819Y-64985714D01*
X140329819Y-64985714D02*
X140329819Y-65176190D01*
X140329819Y-65176190D02*
X140282200Y-65271428D01*
X140282200Y-65271428D02*
X140234580Y-65319047D01*
X140234580Y-65319047D02*
X140139342Y-65366666D01*
X140139342Y-65366666D02*
X139853628Y-65366666D01*
X139853628Y-65366666D02*
X139758390Y-65319047D01*
X139758390Y-65319047D02*
X139710771Y-65271428D01*
X139710771Y-65271428D02*
X139663152Y-65176190D01*
X139663152Y-65176190D02*
X139663152Y-64985714D01*
X139663152Y-64985714D02*
X139710771Y-64890476D01*
X140282200Y-64033333D02*
X140329819Y-64128571D01*
X140329819Y-64128571D02*
X140329819Y-64319047D01*
X140329819Y-64319047D02*
X140282200Y-64414285D01*
X140282200Y-64414285D02*
X140186961Y-64461904D01*
X140186961Y-64461904D02*
X139806009Y-64461904D01*
X139806009Y-64461904D02*
X139710771Y-64414285D01*
X139710771Y-64414285D02*
X139663152Y-64319047D01*
X139663152Y-64319047D02*
X139663152Y-64128571D01*
X139663152Y-64128571D02*
X139710771Y-64033333D01*
X139710771Y-64033333D02*
X139806009Y-63985714D01*
X139806009Y-63985714D02*
X139901247Y-63985714D01*
X139901247Y-63985714D02*
X139996485Y-64461904D01*
X140329819Y-63033333D02*
X140329819Y-63604761D01*
X140329819Y-63319047D02*
X139329819Y-63319047D01*
X139329819Y-63319047D02*
X139472676Y-63414285D01*
X139472676Y-63414285D02*
X139567914Y-63509523D01*
X139567914Y-63509523D02*
X139615533Y-63604761D01*
X139758390Y-62461904D02*
X139710771Y-62557142D01*
X139710771Y-62557142D02*
X139663152Y-62604761D01*
X139663152Y-62604761D02*
X139567914Y-62652380D01*
X139567914Y-62652380D02*
X139520295Y-62652380D01*
X139520295Y-62652380D02*
X139425057Y-62604761D01*
X139425057Y-62604761D02*
X139377438Y-62557142D01*
X139377438Y-62557142D02*
X139329819Y-62461904D01*
X139329819Y-62461904D02*
X139329819Y-62271428D01*
X139329819Y-62271428D02*
X139377438Y-62176190D01*
X139377438Y-62176190D02*
X139425057Y-62128571D01*
X139425057Y-62128571D02*
X139520295Y-62080952D01*
X139520295Y-62080952D02*
X139567914Y-62080952D01*
X139567914Y-62080952D02*
X139663152Y-62128571D01*
X139663152Y-62128571D02*
X139710771Y-62176190D01*
X139710771Y-62176190D02*
X139758390Y-62271428D01*
X139758390Y-62271428D02*
X139758390Y-62461904D01*
X139758390Y-62461904D02*
X139806009Y-62557142D01*
X139806009Y-62557142D02*
X139853628Y-62604761D01*
X139853628Y-62604761D02*
X139948866Y-62652380D01*
X139948866Y-62652380D02*
X140139342Y-62652380D01*
X140139342Y-62652380D02*
X140234580Y-62604761D01*
X140234580Y-62604761D02*
X140282200Y-62557142D01*
X140282200Y-62557142D02*
X140329819Y-62461904D01*
X140329819Y-62461904D02*
X140329819Y-62271428D01*
X140329819Y-62271428D02*
X140282200Y-62176190D01*
X140282200Y-62176190D02*
X140234580Y-62128571D01*
X140234580Y-62128571D02*
X140139342Y-62080952D01*
X140139342Y-62080952D02*
X139948866Y-62080952D01*
X139948866Y-62080952D02*
X139853628Y-62128571D01*
X139853628Y-62128571D02*
X139806009Y-62176190D01*
X139806009Y-62176190D02*
X139758390Y-62271428D01*
X139663152Y-61223809D02*
X140329819Y-61223809D01*
X139282200Y-61461904D02*
X139996485Y-61699999D01*
X139996485Y-61699999D02*
X139996485Y-61080952D01*
D11*
%TO.C,J1*%
X138445000Y-125389000D02*
G75*
G02*
X138045000Y-125389000I-200000J0D01*
G01*
X138045000Y-125389000D02*
G75*
G02*
X138445000Y-125389000I200000J0D01*
G01*
X138445000Y-130389000D02*
G75*
G02*
X138045000Y-130389000I-200000J0D01*
G01*
X138045000Y-130389000D02*
G75*
G02*
X138445000Y-130389000I200000J0D01*
G01*
D12*
G36*
X150477000Y-130366000D02*
G01*
X147937000Y-130366000D01*
X147937000Y-130112000D01*
X150223000Y-130112000D01*
X150223000Y-125667000D01*
X147937000Y-125667000D01*
X147937000Y-125413000D01*
X150477000Y-125413000D01*
X150477000Y-130366000D01*
G37*
%TD*%
M02*
