%TF.GenerationSoftware,KiCad,Pcbnew,8.0.1*%
%TF.CreationDate,2024-05-10T13:07:50-06:00*%
%TF.ProjectId,PicoGUS Hand386,5069636f-4755-4532-9048-616e64333836,rev?*%
%TF.SameCoordinates,Original*%
%TF.FileFunction,Soldermask,Top*%
%TF.FilePolarity,Negative*%
%FSLAX46Y46*%
G04 Gerber Fmt 4.6, Leading zero omitted, Abs format (unit mm)*
G04 Created by KiCad (PCBNEW 8.0.1) date 2024-05-10 13:07:50*
%MOMM*%
%LPD*%
G01*
G04 APERTURE LIST*
G04 Aperture macros list*
%AMRoundRect*
0 Rectangle with rounded corners*
0 $1 Rounding radius*
0 $2 $3 $4 $5 $6 $7 $8 $9 X,Y pos of 4 corners*
0 Add a 4 corners polygon primitive as box body*
4,1,4,$2,$3,$4,$5,$6,$7,$8,$9,$2,$3,0*
0 Add four circle primitives for the rounded corners*
1,1,$1+$1,$2,$3*
1,1,$1+$1,$4,$5*
1,1,$1+$1,$6,$7*
1,1,$1+$1,$8,$9*
0 Add four rect primitives between the rounded corners*
20,1,$1+$1,$2,$3,$4,$5,0*
20,1,$1+$1,$4,$5,$6,$7,0*
20,1,$1+$1,$6,$7,$8,$9,0*
20,1,$1+$1,$8,$9,$2,$3,0*%
G04 Aperture macros list end*
%ADD10RoundRect,0.140000X-0.170000X0.140000X-0.170000X-0.140000X0.170000X-0.140000X0.170000X0.140000X0*%
%ADD11RoundRect,0.250000X-0.262500X-0.450000X0.262500X-0.450000X0.262500X0.450000X-0.262500X0.450000X0*%
%ADD12C,1.300000*%
%ADD13RoundRect,0.100000X-0.637500X-0.100000X0.637500X-0.100000X0.637500X0.100000X-0.637500X0.100000X0*%
%ADD14R,1.700000X1.700000*%
%ADD15O,1.700000X1.700000*%
%ADD16RoundRect,0.150000X0.150000X-0.825000X0.150000X0.825000X-0.150000X0.825000X-0.150000X-0.825000X0*%
%ADD17RoundRect,0.140000X-0.140000X-0.170000X0.140000X-0.170000X0.140000X0.170000X-0.140000X0.170000X0*%
%ADD18RoundRect,0.250000X0.325000X0.650000X-0.325000X0.650000X-0.325000X-0.650000X0.325000X-0.650000X0*%
%ADD19RoundRect,0.135000X-0.135000X-0.185000X0.135000X-0.185000X0.135000X0.185000X-0.135000X0.185000X0*%
%ADD20R,3.350000X1.250000*%
%ADD21C,1.100000*%
%ADD22R,1.500000X2.200000*%
%ADD23RoundRect,0.135000X0.185000X-0.135000X0.185000X0.135000X-0.185000X0.135000X-0.185000X-0.135000X0*%
%ADD24RoundRect,0.150000X-0.512500X-0.150000X0.512500X-0.150000X0.512500X0.150000X-0.512500X0.150000X0*%
%ADD25O,1.800000X1.600000*%
%ADD26RoundRect,0.140000X0.140000X0.170000X-0.140000X0.170000X-0.140000X-0.170000X0.140000X-0.170000X0*%
%ADD27RoundRect,0.218750X-0.218750X-0.256250X0.218750X-0.256250X0.218750X0.256250X-0.218750X0.256250X0*%
%ADD28RoundRect,0.100000X0.100000X-0.637500X0.100000X0.637500X-0.100000X0.637500X-0.100000X-0.637500X0*%
%ADD29RoundRect,0.225000X0.225000X0.375000X-0.225000X0.375000X-0.225000X-0.375000X0.225000X-0.375000X0*%
%ADD30RoundRect,0.225000X-0.225000X-0.250000X0.225000X-0.250000X0.225000X0.250000X-0.225000X0.250000X0*%
%ADD31C,1.200000*%
%ADD32R,1.500000X3.100000*%
%ADD33RoundRect,0.250000X0.262500X0.450000X-0.262500X0.450000X-0.262500X-0.450000X0.262500X-0.450000X0*%
G04 APERTURE END LIST*
D10*
%TO.C,C10*%
X134620000Y-70386000D03*
X134620000Y-71346000D03*
%TD*%
D11*
%TO.C,R3*%
X128675000Y-61000000D03*
X130500000Y-61000000D03*
%TD*%
D12*
%TO.C,JLCTOOLING3*%
X141200000Y-67700000D03*
%TD*%
D13*
%TO.C,U3*%
X131318000Y-104487000D03*
X131318000Y-105137000D03*
X131318000Y-105787000D03*
X131318000Y-106437000D03*
X131318000Y-107087000D03*
X131318000Y-107737000D03*
X131318000Y-108387000D03*
X131318000Y-109037000D03*
X137043000Y-109037000D03*
X137043000Y-108387000D03*
X137043000Y-107737000D03*
X137043000Y-107087000D03*
X137043000Y-106437000D03*
X137043000Y-105787000D03*
X137043000Y-105137000D03*
X137043000Y-104487000D03*
%TD*%
D14*
%TO.C,J6*%
X124714000Y-66040000D03*
D15*
X122174000Y-66040000D03*
%TD*%
D13*
%TO.C,U6*%
X128338500Y-79920000D03*
X128338500Y-80570000D03*
X128338500Y-81220000D03*
X128338500Y-81870000D03*
X128338500Y-82520000D03*
X128338500Y-83170000D03*
X128338500Y-83820000D03*
X134063500Y-83820000D03*
X134063500Y-83170000D03*
X134063500Y-82520000D03*
X134063500Y-81870000D03*
X134063500Y-81220000D03*
X134063500Y-80570000D03*
X134063500Y-79920000D03*
%TD*%
D14*
%TO.C,JP1*%
X124719000Y-62230000D03*
D15*
X122179000Y-62230000D03*
%TD*%
D16*
%TO.C,U8*%
X129296000Y-75791000D03*
X130566000Y-75791000D03*
X131836000Y-75791000D03*
X133106000Y-75791000D03*
X133106000Y-70841000D03*
X131836000Y-70841000D03*
X130566000Y-70841000D03*
X129296000Y-70841000D03*
%TD*%
D17*
%TO.C,C13*%
X124570000Y-122450000D03*
X125530000Y-122450000D03*
%TD*%
%TO.C,C3*%
X138712000Y-88011000D03*
X139672000Y-88011000D03*
%TD*%
D12*
%TO.C,JLCTOOLING1*%
X120600000Y-129700000D03*
%TD*%
D18*
%TO.C,C2*%
X132075000Y-66000000D03*
X129125000Y-66000000D03*
%TD*%
D17*
%TO.C,C9*%
X138585000Y-104394000D03*
X139545000Y-104394000D03*
%TD*%
D19*
%TO.C,R6*%
X130169000Y-127508000D03*
X131189000Y-127508000D03*
%TD*%
D17*
%TO.C,C18*%
X130199000Y-128524000D03*
X131159000Y-128524000D03*
%TD*%
D20*
%TO.C,J3*%
X118058000Y-65500000D03*
X118058000Y-67500000D03*
X118058000Y-69500000D03*
X118058000Y-71500000D03*
X118058000Y-73500000D03*
X118058000Y-75500000D03*
X118058000Y-77500000D03*
X118058000Y-79500000D03*
X118058000Y-81500000D03*
X118058000Y-83500000D03*
X118058000Y-85500000D03*
X118058000Y-87500000D03*
X118058000Y-89500000D03*
X118058000Y-91500000D03*
X118058000Y-93500000D03*
X118058000Y-95500000D03*
X118058000Y-97500000D03*
X118058000Y-99500000D03*
X118058000Y-101500000D03*
X118058000Y-103500000D03*
X118058000Y-105500000D03*
X118058000Y-107500000D03*
X118058000Y-109500000D03*
X118058000Y-111500000D03*
X118058000Y-113500000D03*
X118058000Y-115500000D03*
X118058000Y-117500000D03*
X118058000Y-119500000D03*
X118058000Y-121500000D03*
X118058000Y-123500000D03*
%TD*%
D21*
%TO.C,J5*%
X143275000Y-63800000D03*
X138275000Y-63800000D03*
D22*
X136275000Y-66100000D03*
X143275000Y-60900000D03*
X143475000Y-66500000D03*
X136775000Y-61500000D03*
%TD*%
D17*
%TO.C,C12*%
X123853000Y-131826000D03*
X124813000Y-131826000D03*
%TD*%
D12*
%TO.C,JLCTOOLING2*%
X127500000Y-59300000D03*
%TD*%
D23*
%TO.C,R5*%
X130171000Y-126496000D03*
X130171000Y-125476000D03*
%TD*%
D17*
%TO.C,C7*%
X133487000Y-78568000D03*
X134447000Y-78568000D03*
%TD*%
D13*
%TO.C,U4*%
X131386500Y-96105000D03*
X131386500Y-96755000D03*
X131386500Y-97405000D03*
X131386500Y-98055000D03*
X131386500Y-98705000D03*
X131386500Y-99355000D03*
X131386500Y-100005000D03*
X131386500Y-100655000D03*
X137111500Y-100655000D03*
X137111500Y-100005000D03*
X137111500Y-99355000D03*
X137111500Y-98705000D03*
X137111500Y-98055000D03*
X137111500Y-97405000D03*
X137111500Y-96755000D03*
X137111500Y-96105000D03*
%TD*%
D10*
%TO.C,C14*%
X123059000Y-121821000D03*
X123059000Y-122781000D03*
%TD*%
D24*
%TO.C,U7*%
X136863000Y-77204500D03*
X136863000Y-78154500D03*
X136863000Y-79104500D03*
X139138000Y-79104500D03*
X139138000Y-77204500D03*
%TD*%
D13*
%TO.C,U5*%
X131318000Y-88048000D03*
X131318000Y-88698000D03*
X131318000Y-89348000D03*
X131318000Y-89998000D03*
X131318000Y-90648000D03*
X131318000Y-91298000D03*
X131318000Y-91948000D03*
X137043000Y-91948000D03*
X137043000Y-91298000D03*
X137043000Y-90648000D03*
X137043000Y-89998000D03*
X137043000Y-89348000D03*
X137043000Y-88698000D03*
X137043000Y-88048000D03*
%TD*%
D25*
%TO.C,U1*%
X125290500Y-70358000D03*
X125290500Y-72898000D03*
X125290500Y-75438000D03*
X125290500Y-77978000D03*
X125290500Y-80518000D03*
X125290500Y-83058000D03*
X125290500Y-85598000D03*
X125290500Y-88138000D03*
X125290500Y-90678000D03*
X125290500Y-93218000D03*
X125290500Y-95758000D03*
X125290500Y-98298000D03*
X125290500Y-100838000D03*
X125290500Y-103378000D03*
X125290500Y-105918000D03*
X125290500Y-108458000D03*
X125290500Y-110998000D03*
X125290500Y-113538000D03*
X125290500Y-116078000D03*
X125290500Y-118618000D03*
X143070500Y-118618000D03*
X143070500Y-116078000D03*
X143070500Y-113538000D03*
X143070500Y-110998000D03*
X143070500Y-108458000D03*
X143070500Y-105918000D03*
X143070500Y-103378000D03*
X143070500Y-100838000D03*
X143070500Y-98298000D03*
X143070500Y-95758000D03*
X143070500Y-93218000D03*
X143070500Y-90678000D03*
X143070500Y-88138000D03*
X143070500Y-85598000D03*
X143070500Y-83058000D03*
X143070500Y-80518000D03*
X143070500Y-77978000D03*
X143070500Y-75438000D03*
X143070500Y-72898000D03*
X143070500Y-70358000D03*
%TD*%
D26*
%TO.C,C4*%
X137513000Y-111760000D03*
X136553000Y-111760000D03*
%TD*%
D27*
%TO.C,FB1*%
X132102000Y-61127000D03*
X133677000Y-61127000D03*
%TD*%
D18*
%TO.C,C1*%
X140150000Y-85800000D03*
X137200000Y-85800000D03*
%TD*%
D10*
%TO.C,C6*%
X140800000Y-80820000D03*
X140800000Y-81780000D03*
%TD*%
D27*
%TO.C,FB2*%
X132064500Y-63327000D03*
X133639500Y-63327000D03*
%TD*%
D19*
%TO.C,R1*%
X130935000Y-86614000D03*
X131955000Y-86614000D03*
%TD*%
D28*
%TO.C,U10*%
X123059000Y-130116500D03*
X123709000Y-130116500D03*
X124359000Y-130116500D03*
X125009000Y-130116500D03*
X125659000Y-130116500D03*
X126309000Y-130116500D03*
X126959000Y-130116500D03*
X127609000Y-130116500D03*
X128259000Y-130116500D03*
X128909000Y-130116500D03*
X128909000Y-124391500D03*
X128259000Y-124391500D03*
X127609000Y-124391500D03*
X126959000Y-124391500D03*
X126309000Y-124391500D03*
X125659000Y-124391500D03*
X125009000Y-124391500D03*
X124359000Y-124391500D03*
X123709000Y-124391500D03*
X123059000Y-124391500D03*
%TD*%
D23*
%TO.C,R2*%
X138811000Y-98808000D03*
X138811000Y-97788000D03*
%TD*%
D26*
%TO.C,C16*%
X130020000Y-131826000D03*
X129060000Y-131826000D03*
%TD*%
D14*
%TO.C,JP5*%
X136600000Y-73700000D03*
D15*
X139140000Y-73700000D03*
%TD*%
D17*
%TO.C,C11*%
X126012000Y-131826000D03*
X126972000Y-131826000D03*
%TD*%
D19*
%TO.C,R8*%
X138684000Y-92160000D03*
X139704000Y-92160000D03*
%TD*%
D29*
%TO.C,D1*%
X139585000Y-70186000D03*
X136285000Y-70186000D03*
%TD*%
D24*
%TO.C,U9*%
X137000000Y-81100000D03*
X137000000Y-82050000D03*
X137000000Y-83000000D03*
X139275000Y-83000000D03*
X139275000Y-81100000D03*
%TD*%
D10*
%TO.C,C20*%
X140794500Y-77194500D03*
X140794500Y-78154500D03*
%TD*%
D30*
%TO.C,C17*%
X130543000Y-130175000D03*
X132093000Y-130175000D03*
%TD*%
D10*
%TO.C,C19*%
X130171000Y-123502000D03*
X130171000Y-124462000D03*
%TD*%
%TO.C,C15*%
X121920000Y-128157000D03*
X121920000Y-129117000D03*
%TD*%
%TO.C,C8*%
X127889000Y-69878000D03*
X127889000Y-70838000D03*
%TD*%
D13*
%TO.C,U2*%
X131318000Y-112850000D03*
X131318000Y-113500000D03*
X131318000Y-114150000D03*
X131318000Y-114800000D03*
X131318000Y-115450000D03*
X131318000Y-116100000D03*
X131318000Y-116750000D03*
X131318000Y-117400000D03*
X131318000Y-118050000D03*
X131318000Y-118700000D03*
X137043000Y-118700000D03*
X137043000Y-118050000D03*
X137043000Y-117400000D03*
X137043000Y-116750000D03*
X137043000Y-116100000D03*
X137043000Y-115450000D03*
X137043000Y-114800000D03*
X137043000Y-114150000D03*
X137043000Y-113500000D03*
X137043000Y-112850000D03*
%TD*%
D31*
%TO.C,J1*%
X138245000Y-125389000D03*
X138245000Y-130389000D03*
D32*
X134245000Y-131339000D03*
X134245000Y-124439000D03*
X141745000Y-124439000D03*
X141745000Y-131339000D03*
%TD*%
D17*
%TO.C,C5*%
X138712000Y-96139000D03*
X139672000Y-96139000D03*
%TD*%
D33*
%TO.C,R4*%
X130462500Y-63200000D03*
X128637500Y-63200000D03*
%TD*%
D19*
%TO.C,R7*%
X138682000Y-91059000D03*
X139702000Y-91059000D03*
%TD*%
M02*
