%TF.GenerationSoftware,KiCad,Pcbnew,7.0.5-0*%
%TF.CreationDate,2023-06-15T10:43:23-05:00*%
%TF.ProjectId,PicoGUS,5069636f-4755-4532-9e6b-696361645f70,rev?*%
%TF.SameCoordinates,Original*%
%TF.FileFunction,Copper,L4,Bot*%
%TF.FilePolarity,Positive*%
%FSLAX46Y46*%
G04 Gerber Fmt 4.6, Leading zero omitted, Abs format (unit mm)*
G04 Created by KiCad (PCBNEW 7.0.5-0) date 2023-06-15 10:43:23*
%MOMM*%
%LPD*%
G01*
G04 APERTURE LIST*
%TA.AperFunction,ComponentPad*%
%ADD10R,1.700000X1.700000*%
%TD*%
%TA.AperFunction,ComponentPad*%
%ADD11O,1.700000X1.700000*%
%TD*%
%TA.AperFunction,ComponentPad*%
%ADD12R,1.350000X1.350000*%
%TD*%
%TA.AperFunction,ComponentPad*%
%ADD13O,1.350000X1.350000*%
%TD*%
%TA.AperFunction,ViaPad*%
%ADD14C,0.350000*%
%TD*%
%TA.AperFunction,Conductor*%
%ADD15C,0.200000*%
%TD*%
G04 APERTURE END LIST*
D10*
%TO.P,J6,1,Pin_1*%
%TO.N,UART_TX*%
X125354000Y-66040000D03*
D11*
%TO.P,J6,2,Pin_2*%
%TO.N,GND*%
X122814000Y-66040000D03*
%TD*%
D12*
%TO.P,J3,1,RESET*%
%TO.N,RESET*%
X119348000Y-66040000D03*
D13*
%TO.P,J3,2,DB7*%
%TO.N,D7*%
X117348000Y-66040000D03*
%TO.P,J3,3,VCC*%
%TO.N,+5V*%
X119348000Y-68040000D03*
%TO.P,J3,4,DB6*%
%TO.N,D6*%
X117348000Y-68040000D03*
%TO.P,J3,5,IRQ2*%
%TO.N,IRQ2*%
X119348000Y-70040000D03*
%TO.P,J3,6,DB5*%
%TO.N,D5*%
X117348000Y-70040000D03*
%TO.P,J3,7,-5V*%
%TO.N,unconnected-(J3--5V-Pad7)*%
X119348000Y-72040000D03*
%TO.P,J3,8,DB4*%
%TO.N,D4*%
X117348000Y-72040000D03*
%TO.P,J3,9,DRQ2*%
%TO.N,unconnected-(J3-DRQ2-Pad9)*%
X119348000Y-74040000D03*
%TO.P,J3,10,DB3*%
%TO.N,D3*%
X117348000Y-74040000D03*
%TO.P,J3,11,-12V*%
%TO.N,unconnected-(J3--12V-Pad11)*%
X119348000Y-76040000D03*
%TO.P,J3,12,DB2*%
%TO.N,D2*%
X117348000Y-76040000D03*
%TO.P,J3,13,UNUSED*%
%TO.N,unconnected-(J3-UNUSED-Pad13)*%
X119348000Y-78040000D03*
%TO.P,J3,14,DB1*%
%TO.N,D1*%
X117348000Y-78040000D03*
%TO.P,J3,15,+12V*%
%TO.N,unconnected-(J3-+12V-Pad15)*%
X119348000Y-80040000D03*
%TO.P,J3,16,DB0*%
%TO.N,D0*%
X117348000Y-80040000D03*
%TO.P,J3,17,GND*%
%TO.N,GND*%
X119348000Y-82040000D03*
%TO.P,J3,18,IO_READY*%
%TO.N,I{slash}OCHRDY*%
X117348000Y-82040000D03*
%TO.P,J3,19,~{SMEMW}*%
%TO.N,unconnected-(J3-~{SMEMW}-Pad19)*%
X119348000Y-84040000D03*
%TO.P,J3,20,AEN*%
%TO.N,AEN*%
X117348000Y-84040000D03*
%TO.P,J3,21,~{SMEMR}*%
%TO.N,unconnected-(J3-~{SMEMR}-Pad21)*%
X119348000Y-86040000D03*
%TO.P,J3,22,BA19*%
%TO.N,unconnected-(J3-BA19-Pad22)*%
X117348000Y-86040000D03*
%TO.P,J3,23,~{IOW}*%
%TO.N,~{IOW}*%
X119348000Y-88040000D03*
%TO.P,J3,24,BA18*%
%TO.N,unconnected-(J3-BA18-Pad24)*%
X117348000Y-88040000D03*
%TO.P,J3,25,~{IOR}*%
%TO.N,~{IOR}*%
X119348000Y-90040000D03*
%TO.P,J3,26,BA17*%
%TO.N,unconnected-(J3-BA17-Pad26)*%
X117348000Y-90040000D03*
%TO.P,J3,27,~{DACK3}*%
%TO.N,DACK3*%
X119348000Y-92040000D03*
%TO.P,J3,28,BA16*%
%TO.N,unconnected-(J3-BA16-Pad28)*%
X117348000Y-92040000D03*
%TO.P,J3,29,DRQ3*%
%TO.N,DRQ3*%
X119348000Y-94040000D03*
%TO.P,J3,30,BA15*%
%TO.N,unconnected-(J3-BA15-Pad30)*%
X117348000Y-94040000D03*
%TO.P,J3,31,~{DACK1}*%
%TO.N,DACK*%
X119348000Y-96040000D03*
%TO.P,J3,32,BA14*%
%TO.N,unconnected-(J3-BA14-Pad32)*%
X117348000Y-96040000D03*
%TO.P,J3,33,DRQ1*%
%TO.N,DRQ*%
X119348000Y-98040000D03*
%TO.P,J3,34,BA13*%
%TO.N,unconnected-(J3-BA13-Pad34)*%
X117348000Y-98040000D03*
%TO.P,J3,35,~{DACK0}*%
%TO.N,unconnected-(J3-~{DACK0}-Pad35)*%
X119348000Y-100040000D03*
%TO.P,J3,36,BA12*%
%TO.N,unconnected-(J3-BA12-Pad36)*%
X117348000Y-100040000D03*
%TO.P,J3,37,CLK*%
%TO.N,unconnected-(J3-CLK-Pad37)*%
X119348000Y-102040000D03*
%TO.P,J3,38,BA11*%
%TO.N,unconnected-(J3-BA11-Pad38)*%
X117348000Y-102040000D03*
%TO.P,J3,39,IRQ7*%
%TO.N,IRQ7*%
X119348000Y-104040000D03*
%TO.P,J3,40,BA10*%
%TO.N,unconnected-(J3-BA10-Pad40)*%
X117348000Y-104040000D03*
%TO.P,J3,41,IRQ6*%
%TO.N,unconnected-(J3-IRQ6-Pad41)*%
X119348000Y-106040000D03*
%TO.P,J3,42,BA09*%
%TO.N,A9*%
X117348000Y-106040000D03*
%TO.P,J3,43,IRQ5*%
%TO.N,IRQ*%
X119348000Y-108040000D03*
%TO.P,J3,44,BA08*%
%TO.N,A8*%
X117348000Y-108040000D03*
%TO.P,J3,45,IRQ4*%
%TO.N,IRQ4*%
X119348000Y-110040000D03*
%TO.P,J3,46,BA07*%
%TO.N,A7*%
X117348000Y-110040000D03*
%TO.P,J3,47,IRQ3*%
%TO.N,IRQ3*%
X119348000Y-112040000D03*
%TO.P,J3,48,BA06*%
%TO.N,A6*%
X117348000Y-112040000D03*
%TO.P,J3,49,~{DACK2}*%
%TO.N,unconnected-(J3-~{DACK2}-Pad49)*%
X119348000Y-114040000D03*
%TO.P,J3,50,BA05*%
%TO.N,A5*%
X117348000Y-114040000D03*
%TO.P,J3,51,TC*%
%TO.N,TC*%
X119348000Y-116040000D03*
%TO.P,J3,52,BA04*%
%TO.N,A4*%
X117348000Y-116040000D03*
%TO.P,J3,53,ALE*%
%TO.N,unconnected-(J3-ALE-Pad53)*%
X119348000Y-118040000D03*
%TO.P,J3,54,BA03*%
%TO.N,A3*%
X117348000Y-118040000D03*
%TO.P,J3,55,VCC*%
%TO.N,+5V*%
X119348000Y-120040000D03*
%TO.P,J3,56,BA02*%
%TO.N,A2*%
X117348000Y-120040000D03*
%TO.P,J3,57,OSC*%
%TO.N,unconnected-(J3-OSC-Pad57)*%
X119348000Y-122040000D03*
%TO.P,J3,58,BA01*%
%TO.N,A1*%
X117348000Y-122040000D03*
%TO.P,J3,59,GND*%
%TO.N,GND*%
X119348000Y-124040000D03*
%TO.P,J3,60,BA00*%
%TO.N,A0*%
X117348000Y-124040000D03*
%TD*%
D11*
%TO.P,U1,1,GPIO0*%
%TO.N,SPI_RX*%
X125290500Y-70358000D03*
%TO.P,U1,2,GPIO1*%
%TO.N,~{SPI_CS}*%
X125290500Y-72898000D03*
D10*
%TO.P,U1,3,GND*%
%TO.N,GND*%
X125290500Y-75438000D03*
D11*
%TO.P,U1,4,GPIO2*%
%TO.N,SPI_SCK*%
X125290500Y-77978000D03*
%TO.P,U1,5,GPIO3*%
%TO.N,SPI_TX*%
X125290500Y-80518000D03*
%TO.P,U1,6,GPIO4*%
%TO.N,~{RIOW}*%
X125290500Y-83058000D03*
%TO.P,U1,7,GPIO5*%
%TO.N,~{RIOR}*%
X125290500Y-85598000D03*
D10*
%TO.P,U1,8,GND*%
%TO.N,GND*%
X125290500Y-88138000D03*
D11*
%TO.P,U1,9,GPIO6*%
%TO.N,AD0*%
X125290500Y-90678000D03*
%TO.P,U1,10,GPIO7*%
%TO.N,AD1*%
X125290500Y-93218000D03*
%TO.P,U1,11,GPIO8*%
%TO.N,AD2*%
X125290500Y-95758000D03*
%TO.P,U1,12,GPIO9*%
%TO.N,AD3*%
X125290500Y-98298000D03*
D10*
%TO.P,U1,13,GND*%
%TO.N,GND*%
X125290500Y-100838000D03*
D11*
%TO.P,U1,14,GPIO10*%
%TO.N,AD4*%
X125290500Y-103378000D03*
%TO.P,U1,15,GPIO11*%
%TO.N,AD5*%
X125290500Y-105918000D03*
%TO.P,U1,16,GPIO12*%
%TO.N,AD6*%
X125290500Y-108458000D03*
%TO.P,U1,17,GPIO13*%
%TO.N,AD7*%
X125290500Y-110998000D03*
D10*
%TO.P,U1,18,GND*%
%TO.N,GND*%
X125290500Y-113538000D03*
D11*
%TO.P,U1,19,GPIO14*%
%TO.N,RA8*%
X125290500Y-116078000D03*
%TO.P,U1,20,GPIO15*%
%TO.N,RA9*%
X125290500Y-118618000D03*
%TO.P,U1,21,GPIO16*%
%TO.N,DIN*%
X143070500Y-118618000D03*
%TO.P,U1,22,GPIO17*%
%TO.N,BCK*%
X143070500Y-116078000D03*
D10*
%TO.P,U1,23,GND*%
%TO.N,GND*%
X143070500Y-113538000D03*
D11*
%TO.P,U1,24,GPIO18*%
%TO.N,LRCK*%
X143070500Y-110998000D03*
%TO.P,U1,25,GPIO19*%
%TO.N,~{RDACK}*%
X143070500Y-108458000D03*
%TO.P,U1,26,GPIO20*%
%TO.N,RTC*%
X143070500Y-105918000D03*
%TO.P,U1,27,GPIO21*%
%TO.N,RIRQ*%
X143070500Y-103378000D03*
D10*
%TO.P,U1,28,GND*%
%TO.N,GND*%
X143070500Y-100838000D03*
D11*
%TO.P,U1,29,GPIO22*%
%TO.N,RDRQ*%
X143070500Y-98298000D03*
%TO.P,U1,30,RUN*%
%TO.N,RUN*%
X143070500Y-95758000D03*
%TO.P,U1,31,GPIO26_ADC0*%
%TO.N,~{RI{slash}OCHRDY}*%
X143070500Y-93218000D03*
%TO.P,U1,32,GPIO27_ADC1*%
%TO.N,ADS*%
X143070500Y-90678000D03*
D10*
%TO.P,U1,33,AGND*%
%TO.N,GND*%
X143070500Y-88138000D03*
D11*
%TO.P,U1,34,GPIO28_ADC2*%
%TO.N,UART_TX*%
X143070500Y-85598000D03*
%TO.P,U1,35,ADC_VREF*%
%TO.N,unconnected-(U1-ADC_VREF-Pad35)*%
X143070500Y-83058000D03*
%TO.P,U1,36,3V3*%
%TO.N,+3V3*%
X143070500Y-80518000D03*
%TO.P,U1,37,3V3_EN*%
%TO.N,unconnected-(U1-3V3_EN-Pad37)*%
X143070500Y-77978000D03*
D10*
%TO.P,U1,38,GND*%
%TO.N,GND*%
X143070500Y-75438000D03*
D11*
%TO.P,U1,39,VSYS*%
%TO.N,/VSYS*%
X143070500Y-72898000D03*
%TO.P,U1,40,VBUS*%
%TO.N,unconnected-(U1-VBUS-Pad40)*%
X143070500Y-70358000D03*
%TD*%
D14*
%TO.N,A0*%
X130048000Y-105283000D03*
%TO.N,A1*%
X129286000Y-107188000D03*
%TO.N,A2*%
X134620000Y-111252000D03*
X134620000Y-106299000D03*
X126492000Y-111506000D03*
%TO.N,A3*%
X135255000Y-109220000D03*
X124206000Y-111887000D03*
X135074000Y-112068000D03*
%TO.N,A4*%
X128143000Y-96393000D03*
X122301000Y-114935000D03*
%TO.N,A5*%
X128270000Y-112649000D03*
X128143000Y-98679000D03*
%TO.N,A6*%
X134493000Y-97409000D03*
X134239000Y-103759000D03*
X122301000Y-110998000D03*
X122882000Y-104140000D03*
%TO.N,A7*%
X132969000Y-99441000D03*
X132969000Y-110109000D03*
%TO.N,A8*%
X122174000Y-107442000D03*
X126873000Y-109474000D03*
X122174000Y-108966000D03*
X127000000Y-116078000D03*
%TO.N,A9*%
X120396000Y-116586000D03*
X127127000Y-118745000D03*
X127381000Y-117400000D03*
X120269000Y-105029000D03*
%TO.N,D0*%
X122174000Y-80942000D03*
X122428000Y-104775000D03*
%TO.N,D1*%
X122428000Y-106553000D03*
X122174000Y-78994000D03*
%TO.N,D2*%
X122936000Y-102743000D03*
X138049000Y-106426000D03*
X138430000Y-103505000D03*
X123063000Y-76962000D03*
%TO.N,D3*%
X135890000Y-108204000D03*
X135636000Y-102997000D03*
X122301000Y-75057000D03*
X122428000Y-100838000D03*
%TO.N,D4*%
X124206000Y-96647000D03*
X124206000Y-73914000D03*
%TO.N,D5*%
X123698000Y-97282000D03*
X122174000Y-71120000D03*
%TO.N,D6*%
X133858000Y-97790000D03*
X120396000Y-93091000D03*
X133350000Y-94361000D03*
%TO.N,D7*%
X136017000Y-99949000D03*
X136017000Y-93853000D03*
X120650000Y-91059000D03*
%TO.N,GND*%
X127635000Y-66040000D03*
X140081000Y-96139000D03*
X129409000Y-130048000D03*
X135255000Y-123825000D03*
X121920000Y-129159000D03*
X129286000Y-83820000D03*
X136906000Y-80518000D03*
X137795000Y-74549000D03*
X130806000Y-123571000D03*
X144653000Y-60960000D03*
X140589000Y-76581000D03*
X133096000Y-76962000D03*
X136017000Y-111760000D03*
X130175000Y-69723000D03*
X123059000Y-121285000D03*
X136906000Y-85979000D03*
X131318000Y-101219000D03*
X124333000Y-129159000D03*
X140225500Y-88011000D03*
X134620000Y-71882000D03*
X142621000Y-60960000D03*
X133223000Y-124841000D03*
X123694000Y-125476000D03*
X142621000Y-59563000D03*
X132842000Y-86614000D03*
X139700000Y-84963000D03*
X138049000Y-118745000D03*
X136906000Y-84963000D03*
X139700000Y-85471000D03*
X132334000Y-114808000D03*
X131836000Y-74549000D03*
X132334000Y-118745000D03*
X139700000Y-85979000D03*
X135255000Y-124841000D03*
X136906000Y-85471000D03*
X138049000Y-117475000D03*
X128520000Y-129159000D03*
X144653000Y-59563000D03*
X140716000Y-74676000D03*
X135255000Y-78613000D03*
X139446000Y-103886000D03*
X133223000Y-123825000D03*
X125853000Y-125476000D03*
X127508000Y-131826000D03*
X129540000Y-66040000D03*
X128647000Y-125476000D03*
X132334000Y-109093000D03*
X127381000Y-70612000D03*
X140208000Y-91059000D03*
X132207000Y-91948000D03*
%TO.N,~{IOW}*%
X128524000Y-87249000D03*
X128524000Y-90551000D03*
%TO.N,+3V3*%
X133858000Y-79248000D03*
X122555000Y-130429000D03*
X139700000Y-81915000D03*
X137922000Y-112268000D03*
X128524000Y-69977000D03*
X132076000Y-131064000D03*
X136906000Y-82931000D03*
X136906000Y-82423000D03*
X128397000Y-131826000D03*
X138176000Y-96139000D03*
X131568000Y-131064000D03*
X123059000Y-125476000D03*
X140208000Y-92202000D03*
X130048000Y-60960000D03*
X125009000Y-125476000D03*
X138811000Y-99314000D03*
X127885000Y-131318000D03*
X140053000Y-78077000D03*
X134620000Y-69850000D03*
X138049000Y-104422000D03*
X140208000Y-72644000D03*
X130048000Y-60452000D03*
X138086000Y-88048000D03*
X139700000Y-82423000D03*
X139700000Y-82931000D03*
X136906000Y-81915000D03*
%TO.N,I{slash}OCHRDY*%
X138049000Y-80391000D03*
X137668000Y-84074000D03*
%TO.N,+5V*%
X136652000Y-68580000D03*
X131953000Y-68072000D03*
X136144000Y-68580000D03*
X131445000Y-68072000D03*
X135636000Y-68580000D03*
%TO.N,~{RIOR}*%
X133096000Y-83820000D03*
X133223000Y-85471000D03*
%TO.N,RESET*%
X134620000Y-91186000D03*
X133731000Y-69215000D03*
%TO.N,TC*%
X128333500Y-114744500D03*
X128397000Y-113538000D03*
%TO.N,BUSOE*%
X130810000Y-81280000D03*
X130429000Y-86614000D03*
X132969000Y-81220000D03*
%TO.N,RIRQ*%
X141097000Y-105537000D03*
X140970000Y-115189000D03*
%TO.N,~{RDACK}*%
X141478000Y-90297000D03*
%TO.N,RDRQ*%
X140589000Y-100711000D03*
X140335000Y-114046000D03*
%TO.N,RTC*%
X139954000Y-112903000D03*
X139954000Y-106299000D03*
%TO.N,IRQ*%
X127515000Y-115450000D03*
X127381000Y-107569000D03*
%TO.N,DACK*%
X133350000Y-90043000D03*
X132588000Y-94869000D03*
X138049000Y-73660000D03*
X138303000Y-89789000D03*
%TO.N,DRQ*%
X122301000Y-113792000D03*
%TO.N,AEN*%
X135890000Y-85979000D03*
X135890000Y-72771000D03*
%TO.N,ADS*%
X140081000Y-94361000D03*
X140208000Y-92964000D03*
X132334000Y-104521000D03*
X132334000Y-96139000D03*
%TO.N,~{BUSOE}*%
X134112000Y-105156000D03*
X139827000Y-97788000D03*
X135763000Y-88773000D03*
X135890000Y-93091000D03*
X134048500Y-112839500D03*
X139192000Y-93472000D03*
X139954000Y-105283000D03*
%TO.N,RUN*%
X135382000Y-91948000D03*
X135255000Y-80645000D03*
%TO.N,AD7*%
X137160000Y-101092000D03*
X137033000Y-110617000D03*
%TO.N,AD6*%
X133477000Y-109474000D03*
X133477000Y-98806000D03*
%TO.N,AD5*%
X128270000Y-100203000D03*
X128270000Y-106299000D03*
%TO.N,AD4*%
X127635000Y-98171000D03*
%TO.N,AD3*%
X135128000Y-102362000D03*
X136017000Y-109093000D03*
%TO.N,AD2*%
X130048000Y-101473000D03*
X136017000Y-107061000D03*
X135890000Y-101854000D03*
X130048000Y-95885000D03*
%TO.N,AD1*%
X128778000Y-108331000D03*
%TO.N,AD0*%
X129413000Y-106426000D03*
%TO.N,UART_TX*%
X129540000Y-64262000D03*
%TO.N,Net-(U5-Pad4)*%
X132334000Y-89916000D03*
X132334000Y-83185000D03*
%TO.N,Net-(U5-Pad6)*%
X129921000Y-91313000D03*
X129794000Y-82550000D03*
%TO.N,Net-(U6-Pad10)*%
X136271000Y-75438000D03*
X136271000Y-81407000D03*
%TO.N,Net-(U5-Pad12)*%
X132715000Y-80010000D03*
X133985000Y-89408000D03*
%TO.N,~{RI{slash}OCHRDY}*%
X144145000Y-79248000D03*
%TD*%
D15*
%TO.N,A0*%
X129159000Y-119761000D02*
X125503001Y-119761000D01*
X122151001Y-123113000D02*
X118275000Y-123113000D01*
X130048000Y-105283000D02*
X130048000Y-118872000D01*
X130048000Y-118872000D02*
X129159000Y-119761000D01*
X125503001Y-119761000D02*
X122151001Y-123113000D01*
X118275000Y-123113000D02*
X117348000Y-124040000D01*
%TO.N,A1*%
X117348000Y-122040000D02*
X118275000Y-121113000D01*
X118275000Y-121113000D02*
X120568000Y-121113000D01*
X120568000Y-121113000D02*
X124333000Y-117348000D01*
X126407409Y-117348000D02*
X129286000Y-114469409D01*
X124333000Y-117348000D02*
X126407409Y-117348000D01*
X129286000Y-114469409D02*
X129286000Y-107188000D01*
%TO.N,A2*%
X126492000Y-111506000D02*
X126492000Y-114454500D01*
X118421000Y-118967000D02*
X117348000Y-120040000D01*
X120555000Y-118967000D02*
X118421000Y-118967000D01*
X134620000Y-111252000D02*
X134620000Y-106299000D01*
X126492000Y-114454500D02*
X126138500Y-114808000D01*
X124714000Y-114808000D02*
X120555000Y-118967000D01*
X126138500Y-114808000D02*
X124714000Y-114808000D01*
%TO.N,A3*%
X121475500Y-117094000D02*
X118294000Y-117094000D01*
X118294000Y-117094000D02*
X117348000Y-118040000D01*
X124206000Y-111887000D02*
X124188500Y-111904500D01*
X124188500Y-114381000D02*
X121475500Y-117094000D01*
X135074000Y-112068000D02*
X135074000Y-109401000D01*
X124188500Y-111904500D02*
X124188500Y-114381000D01*
X135074000Y-109401000D02*
X135255000Y-109220000D01*
%TO.N,A4*%
X128143000Y-96393000D02*
X128143000Y-96968609D01*
X123444000Y-113792000D02*
X122301000Y-114935000D01*
X123444000Y-100530500D02*
X123444000Y-113792000D01*
X124213500Y-99761000D02*
X123444000Y-100530500D01*
X125350609Y-99761000D02*
X124213500Y-99761000D01*
X128143000Y-96968609D02*
X125350609Y-99761000D01*
%TO.N,A5*%
X128270000Y-107815947D02*
X128270000Y-112649000D01*
X127816000Y-107361947D02*
X128270000Y-107815947D01*
X128143000Y-98679000D02*
X127816000Y-99006000D01*
X127816000Y-99006000D02*
X127816000Y-107361947D01*
%TO.N,A6*%
X122882000Y-104140000D02*
X122882000Y-110417000D01*
X122882000Y-110417000D02*
X122301000Y-110998000D01*
X134493000Y-103505000D02*
X134493000Y-97409000D01*
X134239000Y-103759000D02*
X134493000Y-103505000D01*
%TO.N,A7*%
X132969000Y-99441000D02*
X132969000Y-110109000D01*
%TO.N,A8*%
X122174000Y-107442000D02*
X122174000Y-108966000D01*
X127000000Y-109601000D02*
X127000000Y-116078000D01*
X126873000Y-109474000D02*
X127000000Y-109601000D01*
%TO.N,A9*%
X127127000Y-117654000D02*
X127127000Y-118745000D01*
X127381000Y-117400000D02*
X127127000Y-117654000D01*
X120269000Y-105029000D02*
X120396000Y-105156000D01*
X120396000Y-105156000D02*
X120396000Y-116586000D01*
%TO.N,D0*%
X121920000Y-81196000D02*
X122174000Y-80942000D01*
X121920000Y-104267000D02*
X121920000Y-81196000D01*
X122428000Y-104775000D02*
X121920000Y-104267000D01*
%TO.N,D1*%
X122174000Y-78994000D02*
X121412000Y-79756000D01*
X121412000Y-79756000D02*
X121412000Y-105537000D01*
X121412000Y-105537000D02*
X122428000Y-106553000D01*
%TO.N,D2*%
X138049000Y-106426000D02*
X138503000Y-105972000D01*
X138503000Y-103578000D02*
X138430000Y-103505000D01*
X122936000Y-82550000D02*
X122936000Y-102743000D01*
X138503000Y-105972000D02*
X138503000Y-103578000D01*
X123063000Y-82423000D02*
X122936000Y-82550000D01*
X123063000Y-76962000D02*
X123063000Y-82423000D01*
%TO.N,D3*%
X135509000Y-107823000D02*
X135890000Y-108204000D01*
X122682000Y-81203053D02*
X122428000Y-81457053D01*
X122682000Y-77727527D02*
X122682000Y-81203053D01*
X122428000Y-81457053D02*
X122428000Y-100838000D01*
X135509000Y-103124000D02*
X135509000Y-107823000D01*
X135636000Y-102997000D02*
X135509000Y-103124000D01*
X122301000Y-75057000D02*
X122301000Y-77346527D01*
X122301000Y-77346527D02*
X122682000Y-77727527D01*
%TO.N,D4*%
X124206000Y-96647000D02*
X124206000Y-73914000D01*
%TO.N,D5*%
X123771000Y-97209000D02*
X123771000Y-96854053D01*
X123771000Y-96439947D02*
X123771000Y-74121053D01*
X123752000Y-96835053D02*
X123752000Y-96458947D01*
X123771000Y-74121053D02*
X123752000Y-74102053D01*
X123752000Y-74102053D02*
X123752000Y-72698000D01*
X123752000Y-72698000D02*
X122174000Y-71120000D01*
X123771000Y-96854053D02*
X123752000Y-96835053D01*
X123698000Y-97282000D02*
X123771000Y-97209000D01*
X123752000Y-96458947D02*
X123771000Y-96439947D01*
%TO.N,D6*%
X120396000Y-91447053D02*
X120196000Y-91247053D01*
X120196000Y-91247053D02*
X120196000Y-90859000D01*
X133858000Y-94869000D02*
X133858000Y-97790000D01*
X120015000Y-69088000D02*
X118396000Y-69088000D01*
X133350000Y-94361000D02*
X133858000Y-94869000D01*
X120196000Y-90859000D02*
X120250000Y-90805000D01*
X118396000Y-69088000D02*
X117348000Y-68040000D01*
X120396000Y-93091000D02*
X120396000Y-91447053D01*
X120250000Y-90805000D02*
X120250000Y-69323000D01*
X120250000Y-69323000D02*
X120015000Y-69088000D01*
%TO.N,D7*%
X121031000Y-90678000D02*
X121031000Y-68326000D01*
X120650000Y-91059000D02*
X121031000Y-90678000D01*
X119761000Y-67056000D02*
X118364000Y-67056000D01*
X118364000Y-67056000D02*
X117348000Y-66040000D01*
X136017000Y-99949000D02*
X136017000Y-93853000D01*
X121031000Y-68326000D02*
X119761000Y-67056000D01*
%TO.N,~{IOW}*%
X128524000Y-87249000D02*
X128524000Y-90551000D01*
%TO.N,I{slash}OCHRDY*%
X138049000Y-80391000D02*
X137668000Y-80772000D01*
X137668000Y-80772000D02*
X137668000Y-84074000D01*
%TO.N,~{RIOR}*%
X133223000Y-85471000D02*
X133223000Y-83947000D01*
X133223000Y-83947000D02*
X133096000Y-83820000D01*
%TO.N,RESET*%
X134620000Y-78101473D02*
X133731000Y-77212473D01*
X133731000Y-77212473D02*
X133731000Y-69215000D01*
X134620000Y-91186000D02*
X134620000Y-78101473D01*
%TO.N,TC*%
X128397000Y-113538000D02*
X128397000Y-114681000D01*
X128397000Y-114681000D02*
X128333500Y-114744500D01*
%TO.N,BUSOE*%
X130810000Y-81280000D02*
X132909000Y-81280000D01*
X130429000Y-81661000D02*
X130810000Y-81280000D01*
X130429000Y-86614000D02*
X130429000Y-81661000D01*
X132909000Y-81280000D02*
X132969000Y-81220000D01*
%TO.N,RIRQ*%
X140970000Y-115189000D02*
X140970000Y-105664000D01*
X140970000Y-105664000D02*
X141097000Y-105537000D01*
%TO.N,~{RDACK}*%
X141551000Y-90370000D02*
X141551000Y-106938500D01*
X141478000Y-90297000D02*
X141551000Y-90370000D01*
X141551000Y-106938500D02*
X143070500Y-108458000D01*
%TO.N,RDRQ*%
X140462000Y-113919000D02*
X140462000Y-100906500D01*
X140335000Y-114046000D02*
X140462000Y-113919000D01*
X140462000Y-100906500D02*
X140589000Y-100779500D01*
%TO.N,RTC*%
X139954000Y-112903000D02*
X139954000Y-106299000D01*
%TO.N,IRQ*%
X127508000Y-115443000D02*
X127515000Y-115450000D01*
X127508000Y-107696000D02*
X127508000Y-115443000D01*
X127381000Y-107569000D02*
X127508000Y-107696000D01*
%TO.N,DACK*%
X138540000Y-74151000D02*
X138540000Y-89552000D01*
X138540000Y-89552000D02*
X138303000Y-89789000D01*
X132588000Y-94480947D02*
X133350000Y-93718947D01*
X132588000Y-94869000D02*
X132588000Y-94480947D01*
X138049000Y-73660000D02*
X138540000Y-74151000D01*
X133350000Y-93718947D02*
X133350000Y-90043000D01*
%TO.N,DRQ*%
X119348000Y-98040000D02*
X120875000Y-99567000D01*
X120875000Y-99567000D02*
X120875000Y-112366000D01*
X120875000Y-112366000D02*
X122301000Y-113792000D01*
%TO.N,AEN*%
X135890000Y-85979000D02*
X135817000Y-85906000D01*
X135817000Y-85906000D02*
X135817000Y-72844000D01*
X135817000Y-72844000D02*
X135890000Y-72771000D01*
%TO.N,ADS*%
X132334000Y-104521000D02*
X132334000Y-96139000D01*
X140208000Y-92964000D02*
X140081000Y-93091000D01*
X140081000Y-93091000D02*
X140081000Y-94361000D01*
%TO.N,~{BUSOE}*%
X139954000Y-105283000D02*
X139954000Y-98171000D01*
X139954000Y-98171000D02*
X139192000Y-97409000D01*
X139954000Y-97915000D02*
X139954000Y-98171000D01*
X135763000Y-88773000D02*
X135890000Y-88900000D01*
X135890000Y-88900000D02*
X135890000Y-93091000D01*
X134048500Y-112839500D02*
X134112000Y-112776000D01*
X134112000Y-112776000D02*
X134112000Y-105156000D01*
X139192000Y-97409000D02*
X139192000Y-93472000D01*
X139827000Y-97788000D02*
X139954000Y-97915000D01*
%TO.N,RUN*%
X135255000Y-91821000D02*
X135255000Y-80645000D01*
X135382000Y-91948000D02*
X135255000Y-91821000D01*
%TO.N,AD7*%
X137160000Y-110490000D02*
X137033000Y-110617000D01*
X137160000Y-101092000D02*
X137160000Y-110490000D01*
%TO.N,AD6*%
X133477000Y-98806000D02*
X133477000Y-109474000D01*
%TO.N,AD5*%
X128270000Y-100203000D02*
X128270000Y-106299000D01*
%TO.N,AD4*%
X127000000Y-103378000D02*
X125290500Y-103378000D01*
X127635000Y-98171000D02*
X127254000Y-98552000D01*
X127254000Y-98552000D02*
X127254000Y-103124000D01*
X127254000Y-103124000D02*
X127000000Y-103378000D01*
%TO.N,AD3*%
X135128000Y-102362000D02*
X135128000Y-108204000D01*
X135128000Y-108204000D02*
X136017000Y-109093000D01*
%TO.N,AD2*%
X130048000Y-101473000D02*
X130048000Y-95885000D01*
X136090000Y-102808947D02*
X136090000Y-103185053D01*
X136017000Y-103258053D02*
X136017000Y-107061000D01*
X135890000Y-102608947D02*
X136090000Y-102808947D01*
X136090000Y-103185053D02*
X136017000Y-103258053D01*
X135890000Y-101854000D02*
X135890000Y-102608947D01*
%TO.N,AD1*%
X128324000Y-95939000D02*
X125603000Y-93218000D01*
X128331053Y-95939000D02*
X128324000Y-95939000D01*
X128778000Y-108331000D02*
X128778000Y-96385947D01*
X128778000Y-96385947D02*
X128331053Y-95939000D01*
%TO.N,AD0*%
X125290500Y-91508500D02*
X125290500Y-90678000D01*
X129413000Y-95631000D02*
X125290500Y-91508500D01*
X129413000Y-106426000D02*
X129413000Y-95631000D01*
%TO.N,UART_TX*%
X129540000Y-64262000D02*
X127132000Y-64262000D01*
X141993500Y-84521000D02*
X143070500Y-85598000D01*
X133350000Y-64262000D02*
X141993500Y-72905500D01*
X129540000Y-64262000D02*
X133350000Y-64262000D01*
X127132000Y-64262000D02*
X125354000Y-66040000D01*
X141993500Y-72905500D02*
X141993500Y-84521000D01*
%TO.N,Net-(U5-Pad4)*%
X132334000Y-89916000D02*
X132334000Y-83185000D01*
%TO.N,Net-(U5-Pad6)*%
X129921000Y-91313000D02*
X129921000Y-82677000D01*
X129921000Y-82677000D02*
X129794000Y-82550000D01*
%TO.N,Net-(U6-Pad10)*%
X136271000Y-81407000D02*
X136271000Y-75438000D01*
%TO.N,Net-(U5-Pad12)*%
X133985000Y-81153000D02*
X132715000Y-80010000D01*
X133985000Y-89408000D02*
X133985000Y-81153000D01*
%TO.N,~{RI{slash}OCHRDY}*%
X144145000Y-79248000D02*
X144147500Y-79250500D01*
X144147500Y-92141000D02*
X143070500Y-93218000D01*
X144147500Y-79250500D02*
X144147500Y-92141000D01*
%TD*%
M02*
