%TF.GenerationSoftware,KiCad,Pcbnew,7.0.5-0*%
%TF.CreationDate,2023-06-15T10:43:23-05:00*%
%TF.ProjectId,PicoGUS,5069636f-4755-4532-9e6b-696361645f70,rev?*%
%TF.SameCoordinates,Original*%
%TF.FileFunction,Copper,L1,Top*%
%TF.FilePolarity,Positive*%
%FSLAX46Y46*%
G04 Gerber Fmt 4.6, Leading zero omitted, Abs format (unit mm)*
G04 Created by KiCad (PCBNEW 7.0.5-0) date 2023-06-15 10:43:23*
%MOMM*%
%LPD*%
G01*
G04 APERTURE LIST*
G04 Aperture macros list*
%AMRoundRect*
0 Rectangle with rounded corners*
0 $1 Rounding radius*
0 $2 $3 $4 $5 $6 $7 $8 $9 X,Y pos of 4 corners*
0 Add a 4 corners polygon primitive as box body*
4,1,4,$2,$3,$4,$5,$6,$7,$8,$9,$2,$3,0*
0 Add four circle primitives for the rounded corners*
1,1,$1+$1,$2,$3*
1,1,$1+$1,$4,$5*
1,1,$1+$1,$6,$7*
1,1,$1+$1,$8,$9*
0 Add four rect primitives between the rounded corners*
20,1,$1+$1,$2,$3,$4,$5,0*
20,1,$1+$1,$4,$5,$6,$7,0*
20,1,$1+$1,$6,$7,$8,$9,0*
20,1,$1+$1,$8,$9,$2,$3,0*%
G04 Aperture macros list end*
%TA.AperFunction,SMDPad,CuDef*%
%ADD10RoundRect,0.250000X0.312500X0.275000X-0.312500X0.275000X-0.312500X-0.275000X0.312500X-0.275000X0*%
%TD*%
%TA.AperFunction,SMDPad,CuDef*%
%ADD11RoundRect,0.140000X-0.170000X0.140000X-0.170000X-0.140000X0.170000X-0.140000X0.170000X0.140000X0*%
%TD*%
%TA.AperFunction,SMDPad,CuDef*%
%ADD12RoundRect,0.250000X-0.262500X-0.450000X0.262500X-0.450000X0.262500X0.450000X-0.262500X0.450000X0*%
%TD*%
%TA.AperFunction,SMDPad,CuDef*%
%ADD13RoundRect,0.100000X-0.637500X-0.100000X0.637500X-0.100000X0.637500X0.100000X-0.637500X0.100000X0*%
%TD*%
%TA.AperFunction,ComponentPad*%
%ADD14R,1.700000X1.700000*%
%TD*%
%TA.AperFunction,ComponentPad*%
%ADD15O,1.700000X1.700000*%
%TD*%
%TA.AperFunction,SMDPad,CuDef*%
%ADD16RoundRect,0.150000X0.150000X-0.825000X0.150000X0.825000X-0.150000X0.825000X-0.150000X-0.825000X0*%
%TD*%
%TA.AperFunction,SMDPad,CuDef*%
%ADD17RoundRect,0.140000X-0.140000X-0.170000X0.140000X-0.170000X0.140000X0.170000X-0.140000X0.170000X0*%
%TD*%
%TA.AperFunction,SMDPad,CuDef*%
%ADD18RoundRect,0.250000X0.412500X0.925000X-0.412500X0.925000X-0.412500X-0.925000X0.412500X-0.925000X0*%
%TD*%
%TA.AperFunction,SMDPad,CuDef*%
%ADD19RoundRect,0.135000X-0.135000X-0.185000X0.135000X-0.185000X0.135000X0.185000X-0.135000X0.185000X0*%
%TD*%
%TA.AperFunction,ComponentPad*%
%ADD20R,1.350000X1.350000*%
%TD*%
%TA.AperFunction,ComponentPad*%
%ADD21O,1.350000X1.350000*%
%TD*%
%TA.AperFunction,SMDPad,CuDef*%
%ADD22R,1.500000X2.650000*%
%TD*%
%TA.AperFunction,SMDPad,CuDef*%
%ADD23R,2.470100X1.512000*%
%TD*%
%TA.AperFunction,SMDPad,CuDef*%
%ADD24RoundRect,0.135000X0.185000X-0.135000X0.185000X0.135000X-0.185000X0.135000X-0.185000X-0.135000X0*%
%TD*%
%TA.AperFunction,SMDPad,CuDef*%
%ADD25RoundRect,0.150000X-0.512500X-0.150000X0.512500X-0.150000X0.512500X0.150000X-0.512500X0.150000X0*%
%TD*%
%TA.AperFunction,SMDPad,CuDef*%
%ADD26RoundRect,0.140000X0.140000X0.170000X-0.140000X0.170000X-0.140000X-0.170000X0.140000X-0.170000X0*%
%TD*%
%TA.AperFunction,SMDPad,CuDef*%
%ADD27RoundRect,0.147500X0.172500X-0.147500X0.172500X0.147500X-0.172500X0.147500X-0.172500X-0.147500X0*%
%TD*%
%TA.AperFunction,SMDPad,CuDef*%
%ADD28RoundRect,0.250000X-0.925000X0.412500X-0.925000X-0.412500X0.925000X-0.412500X0.925000X0.412500X0*%
%TD*%
%TA.AperFunction,SMDPad,CuDef*%
%ADD29RoundRect,0.140000X0.170000X-0.140000X0.170000X0.140000X-0.170000X0.140000X-0.170000X-0.140000X0*%
%TD*%
%TA.AperFunction,SMDPad,CuDef*%
%ADD30RoundRect,0.100000X0.100000X-0.637500X0.100000X0.637500X-0.100000X0.637500X-0.100000X-0.637500X0*%
%TD*%
%TA.AperFunction,SMDPad,CuDef*%
%ADD31R,1.100000X1.100000*%
%TD*%
%TA.AperFunction,SMDPad,CuDef*%
%ADD32R,1.500000X3.100000*%
%TD*%
%TA.AperFunction,SMDPad,CuDef*%
%ADD33RoundRect,0.250000X0.262500X0.450000X-0.262500X0.450000X-0.262500X-0.450000X0.262500X-0.450000X0*%
%TD*%
%TA.AperFunction,ViaPad*%
%ADD34C,0.350000*%
%TD*%
%TA.AperFunction,Conductor*%
%ADD35C,0.200000*%
%TD*%
%TA.AperFunction,Conductor*%
%ADD36C,0.400000*%
%TD*%
%TA.AperFunction,Conductor*%
%ADD37C,1.200000*%
%TD*%
G04 APERTURE END LIST*
D10*
%TO.P,C17,1*%
%TO.N,+3V3*%
X132205500Y-130175000D03*
%TO.P,C17,2*%
%TO.N,GND*%
X130430500Y-130175000D03*
%TD*%
D11*
%TO.P,C10,1*%
%TO.N,+3V3*%
X134620000Y-70386000D03*
%TO.P,C10,2*%
%TO.N,GND*%
X134620000Y-71346000D03*
%TD*%
D12*
%TO.P,R3,1*%
%TO.N,UART_TX*%
X129389500Y-62992000D03*
%TO.P,R3,2*%
%TO.N,Net-(L1-Pad1)*%
X131214500Y-62992000D03*
%TD*%
D13*
%TO.P,U3,1,S*%
%TO.N,ADS*%
X131318000Y-104487000D03*
%TO.P,U3,2,1B1*%
%TO.N,A0*%
X131318000Y-105137000D03*
%TO.P,U3,3,1B2*%
%TO.N,D0*%
X131318000Y-105787000D03*
%TO.P,U3,4,1A*%
%TO.N,AD0*%
X131318000Y-106437000D03*
%TO.P,U3,5,2B1*%
%TO.N,A1*%
X131318000Y-107087000D03*
%TO.P,U3,6,2B2*%
%TO.N,D1*%
X131318000Y-107737000D03*
%TO.P,U3,7,2A*%
%TO.N,AD1*%
X131318000Y-108387000D03*
%TO.P,U3,8,GND*%
%TO.N,GND*%
X131318000Y-109037000D03*
%TO.P,U3,9,3A*%
%TO.N,AD3*%
X137043000Y-109037000D03*
%TO.P,U3,10,3B2*%
%TO.N,D3*%
X137043000Y-108387000D03*
%TO.P,U3,11,3B1*%
%TO.N,A3*%
X137043000Y-107737000D03*
%TO.P,U3,12,4A*%
%TO.N,AD2*%
X137043000Y-107087000D03*
%TO.P,U3,13,4B2*%
%TO.N,D2*%
X137043000Y-106437000D03*
%TO.P,U3,14,4B1*%
%TO.N,A2*%
X137043000Y-105787000D03*
%TO.P,U3,15,~{OE}*%
%TO.N,~{BUSOE}*%
X137043000Y-105137000D03*
%TO.P,U3,16,VCC*%
%TO.N,+3V3*%
X137043000Y-104487000D03*
%TD*%
D14*
%TO.P,J6,1,Pin_1*%
%TO.N,UART_TX*%
X125354000Y-66040000D03*
D15*
%TO.P,J6,2,Pin_2*%
%TO.N,GND*%
X122814000Y-66040000D03*
%TD*%
D13*
%TO.P,U6,1*%
%TO.N,Net-(U5-Pad12)*%
X128338500Y-79920000D03*
%TO.P,U6,2*%
%TO.N,Net-(U6-Pad11)*%
X128338500Y-80570000D03*
%TO.P,U6,3*%
%TO.N,BUSOE*%
X128338500Y-81220000D03*
%TO.P,U6,4*%
%TO.N,Net-(U6-Pad10)*%
X128338500Y-81870000D03*
%TO.P,U6,5*%
%TO.N,Net-(U5-Pad6)*%
X128338500Y-82520000D03*
%TO.P,U6,6*%
%TO.N,~{RIOW}*%
X128338500Y-83170000D03*
%TO.P,U6,7,GND*%
%TO.N,GND*%
X128338500Y-83820000D03*
%TO.P,U6,8*%
%TO.N,~{RIOR}*%
X134063500Y-83820000D03*
%TO.P,U6,9*%
%TO.N,Net-(U5-Pad4)*%
X134063500Y-83170000D03*
%TO.P,U6,10*%
%TO.N,Net-(U6-Pad10)*%
X134063500Y-82520000D03*
%TO.P,U6,11*%
%TO.N,Net-(U6-Pad11)*%
X134063500Y-81870000D03*
%TO.P,U6,12*%
%TO.N,BUSOE*%
X134063500Y-81220000D03*
%TO.P,U6,13*%
%TO.N,RUN*%
X134063500Y-80570000D03*
%TO.P,U6,14,VCC*%
%TO.N,+3V3*%
X134063500Y-79920000D03*
%TD*%
D16*
%TO.P,U8,1,~{CE}*%
%TO.N,~{SPI_CS}*%
X129296000Y-75791000D03*
%TO.P,U8,2,SO/SIO*%
%TO.N,SPI_RX*%
X130566000Y-75791000D03*
%TO.P,U8,3,SIO2*%
%TO.N,GND*%
X131836000Y-75791000D03*
%TO.P,U8,4,VSS*%
X133106000Y-75791000D03*
%TO.P,U8,5,SI/SIO*%
%TO.N,SPI_TX*%
X133106000Y-70841000D03*
%TO.P,U8,6,SCLK*%
%TO.N,SPI_SCK*%
X131836000Y-70841000D03*
%TO.P,U8,7,SIO3*%
%TO.N,GND*%
X130566000Y-70841000D03*
%TO.P,U8,8,VCC*%
%TO.N,+3V3*%
X129296000Y-70841000D03*
%TD*%
D17*
%TO.P,C13,1*%
%TO.N,Net-(U10-LDOO)*%
X124484000Y-122809000D03*
%TO.P,C13,2*%
%TO.N,GND*%
X125444000Y-122809000D03*
%TD*%
%TO.P,C3,1*%
%TO.N,+3V3*%
X138712000Y-88011000D03*
%TO.P,C3,2*%
%TO.N,GND*%
X139672000Y-88011000D03*
%TD*%
D18*
%TO.P,C2,1*%
%TO.N,+5V*%
X131712500Y-66040000D03*
%TO.P,C2,2*%
%TO.N,GND*%
X128637500Y-66040000D03*
%TD*%
D17*
%TO.P,C9,1*%
%TO.N,+3V3*%
X138585000Y-104394000D03*
%TO.P,C9,2*%
%TO.N,GND*%
X139545000Y-104394000D03*
%TD*%
D19*
%TO.P,R6,1*%
%TO.N,Net-(U10-OUTR)*%
X130169000Y-127508000D03*
%TO.P,R6,2*%
%TO.N,/Audio/AUDIO_R*%
X131189000Y-127508000D03*
%TD*%
D17*
%TO.P,C18,1*%
%TO.N,GND*%
X130199000Y-128524000D03*
%TO.P,C18,2*%
%TO.N,/Audio/AUDIO_R*%
X131159000Y-128524000D03*
%TD*%
D20*
%TO.P,J3,1,RESET*%
%TO.N,RESET*%
X119348000Y-66040000D03*
D21*
%TO.P,J3,2,DB7*%
%TO.N,D7*%
X117348000Y-66040000D03*
%TO.P,J3,3,VCC*%
%TO.N,+5V*%
X119348000Y-68040000D03*
%TO.P,J3,4,DB6*%
%TO.N,D6*%
X117348000Y-68040000D03*
%TO.P,J3,5,IRQ2*%
%TO.N,IRQ2*%
X119348000Y-70040000D03*
%TO.P,J3,6,DB5*%
%TO.N,D5*%
X117348000Y-70040000D03*
%TO.P,J3,7,-5V*%
%TO.N,unconnected-(J3--5V-Pad7)*%
X119348000Y-72040000D03*
%TO.P,J3,8,DB4*%
%TO.N,D4*%
X117348000Y-72040000D03*
%TO.P,J3,9,DRQ2*%
%TO.N,unconnected-(J3-DRQ2-Pad9)*%
X119348000Y-74040000D03*
%TO.P,J3,10,DB3*%
%TO.N,D3*%
X117348000Y-74040000D03*
%TO.P,J3,11,-12V*%
%TO.N,unconnected-(J3--12V-Pad11)*%
X119348000Y-76040000D03*
%TO.P,J3,12,DB2*%
%TO.N,D2*%
X117348000Y-76040000D03*
%TO.P,J3,13,UNUSED*%
%TO.N,unconnected-(J3-UNUSED-Pad13)*%
X119348000Y-78040000D03*
%TO.P,J3,14,DB1*%
%TO.N,D1*%
X117348000Y-78040000D03*
%TO.P,J3,15,+12V*%
%TO.N,unconnected-(J3-+12V-Pad15)*%
X119348000Y-80040000D03*
%TO.P,J3,16,DB0*%
%TO.N,D0*%
X117348000Y-80040000D03*
%TO.P,J3,17,GND*%
%TO.N,GND*%
X119348000Y-82040000D03*
%TO.P,J3,18,IO_READY*%
%TO.N,I{slash}OCHRDY*%
X117348000Y-82040000D03*
%TO.P,J3,19,~{SMEMW}*%
%TO.N,unconnected-(J3-~{SMEMW}-Pad19)*%
X119348000Y-84040000D03*
%TO.P,J3,20,AEN*%
%TO.N,AEN*%
X117348000Y-84040000D03*
%TO.P,J3,21,~{SMEMR}*%
%TO.N,unconnected-(J3-~{SMEMR}-Pad21)*%
X119348000Y-86040000D03*
%TO.P,J3,22,BA19*%
%TO.N,unconnected-(J3-BA19-Pad22)*%
X117348000Y-86040000D03*
%TO.P,J3,23,~{IOW}*%
%TO.N,~{IOW}*%
X119348000Y-88040000D03*
%TO.P,J3,24,BA18*%
%TO.N,unconnected-(J3-BA18-Pad24)*%
X117348000Y-88040000D03*
%TO.P,J3,25,~{IOR}*%
%TO.N,~{IOR}*%
X119348000Y-90040000D03*
%TO.P,J3,26,BA17*%
%TO.N,unconnected-(J3-BA17-Pad26)*%
X117348000Y-90040000D03*
%TO.P,J3,27,~{DACK3}*%
%TO.N,DACK3*%
X119348000Y-92040000D03*
%TO.P,J3,28,BA16*%
%TO.N,unconnected-(J3-BA16-Pad28)*%
X117348000Y-92040000D03*
%TO.P,J3,29,DRQ3*%
%TO.N,DRQ3*%
X119348000Y-94040000D03*
%TO.P,J3,30,BA15*%
%TO.N,unconnected-(J3-BA15-Pad30)*%
X117348000Y-94040000D03*
%TO.P,J3,31,~{DACK1}*%
%TO.N,DACK*%
X119348000Y-96040000D03*
%TO.P,J3,32,BA14*%
%TO.N,unconnected-(J3-BA14-Pad32)*%
X117348000Y-96040000D03*
%TO.P,J3,33,DRQ1*%
%TO.N,DRQ*%
X119348000Y-98040000D03*
%TO.P,J3,34,BA13*%
%TO.N,unconnected-(J3-BA13-Pad34)*%
X117348000Y-98040000D03*
%TO.P,J3,35,~{DACK0}*%
%TO.N,unconnected-(J3-~{DACK0}-Pad35)*%
X119348000Y-100040000D03*
%TO.P,J3,36,BA12*%
%TO.N,unconnected-(J3-BA12-Pad36)*%
X117348000Y-100040000D03*
%TO.P,J3,37,CLK*%
%TO.N,unconnected-(J3-CLK-Pad37)*%
X119348000Y-102040000D03*
%TO.P,J3,38,BA11*%
%TO.N,unconnected-(J3-BA11-Pad38)*%
X117348000Y-102040000D03*
%TO.P,J3,39,IRQ7*%
%TO.N,IRQ7*%
X119348000Y-104040000D03*
%TO.P,J3,40,BA10*%
%TO.N,unconnected-(J3-BA10-Pad40)*%
X117348000Y-104040000D03*
%TO.P,J3,41,IRQ6*%
%TO.N,unconnected-(J3-IRQ6-Pad41)*%
X119348000Y-106040000D03*
%TO.P,J3,42,BA09*%
%TO.N,A9*%
X117348000Y-106040000D03*
%TO.P,J3,43,IRQ5*%
%TO.N,IRQ*%
X119348000Y-108040000D03*
%TO.P,J3,44,BA08*%
%TO.N,A8*%
X117348000Y-108040000D03*
%TO.P,J3,45,IRQ4*%
%TO.N,IRQ4*%
X119348000Y-110040000D03*
%TO.P,J3,46,BA07*%
%TO.N,A7*%
X117348000Y-110040000D03*
%TO.P,J3,47,IRQ3*%
%TO.N,IRQ3*%
X119348000Y-112040000D03*
%TO.P,J3,48,BA06*%
%TO.N,A6*%
X117348000Y-112040000D03*
%TO.P,J3,49,~{DACK2}*%
%TO.N,unconnected-(J3-~{DACK2}-Pad49)*%
X119348000Y-114040000D03*
%TO.P,J3,50,BA05*%
%TO.N,A5*%
X117348000Y-114040000D03*
%TO.P,J3,51,TC*%
%TO.N,TC*%
X119348000Y-116040000D03*
%TO.P,J3,52,BA04*%
%TO.N,A4*%
X117348000Y-116040000D03*
%TO.P,J3,53,ALE*%
%TO.N,unconnected-(J3-ALE-Pad53)*%
X119348000Y-118040000D03*
%TO.P,J3,54,BA03*%
%TO.N,A3*%
X117348000Y-118040000D03*
%TO.P,J3,55,VCC*%
%TO.N,+5V*%
X119348000Y-120040000D03*
%TO.P,J3,56,BA02*%
%TO.N,A2*%
X117348000Y-120040000D03*
%TO.P,J3,57,OSC*%
%TO.N,unconnected-(J3-OSC-Pad57)*%
X119348000Y-122040000D03*
%TO.P,J3,58,BA01*%
%TO.N,A1*%
X117348000Y-122040000D03*
%TO.P,J3,59,GND*%
%TO.N,GND*%
X119348000Y-124040000D03*
%TO.P,J3,60,BA00*%
%TO.N,A0*%
X117348000Y-124040000D03*
%TD*%
D22*
%TO.P,J5,R*%
%TO.N,Net-(J5-PadR)*%
X140932250Y-66139000D03*
%TO.P,J5,S*%
%TO.N,GND*%
X143632250Y-60289000D03*
D23*
%TO.P,J5,T*%
%TO.N,Net-(J5-PadT)*%
X134567300Y-63220000D03*
%TD*%
D17*
%TO.P,C12,1*%
%TO.N,Net-(U10-CAPP)*%
X123853000Y-131826000D03*
%TO.P,C12,2*%
%TO.N,Net-(U10-CAPM)*%
X124813000Y-131826000D03*
%TD*%
D24*
%TO.P,R5,1*%
%TO.N,Net-(U10-OUTL)*%
X130171000Y-126496000D03*
%TO.P,R5,2*%
%TO.N,/Audio/AUDIO_L*%
X130171000Y-125476000D03*
%TD*%
D17*
%TO.P,C7,1*%
%TO.N,+3V3*%
X133487000Y-78568000D03*
%TO.P,C7,2*%
%TO.N,GND*%
X134447000Y-78568000D03*
%TD*%
D13*
%TO.P,U4,1,S*%
%TO.N,ADS*%
X131386500Y-96105000D03*
%TO.P,U4,2,1B1*%
%TO.N,A4*%
X131386500Y-96755000D03*
%TO.P,U4,3,1B2*%
%TO.N,D4*%
X131386500Y-97405000D03*
%TO.P,U4,4,1A*%
%TO.N,AD4*%
X131386500Y-98055000D03*
%TO.P,U4,5,2B1*%
%TO.N,A5*%
X131386500Y-98705000D03*
%TO.P,U4,6,2B2*%
%TO.N,D5*%
X131386500Y-99355000D03*
%TO.P,U4,7,2A*%
%TO.N,AD5*%
X131386500Y-100005000D03*
%TO.P,U4,8,GND*%
%TO.N,GND*%
X131386500Y-100655000D03*
%TO.P,U4,9,3A*%
%TO.N,AD7*%
X137111500Y-100655000D03*
%TO.P,U4,10,3B2*%
%TO.N,D7*%
X137111500Y-100005000D03*
%TO.P,U4,11,3B1*%
%TO.N,A7*%
X137111500Y-99355000D03*
%TO.P,U4,12,4A*%
%TO.N,AD6*%
X137111500Y-98705000D03*
%TO.P,U4,13,4B2*%
%TO.N,D6*%
X137111500Y-98055000D03*
%TO.P,U4,14,4B1*%
%TO.N,A6*%
X137111500Y-97405000D03*
%TO.P,U4,15,~{OE}*%
%TO.N,~{BUSOE}*%
X137111500Y-96755000D03*
%TO.P,U4,16,VCC*%
%TO.N,+3V3*%
X137111500Y-96105000D03*
%TD*%
D11*
%TO.P,C14,1*%
%TO.N,GND*%
X123059000Y-121821000D03*
%TO.P,C14,2*%
%TO.N,+3V3*%
X123059000Y-122781000D03*
%TD*%
D25*
%TO.P,U7,1*%
%TO.N,AEN*%
X136921500Y-72686000D03*
%TO.P,U7,2*%
%TO.N,DACK*%
X136921500Y-73636000D03*
%TO.P,U7,3,GND*%
%TO.N,GND*%
X136921500Y-74586000D03*
%TO.P,U7,4*%
%TO.N,Net-(U6-Pad10)*%
X139196500Y-74586000D03*
%TO.P,U7,5,VCC*%
%TO.N,+3V3*%
X139196500Y-72686000D03*
%TD*%
D13*
%TO.P,U5,1*%
%TO.N,BUSOE*%
X131318000Y-88048000D03*
%TO.P,U5,2*%
%TO.N,~{BUSOE}*%
X131318000Y-88698000D03*
%TO.P,U5,3*%
%TO.N,~{IOR}*%
X131318000Y-89348000D03*
%TO.P,U5,4*%
%TO.N,Net-(U5-Pad4)*%
X131318000Y-89998000D03*
%TO.P,U5,5*%
%TO.N,~{IOW}*%
X131318000Y-90648000D03*
%TO.P,U5,6*%
%TO.N,Net-(U5-Pad6)*%
X131318000Y-91298000D03*
%TO.P,U5,7,GND*%
%TO.N,GND*%
X131318000Y-91948000D03*
%TO.P,U5,8*%
%TO.N,RUN*%
X137043000Y-91948000D03*
%TO.P,U5,9*%
%TO.N,RESET*%
X137043000Y-91298000D03*
%TO.P,U5,10*%
%TO.N,~{RDACK}*%
X137043000Y-90648000D03*
%TO.P,U5,11*%
%TO.N,DACK*%
X137043000Y-89998000D03*
%TO.P,U5,12*%
%TO.N,Net-(U5-Pad12)*%
X137043000Y-89348000D03*
%TO.P,U5,13*%
%TO.N,ADS*%
X137043000Y-88698000D03*
%TO.P,U5,14,VCC*%
%TO.N,+3V3*%
X137043000Y-88048000D03*
%TD*%
D15*
%TO.P,U1,1,GPIO0*%
%TO.N,SPI_RX*%
X125290500Y-70358000D03*
%TO.P,U1,2,GPIO1*%
%TO.N,~{SPI_CS}*%
X125290500Y-72898000D03*
D14*
%TO.P,U1,3,GND*%
%TO.N,GND*%
X125290500Y-75438000D03*
D15*
%TO.P,U1,4,GPIO2*%
%TO.N,SPI_SCK*%
X125290500Y-77978000D03*
%TO.P,U1,5,GPIO3*%
%TO.N,SPI_TX*%
X125290500Y-80518000D03*
%TO.P,U1,6,GPIO4*%
%TO.N,~{RIOW}*%
X125290500Y-83058000D03*
%TO.P,U1,7,GPIO5*%
%TO.N,~{RIOR}*%
X125290500Y-85598000D03*
D14*
%TO.P,U1,8,GND*%
%TO.N,GND*%
X125290500Y-88138000D03*
D15*
%TO.P,U1,9,GPIO6*%
%TO.N,AD0*%
X125290500Y-90678000D03*
%TO.P,U1,10,GPIO7*%
%TO.N,AD1*%
X125290500Y-93218000D03*
%TO.P,U1,11,GPIO8*%
%TO.N,AD2*%
X125290500Y-95758000D03*
%TO.P,U1,12,GPIO9*%
%TO.N,AD3*%
X125290500Y-98298000D03*
D14*
%TO.P,U1,13,GND*%
%TO.N,GND*%
X125290500Y-100838000D03*
D15*
%TO.P,U1,14,GPIO10*%
%TO.N,AD4*%
X125290500Y-103378000D03*
%TO.P,U1,15,GPIO11*%
%TO.N,AD5*%
X125290500Y-105918000D03*
%TO.P,U1,16,GPIO12*%
%TO.N,AD6*%
X125290500Y-108458000D03*
%TO.P,U1,17,GPIO13*%
%TO.N,AD7*%
X125290500Y-110998000D03*
D14*
%TO.P,U1,18,GND*%
%TO.N,GND*%
X125290500Y-113538000D03*
D15*
%TO.P,U1,19,GPIO14*%
%TO.N,RA8*%
X125290500Y-116078000D03*
%TO.P,U1,20,GPIO15*%
%TO.N,RA9*%
X125290500Y-118618000D03*
%TO.P,U1,21,GPIO16*%
%TO.N,DIN*%
X143070500Y-118618000D03*
%TO.P,U1,22,GPIO17*%
%TO.N,BCK*%
X143070500Y-116078000D03*
D14*
%TO.P,U1,23,GND*%
%TO.N,GND*%
X143070500Y-113538000D03*
D15*
%TO.P,U1,24,GPIO18*%
%TO.N,LRCK*%
X143070500Y-110998000D03*
%TO.P,U1,25,GPIO19*%
%TO.N,~{RDACK}*%
X143070500Y-108458000D03*
%TO.P,U1,26,GPIO20*%
%TO.N,RTC*%
X143070500Y-105918000D03*
%TO.P,U1,27,GPIO21*%
%TO.N,RIRQ*%
X143070500Y-103378000D03*
D14*
%TO.P,U1,28,GND*%
%TO.N,GND*%
X143070500Y-100838000D03*
D15*
%TO.P,U1,29,GPIO22*%
%TO.N,RDRQ*%
X143070500Y-98298000D03*
%TO.P,U1,30,RUN*%
%TO.N,RUN*%
X143070500Y-95758000D03*
%TO.P,U1,31,GPIO26_ADC0*%
%TO.N,~{RI{slash}OCHRDY}*%
X143070500Y-93218000D03*
%TO.P,U1,32,GPIO27_ADC1*%
%TO.N,ADS*%
X143070500Y-90678000D03*
D14*
%TO.P,U1,33,AGND*%
%TO.N,GND*%
X143070500Y-88138000D03*
D15*
%TO.P,U1,34,GPIO28_ADC2*%
%TO.N,UART_TX*%
X143070500Y-85598000D03*
%TO.P,U1,35,ADC_VREF*%
%TO.N,unconnected-(U1-ADC_VREF-Pad35)*%
X143070500Y-83058000D03*
%TO.P,U1,36,3V3*%
%TO.N,+3V3*%
X143070500Y-80518000D03*
%TO.P,U1,37,3V3_EN*%
%TO.N,unconnected-(U1-3V3_EN-Pad37)*%
X143070500Y-77978000D03*
D14*
%TO.P,U1,38,GND*%
%TO.N,GND*%
X143070500Y-75438000D03*
D15*
%TO.P,U1,39,VSYS*%
%TO.N,/VSYS*%
X143070500Y-72898000D03*
%TO.P,U1,40,VBUS*%
%TO.N,unconnected-(U1-VBUS-Pad40)*%
X143070500Y-70358000D03*
%TD*%
D26*
%TO.P,C4,1*%
%TO.N,+3V3*%
X137513000Y-111760000D03*
%TO.P,C4,2*%
%TO.N,GND*%
X136553000Y-111760000D03*
%TD*%
D27*
%TO.P,L1,1*%
%TO.N,Net-(L1-Pad1)*%
X132588000Y-63477000D03*
%TO.P,L1,2*%
%TO.N,Net-(J5-PadT)*%
X132588000Y-62507000D03*
%TD*%
D28*
%TO.P,C1,1*%
%TO.N,+3V3*%
X138313000Y-82364500D03*
%TO.P,C1,2*%
%TO.N,GND*%
X138313000Y-85439500D03*
%TD*%
D29*
%TO.P,C6,1*%
%TO.N,+3V3*%
X140599000Y-78077000D03*
%TO.P,C6,2*%
%TO.N,GND*%
X140599000Y-77117000D03*
%TD*%
D27*
%TO.P,L2,1*%
%TO.N,Net-(L2-Pad1)*%
X132588000Y-61191000D03*
%TO.P,L2,2*%
%TO.N,Net-(J5-PadR)*%
X132588000Y-60221000D03*
%TD*%
D19*
%TO.P,R1,1*%
%TO.N,BUSOE*%
X130935000Y-86614000D03*
%TO.P,R1,2*%
%TO.N,GND*%
X131955000Y-86614000D03*
%TD*%
D30*
%TO.P,U10,1,CPVDD*%
%TO.N,+3V3*%
X123059000Y-130116500D03*
%TO.P,U10,2,CAPP*%
%TO.N,Net-(U10-CAPP)*%
X123709000Y-130116500D03*
%TO.P,U10,3,CPGND*%
%TO.N,GND*%
X124359000Y-130116500D03*
%TO.P,U10,4,CAPM*%
%TO.N,Net-(U10-CAPM)*%
X125009000Y-130116500D03*
%TO.P,U10,5,VNEG*%
%TO.N,Net-(U10-VNEG)*%
X125659000Y-130116500D03*
%TO.P,U10,6,OUTL*%
%TO.N,Net-(U10-OUTL)*%
X126309000Y-130116500D03*
%TO.P,U10,7,OUTR*%
%TO.N,Net-(U10-OUTR)*%
X126959000Y-130116500D03*
%TO.P,U10,8,AVDD*%
%TO.N,+3V3*%
X127609000Y-130116500D03*
%TO.P,U10,9,AGND*%
%TO.N,GND*%
X128259000Y-130116500D03*
%TO.P,U10,10,DEMP*%
X128909000Y-130116500D03*
%TO.P,U10,11,FLT*%
X128909000Y-124391500D03*
%TO.P,U10,12,SCK*%
X128259000Y-124391500D03*
%TO.P,U10,13,BCK*%
%TO.N,BCK*%
X127609000Y-124391500D03*
%TO.P,U10,14,DIN*%
%TO.N,DIN*%
X126959000Y-124391500D03*
%TO.P,U10,15,LRCK*%
%TO.N,LRCK*%
X126309000Y-124391500D03*
%TO.P,U10,16,FMT*%
%TO.N,GND*%
X125659000Y-124391500D03*
%TO.P,U10,17,XSMT*%
%TO.N,+3V3*%
X125009000Y-124391500D03*
%TO.P,U10,18,LDOO*%
%TO.N,Net-(U10-LDOO)*%
X124359000Y-124391500D03*
%TO.P,U10,19,DGND*%
%TO.N,GND*%
X123709000Y-124391500D03*
%TO.P,U10,20,DVDD*%
%TO.N,+3V3*%
X123059000Y-124391500D03*
%TD*%
D24*
%TO.P,R2,1*%
%TO.N,+3V3*%
X138811000Y-98808000D03*
%TO.P,R2,2*%
%TO.N,~{BUSOE}*%
X138811000Y-97788000D03*
%TD*%
D26*
%TO.P,C16,1*%
%TO.N,GND*%
X130020000Y-131826000D03*
%TO.P,C16,2*%
%TO.N,+3V3*%
X129060000Y-131826000D03*
%TD*%
D17*
%TO.P,C11,1*%
%TO.N,Net-(U10-VNEG)*%
X126012000Y-131826000D03*
%TO.P,C11,2*%
%TO.N,GND*%
X126972000Y-131826000D03*
%TD*%
D19*
%TO.P,R8,1*%
%TO.N,RUN*%
X138684000Y-92160000D03*
%TO.P,R8,2*%
%TO.N,+3V3*%
X139704000Y-92160000D03*
%TD*%
D31*
%TO.P,D1,1,K*%
%TO.N,/VSYS*%
X139335000Y-70186000D03*
%TO.P,D1,2,A*%
%TO.N,+5V*%
X136535000Y-70186000D03*
%TD*%
D25*
%TO.P,U9,1*%
%TO.N,N/C*%
X136667500Y-78126000D03*
%TO.P,U9,2*%
%TO.N,~{RI{slash}OCHRDY}*%
X136667500Y-79076000D03*
%TO.P,U9,3,GND*%
%TO.N,GND*%
X136667500Y-80026000D03*
%TO.P,U9,4*%
%TO.N,I{slash}OCHRDY*%
X138942500Y-80026000D03*
%TO.P,U9,5,VCC*%
%TO.N,+3V3*%
X138942500Y-78126000D03*
%TD*%
D11*
%TO.P,C20,1*%
%TO.N,+3V3*%
X140716000Y-73208000D03*
%TO.P,C20,2*%
%TO.N,GND*%
X140716000Y-74168000D03*
%TD*%
%TO.P,C19,1*%
%TO.N,GND*%
X130171000Y-123502000D03*
%TO.P,C19,2*%
%TO.N,/Audio/AUDIO_L*%
X130171000Y-124462000D03*
%TD*%
%TO.P,C15,1*%
%TO.N,GND*%
X121920000Y-129695000D03*
%TO.P,C15,2*%
%TO.N,+3V3*%
X121920000Y-130655000D03*
%TD*%
%TO.P,C8,1*%
%TO.N,+3V3*%
X127889000Y-69878000D03*
%TO.P,C8,2*%
%TO.N,GND*%
X127889000Y-70838000D03*
%TD*%
D13*
%TO.P,U2,1,1OE*%
%TO.N,~{BUSOE}*%
X131318000Y-112850000D03*
%TO.P,U2,2,1A0*%
%TO.N,TC*%
X131318000Y-113500000D03*
%TO.P,U2,3,2Y0*%
%TO.N,DRQ*%
X131318000Y-114150000D03*
%TO.P,U2,4,1A1*%
%TO.N,GND*%
X131318000Y-114800000D03*
%TO.P,U2,5,2Y1*%
%TO.N,IRQ*%
X131318000Y-115450000D03*
%TO.P,U2,6,1A2*%
%TO.N,A8*%
X131318000Y-116100000D03*
%TO.P,U2,7,2Y2*%
%TO.N,unconnected-(U2-2Y2-Pad7)*%
X131318000Y-116750000D03*
%TO.P,U2,8,1A3*%
%TO.N,A9*%
X131318000Y-117400000D03*
%TO.P,U2,9,2Y3*%
%TO.N,unconnected-(U2-2Y3-Pad9)*%
X131318000Y-118050000D03*
%TO.P,U2,10,GND*%
%TO.N,GND*%
X131318000Y-118700000D03*
%TO.P,U2,11,2A3*%
X137043000Y-118700000D03*
%TO.P,U2,12,1Y3*%
%TO.N,RA9*%
X137043000Y-118050000D03*
%TO.P,U2,13,2A2*%
%TO.N,GND*%
X137043000Y-117400000D03*
%TO.P,U2,14,1Y2*%
%TO.N,RA8*%
X137043000Y-116750000D03*
%TO.P,U2,15,2A1*%
%TO.N,RIRQ*%
X137043000Y-116100000D03*
%TO.P,U2,16,1Y1*%
%TO.N,unconnected-(U2-1Y1-Pad16)*%
X137043000Y-115450000D03*
%TO.P,U2,17,2A0*%
%TO.N,RDRQ*%
X137043000Y-114800000D03*
%TO.P,U2,18,1Y0*%
%TO.N,RTC*%
X137043000Y-114150000D03*
%TO.P,U2,19,2OE*%
%TO.N,~{BUSOE}*%
X137043000Y-113500000D03*
%TO.P,U2,20,VCC*%
%TO.N,+3V3*%
X137043000Y-112850000D03*
%TD*%
D32*
%TO.P,J1,R*%
%TO.N,/Audio/AUDIO_R*%
X134245000Y-131339000D03*
%TO.P,J1,S*%
%TO.N,GND*%
X134245000Y-124439000D03*
%TO.P,J1,T*%
%TO.N,/Audio/AUDIO_L*%
X141745000Y-124439000D03*
X141745000Y-131339000D03*
%TD*%
D17*
%TO.P,C5,1*%
%TO.N,+3V3*%
X138712000Y-96139000D03*
%TO.P,C5,2*%
%TO.N,GND*%
X139672000Y-96139000D03*
%TD*%
D33*
%TO.P,R4,1*%
%TO.N,Net-(L2-Pad1)*%
X131214500Y-60706000D03*
%TO.P,R4,2*%
%TO.N,+3V3*%
X129389500Y-60706000D03*
%TD*%
D19*
%TO.P,R7,1*%
%TO.N,RESET*%
X138682000Y-91059000D03*
%TO.P,R7,2*%
%TO.N,GND*%
X139702000Y-91059000D03*
%TD*%
D34*
%TO.N,A0*%
X130048000Y-105283000D03*
%TO.N,A1*%
X129286000Y-107188000D03*
%TO.N,A2*%
X134620000Y-111252000D03*
X134620000Y-106299000D03*
X126492000Y-111506000D03*
%TO.N,A3*%
X135255000Y-109220000D03*
X124206000Y-111887000D03*
X135074000Y-112068000D03*
%TO.N,A4*%
X128143000Y-96393000D03*
X122301000Y-114935000D03*
%TO.N,A5*%
X128270000Y-112649000D03*
X128143000Y-98679000D03*
%TO.N,A6*%
X134493000Y-97409000D03*
X134239000Y-103759000D03*
X122301000Y-110998000D03*
X122882000Y-104140000D03*
%TO.N,A7*%
X132969000Y-99441000D03*
X132969000Y-110109000D03*
%TO.N,A8*%
X122174000Y-107442000D03*
X126873000Y-109474000D03*
X122174000Y-108966000D03*
X127000000Y-116078000D03*
%TO.N,A9*%
X120396000Y-116586000D03*
X127127000Y-118745000D03*
X127381000Y-117400000D03*
X120269000Y-105029000D03*
%TO.N,D0*%
X122174000Y-80942000D03*
X122428000Y-104775000D03*
%TO.N,D1*%
X122428000Y-106553000D03*
X122174000Y-78994000D03*
%TO.N,D2*%
X122936000Y-102743000D03*
X138049000Y-106426000D03*
X138430000Y-103505000D03*
X123063000Y-76962000D03*
%TO.N,D3*%
X135890000Y-108204000D03*
X135636000Y-102997000D03*
X122301000Y-75057000D03*
X122428000Y-100838000D03*
%TO.N,D4*%
X124206000Y-96647000D03*
X124206000Y-73914000D03*
%TO.N,D5*%
X123698000Y-97282000D03*
X122174000Y-71120000D03*
%TO.N,D6*%
X133858000Y-97790000D03*
X120396000Y-93091000D03*
X133350000Y-94361000D03*
%TO.N,D7*%
X136017000Y-99949000D03*
X136017000Y-93853000D03*
X120650000Y-91059000D03*
%TO.N,GND*%
X127635000Y-66040000D03*
X140081000Y-96139000D03*
X129409000Y-130048000D03*
X135255000Y-123825000D03*
X121920000Y-129159000D03*
X129286000Y-83820000D03*
X136906000Y-80518000D03*
X137795000Y-74549000D03*
X130806000Y-123571000D03*
X144653000Y-60960000D03*
X140589000Y-76581000D03*
X133096000Y-76962000D03*
X136017000Y-111760000D03*
X130175000Y-69723000D03*
X123059000Y-121285000D03*
X136906000Y-85979000D03*
X131318000Y-101219000D03*
X124333000Y-129159000D03*
X140225500Y-88011000D03*
X134620000Y-71882000D03*
X142621000Y-60960000D03*
X133223000Y-124841000D03*
X123694000Y-125476000D03*
X142621000Y-59563000D03*
X132842000Y-86614000D03*
X139700000Y-84963000D03*
X138049000Y-118745000D03*
X136906000Y-84963000D03*
X139700000Y-85471000D03*
X132334000Y-114808000D03*
X131836000Y-74549000D03*
X132334000Y-118745000D03*
X139700000Y-85979000D03*
X135255000Y-124841000D03*
X136906000Y-85471000D03*
X138049000Y-117475000D03*
X128520000Y-129159000D03*
X144653000Y-59563000D03*
X140716000Y-74676000D03*
X135255000Y-78613000D03*
X139446000Y-103886000D03*
X133223000Y-123825000D03*
X125853000Y-125476000D03*
X127508000Y-131826000D03*
X129540000Y-66040000D03*
X128647000Y-125476000D03*
X132334000Y-109093000D03*
X127381000Y-70612000D03*
X140208000Y-91059000D03*
X132207000Y-91948000D03*
%TO.N,~{IOW}*%
X128524000Y-87249000D03*
X128524000Y-90551000D03*
%TO.N,+3V3*%
X133858000Y-79248000D03*
X122555000Y-130429000D03*
X139700000Y-81915000D03*
X137922000Y-112268000D03*
X128524000Y-69977000D03*
X132076000Y-131064000D03*
X136906000Y-82931000D03*
X136906000Y-82423000D03*
X128397000Y-131826000D03*
X138176000Y-96139000D03*
X131568000Y-131064000D03*
X123059000Y-125476000D03*
X140208000Y-92202000D03*
X130048000Y-60960000D03*
X125009000Y-125476000D03*
X138811000Y-99314000D03*
X127885000Y-131318000D03*
X140053000Y-78077000D03*
X134620000Y-69850000D03*
X138049000Y-104422000D03*
X140208000Y-72644000D03*
X130048000Y-60452000D03*
X138086000Y-88048000D03*
X139700000Y-82423000D03*
X139700000Y-82931000D03*
X136906000Y-81915000D03*
%TO.N,I{slash}OCHRDY*%
X138049000Y-80391000D03*
X137668000Y-84074000D03*
%TO.N,+5V*%
X136652000Y-68580000D03*
X131953000Y-68072000D03*
X136144000Y-68580000D03*
X131445000Y-68072000D03*
X135636000Y-68580000D03*
%TO.N,~{RIOR}*%
X133096000Y-83820000D03*
X133223000Y-85471000D03*
%TO.N,RESET*%
X134620000Y-91186000D03*
X133731000Y-69215000D03*
%TO.N,TC*%
X128333500Y-114744500D03*
X128397000Y-113538000D03*
%TO.N,BUSOE*%
X130810000Y-81280000D03*
X130429000Y-86614000D03*
X132969000Y-81220000D03*
%TO.N,RIRQ*%
X141097000Y-105537000D03*
X140970000Y-115189000D03*
%TO.N,~{RDACK}*%
X141478000Y-90297000D03*
%TO.N,RDRQ*%
X140589000Y-100711000D03*
X140335000Y-114046000D03*
%TO.N,RTC*%
X139954000Y-112903000D03*
X139954000Y-106299000D03*
%TO.N,IRQ*%
X127515000Y-115450000D03*
X127381000Y-107569000D03*
%TO.N,DACK*%
X133350000Y-90043000D03*
X132588000Y-94869000D03*
X138049000Y-73660000D03*
X138303000Y-89789000D03*
%TO.N,DRQ*%
X122301000Y-113792000D03*
%TO.N,AEN*%
X135890000Y-85979000D03*
X135890000Y-72771000D03*
%TO.N,ADS*%
X140081000Y-94361000D03*
X140208000Y-92964000D03*
X132334000Y-104521000D03*
X132334000Y-96139000D03*
%TO.N,~{BUSOE}*%
X134112000Y-105156000D03*
X139827000Y-97788000D03*
X135763000Y-88773000D03*
X135890000Y-93091000D03*
X134048500Y-112839500D03*
X139192000Y-93472000D03*
X139954000Y-105283000D03*
%TO.N,RUN*%
X135382000Y-91948000D03*
X135255000Y-80645000D03*
%TO.N,AD7*%
X137160000Y-101092000D03*
X137033000Y-110617000D03*
%TO.N,AD6*%
X133477000Y-109474000D03*
X133477000Y-98806000D03*
%TO.N,AD5*%
X128270000Y-100203000D03*
X128270000Y-106299000D03*
%TO.N,AD4*%
X127635000Y-98171000D03*
%TO.N,AD3*%
X135128000Y-102362000D03*
X136017000Y-109093000D03*
%TO.N,AD2*%
X130048000Y-101473000D03*
X136017000Y-107061000D03*
X135890000Y-101854000D03*
X130048000Y-95885000D03*
%TO.N,AD1*%
X128778000Y-108331000D03*
%TO.N,AD0*%
X129413000Y-106426000D03*
%TO.N,UART_TX*%
X129540000Y-64262000D03*
%TO.N,Net-(U5-Pad4)*%
X132334000Y-89916000D03*
X132334000Y-83185000D03*
%TO.N,Net-(U5-Pad6)*%
X129921000Y-91313000D03*
X129794000Y-82550000D03*
%TO.N,Net-(U6-Pad10)*%
X136271000Y-75438000D03*
X136271000Y-81407000D03*
%TO.N,Net-(U5-Pad12)*%
X132715000Y-80010000D03*
X133985000Y-89408000D03*
%TO.N,~{RI{slash}OCHRDY}*%
X144145000Y-79248000D03*
%TD*%
D35*
%TO.N,A0*%
X130194000Y-105137000D02*
X130048000Y-105283000D01*
X131318000Y-105137000D02*
X130194000Y-105137000D01*
%TO.N,A1*%
X129413000Y-107061000D02*
X131292000Y-107061000D01*
X129286000Y-107188000D02*
X129413000Y-107061000D01*
%TO.N,A2*%
X134366000Y-111506000D02*
X134620000Y-111252000D01*
X134620000Y-106299000D02*
X135132000Y-105787000D01*
X126492000Y-111506000D02*
X134366000Y-111506000D01*
X135132000Y-105787000D02*
X137043000Y-105787000D01*
%TO.N,A3*%
X135067000Y-112075000D02*
X124394000Y-112075000D01*
X135074000Y-112068000D02*
X135067000Y-112075000D01*
X135255000Y-109220000D02*
X135255000Y-108150000D01*
X124394000Y-112075000D02*
X124206000Y-111887000D01*
X135255000Y-108150000D02*
X135668000Y-107737000D01*
X135668000Y-107737000D02*
X137043000Y-107737000D01*
%TO.N,A4*%
X131386500Y-96755000D02*
X128505000Y-96755000D01*
X122294000Y-114942000D02*
X118446000Y-114942000D01*
X122301000Y-114935000D02*
X122294000Y-114942000D01*
X118446000Y-114942000D02*
X117348000Y-116040000D01*
X128505000Y-96755000D02*
X128143000Y-96393000D01*
%TO.N,A5*%
X128270000Y-112649000D02*
X128082000Y-112461000D01*
X118358000Y-113030000D02*
X117348000Y-114040000D01*
X120269000Y-113030000D02*
X118358000Y-113030000D01*
X128082000Y-112461000D02*
X120838000Y-112461000D01*
X131386500Y-98705000D02*
X128143000Y-98679000D01*
X120838000Y-112461000D02*
X120269000Y-113030000D01*
%TO.N,A6*%
X124079000Y-104140000D02*
X124394000Y-104455000D01*
X129987000Y-104455000D02*
X130610000Y-103832000D01*
X137111500Y-97405000D02*
X134497000Y-97405000D01*
X122882000Y-104140000D02*
X124079000Y-104140000D01*
X117348000Y-112040000D02*
X118390000Y-110998000D01*
X130610000Y-103832000D02*
X134239000Y-103759000D01*
X134497000Y-97405000D02*
X134493000Y-97409000D01*
X118390000Y-110998000D02*
X122301000Y-110998000D01*
X124394000Y-104455000D02*
X129987000Y-104455000D01*
%TO.N,A7*%
X132969000Y-99441000D02*
X133055000Y-99355000D01*
X133055000Y-99355000D02*
X137111500Y-99355000D01*
X126431000Y-109921000D02*
X120504621Y-109921000D01*
X119721621Y-109138000D02*
X118250000Y-109138000D01*
X118250000Y-109138000D02*
X117348000Y-110040000D01*
X119721621Y-109138000D02*
X120504621Y-109921000D01*
X132969000Y-110109000D02*
X126619000Y-110109000D01*
X126619000Y-110109000D02*
X126431000Y-109921000D01*
%TO.N,A8*%
X126812000Y-109535000D02*
X124648000Y-109535000D01*
X124648000Y-109535000D02*
X124080000Y-108967000D01*
X118250000Y-107138000D02*
X117348000Y-108040000D01*
X126873000Y-109474000D02*
X126812000Y-109535000D01*
X121870000Y-107138000D02*
X118250000Y-107138000D01*
X124080000Y-108967000D02*
X122175000Y-108967000D01*
X122174000Y-107442000D02*
X121870000Y-107138000D01*
X127000000Y-116078000D02*
X131296000Y-116078000D01*
X122175000Y-108967000D02*
X122174000Y-108966000D01*
%TO.N,A9*%
X120900000Y-117090000D02*
X124779391Y-117090000D01*
X125537000Y-117155000D02*
X127127000Y-118745000D01*
X120269000Y-105029000D02*
X118359000Y-105029000D01*
X124844391Y-117155000D02*
X125537000Y-117155000D01*
X118359000Y-105029000D02*
X117348000Y-106040000D01*
X131318000Y-117400000D02*
X127381000Y-117400000D01*
X120396000Y-116586000D02*
X120900000Y-117090000D01*
X124779391Y-117090000D02*
X124844391Y-117155000D01*
%TO.N,D0*%
X125923000Y-104841000D02*
X126869000Y-105787000D01*
X122494000Y-104841000D02*
X125923000Y-104841000D01*
X126869000Y-105787000D02*
X131318000Y-105787000D01*
X118250000Y-80942000D02*
X117348000Y-80040000D01*
X122174000Y-80942000D02*
X118250000Y-80942000D01*
X122428000Y-104775000D02*
X122494000Y-104841000D01*
%TO.N,D1*%
X122174000Y-78994000D02*
X118302000Y-78994000D01*
X127569000Y-106995000D02*
X128311000Y-107737000D01*
X127569000Y-106995000D02*
X122870000Y-106995000D01*
X118302000Y-78994000D02*
X117348000Y-78040000D01*
X122870000Y-106995000D02*
X122428000Y-106553000D01*
X131318000Y-107737000D02*
X128311000Y-107737000D01*
%TO.N,D2*%
X123378000Y-102301000D02*
X125789000Y-102301000D01*
X122936000Y-102743000D02*
X123378000Y-102301000D01*
X118270000Y-76962000D02*
X117348000Y-76040000D01*
X126739000Y-103251000D02*
X135247947Y-103251000D01*
X123063000Y-76962000D02*
X118270000Y-76962000D01*
X135447947Y-103451000D02*
X135824053Y-103451000D01*
X135824053Y-103451000D02*
X136024053Y-103251000D01*
X137043000Y-106437000D02*
X138038000Y-106437000D01*
X135247947Y-103251000D02*
X135447947Y-103451000D01*
X138176000Y-103251000D02*
X138430000Y-103505000D01*
X138038000Y-106437000D02*
X138049000Y-106426000D01*
X136024053Y-103251000D02*
X138176000Y-103251000D01*
X125789000Y-102301000D02*
X126739000Y-103251000D01*
%TO.N,D3*%
X123505000Y-101915000D02*
X122428000Y-100838000D01*
X137043000Y-108387000D02*
X136073000Y-108387000D01*
X117348000Y-74040000D02*
X118365000Y-75057000D01*
X126553000Y-101915000D02*
X123505000Y-101915000D01*
X127508000Y-102870000D02*
X126553000Y-101915000D01*
X135509000Y-102870000D02*
X127508000Y-102870000D01*
X135636000Y-102997000D02*
X135509000Y-102870000D01*
X118365000Y-75057000D02*
X122301000Y-75057000D01*
X136073000Y-108387000D02*
X135890000Y-108204000D01*
%TO.N,D4*%
X124206000Y-73914000D02*
X123430000Y-73138000D01*
X127827000Y-96835000D02*
X124394000Y-96835000D01*
X118446000Y-73138000D02*
X117348000Y-72040000D01*
X124394000Y-96835000D02*
X124206000Y-96647000D01*
X128397000Y-97405000D02*
X127827000Y-96835000D01*
X131386500Y-97405000D02*
X128397000Y-97405000D01*
X123430000Y-73138000D02*
X118446000Y-73138000D01*
%TO.N,D5*%
X123759000Y-97221000D02*
X123698000Y-97282000D01*
X131386500Y-99355000D02*
X127930000Y-99355000D01*
X125796000Y-97221000D02*
X123759000Y-97221000D01*
X127930000Y-99355000D02*
X125796000Y-97221000D01*
X122174000Y-71120000D02*
X118428000Y-71120000D01*
X118428000Y-71120000D02*
X117348000Y-70040000D01*
%TO.N,D6*%
X121600000Y-94295000D02*
X120396000Y-93091000D01*
X133284000Y-94295000D02*
X121600000Y-94295000D01*
X137111500Y-98055000D02*
X134123000Y-98055000D01*
X134123000Y-98055000D02*
X133858000Y-97790000D01*
X133350000Y-94361000D02*
X133284000Y-94295000D01*
%TO.N,D7*%
X128524000Y-93853000D02*
X136017000Y-93853000D01*
X121732000Y-92141000D02*
X126812000Y-92141000D01*
X137111500Y-100005000D02*
X136073000Y-100005000D01*
X126812000Y-92141000D02*
X128524000Y-93853000D01*
X136073000Y-100005000D02*
X136017000Y-99949000D01*
X120650000Y-91059000D02*
X121732000Y-92141000D01*
D36*
%TO.N,GND*%
X139446000Y-103886000D02*
X139446000Y-104295000D01*
X139700000Y-85598000D02*
X139700000Y-85471000D01*
X129286000Y-83820000D02*
X128338500Y-83820000D01*
X125659000Y-124391500D02*
X125659000Y-123151000D01*
X136667500Y-80026000D02*
X136667500Y-80279500D01*
X128520000Y-129159000D02*
X128909000Y-129548000D01*
X142621000Y-59563000D02*
X142875000Y-59563000D01*
X129409000Y-130048000D02*
X128977500Y-130048000D01*
X139573000Y-85852000D02*
X139446000Y-85852000D01*
X144653000Y-59563000D02*
X144358250Y-59563000D01*
X139700000Y-85979000D02*
X139573000Y-85852000D01*
X130020000Y-130629500D02*
X130347500Y-130302000D01*
X128259000Y-125088000D02*
X128647000Y-125476000D01*
X128977500Y-130048000D02*
X128909000Y-130116500D01*
X128909000Y-125214000D02*
X128647000Y-125476000D01*
X136906000Y-85471000D02*
X138281500Y-85471000D01*
X129409000Y-129286000D02*
X129409000Y-130048000D01*
X136906000Y-85344000D02*
X137160000Y-85090000D01*
X135255000Y-123825000D02*
X134859000Y-123825000D01*
X130093500Y-130048000D02*
X129409000Y-130048000D01*
X137043000Y-118700000D02*
X138004000Y-118700000D01*
X139700000Y-85471000D02*
X139573000Y-85471000D01*
X137033000Y-85852000D02*
X137900500Y-85852000D01*
X133096000Y-76962000D02*
X133096000Y-75801000D01*
X135255000Y-78613000D02*
X134492000Y-78613000D01*
X125853000Y-125476000D02*
X125659000Y-125282000D01*
X133631000Y-123825000D02*
X134245000Y-124439000D01*
X139700000Y-85598000D02*
X139446000Y-85852000D01*
X127508000Y-131826000D02*
X126972000Y-131826000D01*
X125659000Y-125282000D02*
X125659000Y-124391500D01*
X137631000Y-74586000D02*
X136921500Y-74586000D01*
X127635000Y-66040000D02*
X128637500Y-66040000D01*
X128909000Y-129548000D02*
X128909000Y-130116500D01*
X142621000Y-60960000D02*
X142961250Y-60960000D01*
X128259000Y-124391500D02*
X128259000Y-125088000D01*
X123694000Y-125476000D02*
X123709000Y-125461000D01*
X123709000Y-125461000D02*
X123709000Y-124391500D01*
X124359000Y-130116500D02*
X124359000Y-129185000D01*
X132334000Y-114808000D02*
X131326000Y-114808000D01*
X137033000Y-85090000D02*
X137963500Y-85090000D01*
X127607000Y-70838000D02*
X127889000Y-70838000D01*
X140225500Y-88011000D02*
X139682500Y-88011000D01*
X139446000Y-104295000D02*
X139545000Y-104394000D01*
X136906000Y-85344000D02*
X136906000Y-85471000D01*
X137668000Y-74549000D02*
X137631000Y-74586000D01*
X144303250Y-60960000D02*
X143632250Y-60289000D01*
X137795000Y-74549000D02*
X137668000Y-74549000D01*
X128520000Y-129159000D02*
X128259000Y-129420000D01*
X142961250Y-60960000D02*
X143632250Y-60289000D01*
X135255000Y-124841000D02*
X134647000Y-124841000D01*
X140716000Y-74676000D02*
X140716000Y-74168000D01*
X128909000Y-124391500D02*
X128909000Y-125214000D01*
X138004000Y-118700000D02*
X138049000Y-118745000D01*
X132207000Y-91948000D02*
X131318000Y-91948000D01*
X121920000Y-129159000D02*
X121920000Y-129695000D01*
X139700000Y-84963000D02*
X139573000Y-85090000D01*
X136667500Y-80279500D02*
X136906000Y-80518000D01*
X137043000Y-117400000D02*
X137974000Y-117400000D01*
X131326000Y-114808000D02*
X131318000Y-114800000D01*
X139700000Y-85344000D02*
X139700000Y-85598000D01*
X131318000Y-101219000D02*
X131318000Y-100723500D01*
X139446000Y-85852000D02*
X138725500Y-85852000D01*
X132334000Y-109093000D02*
X131374000Y-109093000D01*
X139573000Y-85090000D02*
X139446000Y-85090000D01*
X131374000Y-109093000D02*
X131318000Y-109037000D01*
X130175000Y-69723000D02*
X130566000Y-70114000D01*
X136017000Y-111760000D02*
X136553000Y-111760000D01*
X132334000Y-118745000D02*
X131363000Y-118745000D01*
X132842000Y-86614000D02*
X131955000Y-86614000D01*
X139700000Y-85344000D02*
X139700000Y-84963000D01*
X139700000Y-85598000D02*
X139700000Y-85979000D01*
X130806000Y-123571000D02*
X130240000Y-123571000D01*
X139700000Y-85344000D02*
X139446000Y-85090000D01*
X130171000Y-128524000D02*
X129409000Y-129286000D01*
X127381000Y-70612000D02*
X127607000Y-70838000D01*
X136906000Y-85090000D02*
X136906000Y-85344000D01*
X144653000Y-60960000D02*
X144303250Y-60960000D01*
X133223000Y-124841000D02*
X133843000Y-124841000D01*
X131318000Y-100723500D02*
X131386500Y-100655000D01*
X136906000Y-85090000D02*
X137160000Y-85090000D01*
X130020000Y-131826000D02*
X130020000Y-130629500D01*
X131836000Y-74549000D02*
X131836000Y-75791000D01*
X139700000Y-85471000D02*
X139700000Y-85344000D01*
X129540000Y-66040000D02*
X128637500Y-66040000D01*
X136906000Y-85598000D02*
X136906000Y-85344000D01*
X131363000Y-118745000D02*
X131318000Y-118700000D01*
X137974000Y-117400000D02*
X138049000Y-117475000D01*
X128259000Y-129420000D02*
X128259000Y-130116500D01*
X139446000Y-85090000D02*
X138662500Y-85090000D01*
X124359000Y-129185000D02*
X124333000Y-129159000D01*
X134620000Y-71882000D02*
X134620000Y-71346000D01*
X133223000Y-123825000D02*
X133631000Y-123825000D01*
X136906000Y-85979000D02*
X137033000Y-85852000D01*
X140589000Y-76581000D02*
X140589000Y-77107000D01*
X134859000Y-123825000D02*
X134245000Y-124439000D01*
X140208000Y-91059000D02*
X139702000Y-91059000D01*
X136906000Y-85598000D02*
X136906000Y-85979000D01*
X142875000Y-59563000D02*
X142906250Y-59563000D01*
X136906000Y-84963000D02*
X137033000Y-85090000D01*
X125659000Y-123151000D02*
X125444000Y-122936000D01*
X139672000Y-96139000D02*
X140081000Y-96139000D01*
X136906000Y-85471000D02*
X136906000Y-85598000D01*
X123059000Y-121821000D02*
X123059000Y-121285000D01*
D35*
%TO.N,~{IOW}*%
X128209000Y-87061000D02*
X120327000Y-87061000D01*
X128524000Y-90551000D02*
X128621000Y-90648000D01*
X128621000Y-90648000D02*
X131318000Y-90648000D01*
X120327000Y-87061000D02*
X119348000Y-88040000D01*
X128524000Y-87249000D02*
X128397000Y-87249000D01*
X128397000Y-87249000D02*
X128209000Y-87061000D01*
%TO.N,~{IOR}*%
X131258000Y-89408000D02*
X119980000Y-89408000D01*
X119980000Y-89408000D02*
X119348000Y-90040000D01*
%TO.N,RA9*%
X125290500Y-118528000D02*
X126396500Y-119634000D01*
X134874000Y-119634000D02*
X136458000Y-118050000D01*
X126396500Y-119634000D02*
X134874000Y-119634000D01*
%TO.N,RA8*%
X125290500Y-115988000D02*
X128559500Y-119257000D01*
X128559500Y-119257000D02*
X133950697Y-119257000D01*
X133950697Y-119257000D02*
X136457697Y-116750000D01*
D36*
%TO.N,+3V3*%
X128425000Y-69878000D02*
X127889000Y-69878000D01*
X136906000Y-81915000D02*
X137033000Y-82042000D01*
X139446000Y-82804000D02*
X138752500Y-82804000D01*
X133487000Y-78568000D02*
X133487000Y-78877000D01*
X138049000Y-104422000D02*
X138395000Y-104422000D01*
X137922000Y-112268000D02*
X137922000Y-112169000D01*
X139196500Y-72686000D02*
X140166000Y-72686000D01*
X123059000Y-125476000D02*
X123087000Y-125448000D01*
X136906000Y-82550000D02*
X136906000Y-82931000D01*
X134620000Y-69850000D02*
X134620000Y-70386000D01*
X138176000Y-96139000D02*
X138142000Y-96105000D01*
X139700000Y-82550000D02*
X139446000Y-82804000D01*
X132076000Y-131064000D02*
X132076000Y-130605500D01*
X140004000Y-78126000D02*
X138942500Y-78126000D01*
X134063500Y-79453500D02*
X133858000Y-79248000D01*
X136906000Y-82804000D02*
X137160000Y-82804000D01*
X125009000Y-125476000D02*
X125009000Y-124583500D01*
X131822000Y-131064000D02*
X131568000Y-130810000D01*
X129794000Y-60706000D02*
X129389500Y-60706000D01*
X122746500Y-130429000D02*
X123059000Y-130116500D01*
X139700000Y-82423000D02*
X139573000Y-82423000D01*
X137984000Y-104487000D02*
X137043000Y-104487000D01*
X134063500Y-79920000D02*
X134063500Y-79453500D01*
X139700000Y-82296000D02*
X139700000Y-82423000D01*
X136906000Y-82550000D02*
X136906000Y-82423000D01*
X128524000Y-69977000D02*
X128425000Y-69878000D01*
X139700000Y-82423000D02*
X139700000Y-82550000D01*
X139700000Y-82931000D02*
X139573000Y-82804000D01*
X139700000Y-82550000D02*
X139700000Y-82931000D01*
X140053000Y-78077000D02*
X140004000Y-78126000D01*
X137922000Y-112268000D02*
X137340000Y-112850000D01*
X130048000Y-60452000D02*
X129794000Y-60706000D01*
X137160000Y-82804000D02*
X137873500Y-82804000D01*
X138086000Y-88048000D02*
X137043000Y-88048000D01*
X132076000Y-131064000D02*
X131568000Y-131064000D01*
X128524000Y-70069000D02*
X129296000Y-70841000D01*
X128397000Y-131826000D02*
X127889000Y-131318000D01*
X138086000Y-88048000D02*
X138675000Y-88048000D01*
X136906000Y-82296000D02*
X136906000Y-81915000D01*
X133487000Y-78877000D02*
X133858000Y-79248000D01*
X139573000Y-82042000D02*
X138635500Y-82042000D01*
X140053000Y-78077000D02*
X140599000Y-78077000D01*
X127609000Y-131042000D02*
X127609000Y-130116500D01*
X138176000Y-96139000D02*
X138585000Y-96139000D01*
X128397000Y-131826000D02*
X129060000Y-131826000D01*
X140208000Y-92202000D02*
X139746000Y-92202000D01*
X137922000Y-112169000D02*
X137513000Y-111760000D01*
X138811000Y-99314000D02*
X138811000Y-98808000D01*
X138585000Y-96139000D02*
X138712000Y-96012000D01*
X139700000Y-81915000D02*
X139573000Y-82042000D01*
X139700000Y-82296000D02*
X139700000Y-81915000D01*
X138049000Y-104422000D02*
X137984000Y-104487000D01*
X130048000Y-60960000D02*
X130048000Y-60452000D01*
X140716000Y-73152000D02*
X140208000Y-72644000D01*
X128524000Y-69977000D02*
X128524000Y-70069000D01*
X131568000Y-130810000D02*
X131568000Y-130506500D01*
X137033000Y-82042000D02*
X137990500Y-82042000D01*
X136906000Y-82931000D02*
X136906000Y-82804000D01*
X127885000Y-131318000D02*
X127609000Y-131042000D01*
X122329000Y-130655000D02*
X121920000Y-130655000D01*
X122555000Y-130429000D02*
X122329000Y-130655000D01*
X122555000Y-130429000D02*
X122746500Y-130429000D01*
X138142000Y-96105000D02*
X137111500Y-96105000D01*
X127889000Y-131318000D02*
X127885000Y-131318000D01*
X136906000Y-82423000D02*
X137033000Y-82423000D01*
X131568000Y-131064000D02*
X131568000Y-130810000D01*
X140166000Y-72686000D02*
X140208000Y-72644000D01*
X132076000Y-131064000D02*
X131822000Y-131064000D01*
X137160000Y-82804000D02*
X136906000Y-82550000D01*
X123087000Y-125448000D02*
X123087000Y-122809000D01*
X123059000Y-124391500D02*
X123059000Y-122837000D01*
X136906000Y-82550000D02*
X136906000Y-82296000D01*
X139573000Y-82804000D02*
X139446000Y-82804000D01*
D35*
%TO.N,I{slash}OCHRDY*%
X117348000Y-82040000D02*
X118250000Y-82942000D01*
X138049000Y-80391000D02*
X138414000Y-80026000D01*
X126365000Y-84328000D02*
X127000000Y-84963000D01*
X123553195Y-82942000D02*
X124939195Y-84328000D01*
X118250000Y-82942000D02*
X123553195Y-82942000D01*
X127000000Y-84963000D02*
X135763000Y-84963000D01*
X135763000Y-84963000D02*
X136652000Y-84074000D01*
X124939195Y-84328000D02*
X126365000Y-84328000D01*
X136652000Y-84074000D02*
X137668000Y-84074000D01*
D37*
%TO.N,+5V*%
X136535000Y-68570000D02*
X135646000Y-68570000D01*
X135646000Y-68570000D02*
X135636000Y-68580000D01*
X131826000Y-68072000D02*
X131445000Y-68072000D01*
X131712500Y-67831500D02*
X131712500Y-66040000D01*
X136535000Y-70186000D02*
X136535000Y-68570000D01*
X131953000Y-68072000D02*
X131826000Y-68072000D01*
X131953000Y-68072000D02*
X131712500Y-67831500D01*
D35*
%TO.N,~{RIOR}*%
X133096000Y-83820000D02*
X134063500Y-83820000D01*
X125417500Y-85471000D02*
X133223000Y-85471000D01*
%TO.N,~{RIOW}*%
X125290500Y-83058000D02*
X128226500Y-83058000D01*
X128226500Y-83058000D02*
X128338500Y-83170000D01*
%TO.N,RESET*%
X138443000Y-91298000D02*
X138682000Y-91059000D01*
X134732000Y-91298000D02*
X137043000Y-91298000D01*
X134620000Y-91186000D02*
X134732000Y-91298000D01*
X132988159Y-69215000D02*
X132734159Y-68961000D01*
X122269000Y-68961000D02*
X119348000Y-66040000D01*
X132734159Y-68961000D02*
X122269000Y-68961000D01*
X133731000Y-69215000D02*
X132988159Y-69215000D01*
X137043000Y-91298000D02*
X138443000Y-91298000D01*
%TO.N,Net-(J5-PadR)*%
X140932250Y-64732250D02*
X140932250Y-66139000D01*
X136421000Y-60221000D02*
X140932250Y-64732250D01*
X132588000Y-60221000D02*
X136421000Y-60221000D01*
%TO.N,TC*%
X128082000Y-114996000D02*
X127326947Y-114996000D01*
X127326947Y-114996000D02*
X127321947Y-115001000D01*
X127321947Y-115001000D02*
X124775000Y-115001000D01*
X128333500Y-114744500D02*
X128082000Y-114996000D01*
X123736000Y-116040000D02*
X119348000Y-116040000D01*
X124775000Y-115001000D02*
X123736000Y-116040000D01*
X128397000Y-113538000D02*
X131280000Y-113538000D01*
%TO.N,BUSOE*%
X130935000Y-86614000D02*
X130935000Y-87665000D01*
X130810000Y-81280000D02*
X130750000Y-81220000D01*
X132969000Y-81220000D02*
X134063500Y-81220000D01*
X130750000Y-81220000D02*
X128338500Y-81220000D01*
X130935000Y-87665000D02*
X131318000Y-88048000D01*
X130935000Y-86614000D02*
X130429000Y-86614000D01*
%TO.N,RIRQ*%
X140059000Y-116100000D02*
X140970000Y-115189000D01*
X141097000Y-105351500D02*
X143070500Y-103378000D01*
X137043000Y-116100000D02*
X140059000Y-116100000D01*
X141097000Y-105537000D02*
X141097000Y-105351500D01*
%TO.N,~{RDACK}*%
X137179000Y-90512000D02*
X137043000Y-90648000D01*
X138430000Y-90297000D02*
X138215000Y-90512000D01*
X141478000Y-90297000D02*
X138430000Y-90297000D01*
X138215000Y-90512000D02*
X137179000Y-90512000D01*
%TO.N,RDRQ*%
X140589000Y-100711000D02*
X140657500Y-100711000D01*
X140657500Y-100711000D02*
X143070500Y-98298000D01*
X140335000Y-114046000D02*
X139500000Y-114881000D01*
X139500000Y-114881000D02*
X137124000Y-114881000D01*
%TO.N,RTC*%
X139954000Y-106299000D02*
X142689500Y-106299000D01*
X137043000Y-114150000D02*
X138707000Y-114150000D01*
X138707000Y-114150000D02*
X139954000Y-112903000D01*
%TO.N,IRQ*%
X127381000Y-107569000D02*
X127193000Y-107381000D01*
X127515000Y-115450000D02*
X131318000Y-115450000D01*
X123505000Y-107381000D02*
X122846000Y-108040000D01*
X127193000Y-107381000D02*
X123505000Y-107381000D01*
X122846000Y-108040000D02*
X119348000Y-108040000D01*
%TO.N,DACK*%
X126238000Y-94742000D02*
X126177000Y-94681000D01*
X136921500Y-73636000D02*
X138025000Y-73636000D01*
X132461000Y-94742000D02*
X126238000Y-94742000D01*
X138025000Y-73636000D02*
X138049000Y-73660000D01*
X138094000Y-89998000D02*
X138303000Y-89789000D01*
X133350000Y-90043000D02*
X136998000Y-90043000D01*
X132588000Y-94869000D02*
X132461000Y-94742000D01*
X137043000Y-89998000D02*
X138094000Y-89998000D01*
X126177000Y-94681000D02*
X120707000Y-94681000D01*
X120707000Y-94681000D02*
X119348000Y-96040000D01*
%TO.N,DRQ*%
X127531000Y-114150000D02*
X131318000Y-114150000D01*
X122301000Y-113792000D02*
X123124000Y-114615000D01*
X127066000Y-114615000D02*
X127531000Y-114150000D01*
X123124000Y-114615000D02*
X127066000Y-114615000D01*
%TO.N,AEN*%
X128590000Y-86675000D02*
X129286000Y-85979000D01*
X117348000Y-84040000D02*
X118250000Y-84942000D01*
X122534000Y-84942000D02*
X124267000Y-86675000D01*
X136921500Y-72686000D02*
X135975000Y-72686000D01*
X129286000Y-85979000D02*
X135890000Y-85979000D01*
X118250000Y-84942000D02*
X122534000Y-84942000D01*
X135975000Y-72686000D02*
X135890000Y-72771000D01*
X124267000Y-86675000D02*
X128590000Y-86675000D01*
%TO.N,BCK*%
X144272000Y-117189500D02*
X143070500Y-115988000D01*
X127609000Y-122095314D02*
X128546314Y-121158000D01*
X128546314Y-121158000D02*
X142246482Y-121158000D01*
X127609000Y-124391500D02*
X127609000Y-122095314D01*
X144272000Y-119132482D02*
X144272000Y-117189500D01*
X142246482Y-121158000D02*
X144272000Y-119132482D01*
%TO.N,DIN*%
X126959000Y-124391500D02*
X126959000Y-121957000D01*
X128266000Y-120650000D02*
X140948500Y-120650000D01*
X126959000Y-121957000D02*
X128266000Y-120650000D01*
X140948500Y-120650000D02*
X143070500Y-118528000D01*
%TO.N,LRCK*%
X141591500Y-112387000D02*
X143070500Y-110908000D01*
X128014312Y-120142000D02*
X139954000Y-120142000D01*
X126309000Y-124391500D02*
X126309000Y-121847312D01*
X141591500Y-118504500D02*
X141591500Y-112387000D01*
X139954000Y-120142000D02*
X141591500Y-118504500D01*
X126309000Y-121847312D02*
X128014312Y-120142000D01*
%TO.N,ADS*%
X140208000Y-92964000D02*
X140716000Y-92964000D01*
X137043000Y-88698000D02*
X141090500Y-88698000D01*
X140716000Y-92964000D02*
X143002000Y-90678000D01*
X134112000Y-94361000D02*
X140081000Y-94361000D01*
X132334000Y-96139000D02*
X134112000Y-94361000D01*
X131318000Y-104487000D02*
X132300000Y-104487000D01*
X132334000Y-96139000D02*
X131420500Y-96139000D01*
X141090500Y-88698000D02*
X143070500Y-90678000D01*
X132300000Y-104487000D02*
X132334000Y-104521000D01*
%TO.N,~{BUSOE}*%
X134059000Y-112850000D02*
X134709000Y-113500000D01*
X139184947Y-105283000D02*
X139038947Y-105137000D01*
X131318000Y-112850000D02*
X134059000Y-112850000D01*
X135763000Y-88773000D02*
X135688000Y-88698000D01*
X139192000Y-93472000D02*
X136278053Y-93472000D01*
X135897053Y-93091000D02*
X135890000Y-93091000D01*
X137043000Y-105137000D02*
X134131000Y-105137000D01*
X135890000Y-93091000D02*
X135890000Y-93083947D01*
X139954000Y-105283000D02*
X139184947Y-105283000D01*
X135688000Y-88698000D02*
X131318000Y-88698000D01*
X139827000Y-97788000D02*
X138811000Y-97788000D01*
X134131000Y-105137000D02*
X134112000Y-105156000D01*
X135890000Y-93083947D02*
X135897053Y-93091000D01*
X137111500Y-96755000D02*
X137778000Y-96755000D01*
X139038947Y-105137000D02*
X137043000Y-105137000D01*
X134709000Y-113500000D02*
X137043000Y-113500000D01*
X137778000Y-96755000D02*
X138811000Y-97788000D01*
X136278053Y-93472000D02*
X135897053Y-93091000D01*
%TO.N,~{SPI_CS}*%
X128273500Y-75791000D02*
X129296000Y-75791000D01*
X125290500Y-72808000D02*
X128273500Y-75791000D01*
%TO.N,SPI_RX*%
X128433666Y-72944626D02*
X129039515Y-72338774D01*
X129445532Y-74293781D02*
X130566000Y-75414249D01*
X128433665Y-72944624D02*
X128433666Y-72944626D01*
X130051371Y-73350652D02*
X129445533Y-73956491D01*
X129376804Y-72676063D02*
X129376806Y-72676064D01*
X129445533Y-74293781D02*
X129445532Y-74293781D01*
X128165114Y-74562331D02*
X129714080Y-73013362D01*
X128165114Y-74562330D02*
X128165114Y-74562331D01*
X129376806Y-72676064D02*
X127827825Y-74225041D01*
X125419751Y-70268000D02*
X128096376Y-72944625D01*
X130051371Y-73350653D02*
X130051371Y-73350652D01*
X129376805Y-72338774D02*
G75*
G03*
X129039515Y-72338774I-168645J-168645D01*
G01*
X128096356Y-72944645D02*
G75*
G03*
X128433665Y-72944624I168644J168645D01*
G01*
X127827856Y-74562300D02*
G75*
G03*
X128165114Y-74562330I168644J168600D01*
G01*
X130051362Y-73350644D02*
G75*
G03*
X130051371Y-73013365I-168662J168644D01*
G01*
X129376786Y-72676045D02*
G75*
G03*
X129376805Y-72338774I-168586J168645D01*
G01*
X130051347Y-73013389D02*
G75*
G03*
X129714080Y-73013362I-168647J-168611D01*
G01*
X127827839Y-74225055D02*
G75*
G03*
X127827825Y-74562331I168661J-168645D01*
G01*
X129445497Y-73956455D02*
G75*
G03*
X129445533Y-74293781I168703J-168645D01*
G01*
%TO.N,SPI_TX*%
X133106000Y-74158000D02*
X133106000Y-70841000D01*
X132461000Y-74803000D02*
X133106000Y-74158000D01*
X132461000Y-76812751D02*
X132461000Y-74803000D01*
X127232500Y-78486000D02*
X130787751Y-78486000D01*
X130787751Y-78486000D02*
X132461000Y-76812751D01*
X125290500Y-80428000D02*
X127232500Y-78486000D01*
%TO.N,SPI_SCK*%
X130556000Y-77470000D02*
X125708500Y-77470000D01*
X130740591Y-73417000D02*
X131681409Y-73417000D01*
X131211000Y-74317000D02*
X131211000Y-76815000D01*
X131211000Y-71466000D02*
X131211000Y-72517000D01*
X130740591Y-74017000D02*
X130911000Y-74017000D01*
X131511000Y-72817000D02*
X131681409Y-72817000D01*
X131836000Y-70841000D02*
X131211000Y-71466000D01*
X131211000Y-76815000D02*
X130556000Y-77470000D01*
X131681409Y-73417009D02*
G75*
G03*
X131981409Y-73117000I-9J300009D01*
G01*
X131211000Y-74317000D02*
G75*
G03*
X130911000Y-74017000I-300000J0D01*
G01*
X130740591Y-73416991D02*
G75*
G03*
X130440591Y-73717000I9J-300009D01*
G01*
X131211000Y-72517000D02*
G75*
G03*
X131511000Y-72817000I300000J0D01*
G01*
X130440600Y-73717000D02*
G75*
G03*
X130740591Y-74017000I300000J0D01*
G01*
X131981400Y-73117000D02*
G75*
G03*
X131681409Y-72817000I-300000J0D01*
G01*
%TO.N,RUN*%
X137043000Y-91948000D02*
X138472000Y-91948000D01*
X138684000Y-92160000D02*
X142282000Y-95758000D01*
X138472000Y-91948000D02*
X138684000Y-92160000D01*
X142282000Y-95758000D02*
X143070500Y-95758000D01*
X134063500Y-80570000D02*
X135180000Y-80570000D01*
X135382000Y-91948000D02*
X137043000Y-91948000D01*
X135180000Y-80570000D02*
X135255000Y-80645000D01*
%TO.N,Net-(J5-PadT)*%
X133854300Y-62507000D02*
X134567300Y-63220000D01*
X132588000Y-62507000D02*
X133854300Y-62507000D01*
%TO.N,AD7*%
X137111500Y-100655000D02*
X137160000Y-101092000D01*
X137033000Y-110617000D02*
X125671500Y-110617000D01*
%TO.N,AD6*%
X133477000Y-109474000D02*
X133350000Y-109601000D01*
X133350000Y-109601000D02*
X128016000Y-109601000D01*
X137111500Y-98705000D02*
X133578000Y-98705000D01*
X126873000Y-108458000D02*
X125290500Y-108458000D01*
X133578000Y-98705000D02*
X133477000Y-98806000D01*
X128016000Y-109601000D02*
X126873000Y-108458000D01*
%TO.N,AD5*%
X131386500Y-100005000D02*
X128468000Y-100005000D01*
X128270000Y-100203000D02*
X128468000Y-100005000D01*
X128270000Y-106299000D02*
X125671500Y-106299000D01*
%TO.N,AD4*%
X127751000Y-98055000D02*
X127635000Y-98171000D01*
X131386500Y-98055000D02*
X127751000Y-98055000D01*
%TO.N,AD3*%
X135128000Y-102362000D02*
X134766000Y-102000000D01*
X128992500Y-102000000D02*
X125290500Y-98298000D01*
X137043000Y-109037000D02*
X136017000Y-109093000D01*
X134766000Y-102000000D02*
X128992500Y-102000000D01*
%TO.N,AD2*%
X135890000Y-101854000D02*
X135709000Y-101673000D01*
X136043000Y-107087000D02*
X136017000Y-107061000D01*
X137043000Y-107087000D02*
X136043000Y-107087000D01*
X129921000Y-95758000D02*
X125290500Y-95758000D01*
X130048000Y-95885000D02*
X129921000Y-95758000D01*
X130248000Y-101673000D02*
X130048000Y-101473000D01*
X135709000Y-101673000D02*
X130248000Y-101673000D01*
%TO.N,AD1*%
X128778000Y-108331000D02*
X128834000Y-108387000D01*
X131318000Y-108387000D02*
X128834000Y-108387000D01*
%TO.N,AD0*%
X129424000Y-106437000D02*
X129413000Y-106426000D01*
X131318000Y-106437000D02*
X129424000Y-106437000D01*
%TO.N,Net-(L1-Pad1)*%
X131699500Y-63477000D02*
X131214500Y-62992000D01*
X132588000Y-63477000D02*
X131699500Y-63477000D01*
%TO.N,Net-(L2-Pad1)*%
X131699500Y-61191000D02*
X131214500Y-60706000D01*
X132588000Y-61191000D02*
X131699500Y-61191000D01*
%TO.N,UART_TX*%
X129540000Y-64262000D02*
X129540000Y-63142500D01*
%TO.N,Net-(U5-Pad4)*%
X131318000Y-89998000D02*
X132252000Y-89998000D01*
X132252000Y-89998000D02*
X132334000Y-89916000D01*
X132334000Y-83185000D02*
X134048500Y-83185000D01*
X132334000Y-89916000D02*
X132334000Y-89953000D01*
%TO.N,Net-(U5-Pad6)*%
X129936000Y-91298000D02*
X129921000Y-91313000D01*
X129794000Y-82550000D02*
X128368500Y-82550000D01*
X131318000Y-91298000D02*
X129936000Y-91298000D01*
%TO.N,Net-(U6-Pad10)*%
X136271000Y-75438000D02*
X138344500Y-75438000D01*
X138344500Y-75438000D02*
X139196500Y-74586000D01*
X131019000Y-81870000D02*
X131669000Y-82520000D01*
X136271000Y-81407000D02*
X135158000Y-82520000D01*
X128338500Y-81870000D02*
X131019000Y-81870000D01*
X131669000Y-82520000D02*
X134063500Y-82520000D01*
X135158000Y-82520000D02*
X134063500Y-82520000D01*
%TO.N,Net-(U5-Pad12)*%
X134045000Y-89348000D02*
X133985000Y-89408000D01*
X132625000Y-79920000D02*
X132715000Y-80010000D01*
X137043000Y-89348000D02*
X134045000Y-89348000D01*
X128338500Y-79920000D02*
X132625000Y-79920000D01*
%TO.N,Net-(U6-Pad11)*%
X132588000Y-81915000D02*
X134018500Y-81915000D01*
X128338500Y-80570000D02*
X131243000Y-80570000D01*
X131243000Y-80570000D02*
X132588000Y-81915000D01*
D37*
%TO.N,/VSYS*%
X139335000Y-70186000D02*
X140448500Y-70186000D01*
X140448500Y-70186000D02*
X143070500Y-72808000D01*
D35*
%TO.N,~{RI{slash}OCHRDY}*%
X144145000Y-79248000D02*
X136839500Y-79248000D01*
%TO.N,Net-(U10-VNEG)*%
X125659000Y-131473000D02*
X126012000Y-131826000D01*
X125659000Y-130116500D02*
X125659000Y-131473000D01*
%TO.N,Net-(U10-CAPP)*%
X123709000Y-130116500D02*
X123709000Y-131682000D01*
%TO.N,Net-(U10-CAPM)*%
X125009000Y-131630000D02*
X124813000Y-131826000D01*
X125009000Y-130116500D02*
X125009000Y-131630000D01*
%TO.N,Net-(U10-LDOO)*%
X124359000Y-124391500D02*
X124359000Y-123061000D01*
X124359000Y-123061000D02*
X124484000Y-122936000D01*
%TO.N,/Audio/AUDIO_R*%
X131187000Y-128524000D02*
X131949000Y-128524000D01*
X132080000Y-128524000D02*
X134245000Y-130689000D01*
X131064000Y-128524000D02*
X132080000Y-128524000D01*
X131189000Y-127508000D02*
X131189000Y-128494000D01*
%TO.N,/Audio/AUDIO_L*%
X141732000Y-127762000D02*
X141745000Y-127749000D01*
X131191000Y-125476000D02*
X133477000Y-127762000D01*
X141745000Y-127749000D02*
X141745000Y-124439000D01*
X130171000Y-125476000D02*
X131191000Y-125476000D01*
X130171000Y-125476000D02*
X130171000Y-124462000D01*
X141745000Y-127749000D02*
X141745000Y-131339000D01*
X133477000Y-127762000D02*
X141732000Y-127762000D01*
%TO.N,Net-(U10-OUTL)*%
X126309000Y-129211000D02*
X129028000Y-126492000D01*
X129340197Y-126492000D02*
X129344197Y-126496000D01*
X129028000Y-126492000D02*
X129340197Y-126492000D01*
X126309000Y-130116500D02*
X126309000Y-129211000D01*
X129344197Y-126496000D02*
X130171000Y-126496000D01*
%TO.N,Net-(U10-OUTR)*%
X129012197Y-127478000D02*
X130171000Y-127478000D01*
X126959000Y-129531197D02*
X129012197Y-127478000D01*
%TD*%
M02*
