M48
; DRILL file {KiCad 7.0.5-0} date 2023 June 15, Thursday 10:43:23
; FORMAT={-:-/ absolute / inch / decimal}
; #@! TF.CreationDate,2023-06-15T10:43:23-05:00
; #@! TF.GenerationSoftware,Kicad,Pcbnew,7.0.5-0
; #@! TF.FileFunction,Plated,1,4,PTH
FMAT,2
INCH
; #@! TA.AperFunction,Plated,PTH,ViaDrill
T1C0.0079
; #@! TA.AperFunction,Plated,PTH,ComponentDrill
T2C0.0315
; #@! TA.AperFunction,Plated,PTH,ComponentDrill
T3C0.0394
; #@! TA.AperFunction,Plated,PTH,ComponentDrill
T4C0.0402
%
G90
G05
T1
X4.735Y-4.135
X4.74Y-3.665
X4.74Y-4.59
X4.75Y-3.585
X4.8Y-5.085
X4.81Y-2.8
X4.81Y-3.11
X4.81Y-3.1867
X4.81Y-4.23
X4.81Y-4.29
X4.815Y-2.955
X4.815Y-4.37
X4.815Y-4.48
X4.815Y-4.525
X4.82Y-3.97
X4.82Y-4.125
X4.82Y-4.195
X4.825Y-5.135
X4.8379Y-4.1
X4.84Y-4.045
X4.8448Y-4.775
X4.8448Y-4.94
X4.845Y-3.03
X4.8698Y-4.94
X4.87Y-3.83
X4.89Y-2.91
X4.89Y-3.805
X4.89Y-4.405
X4.895Y-5.085
X4.9216Y-4.94
X4.9548Y-4.94
X4.98Y-4.39
X4.995Y-4.31
X5.0Y-4.57
X5.005Y-4.675
X5.015Y-2.78
X5.015Y-4.235
X5.015Y-4.622
X5.02Y-5.19
X5.0203Y-4.5453
X5.025Y-2.6
X5.025Y-3.865
X5.0348Y-5.17
X5.045Y-3.795
X5.045Y-3.885
X5.05Y-3.945
X5.05Y-4.185
X5.05Y-4.435
X5.0525Y-4.5175
X5.055Y-4.47
X5.055Y-5.19
X5.0598Y-5.085
X5.06Y-2.755
X5.06Y-3.435
X5.06Y-3.565
X5.0648Y-4.94
X5.07Y-4.265
X5.09Y-3.3
X5.09Y-4.22
X5.0948Y-5.12
X5.095Y-4.19
X5.1Y-2.53
X5.1Y-2.6
X5.11Y-3.25
X5.115Y-3.595
X5.12Y-2.38
X5.12Y-2.4
X5.12Y-3.775
X5.12Y-3.995
X5.12Y-4.145
X5.125Y-2.745
X5.135Y-3.41
X5.1498Y-4.865
X5.15Y-3.2
X5.17Y-3.985
X5.175Y-2.68
X5.1798Y-5.16
X5.1904Y-2.935
X5.195Y-2.68
X5.1998Y-5.16
X5.205Y-3.62
X5.21Y-3.275
X5.21Y-3.54
X5.21Y-3.785
X5.21Y-4.115
X5.21Y-4.295
X5.21Y-4.52
X5.21Y-4.675
X5.22Y-3.735
X5.225Y-3.15
X5.23Y-3.41
X5.235Y-3.1976
X5.235Y-3.915
X5.235Y-4.335
X5.24Y-3.03
X5.24Y-3.3
X5.245Y-3.365
X5.245Y-4.875
X5.245Y-4.915
X5.25Y-3.545
X5.25Y-3.715
X5.255Y-3.89
X5.255Y-4.31
X5.265Y-2.725
X5.27Y-3.12
X5.27Y-3.85
X5.275Y-3.52
X5.2775Y-4.4425
X5.28Y-4.14
X5.285Y-4.085
X5.295Y-3.835
X5.3Y-2.75
X5.3Y-2.83
X5.3Y-3.59
X5.3Y-4.185
X5.3Y-4.38
X5.3179Y-4.4121
X5.32Y-4.03
X5.325Y-3.095
X5.325Y-3.175
X5.325Y-4.3
X5.325Y-4.875
X5.325Y-4.915
X5.33Y-3.62
X5.34Y-2.7
X5.34Y-4.055
X5.345Y-3.495
X5.35Y-2.865
X5.35Y-3.385
X5.35Y-3.665
X5.35Y-4.01
X5.35Y-4.26
X5.355Y-3.695
X5.355Y-3.935
X5.355Y-4.215
X5.355Y-4.295
X5.355Y-4.4
X5.36Y-2.7
X5.365Y-2.97
X5.365Y-3.205
X5.38Y-2.7
X5.39Y-3.17
X5.39Y-3.225
X5.39Y-3.245
X5.39Y-3.265
X5.39Y-3.345
X5.39Y-3.365
X5.39Y-3.385
X5.395Y-4.355
X5.4Y-3.98
X5.42Y-3.31
X5.425Y-2.935
X5.43Y-4.42
X5.435Y-2.9
X5.435Y-3.165
X5.435Y-4.1111
X5.435Y-4.19
X5.435Y-4.625
X5.435Y-4.675
X5.4365Y-3.4665
X5.44Y-3.785
X5.445Y-3.535
X5.45Y-4.075
X5.465Y-3.91
X5.48Y-3.68
X5.49Y-4.09
X5.5Y-3.225
X5.5Y-3.245
X5.5Y-3.265
X5.5Y-3.345
X5.5Y-3.365
X5.5Y-3.385
X5.505Y-3.8499
X5.51Y-4.145
X5.51Y-4.185
X5.51Y-4.445
X5.5139Y-3.0739
X5.515Y-3.715
X5.515Y-3.785
X5.52Y-2.86
X5.52Y-3.585
X5.52Y-3.63
X5.52Y-3.66
X5.5207Y-3.465
X5.525Y-4.49
X5.535Y-3.015
X5.535Y-3.965
X5.54Y-2.94
X5.55Y-4.535
X5.555Y-4.155
X5.57Y-3.555
X5.615Y-2.345
X5.615Y-2.4
X5.675Y-3.12
X5.695Y-2.345
X5.695Y-2.4
T2
X4.62Y-2.6
X4.62Y-2.6787
X4.62Y-2.7575
X4.62Y-2.8362
X4.62Y-2.915
X4.62Y-2.9937
X4.62Y-3.0724
X4.62Y-3.1512
X4.62Y-3.2299
X4.62Y-3.3087
X4.62Y-3.3874
X4.62Y-3.4661
X4.62Y-3.5449
X4.62Y-3.6236
X4.62Y-3.7024
X4.62Y-3.7811
X4.62Y-3.8598
X4.62Y-3.9386
X4.62Y-4.0173
X4.62Y-4.0961
X4.62Y-4.1748
X4.62Y-4.2535
X4.62Y-4.3323
X4.62Y-4.411
X4.62Y-4.4898
X4.62Y-4.5685
X4.62Y-4.6472
X4.62Y-4.726
X4.62Y-4.8047
X4.62Y-4.8835
X4.6987Y-2.6
X4.6987Y-2.6787
X4.6987Y-2.7575
X4.6987Y-2.8362
X4.6987Y-2.915
X4.6987Y-2.9937
X4.6987Y-3.0724
X4.6987Y-3.1512
X4.6987Y-3.2299
X4.6987Y-3.3087
X4.6987Y-3.3874
X4.6987Y-3.4661
X4.6987Y-3.5449
X4.6987Y-3.6236
X4.6987Y-3.7024
X4.6987Y-3.7811
X4.6987Y-3.8598
X4.6987Y-3.9386
X4.6987Y-4.0173
X4.6987Y-4.0961
X4.6987Y-4.1748
X4.6987Y-4.2535
X4.6987Y-4.3323
X4.6987Y-4.411
X4.6987Y-4.4898
X4.6987Y-4.5685
X4.6987Y-4.6472
X4.6987Y-4.726
X4.6987Y-4.8047
X4.6987Y-4.8835
T3
X4.8352Y-2.6
X4.9352Y-2.6
T4
X4.9327Y-2.77
X4.9327Y-2.87
X4.9327Y-2.97
X4.9327Y-3.07
X4.9327Y-3.17
X4.9327Y-3.27
X4.9327Y-3.37
X4.9327Y-3.47
X4.9327Y-3.57
X4.9327Y-3.67
X4.9327Y-3.77
X4.9327Y-3.87
X4.9327Y-3.97
X4.9327Y-4.07
X4.9327Y-4.17
X4.9327Y-4.27
X4.9327Y-4.37
X4.9327Y-4.47
X4.9327Y-4.57
X4.9327Y-4.67
X5.6327Y-2.77
X5.6327Y-2.87
X5.6327Y-2.97
X5.6327Y-3.07
X5.6327Y-3.17
X5.6327Y-3.27
X5.6327Y-3.37
X5.6327Y-3.47
X5.6327Y-3.57
X5.6327Y-3.67
X5.6327Y-3.77
X5.6327Y-3.87
X5.6327Y-3.97
X5.6327Y-4.07
X5.6327Y-4.17
X5.6327Y-4.27
X5.6327Y-4.37
X5.6327Y-4.47
X5.6327Y-4.57
X5.6327Y-4.67
T0
M30
