M48
; DRILL file {KiCad 8.0.1} date 2024-05-10T13:07:50-0600
; FORMAT={-:-/ absolute / inch / decimal}
; #@! TF.CreationDate,2024-05-10T13:07:50-06:00
; #@! TF.GenerationSoftware,Kicad,Pcbnew,8.0.1
; #@! TF.FileFunction,Plated,1,4,PTH
FMAT,2
INCH
; #@! TA.AperFunction,Plated,PTH,ViaDrill
T1C0.0079
; #@! TA.AperFunction,Plated,PTH,ComponentDrill
T2C0.0394
; #@! TA.AperFunction,Plated,PTH,ComponentDrill
T3C0.0402
%
G90
G05
T1
X4.7283Y-2.7756
X4.7283Y-2.8543
X4.7283Y-2.9331
X4.7283Y-3.0118
X4.7283Y-3.0945
X4.7283Y-3.1969
X4.7283Y-3.2205
X4.7283Y-3.3268
X4.7283Y-4.2717
X4.7283Y-4.3504
X4.7283Y-4.4291
X4.7283Y-4.5079
X4.7323Y-4.6929
X4.7323Y-4.7165
X4.7362Y-3.1614
X4.7362Y-3.2638
X4.7363Y-4.8898
X4.7363Y-4.9134
X4.7441Y-3.8386
X4.7441Y-4.5359
X4.747Y-3.1969
X4.747Y-3.2205
X4.752Y-3.665
X4.752Y-4.6929
X4.752Y-4.7165
X4.7599Y-4.8898
X4.7599Y-4.9134
X4.7657Y-4.5965
X4.7717Y-3.585
X4.7717Y-4.7047
X4.7835Y-4.8898
X4.7835Y-4.9134
X4.79Y-5.0244
X4.8071Y-2.8504
X4.8071Y-3.1102
X4.8071Y-4.9016
X4.81Y-5.0244
X4.811Y-2.6654
X4.811Y-2.689
X4.814Y-4.189
X4.815Y-3.1772
X4.815Y-4.37
X4.815Y-4.48
X4.815Y-4.525
X4.82Y-3.97
X4.82Y-4.125
X4.825Y-4.795
X4.83Y-5.09
X4.8307Y-2.6654
X4.8307Y-2.689
X4.8346Y-2.955
X4.8379Y-4.1
X4.84Y-4.0276
X4.84Y-5.16
X4.8448Y-4.775
X4.8448Y-4.94
X4.845Y-4.855
X4.851Y-2.678
X4.8543Y-3.0315
X4.8661Y-2.8268
X4.875Y-4.84
X4.8799Y-3.8366
X4.88Y-4.94
X4.886Y-4.409
X4.89Y-2.91
X4.8929Y-3.8079
X4.895Y-5.085
X4.895Y-5.165
X4.9216Y-4.94
X4.945Y-4.855
X4.9548Y-4.94
X4.98Y-4.39
X4.9843Y-2.6299
X4.9882Y-3.2087
X4.9882Y-3.252
X4.995Y-4.31
X5.0Y-4.57
X5.0Y-5.2106
X5.005Y-4.675
X5.01Y-2.75
X5.015Y-2.79
X5.015Y-3.3
X5.015Y-4.235
X5.02Y-2.53
X5.02Y-5.19
X5.0203Y-4.5453
X5.024Y-5.1591
X5.035Y-2.81
X5.045Y-3.795
X5.045Y-3.885
X5.0453Y-3.8563
X5.0492Y-2.5709
X5.0492Y-2.5984
X5.0492Y-2.6299
X5.05Y-3.945
X5.05Y-4.185
X5.05Y-4.435
X5.0525Y-4.5175
X5.055Y-4.47
X5.055Y-5.19
X5.0551Y-4.622
X5.0598Y-5.085
X5.06Y-3.435
X5.06Y-3.565
X5.0648Y-4.94
X5.065Y-2.765
X5.07Y-4.265
X5.08Y-5.085
X5.09Y-3.3
X5.09Y-4.22
X5.0945Y-2.4685
X5.0945Y-2.4882
X5.0945Y-2.5079
X5.095Y-4.19
X5.1043Y-5.1142
X5.1043Y-5.1358
X5.1083Y-5.0768
X5.11Y-3.25
X5.115Y-3.595
X5.1181Y-2.5709
X5.1181Y-2.5984
X5.1181Y-2.6299
X5.12Y-3.775
X5.12Y-3.995
X5.12Y-4.145
X5.1201Y-5.2106
X5.125Y-2.745
X5.126Y-4.8425
X5.1309Y-4.675
X5.1325Y-3.62
X5.135Y-3.41
X5.1358Y-5.1555
X5.1398Y-5.1909
X5.1498Y-4.865
X5.15Y-3.2
X5.1732Y-3.9803
X5.1752Y-5.1142
X5.1752Y-5.1358
X5.1904Y-2.935
X5.1909Y-3.9843
X5.2047Y-5.1555
X5.205Y-3.62
X5.21Y-3.275
X5.21Y-3.54
X5.21Y-3.785
X5.21Y-4.115
X5.21Y-4.295
X5.21Y-4.52
X5.21Y-4.675
X5.215Y-4.275
X5.22Y-3.735
X5.225Y-3.15
X5.23Y-3.41
X5.235Y-3.1976
X5.235Y-3.915
X5.235Y-4.335
X5.24Y-2.935
X5.24Y-3.03
X5.24Y-3.3
X5.245Y-3.365
X5.248Y-4.8622
X5.248Y-4.9016
X5.248Y-4.937
X5.2481Y-5.1081
X5.25Y-3.545
X5.25Y-3.715
X5.255Y-3.89
X5.255Y-4.31
X5.2559Y-5.0295
X5.265Y-3.115
X5.27Y-3.85
X5.275Y-3.07
X5.275Y-3.52
X5.2775Y-4.4425
X5.2781Y-3.1281
X5.28Y-4.14
X5.285Y-4.085
X5.295Y-3.835
X5.3Y-2.75
X5.3Y-2.83
X5.3Y-3.59
X5.3Y-4.185
X5.3Y-4.38
X5.3179Y-4.4121
X5.32Y-3.095
X5.32Y-4.03
X5.3228Y-3.1693
X5.3228Y-4.8622
X5.3228Y-4.9016
X5.323Y-4.937
X5.325Y-4.3
X5.33Y-3.62
X5.34Y-4.055
X5.345Y-3.495
X5.35Y-3.385
X5.35Y-3.665
X5.35Y-4.01
X5.35Y-4.26
X5.355Y-3.695
X5.355Y-3.935
X5.355Y-4.215
X5.355Y-4.295
X5.355Y-4.39
X5.355Y-4.41
X5.355Y-4.44
X5.3552Y-3.0469
X5.3583Y-3.4646
X5.3661Y-3.2795
X5.375Y-4.355
X5.3779Y-3.3341
X5.3779Y-3.4232
X5.3892Y-3.1369
X5.3975Y-3.9825
X5.3979Y-3.3341
X5.3979Y-3.4232
X5.4Y-3.765
X5.4Y-4.095
X5.4179Y-3.3341
X5.4179Y-3.4232
X5.4242Y-3.1169
X5.4252Y-3.2677
X5.43Y-4.42
X5.435Y-4.1111
X5.435Y-4.19
X5.435Y-4.625
X5.435Y-4.675
X5.4365Y-3.4665
X5.44Y-3.785
X5.4431Y-3.0769
X5.445Y-3.535
X5.45Y-4.075
X5.465Y-3.91
X5.4781Y-3.0169
X5.48Y-3.68
X5.49Y-4.09
X5.49Y-4.135
X5.4979Y-3.4227
X5.4987Y-3.1701
X5.4988Y-3.3336
X5.505Y-3.8499
X5.51Y-4.155
X5.51Y-4.185
X5.51Y-4.445
X5.515Y-3.715
X5.515Y-3.775
X5.515Y-3.795
X5.5157Y-3.2244
X5.5157Y-3.4646
X5.5179Y-3.4227
X5.5181Y-3.0419
X5.5188Y-3.3336
X5.5197Y-3.1909
X5.52Y-3.585
X5.52Y-3.63
X5.52Y-3.66
X5.525Y-4.49
X5.535Y-3.965
X5.5365Y-3.4651
X5.5379Y-3.4227
X5.5388Y-3.3336
X5.5481Y-3.0969
X5.55Y-4.535
X5.555Y-4.155
X5.563Y-3.2205
X5.5681Y-3.0769
X5.57Y-3.555
X5.6024Y-2.374
X5.6024Y-2.3976
X5.6024Y-2.4213
X5.6102Y-2.5945
X5.6102Y-2.6181
X5.6102Y-2.6417
X5.6811Y-2.374
X5.6811Y-2.3976
X5.6811Y-2.4213
X5.689Y-2.5945
X5.689Y-2.6181
X5.689Y-2.6417
T2
X4.81Y-2.6
X4.8102Y-2.45
X4.91Y-2.6
X4.9102Y-2.45
X5.378Y-2.9016
X5.478Y-2.9016
T3
X4.9327Y-2.77
X4.9327Y-2.87
X4.9327Y-2.97
X4.9327Y-3.07
X4.9327Y-3.17
X4.9327Y-3.27
X4.9327Y-3.37
X4.9327Y-3.47
X4.9327Y-3.57
X4.9327Y-3.67
X4.9327Y-3.77
X4.9327Y-3.87
X4.9327Y-3.97
X4.9327Y-4.07
X4.9327Y-4.17
X4.9327Y-4.27
X4.9327Y-4.37
X4.9327Y-4.47
X4.9327Y-4.57
X4.9327Y-4.67
X5.6327Y-2.77
X5.6327Y-2.87
X5.6327Y-2.97
X5.6327Y-3.07
X5.6327Y-3.17
X5.6327Y-3.27
X5.6327Y-3.37
X5.6327Y-3.47
X5.6327Y-3.57
X5.6327Y-3.67
X5.6327Y-3.77
X5.6327Y-3.87
X5.6327Y-3.97
X5.6327Y-4.07
X5.6327Y-4.17
X5.6327Y-4.27
X5.6327Y-4.37
X5.6327Y-4.47
X5.6327Y-4.57
X5.6327Y-4.67
M30
