%TF.GenerationSoftware,KiCad,Pcbnew,7.0.5-0*%
%TF.CreationDate,2023-06-30T21:05:24-05:00*%
%TF.ProjectId,PicoGUS Hand386,5069636f-4755-4532-9048-616e64333836,rev?*%
%TF.SameCoordinates,Original*%
%TF.FileFunction,Soldermask,Bot*%
%TF.FilePolarity,Negative*%
%FSLAX46Y46*%
G04 Gerber Fmt 4.6, Leading zero omitted, Abs format (unit mm)*
G04 Created by KiCad (PCBNEW 7.0.5-0) date 2023-06-30 21:05:24*
%MOMM*%
%LPD*%
G01*
G04 APERTURE LIST*
G04 Aperture macros list*
%AMFreePoly0*
4,1,19,0.000000,0.744911,0.071157,0.744911,0.207708,0.704816,0.327430,0.627875,0.420627,0.520320,0.479746,0.390866,0.500000,0.250000,0.500000,-0.250000,0.479746,-0.390866,0.420627,-0.520320,0.327430,-0.627875,0.207708,-0.704816,0.071157,-0.744911,0.000000,-0.744911,0.000000,-0.750000,-0.500000,-0.750000,-0.500000,0.750000,0.000000,0.750000,0.000000,0.744911,0.000000,0.744911,
$1*%
%AMFreePoly1*
4,1,19,0.500000,-0.750000,0.000000,-0.750000,0.000000,-0.744911,-0.071157,-0.744911,-0.207708,-0.704816,-0.327430,-0.627875,-0.420627,-0.520320,-0.479746,-0.390866,-0.500000,-0.250000,-0.500000,0.250000,-0.479746,0.390866,-0.420627,0.520320,-0.327430,0.627875,-0.207708,0.704816,-0.071157,0.744911,0.000000,0.744911,0.000000,0.750000,0.500000,0.750000,0.500000,-0.750000,0.500000,-0.750000,
$1*%
G04 Aperture macros list end*
%ADD10FreePoly0,90.000000*%
%ADD11FreePoly1,90.000000*%
%ADD12FreePoly1,180.000000*%
%ADD13FreePoly0,180.000000*%
%ADD14R,1.700000X1.700000*%
%ADD15O,1.700000X1.700000*%
%ADD16R,3.350000X1.250000*%
%ADD17C,1.100000*%
%ADD18C,1.200000*%
G04 APERTURE END LIST*
D10*
%TO.C,JP4*%
X122600000Y-69450000D03*
D11*
X122600000Y-70750000D03*
%TD*%
D12*
%TO.C,JP3*%
X135650000Y-130500000D03*
D13*
X134350000Y-130500000D03*
%TD*%
%TO.C,JP2*%
X134350000Y-127750000D03*
D12*
X135650000Y-127750000D03*
%TD*%
D14*
%TO.C,J6*%
X124714000Y-66040000D03*
D15*
X122174000Y-66040000D03*
%TD*%
D14*
%TO.C,JP1*%
X124719000Y-62230000D03*
D15*
X122179000Y-62230000D03*
%TD*%
D16*
%TO.C,J3*%
X118058000Y-66000000D03*
X118058000Y-68000000D03*
X118058000Y-70000000D03*
X118058000Y-72000000D03*
X118058000Y-74000000D03*
X118058000Y-76000000D03*
X118058000Y-78000000D03*
X118058000Y-80000000D03*
X118058000Y-82000000D03*
X118058000Y-84000000D03*
X118058000Y-86000000D03*
X118058000Y-88000000D03*
X118058000Y-90000000D03*
X118058000Y-92000000D03*
X118058000Y-94000000D03*
X118058000Y-96000000D03*
X118058000Y-98000000D03*
X118058000Y-100000000D03*
X118058000Y-102000000D03*
X118058000Y-104000000D03*
X118058000Y-106000000D03*
X118058000Y-108000000D03*
X118058000Y-110000000D03*
X118058000Y-112000000D03*
X118058000Y-114000000D03*
X118058000Y-116000000D03*
X118058000Y-118000000D03*
X118058000Y-120000000D03*
X118058000Y-122000000D03*
X118058000Y-124000000D03*
%TD*%
D17*
%TO.C,J5*%
X143275000Y-63800000D03*
X138275000Y-63800000D03*
%TD*%
D15*
%TO.C,U1*%
X125290500Y-70358000D03*
X125290500Y-72898000D03*
D14*
X125290500Y-75438000D03*
D15*
X125290500Y-77978000D03*
X125290500Y-80518000D03*
X125290500Y-83058000D03*
X125290500Y-85598000D03*
D14*
X125290500Y-88138000D03*
D15*
X125290500Y-90678000D03*
X125290500Y-93218000D03*
X125290500Y-95758000D03*
X125290500Y-98298000D03*
D14*
X125290500Y-100838000D03*
D15*
X125290500Y-103378000D03*
X125290500Y-105918000D03*
X125290500Y-108458000D03*
X125290500Y-110998000D03*
D14*
X125290500Y-113538000D03*
D15*
X125290500Y-116078000D03*
X125290500Y-118618000D03*
X143070500Y-118618000D03*
X143070500Y-116078000D03*
D14*
X143070500Y-113538000D03*
D15*
X143070500Y-110998000D03*
X143070500Y-108458000D03*
X143070500Y-105918000D03*
X143070500Y-103378000D03*
D14*
X143070500Y-100838000D03*
D15*
X143070500Y-98298000D03*
X143070500Y-95758000D03*
X143070500Y-93218000D03*
X143070500Y-90678000D03*
D14*
X143070500Y-88138000D03*
D15*
X143070500Y-85598000D03*
X143070500Y-83058000D03*
X143070500Y-80518000D03*
X143070500Y-77978000D03*
D14*
X143070500Y-75438000D03*
D15*
X143070500Y-72898000D03*
X143070500Y-70358000D03*
%TD*%
D18*
%TO.C,J1*%
X138245000Y-125389000D03*
X138245000Y-130389000D03*
%TD*%
M02*
