%TF.GenerationSoftware,KiCad,Pcbnew,7.0.5-0*%
%TF.CreationDate,2023-06-15T10:43:23-05:00*%
%TF.ProjectId,PicoGUS,5069636f-4755-4532-9e6b-696361645f70,rev?*%
%TF.SameCoordinates,Original*%
%TF.FileFunction,Paste,Top*%
%TF.FilePolarity,Positive*%
%FSLAX46Y46*%
G04 Gerber Fmt 4.6, Leading zero omitted, Abs format (unit mm)*
G04 Created by KiCad (PCBNEW 7.0.5-0) date 2023-06-15 10:43:23*
%MOMM*%
%LPD*%
G01*
G04 APERTURE LIST*
G04 Aperture macros list*
%AMRoundRect*
0 Rectangle with rounded corners*
0 $1 Rounding radius*
0 $2 $3 $4 $5 $6 $7 $8 $9 X,Y pos of 4 corners*
0 Add a 4 corners polygon primitive as box body*
4,1,4,$2,$3,$4,$5,$6,$7,$8,$9,$2,$3,0*
0 Add four circle primitives for the rounded corners*
1,1,$1+$1,$2,$3*
1,1,$1+$1,$4,$5*
1,1,$1+$1,$6,$7*
1,1,$1+$1,$8,$9*
0 Add four rect primitives between the rounded corners*
20,1,$1+$1,$2,$3,$4,$5,0*
20,1,$1+$1,$4,$5,$6,$7,0*
20,1,$1+$1,$6,$7,$8,$9,0*
20,1,$1+$1,$8,$9,$2,$3,0*%
G04 Aperture macros list end*
%ADD10RoundRect,0.250000X0.312500X0.275000X-0.312500X0.275000X-0.312500X-0.275000X0.312500X-0.275000X0*%
%ADD11RoundRect,0.140000X-0.170000X0.140000X-0.170000X-0.140000X0.170000X-0.140000X0.170000X0.140000X0*%
%ADD12RoundRect,0.250000X-0.262500X-0.450000X0.262500X-0.450000X0.262500X0.450000X-0.262500X0.450000X0*%
%ADD13RoundRect,0.100000X-0.637500X-0.100000X0.637500X-0.100000X0.637500X0.100000X-0.637500X0.100000X0*%
%ADD14RoundRect,0.150000X0.150000X-0.825000X0.150000X0.825000X-0.150000X0.825000X-0.150000X-0.825000X0*%
%ADD15RoundRect,0.140000X-0.140000X-0.170000X0.140000X-0.170000X0.140000X0.170000X-0.140000X0.170000X0*%
%ADD16RoundRect,0.250000X0.412500X0.925000X-0.412500X0.925000X-0.412500X-0.925000X0.412500X-0.925000X0*%
%ADD17RoundRect,0.135000X-0.135000X-0.185000X0.135000X-0.185000X0.135000X0.185000X-0.135000X0.185000X0*%
%ADD18R,1.500000X2.650000*%
%ADD19R,2.470100X1.512000*%
%ADD20RoundRect,0.135000X0.185000X-0.135000X0.185000X0.135000X-0.185000X0.135000X-0.185000X-0.135000X0*%
%ADD21RoundRect,0.150000X-0.512500X-0.150000X0.512500X-0.150000X0.512500X0.150000X-0.512500X0.150000X0*%
%ADD22RoundRect,0.140000X0.140000X0.170000X-0.140000X0.170000X-0.140000X-0.170000X0.140000X-0.170000X0*%
%ADD23RoundRect,0.147500X0.172500X-0.147500X0.172500X0.147500X-0.172500X0.147500X-0.172500X-0.147500X0*%
%ADD24RoundRect,0.250000X-0.925000X0.412500X-0.925000X-0.412500X0.925000X-0.412500X0.925000X0.412500X0*%
%ADD25RoundRect,0.140000X0.170000X-0.140000X0.170000X0.140000X-0.170000X0.140000X-0.170000X-0.140000X0*%
%ADD26RoundRect,0.100000X0.100000X-0.637500X0.100000X0.637500X-0.100000X0.637500X-0.100000X-0.637500X0*%
%ADD27R,1.100000X1.100000*%
%ADD28R,1.500000X3.100000*%
%ADD29RoundRect,0.250000X0.262500X0.450000X-0.262500X0.450000X-0.262500X-0.450000X0.262500X-0.450000X0*%
G04 APERTURE END LIST*
D10*
%TO.C,C17*%
X132205500Y-130175000D03*
X130430500Y-130175000D03*
%TD*%
D11*
%TO.C,C10*%
X134620000Y-70386000D03*
X134620000Y-71346000D03*
%TD*%
D12*
%TO.C,R3*%
X129389500Y-62992000D03*
X131214500Y-62992000D03*
%TD*%
D13*
%TO.C,U3*%
X131318000Y-104487000D03*
X131318000Y-105137000D03*
X131318000Y-105787000D03*
X131318000Y-106437000D03*
X131318000Y-107087000D03*
X131318000Y-107737000D03*
X131318000Y-108387000D03*
X131318000Y-109037000D03*
X137043000Y-109037000D03*
X137043000Y-108387000D03*
X137043000Y-107737000D03*
X137043000Y-107087000D03*
X137043000Y-106437000D03*
X137043000Y-105787000D03*
X137043000Y-105137000D03*
X137043000Y-104487000D03*
%TD*%
%TO.C,U6*%
X128338500Y-79920000D03*
X128338500Y-80570000D03*
X128338500Y-81220000D03*
X128338500Y-81870000D03*
X128338500Y-82520000D03*
X128338500Y-83170000D03*
X128338500Y-83820000D03*
X134063500Y-83820000D03*
X134063500Y-83170000D03*
X134063500Y-82520000D03*
X134063500Y-81870000D03*
X134063500Y-81220000D03*
X134063500Y-80570000D03*
X134063500Y-79920000D03*
%TD*%
D14*
%TO.C,U8*%
X129296000Y-75791000D03*
X130566000Y-75791000D03*
X131836000Y-75791000D03*
X133106000Y-75791000D03*
X133106000Y-70841000D03*
X131836000Y-70841000D03*
X130566000Y-70841000D03*
X129296000Y-70841000D03*
%TD*%
D15*
%TO.C,C13*%
X124484000Y-122809000D03*
X125444000Y-122809000D03*
%TD*%
%TO.C,C3*%
X138712000Y-88011000D03*
X139672000Y-88011000D03*
%TD*%
D16*
%TO.C,C2*%
X131712500Y-66040000D03*
X128637500Y-66040000D03*
%TD*%
D15*
%TO.C,C9*%
X138585000Y-104394000D03*
X139545000Y-104394000D03*
%TD*%
D17*
%TO.C,R6*%
X130169000Y-127508000D03*
X131189000Y-127508000D03*
%TD*%
D15*
%TO.C,C18*%
X130199000Y-128524000D03*
X131159000Y-128524000D03*
%TD*%
D18*
%TO.C,J5*%
X140932250Y-66139000D03*
X143632250Y-60289000D03*
D19*
X134567300Y-63220000D03*
%TD*%
D15*
%TO.C,C12*%
X123853000Y-131826000D03*
X124813000Y-131826000D03*
%TD*%
D20*
%TO.C,R5*%
X130171000Y-126496000D03*
X130171000Y-125476000D03*
%TD*%
D15*
%TO.C,C7*%
X133487000Y-78568000D03*
X134447000Y-78568000D03*
%TD*%
D13*
%TO.C,U4*%
X131386500Y-96105000D03*
X131386500Y-96755000D03*
X131386500Y-97405000D03*
X131386500Y-98055000D03*
X131386500Y-98705000D03*
X131386500Y-99355000D03*
X131386500Y-100005000D03*
X131386500Y-100655000D03*
X137111500Y-100655000D03*
X137111500Y-100005000D03*
X137111500Y-99355000D03*
X137111500Y-98705000D03*
X137111500Y-98055000D03*
X137111500Y-97405000D03*
X137111500Y-96755000D03*
X137111500Y-96105000D03*
%TD*%
D11*
%TO.C,C14*%
X123059000Y-121821000D03*
X123059000Y-122781000D03*
%TD*%
D21*
%TO.C,U7*%
X136921500Y-72686000D03*
X136921500Y-73636000D03*
X136921500Y-74586000D03*
X139196500Y-74586000D03*
X139196500Y-72686000D03*
%TD*%
D13*
%TO.C,U5*%
X131318000Y-88048000D03*
X131318000Y-88698000D03*
X131318000Y-89348000D03*
X131318000Y-89998000D03*
X131318000Y-90648000D03*
X131318000Y-91298000D03*
X131318000Y-91948000D03*
X137043000Y-91948000D03*
X137043000Y-91298000D03*
X137043000Y-90648000D03*
X137043000Y-89998000D03*
X137043000Y-89348000D03*
X137043000Y-88698000D03*
X137043000Y-88048000D03*
%TD*%
D22*
%TO.C,C4*%
X137513000Y-111760000D03*
X136553000Y-111760000D03*
%TD*%
D23*
%TO.C,L1*%
X132588000Y-63477000D03*
X132588000Y-62507000D03*
%TD*%
D24*
%TO.C,C1*%
X138313000Y-82364500D03*
X138313000Y-85439500D03*
%TD*%
D25*
%TO.C,C6*%
X140599000Y-78077000D03*
X140599000Y-77117000D03*
%TD*%
D23*
%TO.C,L2*%
X132588000Y-61191000D03*
X132588000Y-60221000D03*
%TD*%
D17*
%TO.C,R1*%
X130935000Y-86614000D03*
X131955000Y-86614000D03*
%TD*%
D26*
%TO.C,U10*%
X123059000Y-130116500D03*
X123709000Y-130116500D03*
X124359000Y-130116500D03*
X125009000Y-130116500D03*
X125659000Y-130116500D03*
X126309000Y-130116500D03*
X126959000Y-130116500D03*
X127609000Y-130116500D03*
X128259000Y-130116500D03*
X128909000Y-130116500D03*
X128909000Y-124391500D03*
X128259000Y-124391500D03*
X127609000Y-124391500D03*
X126959000Y-124391500D03*
X126309000Y-124391500D03*
X125659000Y-124391500D03*
X125009000Y-124391500D03*
X124359000Y-124391500D03*
X123709000Y-124391500D03*
X123059000Y-124391500D03*
%TD*%
D20*
%TO.C,R2*%
X138811000Y-98808000D03*
X138811000Y-97788000D03*
%TD*%
D22*
%TO.C,C16*%
X130020000Y-131826000D03*
X129060000Y-131826000D03*
%TD*%
D15*
%TO.C,C11*%
X126012000Y-131826000D03*
X126972000Y-131826000D03*
%TD*%
D17*
%TO.C,R8*%
X138684000Y-92160000D03*
X139704000Y-92160000D03*
%TD*%
D27*
%TO.C,D1*%
X139335000Y-70186000D03*
X136535000Y-70186000D03*
%TD*%
D21*
%TO.C,U9*%
X136667500Y-78126000D03*
X136667500Y-79076000D03*
X136667500Y-80026000D03*
X138942500Y-80026000D03*
X138942500Y-78126000D03*
%TD*%
D11*
%TO.C,C20*%
X140716000Y-73208000D03*
X140716000Y-74168000D03*
%TD*%
%TO.C,C19*%
X130171000Y-123502000D03*
X130171000Y-124462000D03*
%TD*%
%TO.C,C15*%
X121920000Y-129695000D03*
X121920000Y-130655000D03*
%TD*%
%TO.C,C8*%
X127889000Y-69878000D03*
X127889000Y-70838000D03*
%TD*%
D13*
%TO.C,U2*%
X131318000Y-112850000D03*
X131318000Y-113500000D03*
X131318000Y-114150000D03*
X131318000Y-114800000D03*
X131318000Y-115450000D03*
X131318000Y-116100000D03*
X131318000Y-116750000D03*
X131318000Y-117400000D03*
X131318000Y-118050000D03*
X131318000Y-118700000D03*
X137043000Y-118700000D03*
X137043000Y-118050000D03*
X137043000Y-117400000D03*
X137043000Y-116750000D03*
X137043000Y-116100000D03*
X137043000Y-115450000D03*
X137043000Y-114800000D03*
X137043000Y-114150000D03*
X137043000Y-113500000D03*
X137043000Y-112850000D03*
%TD*%
D28*
%TO.C,J1*%
X134245000Y-131339000D03*
X134245000Y-124439000D03*
X141745000Y-124439000D03*
X141745000Y-131339000D03*
%TD*%
D15*
%TO.C,C5*%
X138712000Y-96139000D03*
X139672000Y-96139000D03*
%TD*%
D29*
%TO.C,R4*%
X131214500Y-60706000D03*
X129389500Y-60706000D03*
%TD*%
D17*
%TO.C,R7*%
X138682000Y-91059000D03*
X139702000Y-91059000D03*
%TD*%
M02*
