%TF.GenerationSoftware,KiCad,Pcbnew,8.0.1*%
%TF.CreationDate,2024-05-10T13:07:50-06:00*%
%TF.ProjectId,PicoGUS Hand386,5069636f-4755-4532-9048-616e64333836,rev?*%
%TF.SameCoordinates,Original*%
%TF.FileFunction,Copper,L4,Bot*%
%TF.FilePolarity,Positive*%
%FSLAX46Y46*%
G04 Gerber Fmt 4.6, Leading zero omitted, Abs format (unit mm)*
G04 Created by KiCad (PCBNEW 8.0.1) date 2024-05-10 13:07:50*
%MOMM*%
%LPD*%
G01*
G04 APERTURE LIST*
G04 Aperture macros list*
%AMFreePoly0*
4,1,19,0.500000,-0.750000,0.000000,-0.750000,0.000000,-0.744911,-0.071157,-0.744911,-0.207708,-0.704816,-0.327430,-0.627875,-0.420627,-0.520320,-0.479746,-0.390866,-0.500000,-0.250000,-0.500000,0.250000,-0.479746,0.390866,-0.420627,0.520320,-0.327430,0.627875,-0.207708,0.704816,-0.071157,0.744911,0.000000,0.744911,0.000000,0.750000,0.500000,0.750000,0.500000,-0.750000,0.500000,-0.750000,
$1*%
%AMFreePoly1*
4,1,19,0.000000,0.744911,0.071157,0.744911,0.207708,0.704816,0.327430,0.627875,0.420627,0.520320,0.479746,0.390866,0.500000,0.250000,0.500000,-0.250000,0.479746,-0.390866,0.420627,-0.520320,0.327430,-0.627875,0.207708,-0.704816,0.071157,-0.744911,0.000000,-0.744911,0.000000,-0.750000,-0.500000,-0.750000,-0.500000,0.750000,0.000000,0.750000,0.000000,0.744911,0.000000,0.744911,
$1*%
G04 Aperture macros list end*
%TA.AperFunction,EtchedComponent*%
%ADD10C,0.000000*%
%TD*%
%TA.AperFunction,ComponentPad*%
%ADD11R,1.700000X1.700000*%
%TD*%
%TA.AperFunction,ComponentPad*%
%ADD12O,1.700000X1.700000*%
%TD*%
%TA.AperFunction,SMDPad,CuDef*%
%ADD13R,3.350000X1.250000*%
%TD*%
%TA.AperFunction,ComponentPad*%
%ADD14O,1.800000X1.600000*%
%TD*%
%TA.AperFunction,SMDPad,CuDef*%
%ADD15FreePoly0,180.000000*%
%TD*%
%TA.AperFunction,SMDPad,CuDef*%
%ADD16FreePoly1,180.000000*%
%TD*%
%TA.AperFunction,SMDPad,CuDef*%
%ADD17FreePoly0,90.000000*%
%TD*%
%TA.AperFunction,SMDPad,CuDef*%
%ADD18FreePoly1,90.000000*%
%TD*%
%TA.AperFunction,ViaPad*%
%ADD19C,0.350000*%
%TD*%
%TA.AperFunction,Conductor*%
%ADD20C,0.171000*%
%TD*%
%TA.AperFunction,Conductor*%
%ADD21C,0.200000*%
%TD*%
%TA.AperFunction,Conductor*%
%ADD22C,1.000000*%
%TD*%
G04 APERTURE END LIST*
D10*
%TA.AperFunction,EtchedComponent*%
%TO.C,JP2*%
G36*
X135250000Y-128050000D02*
G01*
X134750000Y-128050000D01*
X134750000Y-127450000D01*
X135250000Y-127450000D01*
X135250000Y-128050000D01*
G37*
%TD.AperFunction*%
%TA.AperFunction,EtchedComponent*%
%TO.C,JP4*%
G36*
X122900000Y-70350000D02*
G01*
X122300000Y-70350000D01*
X122300000Y-69850000D01*
X122900000Y-69850000D01*
X122900000Y-70350000D01*
G37*
%TD.AperFunction*%
%TA.AperFunction,EtchedComponent*%
%TO.C,JP3*%
G36*
X135250000Y-130800000D02*
G01*
X134750000Y-130800000D01*
X134750000Y-130200000D01*
X135250000Y-130200000D01*
X135250000Y-130800000D01*
G37*
%TD.AperFunction*%
%TD*%
D11*
%TO.P,J6,1,Pin_1*%
%TO.N,UART_TX*%
X124714000Y-66040000D03*
D12*
%TO.P,J6,2,Pin_2*%
%TO.N,GND*%
X122174000Y-66040000D03*
%TD*%
D11*
%TO.P,JP1,1,A*%
%TO.N,Net-(JP1-A)*%
X124719000Y-62230000D03*
D12*
%TO.P,JP1,2,B*%
%TO.N,RESET*%
X122179000Y-62230000D03*
%TD*%
D13*
%TO.P,J3,2,DB7*%
%TO.N,D7*%
X118058000Y-66500000D03*
%TO.P,J3,4,DB6*%
%TO.N,D6*%
X118058000Y-68500000D03*
%TO.P,J3,6,DB5*%
%TO.N,D5*%
X118058000Y-70500000D03*
%TO.P,J3,8,DB4*%
%TO.N,D4*%
X118058000Y-72500000D03*
%TO.P,J3,10,DB3*%
%TO.N,D3*%
X118058000Y-74500000D03*
%TO.P,J3,12,DB2*%
%TO.N,D2*%
X118058000Y-76500000D03*
%TO.P,J3,14,DB1*%
%TO.N,D1*%
X118058000Y-78500000D03*
%TO.P,J3,16,DB0*%
%TO.N,D0*%
X118058000Y-80500000D03*
%TO.P,J3,18,IO_READY*%
%TO.N,I{slash}OCHRDY*%
X118058000Y-82500000D03*
%TO.P,J3,20,AEN*%
%TO.N,AEN*%
X118058000Y-84500000D03*
%TO.P,J3,22,BA19*%
%TO.N,unconnected-(J3-BA19-Pad22)*%
X118058000Y-86500000D03*
%TO.P,J3,24,BA18*%
%TO.N,unconnected-(J3-BA18-Pad24)*%
X118058000Y-88500000D03*
%TO.P,J3,26,BA17*%
%TO.N,unconnected-(J3-BA17-Pad26)*%
X118058000Y-90500000D03*
%TO.P,J3,28,BA16*%
%TO.N,unconnected-(J3-BA16-Pad28)*%
X118058000Y-92500000D03*
%TO.P,J3,30,BA15*%
%TO.N,unconnected-(J3-BA15-Pad30)*%
X118058000Y-94500000D03*
%TO.P,J3,32,BA14*%
%TO.N,unconnected-(J3-BA14-Pad32)*%
X118058000Y-96500000D03*
%TO.P,J3,34,BA13*%
%TO.N,unconnected-(J3-BA13-Pad34)*%
X118058000Y-98500000D03*
%TO.P,J3,36,BA12*%
%TO.N,unconnected-(J3-BA12-Pad36)*%
X118058000Y-100500000D03*
%TO.P,J3,38,BA11*%
%TO.N,unconnected-(J3-BA11-Pad38)*%
X118058000Y-102500000D03*
%TO.P,J3,40,BA10*%
%TO.N,unconnected-(J3-BA10-Pad40)*%
X118058000Y-104500000D03*
%TO.P,J3,42,BA09*%
%TO.N,A9*%
X118058000Y-106500000D03*
%TO.P,J3,44,BA08*%
%TO.N,A8*%
X118058000Y-108500000D03*
%TO.P,J3,46,BA07*%
%TO.N,A7*%
X118058000Y-110500000D03*
%TO.P,J3,48,BA06*%
%TO.N,A6*%
X118058000Y-112500000D03*
%TO.P,J3,50,BA05*%
%TO.N,A5*%
X118058000Y-114500000D03*
%TO.P,J3,52,BA04*%
%TO.N,A4*%
X118058000Y-116500000D03*
%TO.P,J3,54,BA03*%
%TO.N,A3*%
X118058000Y-118500000D03*
%TO.P,J3,56,BA02*%
%TO.N,A2*%
X118058000Y-120500000D03*
%TO.P,J3,58,BA01*%
%TO.N,A1*%
X118058000Y-122500000D03*
%TO.P,J3,60,BA00*%
%TO.N,A0*%
X118058000Y-124500000D03*
%TD*%
D14*
%TO.P,U1,1,GPIO0*%
%TO.N,SPI_RX*%
X125290500Y-70358000D03*
%TO.P,U1,2,GPIO1*%
%TO.N,~{SPI_CS}*%
X125290500Y-72898000D03*
%TO.P,U1,3,GND*%
%TO.N,GND*%
X125290500Y-75438000D03*
%TO.P,U1,4,GPIO2*%
%TO.N,SPI_SCK*%
X125290500Y-77978000D03*
%TO.P,U1,5,GPIO3*%
%TO.N,SPI_TX*%
X125290500Y-80518000D03*
%TO.P,U1,6,GPIO4*%
%TO.N,~{RIOW}*%
X125290500Y-83058000D03*
%TO.P,U1,7,GPIO5*%
%TO.N,~{RIOR}*%
X125290500Y-85598000D03*
%TO.P,U1,8,GND*%
%TO.N,GND*%
X125290500Y-88138000D03*
%TO.P,U1,9,GPIO6*%
%TO.N,AD0*%
X125290500Y-90678000D03*
%TO.P,U1,10,GPIO7*%
%TO.N,AD1*%
X125290500Y-93218000D03*
%TO.P,U1,11,GPIO8*%
%TO.N,AD2*%
X125290500Y-95758000D03*
%TO.P,U1,12,GPIO9*%
%TO.N,AD3*%
X125290500Y-98298000D03*
%TO.P,U1,13,GND*%
%TO.N,GND*%
X125290500Y-100838000D03*
%TO.P,U1,14,GPIO10*%
%TO.N,AD4*%
X125290500Y-103378000D03*
%TO.P,U1,15,GPIO11*%
%TO.N,AD5*%
X125290500Y-105918000D03*
%TO.P,U1,16,GPIO12*%
%TO.N,AD6*%
X125290500Y-108458000D03*
%TO.P,U1,17,GPIO13*%
%TO.N,AD7*%
X125290500Y-110998000D03*
%TO.P,U1,18,GND*%
%TO.N,GND*%
X125290500Y-113538000D03*
%TO.P,U1,19,GPIO14*%
%TO.N,RA8*%
X125290500Y-116078000D03*
%TO.P,U1,20,GPIO15*%
%TO.N,RA9*%
X125290500Y-118618000D03*
%TO.P,U1,21,GPIO16*%
%TO.N,DIN*%
X143070500Y-118618000D03*
%TO.P,U1,22,GPIO17*%
%TO.N,BCK*%
X143070500Y-116078000D03*
%TO.P,U1,23,GND*%
%TO.N,GND*%
X143070500Y-113538000D03*
%TO.P,U1,24,GPIO18*%
%TO.N,LRCK*%
X143070500Y-110998000D03*
%TO.P,U1,25,GPIO19*%
%TO.N,~{RDACK}*%
X143070500Y-108458000D03*
%TO.P,U1,26,GPIO20*%
%TO.N,RTC*%
X143070500Y-105918000D03*
%TO.P,U1,27,GPIO21*%
%TO.N,RIRQ*%
X143070500Y-103378000D03*
%TO.P,U1,28,GND*%
%TO.N,GND*%
X143070500Y-100838000D03*
%TO.P,U1,29,GPIO22*%
%TO.N,RDRQ*%
X143070500Y-98298000D03*
%TO.P,U1,30,RUN*%
%TO.N,RUN*%
X143070500Y-95758000D03*
%TO.P,U1,31,GPIO26_ADC0*%
%TO.N,~{RI{slash}OCHRDY}*%
X143070500Y-93218000D03*
%TO.P,U1,32,GPIO27_ADC1*%
%TO.N,ADS*%
X143070500Y-90678000D03*
%TO.P,U1,33,AGND*%
%TO.N,GND*%
X143070500Y-88138000D03*
%TO.P,U1,34,GPIO28_ADC2*%
%TO.N,UART_TX*%
X143070500Y-85598000D03*
%TO.P,U1,35,ADC_VREF*%
%TO.N,unconnected-(U1-ADC_VREF-Pad35)*%
X143070500Y-83058000D03*
%TO.P,U1,36,3V3*%
%TO.N,+3V3*%
X143070500Y-80518000D03*
%TO.P,U1,37,3V3_EN*%
%TO.N,unconnected-(U1-3V3_EN-Pad37)*%
X143070500Y-77978000D03*
%TO.P,U1,38,GND*%
%TO.N,GND*%
X143070500Y-75438000D03*
%TO.P,U1,39,VSYS*%
%TO.N,/VSYS*%
X143070500Y-72898000D03*
%TO.P,U1,40,VBUS*%
%TO.N,Net-(JP5-A)*%
X143070500Y-70358000D03*
%TD*%
D11*
%TO.P,JP5,1,A*%
%TO.N,Net-(JP5-A)*%
X136600000Y-73700000D03*
D12*
%TO.P,JP5,2,B*%
%TO.N,/VSYS*%
X139140000Y-73700000D03*
%TD*%
D15*
%TO.P,JP2,1,A*%
%TO.N,AUDIO_L_OUT*%
X135650000Y-127750000D03*
D16*
%TO.P,JP2,2,B*%
%TO.N,/Audio/AUDIO_L*%
X134350000Y-127750000D03*
%TD*%
D17*
%TO.P,JP4,1,A*%
%TO.N,Net-(J3--5V)*%
X122600000Y-70750000D03*
D18*
%TO.P,JP4,2,B*%
%TO.N,UART_TX*%
X122600000Y-69450000D03*
%TD*%
D15*
%TO.P,JP3,1,A*%
%TO.N,AUDIO_R_OUT*%
X135650000Y-130500000D03*
D16*
%TO.P,JP3,2,B*%
%TO.N,/Audio/AUDIO_R*%
X134350000Y-130500000D03*
%TD*%
D19*
%TO.N,A0*%
X130048000Y-105283000D03*
%TO.N,A1*%
X129286000Y-107188000D03*
%TO.N,A2*%
X134620000Y-111252000D03*
X134620000Y-106299000D03*
X126492000Y-111506000D03*
%TO.N,A3*%
X135255000Y-109220000D03*
X124105000Y-111988000D03*
X135074000Y-112068000D03*
%TO.N,A4*%
X120500000Y-115212000D03*
X128143000Y-96393000D03*
X122301000Y-114935000D03*
%TO.N,A5*%
X128270000Y-112649000D03*
X120100000Y-114500000D03*
X128143000Y-98679000D03*
%TO.N,A6*%
X134493000Y-97409000D03*
X134239000Y-103759000D03*
X122301000Y-110998000D03*
X120100000Y-112500000D03*
X122882000Y-104140000D03*
%TO.N,A7*%
X132969000Y-99441000D03*
X120100000Y-110500000D03*
X132969000Y-110109000D03*
%TO.N,A8*%
X120100000Y-108500000D03*
X126873000Y-109474000D03*
X127000000Y-116078000D03*
%TO.N,A9*%
X121050000Y-116750000D03*
X127127000Y-118745000D03*
X128400000Y-117400000D03*
%TO.N,D0*%
X120300000Y-80300000D03*
X122300000Y-80700000D03*
X122428000Y-104775000D03*
%TO.N,D1*%
X120100000Y-78600000D03*
X122275000Y-106400000D03*
X122100000Y-79000000D03*
%TO.N,D2*%
X122936000Y-102300000D03*
X138049000Y-106426000D03*
X120100000Y-76500000D03*
X138430000Y-103505000D03*
X123300000Y-77000000D03*
%TO.N,D3*%
X135890000Y-108204000D03*
X135636000Y-102997000D03*
X122800000Y-75057000D03*
X120100000Y-74500000D03*
X122428000Y-100838000D03*
%TO.N,D4*%
X120100000Y-72500000D03*
X124279500Y-96720500D03*
X124206000Y-73914000D03*
%TO.N,D5*%
X123950000Y-97450000D03*
X120100000Y-70500000D03*
X123600000Y-71800000D03*
%TO.N,D6*%
X133858000Y-97790000D03*
X120700000Y-93091000D03*
X133350000Y-94361000D03*
%TO.N,D7*%
X136017000Y-99949000D03*
X136017000Y-93853000D03*
X121200000Y-91059000D03*
%TO.N,GND*%
X132200000Y-130950000D03*
X142500000Y-67100000D03*
X130550000Y-131850000D03*
X121501000Y-124800000D03*
X140081000Y-95885000D03*
X137774250Y-79170500D03*
X122174000Y-127621000D03*
X129286000Y-83820000D03*
X123825000Y-122936000D03*
X136885250Y-79678500D03*
X120575000Y-81200000D03*
X130806000Y-123571000D03*
X142300000Y-60300000D03*
X140081000Y-96393000D03*
X144300000Y-60300000D03*
X128250000Y-66800000D03*
X122555000Y-121793000D03*
X136017000Y-112014000D03*
X133096000Y-76962000D03*
X120901000Y-124200000D03*
X131450000Y-130450000D03*
X131400000Y-101100000D03*
X127381000Y-83820000D03*
X136017000Y-111506000D03*
X130175000Y-69723000D03*
X123059000Y-121285000D03*
X132461000Y-108585000D03*
X130365500Y-91948000D03*
X144500000Y-65900000D03*
X136598000Y-84687000D03*
X128250000Y-65300000D03*
X133096000Y-74549000D03*
X142300000Y-61500000D03*
X124333000Y-129159000D03*
X140628302Y-88014528D03*
X140100000Y-81900000D03*
X135200000Y-124500000D03*
X130000000Y-66000000D03*
X131450000Y-129900000D03*
X131850000Y-101200000D03*
X134620000Y-71882000D03*
X144300000Y-60900000D03*
X120100000Y-81200000D03*
X133300000Y-125400000D03*
X120100000Y-81800000D03*
X135200000Y-123500000D03*
X132842000Y-86614000D03*
X120301000Y-124200000D03*
X121666000Y-127621000D03*
X130000000Y-66800000D03*
X127000000Y-132350000D03*
X135204000Y-125400000D03*
X137614000Y-86950500D03*
X133300000Y-123500000D03*
X129032000Y-129159000D03*
X138049000Y-118745000D03*
X136300000Y-83300000D03*
X144300000Y-61500000D03*
X142500000Y-65900000D03*
X124333000Y-131191000D03*
X140100000Y-88000000D03*
X125603000Y-123317000D03*
X137614000Y-84687000D03*
X137106000Y-86950500D03*
X132334000Y-114808000D03*
X123952000Y-125476000D03*
X131836000Y-74549000D03*
X132334000Y-118745000D03*
X142500000Y-66500000D03*
X144500000Y-66500000D03*
X136598000Y-86950500D03*
X127889000Y-71374000D03*
X135128000Y-78613000D03*
X141429500Y-78154500D03*
X144500000Y-67100000D03*
X129750000Y-128950000D03*
X137106000Y-84687000D03*
X128250000Y-66000000D03*
X138049000Y-117475000D03*
X128520000Y-129159000D03*
X120575000Y-81800000D03*
X130000000Y-65300000D03*
X120901000Y-124800000D03*
X133985000Y-77978000D03*
X142300000Y-60900000D03*
X130324500Y-118745000D03*
X141300000Y-81800000D03*
X139446000Y-105029000D03*
X122101000Y-124500000D03*
X120301000Y-124800000D03*
X140921500Y-78662500D03*
X139446000Y-103886000D03*
X125853000Y-125476000D03*
X130050000Y-132350000D03*
X130200000Y-123000000D03*
X127508000Y-131826000D03*
X121501000Y-124200000D03*
X128647000Y-125476000D03*
X132334000Y-109093000D03*
X127381000Y-70866000D03*
X140208000Y-91059000D03*
X137800000Y-83000000D03*
X133300000Y-124500000D03*
X132207000Y-91948000D03*
%TO.N,~{IOW}*%
X128524000Y-87249000D03*
X128524000Y-90551000D03*
%TO.N,+3V3*%
X123063000Y-123317000D03*
X129400000Y-62700000D03*
X136100000Y-88000000D03*
X134063500Y-79453500D03*
X122682000Y-129286000D03*
X129650000Y-130450000D03*
X140662000Y-86937000D03*
X122936000Y-131064000D03*
X137922000Y-112268000D03*
X136017000Y-112776000D03*
X129650000Y-129900000D03*
X139669000Y-84673500D03*
X140177000Y-84673500D03*
X128397000Y-131826000D03*
X138176000Y-96139000D03*
X123059000Y-125476000D03*
X140208000Y-92202000D03*
X125009000Y-125476000D03*
X128651000Y-70231000D03*
X127254000Y-69850000D03*
X137160000Y-95631000D03*
X138811000Y-99314000D03*
X127609000Y-131042000D03*
X140200000Y-81049000D03*
X134620000Y-69850000D03*
X138049000Y-104422000D03*
X139666000Y-80520000D03*
X140159500Y-77265500D03*
X139143500Y-76630500D03*
X130450000Y-130950000D03*
X137160000Y-104013000D03*
X129400000Y-63200000D03*
X138086000Y-88048000D03*
X140154000Y-86937000D03*
X129400000Y-63700000D03*
X133731000Y-79121000D03*
X139646000Y-86937000D03*
X140685000Y-84673500D03*
%TO.N,I{slash}OCHRDY*%
X120300000Y-82900000D03*
%TO.N,+5V*%
X122700000Y-68300000D03*
X122200000Y-68300000D03*
X120200000Y-119800000D03*
X121200000Y-119500000D03*
X123216000Y-68021200D03*
X120700000Y-119800000D03*
X122700000Y-67700000D03*
X122200000Y-67700000D03*
X120200000Y-119200000D03*
X120700000Y-119200000D03*
%TO.N,~{RIOR}*%
X133096000Y-83820000D03*
X133223000Y-85471000D03*
%TO.N,TC*%
X128333500Y-114744500D03*
X128397000Y-113538000D03*
%TO.N,BUSOE*%
X130810000Y-81280000D03*
X130429000Y-86614000D03*
X132969000Y-81220000D03*
%TO.N,RIRQ*%
X141097000Y-105537000D03*
X140970000Y-115189000D03*
%TO.N,~{RDACK}*%
X141478000Y-90297000D03*
%TO.N,RDRQ*%
X140589000Y-100711000D03*
X140335000Y-114046000D03*
%TO.N,RTC*%
X139954000Y-112903000D03*
X139954000Y-106299000D03*
%TO.N,IRQ*%
X127515000Y-115450000D03*
X127381000Y-107569000D03*
%TO.N,DACK*%
X133350000Y-90043000D03*
X132588000Y-94869000D03*
X138254500Y-78154500D03*
X138303000Y-89789000D03*
%TO.N,DRQ*%
X122301000Y-113792000D03*
X120500000Y-97500000D03*
%TO.N,AEN*%
X120100000Y-84500000D03*
X135890000Y-85979000D03*
X136022500Y-77392500D03*
%TO.N,ADS*%
X140081000Y-94361000D03*
X140208000Y-92964000D03*
X132334000Y-104521000D03*
X132334000Y-96139000D03*
%TO.N,~{BUSOE}*%
X134112000Y-105156000D03*
X139827000Y-97788000D03*
X135763000Y-88773000D03*
X135890000Y-93091000D03*
X134048500Y-112839500D03*
X139192000Y-93472000D03*
X139954000Y-105537000D03*
%TO.N,RUN*%
X135382000Y-91948000D03*
X135200000Y-80500000D03*
%TO.N,AD7*%
X137096500Y-101155500D03*
X136525000Y-110617000D03*
%TO.N,AD6*%
X133477000Y-109474000D03*
X133477000Y-98806000D03*
%TO.N,AD5*%
X128270000Y-100203000D03*
X128270000Y-106299000D03*
%TO.N,AD4*%
X128150000Y-97950000D03*
%TO.N,AD3*%
X135128000Y-102362000D03*
X136017000Y-109093000D03*
%TO.N,AD2*%
X130048000Y-101473000D03*
X136017000Y-107061000D03*
X135890000Y-101854000D03*
X130048000Y-95885000D03*
%TO.N,AD1*%
X128778000Y-108331000D03*
%TO.N,AD0*%
X129413000Y-106426000D03*
%TO.N,UART_TX*%
X127508000Y-64262000D03*
%TO.N,Net-(U5-Pad4)*%
X132334000Y-89916000D03*
X132334000Y-83185000D03*
%TO.N,Net-(U5-Pad6)*%
X129921000Y-91313000D03*
X129794000Y-82550000D03*
%TO.N,Net-(U5-Pad12)*%
X132715000Y-80010000D03*
X133985000Y-89408000D03*
%TO.N,AUDIO_L_OUT*%
X126700000Y-81500000D03*
%TO.N,AUDIO_R_OUT*%
X126700000Y-82600000D03*
%TO.N,Net-(J3--5V)*%
X122100000Y-72400000D03*
%TO.N,/Audio/AUDIO_R*%
X133303000Y-129747000D03*
%TO.N,/Audio/AUDIO_L*%
X133500000Y-127750000D03*
%TO.N,Net-(JP1-A)*%
X126600000Y-66800000D03*
X134620000Y-91186000D03*
%TD*%
D20*
%TO.N,A0*%
X125503001Y-119761000D02*
X122364001Y-122900000D01*
X130048000Y-117221000D02*
X127508000Y-119761000D01*
X120925000Y-122900000D02*
X120325000Y-123500000D01*
X122364001Y-122900000D02*
X120925000Y-122900000D01*
X119058000Y-123500000D02*
X118518000Y-124040000D01*
X127508000Y-119761000D02*
X125503001Y-119761000D01*
X130048000Y-105283000D02*
X130048000Y-117221000D01*
X120325000Y-123500000D02*
X119058000Y-123500000D01*
%TO.N,A1*%
X117808000Y-122500000D02*
X119900000Y-122500000D01*
X121000000Y-122100000D02*
X123600000Y-119500000D01*
X126407409Y-117348000D02*
X129286000Y-114469409D01*
X124652000Y-117348000D02*
X126407409Y-117348000D01*
X123600000Y-118400000D02*
X124652000Y-117348000D01*
X123600000Y-119500000D02*
X123600000Y-118400000D01*
X119900000Y-122500000D02*
X120300000Y-122100000D01*
X129286000Y-114469409D02*
X129286000Y-107188000D01*
X120300000Y-122100000D02*
X121000000Y-122100000D01*
%TO.N,A2*%
X126138500Y-114808000D02*
X126492000Y-114454500D01*
X118058000Y-120500000D02*
X121800000Y-120500000D01*
X122800000Y-116900000D02*
X124892000Y-114808000D01*
X122800000Y-119500000D02*
X122800000Y-116900000D01*
X134620000Y-111252000D02*
X134620000Y-106299000D01*
X124892000Y-114808000D02*
X126138500Y-114808000D01*
X126492000Y-114454500D02*
X126492000Y-111506000D01*
X121800000Y-120500000D02*
X122800000Y-119500000D01*
%TO.N,A3*%
X120200000Y-118500000D02*
X118058000Y-118500000D01*
X124105000Y-114595000D02*
X120200000Y-118500000D01*
X124105000Y-111988000D02*
X124105000Y-114595000D01*
X135074000Y-112068000D02*
X135074000Y-109401000D01*
X135074000Y-109401000D02*
X135255000Y-109220000D01*
%TO.N,A4*%
X124424500Y-99550000D02*
X123444000Y-100530500D01*
X123444000Y-113792000D02*
X122301000Y-114935000D01*
X120488000Y-115212000D02*
X119200000Y-116500000D01*
X123444000Y-100530500D02*
X123444000Y-113792000D01*
X120500000Y-115212000D02*
X120488000Y-115212000D01*
X128143000Y-97107000D02*
X125700000Y-99550000D01*
X125700000Y-99550000D02*
X124424500Y-99550000D01*
X128143000Y-96393000D02*
X128143000Y-97107000D01*
%TO.N,A5*%
X128270000Y-107815947D02*
X128270000Y-112649000D01*
X127816000Y-107361947D02*
X128270000Y-107815947D01*
X128143000Y-98679000D02*
X127816000Y-99006000D01*
X127816000Y-99006000D02*
X127816000Y-107361947D01*
X120100000Y-114500000D02*
X118058000Y-114500000D01*
%TO.N,A6*%
X122882000Y-104140000D02*
X122882000Y-110417000D01*
X122882000Y-110417000D02*
X122301000Y-110998000D01*
X134493000Y-103505000D02*
X134493000Y-97409000D01*
X120100000Y-112500000D02*
X118058000Y-112500000D01*
X134239000Y-103759000D02*
X134493000Y-103505000D01*
%TO.N,A7*%
X120100000Y-110500000D02*
X118058000Y-110500000D01*
X132969000Y-99441000D02*
X132969000Y-110109000D01*
%TO.N,A8*%
X120100000Y-108500000D02*
X118058000Y-108500000D01*
X127000000Y-109601000D02*
X127000000Y-116078000D01*
X126873000Y-109474000D02*
X127000000Y-109601000D01*
%TO.N,A9*%
X120600000Y-113200000D02*
X120600000Y-107100000D01*
X127127000Y-118673000D02*
X127127000Y-118745000D01*
X121050000Y-113650000D02*
X120600000Y-113200000D01*
X121050000Y-116750000D02*
X121050000Y-113650000D01*
X120000000Y-106500000D02*
X118058000Y-106500000D01*
X120600000Y-107100000D02*
X120000000Y-106500000D01*
X128400000Y-117400000D02*
X127127000Y-118673000D01*
%TO.N,D0*%
X122300000Y-80700000D02*
X122300000Y-99137552D01*
X121974000Y-104321000D02*
X122428000Y-104775000D01*
X120300000Y-80300000D02*
X120100000Y-80500000D01*
X122300000Y-99137552D02*
X121974000Y-99463552D01*
X121974000Y-99463552D02*
X121974000Y-104321000D01*
X120100000Y-80500000D02*
X118058000Y-80500000D01*
%TO.N,D1*%
X122275000Y-106400000D02*
X121600000Y-105725000D01*
X121846000Y-80813053D02*
X121846000Y-79254000D01*
X121600000Y-98900000D02*
X121850000Y-98650000D01*
X121600000Y-105725000D02*
X121600000Y-98900000D01*
X118058000Y-78500000D02*
X120000000Y-78500000D01*
X121846000Y-79254000D02*
X122100000Y-79000000D01*
X120000000Y-78500000D02*
X120100000Y-78600000D01*
X121850000Y-80817053D02*
X121846000Y-80813053D01*
X121850000Y-98650000D02*
X121850000Y-80817053D01*
%TO.N,D2*%
X138049000Y-106426000D02*
X138503000Y-105972000D01*
X122936000Y-102300000D02*
X122936000Y-100064000D01*
X122936000Y-100064000D02*
X123300000Y-99700000D01*
X118058000Y-76500000D02*
X120100000Y-76500000D01*
X138503000Y-103578000D02*
X138430000Y-103505000D01*
X138503000Y-105972000D02*
X138503000Y-103578000D01*
X123300000Y-99700000D02*
X123300000Y-77000000D01*
%TO.N,D3*%
X135509000Y-107823000D02*
X135890000Y-108204000D01*
X120100000Y-74500000D02*
X118058000Y-74500000D01*
X135509000Y-103124000D02*
X135509000Y-107823000D01*
X135636000Y-102997000D02*
X135509000Y-103124000D01*
X122800000Y-75057000D02*
X122800000Y-99400000D01*
X122800000Y-99400000D02*
X122428000Y-99772000D01*
X122428000Y-99772000D02*
X122428000Y-100838000D01*
%TO.N,D4*%
X124279500Y-96720500D02*
X124105000Y-96546000D01*
X124105000Y-74015000D02*
X124206000Y-73914000D01*
X118058000Y-72500000D02*
X120100000Y-72500000D01*
X124105000Y-96546000D02*
X124105000Y-74015000D01*
%TO.N,D5*%
X123752000Y-97252000D02*
X123752000Y-71952000D01*
X123752000Y-71952000D02*
X123600000Y-71800000D01*
X120100000Y-70500000D02*
X118058000Y-70500000D01*
X123950000Y-97450000D02*
X123752000Y-97252000D01*
%TO.N,D6*%
X121075000Y-69675000D02*
X119900000Y-68500000D01*
X121075000Y-89980000D02*
X121075000Y-69675000D01*
X120700000Y-90355000D02*
X121075000Y-89980000D01*
X133858000Y-94869000D02*
X133858000Y-97790000D01*
X133350000Y-94361000D02*
X133858000Y-94869000D01*
X120700000Y-93091000D02*
X120700000Y-90355000D01*
X119900000Y-68500000D02*
X118058000Y-68500000D01*
%TO.N,D7*%
X121450000Y-90809000D02*
X121450000Y-68050000D01*
X119900000Y-66500000D02*
X118058000Y-66500000D01*
X136017000Y-99949000D02*
X136017000Y-93853000D01*
X121450000Y-68050000D02*
X119900000Y-66500000D01*
X121200000Y-91059000D02*
X121450000Y-90809000D01*
%TO.N,~{IOW}*%
X128524000Y-87249000D02*
X128524000Y-90551000D01*
D21*
%TO.N,I{slash}OCHRDY*%
X120300000Y-82900000D02*
X119900000Y-82500000D01*
X119900000Y-82500000D02*
X118058000Y-82500000D01*
D20*
%TO.N,~{RIOR}*%
X133223000Y-85471000D02*
X133223000Y-83947000D01*
X133223000Y-83947000D02*
X133096000Y-83820000D01*
%TO.N,TC*%
X128397000Y-113538000D02*
X128397000Y-114681000D01*
X128397000Y-114681000D02*
X128333500Y-114744500D01*
%TO.N,BUSOE*%
X130810000Y-81280000D02*
X132909000Y-81280000D01*
X130429000Y-81661000D02*
X130810000Y-81280000D01*
X130429000Y-86614000D02*
X130429000Y-81661000D01*
X132909000Y-81280000D02*
X132969000Y-81220000D01*
%TO.N,RIRQ*%
X140970000Y-115189000D02*
X140970000Y-105664000D01*
X140970000Y-105664000D02*
X141097000Y-105537000D01*
%TO.N,~{RDACK}*%
X141551000Y-90370000D02*
X141551000Y-106938500D01*
X141478000Y-90297000D02*
X141551000Y-90370000D01*
X141551000Y-106938500D02*
X143070500Y-108458000D01*
%TO.N,RDRQ*%
X140462000Y-113919000D02*
X140462000Y-100906500D01*
X140335000Y-114046000D02*
X140462000Y-113919000D01*
X140462000Y-100906500D02*
X140589000Y-100779500D01*
%TO.N,RTC*%
X139954000Y-112903000D02*
X139954000Y-106299000D01*
%TO.N,IRQ*%
X127508000Y-115443000D02*
X127515000Y-115450000D01*
X127508000Y-107696000D02*
X127508000Y-115443000D01*
X127381000Y-107569000D02*
X127508000Y-107696000D01*
%TO.N,DACK*%
X138540000Y-78440000D02*
X138540000Y-89552000D01*
X132588000Y-94480947D02*
X133350000Y-93718947D01*
X132588000Y-94869000D02*
X132588000Y-94480947D01*
X133350000Y-93718947D02*
X133350000Y-90043000D01*
X138540000Y-89552000D02*
X138303000Y-89789000D01*
X138254500Y-78154500D02*
X138540000Y-78440000D01*
%TO.N,DRQ*%
X121100000Y-112591000D02*
X122301000Y-113792000D01*
X121100000Y-98100000D02*
X121100000Y-112591000D01*
X120500000Y-97500000D02*
X121100000Y-98100000D01*
%TO.N,AEN*%
X136022500Y-77392500D02*
X135968500Y-77446500D01*
X135700000Y-85789000D02*
X135890000Y-85979000D01*
X136022500Y-81277500D02*
X135700000Y-81600000D01*
X118058000Y-84500000D02*
X120100000Y-84500000D01*
X136022500Y-77392500D02*
X136022500Y-81277500D01*
X135700000Y-81600000D02*
X135700000Y-85789000D01*
%TO.N,ADS*%
X132334000Y-104521000D02*
X132334000Y-96139000D01*
X140208000Y-92964000D02*
X140081000Y-93091000D01*
X140081000Y-93091000D02*
X140081000Y-94361000D01*
%TO.N,~{BUSOE}*%
X139954000Y-98171000D02*
X139192000Y-97409000D01*
X139954000Y-97915000D02*
X139954000Y-98171000D01*
X135763000Y-88773000D02*
X135890000Y-88900000D01*
X135890000Y-88900000D02*
X135890000Y-93091000D01*
X134048500Y-112839500D02*
X134112000Y-112776000D01*
X134112000Y-112776000D02*
X134112000Y-105156000D01*
X139954000Y-105537000D02*
X139954000Y-98171000D01*
X139192000Y-97409000D02*
X139192000Y-93472000D01*
X139827000Y-97788000D02*
X139954000Y-97915000D01*
%TO.N,RUN*%
X135255000Y-91821000D02*
X135382000Y-91948000D01*
X135255000Y-80555000D02*
X135255000Y-91821000D01*
X135200000Y-80500000D02*
X135255000Y-80555000D01*
%TO.N,AD7*%
X137096500Y-101155500D02*
X136525000Y-101727000D01*
X136525000Y-101727000D02*
X136525000Y-110617000D01*
%TO.N,AD6*%
X133477000Y-98806000D02*
X133477000Y-109474000D01*
%TO.N,AD5*%
X128270000Y-100203000D02*
X128270000Y-106299000D01*
%TO.N,AD4*%
X127000000Y-103378000D02*
X125290500Y-103378000D01*
X128150000Y-97950000D02*
X127254000Y-98846000D01*
X127254000Y-103124000D02*
X127000000Y-103378000D01*
X127254000Y-98846000D02*
X127254000Y-103124000D01*
%TO.N,AD3*%
X135128000Y-102362000D02*
X135128000Y-108204000D01*
X135128000Y-108204000D02*
X136017000Y-109093000D01*
%TO.N,AD2*%
X130048000Y-101473000D02*
X130048000Y-95885000D01*
X135890000Y-101854000D02*
X136090000Y-102054000D01*
X136090000Y-102054000D02*
X136090000Y-103185053D01*
X136017000Y-103258053D02*
X136017000Y-107061000D01*
X136090000Y-103185053D02*
X136017000Y-103258053D01*
%TO.N,AD1*%
X128324000Y-95939000D02*
X125603000Y-93218000D01*
X128331053Y-95939000D02*
X128324000Y-95939000D01*
X128778000Y-108331000D02*
X128778000Y-96385947D01*
X128778000Y-96385947D02*
X128331053Y-95939000D01*
%TO.N,AD0*%
X125290500Y-91508500D02*
X125290500Y-90678000D01*
X129413000Y-95631000D02*
X125290500Y-91508500D01*
X129413000Y-106426000D02*
X129413000Y-95631000D01*
%TO.N,UART_TX*%
X144500000Y-84168500D02*
X144500000Y-69500000D01*
X141415500Y-68700000D02*
X140905287Y-68700000D01*
X124714000Y-67886000D02*
X124714000Y-66040000D01*
X143700000Y-68700000D02*
X141415500Y-68700000D01*
X144500000Y-69500000D02*
X143700000Y-68700000D01*
X143070500Y-85598000D02*
X144500000Y-84168500D01*
X123150000Y-69450000D02*
X124714000Y-67886000D01*
X126492000Y-64262000D02*
X124714000Y-66040000D01*
X136467287Y-64262000D02*
X126492000Y-64262000D01*
X140905287Y-68700000D02*
X136467287Y-64262000D01*
%TO.N,Net-(U5-Pad4)*%
X132334000Y-89916000D02*
X132334000Y-83185000D01*
%TO.N,Net-(U5-Pad6)*%
X129921000Y-91313000D02*
X129921000Y-82677000D01*
X129921000Y-82677000D02*
X129794000Y-82550000D01*
D22*
%TO.N,Net-(JP5-A)*%
X136600000Y-73700000D02*
X136600000Y-72700000D01*
X138942000Y-70358000D02*
X143070500Y-70358000D01*
X136600000Y-72700000D02*
X138942000Y-70358000D01*
D20*
%TO.N,Net-(U5-Pad12)*%
X133985000Y-81153000D02*
X132715000Y-80010000D01*
X133985000Y-89408000D02*
X133985000Y-81153000D01*
%TO.N,AUDIO_L_OUT*%
X128978000Y-86578000D02*
X128978000Y-91202553D01*
X133754000Y-113254000D02*
X133754000Y-124904000D01*
X128978000Y-91202553D02*
X130900000Y-93124553D01*
X130900000Y-93124553D02*
X130900000Y-110400000D01*
X133754000Y-124904000D02*
X135650000Y-126800000D01*
X130900000Y-110400000D02*
X133754000Y-113254000D01*
X127900000Y-82700000D02*
X127900000Y-85500000D01*
X127900000Y-85500000D02*
X128978000Y-86578000D01*
X135650000Y-126800000D02*
X135650000Y-127750000D01*
X126700000Y-81500000D02*
X127900000Y-82700000D01*
%TO.N,AUDIO_R_OUT*%
X131260000Y-111260000D02*
X131260000Y-126560000D01*
X131260000Y-126560000D02*
X133750000Y-129050000D01*
X130502000Y-93202000D02*
X130502000Y-110502000D01*
X126700000Y-89400000D02*
X130502000Y-93202000D01*
X130502000Y-110502000D02*
X131260000Y-111260000D01*
X126700000Y-82600000D02*
X126700000Y-89400000D01*
X134650000Y-129050000D02*
X135650000Y-130050000D01*
X133750000Y-129050000D02*
X134650000Y-129050000D01*
%TO.N,Net-(J3--5V)*%
X122600000Y-70750000D02*
X122600000Y-71900000D01*
X122100000Y-72400000D02*
X122600000Y-71900000D01*
%TO.N,/Audio/AUDIO_R*%
X133303000Y-129747000D02*
X134056000Y-130500000D01*
%TO.N,/Audio/AUDIO_L*%
X133500000Y-127750000D02*
X134350000Y-127750000D01*
%TO.N,Net-(JP1-A)*%
X128888000Y-69088000D02*
X133096000Y-69088000D01*
X133731000Y-69723000D02*
X133731000Y-76581000D01*
X126600000Y-66800000D02*
X128888000Y-69088000D01*
X133096000Y-69088000D02*
X133731000Y-69723000D01*
X134620000Y-77470000D02*
X134620000Y-91186000D01*
X133731000Y-76581000D02*
X134620000Y-77470000D01*
%TD*%
M02*
