G04 #@! TF.GenerationSoftware,KiCad,Pcbnew,(6.0.6-0)*
G04 #@! TF.CreationDate,2022-09-05T23:22:14-06:00*
G04 #@! TF.ProjectId,PicoGUS,5069636f-4755-4532-9e6b-696361645f70,rev?*
G04 #@! TF.SameCoordinates,Original*
G04 #@! TF.FileFunction,Paste,Top*
G04 #@! TF.FilePolarity,Positive*
%FSLAX46Y46*%
G04 Gerber Fmt 4.6, Leading zero omitted, Abs format (unit mm)*
G04 Created by KiCad (PCBNEW (6.0.6-0)) date 2022-09-05 23:22:14*
%MOMM*%
%LPD*%
G01*
G04 APERTURE LIST*
G04 Aperture macros list*
%AMRoundRect*
0 Rectangle with rounded corners*
0 $1 Rounding radius*
0 $2 $3 $4 $5 $6 $7 $8 $9 X,Y pos of 4 corners*
0 Add a 4 corners polygon primitive as box body*
4,1,4,$2,$3,$4,$5,$6,$7,$8,$9,$2,$3,0*
0 Add four circle primitives for the rounded corners*
1,1,$1+$1,$2,$3*
1,1,$1+$1,$4,$5*
1,1,$1+$1,$6,$7*
1,1,$1+$1,$8,$9*
0 Add four rect primitives between the rounded corners*
20,1,$1+$1,$2,$3,$4,$5,0*
20,1,$1+$1,$4,$5,$6,$7,0*
20,1,$1+$1,$6,$7,$8,$9,0*
20,1,$1+$1,$8,$9,$2,$3,0*%
G04 Aperture macros list end*
%ADD10RoundRect,0.250000X0.475000X-0.250000X0.475000X0.250000X-0.475000X0.250000X-0.475000X-0.250000X0*%
%ADD11RoundRect,0.250000X-0.262500X-0.450000X0.262500X-0.450000X0.262500X0.450000X-0.262500X0.450000X0*%
%ADD12RoundRect,0.100000X-0.637500X-0.100000X0.637500X-0.100000X0.637500X0.100000X-0.637500X0.100000X0*%
%ADD13RoundRect,0.150000X-0.825000X-0.150000X0.825000X-0.150000X0.825000X0.150000X-0.825000X0.150000X0*%
%ADD14RoundRect,0.150000X-0.150000X0.825000X-0.150000X-0.825000X0.150000X-0.825000X0.150000X0.825000X0*%
%ADD15RoundRect,0.150000X0.512500X0.150000X-0.512500X0.150000X-0.512500X-0.150000X0.512500X-0.150000X0*%
%ADD16RoundRect,0.250000X0.250000X0.475000X-0.250000X0.475000X-0.250000X-0.475000X0.250000X-0.475000X0*%
%ADD17RoundRect,0.218750X-0.218750X-0.381250X0.218750X-0.381250X0.218750X0.381250X-0.218750X0.381250X0*%
%ADD18RoundRect,0.250000X0.450000X-0.262500X0.450000X0.262500X-0.450000X0.262500X-0.450000X-0.262500X0*%
%ADD19RoundRect,0.250000X-0.450000X0.262500X-0.450000X-0.262500X0.450000X-0.262500X0.450000X0.262500X0*%
%ADD20R,1.100000X1.100000*%
%ADD21RoundRect,0.250000X0.262500X0.450000X-0.262500X0.450000X-0.262500X-0.450000X0.262500X-0.450000X0*%
G04 APERTURE END LIST*
D10*
X168211500Y-68006000D03*
X168211500Y-66106000D03*
D11*
X208320000Y-74930000D03*
X210145000Y-74930000D03*
D12*
X151442500Y-84085000D03*
X151442500Y-84735000D03*
X151442500Y-85385000D03*
X151442500Y-86035000D03*
X151442500Y-86685000D03*
X151442500Y-87335000D03*
X151442500Y-87985000D03*
X151442500Y-88635000D03*
X157167500Y-88635000D03*
X157167500Y-87985000D03*
X157167500Y-87335000D03*
X157167500Y-86685000D03*
X157167500Y-86035000D03*
X157167500Y-85385000D03*
X157167500Y-84735000D03*
X157167500Y-84085000D03*
D13*
X155005000Y-68262500D03*
X155005000Y-69532500D03*
X155005000Y-70802500D03*
X155005000Y-72072500D03*
X155005000Y-73342500D03*
X155005000Y-74612500D03*
X155005000Y-75882500D03*
X159955000Y-75882500D03*
X159955000Y-74612500D03*
X159955000Y-73342500D03*
X159955000Y-72072500D03*
X159955000Y-70802500D03*
X159955000Y-69532500D03*
X159955000Y-68262500D03*
D14*
X173863000Y-64835000D03*
X172593000Y-64835000D03*
X171323000Y-64835000D03*
X170053000Y-64835000D03*
X170053000Y-69785000D03*
X171323000Y-69785000D03*
X172593000Y-69785000D03*
X173863000Y-69785000D03*
D10*
X157165000Y-82547500D03*
X157165000Y-80647500D03*
X171196000Y-110170000D03*
X171196000Y-108270000D03*
X151765000Y-66670000D03*
X151765000Y-64770000D03*
D12*
X151442500Y-97737500D03*
X151442500Y-98387500D03*
X151442500Y-99037500D03*
X151442500Y-99687500D03*
X151442500Y-100337500D03*
X151442500Y-100987500D03*
X151442500Y-101637500D03*
X151442500Y-102287500D03*
X157167500Y-102287500D03*
X157167500Y-101637500D03*
X157167500Y-100987500D03*
X157167500Y-100337500D03*
X157167500Y-99687500D03*
X157167500Y-99037500D03*
X157167500Y-98387500D03*
X157167500Y-97737500D03*
D15*
X157030000Y-66672500D03*
X157030000Y-65722500D03*
X157030000Y-64772500D03*
X154755000Y-64772500D03*
X154755000Y-66672500D03*
D13*
X146750000Y-68262500D03*
X146750000Y-69532500D03*
X146750000Y-70802500D03*
X146750000Y-72072500D03*
X146750000Y-73342500D03*
X146750000Y-74612500D03*
X146750000Y-75882500D03*
X151700000Y-75882500D03*
X151700000Y-74612500D03*
X151700000Y-73342500D03*
X151700000Y-72072500D03*
X151700000Y-70802500D03*
X151700000Y-69532500D03*
X151700000Y-68262500D03*
D16*
X155382000Y-105410000D03*
X153482000Y-105410000D03*
D17*
X211980000Y-74930000D03*
X214105000Y-74930000D03*
D10*
X160020000Y-66670000D03*
X160020000Y-64770000D03*
D17*
X211980000Y-72390000D03*
X214105000Y-72390000D03*
D18*
X146685000Y-66635000D03*
X146685000Y-64810000D03*
D19*
X161925000Y-96242500D03*
X161925000Y-98067500D03*
D20*
X202882500Y-64957500D03*
X202882500Y-67757500D03*
D15*
X175635500Y-110424000D03*
X175635500Y-109474000D03*
X175635500Y-108524000D03*
X173360500Y-108524000D03*
X173360500Y-110424000D03*
D10*
X175768000Y-68895000D03*
X175768000Y-66995000D03*
D12*
X151442500Y-107247500D03*
X151442500Y-107897500D03*
X151442500Y-108547500D03*
X151442500Y-109197500D03*
X151442500Y-109847500D03*
X151442500Y-110497500D03*
X151442500Y-111147500D03*
X151442500Y-111797500D03*
X151442500Y-112447500D03*
X151442500Y-113097500D03*
X157167500Y-113097500D03*
X157167500Y-112447500D03*
X157167500Y-111797500D03*
X157167500Y-111147500D03*
X157167500Y-110497500D03*
X157167500Y-109847500D03*
X157167500Y-109197500D03*
X157167500Y-108547500D03*
X157167500Y-107897500D03*
X157167500Y-107247500D03*
D10*
X157162500Y-96200000D03*
X157162500Y-94300000D03*
D21*
X210145000Y-72390000D03*
X208320000Y-72390000D03*
M02*
