M48
; DRILL file {KiCad (6.0.6-0)} date Monday, September 05, 2022 at 11:22:11 PM
; FORMAT={-:-/ absolute / inch / decimal}
; #@! TF.CreationDate,2022-09-05T23:22:11-06:00
; #@! TF.GenerationSoftware,Kicad,Pcbnew,(6.0.6-0)
; #@! TF.FileFunction,Plated,1,2,PTH
FMAT,2
INCH
; #@! TA.AperFunction,Plated,PTH,ViaDrill
T1C0.0118
; #@! TA.AperFunction,Plated,PTH,ComponentDrill
T2C0.0315
; #@! TA.AperFunction,Plated,PTH,ComponentDrill
T3C0.0394
; #@! TA.AperFunction,Plated,PTH,ComponentDrill
T4C0.0402
; #@! TA.AperFunction,Plated,PTH,ComponentDrill
T5C0.1260
%
G90
G05
T1
X4.6265Y-4.9485
X4.6299Y-4.475
X4.6375Y-5.0125
X4.6875Y-4.6375
X4.6875Y-4.7
X4.6875Y-4.7625
X4.7875Y-4.7
X4.7875Y-4.7625
X4.8875Y-4.7
X4.8875Y-4.7625
X4.95Y-4.125
X4.95Y-4.45
X4.9875Y-4.7
X5.1875Y-4.7625
X5.2Y-3.875
X5.2Y-4.0375
X5.2Y-4.2
X5.2Y-4.3625
X5.2Y-4.4875
X5.4125Y-3.6625
X5.4125Y-4.0
X5.4875Y-4.6625
X5.5375Y-4.5438
X5.65Y-2.75
X5.65Y-3.1125
X5.65Y-3.425
X5.65Y-3.575
X5.65Y-3.75
X5.65Y-3.9125
X5.65Y-4.0375
X5.6937Y-4.3937
X5.7Y-2.4875
X5.7Y-2.5875
X5.75Y-4.175
X5.7562Y-3.04
X5.7562Y-3.0812
X5.7562Y-3.2
X5.7562Y-3.325
X5.7562Y-3.4875
X5.7562Y-3.6625
X5.7562Y-3.8125
X5.7562Y-3.95
X5.83Y-2.91
X5.8306Y-3.0183
X5.84Y-2.8
X5.8438Y-3.2
X5.85Y-2.74
X5.8563Y-4.275
X5.86Y-3.06
X5.8631Y-3.3
X5.875Y-2.4875
X5.875Y-3.575
X5.875Y-3.625
X5.8875Y-2.6875
X5.8875Y-3.8125
X5.8875Y-4.5625
X5.8937Y-4.3125
X5.9Y-2.63
X5.9Y-3.375
X5.91Y-2.7375
X5.9112Y-2.8875
X5.9125Y-4.4875
X5.92Y-3.14
X5.925Y-3.5125
X5.925Y-4.0375
X5.9375Y-3.6875
X5.9625Y-4.15
X5.9724Y-3.025
X5.975Y-3.75
X5.9875Y-3.2125
X5.9875Y-3.575
X6.025Y-3.3125
X6.025Y-3.9375
X6.04Y-2.81
X6.06Y-4.04
X6.06Y-4.47
X6.0625Y-3.65
X6.07Y-2.48
X6.075Y-4.2125
X6.12Y-4.29
X6.125Y-3.3125
X6.125Y-3.3625
X6.125Y-3.4375
X6.1375Y-3.7125
X6.1375Y-3.9
X6.1375Y-3.975
X6.14Y-3.175
X6.1435Y-2.575
X6.16Y-3.0
X6.175Y-2.7
X6.175Y-2.8375
X6.2Y-2.6625
X6.2Y-3.0
X6.2125Y-3.53
X6.2375Y-2.5875
X6.2375Y-2.625
X6.2375Y-3.175
X6.2375Y-3.7125
X6.2375Y-3.825
X6.2393Y-3.0002
X6.26Y-2.48
X6.275Y-3.2625
X6.275Y-3.7875
X6.275Y-4.1625
X6.2875Y-4.6625
X6.29Y-4.34
X6.325Y-3.1125
X6.325Y-3.3375
X6.325Y-3.875
X6.325Y-4.1562
X6.34Y-4.33
X6.35Y-4.5375
X6.36Y-2.67
X6.3625Y-3.2
X6.3625Y-3.2875
X6.3625Y-3.525
X6.3625Y-3.7125
X6.3625Y-4.28
X6.3875Y-3.1
X6.4Y-2.6375
X6.4125Y-2.7125
X6.4239Y-4.3
X6.45Y-3.1
X6.45Y-4.5375
X6.4625Y-2.4875
X6.475Y-3.25
X6.475Y-3.5625
X6.475Y-4.45
X6.4875Y-2.934
X6.5125Y-3.6375
X6.5125Y-4.4256
X6.52Y-2.82
X6.52Y-3.56
X6.525Y-3.3125
X6.525Y-4.6688
X6.525Y-4.7188
X6.55Y-2.92
X6.55Y-3.025
X6.55Y-3.11
X6.55Y-3.2
X6.55Y-3.38
X6.55Y-4.45
X6.575Y-2.9937
X6.58Y-3.46
X6.5864Y-4.4256
X6.5875Y-4.7188
X6.5875Y-4.7562
X6.62Y-3.0
X6.6375Y-2.7375
X6.6375Y-4.0625
X6.6375Y-4.45
X6.65Y-2.5125
X6.65Y-3.0938
X6.65Y-3.2
X6.65Y-3.3375
X6.65Y-3.48
X6.65Y-3.6375
X6.65Y-3.7125
X6.6744Y-4.1244
X6.7Y-2.64
X6.7125Y-3.9125
X6.7125Y-4.45
X6.7125Y-4.7437
X6.72Y-3.0625
X6.7375Y-3.2
X6.7375Y-3.3375
X6.7375Y-3.48
X6.7375Y-3.6375
X6.7375Y-3.7125
X6.7437Y-3.9875
X6.75Y-4.7437
X6.775Y-4.45
X6.7875Y-4.7437
X6.825Y-3.3
X6.825Y-3.6125
X6.825Y-3.7125
X6.83Y-4.45
X6.8375Y-3.9
X6.8375Y-4.0875
X6.84Y-2.64
X6.85Y-4.1375
X6.86Y-4.31
X6.875Y-3.955
X6.88Y-3.2
X6.88Y-3.35
X6.88Y-3.5
X6.88Y-3.6125
X6.9Y-4.1375
X6.9Y-4.5125
X6.91Y-3.85
X6.92Y-3.4
X6.92Y-3.675
X6.93Y-3.15
X6.95Y-4.05
X6.95Y-4.45
X6.96Y-2.91
X7.175Y-2.5
X7.175Y-3.3
X7.175Y-4.3
X7.1875Y-3.1
X7.1875Y-3.8
X7.1875Y-3.9
X7.1875Y-4.0
X7.1875Y-4.1
X7.19Y-2.9
X7.275Y-4.475
X7.45Y-2.6875
X7.45Y-3.0
X7.45Y-3.45
X7.45Y-3.9
X7.45Y-4.2
X7.4625Y-4.55
X7.525Y-5.0375
X7.58Y-3.25
X7.58Y-3.5
X7.58Y-4.69
X7.5875Y-3.9
X7.5875Y-4.1
X7.65Y-3.4375
X7.65Y-4.2375
X7.7Y-4.4
X7.725Y-2.95
X7.725Y-3.1
X7.73Y-2.5
X7.7485Y-4.9233
X7.7485Y-5.0015
X7.9375Y-2.85
X7.95Y-2.4875
X7.9875Y-4.525
X8.01Y-3.01
X8.025Y-3.1
X8.1625Y-4.1875
X8.2Y-2.7875
X8.25Y-4.4
X8.25Y-4.5
X8.275Y-2.7875
X8.375Y-4.4
X8.525Y-4.5
T2
X7.6875Y-4.5964
X7.6875Y-4.6751
X8.0375Y-2.8214
X8.0375Y-2.9001
T3
X4.6875Y-4.8623
X4.6875Y-4.9623
X4.7875Y-4.8623
X4.7875Y-4.9623
X4.8875Y-4.8623
X4.8875Y-4.9623
X4.9875Y-4.8623
X4.9875Y-4.9623
X5.0875Y-4.8623
X5.0875Y-4.9623
X5.1875Y-4.8623
X5.1875Y-4.9623
X5.2875Y-4.8623
X5.2875Y-4.9623
X5.3875Y-4.8623
X5.3875Y-4.9623
X5.4875Y-4.8623
X5.4875Y-4.9623
X5.5379Y-4.6127
X5.5379Y-4.7127
X5.5875Y-4.8623
X5.5875Y-4.9623
X5.6379Y-4.6127
X5.6379Y-4.7127
X5.6875Y-4.8623
X5.6875Y-4.9623
X5.7379Y-4.6127
X5.7379Y-4.7127
X5.7875Y-4.8623
X5.7875Y-4.9623
X5.8379Y-4.6127
X5.8379Y-4.7127
X5.8875Y-4.8623
X5.8875Y-4.9623
X5.9379Y-4.6127
X5.9379Y-4.7127
X5.9875Y-4.8623
X5.9875Y-4.9623
X6.0379Y-4.6127
X6.0379Y-4.7127
X6.0875Y-4.8623
X6.0875Y-4.9623
X6.1379Y-4.6127
X6.1379Y-4.7127
X6.1875Y-4.8623
X6.1875Y-4.9623
X6.2379Y-4.6127
X6.2379Y-4.7127
X6.2875Y-4.8623
X6.2875Y-4.9623
X6.3379Y-4.6127
X6.3379Y-4.7127
X6.3875Y-4.8623
X6.3875Y-4.9623
X6.4875Y-4.8623
X6.4875Y-4.9623
X6.5875Y-4.8623
X6.5875Y-4.9623
X6.6875Y-4.8623
X6.6875Y-4.9623
X6.7875Y-4.8623
X6.7875Y-4.9623
X6.8875Y-4.8623
X6.8875Y-4.9623
X6.9875Y-4.8623
X6.9875Y-4.9623
X7.0875Y-4.8623
X7.0875Y-4.9623
X7.1875Y-4.8623
X7.1875Y-4.9623
X7.2875Y-4.8623
X7.2875Y-4.9623
X7.3875Y-4.8623
X7.3875Y-4.9623
X7.4875Y-4.8623
X7.4875Y-4.9623
X7.5875Y-4.8623
X7.5875Y-4.9623
X7.6875Y-4.8623
X7.6875Y-4.9623
X8.0114Y-3.572
X8.0114Y-3.672
X8.0114Y-3.772
X8.0114Y-3.872
X8.0114Y-3.972
X8.0114Y-4.072
X8.0114Y-4.172
X8.0114Y-4.272
X8.0114Y-4.372
X8.0421Y-4.6255
X8.1377Y-2.5375
X8.1421Y-4.6255
X8.2377Y-2.5375
X8.2421Y-4.6255
X8.3421Y-4.6255
X8.4421Y-4.6255
X8.5421Y-4.6255
T4
X7.1Y-2.5
X7.1Y-2.6
X7.1Y-2.7
X7.1Y-2.8
X7.1Y-2.9
X7.1Y-3.0
X7.1Y-3.1
X7.1Y-3.2
X7.1Y-3.3
X7.1Y-3.4
X7.1Y-3.5
X7.1Y-3.6
X7.1Y-3.7
X7.1Y-3.8
X7.1Y-3.9
X7.1Y-4.0
X7.1Y-4.1
X7.1Y-4.2
X7.1Y-4.3
X7.1Y-4.4
X7.35Y-4.3909
X7.45Y-4.3909
X7.55Y-4.3909
X7.8Y-2.5
X7.8Y-2.6
X7.8Y-2.7
X7.8Y-2.8
X7.8Y-2.9
X7.8Y-3.0
X7.8Y-3.1
X7.8Y-3.2
X7.8Y-3.3
X7.8Y-3.4
X7.8Y-3.5
X7.8Y-3.6
X7.8Y-3.7
X7.8Y-3.8
X7.8Y-3.9
X7.8Y-4.0
X7.8Y-4.1
X7.8Y-4.2
X7.8Y-4.3
X7.8Y-4.4
T5
X8.4905Y-2.6572
X8.4905Y-4.8822
T3
G00X8.0929Y-3.1469
M15
G01X8.0929Y-3.1862
M16
G05
G00X8.2386Y-3.2256
M15
G01X8.2386Y-3.265
M16
G05
G00X8.3094Y-3.1469
M15
G01X8.3094Y-3.1862
M16
G05
G00X8.4551Y-3.2256
M15
G01X8.4551Y-3.265
M16
G05
G00X8.5496Y-3.1469
M15
G01X8.5496Y-3.1862
M16
G05
T0
M30
