G04 #@! TF.GenerationSoftware,KiCad,Pcbnew,(6.0.6-0)*
G04 #@! TF.CreationDate,2022-09-05T23:22:14-06:00*
G04 #@! TF.ProjectId,PicoGUS,5069636f-4755-4532-9e6b-696361645f70,rev?*
G04 #@! TF.SameCoordinates,Original*
G04 #@! TF.FileFunction,Soldermask,Top*
G04 #@! TF.FilePolarity,Negative*
%FSLAX46Y46*%
G04 Gerber Fmt 4.6, Leading zero omitted, Abs format (unit mm)*
G04 Created by KiCad (PCBNEW (6.0.6-0)) date 2022-09-05 23:22:14*
%MOMM*%
%LPD*%
G01*
G04 APERTURE LIST*
G04 Aperture macros list*
%AMRoundRect*
0 Rectangle with rounded corners*
0 $1 Rounding radius*
0 $2 $3 $4 $5 $6 $7 $8 $9 X,Y pos of 4 corners*
0 Add a 4 corners polygon primitive as box body*
4,1,4,$2,$3,$4,$5,$6,$7,$8,$9,$2,$3,0*
0 Add four circle primitives for the rounded corners*
1,1,$1+$1,$2,$3*
1,1,$1+$1,$4,$5*
1,1,$1+$1,$6,$7*
1,1,$1+$1,$8,$9*
0 Add four rect primitives between the rounded corners*
20,1,$1+$1,$2,$3,$4,$5,0*
20,1,$1+$1,$4,$5,$6,$7,0*
20,1,$1+$1,$6,$7,$8,$9,0*
20,1,$1+$1,$8,$9,$2,$3,0*%
G04 Aperture macros list end*
%ADD10C,0.070000*%
%ADD11C,0.100000*%
%ADD12R,1.524000X6.858000*%
%ADD13RoundRect,0.250000X0.475000X-0.250000X0.475000X0.250000X-0.475000X0.250000X-0.475000X-0.250000X0*%
%ADD14RoundRect,0.250000X-0.262500X-0.450000X0.262500X-0.450000X0.262500X0.450000X-0.262500X0.450000X0*%
%ADD15RoundRect,0.100000X-0.637500X-0.100000X0.637500X-0.100000X0.637500X0.100000X-0.637500X0.100000X0*%
%ADD16R,1.700000X1.700000*%
%ADD17O,1.700000X1.700000*%
%ADD18RoundRect,0.150000X-0.825000X-0.150000X0.825000X-0.150000X0.825000X0.150000X-0.825000X0.150000X0*%
%ADD19RoundRect,0.150000X-0.150000X0.825000X-0.150000X-0.825000X0.150000X-0.825000X0.150000X0.825000X0*%
%ADD20R,1.600000X1.600000*%
%ADD21C,1.600000*%
%ADD22O,1.800000X2.800000*%
%ADD23RoundRect,0.150000X0.512500X0.150000X-0.512500X0.150000X-0.512500X-0.150000X0.512500X-0.150000X0*%
%ADD24O,1.800000X1.800000*%
%ADD25O,1.500000X1.500000*%
%ADD26R,3.500000X1.700000*%
%ADD27R,1.700000X3.500000*%
%ADD28RoundRect,0.250000X0.250000X0.475000X-0.250000X0.475000X-0.250000X-0.475000X0.250000X-0.475000X0*%
%ADD29RoundRect,0.218750X-0.218750X-0.381250X0.218750X-0.381250X0.218750X0.381250X-0.218750X0.381250X0*%
%ADD30RoundRect,0.250000X0.450000X-0.262500X0.450000X0.262500X-0.450000X0.262500X-0.450000X-0.262500X0*%
%ADD31C,6.400000*%
%ADD32RoundRect,0.250000X-0.450000X0.262500X-0.450000X-0.262500X0.450000X-0.262500X0.450000X0.262500X0*%
%ADD33C,1.700000*%
%ADD34R,1.100000X1.100000*%
%ADD35RoundRect,0.250000X0.262500X0.450000X-0.262500X0.450000X-0.262500X-0.450000X0.262500X-0.450000X0*%
G04 APERTURE END LIST*
D10*
G36*
X123925861Y-64390492D02*
G01*
X122784436Y-64390492D01*
X122884372Y-64023393D01*
X124026105Y-64023393D01*
X123925861Y-64390492D01*
G37*
X123925861Y-64390492D02*
X122784436Y-64390492D01*
X122884372Y-64023393D01*
X124026105Y-64023393D01*
X123925861Y-64390492D01*
G36*
X134175025Y-64025038D02*
G01*
X136439503Y-64025038D01*
X136334864Y-64389694D01*
X134890645Y-64389694D01*
X134743653Y-64393082D01*
X134615336Y-64402791D01*
X134503848Y-64419989D01*
X134453839Y-64431761D01*
X134407344Y-64445843D01*
X134364135Y-64462381D01*
X134323979Y-64481521D01*
X134286647Y-64503408D01*
X134251908Y-64528189D01*
X134219531Y-64556010D01*
X134189285Y-64587017D01*
X134160940Y-64621355D01*
X134134264Y-64659170D01*
X134085002Y-64745817D01*
X134039651Y-64848125D01*
X133996368Y-64967262D01*
X133953306Y-65104394D01*
X133746369Y-65856236D01*
X133736471Y-65896341D01*
X133729542Y-65934592D01*
X133725434Y-65971028D01*
X133723998Y-66005686D01*
X133725088Y-66038607D01*
X133728554Y-66069827D01*
X133734250Y-66099387D01*
X133742027Y-66127323D01*
X133751738Y-66153675D01*
X133763234Y-66178482D01*
X133776368Y-66201781D01*
X133790991Y-66223612D01*
X133806957Y-66244013D01*
X133824117Y-66263021D01*
X133842324Y-66280677D01*
X133861429Y-66297019D01*
X133881284Y-66312084D01*
X133901743Y-66325912D01*
X133922656Y-66338541D01*
X133943876Y-66350009D01*
X133986646Y-66369619D01*
X134028870Y-66385049D01*
X134069364Y-66396608D01*
X134106947Y-66404605D01*
X134140435Y-66409346D01*
X134168645Y-66411141D01*
X134644113Y-66411345D01*
X134926046Y-65412764D01*
X136068779Y-65412457D01*
X135695894Y-66791334D01*
X135423810Y-66787594D01*
X134827959Y-66786960D01*
X133965119Y-66790923D01*
X133847563Y-66791528D01*
X133723584Y-66790084D01*
X133595493Y-66785342D01*
X133465600Y-66776056D01*
X133336214Y-66760979D01*
X133272433Y-66750879D01*
X133209646Y-66738864D01*
X133148140Y-66724777D01*
X133088205Y-66708463D01*
X133030130Y-66689766D01*
X132974202Y-66668529D01*
X132920712Y-66644598D01*
X132869947Y-66617816D01*
X132822196Y-66588027D01*
X132777749Y-66555076D01*
X132736893Y-66518806D01*
X132699919Y-66479062D01*
X132667113Y-66435688D01*
X132638766Y-66388527D01*
X132615165Y-66337424D01*
X132596600Y-66282224D01*
X132583360Y-66222770D01*
X132575733Y-66158906D01*
X132574007Y-66090476D01*
X132578472Y-66017325D01*
X132589417Y-65939297D01*
X132607129Y-65856236D01*
X132865499Y-64869278D01*
X132894685Y-64770470D01*
X132929371Y-64676900D01*
X132969883Y-64588761D01*
X133016545Y-64506246D01*
X133069685Y-64429548D01*
X133129629Y-64358861D01*
X133162254Y-64325832D01*
X133196703Y-64294378D01*
X133233015Y-64264523D01*
X133271233Y-64236291D01*
X133311395Y-64209706D01*
X133353544Y-64184793D01*
X133397721Y-64161576D01*
X133443965Y-64140078D01*
X133492317Y-64120325D01*
X133542819Y-64102339D01*
X133595511Y-64086146D01*
X133650435Y-64071769D01*
X133767137Y-64048561D01*
X133893252Y-64032907D01*
X134029106Y-64025002D01*
X134175025Y-64025038D01*
G37*
X134175025Y-64025038D02*
X136439503Y-64025038D01*
X136334864Y-64389694D01*
X134890645Y-64389694D01*
X134743653Y-64393082D01*
X134615336Y-64402791D01*
X134503848Y-64419989D01*
X134453839Y-64431761D01*
X134407344Y-64445843D01*
X134364135Y-64462381D01*
X134323979Y-64481521D01*
X134286647Y-64503408D01*
X134251908Y-64528189D01*
X134219531Y-64556010D01*
X134189285Y-64587017D01*
X134160940Y-64621355D01*
X134134264Y-64659170D01*
X134085002Y-64745817D01*
X134039651Y-64848125D01*
X133996368Y-64967262D01*
X133953306Y-65104394D01*
X133746369Y-65856236D01*
X133736471Y-65896341D01*
X133729542Y-65934592D01*
X133725434Y-65971028D01*
X133723998Y-66005686D01*
X133725088Y-66038607D01*
X133728554Y-66069827D01*
X133734250Y-66099387D01*
X133742027Y-66127323D01*
X133751738Y-66153675D01*
X133763234Y-66178482D01*
X133776368Y-66201781D01*
X133790991Y-66223612D01*
X133806957Y-66244013D01*
X133824117Y-66263021D01*
X133842324Y-66280677D01*
X133861429Y-66297019D01*
X133881284Y-66312084D01*
X133901743Y-66325912D01*
X133922656Y-66338541D01*
X133943876Y-66350009D01*
X133986646Y-66369619D01*
X134028870Y-66385049D01*
X134069364Y-66396608D01*
X134106947Y-66404605D01*
X134140435Y-66409346D01*
X134168645Y-66411141D01*
X134644113Y-66411345D01*
X134926046Y-65412764D01*
X136068779Y-65412457D01*
X135695894Y-66791334D01*
X135423810Y-66787594D01*
X134827959Y-66786960D01*
X133965119Y-66790923D01*
X133847563Y-66791528D01*
X133723584Y-66790084D01*
X133595493Y-66785342D01*
X133465600Y-66776056D01*
X133336214Y-66760979D01*
X133272433Y-66750879D01*
X133209646Y-66738864D01*
X133148140Y-66724777D01*
X133088205Y-66708463D01*
X133030130Y-66689766D01*
X132974202Y-66668529D01*
X132920712Y-66644598D01*
X132869947Y-66617816D01*
X132822196Y-66588027D01*
X132777749Y-66555076D01*
X132736893Y-66518806D01*
X132699919Y-66479062D01*
X132667113Y-66435688D01*
X132638766Y-66388527D01*
X132615165Y-66337424D01*
X132596600Y-66282224D01*
X132583360Y-66222770D01*
X132575733Y-66158906D01*
X132574007Y-66090476D01*
X132578472Y-66017325D01*
X132589417Y-65939297D01*
X132607129Y-65856236D01*
X132865499Y-64869278D01*
X132894685Y-64770470D01*
X132929371Y-64676900D01*
X132969883Y-64588761D01*
X133016545Y-64506246D01*
X133069685Y-64429548D01*
X133129629Y-64358861D01*
X133162254Y-64325832D01*
X133196703Y-64294378D01*
X133233015Y-64264523D01*
X133271233Y-64236291D01*
X133311395Y-64209706D01*
X133353544Y-64184793D01*
X133397721Y-64161576D01*
X133443965Y-64140078D01*
X133492317Y-64120325D01*
X133542819Y-64102339D01*
X133595511Y-64086146D01*
X133650435Y-64071769D01*
X133767137Y-64048561D01*
X133893252Y-64032907D01*
X134029106Y-64025002D01*
X134175025Y-64025038D01*
G36*
X127946389Y-65853945D02*
G01*
X128027252Y-65545091D01*
X128056437Y-65446286D01*
X128091122Y-65352718D01*
X128131632Y-65264581D01*
X128178294Y-65182068D01*
X128231433Y-65105371D01*
X128291376Y-65034685D01*
X128324000Y-65001655D01*
X128358448Y-64970201D01*
X128394760Y-64940346D01*
X128432977Y-64912114D01*
X128473140Y-64885530D01*
X128515288Y-64860617D01*
X128559464Y-64837399D01*
X128605708Y-64815901D01*
X128654060Y-64796148D01*
X128704562Y-64778162D01*
X128757254Y-64761968D01*
X128812177Y-64747591D01*
X128928878Y-64724382D01*
X129054993Y-64708728D01*
X129190847Y-64700821D01*
X129336766Y-64700856D01*
X130181911Y-64700856D01*
X130181946Y-64700708D01*
X130509364Y-64699203D01*
X130724110Y-64697562D01*
X130793801Y-64696486D01*
X130819154Y-64695226D01*
X130936709Y-64694620D01*
X131060687Y-64696064D01*
X131188777Y-64700805D01*
X131318670Y-64710091D01*
X131448056Y-64725168D01*
X131511836Y-64735268D01*
X131574624Y-64747284D01*
X131636130Y-64761371D01*
X131696065Y-64777685D01*
X131754141Y-64796382D01*
X131810068Y-64817619D01*
X131863559Y-64841550D01*
X131914324Y-64868332D01*
X131962075Y-64898121D01*
X132006522Y-64931073D01*
X132047378Y-64967343D01*
X132084353Y-65007087D01*
X132117158Y-65050462D01*
X132145506Y-65097623D01*
X132169106Y-65148726D01*
X132187671Y-65203926D01*
X132200911Y-65263381D01*
X132208539Y-65327245D01*
X132210264Y-65395675D01*
X132205798Y-65468826D01*
X132194853Y-65546855D01*
X132177140Y-65629917D01*
X132096297Y-65938752D01*
X132067107Y-66037560D01*
X132032419Y-66131131D01*
X131991907Y-66219271D01*
X131945243Y-66301786D01*
X131892102Y-66378485D01*
X131832157Y-66449173D01*
X131799532Y-66482202D01*
X131765083Y-66513657D01*
X131728771Y-66543513D01*
X131690553Y-66571745D01*
X131650391Y-66598330D01*
X131608241Y-66623244D01*
X131564065Y-66646461D01*
X131517821Y-66667959D01*
X131469469Y-66687713D01*
X131418967Y-66705699D01*
X131366275Y-66721893D01*
X131311352Y-66736271D01*
X131194650Y-66759480D01*
X131068536Y-66775134D01*
X130932682Y-66783040D01*
X130786763Y-66783005D01*
X129981514Y-66783080D01*
X129981514Y-66783098D01*
X129638077Y-66784276D01*
X129407144Y-66786158D01*
X129304392Y-66788636D01*
X129186834Y-66789242D01*
X129062854Y-66787798D01*
X128934885Y-66783061D01*
X129915672Y-66783061D01*
X129981382Y-66783098D01*
X129980884Y-66783080D01*
X129976439Y-66783080D01*
X129921450Y-66783061D01*
X129915672Y-66783061D01*
X128934885Y-66783061D01*
X128934763Y-66783057D01*
X128804869Y-66773771D01*
X128675482Y-66758694D01*
X128611701Y-66748594D01*
X128548914Y-66736578D01*
X128487408Y-66722491D01*
X128427473Y-66706177D01*
X128369397Y-66687480D01*
X128313469Y-66666243D01*
X128259979Y-66642312D01*
X128209214Y-66615530D01*
X128161463Y-66585741D01*
X128117015Y-66552789D01*
X128076159Y-66516519D01*
X128039184Y-66476775D01*
X128006378Y-66433400D01*
X127978031Y-66386239D01*
X127954430Y-66335136D01*
X127935864Y-66279936D01*
X127922623Y-66220481D01*
X127914995Y-66156617D01*
X127913269Y-66088187D01*
X127917734Y-66015036D01*
X127919368Y-66003386D01*
X129063238Y-66003386D01*
X129064321Y-66036304D01*
X129067783Y-66067524D01*
X129073475Y-66097082D01*
X129081250Y-66125018D01*
X129090959Y-66151370D01*
X129102454Y-66176176D01*
X129115588Y-66199475D01*
X129130212Y-66221306D01*
X129146179Y-66241707D01*
X129163341Y-66260717D01*
X129181549Y-66278373D01*
X129200657Y-66294715D01*
X129220515Y-66309781D01*
X129240977Y-66323610D01*
X129261893Y-66336240D01*
X129283117Y-66347709D01*
X129325895Y-66367321D01*
X129368126Y-66382753D01*
X129408627Y-66394314D01*
X129446215Y-66402311D01*
X129479707Y-66407053D01*
X129507918Y-66408848D01*
X129948806Y-66418349D01*
X129982958Y-66418349D01*
X129983384Y-66417941D01*
X130042040Y-66418349D01*
X130071135Y-66418349D01*
X130217802Y-66416599D01*
X130345041Y-66412076D01*
X130454551Y-66404017D01*
X130503188Y-66398423D01*
X130548031Y-66391658D01*
X130589291Y-66383627D01*
X130627180Y-66374235D01*
X130661912Y-66363385D01*
X130693698Y-66350983D01*
X130722751Y-66336934D01*
X130749283Y-66321141D01*
X130773506Y-66303509D01*
X130795634Y-66283943D01*
X130815877Y-66262347D01*
X130834450Y-66238626D01*
X130851563Y-66212684D01*
X130867430Y-66184426D01*
X130882263Y-66153757D01*
X130896274Y-66120580D01*
X130922680Y-66046323D01*
X130948347Y-65960892D01*
X130974974Y-65863523D01*
X131037905Y-65629917D01*
X131047814Y-65589815D01*
X131054752Y-65551567D01*
X131058868Y-65515133D01*
X131060310Y-65480476D01*
X131059226Y-65447557D01*
X131055764Y-65416338D01*
X131050072Y-65386780D01*
X131042298Y-65358844D01*
X131032589Y-65332492D01*
X131021094Y-65307686D01*
X131007960Y-65284387D01*
X130993335Y-65262556D01*
X130977368Y-65242155D01*
X130960206Y-65223145D01*
X130941998Y-65205489D01*
X130922890Y-65189147D01*
X130903032Y-65174080D01*
X130882570Y-65160252D01*
X130861653Y-65147622D01*
X130840430Y-65136152D01*
X130797652Y-65116541D01*
X130755421Y-65101109D01*
X130714920Y-65089548D01*
X130677332Y-65081551D01*
X130643841Y-65076809D01*
X130615629Y-65075014D01*
X130140162Y-65074811D01*
X130093917Y-65075107D01*
X130094087Y-65074385D01*
X130094101Y-65074385D01*
X130181926Y-64700856D01*
X130181911Y-64700856D01*
X130094087Y-65074385D01*
X130050893Y-65074385D01*
X129904243Y-65076035D01*
X129777052Y-65080276D01*
X129667616Y-65087897D01*
X129619024Y-65093223D01*
X129574232Y-65099689D01*
X129533027Y-65107396D01*
X129495197Y-65116441D01*
X129460527Y-65126924D01*
X129428806Y-65138943D01*
X129399821Y-65152597D01*
X129373357Y-65167984D01*
X129349204Y-65185204D01*
X129327147Y-65204355D01*
X129306974Y-65225535D01*
X129288472Y-65248844D01*
X129271427Y-65274380D01*
X129255628Y-65302243D01*
X129240861Y-65332529D01*
X129226913Y-65365340D01*
X129200622Y-65438925D01*
X129175054Y-65523788D01*
X129148503Y-65620720D01*
X129085643Y-65853945D01*
X129075735Y-65894047D01*
X129068796Y-65932295D01*
X129064680Y-65968729D01*
X129063238Y-66003386D01*
X127919368Y-66003386D01*
X127928677Y-65937007D01*
X127946389Y-65853945D01*
G37*
X127946389Y-65853945D02*
X128027252Y-65545091D01*
X128056437Y-65446286D01*
X128091122Y-65352718D01*
X128131632Y-65264581D01*
X128178294Y-65182068D01*
X128231433Y-65105371D01*
X128291376Y-65034685D01*
X128324000Y-65001655D01*
X128358448Y-64970201D01*
X128394760Y-64940346D01*
X128432977Y-64912114D01*
X128473140Y-64885530D01*
X128515288Y-64860617D01*
X128559464Y-64837399D01*
X128605708Y-64815901D01*
X128654060Y-64796148D01*
X128704562Y-64778162D01*
X128757254Y-64761968D01*
X128812177Y-64747591D01*
X128928878Y-64724382D01*
X129054993Y-64708728D01*
X129190847Y-64700821D01*
X129336766Y-64700856D01*
X130181911Y-64700856D01*
X130181946Y-64700708D01*
X130509364Y-64699203D01*
X130724110Y-64697562D01*
X130793801Y-64696486D01*
X130819154Y-64695226D01*
X130936709Y-64694620D01*
X131060687Y-64696064D01*
X131188777Y-64700805D01*
X131318670Y-64710091D01*
X131448056Y-64725168D01*
X131511836Y-64735268D01*
X131574624Y-64747284D01*
X131636130Y-64761371D01*
X131696065Y-64777685D01*
X131754141Y-64796382D01*
X131810068Y-64817619D01*
X131863559Y-64841550D01*
X131914324Y-64868332D01*
X131962075Y-64898121D01*
X132006522Y-64931073D01*
X132047378Y-64967343D01*
X132084353Y-65007087D01*
X132117158Y-65050462D01*
X132145506Y-65097623D01*
X132169106Y-65148726D01*
X132187671Y-65203926D01*
X132200911Y-65263381D01*
X132208539Y-65327245D01*
X132210264Y-65395675D01*
X132205798Y-65468826D01*
X132194853Y-65546855D01*
X132177140Y-65629917D01*
X132096297Y-65938752D01*
X132067107Y-66037560D01*
X132032419Y-66131131D01*
X131991907Y-66219271D01*
X131945243Y-66301786D01*
X131892102Y-66378485D01*
X131832157Y-66449173D01*
X131799532Y-66482202D01*
X131765083Y-66513657D01*
X131728771Y-66543513D01*
X131690553Y-66571745D01*
X131650391Y-66598330D01*
X131608241Y-66623244D01*
X131564065Y-66646461D01*
X131517821Y-66667959D01*
X131469469Y-66687713D01*
X131418967Y-66705699D01*
X131366275Y-66721893D01*
X131311352Y-66736271D01*
X131194650Y-66759480D01*
X131068536Y-66775134D01*
X130932682Y-66783040D01*
X130786763Y-66783005D01*
X129981514Y-66783080D01*
X129981514Y-66783098D01*
X129638077Y-66784276D01*
X129407144Y-66786158D01*
X129304392Y-66788636D01*
X129186834Y-66789242D01*
X129062854Y-66787798D01*
X128934885Y-66783061D01*
X129915672Y-66783061D01*
X129981382Y-66783098D01*
X129980884Y-66783080D01*
X129976439Y-66783080D01*
X129921450Y-66783061D01*
X129915672Y-66783061D01*
X128934885Y-66783061D01*
X128934763Y-66783057D01*
X128804869Y-66773771D01*
X128675482Y-66758694D01*
X128611701Y-66748594D01*
X128548914Y-66736578D01*
X128487408Y-66722491D01*
X128427473Y-66706177D01*
X128369397Y-66687480D01*
X128313469Y-66666243D01*
X128259979Y-66642312D01*
X128209214Y-66615530D01*
X128161463Y-66585741D01*
X128117015Y-66552789D01*
X128076159Y-66516519D01*
X128039184Y-66476775D01*
X128006378Y-66433400D01*
X127978031Y-66386239D01*
X127954430Y-66335136D01*
X127935864Y-66279936D01*
X127922623Y-66220481D01*
X127914995Y-66156617D01*
X127913269Y-66088187D01*
X127917734Y-66015036D01*
X127919368Y-66003386D01*
X129063238Y-66003386D01*
X129064321Y-66036304D01*
X129067783Y-66067524D01*
X129073475Y-66097082D01*
X129081250Y-66125018D01*
X129090959Y-66151370D01*
X129102454Y-66176176D01*
X129115588Y-66199475D01*
X129130212Y-66221306D01*
X129146179Y-66241707D01*
X129163341Y-66260717D01*
X129181549Y-66278373D01*
X129200657Y-66294715D01*
X129220515Y-66309781D01*
X129240977Y-66323610D01*
X129261893Y-66336240D01*
X129283117Y-66347709D01*
X129325895Y-66367321D01*
X129368126Y-66382753D01*
X129408627Y-66394314D01*
X129446215Y-66402311D01*
X129479707Y-66407053D01*
X129507918Y-66408848D01*
X129948806Y-66418349D01*
X129982958Y-66418349D01*
X129983384Y-66417941D01*
X130042040Y-66418349D01*
X130071135Y-66418349D01*
X130217802Y-66416599D01*
X130345041Y-66412076D01*
X130454551Y-66404017D01*
X130503188Y-66398423D01*
X130548031Y-66391658D01*
X130589291Y-66383627D01*
X130627180Y-66374235D01*
X130661912Y-66363385D01*
X130693698Y-66350983D01*
X130722751Y-66336934D01*
X130749283Y-66321141D01*
X130773506Y-66303509D01*
X130795634Y-66283943D01*
X130815877Y-66262347D01*
X130834450Y-66238626D01*
X130851563Y-66212684D01*
X130867430Y-66184426D01*
X130882263Y-66153757D01*
X130896274Y-66120580D01*
X130922680Y-66046323D01*
X130948347Y-65960892D01*
X130974974Y-65863523D01*
X131037905Y-65629917D01*
X131047814Y-65589815D01*
X131054752Y-65551567D01*
X131058868Y-65515133D01*
X131060310Y-65480476D01*
X131059226Y-65447557D01*
X131055764Y-65416338D01*
X131050072Y-65386780D01*
X131042298Y-65358844D01*
X131032589Y-65332492D01*
X131021094Y-65307686D01*
X131007960Y-65284387D01*
X130993335Y-65262556D01*
X130977368Y-65242155D01*
X130960206Y-65223145D01*
X130941998Y-65205489D01*
X130922890Y-65189147D01*
X130903032Y-65174080D01*
X130882570Y-65160252D01*
X130861653Y-65147622D01*
X130840430Y-65136152D01*
X130797652Y-65116541D01*
X130755421Y-65101109D01*
X130714920Y-65089548D01*
X130677332Y-65081551D01*
X130643841Y-65076809D01*
X130615629Y-65075014D01*
X130140162Y-65074811D01*
X130093917Y-65075107D01*
X130094087Y-65074385D01*
X130094101Y-65074385D01*
X130181926Y-64700856D01*
X130181911Y-64700856D01*
X130094087Y-65074385D01*
X130050893Y-65074385D01*
X129904243Y-65076035D01*
X129777052Y-65080276D01*
X129667616Y-65087897D01*
X129619024Y-65093223D01*
X129574232Y-65099689D01*
X129533027Y-65107396D01*
X129495197Y-65116441D01*
X129460527Y-65126924D01*
X129428806Y-65138943D01*
X129399821Y-65152597D01*
X129373357Y-65167984D01*
X129349204Y-65185204D01*
X129327147Y-65204355D01*
X129306974Y-65225535D01*
X129288472Y-65248844D01*
X129271427Y-65274380D01*
X129255628Y-65302243D01*
X129240861Y-65332529D01*
X129226913Y-65365340D01*
X129200622Y-65438925D01*
X129175054Y-65523788D01*
X129148503Y-65620720D01*
X129085643Y-65853945D01*
X129075735Y-65894047D01*
X129068796Y-65932295D01*
X129064680Y-65968729D01*
X129063238Y-66003386D01*
X127919368Y-66003386D01*
X127928677Y-65937007D01*
X127946389Y-65853945D01*
G36*
X125489613Y-64700698D02*
G01*
X127754097Y-64700698D01*
X127649452Y-65065354D01*
X126205243Y-65065354D01*
X126058577Y-65067104D01*
X125931338Y-65071629D01*
X125821827Y-65079692D01*
X125773188Y-65085289D01*
X125728345Y-65092056D01*
X125687083Y-65100090D01*
X125649192Y-65109486D01*
X125614459Y-65120338D01*
X125582671Y-65132744D01*
X125553617Y-65146797D01*
X125527083Y-65162593D01*
X125502858Y-65180228D01*
X125480729Y-65199798D01*
X125460483Y-65221397D01*
X125441909Y-65245121D01*
X125424794Y-65271066D01*
X125408926Y-65299326D01*
X125394092Y-65329998D01*
X125380080Y-65363177D01*
X125353672Y-65437436D01*
X125328004Y-65522867D01*
X125301378Y-65620234D01*
X125238452Y-65853828D01*
X125228546Y-65893933D01*
X125221609Y-65932184D01*
X125217494Y-65968620D01*
X125216053Y-66003279D01*
X125217138Y-66036199D01*
X125220600Y-66067420D01*
X125226293Y-66096979D01*
X125234068Y-66124915D01*
X125243777Y-66151268D01*
X125255272Y-66176074D01*
X125268406Y-66199374D01*
X125283031Y-66221204D01*
X125298998Y-66241605D01*
X125316159Y-66260614D01*
X125334367Y-66278270D01*
X125353474Y-66294611D01*
X125373332Y-66309676D01*
X125393793Y-66323504D01*
X125414709Y-66336133D01*
X125435933Y-66347601D01*
X125478709Y-66367211D01*
X125520939Y-66382641D01*
X125561439Y-66394200D01*
X125599026Y-66402197D01*
X125632517Y-66406938D01*
X125660728Y-66408734D01*
X126136197Y-66408937D01*
X127278936Y-66408630D01*
X127187977Y-66788926D01*
X126915893Y-66785186D01*
X126320043Y-66784553D01*
X125457202Y-66788515D01*
X125339646Y-66789120D01*
X125215667Y-66787676D01*
X125087576Y-66782934D01*
X124957683Y-66773649D01*
X124828297Y-66758572D01*
X124764517Y-66748472D01*
X124701729Y-66736456D01*
X124640224Y-66722369D01*
X124580289Y-66706055D01*
X124522213Y-66687358D01*
X124466286Y-66666121D01*
X124412795Y-66642190D01*
X124362030Y-66615408D01*
X124314280Y-66585619D01*
X124269832Y-66552668D01*
X124228977Y-66516398D01*
X124192002Y-66476654D01*
X124159197Y-66433280D01*
X124130849Y-66386119D01*
X124107249Y-66335017D01*
X124088684Y-66279816D01*
X124075443Y-66220362D01*
X124067816Y-66156498D01*
X124066091Y-66088069D01*
X124070556Y-66014918D01*
X124081500Y-65936889D01*
X124099213Y-65853828D01*
X124180088Y-65544942D01*
X124209275Y-65446133D01*
X124243962Y-65352562D01*
X124284473Y-65264423D01*
X124331136Y-65181908D01*
X124384276Y-65105210D01*
X124444220Y-65034522D01*
X124476845Y-65001493D01*
X124511293Y-64970038D01*
X124547606Y-64940183D01*
X124585823Y-64911951D01*
X124625986Y-64885367D01*
X124668135Y-64860453D01*
X124712311Y-64837236D01*
X124758555Y-64815739D01*
X124806907Y-64795985D01*
X124857409Y-64777999D01*
X124910101Y-64761806D01*
X124965024Y-64747429D01*
X125081726Y-64724221D01*
X125207840Y-64708567D01*
X125343694Y-64700662D01*
X125489613Y-64700698D01*
G37*
X125489613Y-64700698D02*
X127754097Y-64700698D01*
X127649452Y-65065354D01*
X126205243Y-65065354D01*
X126058577Y-65067104D01*
X125931338Y-65071629D01*
X125821827Y-65079692D01*
X125773188Y-65085289D01*
X125728345Y-65092056D01*
X125687083Y-65100090D01*
X125649192Y-65109486D01*
X125614459Y-65120338D01*
X125582671Y-65132744D01*
X125553617Y-65146797D01*
X125527083Y-65162593D01*
X125502858Y-65180228D01*
X125480729Y-65199798D01*
X125460483Y-65221397D01*
X125441909Y-65245121D01*
X125424794Y-65271066D01*
X125408926Y-65299326D01*
X125394092Y-65329998D01*
X125380080Y-65363177D01*
X125353672Y-65437436D01*
X125328004Y-65522867D01*
X125301378Y-65620234D01*
X125238452Y-65853828D01*
X125228546Y-65893933D01*
X125221609Y-65932184D01*
X125217494Y-65968620D01*
X125216053Y-66003279D01*
X125217138Y-66036199D01*
X125220600Y-66067420D01*
X125226293Y-66096979D01*
X125234068Y-66124915D01*
X125243777Y-66151268D01*
X125255272Y-66176074D01*
X125268406Y-66199374D01*
X125283031Y-66221204D01*
X125298998Y-66241605D01*
X125316159Y-66260614D01*
X125334367Y-66278270D01*
X125353474Y-66294611D01*
X125373332Y-66309676D01*
X125393793Y-66323504D01*
X125414709Y-66336133D01*
X125435933Y-66347601D01*
X125478709Y-66367211D01*
X125520939Y-66382641D01*
X125561439Y-66394200D01*
X125599026Y-66402197D01*
X125632517Y-66406938D01*
X125660728Y-66408734D01*
X126136197Y-66408937D01*
X127278936Y-66408630D01*
X127187977Y-66788926D01*
X126915893Y-66785186D01*
X126320043Y-66784553D01*
X125457202Y-66788515D01*
X125339646Y-66789120D01*
X125215667Y-66787676D01*
X125087576Y-66782934D01*
X124957683Y-66773649D01*
X124828297Y-66758572D01*
X124764517Y-66748472D01*
X124701729Y-66736456D01*
X124640224Y-66722369D01*
X124580289Y-66706055D01*
X124522213Y-66687358D01*
X124466286Y-66666121D01*
X124412795Y-66642190D01*
X124362030Y-66615408D01*
X124314280Y-66585619D01*
X124269832Y-66552668D01*
X124228977Y-66516398D01*
X124192002Y-66476654D01*
X124159197Y-66433280D01*
X124130849Y-66386119D01*
X124107249Y-66335017D01*
X124088684Y-66279816D01*
X124075443Y-66220362D01*
X124067816Y-66156498D01*
X124066091Y-66088069D01*
X124070556Y-66014918D01*
X124081500Y-65936889D01*
X124099213Y-65853828D01*
X124180088Y-65544942D01*
X124209275Y-65446133D01*
X124243962Y-65352562D01*
X124284473Y-65264423D01*
X124331136Y-65181908D01*
X124384276Y-65105210D01*
X124444220Y-65034522D01*
X124476845Y-65001493D01*
X124511293Y-64970038D01*
X124547606Y-64940183D01*
X124585823Y-64911951D01*
X124625986Y-64885367D01*
X124668135Y-64860453D01*
X124712311Y-64837236D01*
X124758555Y-64815739D01*
X124806907Y-64795985D01*
X124857409Y-64777999D01*
X124910101Y-64761806D01*
X124965024Y-64747429D01*
X125081726Y-64724221D01*
X125207840Y-64708567D01*
X125343694Y-64700662D01*
X125489613Y-64700698D01*
G36*
X123271996Y-66784467D02*
G01*
X122132424Y-66784467D01*
X122700242Y-64699560D01*
X123841435Y-64699560D01*
X123271996Y-66784467D01*
G37*
X123271996Y-66784467D02*
X122132424Y-66784467D01*
X122700242Y-64699560D01*
X123841435Y-64699560D01*
X123271996Y-66784467D01*
G36*
X121465508Y-64021141D02*
G01*
X121578017Y-64025614D01*
X121679562Y-64034341D01*
X121770348Y-64047561D01*
X121850584Y-64065511D01*
X121920474Y-64088427D01*
X121951605Y-64101822D01*
X121980227Y-64116548D01*
X122006366Y-64132634D01*
X122030048Y-64150110D01*
X122051299Y-64169006D01*
X122070144Y-64189351D01*
X122086610Y-64211175D01*
X122100722Y-64234507D01*
X122112507Y-64259378D01*
X122121989Y-64285817D01*
X122129195Y-64313854D01*
X122134151Y-64343518D01*
X122136882Y-64374838D01*
X122137414Y-64407846D01*
X122131986Y-64479039D01*
X122118072Y-64557334D01*
X121943359Y-65195145D01*
X121933248Y-65234100D01*
X121920673Y-65270792D01*
X121905746Y-65305288D01*
X121888579Y-65337657D01*
X121869286Y-65367966D01*
X121847979Y-65396284D01*
X121824771Y-65422678D01*
X121799774Y-65447217D01*
X121773102Y-65469969D01*
X121744867Y-65491001D01*
X121715181Y-65510382D01*
X121684158Y-65528179D01*
X121651909Y-65544461D01*
X121618549Y-65559295D01*
X121584189Y-65572750D01*
X121548942Y-65584894D01*
X121512921Y-65595794D01*
X121476239Y-65605518D01*
X121401341Y-65621713D01*
X121325150Y-65634022D01*
X121248567Y-65642988D01*
X121172494Y-65649157D01*
X121097833Y-65653072D01*
X120956352Y-65656315D01*
X120957278Y-65658476D01*
X119923430Y-65658476D01*
X119833448Y-65411763D01*
X120394939Y-65412688D01*
X120454909Y-65410420D01*
X120484236Y-65408439D01*
X120513053Y-65405437D01*
X120541307Y-65401072D01*
X120568946Y-65395002D01*
X120595917Y-65386886D01*
X120609135Y-65381953D01*
X120622167Y-65376380D01*
X120635004Y-65370124D01*
X120647642Y-65363143D01*
X120660073Y-65355394D01*
X120672290Y-65346833D01*
X120684288Y-65337419D01*
X120696059Y-65327108D01*
X120707597Y-65315858D01*
X120718895Y-65303626D01*
X120729946Y-65290369D01*
X120740745Y-65276044D01*
X120751283Y-65260609D01*
X120761556Y-65244020D01*
X120771556Y-65226236D01*
X120781276Y-65207213D01*
X120790710Y-65186909D01*
X120799851Y-65165281D01*
X120951798Y-64642531D01*
X120963765Y-64607090D01*
X120968600Y-64590490D01*
X120972622Y-64574623D01*
X120975795Y-64559478D01*
X120978085Y-64545045D01*
X120979455Y-64531313D01*
X120979871Y-64518272D01*
X120979296Y-64505912D01*
X120977696Y-64494222D01*
X120975035Y-64483192D01*
X120971277Y-64472810D01*
X120966388Y-64463067D01*
X120960331Y-64453953D01*
X120953072Y-64445456D01*
X120944574Y-64437567D01*
X120934803Y-64430274D01*
X120923723Y-64423568D01*
X120911299Y-64417438D01*
X120897495Y-64411873D01*
X120882275Y-64406864D01*
X120865605Y-64402399D01*
X120847449Y-64398468D01*
X120827771Y-64395060D01*
X120806537Y-64392166D01*
X120783710Y-64389775D01*
X120759255Y-64387876D01*
X120733137Y-64386459D01*
X120675770Y-64385028D01*
X120611324Y-64385400D01*
X120068046Y-64386634D01*
X119418890Y-66786704D01*
X118275614Y-66786704D01*
X119025013Y-64024012D01*
X121206769Y-64024012D01*
X121341828Y-64020686D01*
X121465508Y-64021141D01*
G37*
X121465508Y-64021141D02*
X121578017Y-64025614D01*
X121679562Y-64034341D01*
X121770348Y-64047561D01*
X121850584Y-64065511D01*
X121920474Y-64088427D01*
X121951605Y-64101822D01*
X121980227Y-64116548D01*
X122006366Y-64132634D01*
X122030048Y-64150110D01*
X122051299Y-64169006D01*
X122070144Y-64189351D01*
X122086610Y-64211175D01*
X122100722Y-64234507D01*
X122112507Y-64259378D01*
X122121989Y-64285817D01*
X122129195Y-64313854D01*
X122134151Y-64343518D01*
X122136882Y-64374838D01*
X122137414Y-64407846D01*
X122131986Y-64479039D01*
X122118072Y-64557334D01*
X121943359Y-65195145D01*
X121933248Y-65234100D01*
X121920673Y-65270792D01*
X121905746Y-65305288D01*
X121888579Y-65337657D01*
X121869286Y-65367966D01*
X121847979Y-65396284D01*
X121824771Y-65422678D01*
X121799774Y-65447217D01*
X121773102Y-65469969D01*
X121744867Y-65491001D01*
X121715181Y-65510382D01*
X121684158Y-65528179D01*
X121651909Y-65544461D01*
X121618549Y-65559295D01*
X121584189Y-65572750D01*
X121548942Y-65584894D01*
X121512921Y-65595794D01*
X121476239Y-65605518D01*
X121401341Y-65621713D01*
X121325150Y-65634022D01*
X121248567Y-65642988D01*
X121172494Y-65649157D01*
X121097833Y-65653072D01*
X120956352Y-65656315D01*
X120957278Y-65658476D01*
X119923430Y-65658476D01*
X119833448Y-65411763D01*
X120394939Y-65412688D01*
X120454909Y-65410420D01*
X120484236Y-65408439D01*
X120513053Y-65405437D01*
X120541307Y-65401072D01*
X120568946Y-65395002D01*
X120595917Y-65386886D01*
X120609135Y-65381953D01*
X120622167Y-65376380D01*
X120635004Y-65370124D01*
X120647642Y-65363143D01*
X120660073Y-65355394D01*
X120672290Y-65346833D01*
X120684288Y-65337419D01*
X120696059Y-65327108D01*
X120707597Y-65315858D01*
X120718895Y-65303626D01*
X120729946Y-65290369D01*
X120740745Y-65276044D01*
X120751283Y-65260609D01*
X120761556Y-65244020D01*
X120771556Y-65226236D01*
X120781276Y-65207213D01*
X120790710Y-65186909D01*
X120799851Y-65165281D01*
X120951798Y-64642531D01*
X120963765Y-64607090D01*
X120968600Y-64590490D01*
X120972622Y-64574623D01*
X120975795Y-64559478D01*
X120978085Y-64545045D01*
X120979455Y-64531313D01*
X120979871Y-64518272D01*
X120979296Y-64505912D01*
X120977696Y-64494222D01*
X120975035Y-64483192D01*
X120971277Y-64472810D01*
X120966388Y-64463067D01*
X120960331Y-64453953D01*
X120953072Y-64445456D01*
X120944574Y-64437567D01*
X120934803Y-64430274D01*
X120923723Y-64423568D01*
X120911299Y-64417438D01*
X120897495Y-64411873D01*
X120882275Y-64406864D01*
X120865605Y-64402399D01*
X120847449Y-64398468D01*
X120827771Y-64395060D01*
X120806537Y-64392166D01*
X120783710Y-64389775D01*
X120759255Y-64387876D01*
X120733137Y-64386459D01*
X120675770Y-64385028D01*
X120611324Y-64385400D01*
X120068046Y-64386634D01*
X119418890Y-66786704D01*
X118275614Y-66786704D01*
X119025013Y-64024012D01*
X121206769Y-64024012D01*
X121341828Y-64020686D01*
X121465508Y-64021141D01*
D11*
G36*
X197802500Y-136207500D02*
G01*
X116522500Y-136207500D01*
X116522500Y-128905000D01*
X197802500Y-128905000D01*
X197802500Y-136207500D01*
G37*
X197802500Y-136207500D02*
X116522500Y-136207500D01*
X116522500Y-128905000D01*
X197802500Y-128905000D01*
X197802500Y-136207500D01*
D10*
G36*
X143979386Y-64018986D02*
G01*
X143871246Y-64385803D01*
X142255918Y-64386524D01*
X142224050Y-64386669D01*
X142193907Y-64387458D01*
X142165437Y-64388870D01*
X142138586Y-64390886D01*
X142113303Y-64393486D01*
X142089534Y-64396651D01*
X142067226Y-64400361D01*
X142046327Y-64404596D01*
X142026784Y-64409336D01*
X142008543Y-64414562D01*
X141991552Y-64420254D01*
X141975758Y-64426392D01*
X141961108Y-64432957D01*
X141947549Y-64439928D01*
X141935029Y-64447286D01*
X141923495Y-64455012D01*
X141912893Y-64463085D01*
X141903170Y-64471486D01*
X141894275Y-64480195D01*
X141886154Y-64489193D01*
X141878754Y-64498459D01*
X141872023Y-64507974D01*
X141865907Y-64517718D01*
X141860353Y-64527672D01*
X141855309Y-64537816D01*
X141850723Y-64548129D01*
X141842708Y-64569188D01*
X141835887Y-64590690D01*
X141829836Y-64612478D01*
X141750608Y-64895949D01*
X141745086Y-64918287D01*
X141740668Y-64939537D01*
X141737338Y-64959727D01*
X141735085Y-64978883D01*
X141733894Y-64997031D01*
X141733753Y-65014199D01*
X141734648Y-65030413D01*
X141736565Y-65045700D01*
X141739492Y-65060086D01*
X141743415Y-65073598D01*
X141748320Y-65086263D01*
X141754195Y-65098107D01*
X141761027Y-65109158D01*
X141768801Y-65119441D01*
X141777504Y-65128984D01*
X141787123Y-65137814D01*
X141797646Y-65145956D01*
X141809058Y-65153439D01*
X141821346Y-65160287D01*
X141834497Y-65166529D01*
X141848497Y-65172190D01*
X141863334Y-65177298D01*
X141895462Y-65185961D01*
X141930776Y-65192729D01*
X141969168Y-65197817D01*
X142010533Y-65201439D01*
X142054762Y-65203808D01*
X142202831Y-65201883D01*
X142528420Y-65202226D01*
X143001384Y-65203808D01*
X143039007Y-65202645D01*
X143075627Y-65202728D01*
X143111209Y-65204058D01*
X143145716Y-65206638D01*
X143179112Y-65210470D01*
X143211361Y-65215556D01*
X143242427Y-65221898D01*
X143272274Y-65229498D01*
X143300866Y-65238359D01*
X143328166Y-65248482D01*
X143354138Y-65259870D01*
X143378747Y-65272525D01*
X143401955Y-65286449D01*
X143423728Y-65301645D01*
X143444029Y-65318114D01*
X143462822Y-65335859D01*
X143480070Y-65354881D01*
X143495738Y-65375184D01*
X143509789Y-65396769D01*
X143522188Y-65419638D01*
X143532898Y-65443793D01*
X143541883Y-65469238D01*
X143549106Y-65495973D01*
X143554533Y-65524001D01*
X143558127Y-65553324D01*
X143559851Y-65583945D01*
X143559670Y-65615865D01*
X143557547Y-65649087D01*
X143553446Y-65683613D01*
X143547332Y-65719444D01*
X143539168Y-65756584D01*
X143528917Y-65795034D01*
X143386514Y-66314750D01*
X143375919Y-66347772D01*
X143363704Y-66379351D01*
X143349939Y-66409513D01*
X143334693Y-66438286D01*
X143318035Y-66465695D01*
X143300036Y-66491769D01*
X143280765Y-66516533D01*
X143260291Y-66540014D01*
X143238683Y-66562240D01*
X143216012Y-66583236D01*
X143192346Y-66603030D01*
X143167756Y-66621647D01*
X143116079Y-66655463D01*
X143061537Y-66684896D01*
X143004686Y-66710161D01*
X142946082Y-66731471D01*
X142886281Y-66749041D01*
X142825838Y-66763084D01*
X142765311Y-66773814D01*
X142705255Y-66781445D01*
X142646225Y-66786191D01*
X142588779Y-66788266D01*
X140081265Y-66788266D01*
X140178396Y-66409310D01*
X141866468Y-66410748D01*
X141905388Y-66408959D01*
X141942296Y-66405374D01*
X141977278Y-66399891D01*
X141994073Y-66396405D01*
X142010419Y-66392406D01*
X142026326Y-66387881D01*
X142041806Y-66382817D01*
X142056868Y-66377201D01*
X142071524Y-66371021D01*
X142085784Y-66364263D01*
X142099660Y-66356915D01*
X142113161Y-66348964D01*
X142126299Y-66340397D01*
X142139084Y-66331201D01*
X142151527Y-66321363D01*
X142163639Y-66310871D01*
X142175430Y-66299712D01*
X142186912Y-66287872D01*
X142198095Y-66275339D01*
X142208989Y-66262100D01*
X142219606Y-66248143D01*
X142229956Y-66233454D01*
X142240051Y-66218020D01*
X142259514Y-66184868D01*
X142278082Y-66148584D01*
X142295840Y-66109066D01*
X142366015Y-65861092D01*
X142377168Y-65826839D01*
X142381556Y-65810223D01*
X142385136Y-65793972D01*
X142387898Y-65778100D01*
X142389829Y-65762627D01*
X142390918Y-65747568D01*
X142391153Y-65732940D01*
X142390523Y-65718762D01*
X142389017Y-65705050D01*
X142386622Y-65691820D01*
X142383327Y-65679091D01*
X142379122Y-65666879D01*
X142373993Y-65655201D01*
X142367930Y-65644074D01*
X142360922Y-65633516D01*
X142352955Y-65623543D01*
X142344020Y-65614173D01*
X142334105Y-65605422D01*
X142323197Y-65597307D01*
X142311286Y-65589847D01*
X142298360Y-65583057D01*
X142284408Y-65576955D01*
X142269417Y-65571558D01*
X142253377Y-65566883D01*
X142236275Y-65562947D01*
X142218101Y-65559767D01*
X142198842Y-65557360D01*
X142178488Y-65555743D01*
X142157027Y-65554934D01*
X142134446Y-65554949D01*
X142110736Y-65555805D01*
X141724678Y-65557363D01*
X141459756Y-65556979D01*
X141340165Y-65555602D01*
X141077160Y-65555833D01*
X141001495Y-65551946D01*
X140925882Y-65543396D01*
X140888722Y-65536890D01*
X140852328Y-65528640D01*
X140816952Y-65518452D01*
X140782843Y-65506135D01*
X140750254Y-65491494D01*
X140719436Y-65474337D01*
X140690638Y-65454472D01*
X140664114Y-65431706D01*
X140640112Y-65405845D01*
X140618886Y-65376697D01*
X140600685Y-65344068D01*
X140585761Y-65307767D01*
X140574365Y-65267601D01*
X140566747Y-65223375D01*
X140563160Y-65174898D01*
X140563854Y-65121977D01*
X140569079Y-65064419D01*
X140579088Y-65002031D01*
X140594131Y-64934620D01*
X140614460Y-64861993D01*
X140737413Y-64391873D01*
X140755312Y-64354528D01*
X140774635Y-64319738D01*
X140795387Y-64287413D01*
X140817574Y-64257464D01*
X140841201Y-64229800D01*
X140866275Y-64204331D01*
X140892801Y-64180969D01*
X140920785Y-64159622D01*
X140950233Y-64140201D01*
X140981151Y-64122617D01*
X141047420Y-64092597D01*
X141119637Y-64068845D01*
X141197851Y-64050640D01*
X141282106Y-64037264D01*
X141372450Y-64027999D01*
X141468930Y-64022125D01*
X141571591Y-64018924D01*
X142044989Y-64018472D01*
X143979386Y-64018986D01*
G37*
X143979386Y-64018986D02*
X143871246Y-64385803D01*
X142255918Y-64386524D01*
X142224050Y-64386669D01*
X142193907Y-64387458D01*
X142165437Y-64388870D01*
X142138586Y-64390886D01*
X142113303Y-64393486D01*
X142089534Y-64396651D01*
X142067226Y-64400361D01*
X142046327Y-64404596D01*
X142026784Y-64409336D01*
X142008543Y-64414562D01*
X141991552Y-64420254D01*
X141975758Y-64426392D01*
X141961108Y-64432957D01*
X141947549Y-64439928D01*
X141935029Y-64447286D01*
X141923495Y-64455012D01*
X141912893Y-64463085D01*
X141903170Y-64471486D01*
X141894275Y-64480195D01*
X141886154Y-64489193D01*
X141878754Y-64498459D01*
X141872023Y-64507974D01*
X141865907Y-64517718D01*
X141860353Y-64527672D01*
X141855309Y-64537816D01*
X141850723Y-64548129D01*
X141842708Y-64569188D01*
X141835887Y-64590690D01*
X141829836Y-64612478D01*
X141750608Y-64895949D01*
X141745086Y-64918287D01*
X141740668Y-64939537D01*
X141737338Y-64959727D01*
X141735085Y-64978883D01*
X141733894Y-64997031D01*
X141733753Y-65014199D01*
X141734648Y-65030413D01*
X141736565Y-65045700D01*
X141739492Y-65060086D01*
X141743415Y-65073598D01*
X141748320Y-65086263D01*
X141754195Y-65098107D01*
X141761027Y-65109158D01*
X141768801Y-65119441D01*
X141777504Y-65128984D01*
X141787123Y-65137814D01*
X141797646Y-65145956D01*
X141809058Y-65153439D01*
X141821346Y-65160287D01*
X141834497Y-65166529D01*
X141848497Y-65172190D01*
X141863334Y-65177298D01*
X141895462Y-65185961D01*
X141930776Y-65192729D01*
X141969168Y-65197817D01*
X142010533Y-65201439D01*
X142054762Y-65203808D01*
X142202831Y-65201883D01*
X142528420Y-65202226D01*
X143001384Y-65203808D01*
X143039007Y-65202645D01*
X143075627Y-65202728D01*
X143111209Y-65204058D01*
X143145716Y-65206638D01*
X143179112Y-65210470D01*
X143211361Y-65215556D01*
X143242427Y-65221898D01*
X143272274Y-65229498D01*
X143300866Y-65238359D01*
X143328166Y-65248482D01*
X143354138Y-65259870D01*
X143378747Y-65272525D01*
X143401955Y-65286449D01*
X143423728Y-65301645D01*
X143444029Y-65318114D01*
X143462822Y-65335859D01*
X143480070Y-65354881D01*
X143495738Y-65375184D01*
X143509789Y-65396769D01*
X143522188Y-65419638D01*
X143532898Y-65443793D01*
X143541883Y-65469238D01*
X143549106Y-65495973D01*
X143554533Y-65524001D01*
X143558127Y-65553324D01*
X143559851Y-65583945D01*
X143559670Y-65615865D01*
X143557547Y-65649087D01*
X143553446Y-65683613D01*
X143547332Y-65719444D01*
X143539168Y-65756584D01*
X143528917Y-65795034D01*
X143386514Y-66314750D01*
X143375919Y-66347772D01*
X143363704Y-66379351D01*
X143349939Y-66409513D01*
X143334693Y-66438286D01*
X143318035Y-66465695D01*
X143300036Y-66491769D01*
X143280765Y-66516533D01*
X143260291Y-66540014D01*
X143238683Y-66562240D01*
X143216012Y-66583236D01*
X143192346Y-66603030D01*
X143167756Y-66621647D01*
X143116079Y-66655463D01*
X143061537Y-66684896D01*
X143004686Y-66710161D01*
X142946082Y-66731471D01*
X142886281Y-66749041D01*
X142825838Y-66763084D01*
X142765311Y-66773814D01*
X142705255Y-66781445D01*
X142646225Y-66786191D01*
X142588779Y-66788266D01*
X140081265Y-66788266D01*
X140178396Y-66409310D01*
X141866468Y-66410748D01*
X141905388Y-66408959D01*
X141942296Y-66405374D01*
X141977278Y-66399891D01*
X141994073Y-66396405D01*
X142010419Y-66392406D01*
X142026326Y-66387881D01*
X142041806Y-66382817D01*
X142056868Y-66377201D01*
X142071524Y-66371021D01*
X142085784Y-66364263D01*
X142099660Y-66356915D01*
X142113161Y-66348964D01*
X142126299Y-66340397D01*
X142139084Y-66331201D01*
X142151527Y-66321363D01*
X142163639Y-66310871D01*
X142175430Y-66299712D01*
X142186912Y-66287872D01*
X142198095Y-66275339D01*
X142208989Y-66262100D01*
X142219606Y-66248143D01*
X142229956Y-66233454D01*
X142240051Y-66218020D01*
X142259514Y-66184868D01*
X142278082Y-66148584D01*
X142295840Y-66109066D01*
X142366015Y-65861092D01*
X142377168Y-65826839D01*
X142381556Y-65810223D01*
X142385136Y-65793972D01*
X142387898Y-65778100D01*
X142389829Y-65762627D01*
X142390918Y-65747568D01*
X142391153Y-65732940D01*
X142390523Y-65718762D01*
X142389017Y-65705050D01*
X142386622Y-65691820D01*
X142383327Y-65679091D01*
X142379122Y-65666879D01*
X142373993Y-65655201D01*
X142367930Y-65644074D01*
X142360922Y-65633516D01*
X142352955Y-65623543D01*
X142344020Y-65614173D01*
X142334105Y-65605422D01*
X142323197Y-65597307D01*
X142311286Y-65589847D01*
X142298360Y-65583057D01*
X142284408Y-65576955D01*
X142269417Y-65571558D01*
X142253377Y-65566883D01*
X142236275Y-65562947D01*
X142218101Y-65559767D01*
X142198842Y-65557360D01*
X142178488Y-65555743D01*
X142157027Y-65554934D01*
X142134446Y-65554949D01*
X142110736Y-65555805D01*
X141724678Y-65557363D01*
X141459756Y-65556979D01*
X141340165Y-65555602D01*
X141077160Y-65555833D01*
X141001495Y-65551946D01*
X140925882Y-65543396D01*
X140888722Y-65536890D01*
X140852328Y-65528640D01*
X140816952Y-65518452D01*
X140782843Y-65506135D01*
X140750254Y-65491494D01*
X140719436Y-65474337D01*
X140690638Y-65454472D01*
X140664114Y-65431706D01*
X140640112Y-65405845D01*
X140618886Y-65376697D01*
X140600685Y-65344068D01*
X140585761Y-65307767D01*
X140574365Y-65267601D01*
X140566747Y-65223375D01*
X140563160Y-65174898D01*
X140563854Y-65121977D01*
X140569079Y-65064419D01*
X140579088Y-65002031D01*
X140594131Y-64934620D01*
X140614460Y-64861993D01*
X140737413Y-64391873D01*
X140755312Y-64354528D01*
X140774635Y-64319738D01*
X140795387Y-64287413D01*
X140817574Y-64257464D01*
X140841201Y-64229800D01*
X140866275Y-64204331D01*
X140892801Y-64180969D01*
X140920785Y-64159622D01*
X140950233Y-64140201D01*
X140981151Y-64122617D01*
X141047420Y-64092597D01*
X141119637Y-64068845D01*
X141197851Y-64050640D01*
X141282106Y-64037264D01*
X141372450Y-64027999D01*
X141468930Y-64022125D01*
X141571591Y-64018924D01*
X142044989Y-64018472D01*
X143979386Y-64018986D01*
G36*
X138052991Y-64021831D02*
G01*
X138123835Y-64021831D01*
X137746009Y-65409426D01*
X137746472Y-65409426D01*
X137624389Y-65853001D01*
X137614492Y-65893111D01*
X137607563Y-65931366D01*
X137603454Y-65967806D01*
X137602019Y-66002469D01*
X137603109Y-66035392D01*
X137606575Y-66066616D01*
X137612271Y-66096178D01*
X137620048Y-66124118D01*
X137629759Y-66150472D01*
X137641255Y-66175281D01*
X137654389Y-66198582D01*
X137669013Y-66220415D01*
X137684979Y-66240817D01*
X137702139Y-66259827D01*
X137720345Y-66277484D01*
X137739450Y-66293826D01*
X137759306Y-66308892D01*
X137779764Y-66322720D01*
X137800677Y-66335349D01*
X137821897Y-66346817D01*
X137864667Y-66366426D01*
X137906891Y-66381854D01*
X137947385Y-66393411D01*
X137984968Y-66401404D01*
X138018456Y-66406142D01*
X138046666Y-66407932D01*
X138522110Y-66408165D01*
X138747215Y-65610994D01*
X139179212Y-64024530D01*
X140320948Y-64024530D01*
X139942735Y-65409426D01*
X139946749Y-65409426D01*
X139573862Y-66788150D01*
X139572184Y-66787756D01*
X139567455Y-66787384D01*
X139549284Y-66786704D01*
X139520232Y-66786110D01*
X139481179Y-66785604D01*
X138427268Y-66785604D01*
X138427460Y-66784908D01*
X138427654Y-66784214D01*
X138013914Y-66785690D01*
X137888424Y-66786656D01*
X137843090Y-66787686D01*
X137725538Y-66788292D01*
X137601564Y-66786848D01*
X137473478Y-66782107D01*
X137343589Y-66772821D01*
X137214207Y-66757745D01*
X137150428Y-66747645D01*
X137087643Y-66735629D01*
X137026139Y-66721542D01*
X136966205Y-66705228D01*
X136908131Y-66686531D01*
X136852205Y-66665295D01*
X136798716Y-66641364D01*
X136747952Y-66614582D01*
X136700202Y-66584793D01*
X136655756Y-66551842D01*
X136614900Y-66515572D01*
X136577926Y-66475828D01*
X136545121Y-66432453D01*
X136516773Y-66385293D01*
X136493172Y-66334190D01*
X136474607Y-66278990D01*
X136461365Y-66219536D01*
X136453737Y-66155672D01*
X136452010Y-66087242D01*
X136456474Y-66014091D01*
X136467416Y-65936063D01*
X136485127Y-65853001D01*
X136743491Y-64866073D01*
X136748620Y-64846922D01*
X136753940Y-64827960D01*
X136759452Y-64809185D01*
X136765157Y-64790599D01*
X136771058Y-64772201D01*
X136777155Y-64753990D01*
X136783451Y-64735968D01*
X136789947Y-64718135D01*
X136978784Y-64024607D01*
X137840541Y-64024607D01*
X137891546Y-64022296D01*
X137943961Y-64021049D01*
X137997779Y-64020886D01*
X138052991Y-64021831D01*
G37*
X138052991Y-64021831D02*
X138123835Y-64021831D01*
X137746009Y-65409426D01*
X137746472Y-65409426D01*
X137624389Y-65853001D01*
X137614492Y-65893111D01*
X137607563Y-65931366D01*
X137603454Y-65967806D01*
X137602019Y-66002469D01*
X137603109Y-66035392D01*
X137606575Y-66066616D01*
X137612271Y-66096178D01*
X137620048Y-66124118D01*
X137629759Y-66150472D01*
X137641255Y-66175281D01*
X137654389Y-66198582D01*
X137669013Y-66220415D01*
X137684979Y-66240817D01*
X137702139Y-66259827D01*
X137720345Y-66277484D01*
X137739450Y-66293826D01*
X137759306Y-66308892D01*
X137779764Y-66322720D01*
X137800677Y-66335349D01*
X137821897Y-66346817D01*
X137864667Y-66366426D01*
X137906891Y-66381854D01*
X137947385Y-66393411D01*
X137984968Y-66401404D01*
X138018456Y-66406142D01*
X138046666Y-66407932D01*
X138522110Y-66408165D01*
X138747215Y-65610994D01*
X139179212Y-64024530D01*
X140320948Y-64024530D01*
X139942735Y-65409426D01*
X139946749Y-65409426D01*
X139573862Y-66788150D01*
X139572184Y-66787756D01*
X139567455Y-66787384D01*
X139549284Y-66786704D01*
X139520232Y-66786110D01*
X139481179Y-66785604D01*
X138427268Y-66785604D01*
X138427460Y-66784908D01*
X138427654Y-66784214D01*
X138013914Y-66785690D01*
X137888424Y-66786656D01*
X137843090Y-66787686D01*
X137725538Y-66788292D01*
X137601564Y-66786848D01*
X137473478Y-66782107D01*
X137343589Y-66772821D01*
X137214207Y-66757745D01*
X137150428Y-66747645D01*
X137087643Y-66735629D01*
X137026139Y-66721542D01*
X136966205Y-66705228D01*
X136908131Y-66686531D01*
X136852205Y-66665295D01*
X136798716Y-66641364D01*
X136747952Y-66614582D01*
X136700202Y-66584793D01*
X136655756Y-66551842D01*
X136614900Y-66515572D01*
X136577926Y-66475828D01*
X136545121Y-66432453D01*
X136516773Y-66385293D01*
X136493172Y-66334190D01*
X136474607Y-66278990D01*
X136461365Y-66219536D01*
X136453737Y-66155672D01*
X136452010Y-66087242D01*
X136456474Y-66014091D01*
X136467416Y-65936063D01*
X136485127Y-65853001D01*
X136743491Y-64866073D01*
X136748620Y-64846922D01*
X136753940Y-64827960D01*
X136759452Y-64809185D01*
X136765157Y-64790599D01*
X136771058Y-64772201D01*
X136777155Y-64753990D01*
X136783451Y-64735968D01*
X136789947Y-64718135D01*
X136978784Y-64024607D01*
X137840541Y-64024607D01*
X137891546Y-64022296D01*
X137943961Y-64021049D01*
X137997779Y-64020886D01*
X138052991Y-64021831D01*
D12*
X195262500Y-132397500D03*
X192722500Y-132397500D03*
X190182500Y-132397500D03*
X187642500Y-132397500D03*
X185102500Y-132397500D03*
X182562500Y-132397500D03*
X180022500Y-132397500D03*
X177482500Y-132397500D03*
X174942500Y-132397500D03*
X172402500Y-132397500D03*
X169862500Y-132397500D03*
X167322500Y-132397500D03*
X164782500Y-132397500D03*
X162242500Y-132397500D03*
X159702500Y-132397500D03*
X157162500Y-132397500D03*
X154622500Y-132397500D03*
X152082500Y-132397500D03*
X149542500Y-132397500D03*
X147002500Y-132397500D03*
X144462500Y-132397500D03*
X141922500Y-132397500D03*
X139382500Y-132397500D03*
X136842500Y-132397500D03*
X134302500Y-132397500D03*
X131762500Y-132397500D03*
X129222500Y-132397500D03*
X126682500Y-132397500D03*
X124142500Y-132397500D03*
X121602500Y-132397500D03*
X119062500Y-132397500D03*
D13*
X168211500Y-68006000D03*
X168211500Y-66106000D03*
D14*
X208320000Y-74930000D03*
X210145000Y-74930000D03*
D15*
X151442500Y-84085000D03*
X151442500Y-84735000D03*
X151442500Y-85385000D03*
X151442500Y-86035000D03*
X151442500Y-86685000D03*
X151442500Y-87335000D03*
X151442500Y-87985000D03*
X151442500Y-88635000D03*
X157167500Y-88635000D03*
X157167500Y-87985000D03*
X157167500Y-87335000D03*
X157167500Y-86685000D03*
X157167500Y-86035000D03*
X157167500Y-85385000D03*
X157167500Y-84735000D03*
X157167500Y-84085000D03*
D16*
X209237500Y-64452500D03*
D17*
X206697500Y-64452500D03*
D18*
X155005000Y-68262500D03*
X155005000Y-69532500D03*
X155005000Y-70802500D03*
X155005000Y-72072500D03*
X155005000Y-73342500D03*
X155005000Y-74612500D03*
X155005000Y-75882500D03*
X159955000Y-75882500D03*
X159955000Y-74612500D03*
X159955000Y-73342500D03*
X159955000Y-72072500D03*
X159955000Y-70802500D03*
X159955000Y-69532500D03*
X159955000Y-68262500D03*
D19*
X173863000Y-64835000D03*
X172593000Y-64835000D03*
X171323000Y-64835000D03*
X170053000Y-64835000D03*
X170053000Y-69785000D03*
X171323000Y-69785000D03*
X172593000Y-69785000D03*
X173863000Y-69785000D03*
D13*
X157165000Y-82547500D03*
X157165000Y-80647500D03*
D20*
X195262500Y-118747613D03*
D21*
X195262500Y-116747613D03*
D13*
X171196000Y-110170000D03*
X171196000Y-108270000D03*
D22*
X209260000Y-82430000D03*
X211060000Y-80430000D03*
X217160000Y-80430000D03*
X214760000Y-82430000D03*
X205560000Y-80430000D03*
D13*
X151765000Y-66670000D03*
X151765000Y-64770000D03*
D15*
X151442500Y-97737500D03*
X151442500Y-98387500D03*
X151442500Y-99037500D03*
X151442500Y-99687500D03*
X151442500Y-100337500D03*
X151442500Y-100987500D03*
X151442500Y-101637500D03*
X151442500Y-102287500D03*
X157167500Y-102287500D03*
X157167500Y-101637500D03*
X157167500Y-100987500D03*
X157167500Y-100337500D03*
X157167500Y-99687500D03*
X157167500Y-99037500D03*
X157167500Y-98387500D03*
X157167500Y-97737500D03*
D23*
X157030000Y-66672500D03*
X157030000Y-65722500D03*
X157030000Y-64772500D03*
X154755000Y-64772500D03*
X154755000Y-66672500D03*
D18*
X146750000Y-68262500D03*
X146750000Y-69532500D03*
X146750000Y-70802500D03*
X146750000Y-72072500D03*
X146750000Y-73342500D03*
X146750000Y-74612500D03*
X146750000Y-75882500D03*
X151700000Y-75882500D03*
X151700000Y-74612500D03*
X151700000Y-73342500D03*
X151700000Y-72072500D03*
X151700000Y-70802500D03*
X151700000Y-69532500D03*
X151700000Y-68262500D03*
D24*
X191955000Y-63630000D03*
X186505000Y-63630000D03*
D25*
X186805000Y-66660000D03*
X191655000Y-66660000D03*
D17*
X180340000Y-63500000D03*
D26*
X179440000Y-63500000D03*
D17*
X180340000Y-66040000D03*
D26*
X179440000Y-66040000D03*
D16*
X180340000Y-68580000D03*
D26*
X179440000Y-68580000D03*
D17*
X180340000Y-71120000D03*
D26*
X179440000Y-71120000D03*
D17*
X180340000Y-73660000D03*
D26*
X179440000Y-73660000D03*
X179440000Y-76200000D03*
D17*
X180340000Y-76200000D03*
D26*
X179440000Y-78740000D03*
D17*
X180340000Y-78740000D03*
D26*
X179440000Y-81280000D03*
D16*
X180340000Y-81280000D03*
D17*
X180340000Y-83820000D03*
D26*
X179440000Y-83820000D03*
D17*
X180340000Y-86360000D03*
D26*
X179440000Y-86360000D03*
D17*
X180340000Y-88900000D03*
D26*
X179440000Y-88900000D03*
X179440000Y-91440000D03*
D17*
X180340000Y-91440000D03*
D26*
X179440000Y-93980000D03*
D16*
X180340000Y-93980000D03*
D26*
X179440000Y-96520000D03*
D17*
X180340000Y-96520000D03*
D26*
X179440000Y-99060000D03*
D17*
X180340000Y-99060000D03*
X180340000Y-101600000D03*
D26*
X179440000Y-101600000D03*
D17*
X180340000Y-104140000D03*
D26*
X179440000Y-104140000D03*
D16*
X180340000Y-106680000D03*
D26*
X179440000Y-106680000D03*
D17*
X180340000Y-109220000D03*
D26*
X179440000Y-109220000D03*
X179440000Y-111760000D03*
D17*
X180340000Y-111760000D03*
D26*
X199020000Y-111760000D03*
D17*
X198120000Y-111760000D03*
D26*
X199020000Y-109220000D03*
D17*
X198120000Y-109220000D03*
D16*
X198120000Y-106680000D03*
D26*
X199020000Y-106680000D03*
D17*
X198120000Y-104140000D03*
D26*
X199020000Y-104140000D03*
X199020000Y-101600000D03*
D17*
X198120000Y-101600000D03*
X198120000Y-99060000D03*
D26*
X199020000Y-99060000D03*
X199020000Y-96520000D03*
D17*
X198120000Y-96520000D03*
D16*
X198120000Y-93980000D03*
D26*
X199020000Y-93980000D03*
X199020000Y-91440000D03*
D17*
X198120000Y-91440000D03*
D26*
X199020000Y-88900000D03*
D17*
X198120000Y-88900000D03*
D26*
X199020000Y-86360000D03*
D17*
X198120000Y-86360000D03*
X198120000Y-83820000D03*
D26*
X199020000Y-83820000D03*
X199020000Y-81280000D03*
D16*
X198120000Y-81280000D03*
D26*
X199020000Y-78740000D03*
D17*
X198120000Y-78740000D03*
X198120000Y-76200000D03*
D26*
X199020000Y-76200000D03*
D17*
X198120000Y-73660000D03*
D26*
X199020000Y-73660000D03*
X199020000Y-71120000D03*
D17*
X198120000Y-71120000D03*
D16*
X198120000Y-68580000D03*
D26*
X199020000Y-68580000D03*
D17*
X198120000Y-66040000D03*
D26*
X199020000Y-66040000D03*
X199020000Y-63500000D03*
D17*
X198120000Y-63500000D03*
X186690000Y-111530000D03*
D27*
X186690000Y-112430000D03*
D16*
X189230000Y-111530000D03*
D27*
X189230000Y-112430000D03*
X191770000Y-112430000D03*
D17*
X191770000Y-111530000D03*
D28*
X155382000Y-105410000D03*
X153482000Y-105410000D03*
D29*
X211980000Y-74930000D03*
X214105000Y-74930000D03*
D20*
X204152500Y-73662613D03*
D21*
X204152500Y-71662613D03*
D13*
X160020000Y-66670000D03*
X160020000Y-64770000D03*
D29*
X211980000Y-72390000D03*
X214105000Y-72390000D03*
D30*
X146685000Y-66635000D03*
X146685000Y-64810000D03*
D31*
X215658700Y-124008000D03*
D32*
X161925000Y-96242500D03*
X161925000Y-98067500D03*
D16*
X140662500Y-119702500D03*
D17*
X140662500Y-117162500D03*
X143202500Y-119702500D03*
X143202500Y-117162500D03*
X145742500Y-119702500D03*
X145742500Y-117162500D03*
X148282500Y-119702500D03*
X148282500Y-117162500D03*
X150822500Y-119702500D03*
X150822500Y-117162500D03*
X153362500Y-119702500D03*
X153362500Y-117162500D03*
X155902500Y-119702500D03*
X155902500Y-117162500D03*
X158442500Y-119702500D03*
X158442500Y-117162500D03*
X160982500Y-119702500D03*
X160982500Y-117162500D03*
D33*
X204269050Y-117487931D03*
X206809050Y-117487931D03*
X209349050Y-117487931D03*
X211889050Y-117487931D03*
X214429050Y-117487931D03*
X216969050Y-117487931D03*
X203489050Y-111047931D03*
X203489050Y-108507931D03*
X203489050Y-105967931D03*
X203489050Y-103427931D03*
X203489050Y-100887931D03*
X203489050Y-98347931D03*
X203489050Y-95807931D03*
X203489050Y-93267931D03*
X203489050Y-90727931D03*
D34*
X202882500Y-64957500D03*
X202882500Y-67757500D03*
D23*
X175635500Y-110424000D03*
X175635500Y-109474000D03*
X175635500Y-108524000D03*
X173360500Y-108524000D03*
X173360500Y-110424000D03*
D13*
X175768000Y-68895000D03*
X175768000Y-66995000D03*
D15*
X151442500Y-107247500D03*
X151442500Y-107897500D03*
X151442500Y-108547500D03*
X151442500Y-109197500D03*
X151442500Y-109847500D03*
X151442500Y-110497500D03*
X151442500Y-111147500D03*
X151442500Y-111797500D03*
X151442500Y-112447500D03*
X151442500Y-113097500D03*
X157167500Y-113097500D03*
X157167500Y-112447500D03*
X157167500Y-111797500D03*
X157167500Y-111147500D03*
X157167500Y-110497500D03*
X157167500Y-109847500D03*
X157167500Y-109197500D03*
X157167500Y-108547500D03*
X157167500Y-107897500D03*
X157167500Y-107247500D03*
D16*
X195262500Y-123502500D03*
D17*
X192722500Y-123502500D03*
X190182500Y-123502500D03*
X187642500Y-123502500D03*
X185102500Y-123502500D03*
X182562500Y-123502500D03*
X180022500Y-123502500D03*
X177482500Y-123502500D03*
X174942500Y-123502500D03*
X172402500Y-123502500D03*
X169862500Y-123502500D03*
X167322500Y-123502500D03*
X164782500Y-123502500D03*
X162242500Y-123502500D03*
X159702500Y-123502500D03*
X157162500Y-123502500D03*
X154622500Y-123502500D03*
X152082500Y-123502500D03*
X149542500Y-123502500D03*
X147002500Y-123502500D03*
X144462500Y-123502500D03*
X141922500Y-123502500D03*
X139382500Y-123502500D03*
X136842500Y-123502500D03*
X134302500Y-123502500D03*
X131762500Y-123502500D03*
X129222500Y-123502500D03*
X126682500Y-123502500D03*
X124142500Y-123502500D03*
X121602500Y-123502500D03*
X119062500Y-123502500D03*
X195262500Y-126042500D03*
X192722500Y-126042500D03*
X190182500Y-126042500D03*
X187642500Y-126042500D03*
X185102500Y-126042500D03*
X182562500Y-126042500D03*
X180022500Y-126042500D03*
X177482500Y-126042500D03*
X174942500Y-126042500D03*
X172402500Y-126042500D03*
X169862500Y-126042500D03*
X167322500Y-126042500D03*
X164782500Y-126042500D03*
X162242500Y-126042500D03*
X159702500Y-126042500D03*
X157162500Y-126042500D03*
X154622500Y-126042500D03*
X152082500Y-126042500D03*
X149542500Y-126042500D03*
X147002500Y-126042500D03*
X144462500Y-126042500D03*
X141922500Y-126042500D03*
X139382500Y-126042500D03*
X136842500Y-126042500D03*
X134302500Y-126042500D03*
X131762500Y-126042500D03*
X129222500Y-126042500D03*
X126682500Y-126042500D03*
X124142500Y-126042500D03*
X121602500Y-126042500D03*
X119062500Y-126042500D03*
D31*
X215658700Y-67493000D03*
D13*
X157162500Y-96200000D03*
X157162500Y-94300000D03*
D35*
X210145000Y-72390000D03*
X208320000Y-72390000D03*
M02*
