G04 #@! TF.GenerationSoftware,KiCad,Pcbnew,(6.0.6-0)*
G04 #@! TF.CreationDate,2022-09-05T23:22:14-06:00*
G04 #@! TF.ProjectId,PicoGUS,5069636f-4755-4532-9e6b-696361645f70,rev?*
G04 #@! TF.SameCoordinates,Original*
G04 #@! TF.FileFunction,Soldermask,Bot*
G04 #@! TF.FilePolarity,Negative*
%FSLAX46Y46*%
G04 Gerber Fmt 4.6, Leading zero omitted, Abs format (unit mm)*
G04 Created by KiCad (PCBNEW (6.0.6-0)) date 2022-09-05 23:22:14*
%MOMM*%
%LPD*%
G01*
G04 APERTURE LIST*
%ADD10C,0.100000*%
%ADD11R,1.524000X6.858000*%
%ADD12R,1.700000X1.700000*%
%ADD13O,1.700000X1.700000*%
%ADD14R,1.600000X1.600000*%
%ADD15C,1.600000*%
%ADD16O,1.800000X2.800000*%
%ADD17O,1.800000X1.800000*%
%ADD18O,1.500000X1.500000*%
%ADD19C,6.400000*%
%ADD20C,1.700000*%
G04 APERTURE END LIST*
D10*
G36*
X197802500Y-136207500D02*
G01*
X116522500Y-136207500D01*
X116522500Y-128905000D01*
X197802500Y-128905000D01*
X197802500Y-136207500D01*
G37*
X197802500Y-136207500D02*
X116522500Y-136207500D01*
X116522500Y-128905000D01*
X197802500Y-128905000D01*
X197802500Y-136207500D01*
D11*
X195262500Y-132397500D03*
X192722500Y-132397500D03*
X190182500Y-132397500D03*
X187642500Y-132397500D03*
X185102500Y-132397500D03*
X182562500Y-132397500D03*
X180022500Y-132397500D03*
X177482500Y-132397500D03*
X174942500Y-132397500D03*
X172402500Y-132397500D03*
X169862500Y-132397500D03*
X167322500Y-132397500D03*
X164782500Y-132397500D03*
X162242500Y-132397500D03*
X159702500Y-132397500D03*
X157162500Y-132397500D03*
X154622500Y-132397500D03*
X152082500Y-132397500D03*
X149542500Y-132397500D03*
X147002500Y-132397500D03*
X144462500Y-132397500D03*
X141922500Y-132397500D03*
X139382500Y-132397500D03*
X136842500Y-132397500D03*
X134302500Y-132397500D03*
X131762500Y-132397500D03*
X129222500Y-132397500D03*
X126682500Y-132397500D03*
X124142500Y-132397500D03*
X121602500Y-132397500D03*
X119062500Y-132397500D03*
D12*
X209237500Y-64452500D03*
D13*
X206697500Y-64452500D03*
D14*
X195262500Y-118747613D03*
D15*
X195262500Y-116747613D03*
D16*
X209260000Y-82430000D03*
X211060000Y-80430000D03*
X217160000Y-80430000D03*
X214760000Y-82430000D03*
X205560000Y-80430000D03*
D17*
X191955000Y-63630000D03*
X186505000Y-63630000D03*
D18*
X186805000Y-66660000D03*
X191655000Y-66660000D03*
D13*
X180340000Y-63500000D03*
X180340000Y-66040000D03*
D12*
X180340000Y-68580000D03*
D13*
X180340000Y-71120000D03*
X180340000Y-73660000D03*
X180340000Y-76200000D03*
X180340000Y-78740000D03*
D12*
X180340000Y-81280000D03*
D13*
X180340000Y-83820000D03*
X180340000Y-86360000D03*
X180340000Y-88900000D03*
X180340000Y-91440000D03*
D12*
X180340000Y-93980000D03*
D13*
X180340000Y-96520000D03*
X180340000Y-99060000D03*
X180340000Y-101600000D03*
X180340000Y-104140000D03*
D12*
X180340000Y-106680000D03*
D13*
X180340000Y-109220000D03*
X180340000Y-111760000D03*
X198120000Y-111760000D03*
X198120000Y-109220000D03*
D12*
X198120000Y-106680000D03*
D13*
X198120000Y-104140000D03*
X198120000Y-101600000D03*
X198120000Y-99060000D03*
X198120000Y-96520000D03*
D12*
X198120000Y-93980000D03*
D13*
X198120000Y-91440000D03*
X198120000Y-88900000D03*
X198120000Y-86360000D03*
X198120000Y-83820000D03*
D12*
X198120000Y-81280000D03*
D13*
X198120000Y-78740000D03*
X198120000Y-76200000D03*
X198120000Y-73660000D03*
X198120000Y-71120000D03*
D12*
X198120000Y-68580000D03*
D13*
X198120000Y-66040000D03*
X198120000Y-63500000D03*
X186690000Y-111530000D03*
D12*
X189230000Y-111530000D03*
D13*
X191770000Y-111530000D03*
D14*
X204152500Y-73662613D03*
D15*
X204152500Y-71662613D03*
D19*
X215658700Y-124008000D03*
D12*
X140662500Y-119702500D03*
D13*
X140662500Y-117162500D03*
X143202500Y-119702500D03*
X143202500Y-117162500D03*
X145742500Y-119702500D03*
X145742500Y-117162500D03*
X148282500Y-119702500D03*
X148282500Y-117162500D03*
X150822500Y-119702500D03*
X150822500Y-117162500D03*
X153362500Y-119702500D03*
X153362500Y-117162500D03*
X155902500Y-119702500D03*
X155902500Y-117162500D03*
X158442500Y-119702500D03*
X158442500Y-117162500D03*
X160982500Y-119702500D03*
X160982500Y-117162500D03*
D20*
X204269050Y-117487931D03*
X206809050Y-117487931D03*
X209349050Y-117487931D03*
X211889050Y-117487931D03*
X214429050Y-117487931D03*
X216969050Y-117487931D03*
X203489050Y-111047931D03*
X203489050Y-108507931D03*
X203489050Y-105967931D03*
X203489050Y-103427931D03*
X203489050Y-100887931D03*
X203489050Y-98347931D03*
X203489050Y-95807931D03*
X203489050Y-93267931D03*
X203489050Y-90727931D03*
D12*
X195262500Y-123502500D03*
D13*
X192722500Y-123502500D03*
X190182500Y-123502500D03*
X187642500Y-123502500D03*
X185102500Y-123502500D03*
X182562500Y-123502500D03*
X180022500Y-123502500D03*
X177482500Y-123502500D03*
X174942500Y-123502500D03*
X172402500Y-123502500D03*
X169862500Y-123502500D03*
X167322500Y-123502500D03*
X164782500Y-123502500D03*
X162242500Y-123502500D03*
X159702500Y-123502500D03*
X157162500Y-123502500D03*
X154622500Y-123502500D03*
X152082500Y-123502500D03*
X149542500Y-123502500D03*
X147002500Y-123502500D03*
X144462500Y-123502500D03*
X141922500Y-123502500D03*
X139382500Y-123502500D03*
X136842500Y-123502500D03*
X134302500Y-123502500D03*
X131762500Y-123502500D03*
X129222500Y-123502500D03*
X126682500Y-123502500D03*
X124142500Y-123502500D03*
X121602500Y-123502500D03*
X119062500Y-123502500D03*
X195262500Y-126042500D03*
X192722500Y-126042500D03*
X190182500Y-126042500D03*
X187642500Y-126042500D03*
X185102500Y-126042500D03*
X182562500Y-126042500D03*
X180022500Y-126042500D03*
X177482500Y-126042500D03*
X174942500Y-126042500D03*
X172402500Y-126042500D03*
X169862500Y-126042500D03*
X167322500Y-126042500D03*
X164782500Y-126042500D03*
X162242500Y-126042500D03*
X159702500Y-126042500D03*
X157162500Y-126042500D03*
X154622500Y-126042500D03*
X152082500Y-126042500D03*
X149542500Y-126042500D03*
X147002500Y-126042500D03*
X144462500Y-126042500D03*
X141922500Y-126042500D03*
X139382500Y-126042500D03*
X136842500Y-126042500D03*
X134302500Y-126042500D03*
X131762500Y-126042500D03*
X129222500Y-126042500D03*
X126682500Y-126042500D03*
X124142500Y-126042500D03*
X121602500Y-126042500D03*
X119062500Y-126042500D03*
D19*
X215658700Y-67493000D03*
M02*
